<?xml version="1.0" encoding="UTF-8" standalone="no"?>
<!-- Generated by SVGo -->

<svg
   width="302.077mm"
   height="160.260mm"
   viewBox="0.000 0.000 302.077 160.260"
   version="1.1"
   id="svg28"
   sodipodi:docname="cuts.svg"
   inkscape:version="1.1.2 (0a00cf5339, 2022-02-04, custom)"
   xmlns:inkscape="http://www.inkscape.org/namespaces/inkscape"
   xmlns:sodipodi="http://sodipodi.sourceforge.net/DTD/sodipodi-0.dtd"
   xmlns="http://www.w3.org/2000/svg"
   xmlns:svg="http://www.w3.org/2000/svg"
   xmlns:rdf="http://www.w3.org/1999/02/22-rdf-syntax-ns#"
   xmlns:cc="http://creativecommons.org/ns#"
   xmlns:dc="http://purl.org/dc/elements/1.1/">
  <title
     id="title946">Eliza</title>
  <defs
     id="defs32">
    <inkscape:path-effect
       effect="offset"
       id="path-effect2555"
       is_visible="true"
       lpeversion="1"
       linejoin_type="miter"
       unit="mm"
       offset="-11"
       miter_limit="4"
       attempt_force_join="false"
       update_on_knot_move="true" />
    <inkscape:path-effect
       effect="offset"
       id="path-effect2513"
       is_visible="true"
       lpeversion="1"
       linejoin_type="miter"
       unit="mm"
       offset="0"
       miter_limit="4"
       attempt_force_join="false"
       update_on_knot_move="true" />
    <inkscape:path-effect
       effect="offset"
       id="path-effect2409"
       is_visible="true"
       lpeversion="1"
       linejoin_type="miter"
       unit="mm"
       offset="-11"
       miter_limit="4"
       attempt_force_join="false"
       update_on_knot_move="true" />
    <inkscape:path-effect
       effect="offset"
       id="path-effect2269"
       is_visible="true"
       lpeversion="1"
       linejoin_type="miter"
       unit="mm"
       offset="-11"
       miter_limit="4"
       attempt_force_join="false"
       update_on_knot_move="true" />
    <inkscape:path-effect
       effect="offset"
       id="path-effect2038"
       is_visible="true"
       lpeversion="1"
       linejoin_type="miter"
       unit="mm"
       offset="-1"
       miter_limit="4"
       attempt_force_join="false"
       update_on_knot_move="true" />
    <inkscape:path-effect
       effect="offset"
       id="path-effect1994"
       is_visible="true"
       lpeversion="1"
       linejoin_type="miter"
       unit="mm"
       offset="2"
       miter_limit="4"
       attempt_force_join="false"
       update_on_knot_move="true" />
    <inkscape:path-effect
       effect="offset"
       id="path-effect1795"
       is_visible="true"
       lpeversion="1"
       linejoin_type="miter"
       unit="mm"
       offset="-1"
       miter_limit="4"
       attempt_force_join="false"
       update_on_knot_move="true" />
    <inkscape:path-effect
       effect="offset"
       id="path-effect1793"
       is_visible="true"
       lpeversion="1"
       linejoin_type="miter"
       unit="mm"
       offset="1"
       miter_limit="4"
       attempt_force_join="false"
       update_on_knot_move="true" />
    <inkscape:path-effect
       effect="offset"
       id="path-effect1789"
       is_visible="true"
       lpeversion="1"
       linejoin_type="miter"
       unit="mm"
       offset="1"
       miter_limit="4"
       attempt_force_join="false"
       update_on_knot_move="true" />
    <inkscape:path-effect
       effect="offset"
       id="path-effect1739"
       is_visible="true"
       lpeversion="1"
       linejoin_type="miter"
       unit="mm"
       offset="-1"
       miter_limit="4"
       attempt_force_join="false"
       update_on_knot_move="true" />
    <inkscape:path-effect
       effect="offset"
       id="path-effect1737"
       is_visible="true"
       lpeversion="1"
       linejoin_type="miter"
       unit="mm"
       offset="1"
       miter_limit="4"
       attempt_force_join="false"
       update_on_knot_move="true" />
    <inkscape:path-effect
       effect="offset"
       id="path-effect1733"
       is_visible="true"
       lpeversion="1"
       linejoin_type="miter"
       unit="mm"
       offset="1"
       miter_limit="4"
       attempt_force_join="false"
       update_on_knot_move="true" />
    <inkscape:path-effect
       effect="offset"
       id="path-effect1683"
       is_visible="true"
       lpeversion="1"
       linejoin_type="miter"
       unit="mm"
       offset="3"
       miter_limit="4"
       attempt_force_join="false"
       update_on_knot_move="true" />
    <inkscape:path-effect
       effect="offset"
       id="path-effect968"
       is_visible="true"
       lpeversion="1"
       linejoin_type="miter"
       unit="mm"
       offset="-3"
       miter_limit="4"
       attempt_force_join="false"
       update_on_knot_move="true" />
    <inkscape:path-effect
       effect="offset"
       id="path-effect948"
       is_visible="true"
       lpeversion="1"
       linejoin_type="miter"
       unit="mm"
       offset="-3"
       miter_limit="4"
       attempt_force_join="false"
       update_on_knot_move="true" />
    <inkscape:path-effect
       effect="offset"
       id="path-effect1032"
       is_visible="true"
       lpeversion="1"
       linejoin_type="miter"
       unit="mm"
       offset="-2"
       miter_limit="4"
       attempt_force_join="false"
       update_on_knot_move="true" />
    <inkscape:path-effect
       effect="offset"
       id="path-effect988"
       is_visible="true"
       lpeversion="1"
       linejoin_type="miter"
       unit="mm"
       offset="-1"
       miter_limit="4"
       attempt_force_join="false"
       update_on_knot_move="true" />
    <inkscape:path-effect
       effect="offset"
       id="path-effect8589"
       is_visible="true"
       lpeversion="1"
       linejoin_type="miter"
       unit="mm"
       offset="-11"
       miter_limit="4"
       attempt_force_join="false"
       update_on_knot_move="true" />
    <inkscape:path-effect
       effect="offset"
       id="path-effect7616"
       is_visible="true"
       lpeversion="1"
       linejoin_type="miter"
       unit="mm"
       offset="-11"
       miter_limit="4"
       attempt_force_join="false"
       update_on_knot_move="true" />
    <inkscape:path-effect
       effect="offset"
       id="path-effect6560"
       is_visible="true"
       lpeversion="1"
       linejoin_type="miter"
       unit="mm"
       offset="-11"
       miter_limit="4"
       attempt_force_join="false"
       update_on_knot_move="true" />
    <inkscape:path-effect
       effect="offset"
       id="path-effect6518"
       is_visible="true"
       lpeversion="1"
       linejoin_type="miter"
       unit="mm"
       offset="0"
       miter_limit="4"
       attempt_force_join="false"
       update_on_knot_move="true" />
    <inkscape:path-effect
       effect="offset"
       id="path-effect2519"
       is_visible="true"
       lpeversion="1"
       linejoin_type="miter"
       unit="mm"
       offset="1"
       miter_limit="4"
       attempt_force_join="false"
       update_on_knot_move="true" />
    <inkscape:path-effect
       effect="offset"
       id="path-effect2517"
       is_visible="true"
       lpeversion="1"
       linejoin_type="miter"
       unit="mm"
       offset="1"
       miter_limit="4"
       attempt_force_join="false"
       update_on_knot_move="true" />
    <inkscape:path-effect
       effect="offset"
       id="path-effect2672"
       is_visible="true"
       lpeversion="1"
       linejoin_type="miter"
       unit="mm"
       offset="-11"
       miter_limit="4"
       attempt_force_join="false"
       update_on_knot_move="true" />
    <inkscape:path-effect
       effect="offset"
       id="path-effect2630"
       is_visible="true"
       lpeversion="1"
       linejoin_type="miter"
       unit="mm"
       offset="-11"
       miter_limit="4"
       attempt_force_join="false"
       update_on_knot_move="true" />
    <inkscape:path-effect
       effect="offset"
       id="path-effect1591"
       is_visible="true"
       lpeversion="1"
       linejoin_type="miter"
       unit="mm"
       offset="-11"
       miter_limit="4"
       attempt_force_join="false"
       update_on_knot_move="true" />
    <inkscape:path-effect
       effect="offset"
       id="path-effect1468"
       is_visible="true"
       lpeversion="1"
       linejoin_type="miter"
       unit="mm"
       offset="0"
       miter_limit="4"
       attempt_force_join="false"
       update_on_knot_move="true" />
    <inkscape:path-effect
       effect="offset"
       id="path-effect1326"
       is_visible="true"
       lpeversion="1"
       linejoin_type="miter"
       unit="mm"
       offset="0.5"
       miter_limit="4"
       attempt_force_join="false"
       update_on_knot_move="true" />
    <inkscape:path-effect
       effect="offset"
       id="path-effect1324"
       is_visible="true"
       lpeversion="1"
       linejoin_type="miter"
       unit="mm"
       offset="0.5"
       miter_limit="4"
       attempt_force_join="false"
       update_on_knot_move="true" />
  </defs>
  <sodipodi:namedview
     id="namedview30"
     pagecolor="#505050"
     bordercolor="#eeeeee"
     borderopacity="1"
     inkscape:pageshadow="0"
     inkscape:pageopacity="0"
     inkscape:pagecheckerboard="0"
     inkscape:document-units="mm"
     showgrid="false"
     showguides="true"
     inkscape:zoom="1.7394827"
     inkscape:cx="545.56449"
     inkscape:cy="308.42503"
     inkscape:window-width="2560"
     inkscape:window-height="1440"
     inkscape:window-x="0"
     inkscape:window-y="0"
     inkscape:window-maximized="1"
     inkscape:current-layer="g1030" />
  <g
     inkscape:groupmode="layer"
     id="g1030"
     inkscape:label="bottom-3"
     style="display:inline"
     sodipodi:insensitive="true">
    <path
       id="path1008"
       style="display:inline;fill-opacity:0.0014062;stroke:#000000;stroke-width:0.189"
       d="M 22.093343,5.0932895 C 18.128647,5.0748612 14.178098,6.5025454 11.149324,9.0623416 7.932866,11.744734 5.7772011,15.659116 5.2436488,19.814583 c -0.2206776,1.570929 -0.1317921,3.159409 -0.1503059,4.739958 0.00118,21.560534 -0.00237,43.12109 0.00178,64.681611 0.024037,2.991537 0.9745734,5.972322 2.7355417,8.395552 0.509233,0.741795 1.2125908,1.317483 1.7717097,2.019008 0.7782687,0.878298 1.7296997,1.583328 2.6857097,2.255328 3.124855,2.12662 6.750637,3.42022 10.440028,4.156 11.140439,2.40042 22.27069,4.84862 33.419796,7.20863 6.153413,1.25294 12.30686,2.50589 18.452614,3.79611 15.137602,3.14223 30.281878,6.25623 45.467598,9.15857 5.85733,1.10312 11.71572,2.21271 17.61034,3.10077 1.45836,0.19887 2.91755,0.44441 4.3914,0.47937 1.74239,-0.084 3.46694,-0.37435 5.19126,-0.62413 6.55882,-1.02814 13.0809,-2.27478 19.60149,-3.51867 17.08291,-3.29254 34.11655,-6.83326 51.151,-10.36596 4.98291,-1.03153 9.97821,-2.00322 14.9503,-3.08674 9.94095,-2.13298 19.87754,-4.28864 29.81601,-6.43131 3.83103,-0.90537 7.57699,-2.46857 10.62898,-4.99615 2.33997,-1.929904 4.19699,-4.499487 5.06004,-7.424631 0.49047,-1.604013 0.6592,-3.28916 0.6244,-4.961609 -0.001,-22.183643 0.002,-44.367307 -0.002,-66.550936 -0.0378,-3.967119 -1.52681,-7.898118 -4.13258,-10.890135 -2.74566,-3.1929608 -6.72009,-5.2948692 -10.90807,-5.7515603 -1.48314,-0.169739 -2.97745,-0.092808 -4.46664,-0.1103692 -79.16365,0 -158.3273,0 -237.490954,0 z"
       sodipodi:nodetypes="ssssssssss" />
    <circle
       style="display:inline;fill:#000000;fill-opacity:0.0014062;stroke:#000000;stroke-width:0.189"
       id="circle1010"
       cx="124.5977"
       cy="8.1646309"
       r="1.75" />
    <circle
       style="display:inline;fill:#000000;fill-opacity:0.0014062;stroke:#000000;stroke-width:0.189"
       id="circle1012"
       cx="7.87326"
       cy="50.085678"
       r="1.75" />
    <circle
       style="display:inline;fill:#000000;fill-opacity:0.0014062;stroke:#000000;stroke-width:0.189"
       id="circle1014"
       cx="276.31494"
       cy="50.085678"
       r="1.75" />
    <circle
       style="display:inline;fill:#000000;fill-opacity:0.0014062;stroke:#000000;stroke-width:0.189"
       id="circle1016"
       cx="12.806036"
       cy="12.797963"
       r="1.75" />
    <circle
       style="display:inline;fill:#000000;fill-opacity:0.0014062;stroke:#000000;stroke-width:0.189"
       id="circle1018"
       cx="271.42273"
       cy="12.798192"
       r="1.75" />
    <circle
       style="display:inline;fill:#000000;fill-opacity:0.0014062;stroke:#000000;stroke-width:0.189"
       id="circle1020"
       cx="12.806257"
       cy="97.09742"
       r="1.75" />
    <circle
       style="display:inline;fill:#000000;fill-opacity:0.0014062;stroke:#000000;stroke-width:0.189"
       id="circle1022"
       cx="271.42294"
       cy="97.097572"
       r="1.75" />
    <circle
       style="display:inline;fill:#000000;fill-opacity:0.0014062;stroke:#000000;stroke-width:0.189"
       id="circle1024"
       cx="159.83539"
       cy="8.1646309"
       r="1.75" />
    <circle
       style="display:inline;fill:#000000;fill-opacity:0.0014062;stroke:#000000;stroke-width:0.189"
       id="circle1026"
       cx="104.5981"
       cy="118.64517"
       r="1.75" />
    <circle
       style="display:inline;fill:#000000;fill-opacity:0.0014062;stroke:#000000;stroke-width:0.189"
       id="circle1028"
       cx="179.83609"
       cy="118.64517"
       r="1.75" />
  </g>
  <g
     inkscape:groupmode="layer"
     id="g2036"
     inkscape:label="open-2"
     style="display:inline"
     sodipodi:insensitive="true">
    <path
       id="path2014"
       style="display:inline;fill:none;fill-opacity:0.0014062;stroke:#000000;stroke-width:0.189"
       d="m 5.4122062,99.392591 c -0.00904,-0.0034 -0.00671,0.01815 0,0 v 0" />
    <path
       id="path3782"
       style="display:inline;fill:none;fill-opacity:0.0014062;stroke:#000000;stroke-width:0.189"
       d="m 281.3281,94.257867 -0.0209,0.08065 0.0227,-0.08065 h -0.003 v 0" />
    <path
       id="path3780"
       style="display:inline;fill:none;fill-opacity:0.0014062;stroke:#000000;stroke-width:0.189"
       d="m 281.33411,94.238336 c 0,0.006 0.006,-0.0011 0,0 v 0" />
    <path
       id="path3778"
       style="display:inline;fill:none;fill-opacity:0.0014062;stroke:#000000;stroke-width:0.189"
       d="m 281.3321,94.236336 c -0.008,0.0031 0.008,0.0031 0,0 v 0" />
    <path
       id="path3776"
       style="display:inline;fill:none;fill-opacity:0.0014062;stroke:#000000;stroke-width:0.189"
       d="m 281.34969,94.189467 c -0.0101,0.0091 -0.0109,0.04793 0,0 v 0" />
    <path
       id="rect6305-4-4-5-1"
       style="display:inline;fill:none;fill-opacity:0.0014062;stroke:#000000;stroke-width:0.189"
       d="m 152.11428,4.093828 c 36.53215,1.8e-4 73.06429,2.5e-4 109.59641,-0.00104 2.16019,-0.023962 4.33138,0.2854497 6.36928,1.014392 3.95044,1.3817684 7.39709,4.1812469 9.5064,7.800996 1.54152,2.602973 2.42055,5.597728 2.50045,8.623464 0.016,22.101308 0.003,44.20284 0.007,66.304237 0.0443,1.842873 -0.0689,3.706476 -0.57684,5.487112 -0.32502,1.119452 -0.71554,2.241031 -1.34813,3.227419 -0.90202,1.643261 -2.041,3.163797 -3.44252,4.415052 -3.22559,2.92501 -7.32409,4.72619 -11.52252,5.74241 -9.27053,2.00867 -18.54386,4.01037 -27.81767,6.00614 -4.81696,1.05538 -9.64989,2.03511 -14.48317,3.01228 -16.07248,3.31735 -32.13631,6.67911 -48.24276,9.829 -7.56599,1.46669 -15.13045,2.95041 -22.73427,4.21068 -2.2911,0.36728 -4.58165,0.75692 -6.89265,0.97832 -1.13544,0.13928 -2.277,-0.007 -3.4056,-0.13927 -4.61403,-0.61438 -9.19644,-1.44305 -13.77468,-2.27873 -15.35652,-2.84727 -30.658023,-5.98171 -45.953146,-9.13948 -7.740375,-1.61005 -15.48067,-3.22061 -23.229432,-4.78996 -9.303803,-1.94987 -18.587799,-3.99312 -27.878929,-6.00233 -2.586132,-0.56942 -5.179622,-1.10595 -7.763509,-1.68374 -1.040844,-0.23117 -2.047967,-0.57947 -3.055376,-0.92291 -2.120904,-0.63449 -4.054202,-1.74185 -5.947944,-2.86358 -1.06301,-0.69353 -2.0877364,-1.4711 -2.96749,-2.39273 C 8.5457479,99.937874 7.9995077,99.375652 7.4745479,98.79382 5.3675915,96.200065 4.1957047,92.883325 4.1010977,89.549763 4.0848777,69.232372 4.0981477,48.914756 4.0940177,28.597281 4.1069777,26.23979 4.0747967,23.881843 4.1084277,21.524596 4.2154664,16.809506 6.3081974,12.188261 9.749738,8.9682268 9.9637389,8.7597402 10.439048,8.3532238 10.513769,8.2910303 13.720377,5.5831617 17.907988,4.0729447 22.103613,4.0937647 h 2.81e-4 45.314796 c 21.565262,-2.168e-4 43.13053,-1.447e-4 64.6958,-3.62e-5 l 6e-5,9.0006555 h -110.020712 -2.7e-5 v 0 c -2.515314,-0.01741 -5.011568,1.082993 -6.687709,2.959893 -1.539683,1.687897 -2.374163,3.981172 -2.31229,6.262397 10e-4,22.276079 -0.0021,44.552186 0.0016,66.828245 0.01875,1.750581 0.78384,3.44203 1.977081,4.706628 1.662007,1.778606 3.922642,2.862553 6.209142,3.600532 1.894406,0.61356 3.866026,0.917342 5.811,1.320879 38.303773,7.607142 76.607565,15.214282 114.911355,22.821422 39.40227,-7.81387 78.80512,-15.62487 118.20704,-23.440523 2.63296,-0.554763 5.26379,-1.424951 7.46028,-3.020822 1.5489,-1.123262 2.83771,-2.721817 3.25519,-4.62062 0.24538,-1.029724 0.14688,-2.092579 0.16735,-3.140358 V 21.977571 c -0.0138,-2.575955 -1.20483,-5.114395 -3.18277,-6.765756 -1.67393,-1.428671 -3.88709,-2.182305 -6.08326,-2.117431 H 152.11437 Z"
       sodipodi:nodetypes="ccccccccccccccccccccccccccccccsccccccscccccccccccccccc" />
    <circle
       style="display:inline;fill:#000000;fill-opacity:0.0014062;stroke:#000000;stroke-width:0.189"
       id="circle2016"
       cx="124.59821"
       cy="8.1651058"
       r="1.75" />
    <circle
       style="display:inline;fill:#000000;fill-opacity:0.0014062;stroke:#000000;stroke-width:0.189"
       id="circle2018"
       cx="7.873764"
       cy="50.086155"
       r="1.75" />
    <circle
       style="display:inline;fill:#000000;fill-opacity:0.0014062;stroke:#000000;stroke-width:0.189"
       id="circle2020"
       cx="276.31543"
       cy="50.086155"
       r="1.75" />
    <circle
       style="display:inline;fill:#000000;fill-opacity:0.0014062;stroke:#000000;stroke-width:0.189"
       id="circle2022"
       cx="12.80654"
       cy="12.798438"
       r="1.75" />
    <circle
       style="display:inline;fill:#000000;fill-opacity:0.0014062;stroke:#000000;stroke-width:0.189"
       id="circle2024"
       cx="271.42322"
       cy="12.798667"
       r="1.75" />
    <circle
       style="display:inline;fill:#000000;fill-opacity:0.0014062;stroke:#000000;stroke-width:0.189"
       id="circle2026"
       cx="12.806761"
       cy="97.097893"
       r="1.75" />
    <circle
       style="display:inline;fill:#000000;fill-opacity:0.0014062;stroke:#000000;stroke-width:0.189"
       id="circle2028"
       cx="271.42343"
       cy="97.098045"
       r="1.75" />
    <circle
       style="display:inline;fill:#000000;fill-opacity:0.0014062;stroke:#000000;stroke-width:0.189"
       id="circle2030"
       cx="159.83589"
       cy="8.1651058"
       r="1.75" />
    <circle
       style="display:inline;fill:#000000;fill-opacity:0.0014062;stroke:#000000;stroke-width:0.189"
       id="circle2032"
       cx="104.5986"
       cy="118.64565"
       r="1.75" />
    <circle
       style="display:inline;fill:#000000;fill-opacity:0.0014062;stroke:#000000;stroke-width:0.189"
       id="circle2034"
       cx="179.83659"
       cy="118.64565"
       r="1.75" />
  </g>
  <g
     inkscape:groupmode="layer"
     id="g1992"
     inkscape:label="open-1"
     style="display:inline"
     sodipodi:insensitive="true">
    <path
       id="path1970"
       style="display:inline;fill:none;fill-opacity:0.0014062;stroke:#000000;stroke-width:0.189"
       d="m 3.2635206,19.54491 c 3.704e-4,-0.0027 -3.731e-4,-0.0052 0,-0.0078 l -0.00391,0.02344 c 6.853e-4,-0.0053 0.00322,-0.01029 0.00391,-0.01563 v -10e-6 0" />
    <path
       id="path2940"
       style="display:inline;fill:none;fill-opacity:0.0014062;stroke:#000000;stroke-width:0.189"
       d="m 6.2068798,98.791002 c -0.00758,-0.0109 -0.015907,-0.01442 -0.023437,-0.0254 l 0.03125,0.04297 c -0.00379,-0.0052 -0.00403,-0.01236 -0.00781,-0.01757 h -3.2e-6 v 0" />
    <path
       id="path2938"
       style="display:inline;fill:none;fill-opacity:0.0014062;stroke:#000000;stroke-width:0.189"
       d="m 280.3807,93.93358 c 0,0.0024 0,0.0053 0,0.0078 l 0.006,-0.01757 c 0,0.0037 -0.005,0.0061 -0.006,0.0098 v -2.1e-5 0" />
    <circle
       style="display:inline;fill:#000000;fill-opacity:0.0014062;stroke:#000000;stroke-width:0.189"
       id="circle1972"
       cx="124.59795"
       cy="8.1650791"
       r="1.75" />
    <circle
       style="display:inline;fill:#000000;fill-opacity:0.0014062;stroke:#000000;stroke-width:0.189"
       id="circle1974"
       cx="7.8735161"
       cy="50.086128"
       r="1.75" />
    <circle
       style="display:inline;fill:#000000;fill-opacity:0.0014062;stroke:#000000;stroke-width:0.189"
       id="circle1976"
       cx="276.31519"
       cy="50.086128"
       r="1.75" />
    <circle
       style="display:inline;fill:#000000;fill-opacity:0.0014062;stroke:#000000;stroke-width:0.189"
       id="circle1978"
       cx="12.806292"
       cy="12.798411"
       r="1.75" />
    <circle
       style="display:inline;fill:#000000;fill-opacity:0.0014062;stroke:#000000;stroke-width:0.189"
       id="circle1980"
       cx="271.42297"
       cy="12.79864"
       r="1.75" />
    <circle
       style="display:inline;fill:#000000;fill-opacity:0.0014062;stroke:#000000;stroke-width:0.189"
       id="circle1982"
       cx="12.806513"
       cy="97.097862"
       r="1.75" />
    <circle
       style="display:inline;fill:#000000;fill-opacity:0.0014062;stroke:#000000;stroke-width:0.189"
       id="circle1984"
       cx="271.42319"
       cy="97.098015"
       r="1.75" />
    <circle
       style="display:inline;fill:#000000;fill-opacity:0.0014062;stroke:#000000;stroke-width:0.189"
       id="circle1986"
       cx="159.83565"
       cy="8.1650791"
       r="1.75" />
    <circle
       style="display:inline;fill:#000000;fill-opacity:0.0014062;stroke:#000000;stroke-width:0.189"
       id="circle1988"
       cx="104.59835"
       cy="118.64561"
       r="1.75" />
    <circle
       style="display:inline;fill:#000000;fill-opacity:0.0014062;stroke:#000000;stroke-width:0.189"
       id="circle1990"
       cx="179.83635"
       cy="118.64561"
       r="1.75" />
    <path
       id="rect6305-4-4-5"
       style="display:inline;fill:none;fill-opacity:0.0014062;stroke:#000000;stroke-width:0.189"
       d="m 152.11416,3.0937377 107.48141,10e-8 h 0.0117 c 1.4473,0.017067 3.07791,-0.0572 4.66992,0.125 4.68849,0.513895 9.12309,2.8580542 12.19385,6.4302596 l 0.003,0.00196 c 2.91262,3.3490056 4.57489,7.7402056 4.61719,12.1757816 v 0.0098 0.0098 c 0.005,22.170169 0.003,44.339916 0.003,66.509766 0.038,1.827675 -0.14981,3.733001 -0.71289,5.578126 -0.99055,3.34791 -3.09647,6.247559 -5.69728,8.392579 -3.34642,2.77144 -7.3997,4.44524 -11.44139,5.40039 l -0.0195,0.004 -0.0195,0.004 c -9.9376,2.14248 -19.8759,4.29833 -29.81834,6.43164 -4.98057,1.08537 -9.9899,2.05995 -14.96485,3.08984 -17.03323,3.53245 -34.08047,7.07579 -51.17773,10.37109 -6.52414,1.24457 -13.0783,2.49797 -19.66992,3.53125 l -0.0117,0.002 h -0.0117 c -1.70881,0.24753 -3.56109,0.55673 -5.38281,0.64453 l -0.0703,0.004 -0.0723,-0.002 c -1.56969,-0.0372 -3.17616,-0.30207 -4.61328,-0.49805 l -0.0137,-0.002 -0.0156,-0.002 c -5.93164,-0.89364 -11.82706,-2.01031 -17.68359,-3.11328 -15.20713,-2.90643 -30.362336,-6.02337 -45.501955,-9.16602 -6.144051,-1.28986 -12.291703,-2.54194 -18.445311,-3.79492 h -0.0078 l -0.0078,-0.002 c -11.143919,-2.35892 -22.269211,-4.8074 -33.396482,-7.20507 -3.877898,-0.77339 -7.774947,-2.1498 -11.173829,-4.4629 l -0.01367,-0.01 -0.01172,-0.008 c -0.980669,-0.68933 -2.0920808,-1.50653 -3.03125,-2.56641 l -0.035156,-0.0391 -0.033203,-0.041 C 7.5744406,100.31369 6.8190285,99.671316 6.2068768,98.790994 4.2039455,96.027612 3.1227517,92.637442 3.0955487,89.251929 v -0.0078 -0.0078 C 3.0914,67.675566 3.0947787,46.115073 3.0935987,24.55468 v -0.01172 -0.01172 c 0.017955,-1.532855 -0.067429,-3.289292 0.1699219,-4.986328 0.6011784,-4.64921 3.0067118,-9.013857 6.6015581,-12.013668 0.00143,-0.00119 0.00249,-0.00272 0.00391,-0.00391 C 13.259571,4.6657593 17.671838,3.0731396 22.103365,3.0937378 H 132.11432 l 2e-5,10.0000002 h -110.020715 -2.7e-5 v 0 c -2.515314,-0.01741 -5.011568,1.082993 -6.687709,2.959893 -1.539684,1.687897 -2.374163,3.981172 -2.31229,6.262397 0.001,22.276079 -0.0021,44.552186 0.0016,66.828245 0.01875,1.750581 0.78384,3.44203 1.977081,4.706628 1.662007,1.778606 3.922642,2.862553 6.209142,3.600532 1.894406,0.61356 3.866026,0.917342 5.811,1.320879 38.303786,7.607148 76.607568,15.214288 114.911358,22.821428 39.40227,-7.81387 78.80512,-15.62487 118.20704,-23.440529 2.63296,-0.554763 5.26379,-1.424951 7.46028,-3.020822 1.5489,-1.123262 2.83771,-2.721817 3.2552,-4.62062 0.24537,-1.029724 0.14687,-2.092579 0.16735,-3.140358 V 21.976925 c -0.0138,-2.575955 -1.20484,-5.114395 -3.18278,-6.765756 -1.67393,-1.428671 -3.88709,-2.182305 -6.08326,-2.117431 H 152.11415 Z"
       sodipodi:nodetypes="ccccccccscccccccccccccccccccccccccccccccccssccccccccccscccccccccccccccc" />
  </g>
  <g
     inkscape:groupmode="layer"
     id="g2668"
     inkscape:label="open-0"
     style="display:inline"
     sodipodi:insensitive="true">
    <path
       id="rect6305-4-4-3-79-3"
       style="display:inline;fill:none;fill-opacity:0.0014062;stroke:#000000;stroke-width:0.189"
       d="M 152.11429,2.0945 H 262.0945 c 11.08,0 20,8.92 20,20 v 66.89925 c 0,11.08 -9.12643,17.87114 -20,20 0,0 -110.13305,23.80077 -120.0945,23.8125 -9.91768,0.0117 -119.9055,-23.8125 -119.9055,-23.8125 -10.867762,-2.15827 -20,-8.92 -20,-20 V 22.0945 c 0,-11.08 8.92,-20 20,-20 v 0 h 110.02 l -1e-5,10.99925 H 22.093777 22.09375 v 0 c -2.515315,-0.01741 -5.011569,1.082993 -6.68771,2.959893 -1.539683,1.687897 -2.374163,3.981172 -2.31229,6.262397 10e-4,22.276079 -0.0021,44.552186 0.0016,66.828245 0.01875,1.750581 0.783839,3.442031 1.97708,4.706628 1.662007,1.778606 3.922642,2.862553 6.209143,3.600532 1.894406,0.613561 3.866026,0.917342 5.811,1.320879 38.303786,7.607146 76.607577,15.214286 114.911367,22.821426 39.40226,-7.81387 78.80511,-15.62487 118.20703,-23.440527 2.63296,-0.554762 5.26379,-1.42495 7.46028,-3.020822 1.5489,-1.123262 2.83771,-2.721816 3.2552,-4.62062 0.24537,-1.029724 0.14687,-2.092579 0.16735,-3.140358 V 21.976937 c -0.0138,-2.575955 -1.20484,-5.114395 -3.18278,-6.765756 -1.67393,-1.428671 -3.88708,-2.182305 -6.08326,-2.117431 H 152.11431 Z"
       sodipodi:nodetypes="cssscscssscccccscccccccccccccccc" />
    <circle
       style="display:inline;fill:#000000;fill-opacity:0.0014062;stroke:#000000;stroke-width:0.189"
       id="path1418-65-9-6-2-1"
       cx="124.59811"
       cy="8.1650934"
       r="1.75" />
    <circle
       style="display:inline;fill:#000000;fill-opacity:0.0014062;stroke:#000000;stroke-width:0.189"
       id="path1418-6-9-6-3-0-7-0-9"
       cx="7.8736677"
       cy="50.08614"
       r="1.75" />
    <circle
       style="display:inline;fill:#000000;fill-opacity:0.0014062;stroke:#000000;stroke-width:0.189"
       id="path1418-6-9-6-7-7-91-5-2-4"
       cx="276.31534"
       cy="50.08614"
       r="1.75" />
    <circle
       style="display:inline;fill:#000000;fill-opacity:0.0014062;stroke:#000000;stroke-width:0.189"
       id="path1418-6-5-5-7-3-3-7"
       cx="12.806443"
       cy="12.798423"
       r="1.75" />
    <circle
       style="display:inline;fill:#000000;fill-opacity:0.0014062;stroke:#000000;stroke-width:0.189"
       id="path1418-6-5-6-2-71-5-7-8"
       cx="271.42313"
       cy="12.798652"
       r="1.75" />
    <circle
       style="display:inline;fill:#000000;fill-opacity:0.0014062;stroke:#000000;stroke-width:0.189"
       id="path1418-6-5-5-0-1-6-5-4"
       cx="12.806664"
       cy="97.097878"
       r="1.75" />
    <circle
       style="display:inline;fill:#000000;fill-opacity:0.0014062;stroke:#000000;stroke-width:0.189"
       id="path1418-6-5-6-2-7-5-2-9-5"
       cx="271.42334"
       cy="97.09803"
       r="1.75" />
    <circle
       style="display:inline;fill:#000000;fill-opacity:0.0014062;stroke:#000000;stroke-width:0.189"
       id="path1418-3-4-9-9-2-0"
       cx="159.8358"
       cy="8.1650934"
       r="1.75" />
    <circle
       style="display:inline;fill:#000000;fill-opacity:0.0014062;stroke:#000000;stroke-width:0.189"
       id="path1418-65-8-7-1-2-3"
       cx="104.59851"
       cy="118.64563"
       r="1.75" />
    <circle
       style="display:inline;fill:#000000;fill-opacity:0.0014062;stroke:#000000;stroke-width:0.189"
       id="path1418-3-4-6-76-2-89-6"
       cx="179.8365"
       cy="118.64563"
       r="1.75" />
  </g>
  <g
     inkscape:groupmode="layer"
     id="layer5"
     inkscape:label="plate-0"
     style="display:inline"
     sodipodi:insensitive="true">
    <polygon
       points="136.115,101.108 136.31,100.127 122.727,97.425 122.531,98.406 121.747,98.25 121.171,101.143 121.956,101.299 120.795,107.135 120.011,106.978 119.435,109.872 120.22,110.028 120.025,111.009 133.608,113.711 133.804,112.73 134.588,112.886 135.164,109.993 134.379,109.837 135.54,104.001 136.324,104.157 136.9,101.264 "
       style="fill:none;stroke:#000000;stroke-width:0.05mm"
       id="polygon4"
       transform="translate(-1.4055734,2.0361635)" />
    <polygon
       points="165.074,98.348 164.879,97.367 151.295,100.069 151.49,101.05 150.706,101.206 151.281,104.1 152.066,103.944 153.227,109.779 152.442,109.935 153.018,112.829 153.802,112.673 153.997,113.653 167.581,110.951 167.386,109.971 168.171,109.815 167.595,106.921 166.811,107.077 165.65,101.242 166.434,101.086 165.859,98.192 "
       style="fill:none;stroke:#000000;stroke-width:0.05mm"
       id="polygon6"
       transform="translate(-1.9347401,2.0361635)" />
    <polygon
       points="112.76,96.462 112.955,95.481 99.372,92.779 99.177,93.76 98.392,93.604 97.816,96.497 98.601,96.653 97.44,102.489 96.656,102.333 96.08,105.226 96.865,105.382 96.67,106.363 110.253,109.065 110.449,108.084 111.233,108.24 111.809,105.347 111.024,105.191 112.185,99.355 112.97,99.511 113.545,96.618 "
       style="fill:none;stroke:#000000;stroke-width:0.05mm"
       id="polygon8"
       transform="translate(-1.4055734,2.0361635)" />
    <polygon
       points="188.429,93.703 188.234,92.722 174.65,95.424 174.845,96.405 174.061,96.561 174.636,99.454 175.421,99.298 176.582,105.134 175.797,105.29 176.373,108.183 177.157,108.027 177.352,109.008 190.936,106.306 190.741,105.325 191.526,105.169 190.95,102.276 190.166,102.432 189.005,96.596 189.789,96.44 189.214,93.547 "
       style="fill:none;stroke:#000000;stroke-width:0.05mm"
       id="polygon10"
       transform="translate(-1.9347401,2.0361635)" />
    <polygon
       points="42.696,82.525 42.891,81.544 29.307,78.842 29.112,79.823 28.327,79.667 27.752,82.56 28.536,82.717 27.375,88.552 26.591,88.396 26.015,91.289 26.8,91.446 26.605,92.426 40.189,95.128 40.384,94.148 41.168,94.304 41.744,91.41 40.959,91.254 42.12,85.419 42.905,85.575 43.48,82.681 "
       style="fill:none;stroke:#000000;stroke-width:0.05mm"
       id="polygon12-1"
       transform="translate(-1.4055734,2.0361635)" />
    <polygon
       points="258.494,79.766 258.298,78.785 244.715,81.487 244.91,82.468 244.126,82.624 244.701,85.517 245.486,85.361 246.646,91.197 245.862,91.353 246.437,94.246 247.222,94.09 247.417,95.071 261,92.369 260.805,91.388 261.591,91.232 261.015,88.339 260.23,88.495 259.07,82.659 259.853,82.503 259.279,79.61 "
       style="fill:none;stroke:#000000;stroke-width:0.05mm"
       id="polygon14-2"
       transform="translate(-1.9347401,2.0361635)" />
    <polygon
       points="135.161,81.494 135.356,80.514 121.772,77.812 121.577,78.792 120.792,78.636 120.217,81.53 121.001,81.686 119.841,87.521 119.056,87.365 118.481,90.259 119.265,90.415 119.07,91.396 132.654,94.098 132.849,93.117 133.634,93.273 134.209,90.38 133.425,90.223 134.585,84.388 135.37,84.544 135.945,81.651 "
       style="fill:none;stroke:#000000;stroke-width:0.05mm"
       id="polygon16-9"
       transform="translate(-1.4055734,2.0361635)" />
    <polygon
       points="166.029,78.735 165.834,77.754 152.25,80.456 152.445,81.437 151.66,81.593 152.236,84.487 153.02,84.331 154.181,90.166 153.397,90.322 153.972,93.216 154.757,93.06 154.952,94.04 168.536,91.338 168.341,90.358 169.125,90.201 168.55,87.308 167.765,87.464 166.604,81.629 167.389,81.472 166.813,78.579 "
       style="fill:none;stroke:#000000;stroke-width:0.05mm"
       id="polygon18-3"
       transform="translate(-1.9347401,2.0361635)" />
    <polygon
       points="116.477,77.778 116.672,76.797 103.088,74.095 102.893,75.076 102.108,74.92 101.533,77.813 102.317,77.969 101.157,83.805 100.372,83.649 99.797,86.542 100.581,86.698 100.386,87.679 113.97,90.381 114.165,89.4 114.95,89.556 115.525,86.663 114.741,86.507 115.901,80.671 116.686,80.827 117.262,77.934 "
       style="fill:none;stroke:#000000;stroke-width:0.05mm"
       id="polygon20-1"
       transform="translate(-1.4055734,2.0361635)" />
    <polygon
       points="184.713,75.019 184.518,74.038 170.934,76.74 171.129,77.721 170.344,77.877 170.92,80.77 171.704,80.614 172.865,86.45 172.081,86.606 172.656,89.499 173.441,89.343 173.636,90.324 187.22,87.622 187.025,86.641 187.809,86.485 187.234,83.592 186.449,83.748 185.288,77.912 186.073,77.756 185.497,74.863 "
       style="fill:none;stroke:#000000;stroke-width:0.05mm"
       id="polygon22-9"
       transform="translate(-1.9347401,2.0361635)" />
    <polygon
       points="97.793,74.062 97.988,73.081 84.404,70.379 84.209,71.36 83.424,71.203 82.849,74.097 83.634,74.253 82.473,80.089 81.688,79.932 81.113,82.826 81.897,82.982 81.702,83.963 95.286,86.665 95.481,85.684 96.266,85.84 96.841,82.947 96.057,82.791 97.217,76.955 98.002,77.111 98.578,74.218 "
       style="fill:none;stroke:#000000;stroke-width:0.05mm"
       id="polygon24-4"
       transform="translate(-1.4055734,2.0361635)" />
    <polygon
       points="203.397,71.302 203.202,70.321 189.618,73.023 189.813,74.004 189.028,74.16 189.604,77.054 190.388,76.898 191.549,82.733 190.765,82.889 191.34,85.783 192.125,85.627 192.32,86.607 205.904,83.905 205.709,82.925 206.493,82.768 205.918,79.875 205.133,80.031 203.972,74.196 204.757,74.04 204.181,71.146 "
       style="fill:none;stroke:#000000;stroke-width:0.05mm"
       id="polygon26-7"
       transform="translate(-1.9347401,2.0361635)" />
    <polygon
       points="79.109,70.345 79.304,69.364 65.72,66.662 65.525,67.643 64.739,67.487 64.165,70.38 64.95,70.536 63.789,76.372 63.004,76.216 62.429,79.109 63.213,79.265 63.018,80.246 76.602,82.948 76.797,81.967 77.582,82.123 78.157,79.23 77.373,79.074 78.533,73.238 79.318,73.394 79.894,70.501 "
       style="fill:none;stroke:#000000;stroke-width:0.05mm"
       id="polygon28-8"
       transform="translate(-1.4055734,2.0361635)" />
    <polygon
       points="222.081,67.586 221.886,66.605 208.302,69.307 208.497,70.288 207.712,70.444 208.288,73.337 209.072,73.181 210.233,79.017 209.448,79.173 210.024,82.066 210.809,81.91 211.004,82.891 224.588,80.189 224.392,79.208 225.177,79.052 224.602,76.159 223.817,76.315 222.656,70.479 223.441,70.323 222.865,67.43 "
       style="fill:none;stroke:#000000;stroke-width:0.05mm"
       id="polygon30-4"
       transform="translate(-1.9347401,2.0361635)" />
    <polygon
       points="60.425,66.629 60.62,65.648 47.036,62.946 46.841,63.927 46.056,63.771 45.481,66.664 46.266,66.82 45.105,72.656 44.32,72.5 43.745,75.393 44.529,75.549 44.334,76.53 57.918,79.232 58.113,78.251 58.898,78.407 59.473,75.514 58.689,75.358 59.849,69.522 60.634,69.678 61.21,66.785 "
       style="fill:none;stroke:#000000;stroke-width:0.05mm"
       id="polygon32-5"
       transform="translate(-1.4055734,2.0361635)" />
    <polygon
       points="240.765,63.869 240.57,62.889 226.986,65.591 227.181,66.571 226.396,66.727 226.972,69.621 227.756,69.465 228.917,75.3 228.132,75.456 228.708,78.35 229.493,78.194 229.688,79.174 243.272,76.472 243.076,75.492 243.861,75.336 243.286,72.442 242.501,72.598 241.34,66.763 242.125,66.607 241.549,63.713 "
       style="fill:none;stroke:#000000;stroke-width:0.05mm"
       id="polygon34-0"
       transform="translate(-1.9347401,2.0361635)" />
    <polygon
       points="259.449,60.153 259.253,59.172 245.67,61.874 245.865,62.855 245.08,63.011 245.656,65.904 246.44,65.748 247.601,71.584 246.816,71.74 247.392,74.633 248.177,74.477 248.372,75.458 261.954,72.756 261.76,71.775 262.545,71.619 261.97,68.726 261.185,68.882 260.024,63.046 260.809,62.89 260.233,59.997 "
       style="fill:none;stroke:#000000;stroke-width:0.05mm"
       id="polygon36-3"
       transform="translate(-1.9347401,2.0361635)" />
    <polygon
       points="39.406,62.448 39.601,61.467 26.017,58.765 25.822,59.746 25.037,59.59 24.462,62.483 25.246,62.639 24.085,68.475 23.301,68.319 22.725,71.212 23.51,71.368 23.315,72.349 36.899,75.051 37.094,74.07 37.878,74.226 38.454,71.333 37.669,71.177 38.83,65.34 39.615,65.497 40.19,62.604 "
       style="fill:none;stroke:#000000;stroke-width:0.05mm"
       id="polygon38-6"
       transform="translate(-1.4055734,2.0361635)" />
    <polygon
       points="129.535,60.952 129.729,59.972 116.147,57.27 115.951,58.25 115.167,58.094 114.591,60.988 115.376,61.144 114.215,66.979 113.431,66.823 112.855,69.717 113.64,69.873 113.445,70.853 127.028,73.555 127.224,72.575 128.008,72.731 128.584,69.837 127.799,69.681 128.96,63.846 129.744,64.001 130.32,61.108 "
       style="fill:none;stroke:#000000;stroke-width:0.05mm"
       id="polygon40-1"
       transform="translate(-1.4055734,2.0361635)" />
    <polygon
       points="171.654,58.193 171.459,57.212 157.875,59.914 158.07,60.895 157.286,61.051 157.861,63.944 158.646,63.788 159.807,69.624 159.022,69.78 159.598,72.673 160.382,72.517 160.577,73.498 174.161,70.796 173.966,69.815 174.751,69.659 174.175,66.766 173.391,66.922 172.23,61.086 173.014,60.93 172.439,58.037 "
       style="fill:none;stroke:#000000;stroke-width:0.05mm"
       id="polygon42-0"
       transform="translate(-1.9347401,2.0361635)" />
    <polygon
       points="110.851,57.236 111.046,56.255 97.463,53.553 97.267,54.534 96.483,54.378 95.907,57.271 96.692,57.427 95.531,63.263 94.747,63.107 94.171,66 94.956,66.156 94.761,67.137 108.344,69.839 108.54,68.858 109.324,69.014 109.9,66.121 109.115,65.965 110.276,60.129 111.06,60.285 111.636,57.392 "
       style="fill:none;stroke:#000000;stroke-width:0.05mm"
       id="polygon44-6"
       transform="translate(-1.4055734,2.0361635)" />
    <polygon
       points="190.338,54.477 190.143,53.496 176.559,56.198 176.754,57.179 175.97,57.335 176.545,60.228 177.33,60.072 178.491,65.908 177.706,66.064 178.282,68.957 179.066,68.801 179.261,69.782 192.845,67.08 192.65,66.099 193.435,65.943 192.859,63.049 192.075,63.206 190.914,57.37 191.698,57.214 191.123,54.32 "
       style="fill:none;stroke:#000000;stroke-width:0.05mm"
       id="polygon46-3"
       transform="translate(-1.9347401,2.0361635)" />
    <polygon
       points="92.167,53.519 92.362,52.539 78.779,49.837 78.584,50.817 77.799,50.661 77.223,53.555 78.008,53.711 76.847,59.546 76.063,59.39 75.487,62.284 76.272,62.44 76.077,63.42 89.66,66.122 89.856,65.141 90.64,65.298 91.216,62.404 90.431,62.248 91.592,56.413 92.377,56.569 92.952,53.675 "
       style="fill:none;stroke:#000000;stroke-width:0.05mm"
       id="polygon48-2"
       transform="translate(-1.4055734,2.0361635)" />
    <polygon
       points="209.022,50.76 208.827,49.779 195.243,52.481 195.438,53.462 194.654,53.618 195.229,56.511 196.014,56.355 197.175,62.191 196.39,62.347 196.966,65.239 197.75,65.084 197.945,66.065 211.529,63.363 211.334,62.382 212.119,62.226 211.543,59.333 210.759,59.489 209.598,53.653 210.382,53.497 209.807,50.604 "
       style="fill:none;stroke:#000000;stroke-width:0.05mm"
       id="polygon50-0"
       transform="translate(-1.9347401,2.0361635)" />
    <polygon
       points="73.483,49.803 73.679,48.822 60.095,46.12 59.9,47.101 59.115,46.945 58.539,49.838 59.324,49.994 58.163,55.83 57.379,55.674 56.803,58.567 57.588,58.723 57.393,59.704 70.977,62.406 71.172,61.425 71.956,61.581 72.532,58.688 71.747,58.532 72.908,52.696 73.693,52.852 74.268,49.959 "
       style="fill:none;stroke:#000000;stroke-width:0.05mm"
       id="polygon52-6"
       transform="translate(-1.4055734,2.0361635)" />
    <polygon
       points="227.706,47.044 227.511,46.063 213.927,48.765 214.122,49.746 213.338,49.902 213.913,52.795 214.698,52.639 215.859,58.475 215.074,58.631 215.649,61.524 216.434,61.368 216.629,62.349 230.213,59.647 230.018,58.666 230.803,58.51 230.227,55.617 229.442,55.773 228.282,49.937 229.066,49.781 228.491,46.888 "
       style="fill:none;stroke:#000000;stroke-width:0.05mm"
       id="polygon54-1"
       transform="translate(-1.9347401,2.0361635)" />
    <polygon
       points="54.799,46.086 54.995,45.106 41.411,42.404 41.216,43.384 40.431,43.228 39.855,46.122 40.64,46.278 39.479,52.113 38.695,51.957 38.119,54.851 38.904,55.007 38.709,55.988 52.293,58.69 52.488,57.709 53.272,57.865 53.848,54.971 53.063,54.815 54.224,48.98 55.009,49.136 55.584,46.242 "
       style="fill:none;stroke:#000000;stroke-width:0.05mm"
       id="polygon56"
       transform="translate(-1.4055734,2.0361635)" />
    <polygon
       points="246.39,43.327 246.195,42.346 232.611,45.048 232.806,46.029 232.022,46.185 232.597,49.079 233.382,48.922 234.543,54.758 233.758,54.914 234.333,57.808 235.118,57.651 235.313,58.632 248.897,55.93 248.702,54.949 249.487,54.793 248.911,51.9 248.126,52.056 246.966,46.22 247.75,46.064 247.175,43.171 "
       style="fill:none;stroke:#000000;stroke-width:0.05mm"
       id="polygon58"
       transform="translate(-1.9347401,2.0361635)" />
    <polygon
       points="163.267,40.438 163.072,39.457 149.488,42.159 149.683,43.14 148.898,43.296 149.474,46.19 150.258,46.033 151.419,51.869 150.635,52.025 151.21,54.919 151.995,54.762 152.19,55.743 165.774,53.041 165.579,52.06 166.363,51.904 165.788,49.011 165.003,49.167 163.842,43.331 164.627,43.175 164.051,40.282 "
       style="fill:none;stroke:#000000;stroke-width:0.05mm"
       id="polygon60-5"
       transform="translate(-1.9347401,2.0361635)" />
    <polygon
       points="36.116,42.37 36.311,41.389 22.727,38.687 22.532,39.668 21.747,39.512 21.172,42.405 21.956,42.561 20.795,48.397 20.011,48.241 19.435,51.134 20.22,51.29 20.025,52.271 33.609,54.973 33.804,53.992 34.588,54.148 35.164,51.255 34.379,51.099 35.54,45.263 36.325,45.419 36.9,42.526 "
       style="fill:none;stroke:#000000;stroke-width:0.05mm"
       id="polygon62-5"
       transform="translate(-1.4055734,2.0361635)" />
    <polygon
       points="265.074,39.611 264.879,38.63 251.295,41.332 251.49,42.313 250.706,42.469 251.281,45.362 252.066,45.206 253.227,51.042 252.442,51.198 253.017,54.091 253.802,53.935 253.997,54.916 267.581,52.214 267.386,51.233 268.171,51.077 267.595,48.184 266.81,48.34 265.65,42.504 266.434,42.348 265.859,39.455 "
       style="fill:none;stroke:#000000;stroke-width:0.05mm"
       id="polygon64-4"
       transform="translate(-1.9347401,2.0361635)" />
    <polygon
       points="128.58,41.339 128.776,40.358 115.192,37.656 114.997,38.637 114.212,38.481 113.637,41.374 114.421,41.531 113.261,47.366 112.476,47.21 111.9,50.103 112.685,50.26 112.49,51.24 126.074,53.942 126.269,52.962 127.054,53.118 127.629,50.224 126.845,50.068 128.005,44.233 128.788,44.389 129.365,41.495 "
       style="fill:none;stroke:#000000;stroke-width:0.05mm"
       id="polygon66-7"
       transform="translate(-1.4055734,2.0361635)" />
    <polygon
       points="181.951,36.722 181.756,35.741 168.172,38.443 168.367,39.424 167.582,39.58 168.158,42.473 168.942,42.317 170.103,48.153 169.319,48.309 169.894,51.202 170.679,51.046 170.874,52.027 184.458,49.325 184.263,48.344 185.047,48.188 184.472,45.295 183.687,45.451 182.526,39.615 183.311,39.459 182.735,36.566 "
       style="fill:none;stroke:#000000;stroke-width:0.05mm"
       id="polygon68-6"
       transform="translate(-1.9347401,2.0361635)" />
    <polygon
       points="109.897,37.623 110.092,36.642 96.508,33.94 96.313,34.921 95.528,34.765 94.953,37.658 95.737,37.814 94.577,43.65 93.792,43.494 93.217,46.387 94.001,46.543 93.806,47.524 107.39,50.226 107.585,49.245 108.37,49.401 108.945,46.508 108.161,46.352 109.321,40.516 110.106,40.672 110.681,37.779 "
       style="fill:none;stroke:#000000;stroke-width:0.05mm"
       id="polygon70-5"
       transform="translate(-1.4055734,2.0361635)" />
    <polygon
       points="200.635,33.005 200.44,32.024 186.856,34.726 187.051,35.707 186.266,35.863 186.842,38.757 187.626,38.601 188.787,44.436 188.003,44.592 188.578,47.486 189.363,47.33 189.558,48.31 203.142,45.608 202.947,44.628 203.731,44.471 203.156,41.578 202.371,41.734 201.21,35.899 201.995,35.742 201.419,32.849 "
       style="fill:none;stroke:#000000;stroke-width:0.05mm"
       id="polygon72-6"
       transform="translate(-1.9347401,2.0361635)" />
    <polygon
       points="91.213,33.906 91.408,32.925 77.824,30.223 77.629,31.204 76.844,31.048 76.269,33.942 77.053,34.098 75.893,39.933 75.108,39.777 74.533,42.671 75.317,42.827 75.122,43.807 88.706,46.509 88.901,45.529 89.686,45.685 90.261,42.791 89.477,42.635 90.637,36.8 91.422,36.956 91.998,34.062 "
       style="fill:none;stroke:#000000;stroke-width:0.05mm"
       id="polygon74-9"
       transform="translate(-1.4055734,2.0361635)" />
    <polygon
       points="219.319,29.289 219.124,28.308 205.54,31.01 205.735,31.991 204.95,32.147 205.526,35.04 206.31,34.884 207.471,40.72 206.687,40.876 207.262,43.769 208.047,43.613 208.242,44.594 221.826,41.892 221.631,40.911 222.415,40.755 221.84,37.862 221.055,38.018 219.894,32.182 220.679,32.026 220.103,29.133 "
       style="fill:none;stroke:#000000;stroke-width:0.05mm"
       id="polygon76-3"
       transform="translate(-1.9347401,2.0361635)" />
    <polygon
       points="72.529,30.19 72.724,29.209 59.14,26.507 58.945,27.488 58.16,27.332 57.585,30.225 58.37,30.381 57.209,36.217 56.424,36.061 55.849,38.954 56.633,39.11 56.438,40.091 70.022,42.793 70.217,41.812 71.002,41.968 71.577,39.075 70.793,38.919 71.953,33.083 72.738,33.239 73.314,30.346 "
       style="fill:none;stroke:#000000;stroke-width:0.05mm"
       id="polygon78-7"
       transform="translate(-1.4055734,2.0361635)" />
    <polygon
       points="238.003,25.572 237.808,24.591 224.224,27.293 224.419,28.274 223.634,28.43 224.21,31.324 224.994,31.168 226.155,37.003 225.37,37.159 225.946,40.053 226.731,39.897 226.926,40.877 240.51,38.175 240.314,37.195 241.099,37.039 240.524,34.145 239.739,34.301 238.578,28.466 239.363,28.31 238.787,25.416 "
       style="fill:none;stroke:#000000;stroke-width:0.05mm"
       id="polygon80-4"
       transform="translate(-1.9347401,2.0361635)" />
    <polygon
       points="53.845,26.473 54.04,25.493 40.456,22.791 40.261,23.771 39.476,23.615 38.901,26.509 39.686,26.665 38.525,32.5 37.74,32.344 37.165,35.238 37.949,35.394 37.754,36.374 51.338,39.076 51.533,38.096 52.318,38.252 52.893,35.358 52.109,35.202 53.269,29.367 54.054,29.523 54.63,26.629 "
       style="fill:none;stroke:#000000;stroke-width:0.05mm"
       id="polygon82-5"
       transform="translate(-1.4055734,2.0361635)" />
    <polygon
       points="261.358,20.927 261.163,19.946 247.579,22.648 247.774,23.629 246.989,23.785 247.565,26.678 248.349,26.522 249.51,32.357 248.725,32.514 249.301,35.407 250.086,35.251 250.281,36.232 263.865,33.53 263.669,32.549 264.454,32.393 263.879,29.5 263.094,29.656 261.933,23.82 262.718,23.664 262.142,20.771 "
       style="fill:none;stroke:#000000;stroke-width:0.05mm"
       id="polygon84-2"
       transform="translate(-1.9347401,2.0361635)" />
    <polygon
       points="35.161,22.757 35.356,21.776 21.772,19.074 21.577,20.055 20.793,19.899 20.217,22.792 21.002,22.948 19.841,28.784 19.056,28.628 18.481,31.521 19.265,31.677 19.07,32.658 32.654,35.36 32.849,34.379 33.634,34.535 34.209,31.642 33.425,31.486 34.585,25.65 35.37,25.806 35.946,22.913 "
       style="fill:none;stroke:#000000;stroke-width:0.05mm"
       id="polygon86-5"
       transform="translate(-1.4055734,2.0361635)" />
    <circle
       style="display:inline;fill:#000000;fill-opacity:0.0014062;stroke:#000000;stroke-width:0.188952;stroke-miterlimit:4;stroke-dasharray:none"
       id="path1418-65-9-3-6-7-5"
       cx="126.99994"
       cy="33.094509"
       r="1.0000238" />
    <ellipse
       style="display:inline;fill:#000000;fill-opacity:0.0014062;stroke:#000000;stroke-width:0.188952;stroke-miterlimit:4;stroke-dasharray:none"
       id="path1418-65-9-3-6-7-5-3"
       cx="126.99994"
       cy="18.094509"
       rx="1.000024"
       ry="1.0000238" />
    <ellipse
       style="display:inline;fill:#000000;fill-opacity:0.0014062;stroke:#000000;stroke-width:0.188952;stroke-miterlimit:4;stroke-dasharray:none"
       id="path1418-65-9-3-6-7-5-3-5"
       cx="156.99994"
       cy="18.094509"
       rx="1.000024"
       ry="1.0000238" />
    <ellipse
       style="display:inline;fill:#000000;fill-opacity:0.0014062;stroke:#000000;stroke-width:0.188952;stroke-miterlimit:4;stroke-dasharray:none"
       id="path1418-65-9-3-6-7-5-3-5-6"
       cx="156.99994"
       cy="33.094509"
       rx="1.000024"
       ry="1.0000238" />
    <path
       id="rect6305-4-4-3-7"
       style="display:inline;fill-opacity:0.0014062;stroke:#000000;stroke-width:0.189"
       d="M 22.10736,2.0937586 C 17.43617,2.0720465 12.788165,3.7514143 9.2147822,6.771493 5.4328984,9.9319191 2.9057504,14.521878 2.2733759,19.417978 2.0294216,21.175059 2.1113322,23.01327 2.0936884,24.51954 v 0.01758 0.01758 c 0.00118,21.560322 -0.0022,43.12077 0.00195,64.68164 v 0.01172 0.01172 c 0.028758,3.579037 1.1710959,7.16969 3.2910157,10.101562 0.6635198,0.952868 1.4514305,1.631648 1.8710937,2.158198 l 0.048828,0.0625 0.050781,0.0586 c 1.0196194,1.15067 2.2140326,2.02271 3.2070312,2.72071 l 0.01758,0.0117 0.01953,0.0137 c 3.535894,2.40635 7.568865,3.82502 11.541015,4.61719 l -0.04687,-0.008 c 11.136221,2.39951 22.274766,4.84929 33.431641,7.21094 l 0.01172,0.002 0.01172,0.002 c 6.153707,1.253 12.298206,2.50329 18.441407,3.79297 15.140627,3.14285 30.303659,6.26145 45.521489,9.16992 5.85614,1.10289 11.7686,2.22271 17.71875,3.11914 l 0.0215,0.002 0.0195,0.004 c 1.4265,0.19452 3.10896,0.46944 4.72656,0.50781 l 0.10742,0.002 0.10742,-0.006 c 1.8614,-0.0897 3.77551,-0.40593 5.47657,-0.65234 l 0.0176,-0.002 0.0176,-0.004 c 6.60803,-1.03585 13.17917,-2.29025 19.70508,-3.53515 17.10444,-3.2967 34.15683,-6.84268 51.18945,-10.375 4.97097,-1.02907 9.98785,-2.00354 14.97266,-3.08985 9.94319,-2.13346 19.88312,-4.28925 29.82031,-6.43164 l 0.0293,-0.008 0.0273,-0.006 c 4.14703,-0.98005 8.354,-2.7082 11.84766,-5.60156 2.7333,-2.25431 4.97017,-5.320155 6.02344,-8.882816 0.5975,-1.963125 0.79154,-3.978055 0.75195,-5.88086 -9.9e-4,-22.162627 0.002,-44.325168 -0.002,-66.488281 v -0.01367 -0.01563 c -0.0445,-4.672801 -1.79554,-9.295869 -4.86524,-12.8242189 -3.23684,-3.759762 -7.90284,-6.2268746 -12.84179,-6.7675781 -1.64395,-0.1872644 -3.34161,-0.1140667 -4.76563,-0.1308594 h -0.0176 z M 281.34174,94.214853 c -0.002,0.0065 -0.002,0.01307 -0.004,0.01953 l 0.008,-0.02734 c -8.4e-4,0.0028 -0.003,0.005 -0.004,0.0078 z M 5.3866572,99.361337 c -0.00965,-0.01385 -0.017752,-0.01728 -0.027344,-0.03125 l 0.044922,0.06641 c -0.00776,-0.01068 -0.00984,-0.02446 -0.017578,-0.03516 z M 2.2733759,19.417978 c 0.00103,-0.0074 -0.00104,-0.0141 0,-0.02148 l -0.00391,0.03516 c 6.05e-4,-0.0047 0.0033,-0.009 0.00391,-0.01367 z"
       sodipodi:nodetypes="ssssssssss" />
    <circle
       style="display:inline;fill:#000000;fill-opacity:0.0014062;stroke:#000000;stroke-width:0.189"
       id="path1418-65-9-6-0"
       cx="124.59805"
       cy="8.1650991"
       r="1.75" />
    <circle
       style="display:inline;fill:#000000;fill-opacity:0.0014062;stroke:#000000;stroke-width:0.189"
       id="path1418-6-9-6-3-0-7-9"
       cx="7.8736062"
       cy="50.086147"
       r="1.75" />
    <circle
       style="display:inline;fill:#000000;fill-opacity:0.0014062;stroke:#000000;stroke-width:0.189"
       id="path1418-6-9-6-7-7-91-5-3"
       cx="276.31528"
       cy="50.086147"
       r="1.75" />
    <circle
       style="display:inline;fill:#000000;fill-opacity:0.0014062;stroke:#000000;stroke-width:0.189"
       id="path1418-6-5-5-7-3-6"
       cx="12.806379"
       cy="12.798434"
       r="1.75" />
    <circle
       style="display:inline;fill:#000000;fill-opacity:0.0014062;stroke:#000000;stroke-width:0.189"
       id="path1418-6-5-6-2-71-5-0"
       cx="271.42307"
       cy="12.798663"
       r="1.75" />
    <circle
       style="display:inline;fill:#000000;fill-opacity:0.0014062;stroke:#000000;stroke-width:0.189"
       id="path1418-6-5-5-0-1-6-6"
       cx="12.806601"
       cy="97.097885"
       r="1.75" />
    <circle
       style="display:inline;fill:#000000;fill-opacity:0.0014062;stroke:#000000;stroke-width:0.189"
       id="path1418-6-5-6-2-7-5-2-2"
       cx="271.42328"
       cy="97.098038"
       r="1.75" />
    <circle
       style="display:inline;fill:#000000;fill-opacity:0.0014062;stroke:#000000;stroke-width:0.189"
       id="path1418-3-4-9-9-6"
       cx="159.83574"
       cy="8.1650991"
       r="1.75" />
    <circle
       style="display:inline;fill:#000000;fill-opacity:0.0014062;stroke:#000000;stroke-width:0.189"
       id="path1418-65-8-7-1-1"
       cx="104.59844"
       cy="118.64564"
       r="1.75" />
    <circle
       style="display:inline;fill:#000000;fill-opacity:0.0014062;stroke:#000000;stroke-width:0.189"
       id="path1418-3-4-6-76-2-8"
       cx="179.83644"
       cy="118.64564"
       r="1.75" />
  </g>
  <g
     inkscape:groupmode="layer"
     id="layer6"
     inkscape:label="top-0"
     style="display:inline"
     sodipodi:insensitive="true">
    <path
       id="rect6305-4-4"
       style="display:inline;fill-opacity:0.0014062;stroke:#000000;stroke-width:0.189"
       d="m 22.0945,2.0945 h 240 c 11.08,0 20,8.92 20,20 v 66.89925 c 0,11.08 -9.12644,17.87114 -20,20 0,0 -110.13305,23.80077 -120.0945,23.8125 -9.91768,0.0117 -119.9055,-23.8125 -119.9055,-23.8125 -10.867762,-2.15827 -20,-8.92 -20,-20 V 22.0945 c 0,-11.08 8.92,-20 20,-20 z"
       inkscape:original-d="m 20.0945,0.0945 h 240 c 11.08,0 20,8.92 20,20 v 66.89925 c 0,11.08 -9.12644,17.87114 -20,20 0,0 -110.13305,23.80077 -120.0945,23.8125 -9.91768,0.0117 -119.9055,-23.8125 -119.9055,-23.8125 -10.8677621,-2.15827 -20,-8.92 -20,-20 V 20.0945 c 0,-11.08 8.92,-20 20,-20 z"
       sodipodi:nodetypes="ssssssssss" />
    <path
       id="polygon4-7"
       style="fill:none;stroke:#000000;stroke-width:0.05mm"
       d="m 17.539062,16.875 -4.107421,20.648438 4.669921,0.929687 -3.716796,18.683594 4.671875,0.927734 -3.716797,18.685547 9.341797,1.857422 -3.716797,18.683594 20.646484,4.107424 3.716797,-18.683596 31.716797,6.308594 13.03125,2.591796 -3.716797,18.683596 30.203125,6.00976 v -0.002 l 18.46875,3.67383 4.10742,-20.646486 -4.66992,-0.929687 3.71484,-18.683594 -9.34179,-1.857422 3.71679,-18.683593 -4.67187,-0.929688 3.7168,-18.683594 z"
       inkscape:path-effect="#path-effect2517"
       inkscape:original-d="m 20.232488,57.280155 -3.717,18.684 9.342,1.858 -3.717,18.684 18.686,3.716995 3.717,-18.684995 32.697,6.505 v -0.001 l 14.011,2.787 -3.717,18.684995 28.028002,5.575 v -0.001 l 18.684,3.717 3.717,-18.686 -4.671,-0.928995 3.716,-18.684 -9.342,-1.858 3.717,-18.684 -4.673,-0.929 3.718,-18.684 -112.105002,-22.3 -3.717,18.687 4.671,0.929 -3.717,18.684 z" />
    <path
       id="polygon6-4"
       style="fill:none;stroke:#000000;stroke-width:0.05mm"
       d="m 266.72656,16.818359 -85.05664,16.919922 -38.35156,7.628907 4.10742,20.646484 4.67188,-0.929688 3.32617,16.722657 -9.34375,1.857421 3.7168,18.683594 -4.66993,0.929688 4.10743,20.646486 48.67187,-9.68164 -3.7168,-18.685549 30.51953,-6.070313 v 0.002 l 14.22852,-2.832031 3.7168,18.68555 20.64648,-4.107425 -3.7168,-18.683594 4.67188,-0.929687 -3.7168,-18.685547 9.3418,-1.857422 -3.7168,-18.683594 4.67188,-0.929687 z"
       inkscape:path-effect="#path-effect2519"
       inkscape:original-d="m 148.21132,60.838154 4.671,-0.929 3.717,18.682 -9.343,1.858 3.717,18.684 -4.671,0.928996 3.717,18.686 46.712,-9.292 -3.717,-18.683996 32.695,-6.504 v 0.001 l 14.013,-2.788 3.717,18.683996 18.685,-3.715996 -3.716,-18.684 4.671,-0.929 -3.717,-18.685 9.342,-1.858 -3.716,-18.684 4.671,-0.929 -3.717,-18.686 -84.078,16.725 v -0.001 l -37.37,7.434 z" />
    <circle
       style="display:inline;fill:#000000;fill-opacity:0.0014062;stroke:#000000;stroke-width:0.189"
       id="path1418-65-9"
       cx="124.59811"
       cy="8.1650896"
       r="1.75" />
    <circle
       style="display:inline;fill:#000000;fill-opacity:0.0014062;stroke:#000000;stroke-width:0.189"
       id="path1418-6-9-6-3-0"
       cx="7.8736668"
       cy="50.08614"
       r="1.75" />
    <circle
       style="display:inline;fill:#000000;fill-opacity:0.0014062;stroke:#000000;stroke-width:0.189"
       id="path1418-6-9-6-7-7-91"
       cx="276.31534"
       cy="50.08614"
       r="1.75" />
    <circle
       style="display:inline;fill:#000000;fill-opacity:0.0014062;stroke:#000000;stroke-width:0.189"
       id="path1418-6-5-5-7"
       cx="12.806444"
       cy="12.798424"
       r="1.75" />
    <circle
       style="display:inline;fill:#000000;fill-opacity:0.0014062;stroke:#000000;stroke-width:0.189"
       id="path1418-6-5-6-2-71"
       cx="271.42313"
       cy="12.798654"
       r="1.75" />
    <circle
       style="display:inline;fill:#000000;fill-opacity:0.0014062;stroke:#000000;stroke-width:0.189"
       id="path1418-6-5-5-0-1"
       cx="12.806665"
       cy="97.097878"
       r="1.75" />
    <circle
       style="display:inline;fill:#000000;fill-opacity:0.0014062;stroke:#000000;stroke-width:0.189"
       id="path1418-6-5-6-2-7-5"
       cx="271.42334"
       cy="97.09803"
       r="1.75" />
    <circle
       style="display:inline;fill:#000000;fill-opacity:0.0014062;stroke:#000000;stroke-width:0.189"
       id="path1418-3-4-9"
       cx="159.8358"
       cy="8.1650896"
       r="1.75" />
    <circle
       style="display:inline;fill:#000000;fill-opacity:0.0014062;stroke:#000000;stroke-width:0.189"
       id="path1418-65-8-7"
       cx="104.5985"
       cy="118.64563"
       r="1.75" />
    <circle
       style="display:inline;fill:#000000;fill-opacity:0.0014062;stroke:#000000;stroke-width:0.189"
       id="path1418-3-4-6-76"
       cx="179.8365"
       cy="118.64563"
       r="1.75" />
  </g>
  <g
     inkscape:groupmode="layer"
     id="g1729"
     inkscape:label="top-1"
     style="display:inline"
     sodipodi:insensitive="true">
    <path
       id="path1703"
       style="display:inline;fill-opacity:0.0014062;stroke:#000000;stroke-width:0.189"
       d="M 22.093361,3.0939687 C 17.521859,3.0722029 12.96812,4.7741288 9.5438459,7.8052899 5.9975794,10.896994 3.682514,15.353021 3.2027027,20.034249 c -0.1689958,1.548384 -0.091551,3.107512 -0.1093417,4.661606 8.064e-4,21.504163 -0.00161,43.008338 0.00121,64.512494 0.019937,3.213853 0.9571226,6.427931 2.7598512,9.09746 0.952971,1.408754 2.0886199,2.707301 3.4130391,3.778291 0.672837,0.49556 1.3462057,0.99006 1.9902137,1.52304 1.686541,1.16768 3.545824,2.0732 5.456134,2.81299 1.980929,0.76784 4.043958,1.29915 6.125062,1.71346 8.107363,1.7648 16.226129,3.47653 24.340519,5.2086 20.525978,4.35021 41.061793,8.65754 61.64365,12.73657 8.28239,1.62667 16.56732,3.2488 24.89221,4.64555 2.52522,0.4051 5.05068,0.83713 7.60067,1.05457 1.36199,0.0972 2.71763,-0.14101 4.06578,-0.30231 5.06177,-0.7118 10.08896,-1.64574 15.11519,-2.57038 14.0448,-2.63002 28.04625,-5.48489 42.04221,-8.36167 17.83267,-3.67555 35.64455,-7.45113 53.45048,-11.25382 2.43987,-0.53132 4.88316,-1.04695 7.32165,-1.58188 4.18126,-0.99828 8.25513,-2.75005 11.55894,-5.54252 2.54764,-2.14379 4.55604,-4.977704 5.50746,-8.184915 0.55706,-1.816259 0.75377,-3.724692 0.71573,-5.619259 -0.001,-22.171496 0.002,-44.343008 -0.002,-66.514493 -0.036,-4.596263 -1.8179,-9.151079 -4.92271,-12.5419779 -3.15832,-3.5027601 -7.66754,-5.7431447 -12.3682,-6.1367111 -1.4902,-0.1203801 -2.98626,-0.060357 -4.47964,-0.074975 -79.07597,0 -158.15193,0 -237.227899,0 z"
       sodipodi:nodetypes="ssssssssss" />
    <path
       id="path1705"
       style="fill:none;stroke:#000000;stroke-width:0.05mm"
       d="m 17.537109,16.875 -4.107421,20.648438 4.671874,0.929687 -3.716796,18.683594 4.671875,0.929687 -3.716797,18.683594 9.341797,1.857422 -3.716797,18.683594 20.646484,4.107424 3.716797,-18.683596 31.716797,6.308594 13.03125,2.591796 -3.71875,18.683596 30.205078,6.00976 v -0.002 l 18.46875,3.67383 4.10742,-20.646486 -4.66992,-0.929687 3.71484,-18.683594 -9.34179,-1.857422 3.71679,-18.683593 -4.67187,-0.929688 3.7168,-18.683594 z"
       inkscape:path-effect="#path-effect1733"
       inkscape:original-d="m 20.232099,57.280374 -3.717,18.684 9.342,1.858 -3.717,18.684 18.686,3.716996 3.717,-18.684996 32.697,6.505 v -0.001 l 14.011,2.787 -3.717,18.684996 28.028001,5.575 v -0.001 l 18.684,3.717 3.717,-18.686 -4.671,-0.928996 3.716,-18.684 -9.342,-1.858 3.717,-18.684 -4.673,-0.929 3.718,-18.684 -112.105001,-22.3 -3.717,18.687 4.671,0.929 -3.717,18.684 z" />
    <path
       id="path1707"
       style="fill:none;stroke:#000000;stroke-width:0.05mm"
       d="m 266.72656,16.818359 -85.05859,16.919922 -38.34961,7.628907 4.10742,20.646484 4.67188,-0.927734 3.32617,16.720703 -9.34375,1.857421 3.7168,18.683594 -4.66993,0.929688 4.10743,20.646486 48.67187,-9.68164 -3.7168,-18.685549 30.51953,-6.070313 v 0.002 l 14.22852,-2.832031 3.7168,18.68555 20.64453,-4.107425 -3.71485,-18.683594 4.66993,-0.929687 -3.7168,-18.683594 9.3418,-1.859375 -3.71485,-18.683594 4.66992,-0.929687 z"
       inkscape:path-effect="#path-effect1737"
       inkscape:original-d="m 148.21093,60.838373 4.671,-0.929 3.717,18.682 -9.343,1.858 3.717,18.684 -4.671,0.928997 3.717,18.686 46.712,-9.292 -3.717,-18.683997 32.695,-6.504 v 0.001 l 14.013,-2.788 3.717,18.683997 18.685,-3.715997 -3.716,-18.684 4.671,-0.929 -3.717,-18.685 9.342,-1.858 -3.716,-18.684 4.671,-0.929 -3.717,-18.686 -84.078,16.725 v -10e-4 l -37.37,7.434 z" />
    <circle
       style="display:inline;fill:#000000;fill-opacity:0.0014062;stroke:#000000;stroke-width:0.189"
       id="circle1709"
       cx="124.59772"
       cy="8.165308"
       r="1.75" />
    <circle
       style="display:inline;fill:#000000;fill-opacity:0.0014062;stroke:#000000;stroke-width:0.189"
       id="circle1711"
       cx="7.8732777"
       cy="50.086357"
       r="1.75" />
    <circle
       style="display:inline;fill:#000000;fill-opacity:0.0014062;stroke:#000000;stroke-width:0.189"
       id="circle1713"
       cx="276.31494"
       cy="50.086357"
       r="1.75" />
    <circle
       style="display:inline;fill:#000000;fill-opacity:0.0014062;stroke:#000000;stroke-width:0.189"
       id="circle1715"
       cx="12.806055"
       cy="12.798642"
       r="1.75" />
    <circle
       style="display:inline;fill:#000000;fill-opacity:0.0014062;stroke:#000000;stroke-width:0.189"
       id="circle1717"
       cx="271.42273"
       cy="12.798872"
       r="1.75" />
    <circle
       style="display:inline;fill:#000000;fill-opacity:0.0014062;stroke:#000000;stroke-width:0.189"
       id="circle1719"
       cx="12.806276"
       cy="97.098099"
       r="1.75" />
    <circle
       style="display:inline;fill:#000000;fill-opacity:0.0014062;stroke:#000000;stroke-width:0.189"
       id="circle1721"
       cx="271.42294"
       cy="97.098251"
       r="1.75" />
    <circle
       style="display:inline;fill:#000000;fill-opacity:0.0014062;stroke:#000000;stroke-width:0.189"
       id="circle1723"
       cx="159.83542"
       cy="8.165308"
       r="1.75" />
    <circle
       style="display:inline;fill:#000000;fill-opacity:0.0014062;stroke:#000000;stroke-width:0.189"
       id="circle1725"
       cx="104.59811"
       cy="118.64585"
       r="1.75" />
    <circle
       style="display:inline;fill:#000000;fill-opacity:0.0014062;stroke:#000000;stroke-width:0.189"
       id="circle1727"
       cx="179.83612"
       cy="118.64585"
       r="1.75" />
  </g>
  <g
     inkscape:groupmode="layer"
     id="g1785"
     inkscape:label="top-2"
     style="display:inline"
     sodipodi:insensitive="true">
    <path
       id="path1759"
       style="display:inline;fill-opacity:0.0014062;stroke:#000000;stroke-width:0.189"
       d="M 22.093904,4.093987 C 17.415043,4.0649824 12.761128,5.9659437 9.4410208,9.2631473 6.198591,12.455694 4.2228583,16.914918 4.1067036,21.470189 c -0.035945,1.918545 0.00567,3.83784 -0.012716,5.75665 0.00344,20.755249 -0.00652,41.510595 0.00615,62.265784 0.071499,3.299036 1.2005582,6.576901 3.2478209,9.172976 0.9430164,1.23251 2.0559624,2.339381 3.3334425,3.224161 0.70437,0.53003 1.371879,1.11107 2.144421,1.5439 3.026605,1.82515 6.421131,2.95813 9.874213,3.6511 11.430062,2.46823 22.869399,4.89411 34.309872,7.31382 20.221047,4.25976 40.451836,8.47932 60.741293,12.40265 6.49729,1.24214 12.99918,2.47208 19.53817,3.47691 1.39319,0.20468 2.7898,0.40296 4.19456,0.5052 0.91961,8.6e-4 1.83945,-0.0499 2.75164,-0.17288 3.07979,-0.38152 6.13947,-0.90897 9.19669,-1.43832 11.24827,-1.99966 22.45306,-4.23524 33.65217,-6.49144 23.71041,-4.80318 47.3802,-9.80458 71.03513,-14.87313 1.83262,-0.40277 3.67393,-0.76829 5.49907,-1.2038 4.1213,-1.05345 8.12381,-2.88273 11.27205,-5.79008 2.41402,-2.229984 4.2064,-5.175339 4.86028,-8.41222 0.34242,-1.582176 0.36884,-3.207706 0.34291,-4.819373 -0.004,-22.013171 0.009,-44.026468 -0.007,-66.03956 -0.11452,-4.559982 -2.0523,-9.044552 -5.30483,-12.2442664 -3.26179,-3.2502251 -7.81488,-5.1722182 -12.42402,-5.1990967 -3.08968,-0.010492 -6.17958,-0.00273 -9.26937,-0.00519 -76.99824,0 -153.996468,0 -230.9947,0 z"
       sodipodi:nodetypes="ssssssssss" />
    <path
       id="path1761"
       style="fill:none;stroke:#000000;stroke-width:0.05mm"
       d="m 17.539062,16.875 -4.107421,20.648438 4.669921,0.929687 -3.716796,18.683594 4.671875,0.929687 -3.716797,18.683594 9.341797,1.857422 -3.716797,18.683594 20.646484,4.107424 3.716797,-18.683596 31.716797,6.308594 13.03125,2.591796 -3.716797,18.683596 30.203125,6.00976 v -0.002 l 18.46875,3.67383 4.10742,-20.646486 -4.66992,-0.929687 3.71484,-18.683594 -9.34179,-1.857422 3.71679,-18.683593 -4.67187,-0.929688 3.7168,-18.683594 z"
       inkscape:path-effect="#path-effect1789"
       inkscape:original-d="m 20.232642,57.280392 -3.717,18.684 9.342,1.858 -3.717,18.684 18.686,3.716998 3.717,-18.684998 32.697,6.505 v -10e-4 l 14.011,2.787 -3.717,18.684998 28.027998,5.575 v -10e-4 l 18.684,3.717 3.717,-18.686 -4.671,-0.928998 3.716,-18.684 -9.342,-1.858 3.717,-18.684 -4.673,-0.929 3.718,-18.684 -112.104998,-22.3 -3.717,18.687 4.671,0.929 -3.717,18.684 z" />
    <path
       id="path1763"
       style="fill:none;stroke:#000000;stroke-width:0.05mm"
       d="m 266.72852,16.818359 -85.0586,16.919922 -38.35156,7.628907 4.10742,20.646484 4.67188,-0.927734 3.32617,16.720703 -9.34375,1.857421 3.7168,18.683594 -4.66993,0.929688 4.10743,20.646486 48.67382,-9.68164 -3.71875,-18.685549 30.51953,-6.070313 v 0.002 l 14.22852,-2.832031 3.7168,18.68555 20.64648,-4.107425 -3.7168,-18.683594 4.67188,-0.929687 -3.7168,-18.683594 9.3418,-1.859375 -3.7168,-18.683594 4.67188,-0.929687 z"
       inkscape:path-effect="#path-effect1793"
       inkscape:original-d="m 148.21147,60.838391 4.671,-0.929 3.717,18.682 -9.343,1.858 3.717,18.684 -4.671,0.928999 3.717,18.686 46.712,-9.292 -3.717,-18.683999 32.695,-6.504 v 0.001 l 14.013,-2.788 3.717,18.683999 18.685,-3.715999 -3.716,-18.684 4.671,-0.929 -3.717,-18.685 9.342,-1.858 -3.716,-18.684 4.671,-0.929 -3.717,-18.686 -84.078,16.725 v -0.001 l -37.37,7.434 z" />
    <circle
       style="display:inline;fill:#000000;fill-opacity:0.0014062;stroke:#000000;stroke-width:0.189"
       id="circle1765"
       cx="124.59826"
       cy="8.1653271"
       r="1.75" />
    <circle
       style="display:inline;fill:#000000;fill-opacity:0.0014062;stroke:#000000;stroke-width:0.189"
       id="circle1767"
       cx="7.8738203"
       cy="50.086376"
       r="1.75" />
    <circle
       style="display:inline;fill:#000000;fill-opacity:0.0014062;stroke:#000000;stroke-width:0.189"
       id="circle1769"
       cx="276.31549"
       cy="50.086376"
       r="1.75" />
    <circle
       style="display:inline;fill:#000000;fill-opacity:0.0014062;stroke:#000000;stroke-width:0.189"
       id="circle1771"
       cx="12.806598"
       cy="12.798661"
       r="1.75" />
    <circle
       style="display:inline;fill:#000000;fill-opacity:0.0014062;stroke:#000000;stroke-width:0.189"
       id="circle1773"
       cx="271.42328"
       cy="12.798891"
       r="1.75" />
    <circle
       style="display:inline;fill:#000000;fill-opacity:0.0014062;stroke:#000000;stroke-width:0.189"
       id="circle1775"
       cx="12.806819"
       cy="97.098114"
       r="1.75" />
    <circle
       style="display:inline;fill:#000000;fill-opacity:0.0014062;stroke:#000000;stroke-width:0.189"
       id="circle1777"
       cx="271.42349"
       cy="97.098267"
       r="1.75" />
    <circle
       style="display:inline;fill:#000000;fill-opacity:0.0014062;stroke:#000000;stroke-width:0.189"
       id="circle1779"
       cx="159.83595"
       cy="8.1653271"
       r="1.75" />
    <circle
       style="display:inline;fill:#000000;fill-opacity:0.0014062;stroke:#000000;stroke-width:0.189"
       id="circle1781"
       cx="104.59866"
       cy="118.64587"
       r="1.75" />
    <circle
       style="display:inline;fill:#000000;fill-opacity:0.0014062;stroke:#000000;stroke-width:0.189"
       id="circle1783"
       cx="179.83665"
       cy="118.64587"
       r="1.75" />
  </g>
  <g
     inkscape:groupmode="layer"
     id="g3968"
     inkscape:label="virtual"
     style="display:inline"
     sodipodi:insensitive="true">
    <rect
       style="fill:#000000;fill-opacity:0.0014062;stroke:#000000;stroke-width:0.147795"
       id="rect3964"
       width="39.852203"
       height="26.852205"
       x="122.0739"
       y="13.198562" />
    <rect
       style="fill:#000000;fill-opacity:0.0014062;stroke:#000000;stroke-width:0.189"
       id="rect3966"
       width="20"
       height="35"
       x="132.11479"
       y="4.7525001" />
  </g>
  <metadata
     id="metadata944">
    <rdf:RDF>
      <cc:Work
         rdf:about="">
        <dc:title>Eliza</dc:title>
        <dc:creator>
          <cc:Agent>
            <dc:title>Cody Bloemhard</dc:title>
          </cc:Agent>
        </dc:creator>
        <dc:rights>
          <cc:Agent>
            <dc:title>GPL v3</dc:title>
          </cc:Agent>
        </dc:rights>
      </cc:Work>
    </rdf:RDF>
  </metadata>
</svg>
