<?xml version="1.0" encoding="UTF-8" standalone="no"?>
<!-- Generated by SVGo -->

<svg
   width="302.077mm"
   height="160.260mm"
   viewBox="0.000 0.000 302.077 160.260"
   version="1.1"
   id="svg28"
   sodipodi:docname="design.svg"
   inkscape:version="1.1.2 (0a00cf5339, 2022-02-04, custom)"
   xmlns:inkscape="http://www.inkscape.org/namespaces/inkscape"
   xmlns:sodipodi="http://sodipodi.sourceforge.net/DTD/sodipodi-0.dtd"
   xmlns="http://www.w3.org/2000/svg"
   xmlns:svg="http://www.w3.org/2000/svg"
   xmlns:rdf="http://www.w3.org/1999/02/22-rdf-syntax-ns#"
   xmlns:cc="http://creativecommons.org/ns#"
   xmlns:dc="http://purl.org/dc/elements/1.1/">
  <title
     id="title946">Eliza</title>
  <defs
     id="defs32">
    <inkscape:path-effect
       effect="offset"
       id="path-effect2976"
       is_visible="true"
       lpeversion="1"
       linejoin_type="miter"
       unit="mm"
       offset="-1"
       miter_limit="4"
       attempt_force_join="false"
       update_on_knot_move="true" />
    <inkscape:path-effect
       effect="offset"
       id="path-effect2952"
       is_visible="true"
       lpeversion="1"
       linejoin_type="miter"
       unit="mm"
       offset="-0.5"
       miter_limit="4"
       attempt_force_join="false"
       update_on_knot_move="true" />
    <inkscape:path-effect
       effect="offset"
       id="path-effect2762"
       is_visible="true"
       lpeversion="1"
       linejoin_type="miter"
       unit="mm"
       offset="-1"
       miter_limit="4"
       attempt_force_join="false"
       update_on_knot_move="true" />
    <inkscape:path-effect
       effect="offset"
       id="path-effect2719"
       is_visible="true"
       lpeversion="1"
       linejoin_type="miter"
       unit="mm"
       offset="-0.5"
       miter_limit="4"
       attempt_force_join="false"
       update_on_knot_move="true" />
    <inkscape:path-effect
       effect="offset"
       id="path-effect2312"
       is_visible="true"
       lpeversion="1"
       linejoin_type="miter"
       unit="mm"
       offset="-1"
       miter_limit="4"
       attempt_force_join="false"
       update_on_knot_move="true" />
    <inkscape:path-effect
       effect="offset"
       id="path-effect1979"
       is_visible="true"
       lpeversion="1"
       linejoin_type="miter"
       unit="mm"
       offset="-0.5"
       miter_limit="4"
       attempt_force_join="false"
       update_on_knot_move="true" />
    <inkscape:path-effect
       effect="offset"
       id="path-effect1936"
       is_visible="true"
       lpeversion="1"
       linejoin_type="miter"
       unit="mm"
       offset="-0.5"
       miter_limit="4"
       attempt_force_join="false"
       update_on_knot_move="true" />
    <inkscape:path-effect
       effect="offset"
       id="path-effect2896"
       is_visible="true"
       lpeversion="1"
       linejoin_type="miter"
       unit="mm"
       offset="-1"
       miter_limit="4"
       attempt_force_join="false"
       update_on_knot_move="true" />
    <inkscape:path-effect
       effect="offset"
       id="path-effect2853"
       is_visible="true"
       lpeversion="1"
       linejoin_type="miter"
       unit="mm"
       offset="-0.5"
       miter_limit="4"
       attempt_force_join="false"
       update_on_knot_move="true" />
    <inkscape:path-effect
       effect="offset"
       id="path-effect1032"
       is_visible="true"
       lpeversion="1"
       linejoin_type="miter"
       unit="mm"
       offset="-2"
       miter_limit="4"
       attempt_force_join="false"
       update_on_knot_move="true" />
    <inkscape:path-effect
       effect="offset"
       id="path-effect988"
       is_visible="true"
       lpeversion="1"
       linejoin_type="miter"
       unit="mm"
       offset="-1"
       miter_limit="4"
       attempt_force_join="false"
       update_on_knot_move="true" />
    <inkscape:path-effect
       effect="offset"
       id="path-effect8589"
       is_visible="true"
       lpeversion="1"
       linejoin_type="miter"
       unit="mm"
       offset="-11"
       miter_limit="4"
       attempt_force_join="false"
       update_on_knot_move="true" />
    <inkscape:path-effect
       effect="offset"
       id="path-effect7616"
       is_visible="true"
       lpeversion="1"
       linejoin_type="miter"
       unit="mm"
       offset="-11"
       miter_limit="4"
       attempt_force_join="false"
       update_on_knot_move="true" />
    <inkscape:path-effect
       effect="offset"
       id="path-effect6560"
       is_visible="true"
       lpeversion="1"
       linejoin_type="miter"
       unit="mm"
       offset="-11"
       miter_limit="4"
       attempt_force_join="false"
       update_on_knot_move="true" />
    <inkscape:path-effect
       effect="offset"
       id="path-effect6518"
       is_visible="true"
       lpeversion="1"
       linejoin_type="miter"
       unit="mm"
       offset="0"
       miter_limit="4"
       attempt_force_join="false"
       update_on_knot_move="true" />
    <inkscape:path-effect
       effect="offset"
       id="path-effect2519"
       is_visible="true"
       lpeversion="1"
       linejoin_type="miter"
       unit="mm"
       offset="1"
       miter_limit="4"
       attempt_force_join="false"
       update_on_knot_move="true" />
    <inkscape:path-effect
       effect="offset"
       id="path-effect2517"
       is_visible="true"
       lpeversion="1"
       linejoin_type="miter"
       unit="mm"
       offset="1"
       miter_limit="4"
       attempt_force_join="false"
       update_on_knot_move="true" />
    <inkscape:path-effect
       effect="offset"
       id="path-effect2672"
       is_visible="true"
       lpeversion="1"
       linejoin_type="miter"
       unit="mm"
       offset="-11"
       miter_limit="4"
       attempt_force_join="false"
       update_on_knot_move="true" />
    <inkscape:path-effect
       effect="offset"
       id="path-effect2630"
       is_visible="true"
       lpeversion="1"
       linejoin_type="miter"
       unit="mm"
       offset="-11"
       miter_limit="4"
       attempt_force_join="false"
       update_on_knot_move="true" />
    <inkscape:path-effect
       effect="offset"
       id="path-effect1591"
       is_visible="true"
       lpeversion="1"
       linejoin_type="miter"
       unit="mm"
       offset="-11"
       miter_limit="4"
       attempt_force_join="false"
       update_on_knot_move="true" />
    <inkscape:path-effect
       effect="offset"
       id="path-effect1468"
       is_visible="true"
       lpeversion="1"
       linejoin_type="miter"
       unit="mm"
       offset="0"
       miter_limit="4"
       attempt_force_join="false"
       update_on_knot_move="true" />
    <inkscape:path-effect
       effect="offset"
       id="path-effect1326"
       is_visible="true"
       lpeversion="1"
       linejoin_type="miter"
       unit="mm"
       offset="0.5"
       miter_limit="4"
       attempt_force_join="false"
       update_on_knot_move="true" />
    <inkscape:path-effect
       effect="offset"
       id="path-effect1324"
       is_visible="true"
       lpeversion="1"
       linejoin_type="miter"
       unit="mm"
       offset="0.5"
       miter_limit="4"
       attempt_force_join="false"
       update_on_knot_move="true" />
  </defs>
  <sodipodi:namedview
     id="namedview30"
     pagecolor="#505050"
     bordercolor="#eeeeee"
     borderopacity="1"
     inkscape:pageshadow="0"
     inkscape:pageopacity="0"
     inkscape:pagecheckerboard="0"
     inkscape:document-units="mm"
     showgrid="false"
     showguides="false"
     inkscape:zoom="0.85"
     inkscape:cx="527.65262"
     inkscape:cy="442.64346"
     inkscape:window-width="2516"
     inkscape:window-height="1370"
     inkscape:window-x="20"
     inkscape:window-y="46"
     inkscape:window-maximized="1"
     inkscape:current-layer="layer5"
     inkscape:rotation="12" />
  <g
     inkscape:groupmode="layer"
     id="g3968"
     inkscape:label="virtual"
     style="display:inline"
     sodipodi:insensitive="true">
    <rect
       style="fill:#000000;fill-opacity:0.0014062;stroke:#000000;stroke-width:0.147795"
       id="rect3964"
       width="39.852203"
       height="26.852205"
       x="120.0739"
       y="11.198666" />
    <rect
       style="fill:#000000;fill-opacity:0.0014062;stroke:#000000;stroke-width:0.189"
       id="rect3966"
       width="20"
       height="35"
       x="130.11479"
       y="2.7526035" />
  </g>
  <g
     inkscape:groupmode="layer"
     id="g970"
     inkscape:label="feet"
     style="display:inline"
     sodipodi:insensitive="true">
    <path
       id="path1418-65-9-3-6-7-5-3-3"
       style="display:inline;fill:#000000;fill-opacity:0.0014062;stroke:#000000;stroke-width:0.188952;stroke-miterlimit:4;stroke-dasharray:none"
       sodipodi:type="inkscape:offset"
       inkscape:radius="0"
       inkscape:original="M 153.01758 23.185547 A 1.000024 1.0000238 0 0 0 152.01758 24.185547 A 1.000024 1.0000238 0 0 0 153.01758 25.185547 A 1.000024 1.0000238 0 0 0 154.01758 24.185547 A 1.000024 1.0000238 0 0 0 153.01758 23.185547 z "
       d="m 153.01758,23.185547 a 1.000024,1.0000238 0 0 0 -1,1 1.000024,1.0000238 0 0 0 1,1 1.000024,1.0000238 0 0 0 1,-1 1.000024,1.0000238 0 0 0 -1,-1 z"
       transform="translate(116.4059,-13.387071)" />
    <path
       id="path1418-65-9-3-6-7-5-3-3-3"
       style="display:inline;fill:#000000;fill-opacity:0.0014062;stroke:#000000;stroke-width:0.188952;stroke-miterlimit:4;stroke-dasharray:none"
       sodipodi:type="inkscape:offset"
       inkscape:radius="0"
       inkscape:original="M 153.01758 23.185547 A 1.000024 1.0000238 0 0 0 152.01758 24.185547 A 1.000024 1.0000238 0 0 0 153.01758 25.185547 A 1.000024 1.0000238 0 0 0 154.01758 24.185547 A 1.000024 1.0000238 0 0 0 153.01758 23.185547 z "
       d="m 153.01758,23.185547 a 1.000024,1.0000238 0 0 0 -1,1 1.000024,1.0000238 0 0 0 1,1 1.000024,1.0000238 0 0 0 1,-1 1.000024,1.0000238 0 0 0 -1,-1 z"
       transform="translate(4.817896,-18.020071)" />
    <ellipse
       style="display:inline;fill:#000000;fill-opacity:0.0014062;stroke:#000000;stroke-width:0.188952;stroke-miterlimit:4;stroke-dasharray:none"
       id="path1418-65-9-3-6-7-5-3-3-5"
       cx="122.5985"
       cy="6.1654997"
       rx="1.000024"
       ry="1.0000238" />
    <ellipse
       style="display:inline;fill:#000000;fill-opacity:0.0014062;stroke:#000000;stroke-width:0.188952;stroke-miterlimit:4;stroke-dasharray:none"
       id="path1418-65-9-3-6-7-5-3-3-7"
       cx="10.8065"
       cy="10.7985"
       rx="1.000024"
       ry="1.0000238" />
    <rect
       style="display:inline;fill:#000000;fill-opacity:0.0014062;stroke:#000000;stroke-width:0.197438"
       id="rect980-3"
       width="119.98969"
       height="12.802562"
       x="153.19873"
       y="2.5987189"
       rx="5.018569" />
    <path
       id="rect980-3-2"
       d="m 158.2168,3.5996094 c -1.10844,-0.00742 -2.20869,0.4713088 -2.95597,1.290498 -0.70358,0.7552173 -1.08743,1.7905173 -1.06161,2.8211249 0.001,0.9338474 -0.003,1.8677494 0.002,2.8015617 0.028,1.139606 0.573,2.25249 1.45658,2.97283 0.74074,0.616765 1.70969,0.941879 2.67181,0.914767 36.6308,-2.18e-4 73.26159,4.36e-4 109.89239,-3.27e-4 1.13367,-0.0064 2.2512,-0.523278 2.98853,-1.384707 0.65583,-0.74988 1.0055,-1.751011 0.97693,-2.745399 -10e-4,-0.9275775 0.003,-1.8552097 -0.002,-2.7827525 -0.028,-1.1396055 -0.573,-2.2524889 -1.45658,-2.9728286 -0.74074,-0.6167655 -1.70969,-0.9418793 -2.67181,-0.9147675 -36.61343,0 -73.22685,0 -109.84027,0 z"
       style="display:inline;fill:#000000;fill-opacity:0.0014062;stroke:#000000;stroke-width:0.197438" />
    <path
       style="display:inline;fill:#000000;fill-opacity:0.0014062;stroke:#000000;stroke-width:0.197438"
       id="rect980-3-1"
       width="119.98969"
       height="12.802562"
       x="153.19872"
       y="2.5987191"
       rx="5.018569"
       inkscape:path-effect="#path-effect2952"
       d="m 158.2168,3.0996094 c -1.21477,-0.00762 -2.42131,0.5030355 -3.25902,1.3832263 -0.82317,0.8477581 -1.28278,2.0296654 -1.25856,3.21028 0.001,0.9452677 -0.003,1.8905958 0.002,2.8358243 0.0313,1.254078 0.61821,2.480058 1.57586,3.290413 0.83745,0.723226 1.94854,1.110278 3.05332,1.081038 36.62285,-6.1e-5 73.2457,1.23e-4 109.86855,-9.2e-5 1.23905,2.72e-4 2.46541,-0.539868 3.29946,-1.456543 0.7856,-0.845876 1.21645,-2.002852 1.1888,-3.155854 -0.001,-0.9389406 0.003,-1.8779413 -0.002,-2.8168422 -0.0313,-1.254078 -0.61821,-2.4800574 -1.57586,-3.2904122 -0.83745,-0.7232262 -1.94854,-1.1102778 -3.05332,-1.0810382 -36.61308,0 -73.22615,0 -109.83923,0 z"
       sodipodi:type="rect" />
    <rect
       style="display:inline;fill:#000000;fill-opacity:0.0014062;stroke:#000000;stroke-width:0.197438"
       id="rect980-3-6"
       width="119.98969"
       height="12.802562"
       x="6.9987192"
       y="2.5987189"
       rx="5.018569" />
    <path
       id="rect980-3-6-9"
       d="m 12.017578,3.5996094 c -1.11586,-0.00753 -2.2231368,0.4777807 -2.9713125,1.3061149 -0.6950918,0.7535383 -1.073931,1.7818072 -1.0482186,2.8055095 0.0013,0.9338379 -0.00264,1.8677303 0.00204,2.8015332 0.02811,1.139813 0.5739145,2.252517 1.4577333,2.972701 0.7410838,0.616719 1.7102158,0.942025 2.6726128,0.914923 36.630793,-2.18e-4 73.261591,4.36e-4 109.892387,-3.27e-4 1.13367,-0.0064 2.2512,-0.523278 2.98853,-1.384707 0.65583,-0.74988 1.0055,-1.751012 0.97693,-2.745401 -0.001,-0.9275768 0.003,-1.8552083 -0.002,-2.7827505 -0.028,-1.1396055 -0.573,-2.2524889 -1.45658,-2.9728286 -0.74074,-0.6167659 -1.70969,-0.9418796 -2.67182,-0.9147675 -36.613419,0 -73.226841,0 -109.840263,0 z"
       style="display:inline;fill:#000000;fill-opacity:0.0014062;stroke:#000000;stroke-width:0.197438" />
    <path
       id="rect980-3-6-2"
       d="M 12.017578,3.0996094 C 10.802485,3.0920351 9.595711,3.6027791 8.757498,4.482885 7.933985,5.3304432 7.4736441,6.5123149 7.4980469,7.693117 c 0.00144,0.9452626 -0.00294,1.8905859 0.0023,2.835809 0.031378,1.254292 0.6190313,2.480159 1.5769838,3.290347 0.8378163,0.723152 1.9490983,1.11034 3.0541453,1.081118 36.622849,-6.1e-5 73.245697,1.23e-4 109.868544,-9.2e-5 1.23905,2.72e-4 2.46541,-0.539868 3.29946,-1.456543 0.7856,-0.845876 1.21645,-2.002853 1.1888,-3.155856 -0.001,-0.9389396 0.003,-1.8779398 -0.002,-2.8168402 -0.0313,-1.254078 -0.61821,-2.4800574 -1.57586,-3.2904122 -0.83745,-0.7232267 -1.94854,-1.1102782 -3.05332,-1.0810382 -36.613076,0 -73.226152,0 -109.839228,0 z"
       style="display:inline;fill:#000000;fill-opacity:0.0014062;stroke:#000000;stroke-width:0.197438" />
  </g>
  <g
     inkscape:groupmode="layer"
     id="g1030"
     inkscape:label="bottom"
     style="display:inline"
     sodipodi:insensitive="true">
    <path
       id="path1008"
       style="display:inline;fill-opacity:0.0014062;stroke:#000000;stroke-width:0.189"
       d="m 20.0945,0.0945 h 240 c 11.08,0 20,8.92 20,20 v 66.89925 c 0,11.08 -9.12644,17.87114 -20,20 0,0 -110.13305,23.80077 -120.0945,23.8125 -9.91768,0.0117 -119.9055,-23.8125 -119.9055,-23.8125 -10.8677618,-2.15827 -20,-8.92 -20,-20 V 20.0945 c 0,-11.08 8.9200002,-20 20,-20 z"
       sodipodi:nodetypes="ssssssssss" />
    <circle
       style="display:inline;fill:#000000;fill-opacity:0.0014062;stroke:#000000;stroke-width:0.189"
       id="circle1010"
       cx="122.59811"
       cy="6.165091"
       r="1.75" />
    <circle
       style="display:inline;fill:#000000;fill-opacity:0.0014062;stroke:#000000;stroke-width:0.189"
       id="circle1012"
       cx="5.8736672"
       cy="48.08614"
       r="1.75" />
    <circle
       style="display:inline;fill:#000000;fill-opacity:0.0014062;stroke:#000000;stroke-width:0.189"
       id="circle1014"
       cx="274.31534"
       cy="48.08614"
       r="1.75" />
    <circle
       style="display:inline;fill:#000000;fill-opacity:0.0014062;stroke:#000000;stroke-width:0.189"
       id="circle1016"
       cx="10.806443"
       cy="10.798424"
       r="1.75" />
    <circle
       style="display:inline;fill:#000000;fill-opacity:0.0014062;stroke:#000000;stroke-width:0.189"
       id="circle1018"
       cx="269.42313"
       cy="10.798653"
       r="1.75" />
    <circle
       style="display:inline;fill:#000000;fill-opacity:0.0014062;stroke:#000000;stroke-width:0.189"
       id="circle1020"
       cx="10.806664"
       cy="95.097878"
       r="1.75" />
    <circle
       style="display:inline;fill:#000000;fill-opacity:0.0014062;stroke:#000000;stroke-width:0.189"
       id="circle1022"
       cx="269.42334"
       cy="95.09803"
       r="1.75" />
    <circle
       style="display:inline;fill:#000000;fill-opacity:0.0014062;stroke:#000000;stroke-width:0.189"
       id="circle1024"
       cx="157.8358"
       cy="6.165091"
       r="1.75" />
    <circle
       style="display:inline;fill:#000000;fill-opacity:0.0014062;stroke:#000000;stroke-width:0.189"
       id="circle1026"
       cx="102.5985"
       cy="116.64563"
       r="1.75" />
    <circle
       style="display:inline;fill:#000000;fill-opacity:0.0014062;stroke:#000000;stroke-width:0.189"
       id="circle1028"
       cx="177.8365"
       cy="116.64563"
       r="1.75" />
  </g>
  <g
     inkscape:groupmode="layer"
     id="layer4"
     inkscape:label="closed"
     style="display:inline"
     sodipodi:insensitive="true">
    <path
       id="rect6305-4-4-3-79"
       style="display:inline;fill-opacity:0.0014062;stroke:#000000;stroke-width:0.189"
       d="m 20.09375,11.09375 c -2.515315,-0.01741 -5.011569,1.082993 -6.68771,2.959893 -1.539683,1.687897 -2.374163,3.981172 -2.31229,6.262397 10e-4,22.276079 -0.0021,44.552186 0.0016,66.828246 0.01875,1.750581 0.783839,3.442031 1.97708,4.706629 1.662007,1.778605 3.922642,2.862553 6.209143,3.60053 1.894406,0.613562 3.866026,0.917344 5.811,1.320879 38.303788,7.607146 76.607577,15.214286 114.911367,22.821426 39.40227,-7.81387 78.80512,-15.62487 118.20704,-23.440527 2.63296,-0.554761 5.26379,-1.424949 7.46026,-3.02082 1.5489,-1.123262 2.83772,-2.721817 3.25519,-4.620621 0.2454,-1.029724 0.14688,-2.09258 0.16735,-3.140359 -4.9e-4,-21.798161 9.8e-4,-43.59633 -7.3e-4,-65.394486 -0.0138,-2.575955 -1.20484,-5.114395 -3.18279,-6.765756 -1.6739,-1.428671 -3.88706,-2.182305 -6.08323,-2.117431 -79.91108,0 -159.82217,0 -239.733253,0 z"
       sodipodi:nodetypes="ssssscssss" />
    <circle
       style="display:inline;fill:#000000;fill-opacity:0.0014062;stroke:#000000;stroke-width:0.189"
       id="path1418-65-9-6-2"
       cx="122.59811"
       cy="6.1650929"
       r="1.75" />
    <circle
       style="display:inline;fill:#000000;fill-opacity:0.0014062;stroke:#000000;stroke-width:0.189"
       id="path1418-6-9-6-3-0-7-0"
       cx="5.8736672"
       cy="48.08614"
       r="1.75" />
    <circle
       style="display:inline;fill:#000000;fill-opacity:0.0014062;stroke:#000000;stroke-width:0.189"
       id="path1418-6-9-6-7-7-91-5-2"
       cx="274.31534"
       cy="48.08614"
       r="1.75" />
    <circle
       style="display:inline;fill:#000000;fill-opacity:0.0014062;stroke:#000000;stroke-width:0.189"
       id="path1418-6-5-5-7-3-3"
       cx="10.806443"
       cy="10.798424"
       r="1.75" />
    <circle
       style="display:inline;fill:#000000;fill-opacity:0.0014062;stroke:#000000;stroke-width:0.189"
       id="path1418-6-5-6-2-71-5-7"
       cx="269.42313"
       cy="10.798653"
       r="1.75" />
    <circle
       style="display:inline;fill:#000000;fill-opacity:0.0014062;stroke:#000000;stroke-width:0.189"
       id="path1418-6-5-5-0-1-6-5"
       cx="10.806664"
       cy="95.097878"
       r="1.75" />
    <circle
       style="display:inline;fill:#000000;fill-opacity:0.0014062;stroke:#000000;stroke-width:0.189"
       id="path1418-6-5-6-2-7-5-2-9"
       cx="269.42334"
       cy="95.09803"
       r="1.75" />
    <circle
       style="display:inline;fill:#000000;fill-opacity:0.0014062;stroke:#000000;stroke-width:0.189"
       id="path1418-3-4-9-9-2"
       cx="157.8358"
       cy="6.1650929"
       r="1.75" />
    <circle
       style="display:inline;fill:#000000;fill-opacity:0.0014062;stroke:#000000;stroke-width:0.189"
       id="path1418-65-8-7-1-2"
       cx="102.59851"
       cy="116.64563"
       r="1.75" />
    <circle
       style="display:inline;fill:#000000;fill-opacity:0.0014062;stroke:#000000;stroke-width:0.189"
       id="path1418-3-4-6-76-2-89"
       cx="177.8365"
       cy="116.64563"
       r="1.75" />
    <path
       id="rect6305-4-4-9"
       style="display:inline;fill-opacity:0.0014062;stroke:#000000;stroke-width:0.189"
       d="m 20.0945,0.0945 h 240 c 11.08,0 20,8.92 20,20 v 66.89925 c 0,11.08 -9.12644,17.87114 -20,20 0,0 -110.13305,23.80077 -120.0945,23.8125 -9.91768,0.0117 -119.9055,-23.8125 -119.9055,-23.8125 -10.867762,-2.15827 -20,-8.92 -20,-20 V 20.0945 c 0,-11.08 8.92,-20 20,-20 z"
       sodipodi:nodetypes="ssssssssss" />
  </g>
  <g
     inkscape:groupmode="layer"
     id="g2668"
     inkscape:label="open"
     style="display:inline"
     sodipodi:insensitive="true">
    <path
       id="rect6305-4-4-3-79-3"
       style="display:inline;fill:none;fill-opacity:0.0014062;stroke:#000000;stroke-width:0.189"
       d="M 150.11429,0.0945 H 260.0945 c 11.08,0 20,8.9199999 20,20 v 66.89925 c 0,11.079999 -9.12643,17.87114 -20,20 0,0 -110.13305,23.80077 -120.0945,23.8125 -9.91768,0.0117 -119.9055,-23.8125 -119.9055,-23.8125 -10.867762,-2.15827 -20,-8.920001 -20,-20 V 20.0945 c 0,-11.0800001 8.9199998,-20 20,-20 v 0 h 110.02 l -1e-5,10.99925 H 20.093777 20.09375 v 0 c -2.515315,-0.01741 -5.011569,1.082993 -6.68771,2.959893 -1.539683,1.687897 -2.374163,3.981172 -2.31229,6.262397 10e-4,22.276079 -0.0021,44.552186 0.0016,66.828245 0.01875,1.750581 0.783839,3.442031 1.97708,4.706628 1.662007,1.778606 3.922642,2.862553 6.209143,3.600532 1.894406,0.613561 3.866026,0.917342 5.811,1.320879 38.303786,7.607146 76.607577,15.214286 114.911367,22.821426 39.40226,-7.81387 78.80511,-15.62487 118.20703,-23.440527 2.63296,-0.554762 5.26379,-1.42495 7.46028,-3.020822 1.5489,-1.123262 2.83771,-2.721816 3.2552,-4.62062 0.24537,-1.029724 0.14687,-2.092579 0.16735,-3.140358 V 19.976937 c -0.0138,-2.575955 -1.20484,-5.114395 -3.18278,-6.765756 -1.67393,-1.428671 -3.88708,-2.182305 -6.08326,-2.117431 H 150.11431 Z"
       sodipodi:nodetypes="cssscscssscccccscccccccccccccccc" />
    <circle
       style="display:inline;fill:#000000;fill-opacity:0.0014062;stroke:#000000;stroke-width:0.189"
       id="path1418-65-9-6-2-1"
       cx="122.59811"
       cy="6.1650939"
       r="1.75" />
    <circle
       style="display:inline;fill:#000000;fill-opacity:0.0014062;stroke:#000000;stroke-width:0.189"
       id="path1418-6-9-6-3-0-7-0-9"
       cx="5.8736677"
       cy="48.08614"
       r="1.75" />
    <circle
       style="display:inline;fill:#000000;fill-opacity:0.0014062;stroke:#000000;stroke-width:0.189"
       id="path1418-6-9-6-7-7-91-5-2-4"
       cx="274.31534"
       cy="48.08614"
       r="1.75" />
    <circle
       style="display:inline;fill:#000000;fill-opacity:0.0014062;stroke:#000000;stroke-width:0.189"
       id="path1418-6-5-5-7-3-3-7"
       cx="10.806443"
       cy="10.798423"
       r="1.75" />
    <circle
       style="display:inline;fill:#000000;fill-opacity:0.0014062;stroke:#000000;stroke-width:0.189"
       id="path1418-6-5-6-2-71-5-7-8"
       cx="269.42313"
       cy="10.798652"
       r="1.75" />
    <circle
       style="display:inline;fill:#000000;fill-opacity:0.0014062;stroke:#000000;stroke-width:0.189"
       id="path1418-6-5-5-0-1-6-5-4"
       cx="10.806664"
       cy="95.097878"
       r="1.75" />
    <circle
       style="display:inline;fill:#000000;fill-opacity:0.0014062;stroke:#000000;stroke-width:0.189"
       id="path1418-6-5-6-2-7-5-2-9-5"
       cx="269.42334"
       cy="95.09803"
       r="1.75" />
    <circle
       style="display:inline;fill:#000000;fill-opacity:0.0014062;stroke:#000000;stroke-width:0.189"
       id="path1418-3-4-9-9-2-0"
       cx="157.8358"
       cy="6.1650939"
       r="1.75" />
    <circle
       style="display:inline;fill:#000000;fill-opacity:0.0014062;stroke:#000000;stroke-width:0.189"
       id="path1418-65-8-7-1-2-3"
       cx="102.59851"
       cy="116.64563"
       r="1.75" />
    <circle
       style="display:inline;fill:#000000;fill-opacity:0.0014062;stroke:#000000;stroke-width:0.189"
       id="path1418-3-4-6-76-2-89-6"
       cx="177.8365"
       cy="116.64563"
       r="1.75" />
  </g>
  <g
     inkscape:groupmode="layer"
     id="layer5"
     inkscape:label="plate"
     style="display:inline">
    <path
       id="rect6305-4-4-3-7"
       style="display:inline;fill-opacity:0.0014062;stroke:#000000;stroke-width:0.189;stroke-miterlimit:4;stroke-dasharray:none"
       d="m 20.0945,0.0945 h 240 c 11.08,0 20,8.920001 20,20 v 66.899255 c 0,11.07999 -9.12644,17.871135 -20,19.999995 0,0 -110.13305,23.80077 -120.0945,23.8125 -9.91768,0.0117 -119.9055,-23.8125 -119.9055,-23.8125 -10.867762,-2.15827 -20,-8.920005 -20,-19.999995 V 20.0945 c 0,-11.079999 8.92,-20 20,-20 z"
       sodipodi:nodetypes="ssssssssss" />
    <polygon
       points="133.608,113.711 133.804,112.73 134.588,112.886 135.164,109.993 134.379,109.837 135.54,104.001 136.324,104.157 136.9,101.264 136.115,101.108 136.31,100.127 122.727,97.425 122.531,98.406 121.747,98.25 121.171,101.143 121.956,101.299 120.795,107.135 120.011,106.978 119.435,109.872 120.22,110.028 120.025,111.009 "
       style="fill:none;stroke:#000000;stroke-width:0.05mm"
       id="polygon4"
       transform="translate(-3.4055118,0.03615486)" />
    <polygon
       points="167.581,110.951 167.386,109.971 168.171,109.815 167.595,106.921 166.811,107.077 165.65,101.242 166.434,101.086 165.859,98.192 165.074,98.348 164.879,97.367 151.295,100.069 151.49,101.05 150.706,101.206 151.281,104.1 152.066,103.944 153.227,109.779 152.442,109.935 153.018,112.829 153.802,112.673 153.997,113.653 "
       style="fill:none;stroke:#000000;stroke-width:0.05mm"
       id="polygon6"
       transform="translate(-3.9346785,0.03615486)" />
    <polygon
       points="110.253,109.065 110.449,108.084 111.233,108.24 111.809,105.347 111.024,105.191 112.185,99.355 112.97,99.511 113.545,96.618 112.76,96.462 112.955,95.481 99.372,92.779 99.177,93.76 98.392,93.604 97.816,96.497 98.601,96.653 97.44,102.489 96.656,102.333 96.08,105.226 96.865,105.382 96.67,106.363 "
       style="fill:none;stroke:#000000;stroke-width:0.05mm"
       id="polygon8"
       transform="translate(-3.4055118,0.03615486)" />
    <polygon
       points="190.936,106.306 190.741,105.325 191.526,105.169 190.95,102.276 190.166,102.432 189.005,96.596 189.789,96.44 189.214,93.547 188.429,93.703 188.234,92.722 174.65,95.424 174.845,96.405 174.061,96.561 174.636,99.454 175.421,99.298 176.582,105.134 175.797,105.29 176.373,108.183 177.157,108.027 177.352,109.008 "
       style="fill:none;stroke:#000000;stroke-width:0.189;stroke-miterlimit:4;stroke-dasharray:none"
       id="polygon10"
       transform="translate(-3.9346785,0.03615486)" />
    <polygon
       points="40.189,95.128 40.384,94.148 41.168,94.304 41.744,91.41 40.959,91.254 42.12,85.419 42.905,85.575 43.48,82.681 42.696,82.525 42.891,81.544 29.307,78.842 29.112,79.823 28.327,79.667 27.752,82.56 28.536,82.717 27.375,88.552 26.591,88.396 26.015,91.289 26.8,91.446 26.605,92.426 "
       style="fill:none;stroke:#000000;stroke-width:0.05mm"
       id="polygon12-1"
       transform="translate(-3.4055118,0.03615486)" />
    <polygon
       points="261,92.369 260.805,91.388 261.591,91.232 261.015,88.339 260.23,88.495 259.07,82.659 259.853,82.503 259.279,79.61 258.494,79.766 258.298,78.785 244.715,81.487 244.91,82.468 244.126,82.624 244.701,85.517 245.486,85.361 246.646,91.197 245.862,91.353 246.437,94.246 247.222,94.09 247.417,95.071 "
       style="fill:none;stroke:#000000;stroke-width:0.05mm"
       id="polygon14-2"
       transform="translate(-3.9346785,0.03615486)" />
    <polygon
       points="132.654,94.098 132.849,93.117 133.634,93.273 134.209,90.38 133.425,90.223 134.585,84.388 135.37,84.544 135.945,81.651 135.161,81.494 135.356,80.514 121.772,77.812 121.577,78.792 120.792,78.636 120.217,81.53 121.001,81.686 119.841,87.521 119.056,87.365 118.481,90.259 119.265,90.415 119.07,91.396 "
       style="fill:none;stroke:#000000;stroke-width:0.05mm"
       id="polygon16-9"
       transform="translate(-3.4055118,0.03615486)" />
    <polygon
       points="168.536,91.338 168.341,90.358 169.125,90.201 168.55,87.308 167.765,87.464 166.604,81.629 167.389,81.472 166.813,78.579 166.029,78.735 165.834,77.754 152.25,80.456 152.445,81.437 151.66,81.593 152.236,84.487 153.02,84.331 154.181,90.166 153.397,90.322 153.972,93.216 154.757,93.06 154.952,94.04 "
       style="fill:none;stroke:#000000;stroke-width:0.05mm"
       id="polygon18-3"
       transform="translate(-3.9346785,0.03615486)" />
    <polygon
       points="113.97,90.381 114.165,89.4 114.95,89.556 115.525,86.663 114.741,86.507 115.901,80.671 116.686,80.827 117.262,77.934 116.477,77.778 116.672,76.797 103.088,74.095 102.893,75.076 102.108,74.92 101.533,77.813 102.317,77.969 101.157,83.805 100.372,83.649 99.797,86.542 100.581,86.698 100.386,87.679 "
       style="fill:none;stroke:#000000;stroke-width:0.05mm"
       id="polygon20-1"
       transform="translate(-3.4055118,0.03615486)" />
    <polygon
       points="187.22,87.622 187.025,86.641 187.809,86.485 187.234,83.592 186.449,83.748 185.288,77.912 186.073,77.756 185.497,74.863 184.713,75.019 184.518,74.038 170.934,76.74 171.129,77.721 170.344,77.877 170.92,80.77 171.704,80.614 172.865,86.45 172.081,86.606 172.656,89.499 173.441,89.343 173.636,90.324 "
       style="fill:none;stroke:#000000;stroke-width:0.05mm"
       id="polygon22-9"
       transform="translate(-3.9346785,0.03615486)" />
    <polygon
       points="95.286,86.665 95.481,85.684 96.266,85.84 96.841,82.947 96.057,82.791 97.217,76.955 98.002,77.111 98.578,74.218 97.793,74.062 97.988,73.081 84.404,70.379 84.209,71.36 83.424,71.203 82.849,74.097 83.634,74.253 82.473,80.089 81.688,79.932 81.113,82.826 81.897,82.982 81.702,83.963 "
       style="fill:none;stroke:#000000;stroke-width:0.05mm"
       id="polygon24-4"
       transform="translate(-3.4055118,0.03615486)" />
    <polygon
       points="205.904,83.905 205.709,82.925 206.493,82.768 205.918,79.875 205.133,80.031 203.972,74.196 204.757,74.04 204.181,71.146 203.397,71.302 203.202,70.321 189.618,73.023 189.813,74.004 189.028,74.16 189.604,77.054 190.388,76.898 191.549,82.733 190.765,82.889 191.34,85.783 192.125,85.627 192.32,86.607 "
       style="fill:none;stroke:#000000;stroke-width:0.05mm"
       id="polygon26-7"
       transform="translate(-3.9346785,0.03615486)" />
    <polygon
       points="76.602,82.948 76.797,81.967 77.582,82.123 78.157,79.23 77.373,79.074 78.533,73.238 79.318,73.394 79.894,70.501 79.109,70.345 79.304,69.364 65.72,66.662 65.525,67.643 64.739,67.487 64.165,70.38 64.95,70.536 63.789,76.372 63.004,76.216 62.429,79.109 63.213,79.265 63.018,80.246 "
       style="fill:none;stroke:#000000;stroke-width:0.05mm"
       id="polygon28-8"
       transform="translate(-3.4055118,0.03615486)" />
    <polygon
       points="224.588,80.189 224.392,79.208 225.177,79.052 224.602,76.159 223.817,76.315 222.656,70.479 223.441,70.323 222.865,67.43 222.081,67.586 221.886,66.605 208.302,69.307 208.497,70.288 207.712,70.444 208.288,73.337 209.072,73.181 210.233,79.017 209.448,79.173 210.024,82.066 210.809,81.91 211.004,82.891 "
       style="fill:none;stroke:#000000;stroke-width:0.05mm"
       id="polygon30-4"
       transform="translate(-3.9346785,0.03615486)" />
    <polygon
       points="57.918,79.232 58.113,78.251 58.898,78.407 59.473,75.514 58.689,75.358 59.849,69.522 60.634,69.678 61.21,66.785 60.425,66.629 60.62,65.648 47.036,62.946 46.841,63.927 46.056,63.771 45.481,66.664 46.266,66.82 45.105,72.656 44.32,72.5 43.745,75.393 44.529,75.549 44.334,76.53 "
       style="fill:none;stroke:#000000;stroke-width:0.05mm"
       id="polygon32-5"
       transform="translate(-3.4055118,0.03615486)" />
    <polygon
       points="243.272,76.472 243.076,75.492 243.861,75.336 243.286,72.442 242.501,72.598 241.34,66.763 242.125,66.607 241.549,63.713 240.765,63.869 240.57,62.889 226.986,65.591 227.181,66.571 226.396,66.727 226.972,69.621 227.756,69.465 228.917,75.3 228.132,75.456 228.708,78.35 229.493,78.194 229.688,79.174 "
       style="fill:none;stroke:#000000;stroke-width:0.05mm"
       id="polygon34-0"
       transform="translate(-3.9346785,0.03615486)" />
    <polygon
       points="261.954,72.756 261.76,71.775 262.545,71.619 261.97,68.726 261.185,68.882 260.024,63.046 260.809,62.89 260.233,59.997 259.449,60.153 259.253,59.172 245.67,61.874 245.865,62.855 245.08,63.011 245.656,65.904 246.44,65.748 247.601,71.584 246.816,71.74 247.392,74.633 248.177,74.477 248.372,75.458 "
       style="fill:none;stroke:#000000;stroke-width:0.05mm"
       id="polygon36-3"
       transform="translate(-3.9346785,0.03615486)" />
    <polygon
       points="36.899,75.051 37.094,74.07 37.878,74.226 38.454,71.333 37.669,71.177 38.83,65.34 39.615,65.497 40.19,62.604 39.406,62.448 39.601,61.467 26.017,58.765 25.822,59.746 25.037,59.59 24.462,62.483 25.246,62.639 24.085,68.475 23.301,68.319 22.725,71.212 23.51,71.368 23.315,72.349 "
       style="fill:none;stroke:#000000;stroke-width:0.05mm"
       id="polygon38-6"
       transform="translate(-3.4055118,0.03615486)" />
    <polygon
       points="127.028,73.555 127.224,72.575 128.008,72.731 128.584,69.837 127.799,69.681 128.96,63.846 129.744,64.001 130.32,61.108 129.535,60.952 129.729,59.972 116.147,57.27 115.951,58.25 115.167,58.094 114.591,60.988 115.376,61.144 114.215,66.979 113.431,66.823 112.855,69.717 113.64,69.873 113.445,70.853 "
       style="fill:none;stroke:#000000;stroke-width:0.05mm"
       id="polygon40-1"
       transform="translate(-3.4055118,0.03615486)" />
    <polygon
       points="174.161,70.796 173.966,69.815 174.751,69.659 174.175,66.766 173.391,66.922 172.23,61.086 173.014,60.93 172.439,58.037 171.654,58.193 171.459,57.212 157.875,59.914 158.07,60.895 157.286,61.051 157.861,63.944 158.646,63.788 159.807,69.624 159.022,69.78 159.598,72.673 160.382,72.517 160.577,73.498 "
       style="fill:none;stroke:#000000;stroke-width:0.05mm"
       id="polygon42-0"
       transform="translate(-3.9346785,0.03615486)" />
    <polygon
       points="108.344,69.839 108.54,68.858 109.324,69.014 109.9,66.121 109.115,65.965 110.276,60.129 111.06,60.285 111.636,57.392 110.851,57.236 111.046,56.255 97.463,53.553 97.267,54.534 96.483,54.378 95.907,57.271 96.692,57.427 95.531,63.263 94.747,63.107 94.171,66 94.956,66.156 94.761,67.137 "
       style="fill:none;stroke:#000000;stroke-width:0.05mm"
       id="polygon44-6"
       transform="translate(-3.4055118,0.03615486)" />
    <polygon
       points="192.845,67.08 192.65,66.099 193.435,65.943 192.859,63.049 192.075,63.206 190.914,57.37 191.698,57.214 191.123,54.32 190.338,54.477 190.143,53.496 176.559,56.198 176.754,57.179 175.97,57.335 176.545,60.228 177.33,60.072 178.491,65.908 177.706,66.064 178.282,68.957 179.066,68.801 179.261,69.782 "
       style="fill:none;stroke:#000000;stroke-width:0.05mm"
       id="polygon46-3"
       transform="translate(-3.9346785,0.03615486)" />
    <polygon
       points="89.66,66.122 89.856,65.141 90.64,65.298 91.216,62.404 90.431,62.248 91.592,56.413 92.377,56.569 92.952,53.675 92.167,53.519 92.362,52.539 78.779,49.837 78.584,50.817 77.799,50.661 77.223,53.555 78.008,53.711 76.847,59.546 76.063,59.39 75.487,62.284 76.272,62.44 76.077,63.42 "
       style="fill:none;stroke:#000000;stroke-width:0.05mm"
       id="polygon48-2"
       transform="translate(-3.4055118,0.03615486)" />
    <polygon
       points="211.529,63.363 211.334,62.382 212.119,62.226 211.543,59.333 210.759,59.489 209.598,53.653 210.382,53.497 209.807,50.604 209.022,50.76 208.827,49.779 195.243,52.481 195.438,53.462 194.654,53.618 195.229,56.511 196.014,56.355 197.175,62.191 196.39,62.347 196.966,65.239 197.75,65.084 197.945,66.065 "
       style="fill:none;stroke:#000000;stroke-width:0.05mm"
       id="polygon50-0"
       transform="translate(-3.9346785,0.03615486)" />
    <polygon
       points="70.977,62.406 71.172,61.425 71.956,61.581 72.532,58.688 71.747,58.532 72.908,52.696 73.693,52.852 74.268,49.959 73.483,49.803 73.679,48.822 60.095,46.12 59.9,47.101 59.115,46.945 58.539,49.838 59.324,49.994 58.163,55.83 57.379,55.674 56.803,58.567 57.588,58.723 57.393,59.704 "
       style="fill:none;stroke:#000000;stroke-width:0.05mm"
       id="polygon52-6"
       transform="translate(-3.4055118,0.03615486)" />
    <polygon
       points="230.213,59.647 230.018,58.666 230.803,58.51 230.227,55.617 229.442,55.773 228.282,49.937 229.066,49.781 228.491,46.888 227.706,47.044 227.511,46.063 213.927,48.765 214.122,49.746 213.338,49.902 213.913,52.795 214.698,52.639 215.859,58.475 215.074,58.631 215.649,61.524 216.434,61.368 216.629,62.349 "
       style="fill:none;stroke:#000000;stroke-width:0.05mm"
       id="polygon54-1"
       transform="translate(-3.9346785,0.03615486)" />
    <polygon
       points="52.293,58.69 52.488,57.709 53.272,57.865 53.848,54.971 53.063,54.815 54.224,48.98 55.009,49.136 55.584,46.242 54.799,46.086 54.995,45.106 41.411,42.404 41.216,43.384 40.431,43.228 39.855,46.122 40.64,46.278 39.479,52.113 38.695,51.957 38.119,54.851 38.904,55.007 38.709,55.988 "
       style="fill:none;stroke:#000000;stroke-width:0.05mm"
       id="polygon56"
       transform="translate(-3.4055118,0.03615486)" />
    <polygon
       points="248.897,55.93 248.702,54.949 249.487,54.793 248.911,51.9 248.126,52.056 246.966,46.22 247.75,46.064 247.175,43.171 246.39,43.327 246.195,42.346 232.611,45.048 232.806,46.029 232.022,46.185 232.597,49.079 233.382,48.922 234.543,54.758 233.758,54.914 234.333,57.808 235.118,57.651 235.313,58.632 "
       style="fill:none;stroke:#000000;stroke-width:0.05mm"
       id="polygon58"
       transform="translate(-3.9346785,0.03615486)" />
    <polygon
       points="165.774,53.041 165.579,52.06 166.363,51.904 165.788,49.011 165.003,49.167 163.842,43.331 164.627,43.175 164.051,40.282 163.267,40.438 163.072,39.457 149.488,42.159 149.683,43.14 148.898,43.296 149.474,46.19 150.258,46.033 151.419,51.869 150.635,52.025 151.21,54.919 151.995,54.762 152.19,55.743 "
       style="fill:none;stroke:#000000;stroke-width:0.05mm"
       id="polygon60-5"
       transform="translate(-3.9346785,0.03615486)" />
    <polygon
       points="33.609,54.973 33.804,53.992 34.588,54.148 35.164,51.255 34.379,51.099 35.54,45.263 36.325,45.419 36.9,42.526 36.116,42.37 36.311,41.389 22.727,38.687 22.532,39.668 21.747,39.512 21.172,42.405 21.956,42.561 20.795,48.397 20.011,48.241 19.435,51.134 20.22,51.29 20.025,52.271 "
       style="fill:none;stroke:#000000;stroke-width:0.05mm"
       id="polygon62-5"
       transform="translate(-3.4055118,0.03615486)" />
    <polygon
       points="267.581,52.214 267.386,51.233 268.171,51.077 267.595,48.184 266.81,48.34 265.65,42.504 266.434,42.348 265.859,39.455 265.074,39.611 264.879,38.63 251.295,41.332 251.49,42.313 250.706,42.469 251.281,45.362 252.066,45.206 253.227,51.042 252.442,51.198 253.017,54.091 253.802,53.935 253.997,54.916 "
       style="fill:none;stroke:#000000;stroke-width:0.05mm"
       id="polygon64-4"
       transform="translate(-3.9346785,0.03615486)" />
    <polygon
       points="126.074,53.942 126.269,52.962 127.054,53.118 127.629,50.224 126.845,50.068 128.005,44.233 128.788,44.389 129.365,41.495 128.58,41.339 128.776,40.358 115.192,37.656 114.997,38.637 114.212,38.481 113.637,41.374 114.421,41.531 113.261,47.366 112.476,47.21 111.9,50.103 112.685,50.26 112.49,51.24 "
       style="fill:none;stroke:#000000;stroke-width:0.05mm"
       id="polygon66-7"
       transform="translate(-3.4055118,0.03615486)" />
    <polygon
       points="184.458,49.325 184.263,48.344 185.047,48.188 184.472,45.295 183.687,45.451 182.526,39.615 183.311,39.459 182.735,36.566 181.951,36.722 181.756,35.741 168.172,38.443 168.367,39.424 167.582,39.58 168.158,42.473 168.942,42.317 170.103,48.153 169.319,48.309 169.894,51.202 170.679,51.046 170.874,52.027 "
       style="fill:none;stroke:#000000;stroke-width:0.05mm"
       id="polygon68-6"
       transform="translate(-3.9346785,0.03615486)" />
    <polygon
       points="107.39,50.226 107.585,49.245 108.37,49.401 108.945,46.508 108.161,46.352 109.321,40.516 110.106,40.672 110.681,37.779 109.897,37.623 110.092,36.642 96.508,33.94 96.313,34.921 95.528,34.765 94.953,37.658 95.737,37.814 94.577,43.65 93.792,43.494 93.217,46.387 94.001,46.543 93.806,47.524 "
       style="fill:none;stroke:#000000;stroke-width:0.05mm"
       id="polygon70-5"
       transform="translate(-3.4055118,0.03615486)" />
    <polygon
       points="203.142,45.608 202.947,44.628 203.731,44.471 203.156,41.578 202.371,41.734 201.21,35.899 201.995,35.742 201.419,32.849 200.635,33.005 200.44,32.024 186.856,34.726 187.051,35.707 186.266,35.863 186.842,38.757 187.626,38.601 188.787,44.436 188.003,44.592 188.578,47.486 189.363,47.33 189.558,48.31 "
       style="fill:none;stroke:#000000;stroke-width:0.05mm"
       id="polygon72-6"
       transform="translate(-3.9346785,0.03615486)" />
    <polygon
       points="88.706,46.509 88.901,45.529 89.686,45.685 90.261,42.791 89.477,42.635 90.637,36.8 91.422,36.956 91.998,34.062 91.213,33.906 91.408,32.925 77.824,30.223 77.629,31.204 76.844,31.048 76.269,33.942 77.053,34.098 75.893,39.933 75.108,39.777 74.533,42.671 75.317,42.827 75.122,43.807 "
       style="fill:none;stroke:#000000;stroke-width:0.05mm"
       id="polygon74-9"
       transform="translate(-3.4055118,0.03615486)" />
    <polygon
       points="221.826,41.892 221.631,40.911 222.415,40.755 221.84,37.862 221.055,38.018 219.894,32.182 220.679,32.026 220.103,29.133 219.319,29.289 219.124,28.308 205.54,31.01 205.735,31.991 204.95,32.147 205.526,35.04 206.31,34.884 207.471,40.72 206.687,40.876 207.262,43.769 208.047,43.613 208.242,44.594 "
       style="fill:none;stroke:#000000;stroke-width:0.05mm"
       id="polygon76-3"
       transform="translate(-3.9346785,0.03615486)" />
    <polygon
       points="70.022,42.793 70.217,41.812 71.002,41.968 71.577,39.075 70.793,38.919 71.953,33.083 72.738,33.239 73.314,30.346 72.529,30.19 72.724,29.209 59.14,26.507 58.945,27.488 58.16,27.332 57.585,30.225 58.37,30.381 57.209,36.217 56.424,36.061 55.849,38.954 56.633,39.11 56.438,40.091 "
       style="fill:none;stroke:#000000;stroke-width:0.05mm"
       id="polygon78-7"
       transform="translate(-3.4055118,0.03615486)" />
    <polygon
       points="240.51,38.175 240.314,37.195 241.099,37.039 240.524,34.145 239.739,34.301 238.578,28.466 239.363,28.31 238.787,25.416 238.003,25.572 237.808,24.591 224.224,27.293 224.419,28.274 223.634,28.43 224.21,31.324 224.994,31.168 226.155,37.003 225.37,37.159 225.946,40.053 226.731,39.897 226.926,40.877 "
       style="fill:none;stroke:#000000;stroke-width:0.05mm"
       id="polygon80-4"
       transform="translate(-3.9346785,0.03615486)" />
    <polygon
       points="51.338,39.076 51.533,38.096 52.318,38.252 52.893,35.358 52.109,35.202 53.269,29.367 54.054,29.523 54.63,26.629 53.845,26.473 54.04,25.493 40.456,22.791 40.261,23.771 39.476,23.615 38.901,26.509 39.686,26.665 38.525,32.5 37.74,32.344 37.165,35.238 37.949,35.394 37.754,36.374 "
       style="fill:none;stroke:#000000;stroke-width:0.05mm"
       id="polygon82-5"
       transform="translate(-3.4055118,0.03615486)" />
    <polygon
       points="263.865,33.53 263.669,32.549 264.454,32.393 263.879,29.5 263.094,29.656 261.933,23.82 262.718,23.664 262.142,20.771 261.358,20.927 261.163,19.946 247.579,22.648 247.774,23.629 246.989,23.785 247.565,26.678 248.349,26.522 249.51,32.357 248.725,32.514 249.301,35.407 250.086,35.251 250.281,36.232 "
       style="fill:none;stroke:#000000;stroke-width:0.05mm"
       id="polygon84-2"
       transform="translate(-3.9346785,0.03615486)" />
    <polygon
       points="32.654,35.36 32.849,34.379 33.634,34.535 34.209,31.642 33.425,31.486 34.585,25.65 35.37,25.806 35.946,22.913 35.161,22.757 35.356,21.776 21.772,19.074 21.577,20.055 20.793,19.899 20.217,22.792 21.002,22.948 19.841,28.784 19.056,28.628 18.481,31.521 19.265,31.677 19.07,32.658 "
       style="fill:none;stroke:#000000;stroke-width:0.05mm"
       id="polygon86-5"
       transform="translate(-3.4055118,0.03615486)" />
    <circle
       style="display:inline;fill:#000000;fill-opacity:0.0014062;stroke:#000000;stroke-width:0.188952;stroke-miterlimit:4;stroke-dasharray:none"
       id="path1418-65-9-3-6-7-5"
       cx="125"
       cy="31.0945"
       r="1.0000238" />
    <ellipse
       style="display:inline;fill:#000000;fill-opacity:0.0014062;stroke:#000000;stroke-width:0.188952;stroke-miterlimit:4;stroke-dasharray:none"
       id="path1418-65-9-3-6-7-5-3"
       cx="125"
       cy="16.0945"
       rx="1.000024"
       ry="1.0000238" />
    <ellipse
       style="display:inline;fill:#000000;fill-opacity:0.0014062;stroke:#000000;stroke-width:0.188952;stroke-miterlimit:4;stroke-dasharray:none"
       id="path1418-65-9-3-6-7-5-3-5"
       cx="155"
       cy="16.0945"
       rx="1.000024"
       ry="1.0000238" />
    <ellipse
       style="display:inline;fill:#000000;fill-opacity:0.0014062;stroke:#000000;stroke-width:0.188952;stroke-miterlimit:4;stroke-dasharray:none"
       id="path1418-65-9-3-6-7-5-3-5-6"
       cx="155"
       cy="31.0945"
       rx="1.000024"
       ry="1.0000238" />
    <circle
       style="display:inline;fill:#000000;fill-opacity:0.0014062;stroke:#000000;stroke-width:0.189"
       id="path1418-65-9-6-0"
       cx="122.59811"
       cy="6.1650901"
       r="1.75" />
    <circle
       style="display:inline;fill:#000000;fill-opacity:0.0014062;stroke:#000000;stroke-width:0.189"
       id="path1418-6-9-6-3-0-7-9"
       cx="5.8736677"
       cy="48.08614"
       r="1.75" />
    <circle
       style="display:inline;fill:#000000;fill-opacity:0.0014062;stroke:#000000;stroke-width:0.189"
       id="path1418-6-9-6-7-7-91-5-3"
       cx="274.31534"
       cy="48.08614"
       r="1.75" />
    <circle
       style="display:inline;fill:#000000;fill-opacity:0.0014062;stroke:#000000;stroke-width:0.189"
       id="path1418-6-5-5-7-3-6"
       cx="10.806441"
       cy="10.798426"
       r="1.75" />
    <circle
       style="display:inline;fill:#000000;fill-opacity:0.0014062;stroke:#000000;stroke-width:0.189"
       id="path1418-6-5-6-2-71-5-0"
       cx="269.42313"
       cy="10.798655"
       r="1.75" />
    <circle
       style="display:inline;fill:#000000;fill-opacity:0.0014062;stroke:#000000;stroke-width:0.189"
       id="path1418-6-5-5-0-1-6-6"
       cx="10.806663"
       cy="95.097878"
       r="1.75" />
    <circle
       style="display:inline;fill:#000000;fill-opacity:0.0014062;stroke:#000000;stroke-width:0.189"
       id="path1418-6-5-6-2-7-5-2-2"
       cx="269.42334"
       cy="95.09803"
       r="1.75" />
    <circle
       style="display:inline;fill:#000000;fill-opacity:0.0014062;stroke:#000000;stroke-width:0.189"
       id="path1418-3-4-9-9-6"
       cx="157.8358"
       cy="6.1650901"
       r="1.75" />
    <circle
       style="display:inline;fill:#000000;fill-opacity:0.0014062;stroke:#000000;stroke-width:0.189"
       id="path1418-65-8-7-1-1"
       cx="102.5985"
       cy="116.64563"
       r="1.75" />
    <circle
       style="display:inline;fill:#000000;fill-opacity:0.0014062;stroke:#000000;stroke-width:0.189"
       id="path1418-3-4-6-76-2-8"
       cx="177.8365"
       cy="116.64563"
       r="1.75" />
    <path
       style="fill:none;stroke:#000000;stroke-width:0.189;stroke-linecap:butt;stroke-linejoin:miter;stroke-miterlimit:4;stroke-dasharray:none;stroke-opacity:1"
       d="m 197.755,105.6777 c -0.0443,-0.10114 -0.0802,-0.20782 -0.11911,-0.30946 -0.0604,-0.15772 -0.12763,-0.30345 -0.18587,-0.46167 -0.0875,-0.23774 -0.0624,-0.51862 -0.15358,-0.7549 -0.0717,-0.18572 -0.24979,-0.82773 -0.2335,-1.00711 0.003,-0.0385 -0.0211,-0.11749 -0.0162,-0.15584 0.0125,-0.0982 0.006,-0.17394 -5.5e-4,-0.27323 -0.008,-0.11541 -0.0109,-0.2374 -0.0148,-0.34884 -0.008,-0.22172 -0.0956,-0.46972 -0.13983,-0.6873 -0.0343,-0.14537 -0.10272,-0.50977 -0.18054,-1.16724 -0.0212,-0.19234 -0.0942,-0.37887 -0.1162,-0.571133 -0.0467,-0.408713 -0.13062,-0.809477 -0.18706,-1.217192 -0.0516,-0.372758 -0.0599,-0.755322 -0.085,-1.127424 -0.003,-0.0827 -0.0435,-0.160314 -0.0494,-0.242647 -0.0306,-0.09629 0.0198,-0.190286 0.0144,-0.285379 -0.007,-0.127442 -0.04,-0.25594 -0.0495,-0.383286 -0.0237,-0.31482 0.0365,-0.656299 0.0698,-0.968407 0.0212,-0.198612 -0.004,-0.415171 0.0461,-0.6101 0.0492,-0.189651 0.0662,-0.369171 0.0868,-0.565203 0.0227,-0.215112 0.10023,-0.423029 0.13298,-0.63667 0.0138,-0.09023 -8e-4,-0.1837 0.0164,-0.27337 0.0276,-0.144756 0.0933,-0.288155 0.11654,-0.436332 0.0609,-0.389128 0.14734,-0.80268 0.29393,-1.170871 0.19984,-0.501904 0.38678,-0.749422 0.84796,-1.032341 0.19457,-0.119364 0.37117,-0.26693 0.57848,-0.360828 0.2737,-0.123968 0.71488,-0.200263 1.01241,-0.274638 0.12179,-0.03044 0.24815,-0.04126 0.36904,-0.07508 0.39106,-0.06173 0.57989,-0.06925 1.04383,0.01117 0.26529,0.07395 1.27786,0.549095 1.46883,0.744218 0.0402,0.04103 0.0587,0.100298 0.0996,0.140499 0.13571,0.133085 0.30111,0.226898 0.43025,0.376533 0.35071,0.406371 0.7048,0.835065 1.13357,1.162214 0.084,0.06413 0.18704,0.0999 0.27295,0.161521 0.0598,0.04287 0.0987,0.112202 0.16165,0.15019 0.0452,0.02724 0.10334,0.02241 0.15316,0.03969 0.14076,0.04884 0.28359,0.118173 0.43309,0.14469 0.56522,0.100255 1.21128,-0.03728 1.76258,-0.149445 0.16019,-0.03259 0.32933,-0.03574 0.48057,-0.09777 0.0932,-0.03825 0.19657,-0.09289 0.28785,-0.135597 0.49719,-0.232604 0.0715,-0.01662 0.4714,-0.193516 0.37176,-0.164457 1.43163,-0.883946 1.65404,-1.201851 0.20456,-0.292394 0.23682,-0.684879 0.38311,-1.00421 0.16912,-0.369176 0.38111,-0.73855 0.60981,-1.066591 0.0737,-0.105786 0.0782,-0.180441 0.18473,-0.277379 0.44228,-0.40251 1.49989,-0.982138 2.03257,-1.205126 0.11552,-0.04836 0.24401,-0.06029 0.35997,-0.107583 0.51111,-0.20846 0.0473,-0.09939 0.4829,-0.224057 0.14483,-0.04145 0.38788,-0.115094 0.53626,-0.109103 0.0767,0.0031 0.14755,0.04409 0.22339,0.05604 0.16726,0.02635 0.33992,0.0059 0.50677,0.03466 0.44674,0.07704 1.0871,0.306313 1.46847,0.556133 0.0564,0.03693 0.097,0.09458 0.15272,0.132535 0.0422,0.02873 0.0987,0.03342 0.13823,0.06571 0.0555,0.04536 0.0899,0.112115 0.14093,0.162425 0.3189,0.314243 0.63126,0.666943 0.96785,0.962041 0.0466,0.0409 0.11206,0.05832 0.15495,0.103164 0.10602,0.110865 0.17471,0.276085 0.2928,0.381235 0.36944,0.328983 0.90818,0.529894 1.37952,0.630621 0.33424,0.07143 0.6342,0.06535 0.97876,0.03177 0.14029,-0.01368 0.28589,0.01699 0.42597,0.0058 0.21217,-0.01696 0.42738,-0.07198 0.63519,-0.07267 0.14532,-5.29e-4 0.31747,-0.06459 0.45933,-0.09345 0.30555,-0.06217 0.61111,-0.124333 0.91666,-0.186497 0.14779,-0.03007 1.17776,-0.201501 1.24219,-0.252727 0.0205,-0.0163 0.31034,-0.09456 0.33264,-0.108209 0.11263,-0.0688 0.89386,-0.198284 1.07771,-0.235932 0.10672,-0.02185 0.61955,-0.178831 0.80314,-0.127209 0.0281,0.0079 0.12883,-0.0095 0.15583,0.0016 0.14109,0.05785 0.57133,-0.02193 0.7312,0.0062 0.17688,0.03113 0.3622,0.04314 0.54221,0.0425 0.1242,-5.3e-4 0.0702,0.02625 0.18858,0.05967 0.0943,0.02663 0.18368,5.29e-4 0.27536,1.32e-4 0.01,-4.8e-5 0.12346,0.03575 0.12755,0.03657 0.15891,0.03197 0.32502,0.02072 0.48305,0.04332 0.11028,0.01579 0.21388,0.07307 0.32507,0.08963 0.0733,0.01093 0.14886,-2.65e-4 0.22213,0.01095 0.32083,0.04939 0.63578,0.196958 0.95254,0.275971 0.32512,0.0811 0.70344,0.130124 1.00882,0.271036 0.10784,0.04976 0.20222,0.127685 0.31336,0.169558 0.0584,0.02201 0.12633,0.0016 0.18641,0.01873 0.22024,0.0625 0.4339,0.221856 0.64422,0.314545 0.14632,0.06448 0.33174,0.110384 0.46947,0.186912 0.27306,0.15172 0.60941,0.564724 0.82509,0.789127 0.14229,0.148051 0.32595,0.25622 0.4528,0.417701 0.0733,0.09337 0.12469,0.202279 0.19336,0.299132 0.44077,0.621652 0.96792,1.170599 1.2999,1.859521 0.0932,0.193461 0.24462,0.364667 0.32562,0.564277 0.13871,0.341834 0.28184,0.700524 0.37776,1.057614 0.10665,0.397012 0.11895,0.925994 0.26403,1.297712 0.0682,0.174773 0.12991,0.337331 0.18982,0.513937 0.0935,0.275768 0.0835,0.586426 0.17552,0.862743 0.0904,0.271423 0.14065,0.553321 0.1981,0.835684"
       id="path16814"
       sodipodi:nodetypes="cssscccccccsccccsccsccssssccscssssssssssssssssssssssscsssssssssscsssscsscsscssscsssssssssssc" />
    <path
       style="fill:none;stroke:#000000;stroke-width:0.189;stroke-linecap:butt;stroke-linejoin:miter;stroke-miterlimit:4;stroke-dasharray:none;stroke-opacity:1"
       d="m 198.55963,92.958255 c 0.11711,0.949319 0.55749,1.737241 1.6401,1.515776 0.0767,-0.01569 0.32915,-0.0241 0.38119,-0.07798 0.36024,-0.372832 0.39529,-1.001619 0.47982,-1.457258"
       id="path18458" />
    <path
       style="fill:none;stroke:#000000;stroke-width:0.189;stroke-linecap:butt;stroke-linejoin:miter;stroke-miterlimit:4;stroke-dasharray:none;stroke-opacity:1"
       d="m 212.73765,90.03512 c -0.15285,1.885296 2.58912,1.916744 2.20059,0.01744"
       id="path18460" />
    <path
       style="fill:none;stroke:#000000;stroke-width:0.189;stroke-linecap:butt;stroke-linejoin:miter;stroke-miterlimit:4;stroke-dasharray:none;stroke-opacity:1"
       d="m 205.55067,96.485619 c -0.16928,0.213664 -0.47389,0.604271 -0.29279,0.905325 0.32584,0.541689 1.28618,0.826759 1.87348,0.706617 0.31629,-0.0647 0.76182,-0.560485 0.84227,-0.888143 0.0306,-0.124661 0.0742,-0.308768 0.0483,-0.435702 -0.005,-0.02545 -0.0209,-0.09784 -0.004,-0.07777 0.18317,0.22316 0.34908,0.508704 0.56513,0.701403 0.32313,0.288192 1.34107,0.41122 1.73132,0.238355 0.59388,-0.263068 0.36555,-1.3178 -0.0581,-1.599407"
       id="path18480" />
  </g>
  <g
     inkscape:groupmode="layer"
     id="layer6"
     inkscape:label="top"
     style="display:inline"
     sodipodi:insensitive="true">
    <path
       id="rect6305-4-4"
       style="display:inline;fill-opacity:0.0014062;stroke:#000000;stroke-width:0.189"
       d="m 20.0945,0.0945 h 240 c 11.08,0 20,8.92 20,20 v 66.89925 c 0,11.08 -9.12644,17.87114 -20,20 0,0 -110.13305,23.80077 -120.0945,23.8125 -9.91768,0.0117 -119.9055,-23.8125 -119.9055,-23.8125 -10.8677621,-2.15827 -20,-8.92 -20,-20 V 20.0945 c 0,-11.08 8.92,-20 20,-20 z"
       inkscape:original-d="m 20.0945,0.0945 h 240 c 11.08,0 20,8.92 20,20 v 66.89925 c 0,11.08 -9.12644,17.87114 -20,20 0,0 -110.13305,23.80077 -120.0945,23.8125 -9.91768,0.0117 -119.9055,-23.8125 -119.9055,-23.8125 -10.8677621,-2.15827 -20,-8.92 -20,-20 V 20.0945 c 0,-11.08 8.92,-20 20,-20 z"
       sodipodi:nodetypes="ssssssssss" />
    <path
       id="polygon4-7"
       style="fill:none;stroke:#000000;stroke-width:0.05mm"
       d="m 15.539062,14.875 -4.107421,20.648438 4.669921,0.929687 -3.716796,18.683594 4.671875,0.927734 -3.716797,18.685547 9.341797,1.857422 -3.716797,18.683594 20.646484,4.107422 3.716797,-18.683594 31.716797,6.308594 13.03125,2.591796 -3.716797,18.683596 30.203125,6.00976 v -0.002 l 18.46875,3.67383 4.10742,-20.646486 -4.66992,-0.929687 3.71484,-18.683594 -9.34179,-1.857422 3.71679,-18.683593 -4.67187,-0.929688 3.7168,-18.683594 z"
       inkscape:path-effect="#path-effect2517"
       inkscape:original-d="m 18.232488,55.280155 -3.717,18.684 9.342,1.858 -3.717,18.684 18.686,3.717 3.717,-18.685 32.697,6.505 v -0.001 l 14.011,2.787 -3.717,18.684995 28.028002,5.575 v -0.001 l 18.684,3.717 3.717,-18.685995 -4.671,-0.929 3.716,-18.684 -9.342,-1.858 3.717,-18.684 -4.673,-0.929 3.718,-18.684 -112.105002,-22.3 -3.717,18.687 4.671,0.929 -3.717,18.684 z" />
    <path
       id="polygon6-4"
       style="fill:none;stroke:#000000;stroke-width:0.05mm"
       d="m 264.72656,14.818359 -85.05664,16.919922 -38.35156,7.628907 4.10742,20.646484 4.67188,-0.929688 3.32617,16.722657 -9.34375,1.857421 3.7168,18.683594 -4.66993,0.929688 4.10743,20.646486 48.67187,-9.68164 -3.7168,-18.685549 30.51953,-6.070313 v 0.002 l 14.22852,-2.832031 3.7168,18.685547 20.64648,-4.107422 -3.7168,-18.683594 4.67188,-0.929687 -3.7168,-18.685547 9.3418,-1.857422 -3.7168,-18.683594 4.67188,-0.929687 z"
       inkscape:path-effect="#path-effect2519"
       inkscape:original-d="m 146.21132,58.838154 4.671,-0.929 3.717,18.682 -9.343,1.858 3.717,18.684 -4.671,0.929 3.717,18.685996 46.712,-9.292 -3.717,-18.683996 32.695,-6.504 v 0.001 l 14.013,-2.788 3.717,18.684 18.685,-3.716 -3.716,-18.684 4.671,-0.929 -3.717,-18.685 9.342,-1.858 -3.716,-18.684 4.671,-0.929 -3.717,-18.686 -84.078,16.725 v -0.001 l -37.37,7.434 z" />
    <circle
       style="display:inline;fill:#000000;fill-opacity:0.0014062;stroke:#000000;stroke-width:0.189"
       id="path1418-65-9"
       cx="122.59811"
       cy="6.1650896"
       r="1.75" />
    <circle
       style="display:inline;fill:#000000;fill-opacity:0.0014062;stroke:#000000;stroke-width:0.189"
       id="path1418-6-9-6-3-0"
       cx="5.8736668"
       cy="48.08614"
       r="1.75" />
    <circle
       style="display:inline;fill:#000000;fill-opacity:0.0014062;stroke:#000000;stroke-width:0.189"
       id="path1418-6-9-6-7-7-91"
       cx="274.31534"
       cy="48.08614"
       r="1.75" />
    <circle
       style="display:inline;fill:#000000;fill-opacity:0.0014062;stroke:#000000;stroke-width:0.189"
       id="path1418-6-5-5-7"
       cx="10.806444"
       cy="10.798424"
       r="1.75" />
    <circle
       style="display:inline;fill:#000000;fill-opacity:0.0014062;stroke:#000000;stroke-width:0.189"
       id="path1418-6-5-6-2-71"
       cx="269.42313"
       cy="10.798654"
       r="1.75" />
    <circle
       style="display:inline;fill:#000000;fill-opacity:0.0014062;stroke:#000000;stroke-width:0.189"
       id="path1418-6-5-5-0-1"
       cx="10.806665"
       cy="95.097878"
       r="1.75" />
    <circle
       style="display:inline;fill:#000000;fill-opacity:0.0014062;stroke:#000000;stroke-width:0.189"
       id="path1418-6-5-6-2-7-5"
       cx="269.42334"
       cy="95.09803"
       r="1.75" />
    <circle
       style="display:inline;fill:#000000;fill-opacity:0.0014062;stroke:#000000;stroke-width:0.189"
       id="path1418-3-4-9"
       cx="157.8358"
       cy="6.1650896"
       r="1.75" />
    <circle
       style="display:inline;fill:#000000;fill-opacity:0.0014062;stroke:#000000;stroke-width:0.189"
       id="path1418-65-8-7"
       cx="102.5985"
       cy="116.64563"
       r="1.75" />
    <circle
       style="display:inline;fill:#000000;fill-opacity:0.0014062;stroke:#000000;stroke-width:0.189"
       id="path1418-3-4-6-76"
       cx="177.8365"
       cy="116.64563"
       r="1.75" />
  </g>
  <metadata
     id="metadata944">
    <rdf:RDF>
      <cc:Work
         rdf:about="">
        <dc:title>Eliza</dc:title>
        <dc:creator>
          <cc:Agent>
            <dc:title>Cody Bloemhard</dc:title>
          </cc:Agent>
        </dc:creator>
        <dc:rights>
          <cc:Agent>
            <dc:title>GPL v3</dc:title>
          </cc:Agent>
        </dc:rights>
      </cc:Work>
    </rdf:RDF>
  </metadata>
</svg>
