<?xml version="1.0" encoding="UTF-8"?>
<!-- Generated by SVGo -->
<svg width="302.077mm" height="160.260mm" viewBox="0.000 0.000 302.077 160.260" xmlns="http://www.w3.org/2000/svg" xmlns:xlink="http://www.w3.org/1999/xlink">
<polygon points="292.077,5.001 292.469,5.016 292.859,5.062 293.244,5.139 293.622,5.245 293.990,5.381 294.347,5.545 294.690,5.737 295.016,5.955 295.324,6.198 295.613,6.465 295.879,6.753 296.122,7.062 296.340,7.388 296.532,7.731 296.696,8.087 296.832,8.455 296.939,8.833 297.016,9.218 297.062,9.608 297.077,10.001 297.077,150.260 297.062,150.652 297.016,151.042 296.939,151.427 296.832,151.805 296.696,152.173 296.532,152.530 296.340,152.872 296.122,153.199 295.879,153.507 295.613,153.795 295.324,154.062 295.016,154.305 294.690,154.523 294.347,154.715 293.990,154.879 293.622,155.015 293.244,155.122 292.859,155.198 292.469,155.244 292.077,155.260 10.001,155.260 9.608,155.244 9.218,155.198 8.833,155.122 8.455,155.015 8.087,154.879 7.731,154.715 7.388,154.523 7.062,154.305 6.753,154.062 6.465,153.795 6.198,153.507 5.955,153.199 5.737,152.872 5.545,152.530 5.381,152.173 5.245,151.805 5.139,151.427 5.062,151.042 5.016,150.652 5.000,150.260 5.001,10.001 5.016,9.608 5.062,9.218 5.139,8.833 5.245,8.455 5.381,8.087 5.545,7.731 5.737,7.388 5.955,7.062 6.198,6.753 6.465,6.465 6.753,6.198 7.062,5.955 7.388,5.737 7.731,5.545 8.087,5.381 8.455,5.245 8.833,5.139 9.218,5.062 9.608,5.016 10.001,5.000" style="fill:none;stroke-width:0.050000mm;stroke:black"/>
<polygon points="12.058,146.092 11.591,146.330 11.220,146.700 10.982,147.167 10.901,147.685 10.982,148.202 11.220,148.669 11.591,149.040 12.058,149.278 12.576,149.360 13.093,149.278 13.560,149.040 13.931,148.669 14.169,148.202 14.251,147.685 14.169,147.167 13.931,146.700 13.560,146.330 13.093,146.092 12.576,146.010" style="fill:none;stroke-width:0.050000mm;stroke:black"/>
<polygon points="104.367,146.092 103.900,146.330 103.529,146.700 103.291,147.167 103.209,147.685 103.291,148.202 103.529,148.669 103.900,149.040 104.367,149.278 104.884,149.360 105.402,149.278 105.869,149.040 106.239,148.669 106.477,148.202 106.559,147.685 106.477,147.167 106.239,146.700 105.869,146.330 105.402,146.092 104.884,146.010" style="fill:none;stroke-width:0.050000mm;stroke:black"/>
<polygon points="196.676,146.092 196.209,146.330 195.838,146.700 195.600,147.167 195.518,147.685 195.600,148.202 195.838,148.669 196.209,149.040 196.676,149.278 197.193,149.360 197.711,149.278 198.178,149.040 198.548,148.669 198.786,148.202 198.868,147.685 198.786,147.167 198.548,146.700 198.178,146.330 197.711,146.092 197.193,146.010" style="fill:none;stroke-width:0.050000mm;stroke:black"/>
<polygon points="288.984,146.092 288.518,146.330 288.147,146.700 287.909,147.167 287.827,147.685 287.909,148.202 288.147,148.669 288.518,149.040 288.984,149.278 289.502,149.360 290.020,149.278 290.487,149.040 290.857,148.669 291.095,148.202 291.177,147.685 291.095,147.167 290.857,146.700 290.487,146.330 290.020,146.092 289.502,146.010" style="fill:none;stroke-width:0.050000mm;stroke:black"/>
<polygon points="20.151,20.151 20.151,140.110 281.927,140.110 281.927,20.151" style="fill:none;stroke-width:0.050000mm;stroke:black"/>
<polygon points="12.058,78.537 11.591,78.775 11.220,79.146 10.982,79.613 10.901,80.130 10.982,80.648 11.220,81.115 11.591,81.485 12.058,81.723 12.576,81.805 13.093,81.723 13.560,81.485 13.931,81.115 14.169,80.648 14.251,80.130 14.169,79.613 13.931,79.146 13.560,78.775 13.093,78.537 12.576,78.455" style="fill:none;stroke-width:0.050000mm;stroke:black"/>
<polygon points="288.984,78.537 288.518,78.775 288.147,79.146 287.909,79.613 287.827,80.130 287.909,80.648 288.147,81.115 288.518,81.485 288.984,81.723 289.502,81.805 290.020,81.723 290.487,81.485 290.857,81.115 291.095,80.648 291.177,80.130 291.095,79.613 290.857,79.146 290.487,78.775 290.020,78.537 289.502,78.455" style="fill:none;stroke-width:0.050000mm;stroke:black"/>
<polygon points="12.058,10.982 11.591,11.220 11.220,11.591 10.982,12.058 10.901,12.576 10.982,13.093 11.220,13.560 11.591,13.931 12.058,14.169 12.576,14.251 13.093,14.169 13.560,13.931 13.931,13.560 14.169,13.093 14.251,12.576 14.169,12.058 13.931,11.591 13.560,11.220 13.093,10.982 12.576,10.901" style="fill:none;stroke-width:0.050000mm;stroke:black"/>
<polygon points="288.984,10.982 288.518,11.220 288.147,11.591 287.909,12.058 287.827,12.576 287.909,13.093 288.147,13.560 288.518,13.931 288.984,14.169 289.502,14.251 290.020,14.169 290.487,13.931 290.857,13.560 291.095,13.093 291.177,12.576 291.095,12.058 290.857,11.591 290.487,11.220 290.020,10.982 289.502,10.900" style="fill:none;stroke-width:0.050000mm;stroke:black"/>
<polygon points="196.676,10.982 196.209,11.220 195.838,11.591 195.600,12.058 195.518,12.576 195.600,13.093 195.838,13.560 196.209,13.931 196.676,14.169 197.193,14.251 197.711,14.169 198.178,13.931 198.548,13.560 198.786,13.093 198.868,12.576 198.786,12.058 198.548,11.591 198.178,11.220 197.711,10.982 197.193,10.900" style="fill:none;stroke-width:0.050000mm;stroke:black"/>
<polygon points="104.367,10.982 103.900,11.220 103.529,11.591 103.291,12.058 103.209,12.576 103.291,13.093 103.529,13.560 103.900,13.931 104.367,14.169 104.884,14.251 105.402,14.169 105.869,13.931 106.239,13.560 106.477,13.093 106.559,12.576 106.477,12.058 106.239,11.591 105.869,11.220 105.402,10.982 104.884,10.900" style="fill:none;stroke-width:0.050000mm;stroke:black"/>
</svg>