<?xml version="1.0" encoding="UTF-8"?>
<!-- Generated by SVGo -->
<svg width="282.076mm" height="140.259mm" viewBox="0.000 0.000 282.076 140.259" xmlns="http://www.w3.org/2000/svg" xmlns:xlink="http://www.w3.org/1999/xlink">
<polygon points="277.076,135.259 5.000,135.259 5.000,5.000 277.076,5.000" style="fill:none;stroke-width:0.050000mm;stroke:black"/>
<polygon points="5.551,134.612 5.530,134.623 5.514,134.640 5.503,134.661 5.499,134.684 5.503,134.707 5.514,134.728 5.530,134.744 5.551,134.755 5.574,134.759 5.598,134.755 5.619,134.744 5.635,134.728 5.646,134.707 5.649,134.684 5.646,134.661 5.635,134.640 5.619,134.623 5.598,134.612 5.574,134.609" style="fill:none;stroke-width:0.050000mm;stroke:black"/>
<polygon points="276.478,134.612 276.457,134.623 276.440,134.640 276.430,134.661 276.426,134.684 276.430,134.707 276.440,134.728 276.457,134.744 276.478,134.755 276.501,134.759 276.524,134.755 276.545,134.744 276.562,134.728 276.572,134.707 276.576,134.684 276.572,134.661 276.562,134.640 276.545,134.623 276.524,134.612 276.501,134.609" style="fill:none;stroke-width:0.050000mm;stroke:black"/>
<polygon points="150.909,108.620 151.168,109.586 150.395,109.793 151.158,112.643 151.931,112.436 153.471,118.183 152.698,118.390 153.462,121.239 154.235,121.032 154.493,121.998 167.871,118.414 167.613,117.448 168.385,117.241 167.622,114.391 166.849,114.598 165.309,108.851 166.082,108.644 165.318,105.794 164.546,106.001 164.287,105.035" style="fill:none;stroke-width:0.050000mm;stroke:black"/>
<polygon points="116.846,105.260 116.073,105.053 115.310,107.902 116.083,108.109 114.543,113.857 113.770,113.650 113.006,116.499 113.779,116.706 113.520,117.672 126.898,121.257 127.157,120.291 127.930,120.498 128.693,117.648 127.921,117.441 129.461,111.694 130.234,111.901 130.997,109.052 130.223,108.845 130.483,107.879 117.105,104.294" style="fill:none;stroke-width:0.050000mm;stroke:black"/>
<polygon points="173.910,102.457 174.169,103.423 173.396,103.630 174.159,106.479 174.932,106.272 176.472,112.020 175.699,112.227 176.463,115.076 177.236,114.869 177.494,115.835 190.873,112.250 190.614,111.285 191.386,111.077 190.623,108.228 189.850,108.435 188.310,102.688 189.083,102.481 188.319,99.631 187.547,99.838 187.288,98.872" style="fill:none;stroke-width:0.050000mm;stroke:black"/>
<polygon points="93.845,99.097 93.072,98.890 92.309,101.739 93.082,101.946 91.542,107.694 90.769,107.486 90.005,110.336 90.778,110.543 90.519,111.509 103.897,115.094 104.156,114.128 104.929,114.335 105.692,111.485 104.920,111.278 106.460,105.531 107.232,105.738 107.996,102.888 107.223,102.681 107.482,101.716 94.104,98.131" style="fill:none;stroke-width:0.050000mm;stroke:black"/>
<polygon points="150.578,88.987 150.837,89.953 150.064,90.160 150.828,93.009 151.601,92.802 153.141,98.549 152.368,98.756 153.132,101.606 153.904,101.399 154.163,102.365 167.541,98.780 167.282,97.814 168.055,97.607 167.292,94.758 166.519,94.965 164.979,89.217 165.752,89.010 164.988,86.161 164.215,86.368 163.956,85.402" style="fill:none;stroke-width:0.050000mm;stroke:black"/>
<polygon points="117.177,85.626 116.404,85.419 115.640,88.269 116.413,88.476 114.873,94.223 114.100,94.016 113.337,96.866 114.110,97.073 113.851,98.039 127.229,101.623 127.488,100.657 128.258,100.864 129.024,98.015 128.251,97.808 129.791,92.061 130.564,92.268 131.327,89.418 130.555,89.211 130.812,88.245 117.435,84.660" style="fill:none;stroke-width:0.050000mm;stroke:black"/>
<polygon points="238.313,85.200 238.572,86.166 237.799,86.373 238.563,89.223 239.335,89.016 240.875,94.763 240.102,94.970 240.866,97.819 241.639,97.612 241.898,98.578 255.276,94.994 255.017,94.028 255.790,93.821 255.026,90.971 254.253,91.178 252.713,85.431 253.486,85.224 252.723,82.374 251.950,82.582 251.691,81.616" style="fill:none;stroke-width:0.050000mm;stroke:black"/>
<polygon points="29.442,81.840 28.669,81.633 27.906,84.482 28.678,84.690 27.139,90.437 26.366,90.230 25.602,93.079 26.375,93.286 26.116,94.252 39.494,97.837 39.753,96.871 40.526,97.078 41.289,94.228 40.517,94.021 42.057,88.274 42.829,88.481 43.593,85.632 42.820,85.425 43.079,84.459 29.701,80.874" style="fill:none;stroke-width:0.050000mm;stroke:black"/>
<polygon points="168.979,84.056 169.238,85.022 168.465,85.229 169.229,88.079 170.002,87.872 171.542,93.619 170.769,93.826 171.532,96.675 172.305,96.468 172.564,97.434 185.942,93.850 185.683,92.884 186.456,92.677 185.692,89.827 184.920,90.034 183.380,84.287 184.152,84.080 183.389,81.230 182.616,81.437 182.357,80.471" style="fill:none;stroke-width:0.050000mm;stroke:black"/>
<polygon points="98.776,80.696 98.003,80.489 97.239,83.338 98.012,83.545 96.472,89.293 95.699,89.086 94.936,91.935 95.709,92.142 95.450,93.108 108.828,96.693 109.087,95.727 109.859,95.934 110.623,93.084 109.850,92.877 111.390,87.130 112.163,87.337 112.926,84.488 112.154,84.281 112.413,83.315 99.034,79.730" style="fill:none;stroke-width:0.050000mm;stroke:black"/>
<polygon points="187.380,79.126 187.639,80.092 186.866,80.299 187.630,83.148 188.403,82.941 189.943,88.688 189.170,88.895 189.933,91.745 190.706,91.538 190.965,92.504 204.343,88.919 204.084,87.953 204.857,87.746 204.093,84.897 203.321,85.104 201.781,79.356 202.553,79.149 201.790,76.300 201.017,76.507 200.758,75.541" style="fill:none;stroke-width:0.050000mm;stroke:black"/>
<polygon points="80.375,75.765 79.602,75.558 78.838,78.408 79.611,78.615 78.071,84.362 77.299,84.155 76.535,87.005 77.308,87.212 77.049,88.178 90.427,91.762 90.686,90.796 91.459,91.003 92.222,88.154 91.449,87.947 92.989,82.200 93.762,82.407 94.526,79.557 93.753,79.350 94.012,78.384 80.634,74.799" style="fill:none;stroke-width:0.050000mm;stroke:black"/>
<polygon points="205.781,74.195 206.040,75.161 205.267,75.368 206.031,78.218 206.803,78.011 208.343,83.758 207.571,83.965 208.334,86.814 209.107,86.607 209.366,87.573 222.744,83.989 222.485,83.023 223.258,82.816 222.494,79.966 221.721,80.173 220.181,74.426 220.954,74.219 220.191,71.369 219.418,71.576 219.159,70.610" style="fill:none;stroke-width:0.050000mm;stroke:black"/>
<polygon points="61.974,70.835 61.201,70.628 60.438,73.477 61.210,73.684 59.670,79.432 58.898,79.225 58.134,82.074 58.907,82.281 58.648,83.247 72.026,86.832 72.285,85.866 73.058,86.073 73.821,83.223 73.048,83.016 74.588,77.269 75.361,77.476 76.125,74.627 75.352,74.420 75.611,73.454 62.233,69.869" style="fill:none;stroke-width:0.050000mm;stroke:black"/>
<polygon points="224.182,69.265 224.441,70.231 223.668,70.438 224.432,73.287 225.204,73.080 226.744,78.827 225.972,79.034 226.735,81.884 227.508,81.677 227.767,82.643 241.145,79.058 240.886,78.092 241.659,77.885 240.895,75.036 240.122,75.243 238.582,69.495 239.355,69.288 238.592,66.439 237.819,66.646 237.560,65.680" style="fill:none;stroke-width:0.050000mm;stroke:black"/>
<polygon points="43.573,65.904 42.800,65.697 42.037,68.547 42.809,68.754 41.269,74.501 40.497,74.294 39.733,77.144 40.506,77.351 40.247,78.317 53.625,81.901 53.884,80.935 54.657,81.142 55.420,78.293 54.648,78.086 56.188,72.339 56.960,72.546 57.724,69.696 56.951,69.489 57.210,68.523 43.832,64.938" style="fill:none;stroke-width:0.050000mm;stroke:black"/>
<polygon points="154.848,68.120 155.107,69.086 154.334,69.293 155.098,72.143 155.871,71.936 157.411,77.683 156.638,77.890 157.401,80.740 158.174,80.533 158.433,81.499 171.811,77.914 171.552,76.948 172.325,76.741 171.561,73.891 170.789,74.099 169.249,68.351 170.022,68.144 169.258,65.295 168.485,65.501 168.226,64.536" style="fill:none;stroke-width:0.050000mm;stroke:black"/>
<polygon points="112.907,64.760 112.134,64.553 111.370,67.403 112.143,67.610 110.603,73.357 109.830,73.150 109.067,75.999 109.840,76.206 109.581,77.172 122.959,80.757 123.218,79.791 123.990,79.998 124.754,77.149 123.981,76.942 125.521,71.194 126.294,71.401 127.057,68.552 126.285,68.345 126.543,67.379 113.165,63.794" style="fill:none;stroke-width:0.050000mm;stroke:black"/>
<polygon points="242.583,64.334 242.842,65.300 242.069,65.507 242.832,68.357 243.605,68.150 245.145,73.897 244.372,74.104 245.136,76.953 245.909,76.746 246.167,77.712 259.546,74.128 259.286,73.162 260.059,72.955 259.296,70.105 258.523,70.312 256.983,64.565 257.755,64.358 256.992,61.508 256.220,61.715 255.961,60.749" style="fill:none;stroke-width:0.050000mm;stroke:black"/>
<polygon points="173.249,63.190 173.508,64.156 172.735,64.363 173.499,67.212 174.272,67.005 175.812,72.753 175.039,72.960 175.802,75.809 176.575,75.602 176.834,76.568 190.212,72.983 189.953,72.017 190.726,71.810 189.962,68.961 189.190,69.168 187.650,63.421 188.422,63.214 187.659,60.364 186.886,60.571 186.627,59.605" style="fill:none;stroke-width:0.050000mm;stroke:black"/>
<polygon points="22.872,60.358 22.099,60.151 21.336,63.000 22.108,63.207 20.568,68.954 19.796,68.747 19.032,71.597 19.805,71.804 19.546,72.770 32.924,76.354 33.183,75.388 33.956,75.596 34.719,72.746 33.947,72.539 35.487,66.792 36.259,66.999 37.023,64.149 36.250,63.942 36.509,62.976 23.131,59.392" style="fill:none;stroke-width:0.050000mm;stroke:black"/>
<polygon points="94.506,59.830 93.733,59.623 92.969,62.472 93.742,62.679 92.202,68.427 91.429,68.219 90.666,71.069 91.439,71.276 91.180,72.242 104.558,75.827 104.817,74.861 105.589,75.068 106.353,72.218 105.580,72.011 107.120,66.264 107.893,66.471 108.656,63.621 107.884,63.414 108.143,62.448 94.764,58.864" style="fill:none;stroke-width:0.050000mm;stroke:black"/>
<polygon points="191.650,58.259 191.909,59.225 191.136,59.432 191.900,62.282 192.672,62.075 194.212,67.822 193.440,68.029 194.203,70.879 194.976,70.672 195.235,71.638 208.613,68.053 208.354,67.087 209.127,66.880 208.363,64.030 207.591,64.236 206.051,58.490 206.823,58.283 206.060,55.434 205.287,55.641 205.028,54.675" style="fill:none;stroke-width:0.050000mm;stroke:black"/>
<polygon points="76.105,54.899 75.332,54.692 74.569,57.542 75.341,57.749 73.801,63.496 73.029,63.289 72.265,66.138 73.038,66.345 72.779,67.311 86.157,70.896 86.416,69.930 87.189,70.137 87.952,67.288 87.179,67.081 88.719,61.333 89.492,61.540 90.256,58.691 89.483,58.484 89.742,57.518 76.364,53.933" style="fill:none;stroke-width:0.050000mm;stroke:black"/>
<polygon points="210.051,53.329 210.310,54.295 209.537,54.502 210.301,57.351 211.073,57.144 212.613,62.892 211.841,63.099 212.604,65.948 213.377,65.741 213.636,66.707 227.014,63.122 226.755,62.156 227.528,61.949 226.764,59.100 225.991,59.307 224.451,53.560 225.224,53.353 224.461,50.503 223.688,50.710 223.429,49.744" style="fill:none;stroke-width:0.050000mm;stroke:black"/>
<polygon points="57.704,49.969 56.931,49.762 56.168,52.611 56.940,52.818 55.400,58.566 54.628,58.358 53.864,61.208 54.637,61.415 54.378,62.381 67.756,65.966 68.015,65.000 68.788,65.206 69.551,62.357 68.778,62.150 70.318,56.403 71.091,56.610 71.855,53.760 71.082,53.553 71.341,52.587 57.963,49.003" style="fill:none;stroke-width:0.050000mm;stroke:black"/>
<polygon points="145.318,50.952 145.576,51.918 144.804,52.125 145.567,54.975 146.340,54.768 147.880,60.515 147.107,60.722 147.871,63.571 148.643,63.364 148.902,64.330 162.280,60.746 162.022,59.780 162.794,59.573 162.031,56.723 161.258,56.930 159.718,51.183 160.491,50.976 159.727,48.126 158.955,48.334 158.696,47.368" style="fill:none;stroke-width:0.050000mm;stroke:black"/>
<polygon points="228.452,48.398 228.711,49.364 227.938,49.571 228.702,52.421 229.474,52.214 231.014,57.961 230.241,58.168 231.005,61.018 231.778,60.811 232.037,61.777 245.415,58.192 245.156,57.226 245.929,57.019 245.165,54.169 244.392,54.376 242.852,48.629 243.625,48.422 242.862,45.573 242.089,45.780 241.830,44.814" style="fill:none;stroke-width:0.050000mm;stroke:black"/>
<polygon points="113.237,45.127 112.464,44.920 111.701,47.769 112.473,47.976 110.933,53.723 110.161,53.516 109.397,56.366 110.170,56.573 109.911,57.539 123.289,61.124 123.548,60.158 124.321,60.365 125.084,57.515 124.311,57.308 125.851,51.561 126.624,51.768 127.388,48.918 126.615,48.711 126.874,47.745 113.496,44.161" style="fill:none;stroke-width:0.050000mm;stroke:black"/>
<polygon points="39.303,45.038 38.530,44.831 37.767,47.681 38.540,47.888 37.000,53.635 36.227,53.428 35.463,56.277 36.236,56.484 35.977,57.450 49.355,61.035 49.614,60.069 50.387,60.276 51.150,57.427 50.378,57.220 51.918,51.472 52.690,51.679 53.454,48.830 52.681,48.623 52.940,47.657 39.562,44.072" style="fill:none;stroke-width:0.050000mm;stroke:black"/>
<polygon points="163.719,46.022 163.977,46.988 163.205,47.195 163.968,50.044 164.741,49.837 166.281,55.584 165.508,55.791 166.272,58.641 167.044,58.434 167.303,59.400 180.681,55.815 180.422,54.849 181.195,54.642 180.432,51.793 179.659,52.000 178.119,46.252 178.892,46.045 178.128,43.196 177.355,43.403 177.097,42.437" style="fill:none;stroke-width:0.050000mm;stroke:black"/>
<polygon points="246.853,43.468 247.112,44.434 246.339,44.641 247.102,47.490 247.875,47.283 249.415,53.031 248.642,53.238 249.406,56.087 250.179,55.880 250.437,56.846 263.816,53.261 263.557,52.295 264.329,52.088 263.566,49.239 262.793,49.446 261.253,43.699 262.026,43.492 261.262,40.642 260.490,40.849 260.231,39.883" style="fill:none;stroke-width:0.050000mm;stroke:black"/>
<polygon points="94.836,40.196 94.063,39.989 93.300,42.839 94.072,43.046 92.532,48.793 91.760,48.586 90.996,51.435 91.769,51.642 91.510,52.608 104.888,56.193 105.147,55.227 105.920,55.434 106.683,52.585 105.911,52.378 107.451,46.630 108.223,46.837 108.987,43.988 108.214,43.781 108.473,42.815 95.095,39.230" style="fill:none;stroke-width:0.050000mm;stroke:black"/>
<polygon points="20.902,40.108 20.129,39.901 19.366,42.750 20.139,42.957 18.599,48.704 17.826,48.497 17.062,51.347 17.835,51.554 17.576,52.520 30.954,56.105 31.213,55.139 31.986,55.346 32.749,52.496 31.977,52.289 33.517,46.542 34.289,46.749 35.053,43.899 34.280,43.692 34.539,42.726 21.161,39.142" style="fill:none;stroke-width:0.050000mm;stroke:black"/>
<polygon points="182.119,41.091 182.378,42.057 181.605,42.264 182.369,45.114 183.142,44.907 184.682,50.654 183.909,50.861 184.672,53.710 185.445,53.503 185.704,54.469 199.082,50.885 198.823,49.919 199.596,49.712 198.833,46.862 198.060,47.069 196.520,41.322 197.293,41.115 196.529,38.265 195.756,38.472 195.497,37.507" style="fill:none;stroke-width:0.050000mm;stroke:black"/>
<polygon points="76.435,35.266 75.662,35.059 74.899,37.908 75.672,38.115 74.132,43.862 73.359,43.655 72.595,46.505 73.368,46.712 73.109,47.678 86.487,51.263 86.746,50.297 87.519,50.504 88.282,47.654 87.510,47.447 89.050,41.700 89.822,41.907 90.586,39.057 89.813,38.850 90.072,37.884 76.694,34.300" style="fill:none;stroke-width:0.050000mm;stroke:black"/>
<polygon points="200.520,36.161 200.779,37.127 200.006,37.334 200.770,40.183 201.543,39.976 203.083,45.723 202.310,45.930 203.073,48.780 203.846,48.573 204.105,49.539 217.483,45.954 217.224,44.988 217.997,44.781 217.233,41.932 216.461,42.139 214.921,36.391 215.693,36.184 214.930,33.335 214.157,33.542 213.898,32.576" style="fill:none;stroke-width:0.050000mm;stroke:black"/>
<polygon points="58.034,30.335 57.261,30.128 56.498,32.978 57.271,33.185 55.731,38.932 54.958,38.725 54.194,41.574 54.967,41.781 54.708,42.747 68.086,46.332 68.345,45.366 69.118,45.573 69.882,42.724 69.109,42.517 70.649,36.769 71.421,36.976 72.185,34.127 71.412,33.920 71.671,32.954 58.293,29.369" style="fill:none;stroke-width:0.050000mm;stroke:black"/>
<polygon points="218.921,31.230 219.180,32.195 218.407,32.403 219.171,35.253 219.944,35.046 221.483,40.793 220.711,41.000 221.474,43.849 222.247,43.642 222.506,44.608 235.884,41.024 235.625,40.058 236.398,39.851 235.634,37.001 234.862,37.208 233.322,31.461 234.094,31.254 233.331,28.404 232.558,28.611 232.299,27.646" style="fill:none;stroke-width:0.050000mm;stroke:black"/>
<polygon points="39.633,25.405 38.861,25.198 38.097,28.047 38.870,28.254 37.330,34.001 36.557,33.794 35.794,36.644 36.566,36.851 36.307,37.817 49.686,41.402 49.944,40.436 50.717,40.643 51.481,37.793 50.708,37.586 52.248,31.839 53.021,32.046 53.784,29.196 53.011,28.989 53.270,28.023 39.892,24.439" style="fill:none;stroke-width:0.050000mm;stroke:black"/>
<polygon points="241.922,25.067 242.181,26.033 241.408,26.240 242.172,29.090 242.945,28.882 244.485,34.630 243.712,34.837 244.475,37.686 245.248,37.479 245.507,38.445 258.885,34.861 258.625,33.895 259.399,33.688 258.635,30.838 257.863,31.045 256.322,25.298 257.095,25.091 256.332,22.241 255.559,22.448 255.300,21.482" style="fill:none;stroke-width:0.050000mm;stroke:black"/>
<polygon points="21.232,20.474 20.460,20.267 19.696,23.117 20.469,23.324 18.929,29.071 18.156,28.864 17.393,31.713 18.165,31.920 17.907,32.886 31.285,36.471 31.543,35.505 32.316,35.712 33.080,32.863 32.307,32.656 33.847,26.908 34.620,27.115 35.383,24.266 34.610,24.059 34.869,23.093 21.491,19.508" style="fill:none;stroke-width:0.050000mm;stroke:black"/>
<polygon points="276.478,5.503 276.457,5.514 276.440,5.530 276.430,5.551 276.426,5.574 276.430,5.598 276.440,5.619 276.457,5.635 276.478,5.646 276.501,5.650 276.524,5.646 276.545,5.635 276.562,5.619 276.572,5.598 276.576,5.574 276.572,5.551 276.562,5.530 276.545,5.514 276.524,5.503 276.501,5.499" style="fill:none;stroke-width:0.050000mm;stroke:black"/>
<polygon points="5.551,5.503 5.530,5.514 5.514,5.530 5.503,5.551 5.499,5.574 5.503,5.598 5.514,5.619 5.530,5.635 5.551,5.646 5.574,5.649 5.598,5.646 5.619,5.635 5.635,5.619 5.646,5.598 5.649,5.574 5.646,5.551 5.635,5.530 5.619,5.514 5.598,5.503 5.574,5.499" style="fill:none;stroke-width:0.050000mm;stroke:black"/>
</svg>