<?xml version="1.0" encoding="UTF-8"?>
<!-- Generated by SVGo -->
<svg width="302.077mm" height="160.260mm" viewBox="0.000 0.000 302.077 160.260" xmlns="http://www.w3.org/2000/svg" xmlns:xlink="http://www.w3.org/1999/xlink">
<polygon points="292.077,5.001 292.469,5.016 292.859,5.062 293.244,5.139 293.622,5.245 293.990,5.381 294.347,5.545 294.690,5.737 295.016,5.955 295.324,6.198 295.613,6.465 295.879,6.753 296.122,7.062 296.340,7.388 296.532,7.731 296.696,8.087 296.832,8.455 296.939,8.833 297.016,9.218 297.062,9.608 297.077,10.001 297.077,150.260 297.062,150.652 297.016,151.042 296.939,151.427 296.832,151.805 296.696,152.173 296.532,152.530 296.340,152.872 296.122,153.199 295.879,153.507 295.613,153.795 295.324,154.062 295.016,154.305 294.690,154.523 294.347,154.715 293.990,154.879 293.622,155.015 293.244,155.122 292.859,155.198 292.469,155.244 292.077,155.260 10.001,155.260 9.608,155.244 9.218,155.198 8.833,155.122 8.455,155.015 8.087,154.879 7.731,154.715 7.388,154.523 7.062,154.305 6.753,154.062 6.465,153.795 6.198,153.507 5.955,153.199 5.737,152.872 5.545,152.530 5.381,152.173 5.245,151.805 5.139,151.427 5.062,151.042 5.016,150.652 5.000,150.260 5.001,10.001 5.016,9.608 5.062,9.218 5.139,8.833 5.245,8.455 5.381,8.087 5.545,7.731 5.737,7.388 5.955,7.062 6.198,6.753 6.465,6.465 6.753,6.198 7.062,5.955 7.388,5.737 7.731,5.545 8.087,5.381 8.455,5.245 8.833,5.139 9.218,5.062 9.608,5.016 10.001,5.000" style="fill:none;stroke-width:0.050000mm;stroke:black"/>
<polygon points="12.058,146.092 11.591,146.330 11.220,146.700 10.982,147.167 10.901,147.685 10.982,148.202 11.220,148.669 11.591,149.040 12.058,149.278 12.576,149.360 13.093,149.278 13.560,149.040 13.931,148.669 14.169,148.202 14.251,147.685 14.169,147.167 13.931,146.700 13.560,146.330 13.093,146.092 12.576,146.010" style="fill:none;stroke-width:0.050000mm;stroke:black"/>
<polygon points="104.367,146.092 103.900,146.330 103.529,146.700 103.291,147.167 103.209,147.685 103.291,148.202 103.529,148.669 103.900,149.040 104.367,149.278 104.884,149.360 105.402,149.278 105.869,149.040 106.239,148.669 106.477,148.202 106.559,147.685 106.477,147.167 106.239,146.700 105.869,146.330 105.402,146.092 104.884,146.010" style="fill:none;stroke-width:0.050000mm;stroke:black"/>
<polygon points="196.676,146.092 196.209,146.330 195.838,146.700 195.600,147.167 195.518,147.685 195.600,148.202 195.838,148.669 196.209,149.040 196.676,149.278 197.193,149.360 197.711,149.278 198.178,149.040 198.548,148.669 198.786,148.202 198.868,147.685 198.786,147.167 198.548,146.700 198.178,146.330 197.711,146.092 197.193,146.010" style="fill:none;stroke-width:0.050000mm;stroke:black"/>
<polygon points="288.984,146.092 288.518,146.330 288.147,146.700 287.909,147.167 287.827,147.685 287.909,148.202 288.147,148.669 288.518,149.040 288.984,149.278 289.502,149.360 290.020,149.278 290.487,149.040 290.857,148.669 291.095,148.202 291.177,147.685 291.095,147.167 290.857,146.700 290.487,146.330 290.020,146.092 289.502,146.010" style="fill:none;stroke-width:0.050000mm;stroke:black"/>
<polygon points="160.910,118.621 161.169,119.587 160.396,119.794 161.159,122.644 161.932,122.437 163.472,128.184 162.699,128.390 163.463,131.240 164.236,131.033 164.494,131.999 177.872,128.414 177.614,127.449 178.386,127.242 177.623,124.392 176.850,124.599 175.310,118.852 176.083,118.645 175.319,115.795 174.547,116.002 174.288,115.036" style="fill:none;stroke-width:0.050000mm;stroke:black"/>
<polygon points="126.847,115.261 126.074,115.054 125.311,117.903 126.084,118.110 124.544,123.858 123.771,123.651 123.007,126.500 123.780,126.707 123.521,127.673 136.899,131.258 137.158,130.292 137.931,130.498 138.695,127.649 137.922,127.442 139.462,121.695 140.235,121.902 140.998,119.053 140.225,118.846 140.484,117.880 127.106,114.295" style="fill:none;stroke-width:0.050000mm;stroke:black"/>
<polygon points="183.911,112.458 184.170,113.424 183.397,113.631 184.160,116.480 184.933,116.273 186.473,122.021 185.700,122.228 186.464,125.077 187.237,124.870 187.495,125.836 200.874,122.251 200.615,121.286 201.387,121.078 200.624,118.229 199.851,118.436 198.311,112.689 199.084,112.482 198.320,109.632 197.548,109.839 197.289,108.873" style="fill:none;stroke-width:0.050000mm;stroke:black"/>
<polygon points="103.846,109.098 103.073,108.891 102.310,111.740 103.083,111.947 101.543,117.695 100.770,117.487 100.006,120.337 100.779,120.544 100.520,121.510 113.898,125.095 114.157,124.129 114.930,124.336 115.693,121.486 114.921,121.279 116.461,115.532 117.233,115.739 117.997,112.889 117.224,112.682 117.483,111.717 104.105,108.132" style="fill:none;stroke-width:0.050000mm;stroke:black"/>
<polygon points="160.579,98.988 160.838,99.954 160.065,100.161 160.829,103.010 161.602,102.803 163.142,108.550 162.369,108.757 163.133,111.607 163.905,111.400 164.164,112.366 177.542,108.781 177.283,107.815 178.056,107.608 177.293,104.759 176.520,104.966 174.980,99.218 175.753,99.011 174.989,96.162 174.216,96.369 173.957,95.403" style="fill:none;stroke-width:0.050000mm;stroke:black"/>
<polygon points="127.178,95.627 126.405,95.420 125.641,98.270 126.414,98.477 124.874,104.224 124.101,104.017 123.338,106.867 124.111,107.074 123.852,108.040 137.230,111.624 137.489,110.658 138.261,110.865 139.025,108.016 138.252,107.809 139.792,102.062 140.565,102.269 141.328,99.419 140.556,99.212 140.814,98.246 127.436,94.661" style="fill:none;stroke-width:0.050000mm;stroke:black"/>
<polygon points="248.314,95.201 248.573,96.167 247.800,96.374 248.564,99.224 249.336,99.017 250.876,104.764 250.103,104.971 250.867,107.820 251.640,107.613 251.899,108.579 265.277,104.995 265.018,104.029 265.791,103.822 265.027,100.972 264.254,101.179 262.714,95.432 263.487,95.225 262.724,92.375 261.951,92.583 261.691,91.617" style="fill:none;stroke-width:0.050000mm;stroke:black"/>
<polygon points="39.443,91.841 38.670,91.634 37.907,94.483 38.679,94.691 37.140,100.438 36.367,100.231 35.603,103.080 36.376,103.287 36.117,104.253 49.495,107.838 49.754,106.872 50.527,107.079 51.290,104.229 50.518,104.022 52.058,98.275 52.830,98.482 53.594,95.633 52.821,95.426 53.080,94.460 39.702,90.875" style="fill:none;stroke-width:0.050000mm;stroke:black"/>
<polygon points="178.980,94.057 179.239,95.023 178.466,95.230 179.230,98.080 180.003,97.873 181.543,103.620 180.770,103.827 181.533,106.676 182.306,106.469 182.565,107.435 195.943,103.851 195.684,102.885 196.457,102.678 195.693,99.828 194.921,100.035 193.381,94.288 194.153,94.081 193.390,91.231 192.617,91.438 192.358,90.472" style="fill:none;stroke-width:0.050000mm;stroke:black"/>
<polygon points="108.777,90.697 108.004,90.490 107.240,93.339 108.013,93.546 106.473,99.294 105.700,99.087 104.937,101.936 105.710,102.143 105.451,103.109 118.829,106.694 119.088,105.728 119.860,105.935 120.624,103.085 119.851,102.878 121.391,97.131 122.164,97.338 122.927,94.489 122.155,94.282 122.414,93.316 109.035,89.731" style="fill:none;stroke-width:0.050000mm;stroke:black"/>
<polygon points="197.381,89.127 197.640,90.093 196.867,90.300 197.631,93.149 198.404,92.942 199.944,98.689 199.171,98.896 199.934,101.746 200.707,101.539 200.966,102.505 214.344,98.920 214.085,97.954 214.858,97.747 214.094,94.898 213.322,95.105 211.782,89.357 212.554,89.150 211.791,86.301 211.018,86.508 210.759,85.542" style="fill:none;stroke-width:0.050000mm;stroke:black"/>
<polygon points="90.376,85.766 89.603,85.559 88.839,88.409 89.612,88.616 88.072,94.363 87.300,94.156 86.536,97.006 87.309,97.213 87.050,98.179 100.428,101.763 100.687,100.797 101.460,101.004 102.223,98.155 101.450,97.948 102.990,92.201 103.763,92.408 104.527,89.558 103.754,89.351 104.013,88.385 90.635,84.800" style="fill:none;stroke-width:0.050000mm;stroke:black"/>
<polygon points="215.782,84.196 216.041,85.162 215.268,85.369 216.032,88.219 216.804,88.012 218.344,93.759 217.572,93.966 218.335,96.815 219.108,96.608 219.367,97.574 232.745,93.990 232.486,93.024 233.259,92.817 232.495,89.967 231.722,90.174 230.182,84.427 230.955,84.220 230.192,81.370 229.419,81.577 229.160,80.611" style="fill:none;stroke-width:0.050000mm;stroke:black"/>
<polygon points="71.975,80.836 71.202,80.629 70.439,83.478 71.211,83.685 69.671,89.433 68.899,89.226 68.135,92.075 68.908,92.282 68.649,93.248 82.027,96.833 82.286,95.867 83.059,96.074 83.822,93.224 83.049,93.017 84.589,87.270 85.362,87.477 86.126,84.628 85.353,84.421 85.612,83.455 72.234,79.870" style="fill:none;stroke-width:0.050000mm;stroke:black"/>
<polygon points="234.183,79.266 234.442,80.232 233.669,80.439 234.433,83.288 235.205,83.081 236.745,88.828 235.973,89.035 236.736,91.885 237.509,91.678 237.768,92.644 251.146,89.059 250.887,88.093 251.660,87.886 250.896,85.037 250.123,85.244 248.583,79.496 249.356,79.289 248.593,76.440 247.820,76.647 247.561,75.681" style="fill:none;stroke-width:0.050000mm;stroke:black"/>
<polygon points="53.574,75.905 52.801,75.698 52.038,78.548 52.810,78.755 51.270,84.502 50.498,84.295 49.734,87.145 50.507,87.352 50.248,88.318 63.626,91.902 63.885,90.936 64.658,91.143 65.421,88.294 64.648,88.087 66.189,82.340 66.961,82.547 67.725,79.697 66.952,79.490 67.211,78.524 53.833,74.939" style="fill:none;stroke-width:0.050000mm;stroke:black"/>
<polygon points="164.849,78.121 165.108,79.087 164.335,79.294 165.099,82.144 165.872,81.937 167.412,87.684 166.639,87.891 167.402,90.741 168.175,90.534 168.434,91.500 181.812,87.915 181.553,86.949 182.326,86.742 181.562,83.892 180.790,84.100 179.250,78.352 180.023,78.145 179.259,75.296 178.486,75.503 178.227,74.537" style="fill:none;stroke-width:0.050000mm;stroke:black"/>
<polygon points="122.908,74.761 122.135,74.554 121.371,77.404 122.144,77.611 120.604,83.358 119.831,83.151 119.068,86.000 119.841,86.207 119.582,87.173 132.960,90.758 133.219,89.792 133.991,89.999 134.755,87.150 133.982,86.943 135.522,81.195 136.295,81.402 137.058,78.553 136.286,78.346 136.544,77.380 123.166,73.795" style="fill:none;stroke-width:0.050000mm;stroke:black"/>
<polygon points="252.584,74.335 252.843,75.301 252.070,75.508 252.833,78.358 253.606,78.151 255.146,83.898 254.373,84.105 255.137,86.954 255.910,86.747 256.167,87.713 269.547,84.129 269.288,83.163 270.060,82.956 269.297,80.106 268.524,80.313 266.984,74.566 267.757,74.359 266.993,71.509 266.221,71.716 265.962,70.750" style="fill:none;stroke-width:0.050000mm;stroke:black"/>
<polygon points="183.250,73.191 183.509,74.157 182.736,74.364 183.500,77.213 184.273,77.006 185.813,82.754 185.040,82.961 185.803,85.810 186.576,85.603 186.835,86.569 200.213,82.984 199.954,82.018 200.727,81.811 199.963,78.962 199.191,79.169 197.651,73.422 198.423,73.215 197.660,70.365 196.887,70.572 196.628,69.606" style="fill:none;stroke-width:0.050000mm;stroke:black"/>
<polygon points="32.873,70.359 32.099,70.152 31.337,73.001 32.108,73.208 30.569,78.955 29.797,78.748 29.033,81.598 29.806,81.805 29.547,82.771 42.925,86.355 43.184,85.389 43.957,85.597 44.720,82.747 43.948,82.540 45.488,76.793 46.260,77.000 47.024,74.150 46.251,73.943 46.510,72.977 33.132,69.393" style="fill:none;stroke-width:0.050000mm;stroke:black"/>
<polygon points="104.507,69.831 103.734,69.624 102.970,72.473 103.743,72.680 102.203,78.428 101.430,78.220 100.667,81.070 101.440,81.277 101.181,82.243 114.559,85.828 114.818,84.862 115.590,85.069 116.354,82.219 115.581,82.012 117.121,76.265 117.894,76.472 118.657,73.622 117.885,73.415 118.144,72.449 104.765,68.865" style="fill:none;stroke-width:0.050000mm;stroke:black"/>
<polygon points="12.058,78.537 11.591,78.775 11.220,79.146 10.982,79.613 10.901,80.130 10.982,80.648 11.220,81.115 11.591,81.485 12.058,81.723 12.576,81.805 13.093,81.723 13.560,81.485 13.931,81.115 14.169,80.648 14.251,80.130 14.169,79.613 13.931,79.146 13.560,78.775 13.093,78.537 12.576,78.455" style="fill:none;stroke-width:0.050000mm;stroke:black"/>
<polygon points="288.984,78.537 288.518,78.775 288.147,79.146 287.909,79.613 287.827,80.130 287.909,80.648 288.147,81.115 288.518,81.485 288.984,81.723 289.502,81.805 290.020,81.723 290.487,81.485 290.857,81.115 291.095,80.648 291.177,80.130 291.095,79.613 290.857,79.146 290.487,78.775 290.020,78.537 289.502,78.455" style="fill:none;stroke-width:0.050000mm;stroke:black"/>
<polygon points="201.651,68.260 201.910,69.226 201.137,69.433 201.901,72.283 202.673,72.076 204.213,77.823 203.441,78.030 204.204,80.880 204.977,80.673 205.236,81.639 218.614,78.054 218.355,77.088 219.128,76.881 218.364,74.031 217.592,74.238 216.052,68.491 216.824,68.284 216.061,65.435 215.288,65.642 215.029,64.676" style="fill:none;stroke-width:0.050000mm;stroke:black"/>
<polygon points="86.106,64.900 85.333,64.692 84.570,67.543 85.342,67.750 83.802,73.497 83.030,73.290 82.266,76.139 83.039,76.346 82.780,77.312 96.158,80.897 96.417,79.931 97.190,80.138 97.953,77.289 97.180,77.082 98.720,71.334 99.493,71.541 100.257,68.692 99.484,68.485 99.743,67.519 86.365,63.934" style="fill:none;stroke-width:0.050000mm;stroke:black"/>
<polygon points="220.052,63.330 220.311,64.296 219.538,64.502 220.302,67.352 221.074,67.145 222.614,72.893 221.842,73.100 222.605,75.949 223.378,75.742 223.637,76.708 237.015,73.123 236.756,72.157 237.529,71.950 236.765,69.101 235.992,69.308 234.452,63.561 235.225,63.354 234.462,60.504 233.689,60.711 233.430,59.745" style="fill:none;stroke-width:0.050000mm;stroke:black"/>
<polygon points="67.705,59.970 66.932,59.763 66.169,62.612 66.941,62.819 65.401,68.567 64.629,68.359 63.865,71.209 64.638,71.416 64.379,72.382 77.757,75.967 78.016,75.001 78.789,75.208 79.552,72.358 78.779,72.151 80.319,66.404 81.092,66.611 81.856,63.761 81.083,63.554 81.342,62.588 67.964,59.004" style="fill:none;stroke-width:0.050000mm;stroke:black"/>
<polygon points="155.319,60.953 155.577,61.919 154.805,62.126 155.568,64.975 156.341,64.769 157.881,70.516 157.108,70.723 157.872,73.572 158.644,73.365 158.903,74.331 172.281,70.747 172.023,69.781 172.795,69.574 172.032,66.724 171.259,66.931 169.719,61.184 170.492,60.977 169.728,58.127 168.956,58.335 168.697,57.369" style="fill:none;stroke-width:0.050000mm;stroke:black"/>
<polygon points="238.453,58.399 238.712,59.365 237.939,59.572 238.703,62.422 239.475,62.215 241.015,67.962 240.242,68.169 241.006,71.019 241.779,70.812 242.038,71.778 255.416,68.193 255.157,67.227 255.930,67.020 255.166,64.170 254.393,64.377 252.853,58.630 253.626,58.423 252.863,55.574 252.090,55.781 251.831,54.815" style="fill:none;stroke-width:0.050000mm;stroke:black"/>
<polygon points="123.238,55.128 122.465,54.921 121.702,57.770 122.474,57.977 120.934,63.724 120.162,63.517 119.398,66.367 120.171,66.574 119.912,67.540 133.290,71.125 133.549,70.159 134.322,70.366 135.085,67.516 134.312,67.309 135.852,61.562 136.625,61.769 137.389,58.919 136.616,58.712 136.875,57.746 123.497,54.162" style="fill:none;stroke-width:0.050000mm;stroke:black"/>
<polygon points="49.304,55.039 48.531,54.832 47.768,57.682 48.541,57.889 47.001,63.636 46.228,63.429 45.464,66.278 46.237,66.485 45.978,67.451 59.356,71.036 59.615,70.070 60.388,70.277 61.151,67.428 60.379,67.221 61.919,61.473 62.691,61.680 63.455,58.831 62.682,58.624 62.941,57.658 49.563,54.073" style="fill:none;stroke-width:0.050000mm;stroke:black"/>
<polygon points="173.720,56.023 173.978,56.989 173.206,57.196 173.969,60.045 174.742,59.838 176.282,65.585 175.509,65.792 176.273,68.642 177.045,68.435 177.304,69.401 190.682,65.816 190.423,64.850 191.196,64.642 190.433,61.794 189.660,62.001 188.120,56.253 188.893,56.046 188.129,53.197 187.356,53.404 187.098,52.438" style="fill:none;stroke-width:0.050000mm;stroke:black"/>
<polygon points="256.854,53.469 257.113,54.435 256.340,54.642 257.102,57.491 257.876,57.284 259.416,63.032 258.643,63.239 259.407,66.088 260.179,65.881 260.438,66.847 273.817,63.262 273.558,62.296 274.330,62.089 273.567,59.240 272.794,59.447 271.254,53.700 272.027,53.493 271.263,50.643 270.491,50.850 270.232,49.884" style="fill:none;stroke-width:0.050000mm;stroke:black"/>
<polygon points="104.837,50.197 104.064,49.990 103.301,52.840 104.073,53.047 102.533,58.794 101.761,58.587 100.997,61.436 101.770,61.643 101.511,62.609 114.889,66.194 115.148,65.228 115.921,65.435 116.684,62.586 115.912,62.379 117.452,56.631 118.224,56.838 118.988,53.989 118.215,53.782 118.474,52.816 105.096,49.231" style="fill:none;stroke-width:0.050000mm;stroke:black"/>
<polygon points="30.903,50.109 30.130,49.902 29.367,52.751 30.140,52.958 28.600,58.705 27.827,58.498 27.063,61.348 27.836,61.555 27.577,62.521 40.955,66.106 41.214,65.139 41.987,65.347 42.750,62.497 41.978,62.290 43.518,56.543 44.290,56.750 45.054,53.900 44.281,53.693 44.540,52.727 31.162,49.143" style="fill:none;stroke-width:0.050000mm;stroke:black"/>
<polygon points="192.120,51.092 192.379,52.058 191.606,52.265 192.370,55.115 193.143,54.908 194.683,60.655 193.910,60.862 194.673,63.711 195.446,63.504 195.705,64.469 209.083,60.886 208.824,59.920 209.597,59.713 208.834,56.863 208.061,57.070 206.521,51.323 207.294,51.116 206.530,48.266 205.757,48.473 205.498,47.508" style="fill:none;stroke-width:0.050000mm;stroke:black"/>
<polygon points="86.436,45.267 85.663,45.060 84.900,47.909 85.673,48.116 84.133,53.863 83.360,53.656 82.596,56.506 83.369,56.713 83.110,57.679 96.488,61.264 96.747,60.298 97.520,60.505 98.283,57.655 97.511,57.448 99.051,51.701 99.823,51.908 100.587,49.058 99.814,48.851 100.073,47.885 86.695,44.301" style="fill:none;stroke-width:0.050000mm;stroke:black"/>
<polygon points="210.521,46.162 210.780,47.128 210.007,47.335 210.771,50.184 211.544,49.977 213.084,55.724 212.311,55.931 213.074,58.781 213.847,58.574 214.106,59.540 227.484,55.955 227.225,54.989 227.998,54.782 227.234,51.933 226.462,52.140 224.922,46.392 225.694,46.185 224.931,43.336 224.158,43.543 223.899,42.577" style="fill:none;stroke-width:0.050000mm;stroke:black"/>
<polygon points="68.035,40.336 67.262,40.129 66.499,42.979 67.272,43.186 65.732,48.933 64.959,48.726 64.195,51.575 64.968,51.782 64.709,52.748 78.087,56.333 78.346,55.367 79.119,55.574 79.883,52.725 79.110,52.518 80.650,46.770 81.422,46.977 82.186,44.128 81.413,43.921 81.672,42.955 68.294,39.370" style="fill:none;stroke-width:0.050000mm;stroke:black"/>
<polygon points="228.922,41.231 229.181,42.197 228.408,42.404 229.172,45.254 229.945,45.047 231.484,50.794 230.712,51.001 231.475,53.850 232.248,53.643 232.507,54.609 245.885,51.025 245.626,50.059 246.399,49.852 245.635,47.002 244.863,47.209 243.323,41.462 244.095,41.255 243.332,38.405 242.559,38.612 242.300,37.647" style="fill:none;stroke-width:0.050000mm;stroke:black"/>
<polygon points="49.634,35.406 48.862,35.199 48.098,38.048 48.871,38.255 47.331,44.002 46.558,43.795 45.795,46.645 46.567,46.852 46.308,47.818 59.687,51.403 59.945,50.437 60.718,50.644 61.482,47.794 60.709,47.587 62.249,41.840 63.022,42.047 63.785,39.197 63.012,38.990 63.271,38.024 49.893,34.440" style="fill:none;stroke-width:0.050000mm;stroke:black"/>
<polygon points="251.923,35.068 252.182,36.034 251.409,36.241 252.173,39.091 252.946,38.883 254.486,44.631 253.713,44.838 254.476,47.687 255.249,47.480 255.508,48.446 268.886,44.862 268.627,43.896 269.400,43.689 268.636,40.839 267.864,41.046 266.324,35.299 267.096,35.092 266.333,32.242 265.560,32.449 265.301,31.483" style="fill:none;stroke-width:0.050000mm;stroke:black"/>
<polygon points="31.233,30.475 30.461,30.268 29.697,33.118 30.470,33.325 28.930,39.072 28.157,38.865 27.394,41.714 28.166,41.921 27.908,42.887 41.286,46.472 41.544,45.506 42.317,45.713 43.081,42.864 42.308,42.657 43.848,36.909 44.621,37.116 45.384,34.267 44.611,34.060 44.870,33.094 31.492,29.509" style="fill:none;stroke-width:0.050000mm;stroke:black"/>
<polygon points="12.058,10.982 11.591,11.220 11.220,11.591 10.982,12.058 10.901,12.576 10.982,13.093 11.220,13.560 11.591,13.931 12.058,14.169 12.576,14.251 13.093,14.169 13.560,13.931 13.931,13.560 14.169,13.093 14.251,12.576 14.169,12.058 13.931,11.591 13.560,11.220 13.093,10.982 12.576,10.901" style="fill:none;stroke-width:0.050000mm;stroke:black"/>
<polygon points="288.984,10.982 288.518,11.220 288.147,11.591 287.909,12.058 287.827,12.576 287.909,13.093 288.147,13.560 288.518,13.931 288.984,14.169 289.502,14.251 290.020,14.169 290.487,13.931 290.857,13.560 291.095,13.093 291.177,12.576 291.095,12.058 290.857,11.591 290.487,11.220 290.020,10.982 289.502,10.900" style="fill:none;stroke-width:0.050000mm;stroke:black"/>
<polygon points="196.676,10.982 196.209,11.220 195.838,11.591 195.600,12.058 195.518,12.576 195.600,13.093 195.838,13.560 196.209,13.931 196.676,14.169 197.193,14.251 197.711,14.169 198.178,13.931 198.548,13.560 198.786,13.093 198.868,12.576 198.786,12.058 198.548,11.591 198.178,11.220 197.711,10.982 197.193,10.900" style="fill:none;stroke-width:0.050000mm;stroke:black"/>
<polygon points="104.367,10.982 103.900,11.220 103.529,11.591 103.291,12.058 103.209,12.576 103.291,13.093 103.529,13.560 103.900,13.931 104.367,14.169 104.884,14.251 105.402,14.169 105.869,13.931 106.239,13.560 106.477,13.093 106.559,12.576 106.477,12.058 106.239,11.591 105.869,11.220 105.402,10.982 104.884,10.900" style="fill:none;stroke-width:0.050000mm;stroke:black"/>
</svg>