<?xml version="1.0" encoding="UTF-8"?>
<!-- Generated by SVGo -->
<svg width="288.321mm" height="129.188mm" viewBox="0.000 0.000 288.321 129.188" xmlns="http://www.w3.org/2000/svg" xmlns:xlink="http://www.w3.org/1999/xlink">
<polygon points="283.321,124.188 5.000,124.188 5.000,5.000 283.321,5.000" style="fill:none;stroke-width:0.050000mm;stroke:black"/>
<polygon points="9.480,117.282 8.943,117.556 8.517,117.981 8.244,118.518 8.148,119.113 8.244,119.708 8.517,120.244 8.943,120.670 9.480,120.944 10.074,121.038 10.669,120.944 11.206,120.670 11.632,120.244 11.905,119.708 11.999,119.113 11.905,118.518 11.632,117.981 11.206,117.556 10.669,117.282 10.074,117.188" style="fill:none;stroke-width:0.050000mm;stroke:black"/>
<polygon points="98.870,117.282 98.333,117.556 97.908,117.981 97.634,118.518 97.540,119.113 97.634,119.708 97.908,120.244 98.333,120.670 98.870,120.944 99.465,121.038 100.060,120.944 100.596,120.670 101.022,120.244 101.296,119.708 101.390,119.113 101.296,118.518 101.022,117.981 100.596,117.556 100.060,117.282 99.465,117.188" style="fill:none;stroke-width:0.050000mm;stroke:black"/>
<polygon points="188.260,117.282 187.724,117.556 187.298,117.981 187.025,118.518 186.930,119.113 187.025,119.708 187.298,120.244 187.724,120.670 188.260,120.944 188.855,121.038 189.450,120.944 189.987,120.670 190.413,120.244 190.686,119.708 190.780,119.113 190.686,118.518 190.413,117.981 189.987,117.556 189.450,117.282 188.855,117.188" style="fill:none;stroke-width:0.050000mm;stroke:black"/>
<polygon points="277.651,117.282 277.114,117.556 276.688,117.981 276.415,118.518 276.321,119.113 276.415,119.708 276.688,120.244 277.114,120.670 277.651,120.944 278.246,121.038 278.841,120.944 279.377,120.670 279.803,120.244 280.076,119.708 280.171,119.113 280.076,118.518 279.803,117.981 279.377,117.556 278.841,117.282 278.246,117.188" style="fill:none;stroke-width:0.050000mm;stroke:black"/>
<polygon points="124.325,96.040 123.538,95.901 123.025,98.806 123.813,98.945 122.780,104.805 121.992,104.666 121.480,107.571 122.268,107.710 122.094,108.695 135.734,111.100 135.907,110.115 136.695,110.254 137.207,107.349 136.420,107.210 137.453,101.350 138.241,101.489 138.753,98.584 137.965,98.445 138.139,97.460 124.499,95.055" style="fill:none;stroke-width:0.050000mm;stroke:black"/>
<polygon points="151.548,97.227 151.722,98.212 150.934,98.351 151.446,101.256 152.234,101.117 153.268,106.977 152.480,107.116 152.992,110.021 153.780,109.882 153.953,110.867 167.593,108.462 167.419,107.477 168.207,107.338 167.695,104.433 166.907,104.572 165.874,98.712 166.662,98.573 166.149,95.668 165.362,95.807 165.188,94.822" style="fill:none;stroke-width:0.050000mm;stroke:black"/>
<polygon points="100.875,91.905 100.087,91.766 99.575,94.671 100.362,94.810 99.329,100.670 98.541,100.531 98.029,103.436 98.817,103.575 98.643,104.560 112.283,106.965 112.457,105.980 113.244,106.119 113.757,103.214 112.969,103.075 114.002,97.215 114.790,97.354 115.302,94.449 114.514,94.310 114.688,93.325 101.048,90.920" style="fill:none;stroke-width:0.050000mm;stroke:black"/>
<polygon points="174.999,93.092 175.173,94.077 174.385,94.216 174.897,97.121 175.685,96.982 176.718,102.842 175.930,102.981 176.443,105.886 177.231,105.747 177.404,106.732 191.044,104.327 190.870,103.342 191.658,103.203 191.146,100.298 190.358,100.437 189.325,94.577 190.112,94.438 189.600,91.533 188.812,91.672 188.639,90.687" style="fill:none;stroke-width:0.050000mm;stroke:black"/>
<polygon points="35.213,80.327 34.425,80.188 33.912,83.093 34.700,83.232 33.667,89.092 32.879,88.953 32.366,91.858 33.155,91.997 32.981,92.982 46.621,95.387 46.794,94.402 47.582,94.541 48.095,91.636 47.307,91.497 48.340,85.637 49.128,85.776 49.640,82.871 48.852,82.732 49.026,81.747 35.386,79.342" style="fill:none;stroke-width:0.050000mm;stroke:black"/>
<polygon points="240.661,81.514 240.835,82.499 240.047,82.638 240.559,85.543 241.347,85.404 242.380,91.264 241.592,91.403 242.105,94.308 242.893,94.169 243.066,95.154 256.706,92.749 256.531,91.764 257.320,91.625 256.808,88.720 256.019,88.859 254.987,82.999 255.775,82.860 255.262,79.955 254.474,80.094 254.301,79.109" style="fill:none;stroke-width:0.050000mm;stroke:black"/>
<polygon points="122.943,76.452 122.155,76.313 121.643,79.219 122.431,79.358 121.398,85.217 120.610,85.078 120.098,87.983 120.886,88.122 120.712,89.107 134.351,91.512 134.525,90.527 135.313,90.666 135.825,87.761 135.037,87.622 136.071,81.763 136.858,81.901 137.371,78.996 136.583,78.857 136.756,77.873 123.117,75.468" style="fill:none;stroke-width:0.050000mm;stroke:black"/>
<polygon points="152.931,77.640 153.104,78.624 152.316,78.763 152.829,81.668 153.616,81.530 154.650,87.389 153.862,87.528 154.374,90.433 155.162,90.294 155.336,91.279 168.975,88.874 168.802,87.889 169.589,87.750 169.077,84.845 168.289,84.984 167.256,79.125 168.044,78.986 167.532,76.080 166.744,76.219 166.570,75.235" style="fill:none;stroke-width:0.050000mm;stroke:black"/>
<polygon points="104.183,73.144 103.395,73.005 102.883,75.911 103.670,76.050 102.637,81.909 101.849,81.770 101.337,84.675 102.125,84.814 101.951,85.799 115.591,88.204 115.765,87.219 116.552,87.358 117.065,84.453 116.277,84.314 117.310,78.455 118.098,78.593 118.610,75.688 117.822,75.549 117.996,74.565 104.356,72.160" style="fill:none;stroke-width:0.050000mm;stroke:black"/>
<polygon points="171.691,74.332 171.865,75.316 171.077,75.455 171.589,78.360 172.377,78.222 173.410,84.081 172.622,84.220 173.135,87.125 173.923,86.986 174.096,87.971 187.736,85.566 187.562,84.581 188.350,84.442 187.838,81.537 187.050,81.676 186.017,75.817 186.804,75.678 186.292,72.772 185.504,72.911 185.331,71.927" style="fill:none;stroke-width:0.050000mm;stroke:black"/>
<polygon points="85.422,69.836 84.634,69.697 84.122,72.603 84.910,72.742 83.877,78.601 83.089,78.462 82.576,81.367 83.364,81.506 83.191,82.491 96.830,84.896 97.004,83.911 97.792,84.050 98.304,81.145 97.516,81.006 98.549,75.147 99.337,75.285 99.849,72.380 99.062,72.241 99.235,71.257 85.596,68.852" style="fill:none;stroke-width:0.050000mm;stroke:black"/>
<polygon points="190.452,71.024 190.625,72.008 189.838,72.147 190.350,75.052 191.138,74.914 192.171,80.773 191.383,80.912 191.895,83.817 192.683,83.678 192.857,84.663 206.496,82.258 206.323,81.273 207.111,81.134 206.598,78.229 205.810,78.368 204.777,72.509 205.565,72.370 205.053,69.464 204.265,69.603 204.091,68.619" style="fill:none;stroke-width:0.050000mm;stroke:black"/>
<polygon points="66.661,66.528 65.874,66.389 65.361,69.295 66.149,69.434 65.116,75.293 64.328,75.154 63.816,78.059 64.604,78.198 64.430,79.183 78.070,81.588 78.243,80.603 79.031,80.742 79.543,77.837 78.756,77.698 79.789,71.839 80.577,71.977 81.089,69.072 80.301,68.933 80.475,67.949 66.835,65.544" style="fill:none;stroke-width:0.050000mm;stroke:black"/>
<polygon points="209.212,67.716 209.386,68.700 208.598,68.839 209.110,71.744 209.898,71.606 210.931,77.465 210.144,77.604 210.656,80.509 211.444,80.370 211.617,81.355 225.257,78.950 225.083,77.965 225.871,77.826 225.359,74.921 224.571,75.060 223.538,69.201 224.326,69.062 223.813,66.156 223.026,66.295 222.852,65.311" style="fill:none;stroke-width:0.050000mm;stroke:black"/>
<polygon points="47.901,63.220 47.113,63.081 46.601,65.987 47.389,66.126 46.355,71.985 45.568,71.846 45.055,74.751 45.843,74.890 45.670,75.875 59.309,78.280 59.483,77.295 60.271,77.434 60.783,74.529 59.995,74.390 61.028,68.531 61.816,68.669 62.328,65.764 61.540,65.625 61.714,64.641 48.075,62.236" style="fill:none;stroke-width:0.050000mm;stroke:black"/>
<polygon points="227.973,64.408 228.147,65.391 227.359,65.531 227.871,68.436 228.659,68.298 229.692,74.157 228.904,74.296 229.416,77.201 230.204,77.062 230.378,78.047 244.018,75.642 243.844,74.657 244.632,74.518 244.119,71.613 243.332,71.752 242.298,65.893 243.086,65.754 242.574,62.848 241.786,62.987 241.612,62.003" style="fill:none;stroke-width:0.050000mm;stroke:black"/>
<polygon points="246.733,61.100 246.907,62.084 246.119,62.223 246.632,65.128 247.419,64.989 248.453,70.849 247.665,70.988 248.177,73.893 248.965,73.754 249.139,74.739 262.778,72.334 262.604,71.349 263.392,71.210 262.880,68.305 262.091,68.444 261.059,62.585 261.846,62.446 261.334,59.540 260.547,59.679 260.373,58.695" style="fill:none;stroke-width:0.050000mm;stroke:black"/>
<polygon points="26.795,59.499 26.007,59.360 25.495,62.265 26.283,62.404 25.250,68.264 24.462,68.125 23.950,71.030 24.737,71.169 24.564,72.154 38.203,74.559 38.377,73.574 39.165,73.713 39.677,70.808 38.889,70.669 39.923,64.809 40.710,64.947 41.223,62.043 40.435,61.904 40.608,60.919 26.969,58.514" style="fill:none;stroke-width:0.050000mm;stroke:black"/>
<polygon points="116.871,56.038 116.083,55.899 115.571,58.804 116.359,58.943 115.325,64.803 114.538,64.664 114.025,67.569 114.813,67.708 114.640,68.693 128.279,71.098 128.453,70.113 129.241,70.252 129.752,67.346 128.965,67.208 129.997,61.348 130.786,61.487 131.298,58.582 130.511,58.443 130.684,57.458 117.045,55.053" style="fill:none;stroke-width:0.050000mm;stroke:black"/>
<polygon points="159.003,57.225 159.177,58.210 158.389,58.349 158.901,61.254 159.689,61.115 160.722,66.975 159.934,67.114 160.446,70.019 161.234,69.880 161.408,70.865 175.047,68.460 174.874,67.475 175.662,67.336 175.149,64.431 174.362,64.569 173.328,58.710 174.116,58.571 173.604,55.666 172.816,55.805 172.642,54.820" style="fill:none;stroke-width:0.050000mm;stroke:black"/>
<polygon points="98.110,52.730 97.323,52.591 96.810,55.496 97.598,55.635 96.565,61.495 95.777,61.356 95.265,64.260 96.053,64.400 95.879,65.385 109.519,67.790 109.692,66.805 110.480,66.944 110.992,64.038 110.204,63.900 111.238,58.040 112.026,58.179 112.538,55.274 111.750,55.135 111.924,54.150 98.284,51.745" style="fill:none;stroke-width:0.050000mm;stroke:black"/>
<polygon points="177.763,53.917 177.937,54.902 177.149,55.041 177.662,57.946 178.449,57.807 179.483,63.667 178.695,63.806 179.207,66.711 179.995,66.572 180.168,67.557 193.808,65.152 193.634,64.167 194.422,64.028 193.910,61.123 193.122,61.262 192.089,55.402 192.877,55.263 192.365,52.358 191.577,52.497 191.403,51.512" style="fill:none;stroke-width:0.050000mm;stroke:black"/>
<polygon points="79.350,49.422 78.562,49.283 78.050,52.188 78.838,52.327 77.804,58.187 77.016,58.048 76.504,60.953 77.292,61.092 77.118,62.077 90.758,64.482 90.932,63.497 91.719,63.636 92.232,60.730 91.444,60.592 92.477,54.732 93.265,54.871 93.777,51.966 92.989,51.827 93.163,50.842 79.523,48.437" style="fill:none;stroke-width:0.050000mm;stroke:black"/>
<polygon points="196.524,50.609 196.698,51.594 195.910,51.733 196.422,54.638 197.210,54.499 198.243,60.359 197.455,60.498 197.968,63.403 198.755,63.264 198.929,64.248 212.569,61.844 212.395,60.859 213.183,60.720 212.671,57.815 211.883,57.954 210.850,52.094 211.637,51.955 211.125,49.050 210.337,49.189 210.164,48.204" style="fill:none;stroke-width:0.050000mm;stroke:black"/>
<polygon points="60.589,46.114 59.801,45.975 59.289,48.880 60.077,49.019 59.044,54.879 58.256,54.740 57.744,57.645 58.531,57.784 58.358,58.769 71.997,61.174 72.171,60.189 72.959,60.328 73.471,57.422 72.683,57.284 73.717,51.424 74.504,51.563 75.017,48.658 74.229,48.519 74.402,47.534 60.763,45.129" style="fill:none;stroke-width:0.050000mm;stroke:black"/>
<polygon points="215.285,47.301 215.458,48.286 214.670,48.425 215.183,51.330 215.971,51.191 217.004,57.051 216.216,57.190 216.728,60.095 217.516,59.956 217.690,60.941 231.329,58.536 231.156,57.551 231.943,57.412 231.431,54.507 230.643,54.646 229.610,48.786 230.398,48.647 229.886,45.742 229.098,45.881 228.924,44.896" style="fill:none;stroke-width:0.050000mm;stroke:black"/>
<polygon points="41.829,42.806 41.041,42.667 40.528,45.572 41.316,45.711 40.283,51.571 39.495,51.432 38.983,54.337 39.771,54.476 39.597,55.461 53.237,57.866 53.410,56.881 54.198,57.020 54.711,54.114 53.923,53.976 54.956,48.116 55.744,48.255 56.256,45.350 55.468,45.211 55.642,44.226 42.002,41.821" style="fill:none;stroke-width:0.050000mm;stroke:black"/>
<polygon points="234.045,43.993 234.219,44.978 233.431,45.117 233.943,48.022 234.731,47.883 235.764,53.743 234.976,53.882 235.489,56.787 236.277,56.648 236.450,57.633 250.090,55.228 249.916,54.243 250.704,54.104 250.192,51.199 249.404,51.338 248.371,45.478 249.159,45.339 248.646,42.434 247.858,42.573 247.685,41.588" style="fill:none;stroke-width:0.050000mm;stroke:black"/>
<polygon points="23.068,39.498 22.280,39.359 21.768,42.264 22.556,42.403 21.523,48.263 20.735,48.124 20.222,51.029 21.010,51.168 20.837,52.153 34.476,54.558 34.650,53.573 35.438,53.712 35.950,50.806 35.162,50.668 36.195,44.808 36.983,44.947 37.495,42.042 36.708,41.903 36.881,40.918 23.242,38.513" style="fill:none;stroke-width:0.050000mm;stroke:black"/>
<polygon points="252.806,40.685 252.979,41.670 252.192,41.809 252.704,44.714 253.492,44.575 254.525,50.435 253.737,50.574 254.249,53.479 255.037,53.340 255.211,54.325 268.850,51.920 268.677,50.935 269.465,50.796 268.952,47.891 268.164,48.030 267.131,42.170 267.919,42.031 267.407,39.126 266.619,39.265 266.445,38.280" style="fill:none;stroke-width:0.050000mm;stroke:black"/>
<polygon points="151.005,39.291 151.178,40.276 150.391,40.415 150.903,43.320 151.691,43.181 152.724,49.041 151.936,49.180 152.448,52.085 153.236,51.946 153.410,52.931 167.049,50.526 166.876,49.541 167.664,49.402 167.151,46.497 166.363,46.636 165.330,40.776 166.118,40.637 165.606,37.732 164.818,37.871 164.644,36.886" style="fill:none;stroke-width:0.050000mm;stroke:black"/>
<polygon points="115.489,36.450 114.701,36.311 114.189,39.216 114.977,39.355 113.943,45.215 113.155,45.076 112.643,47.981 113.431,48.120 113.257,49.105 126.897,51.510 127.071,50.525 127.858,50.664 128.371,47.759 127.583,47.620 128.616,41.760 129.404,41.899 129.916,38.994 129.127,38.855 129.300,37.870 115.662,35.465" style="fill:none;stroke-width:0.050000mm;stroke:black"/>
<polygon points="169.765,35.983 169.939,36.968 169.151,37.107 169.663,40.012 170.451,39.873 171.484,45.733 170.697,45.872 171.209,48.777 171.997,48.638 172.170,49.623 185.810,47.218 185.636,46.233 186.424,46.094 185.912,43.189 185.124,43.328 184.091,37.468 184.879,37.329 184.366,34.424 183.579,34.563 183.405,33.578" style="fill:none;stroke-width:0.050000mm;stroke:black"/>
<polygon points="96.728,33.142 95.940,33.003 95.428,35.908 96.216,36.047 95.183,41.907 94.395,41.768 93.883,44.673 94.670,44.812 94.497,45.797 108.136,48.202 108.310,47.217 109.098,47.356 109.610,44.451 108.822,44.312 109.856,38.452 110.643,38.591 111.156,35.686 110.368,35.547 110.541,34.562 96.902,32.156" style="fill:none;stroke-width:0.050000mm;stroke:black"/>
<polygon points="188.526,32.674 188.700,33.660 187.912,33.799 188.424,36.704 189.212,36.565 190.245,42.425 189.457,42.564 189.969,45.469 190.757,45.330 190.931,46.315 204.570,43.910 204.397,42.925 205.185,42.786 204.672,39.881 203.885,40.020 202.851,34.160 203.639,34.021 203.127,31.116 202.339,31.255 202.165,30.270" style="fill:none;stroke-width:0.050000mm;stroke:black"/>
<polygon points="77.968,29.834 77.180,29.695 76.668,32.600 77.455,32.738 76.422,38.599 75.634,38.460 75.122,41.365 75.910,41.504 75.736,42.489 89.376,44.894 89.549,43.909 90.337,44.048 90.850,41.143 90.062,41.004 91.095,35.144 91.883,35.283 92.395,32.378 91.607,32.238 91.781,31.254 78.141,28.849" style="fill:none;stroke-width:0.050000mm;stroke:black"/>
<polygon points="207.286,29.367 207.460,30.352 206.672,30.491 207.185,33.396 207.972,33.257 209.006,39.117 208.218,39.256 208.730,42.161 209.518,42.022 209.691,43.007 223.331,40.602 223.157,39.617 223.945,39.478 223.433,36.573 222.645,36.712 221.612,30.852 222.400,30.713 221.888,27.808 221.100,27.947 220.926,26.962" style="fill:none;stroke-width:0.050000mm;stroke:black"/>
<polygon points="59.207,26.526 58.419,26.387 57.907,29.292 58.695,29.431 57.662,35.291 56.874,35.152 56.361,38.057 57.149,38.196 56.976,39.181 70.615,41.586 70.789,40.601 71.577,40.740 72.089,37.835 71.301,37.696 72.334,31.836 73.122,31.975 73.634,29.070 72.847,28.931 73.020,27.946 59.381,25.541" style="fill:none;stroke-width:0.050000mm;stroke:black"/>
<polygon points="226.047,26.059 226.221,27.044 225.433,27.183 225.945,30.088 226.733,29.949 227.766,35.809 226.978,35.948 227.491,38.853 228.278,38.714 228.452,39.699 242.092,37.294 241.918,36.309 242.706,36.170 242.194,33.265 241.406,33.404 240.373,27.544 241.160,27.405 240.648,24.500 239.860,24.639 239.687,23.654" style="fill:none;stroke-width:0.050000mm;stroke:black"/>
<polygon points="40.446,23.218 39.659,23.079 39.146,25.984 39.934,26.123 38.901,31.983 38.113,31.844 37.601,34.749 38.389,34.888 38.215,35.873 51.855,38.278 52.028,37.293 52.816,37.432 53.328,34.527 52.541,34.388 53.574,28.528 54.362,28.667 54.874,25.762 54.086,25.623 54.260,24.638 40.620,22.233" style="fill:none;stroke-width:0.050000mm;stroke:black"/>
<polygon points="249.498,21.924 249.671,22.909 248.884,23.048 249.396,25.953 250.184,25.814 251.217,31.674 250.429,31.813 250.941,34.718 251.729,34.579 251.903,35.564 265.542,33.159 265.369,32.174 266.157,32.034 265.644,29.130 264.856,29.269 263.823,23.409 264.611,23.270 264.099,20.365 263.311,20.504 263.137,19.519" style="fill:none;stroke-width:0.050000mm;stroke:black"/>
<polygon points="21.686,19.910 20.898,19.771 20.386,22.676 21.174,22.815 20.140,28.675 19.353,28.536 18.840,31.441 19.628,31.580 19.454,32.564 33.094,34.970 33.268,33.985 34.056,34.124 34.568,31.219 33.780,31.080 34.813,25.220 35.601,25.359 36.113,22.454 35.325,22.315 35.499,21.330 21.859,18.925" style="fill:none;stroke-width:0.050000mm;stroke:black"/>
<polygon points="9.480,8.244 8.943,8.517 8.517,8.943 8.244,9.480 8.148,10.075 8.244,10.669 8.517,11.206 8.943,11.632 9.480,11.905 10.074,12.000 10.669,11.905 11.206,11.632 11.632,11.206 11.905,10.669 11.999,10.075 11.905,9.480 11.632,8.943 11.206,8.517 10.669,8.244 10.074,8.150" style="fill:none;stroke-width:0.050000mm;stroke:black"/>
<polygon points="277.651,8.244 277.114,8.517 276.688,8.943 276.415,9.480 276.321,10.075 276.415,10.669 276.688,11.206 277.114,11.632 277.651,11.905 278.246,12.000 278.841,11.905 279.377,11.632 279.803,11.206 280.076,10.669 280.171,10.075 280.076,9.480 279.803,8.943 279.377,8.517 278.841,8.244 278.246,8.148" style="fill:none;stroke-width:0.050000mm;stroke:black"/>
<polygon points="188.260,8.244 187.724,8.517 187.298,8.943 187.025,9.480 186.930,10.075 187.025,10.669 187.298,11.206 187.724,11.632 188.260,11.905 188.855,12.000 189.450,11.905 189.987,11.632 190.413,11.206 190.686,10.669 190.780,10.075 190.686,9.480 190.413,8.943 189.987,8.517 189.450,8.244 188.855,8.148" style="fill:none;stroke-width:0.050000mm;stroke:black"/>
<polygon points="98.870,8.244 98.333,8.517 97.908,8.943 97.634,9.480 97.540,10.075 97.634,10.669 97.908,11.206 98.333,11.632 98.870,11.905 99.465,12.000 100.060,11.905 100.596,11.632 101.022,11.206 101.296,10.669 101.390,10.075 101.296,9.480 101.022,8.943 100.596,8.517 100.060,8.244 99.465,8.148" style="fill:none;stroke-width:0.050000mm;stroke:black"/>
</svg>