<?xml version="1.0" encoding="UTF-8"?>
<!-- Generated by SVGo -->
<svg width="282.076mm" height="140.259mm" viewBox="0.000 0.000 282.076 140.259" xmlns="http://www.w3.org/2000/svg" xmlns:xlink="http://www.w3.org/1999/xlink">
<polygon points="277.076,135.259 5.000,135.259 5.000,5.000 277.076,5.000" style="fill:none;stroke-width:0.050000mm;stroke:black"/>
<polygon points="5.551,134.612 5.530,134.623 5.514,134.640 5.503,134.661 5.499,134.684 5.503,134.707 5.514,134.728 5.530,134.744 5.551,134.755 5.574,134.759 5.598,134.755 5.619,134.744 5.635,134.728 5.646,134.707 5.649,134.684 5.646,134.661 5.635,134.640 5.619,134.623 5.598,134.612 5.574,134.609" style="fill:none;stroke-width:0.050000mm;stroke:black"/>
<polygon points="276.478,134.612 276.457,134.623 276.440,134.640 276.430,134.661 276.426,134.684 276.430,134.707 276.440,134.728 276.457,134.744 276.478,134.755 276.501,134.759 276.524,134.755 276.545,134.744 276.562,134.728 276.572,134.707 276.576,134.684 276.572,134.661 276.562,134.640 276.545,134.623 276.524,134.612 276.501,134.609" style="fill:none;stroke-width:0.050000mm;stroke:black"/>
<polygon points="234.138,24.461 234.138,24.460 142.132,49.113 147.063,67.516 151.664,66.283 156.593,84.682 147.393,87.147 152.324,105.548 147.723,106.781 152.654,125.184 198.658,112.857 193.728,94.456 207.527,90.758 207.527,90.759 235.127,83.363 240.058,101.764 258.461,96.833 253.531,78.432 262.731,75.967 257.801,57.566 267.001,55.101 262.070,36.700 266.671,35.467 261.740,17.064" style="fill:none;stroke-width:0.050000mm;stroke:black"/>
<polygon points="14.721,34.726 19.321,35.959 14.391,54.359 18.991,55.591 14.060,73.993 27.862,77.691 22.931,96.091 41.333,101.022 46.264,82.622 87.664,93.715 82.734,112.115 128.738,124.442 133.669,106.039 129.068,104.806 133.999,86.406 124.799,83.941 129.729,65.540 125.128,64.307 130.059,45.906 93.258,36.046 93.258,36.045 19.652,16.323" style="fill:none;stroke-width:0.050000mm;stroke:black"/>
<polygon points="276.478,5.503 276.457,5.514 276.440,5.530 276.430,5.551 276.426,5.574 276.430,5.598 276.440,5.619 276.457,5.635 276.478,5.646 276.501,5.650 276.524,5.646 276.545,5.635 276.562,5.619 276.572,5.598 276.576,5.574 276.572,5.551 276.562,5.530 276.545,5.514 276.524,5.503 276.501,5.499" style="fill:none;stroke-width:0.050000mm;stroke:black"/>
<polygon points="5.551,5.503 5.530,5.514 5.514,5.530 5.503,5.551 5.499,5.574 5.503,5.598 5.514,5.619 5.530,5.635 5.551,5.646 5.574,5.649 5.598,5.646 5.619,5.635 5.635,5.619 5.646,5.598 5.649,5.574 5.646,5.551 5.635,5.530 5.619,5.514 5.598,5.503 5.574,5.499" style="fill:none;stroke-width:0.050000mm;stroke:black"/>
</svg>