<?xml version="1.0" encoding="UTF-8"?>
<!-- Generated by SVGo -->
<svg width="288.321mm" height="129.188mm" viewBox="0.000 0.000 288.321 129.188" xmlns="http://www.w3.org/2000/svg" xmlns:xlink="http://www.w3.org/1999/xlink">
<polygon points="283.321,124.188 5.000,124.188 5.000,5.000 283.321,5.000" style="fill:none;stroke-width:0.050000mm;stroke:black"/>
<polygon points="9.480,117.282 8.943,117.556 8.517,117.981 8.244,118.518 8.148,119.113 8.244,119.708 8.517,120.244 8.943,120.670 9.480,120.944 10.074,121.038 10.669,120.944 11.206,120.670 11.632,120.244 11.905,119.708 11.999,119.113 11.905,118.518 11.632,117.981 11.206,117.556 10.669,117.282 10.074,117.188" style="fill:none;stroke-width:0.050000mm;stroke:black"/>
<polygon points="98.870,117.282 98.333,117.556 97.908,117.981 97.634,118.518 97.540,119.113 97.634,119.708 97.908,120.244 98.333,120.670 98.870,120.944 99.465,121.038 100.060,120.944 100.596,120.670 101.022,120.244 101.296,119.708 101.390,119.113 101.296,118.518 101.022,117.981 100.596,117.556 100.060,117.282 99.465,117.188" style="fill:none;stroke-width:0.050000mm;stroke:black"/>
<polygon points="188.260,117.282 187.724,117.556 187.298,117.981 187.025,118.518 186.930,119.113 187.025,119.708 187.298,120.244 187.724,120.670 188.260,120.944 188.855,121.038 189.450,120.944 189.987,120.670 190.413,120.244 190.686,119.708 190.780,119.113 190.686,118.518 190.413,117.981 189.987,117.556 189.450,117.282 188.855,117.188" style="fill:none;stroke-width:0.050000mm;stroke:black"/>
<polygon points="277.651,117.282 277.114,117.556 276.688,117.981 276.415,118.518 276.321,119.113 276.415,119.708 276.688,120.244 277.114,120.670 277.651,120.944 278.246,121.038 278.841,120.944 279.377,120.670 279.803,120.244 280.076,119.708 280.171,119.113 280.076,118.518 279.803,117.981 279.377,117.556 278.841,117.282 278.246,117.188" style="fill:none;stroke-width:0.050000mm;stroke:black"/>
<polygon points="16.441,34.675 21.132,35.502 17.823,54.262 22.514,55.089 19.206,73.850 33.276,76.331 29.968,95.092 48.731,98.400 52.039,79.639 94.248,87.082 90.940,105.843 137.843,114.113 141.152,95.350 136.461,94.523 139.770,75.763 130.389,74.109 133.697,55.348 129.007,54.521 132.315,35.761 113.553,32.452 113.553,32.453 94.792,29.144 94.792,29.145 76.031,25.836 76.031,25.837 57.271,22.528 57.271,22.529 38.510,19.220 38.510,19.221 19.750,15.912" style="fill:none;stroke-width:0.050000mm;stroke:black"/>
<polygon points="241.796,20.642 241.796,20.641 223.036,23.950 223.036,23.949 204.275,27.258 204.275,27.257 185.515,30.566 185.515,30.565 166.754,33.874 166.754,33.873 147.992,37.182 151.300,55.944 155.990,55.117 159.298,73.876 149.917,75.530 153.226,94.290 148.535,95.117 151.844,113.880 198.747,105.610 195.439,86.849 237.648,79.406 240.956,98.167 259.719,94.859 256.411,76.098 265.791,74.444 262.483,55.683 271.864,54.029 268.555,35.269 273.246,34.442 269.937,15.679" style="fill:none;stroke-width:0.050000mm;stroke:black"/>
<polygon points="9.480,8.244 8.943,8.517 8.517,8.943 8.244,9.480 8.148,10.075 8.244,10.669 8.517,11.206 8.943,11.632 9.480,11.905 10.074,12.000 10.669,11.905 11.206,11.632 11.632,11.206 11.905,10.669 11.999,10.075 11.905,9.480 11.632,8.943 11.206,8.517 10.669,8.244 10.074,8.150" style="fill:none;stroke-width:0.050000mm;stroke:black"/>
<polygon points="277.651,8.244 277.114,8.517 276.688,8.943 276.415,9.480 276.321,10.075 276.415,10.669 276.688,11.206 277.114,11.632 277.651,11.905 278.246,12.000 278.841,11.905 279.377,11.632 279.803,11.206 280.076,10.669 280.171,10.075 280.076,9.480 279.803,8.943 279.377,8.517 278.841,8.244 278.246,8.148" style="fill:none;stroke-width:0.050000mm;stroke:black"/>
<polygon points="188.260,8.244 187.724,8.517 187.298,8.943 187.025,9.480 186.930,10.075 187.025,10.669 187.298,11.206 187.724,11.632 188.260,11.905 188.855,12.000 189.450,11.905 189.987,11.632 190.413,11.206 190.686,10.669 190.780,10.075 190.686,9.480 190.413,8.943 189.987,8.517 189.450,8.244 188.855,8.148" style="fill:none;stroke-width:0.050000mm;stroke:black"/>
<polygon points="98.870,8.244 98.333,8.517 97.908,8.943 97.634,9.480 97.540,10.075 97.634,10.669 97.908,11.206 98.333,11.632 98.870,11.905 99.465,12.000 100.060,11.905 100.596,11.632 101.022,11.206 101.296,10.669 101.390,10.075 101.296,9.480 101.022,8.943 100.596,8.517 100.060,8.244 99.465,8.148" style="fill:none;stroke-width:0.050000mm;stroke:black"/>
</svg>