<?xml version="1.0" encoding="UTF-8" standalone="no"?>
<!-- Generated by SVGo -->

<svg
   width="302.077mm"
   height="160.260mm"
   viewBox="0.000 0.000 302.077 160.260"
   version="1.1"
   id="svg28"
   sodipodi:docname="wip.svg"
   inkscape:version="1.1.1 (3bf5ae0d25, 2021-09-20, custom)"
   xmlns:inkscape="http://www.inkscape.org/namespaces/inkscape"
   xmlns:sodipodi="http://sodipodi.sourceforge.net/DTD/sodipodi-0.dtd"
   xmlns="http://www.w3.org/2000/svg"
   xmlns:svg="http://www.w3.org/2000/svg">
  <defs
     id="defs32" />
  <sodipodi:namedview
     id="namedview30"
     pagecolor="#505050"
     bordercolor="#eeeeee"
     borderopacity="1"
     inkscape:pageshadow="0"
     inkscape:pageopacity="0"
     inkscape:pagecheckerboard="0"
     inkscape:document-units="mm"
     showgrid="false"
     showguides="false"
     inkscape:zoom="1.23"
     inkscape:cx="538.21138"
     inkscape:cy="307.72358"
     inkscape:window-width="2476"
     inkscape:window-height="1330"
     inkscape:window-x="40"
     inkscape:window-y="66"
     inkscape:window-maximized="1"
     inkscape:current-layer="svg28" />
  <path
     id="rect4763"
     style="fill-opacity:0.0014062;stroke:#000000;stroke-width:0.189"
     sodipodi:type="inkscape:offset"
     inkscape:radius="0"
     inkscape:original="M 257.26172 0.083984375 C 227.46963 0.10704424 197.67705 0.085295695 167.88477 0.091796875 C 118.41833 0.096321495 68.950572 0.08526028 19.484375 0.109375 C 13.388013 0.36114921 7.8147753 3.9514039 4.1894531 8.7246094 C 1.4809255 12.235902 -0.12306521 16.654386 0.09375 21.115234 C 0.10320978 44.613534 0.06608518 68.113384 0.12304688 91.611328 C 0.42301 103.39794 5.0667494 115.02045 13.037109 123.7168 C 20.401277 131.88899 30.546469 137.48736 41.390625 139.3418 C 46.377375 140.28252 51.469719 140.07027 56.517578 140.09766 C 114.74625 140.08496 172.97654 140.10642 231.20508 140.07422 C 242.65609 139.87595 253.99144 135.58591 262.65625 128.08594 C 270.98664 120.99642 276.85333 111.08815 279.04297 100.36914 C 279.94137 96.211691 280.15031 91.946056 280.0957 87.703125 C 280.079 64.892419 280.12196 42.081732 280.06836 19.271484 C 279.76746 13.46542 276.36958 8.1944036 271.93359 4.6074219 C 268.42276 1.7930345 263.99548 -0.00368333 259.45508 0.09375 C 258.72395 0.08303007 257.99291 0.079831455 257.26172 0.083984375 z "
     d="M 257.26172,0.08398437 C 227.46963,0.10704424 197.67705,0.08529569 167.88477,0.09179687 118.41833,0.09632149 68.950572,0.08526028 19.484375,0.109375 13.388013,0.36114921 7.8147753,3.9514039 4.1894531,8.7246094 1.4809255,12.235902 -0.12306521,16.654386 0.09375,21.115234 0.10320978,44.613534 0.06608518,68.113384 0.12304688,91.611328 0.42301,103.39794 5.0667494,115.02045 13.037109,123.7168 c 7.364168,8.17219 17.50936,13.77056 28.353516,15.625 4.98675,0.94072 10.079094,0.72847 15.126953,0.75586 58.228672,-0.0127 116.458962,0.009 174.687502,-0.0234 11.45101,-0.19827 22.78636,-4.48831 31.45117,-11.98828 8.33039,-7.08952 14.19708,-16.99779 16.38672,-27.7168 0.8984,-4.157449 1.10734,-8.423084 1.05273,-12.666015 -0.0167,-22.810706 0.0263,-45.621393 -0.0273,-68.431641 -0.3009,-5.806064 -3.69878,-11.0770804 -8.13477,-14.6640621 -3.51083,-2.8143874 -7.93811,-4.61110523 -12.47851,-4.5136719 -0.73113,-0.01071993 -1.46217,-0.01391855 -2.19336,-0.0097656 z" />
  <path
     id="rect4763-2"
     style="fill-opacity:0.0014062;stroke:#000000;stroke-width:0.189"
     d="M 247.28165,10.096205 C 174.27358,10.188522 101.25443,9.9513035 28.253323,10.224347 14.351382,11.869599 9.8476772,27.751739 10.146168,39.880871 c 0.59386,17.968064 -1.611061,36.239834 1.785665,53.988442 6.171713,22.919677 30.158733,38.740117 53.622147,36.239637 53.40797,-0.15944 106.83042,0.31197 160.22916,-0.26686 25.56004,-2.27521 46.46564,-27.14895 44.32374,-52.732925 -0.37127,-17.266747 0.8266,-34.681523 -0.74613,-51.848949 C 266.551,16.03857 257.00708,9.1057276 247.28165,10.096205 Z"
     sodipodi:nodetypes="ccccccccc" />
  <polygon
     points="162.655,135.185 208.659,122.858 203.729,104.457 217.528,100.759 217.528,100.76 245.128,93.364 250.059,111.765 268.462,106.834 263.532,88.433 272.732,85.968 267.802,67.567 277.002,65.102 272.071,46.701 276.672,45.468 271.741,27.065 244.139,34.462 244.139,34.461 152.133,59.114 157.064,77.517 161.665,76.284 166.594,94.683 157.394,97.148 162.325,115.549 157.724,116.782 "
     style="fill:none;stroke:#000000;stroke-width:0.05mm"
     id="polygon12"
     transform="translate(-12.192275,-8.2082768)" />
  <polygon
     points="97.665,103.716 92.735,122.116 138.739,134.443 143.67,116.04 139.07,114.807 144,96.407 134.8,93.942 139.73,75.541 135.129,74.308 140.06,55.907 103.259,46.047 103.259,46.046 29.653,26.324 24.722,44.727 29.322,45.96 24.392,64.359 28.992,65.592 24.061,83.994 37.863,87.692 32.932,106.092 51.334,111.023 56.265,92.623 "
     style="fill:none;stroke:#000000;stroke-width:0.05mm"
     id="polygon14"
     transform="translate(-12.192275,-8.2082768)" />
  <rect
     style="fill:#000000;fill-opacity:0.0014062;stroke:#000000;stroke-width:0.189"
     id="rect1154"
     width="50"
     height="35"
     x="115.0945"
     y="0.094499998" />
  <circle
     style="fill:#000000;fill-opacity:0.0014062;stroke:#000000;stroke-width:0.189"
     id="path1418"
     cx="122.57782"
     cy="5.0945001"
     r="1.75" />
  <circle
     style="fill:#000000;fill-opacity:0.0014062;stroke:#000000;stroke-width:0.189"
     id="path1418-6"
     cx="90.094498"
     cy="135.0945"
     r="1.75" />
  <circle
     style="fill:#000000;fill-opacity:0.0014062;stroke:#000000;stroke-width:0.189"
     id="path1418-6-9"
     cx="19.418953"
     cy="120.3427"
     r="1.75" />
  <circle
     style="fill:#000000;fill-opacity:0.0014062;stroke:#000000;stroke-width:0.189"
     id="path1418-6-5"
     cx="11.8445"
     cy="11.8445"
     r="1.75" />
  <circle
     style="fill:#000000;fill-opacity:0.0014062;stroke:#000000;stroke-width:0.189"
     id="path1418-6-5-6"
     cx="268.34451"
     cy="9.8444996"
     r="1.75" />
  <circle
     style="fill:#000000;fill-opacity:0.0014062;stroke:#000000;stroke-width:0.189"
     id="path1418-6-7"
     cx="190.0945"
     cy="135.0945"
     r="1.75" />
  <circle
     style="fill:#000000;fill-opacity:0.0014062;stroke:#000000;stroke-width:0.189"
     id="path1418-3"
     cx="157.81551"
     cy="5.0945001"
     r="1.75" />
  <rect
     style="fill:#000000;fill-opacity:0.0014062;stroke:#000000;stroke-width:0.189"
     id="rect1522"
     width="20"
     height="35"
     x="130.0945"
     y="0.094499998" />
  <g
     inkscape:groupmode="layer"
     id="layer1"
     inkscape:label="switches"
     style="display:inline">
    <polygon
       points="178.386,127.242 177.623,124.392 176.85,124.599 175.31,118.852 176.083,118.645 175.319,115.795 174.547,116.002 174.288,115.036 160.91,118.621 161.169,119.587 160.396,119.794 161.159,122.644 161.932,122.437 163.472,128.184 162.699,128.39 163.463,131.24 164.236,131.033 164.494,131.999 177.872,128.414 177.614,127.449 "
       style="fill:none;stroke:#000000;stroke-width:0.05mm"
       id="polygon12-0"
       transform="matrix(0.999978,0,0,1.0000511,-12.193669,-8.2097795)" />
    <polygon
       points="138.695,127.649 137.922,127.442 139.462,121.695 140.235,121.902 140.998,119.053 140.225,118.846 140.484,117.88 127.106,114.295 126.847,115.261 126.074,115.054 125.311,117.903 126.084,118.11 124.544,123.858 123.771,123.651 123.007,126.5 123.78,126.707 123.521,127.673 136.899,131.258 137.158,130.292 137.931,130.498 "
       style="fill:none;stroke:#000000;stroke-width:0.05mm"
       id="polygon14-9"
       transform="matrix(0.999978,0,0,1.0000511,-12.193669,-8.2097795)" />
    <polygon
       points="201.387,121.078 200.624,118.229 199.851,118.436 198.311,112.689 199.084,112.482 198.32,109.632 197.548,109.839 197.289,108.873 183.911,112.458 184.17,113.424 183.397,113.631 184.16,116.48 184.933,116.273 186.473,122.021 185.7,122.228 186.464,125.077 187.237,124.87 187.495,125.836 200.874,122.251 200.615,121.286 "
       style="fill:none;stroke:#000000;stroke-width:0.05mm"
       id="polygon16"
       transform="matrix(0.999978,0,0,1.0000511,-12.193669,-8.2097795)" />
    <polygon
       points="115.693,121.486 114.921,121.279 116.461,115.532 117.233,115.739 117.997,112.889 117.224,112.682 117.483,111.717 104.105,108.132 103.846,109.098 103.073,108.891 102.31,111.74 103.083,111.947 101.543,117.695 100.77,117.487 100.006,120.337 100.779,120.544 100.52,121.51 113.898,125.095 114.157,124.129 114.93,124.336 "
       style="fill:none;stroke:#000000;stroke-width:0.05mm"
       id="polygon18"
       transform="matrix(0.999978,0,0,1.0000511,-12.193669,-8.2097795)" />
    <polygon
       points="178.056,107.608 177.293,104.759 176.52,104.966 174.98,99.218 175.753,99.011 174.989,96.162 174.216,96.369 173.957,95.403 160.579,98.988 160.838,99.954 160.065,100.161 160.829,103.01 161.602,102.803 163.142,108.55 162.369,108.757 163.133,111.607 163.905,111.4 164.164,112.366 177.542,108.781 177.283,107.815 "
       style="fill:none;stroke:#000000;stroke-width:0.05mm"
       id="polygon20"
       transform="matrix(0.999978,0,0,1.0000511,-12.193669,-8.2097795)" />
    <polygon
       points="139.025,108.016 138.252,107.809 139.792,102.062 140.565,102.269 141.328,99.419 140.556,99.212 140.814,98.246 127.436,94.661 127.178,95.627 126.405,95.42 125.641,98.27 126.414,98.477 124.874,104.224 124.101,104.017 123.338,106.867 124.111,107.074 123.852,108.04 137.23,111.624 137.489,110.658 138.261,110.865 "
       style="fill:none;stroke:#000000;stroke-width:0.05mm"
       id="polygon22"
       transform="matrix(0.999978,0,0,1.0000511,-12.193669,-8.2097795)" />
    <polygon
       points="265.791,103.822 265.027,100.972 264.254,101.179 262.714,95.432 263.487,95.225 262.724,92.375 261.951,92.583 261.691,91.617 248.314,95.201 248.573,96.167 247.8,96.374 248.564,99.224 249.336,99.017 250.876,104.764 250.103,104.971 250.867,107.82 251.64,107.613 251.899,108.579 265.277,104.995 265.018,104.029 "
       style="fill:none;stroke:#000000;stroke-width:0.05mm"
       id="polygon24"
       transform="matrix(0.999978,0,0,1.0000511,-12.193669,-8.2097795)" />
    <polygon
       points="51.29,104.229 50.518,104.022 52.058,98.275 52.83,98.482 53.594,95.633 52.821,95.426 53.08,94.46 39.702,90.875 39.443,91.841 38.67,91.634 37.907,94.483 38.679,94.691 37.14,100.438 36.367,100.231 35.603,103.08 36.376,103.287 36.117,104.253 49.495,107.838 49.754,106.872 50.527,107.079 "
       style="fill:none;stroke:#000000;stroke-width:0.05mm"
       id="polygon26"
       transform="matrix(0.999978,0,0,1.0000511,-12.193669,-8.2097795)" />
    <polygon
       points="196.457,102.678 195.693,99.828 194.921,100.035 193.381,94.288 194.153,94.081 193.39,91.231 192.617,91.438 192.358,90.472 178.98,94.057 179.239,95.023 178.466,95.23 179.23,98.08 180.003,97.873 181.543,103.62 180.77,103.827 181.533,106.676 182.306,106.469 182.565,107.435 195.943,103.851 195.684,102.885 "
       style="fill:none;stroke:#000000;stroke-width:0.05mm"
       id="polygon28"
       transform="matrix(0.999978,0,0,1.0000511,-12.193669,-8.2097795)" />
    <polygon
       points="120.624,103.085 119.851,102.878 121.391,97.131 122.164,97.338 122.927,94.489 122.155,94.282 122.414,93.316 109.035,89.731 108.777,90.697 108.004,90.49 107.24,93.339 108.013,93.546 106.473,99.294 105.7,99.087 104.937,101.936 105.71,102.143 105.451,103.109 118.829,106.694 119.088,105.728 119.86,105.935 "
       style="fill:none;stroke:#000000;stroke-width:0.05mm"
       id="polygon30"
       transform="matrix(0.999978,0,0,1.0000511,-12.193669,-8.2097795)" />
    <polygon
       points="214.858,97.747 214.094,94.898 213.322,95.105 211.782,89.357 212.554,89.15 211.791,86.301 211.018,86.508 210.759,85.542 197.381,89.127 197.64,90.093 196.867,90.3 197.631,93.149 198.404,92.942 199.944,98.689 199.171,98.896 199.934,101.746 200.707,101.539 200.966,102.505 214.344,98.92 214.085,97.954 "
       style="fill:none;stroke:#000000;stroke-width:0.05mm"
       id="polygon32"
       transform="matrix(0.999978,0,0,1.0000511,-12.193669,-8.2097795)" />
    <polygon
       points="102.223,98.155 101.45,97.948 102.99,92.201 103.763,92.408 104.527,89.558 103.754,89.351 104.013,88.385 90.635,84.8 90.376,85.766 89.603,85.559 88.839,88.409 89.612,88.616 88.072,94.363 87.3,94.156 86.536,97.006 87.309,97.213 87.05,98.179 100.428,101.763 100.687,100.797 101.46,101.004 "
       style="fill:none;stroke:#000000;stroke-width:0.05mm"
       id="polygon34"
       transform="matrix(0.999978,0,0,1.0000511,-12.193669,-8.2097795)" />
    <polygon
       points="233.259,92.817 232.495,89.967 231.722,90.174 230.182,84.427 230.955,84.22 230.192,81.37 229.419,81.577 229.16,80.611 215.782,84.196 216.041,85.162 215.268,85.369 216.032,88.219 216.804,88.012 218.344,93.759 217.572,93.966 218.335,96.815 219.108,96.608 219.367,97.574 232.745,93.99 232.486,93.024 "
       style="fill:none;stroke:#000000;stroke-width:0.05mm"
       id="polygon36"
       transform="matrix(0.999978,0,0,1.0000511,-12.193669,-8.2097795)" />
    <polygon
       points="83.822,93.224 83.049,93.017 84.589,87.27 85.362,87.477 86.126,84.628 85.353,84.421 85.612,83.455 72.234,79.87 71.975,80.836 71.202,80.629 70.439,83.478 71.211,83.685 69.671,89.433 68.899,89.226 68.135,92.075 68.908,92.282 68.649,93.248 82.027,96.833 82.286,95.867 83.059,96.074 "
       style="fill:none;stroke:#000000;stroke-width:0.05mm"
       id="polygon38"
       transform="matrix(0.999978,0,0,1.0000511,-12.193669,-8.2097795)" />
    <polygon
       points="251.66,87.886 250.896,85.037 250.123,85.244 248.583,79.496 249.356,79.289 248.593,76.44 247.82,76.647 247.561,75.681 234.183,79.266 234.442,80.232 233.669,80.439 234.433,83.288 235.205,83.081 236.745,88.828 235.973,89.035 236.736,91.885 237.509,91.678 237.768,92.644 251.146,89.059 250.887,88.093 "
       style="fill:none;stroke:#000000;stroke-width:0.05mm"
       id="polygon40"
       transform="matrix(0.999978,0,0,1.0000511,-12.193669,-8.2097795)" />
    <polygon
       points="65.421,88.294 64.648,88.087 66.189,82.34 66.961,82.547 67.725,79.697 66.952,79.49 67.211,78.524 53.833,74.939 53.574,75.905 52.801,75.698 52.038,78.548 52.81,78.755 51.27,84.502 50.498,84.295 49.734,87.145 50.507,87.352 50.248,88.318 63.626,91.902 63.885,90.936 64.658,91.143 "
       style="fill:none;stroke:#000000;stroke-width:0.05mm"
       id="polygon42"
       transform="matrix(0.999978,0,0,1.0000511,-12.193669,-8.2097795)" />
    <polygon
       points="182.326,86.742 181.562,83.892 180.79,84.1 179.25,78.352 180.023,78.145 179.259,75.296 178.486,75.503 178.227,74.537 164.849,78.121 165.108,79.087 164.335,79.294 165.099,82.144 165.872,81.937 167.412,87.684 166.639,87.891 167.402,90.741 168.175,90.534 168.434,91.5 181.812,87.915 181.553,86.949 "
       style="fill:none;stroke:#000000;stroke-width:0.05mm"
       id="polygon44"
       transform="matrix(0.999978,0,0,1.0000511,-12.193669,-8.2097795)" />
    <polygon
       points="134.755,87.15 133.982,86.943 135.522,81.195 136.295,81.402 137.058,78.553 136.286,78.346 136.544,77.38 123.166,73.795 122.908,74.761 122.135,74.554 121.371,77.404 122.144,77.611 120.604,83.358 119.831,83.151 119.068,86 119.841,86.207 119.582,87.173 132.96,90.758 133.219,89.792 133.991,89.999 "
       style="fill:none;stroke:#000000;stroke-width:0.05mm"
       id="polygon46"
       transform="matrix(0.999978,0,0,1.0000511,-12.193669,-8.2097795)" />
    <polygon
       points="270.06,82.956 269.297,80.106 268.524,80.313 266.984,74.566 267.757,74.359 266.993,71.509 266.221,71.716 265.962,70.75 252.584,74.335 252.843,75.301 252.07,75.508 252.833,78.358 253.606,78.151 255.146,83.898 254.373,84.105 255.137,86.954 255.91,86.747 256.167,87.713 269.547,84.129 269.288,83.163 "
       style="fill:none;stroke:#000000;stroke-width:0.05mm"
       id="polygon48"
       transform="matrix(0.999978,0,0,1.0000511,-12.193669,-8.2097795)" />
    <polygon
       points="200.727,81.811 199.963,78.962 199.191,79.169 197.651,73.422 198.423,73.215 197.66,70.365 196.887,70.572 196.628,69.606 183.25,73.191 183.509,74.157 182.736,74.364 183.5,77.213 184.273,77.006 185.813,82.754 185.04,82.961 185.803,85.81 186.576,85.603 186.835,86.569 200.213,82.984 199.954,82.018 "
       style="fill:none;stroke:#000000;stroke-width:0.05mm"
       id="polygon50"
       transform="matrix(0.999978,0,0,1.0000511,-12.193669,-8.2097795)" />
    <polygon
       points="44.72,82.747 43.948,82.54 45.488,76.793 46.26,77 47.024,74.15 46.251,73.943 46.51,72.977 33.132,69.393 32.873,70.359 32.099,70.152 31.337,73.001 32.108,73.208 30.569,78.955 29.797,78.748 29.033,81.598 29.806,81.805 29.547,82.771 42.925,86.355 43.184,85.389 43.957,85.597 "
       style="fill:none;stroke:#000000;stroke-width:0.05mm"
       id="polygon52"
       transform="matrix(0.999978,0,0,1.0000511,-12.193669,-8.2097795)" />
    <polygon
       points="116.354,82.219 115.581,82.012 117.121,76.265 117.894,76.472 118.657,73.622 117.885,73.415 118.144,72.449 104.765,68.865 104.507,69.831 103.734,69.624 102.97,72.473 103.743,72.68 102.203,78.428 101.43,78.22 100.667,81.07 101.44,81.277 101.181,82.243 114.559,85.828 114.818,84.862 115.59,85.069 "
       style="fill:none;stroke:#000000;stroke-width:0.05mm"
       id="polygon54"
       transform="matrix(0.999978,0,0,1.0000511,-12.193669,-8.2097795)" />
    <polygon
       points="219.128,76.881 218.364,74.031 217.592,74.238 216.052,68.491 216.824,68.284 216.061,65.435 215.288,65.642 215.029,64.676 201.651,68.26 201.91,69.226 201.137,69.433 201.901,72.283 202.673,72.076 204.213,77.823 203.441,78.03 204.204,80.88 204.977,80.673 205.236,81.639 218.614,78.054 218.355,77.088 "
       style="fill:none;stroke:#000000;stroke-width:0.05mm"
       id="polygon60"
       transform="matrix(0.999978,0,0,1.0000511,-12.193669,-8.2097795)" />
    <polygon
       points="97.953,77.289 97.18,77.082 98.72,71.334 99.493,71.541 100.257,68.692 99.484,68.485 99.743,67.519 86.365,63.934 86.106,64.9 85.333,64.692 84.57,67.543 85.342,67.75 83.802,73.497 83.03,73.29 82.266,76.139 83.039,76.346 82.78,77.312 96.158,80.897 96.417,79.931 97.19,80.138 "
       style="fill:none;stroke:#000000;stroke-width:0.05mm"
       id="polygon62"
       transform="matrix(0.999978,0,0,1.0000511,-12.193669,-8.2097795)" />
    <polygon
       points="237.529,71.95 236.765,69.101 235.992,69.308 234.452,63.561 235.225,63.354 234.462,60.504 233.689,60.711 233.43,59.745 220.052,63.33 220.311,64.296 219.538,64.502 220.302,67.352 221.074,67.145 222.614,72.893 221.842,73.1 222.605,75.949 223.378,75.742 223.637,76.708 237.015,73.123 236.756,72.157 "
       style="fill:none;stroke:#000000;stroke-width:0.05mm"
       id="polygon64"
       transform="matrix(0.999978,0,0,1.0000511,-12.193669,-8.2097795)" />
    <polygon
       points="79.552,72.358 78.779,72.151 80.319,66.404 81.092,66.611 81.856,63.761 81.083,63.554 81.342,62.588 67.964,59.004 67.705,59.97 66.932,59.763 66.169,62.612 66.941,62.819 65.401,68.567 64.629,68.359 63.865,71.209 64.638,71.416 64.379,72.382 77.757,75.967 78.016,75.001 78.789,75.208 "
       style="fill:none;stroke:#000000;stroke-width:0.05mm"
       id="polygon66"
       transform="matrix(0.999978,0,0,1.0000511,-12.193669,-8.2097795)" />
    <polygon
       points="172.795,69.574 172.032,66.724 171.259,66.931 169.719,61.184 170.492,60.977 169.728,58.127 168.956,58.335 168.697,57.369 155.319,60.953 155.577,61.919 154.805,62.126 155.568,64.975 156.341,64.769 157.881,70.516 157.108,70.723 157.872,73.572 158.644,73.365 158.903,74.331 172.281,70.747 172.023,69.781 "
       style="fill:none;stroke:#000000;stroke-width:0.05mm"
       id="polygon68"
       transform="matrix(0.999978,0,0,1.0000511,-12.193669,-8.2097795)" />
    <polygon
       points="255.93,67.02 255.166,64.17 254.393,64.377 252.853,58.63 253.626,58.423 252.863,55.574 252.09,55.781 251.831,54.815 238.453,58.399 238.712,59.365 237.939,59.572 238.703,62.422 239.475,62.215 241.015,67.962 240.242,68.169 241.006,71.019 241.779,70.812 242.038,71.778 255.416,68.193 255.157,67.227 "
       style="fill:none;stroke:#000000;stroke-width:0.05mm"
       id="polygon70"
       transform="matrix(0.999978,0,0,1.0000511,-12.193669,-8.2097795)" />
    <polygon
       points="135.085,67.516 134.312,67.309 135.852,61.562 136.625,61.769 137.389,58.919 136.616,58.712 136.875,57.746 123.497,54.162 123.238,55.128 122.465,54.921 121.702,57.77 122.474,57.977 120.934,63.724 120.162,63.517 119.398,66.367 120.171,66.574 119.912,67.54 133.29,71.125 133.549,70.159 134.322,70.366 "
       style="fill:none;stroke:#000000;stroke-width:0.05mm"
       id="polygon72"
       transform="matrix(0.999978,0,0,1.0000511,-12.193669,-8.2097795)" />
    <polygon
       points="61.151,67.428 60.379,67.221 61.919,61.473 62.691,61.68 63.455,58.831 62.682,58.624 62.941,57.658 49.563,54.073 49.304,55.039 48.531,54.832 47.768,57.682 48.541,57.889 47.001,63.636 46.228,63.429 45.464,66.278 46.237,66.485 45.978,67.451 59.356,71.036 59.615,70.07 60.388,70.277 "
       style="fill:none;stroke:#000000;stroke-width:0.05mm"
       id="polygon74"
       transform="matrix(0.999978,0,0,1.0000511,-12.193669,-8.2097795)" />
    <polygon
       points="191.196,64.642 190.433,61.794 189.66,62.001 188.12,56.253 188.893,56.046 188.129,53.197 187.356,53.404 187.098,52.438 173.72,56.023 173.978,56.989 173.206,57.196 173.969,60.045 174.742,59.838 176.282,65.585 175.509,65.792 176.273,68.642 177.045,68.435 177.304,69.401 190.682,65.816 190.423,64.85 "
       style="fill:none;stroke:#000000;stroke-width:0.05mm"
       id="polygon76"
       transform="matrix(0.999978,0,0,1.0000511,-12.193669,-8.2097795)" />
    <polygon
       points="274.33,62.089 273.567,59.24 272.794,59.447 271.254,53.7 272.027,53.493 271.263,50.643 270.491,50.85 270.232,49.884 256.854,53.469 257.113,54.435 256.34,54.642 257.102,57.491 257.876,57.284 259.416,63.032 258.643,63.239 259.407,66.088 260.179,65.881 260.438,66.847 273.817,63.262 273.558,62.296 "
       style="fill:none;stroke:#000000;stroke-width:0.05mm"
       id="polygon78"
       transform="matrix(0.999978,0,0,1.0000511,-12.193669,-8.2097795)" />
    <polygon
       points="116.684,62.586 115.912,62.379 117.452,56.631 118.224,56.838 118.988,53.989 118.215,53.782 118.474,52.816 105.096,49.231 104.837,50.197 104.064,49.99 103.301,52.84 104.073,53.047 102.533,58.794 101.761,58.587 100.997,61.436 101.77,61.643 101.511,62.609 114.889,66.194 115.148,65.228 115.921,65.435 "
       style="fill:none;stroke:#000000;stroke-width:0.05mm"
       id="polygon80"
       transform="matrix(0.999978,0,0,1.0000511,-12.193669,-8.2097795)" />
    <polygon
       points="42.75,62.497 41.978,62.29 43.518,56.543 44.29,56.75 45.054,53.9 44.281,53.693 44.54,52.727 31.162,49.143 30.903,50.109 30.13,49.902 29.367,52.751 30.14,52.958 28.6,58.705 27.827,58.498 27.063,61.348 27.836,61.555 27.577,62.521 40.955,66.106 41.214,65.139 41.987,65.347 "
       style="fill:none;stroke:#000000;stroke-width:0.05mm"
       id="polygon82"
       transform="matrix(0.999978,0,0,1.0000511,-12.193669,-8.2097795)" />
    <polygon
       points="209.597,59.713 208.834,56.863 208.061,57.07 206.521,51.323 207.294,51.116 206.53,48.266 205.757,48.473 205.498,47.508 192.12,51.092 192.379,52.058 191.606,52.265 192.37,55.115 193.143,54.908 194.683,60.655 193.91,60.862 194.673,63.711 195.446,63.504 195.705,64.469 209.083,60.886 208.824,59.92 "
       style="fill:none;stroke:#000000;stroke-width:0.05mm"
       id="polygon84"
       transform="matrix(0.999978,0,0,1.0000511,-12.193669,-8.2097795)" />
    <polygon
       points="98.283,57.655 97.511,57.448 99.051,51.701 99.823,51.908 100.587,49.058 99.814,48.851 100.073,47.885 86.695,44.301 86.436,45.267 85.663,45.06 84.9,47.909 85.673,48.116 84.133,53.863 83.36,53.656 82.596,56.506 83.369,56.713 83.11,57.679 96.488,61.264 96.747,60.298 97.52,60.505 "
       style="fill:none;stroke:#000000;stroke-width:0.05mm"
       id="polygon86"
       transform="matrix(0.999978,0,0,1.0000511,-12.193669,-8.2097795)" />
    <polygon
       points="227.998,54.782 227.234,51.933 226.462,52.14 224.922,46.392 225.694,46.185 224.931,43.336 224.158,43.543 223.899,42.577 210.521,46.162 210.78,47.128 210.007,47.335 210.771,50.184 211.544,49.977 213.084,55.724 212.311,55.931 213.074,58.781 213.847,58.574 214.106,59.54 227.484,55.955 227.225,54.989 "
       style="fill:none;stroke:#000000;stroke-width:0.05mm"
       id="polygon88"
       transform="matrix(0.999978,0,0,1.0000511,-12.193669,-8.2097795)" />
    <polygon
       points="79.883,52.725 79.11,52.518 80.65,46.77 81.422,46.977 82.186,44.128 81.413,43.921 81.672,42.955 68.294,39.37 68.035,40.336 67.262,40.129 66.499,42.979 67.272,43.186 65.732,48.933 64.959,48.726 64.195,51.575 64.968,51.782 64.709,52.748 78.087,56.333 78.346,55.367 79.119,55.574 "
       style="fill:none;stroke:#000000;stroke-width:0.05mm"
       id="polygon90"
       transform="matrix(0.999978,0,0,1.0000511,-12.193669,-8.2097795)" />
    <polygon
       points="246.399,49.852 245.635,47.002 244.863,47.209 243.323,41.462 244.095,41.255 243.332,38.405 242.559,38.612 242.3,37.647 228.922,41.231 229.181,42.197 228.408,42.404 229.172,45.254 229.945,45.047 231.484,50.794 230.712,51.001 231.475,53.85 232.248,53.643 232.507,54.609 245.885,51.025 245.626,50.059 "
       style="fill:none;stroke:#000000;stroke-width:0.05mm"
       id="polygon92"
       transform="matrix(0.999978,0,0,1.0000511,-12.193669,-8.2097795)" />
    <polygon
       points="61.482,47.794 60.709,47.587 62.249,41.84 63.022,42.047 63.785,39.197 63.012,38.99 63.271,38.024 49.893,34.44 49.634,35.406 48.862,35.199 48.098,38.048 48.871,38.255 47.331,44.002 46.558,43.795 45.795,46.645 46.567,46.852 46.308,47.818 59.687,51.403 59.945,50.437 60.718,50.644 "
       style="fill:none;stroke:#000000;stroke-width:0.05mm"
       id="polygon94"
       transform="matrix(0.999978,0,0,1.0000511,-12.193669,-8.2097795)" />
    <polygon
       points="269.4,43.689 268.636,40.839 267.864,41.046 266.324,35.299 267.096,35.092 266.333,32.242 265.56,32.449 265.301,31.483 251.923,35.068 252.182,36.034 251.409,36.241 252.173,39.091 252.946,38.883 254.486,44.631 253.713,44.838 254.476,47.687 255.249,47.48 255.508,48.446 268.886,44.862 268.627,43.896 "
       style="fill:none;stroke:#000000;stroke-width:0.05mm"
       id="polygon96"
       transform="matrix(0.999978,0,0,1.0000511,-12.193669,-8.2097795)" />
    <polygon
       points="43.081,42.864 42.308,42.657 43.848,36.909 44.621,37.116 45.384,34.267 44.611,34.06 44.87,33.094 31.492,29.509 31.233,30.475 30.461,30.268 29.697,33.118 30.47,33.325 28.93,39.072 28.157,38.865 27.394,41.714 28.166,41.921 27.908,42.887 41.286,46.472 41.544,45.506 42.317,45.713 "
       style="fill:none;stroke:#000000;stroke-width:0.05mm"
       id="polygon98"
       transform="matrix(0.999978,0,0,1.0000511,-12.193669,-8.2097795)" />
  </g>
</svg>
