<?xml version="1.0" encoding="UTF-8" standalone="no"?>
<!-- Generated by SVGo -->

<svg
   width="302.077mm"
   height="160.260mm"
   viewBox="0.000 0.000 302.077 160.260"
   version="1.1"
   id="svg28"
   sodipodi:docname="wip.svg"
   inkscape:version="1.1.1 (3bf5ae0d25, 2021-09-20, custom)"
   xmlns:inkscape="http://www.inkscape.org/namespaces/inkscape"
   xmlns:sodipodi="http://sodipodi.sourceforge.net/DTD/sodipodi-0.dtd"
   xmlns="http://www.w3.org/2000/svg"
   xmlns:svg="http://www.w3.org/2000/svg">
  <defs
     id="defs32">
    <inkscape:path-effect
       effect="offset"
       id="path-effect2672"
       is_visible="true"
       lpeversion="1"
       linejoin_type="miter"
       unit="mm"
       offset="-11"
       miter_limit="4"
       attempt_force_join="false"
       update_on_knot_move="true" />
    <inkscape:path-effect
       effect="offset"
       id="path-effect2630"
       is_visible="true"
       lpeversion="1"
       linejoin_type="miter"
       unit="mm"
       offset="-11"
       miter_limit="4"
       attempt_force_join="false"
       update_on_knot_move="true" />
    <inkscape:path-effect
       effect="offset"
       id="path-effect1591"
       is_visible="true"
       lpeversion="1"
       linejoin_type="miter"
       unit="mm"
       offset="-11"
       miter_limit="4"
       attempt_force_join="false"
       update_on_knot_move="true" />
    <inkscape:path-effect
       effect="offset"
       id="path-effect1468"
       is_visible="true"
       lpeversion="1"
       linejoin_type="miter"
       unit="mm"
       offset="0"
       miter_limit="4"
       attempt_force_join="false"
       update_on_knot_move="true" />
    <inkscape:path-effect
       effect="offset"
       id="path-effect1326"
       is_visible="true"
       lpeversion="1"
       linejoin_type="miter"
       unit="mm"
       offset="0.5"
       miter_limit="4"
       attempt_force_join="false"
       update_on_knot_move="true" />
    <inkscape:path-effect
       effect="offset"
       id="path-effect1324"
       is_visible="true"
       lpeversion="1"
       linejoin_type="miter"
       unit="mm"
       offset="0.5"
       miter_limit="4"
       attempt_force_join="false"
       update_on_knot_move="true" />
  </defs>
  <sodipodi:namedview
     id="namedview30"
     pagecolor="#505050"
     bordercolor="#eeeeee"
     borderopacity="1"
     inkscape:pageshadow="0"
     inkscape:pageopacity="0"
     inkscape:pagecheckerboard="0"
     inkscape:document-units="mm"
     showgrid="false"
     showguides="false"
     inkscape:zoom="1.7536248"
     inkscape:cx="544.58627"
     inkscape:cy="316.77243"
     inkscape:window-width="2560"
     inkscape:window-height="1440"
     inkscape:window-x="0"
     inkscape:window-y="0"
     inkscape:window-maximized="1"
     inkscape:current-layer="g3968" />
  <g
     inkscape:groupmode="layer"
     id="layer2"
     inkscape:label="bottom"
     style="display:inline">
    <path
       id="rect4763-7"
       style="display:inline;fill-opacity:0.0014062;stroke:#000000;stroke-width:0.189"
       d="m 257.282,0.09623974 c -29.7921,0.02306 -59.58468,0.0013 -89.37696,0.0078 -49.46644,0.0045 -98.934188,-0.0065 -148.400388,0.01758 C 13.40829,0.37339374 7.8350515,3.9636487 4.2097295,8.7368537 1.5012015,12.248147 -0.10278847,16.666631 0.11402653,21.127479 c 0.0095,23.4983 -0.02766,46.99815 0.0293,70.496094 0.299963,11.786607 4.94370197,23.409117 12.91406247,32.105467 7.364166,8.17219 17.509356,13.77056 28.353516,15.625 4.98675,0.94072 10.07909,0.72847 15.12695,0.75586 58.228665,-0.0127 116.458955,0.009 174.687495,-0.0234 11.45101,-0.19827 22.78636,-4.48831 31.45117,-11.98828 8.3304,-7.08952 14.19709,-16.99779 16.38673,-27.7168 0.89839,-4.157444 1.10734,-8.423079 1.05273,-12.66601 -0.0167,-22.810706 0.0263,-45.621393 -0.0273,-68.431641 -0.3009,-5.806064 -3.69878,-11.0770803 -8.13477,-14.6640623 -3.51083,-2.814387 -7.93811,-4.61110496 -12.4785,-4.51367196 -0.73114,-0.01072 -1.46218,-0.01392 -2.19337,-0.0098 z" />
    <circle
       style="display:inline;fill:#000000;fill-opacity:0.0014062;stroke:#000000;stroke-width:0.189"
       id="path1418-5"
       cx="122.5981"
       cy="5.6359215"
       r="1.75" />
    <circle
       style="display:inline;fill:#000000;fill-opacity:0.0014062;stroke:#000000;stroke-width:0.189"
       id="path1418-6-92"
       cx="90.114777"
       cy="134.57759"
       r="1.75" />
    <circle
       style="display:inline;fill:#000000;fill-opacity:0.0014062;stroke:#000000;stroke-width:0.189"
       id="path1418-6-9-2"
       cx="19.036163"
       cy="121.94245"
       r="1.75" />
    <circle
       style="display:inline;fill:#000000;fill-opacity:0.0014062;stroke:#000000;stroke-width:0.189"
       id="path1418-6-9-6-8"
       cx="5.3444982"
       cy="61.844486"
       r="1.75" />
    <circle
       style="display:inline;fill:#000000;fill-opacity:0.0014062;stroke:#000000;stroke-width:0.189"
       id="path1418-6-9-6-7-9"
       cx="274.84451"
       cy="61.844486"
       r="1.75" />
    <circle
       style="display:inline;fill:#000000;fill-opacity:0.0014062;stroke:#000000;stroke-width:0.189"
       id="path1418-6-9-3-7"
       cx="261.15286"
       cy="121.94198"
       r="1.75" />
    <circle
       style="display:inline;fill:#000000;fill-opacity:0.0014062;stroke:#000000;stroke-width:0.189"
       id="path1418-6-5-3"
       cx="10.277275"
       cy="10.269257"
       r="1.75" />
    <circle
       style="display:inline;fill:#000000;fill-opacity:0.0014062;stroke:#000000;stroke-width:0.189"
       id="path1418-6-5-6-6"
       cx="269.9523"
       cy="10.269485"
       r="1.75" />
    <circle
       style="display:inline;fill:#000000;fill-opacity:0.0014062;stroke:#000000;stroke-width:0.189"
       id="path1418-6-7-1"
       cx="190.11478"
       cy="134.57759"
       r="1.75" />
    <circle
       style="display:inline;fill:#000000;fill-opacity:0.0014062;stroke:#000000;stroke-width:0.189"
       id="path1418-3-2"
       cx="157.8358"
       cy="5.6359215"
       r="1.75" />
  </g>
  <g
     inkscape:groupmode="layer"
     id="layer1"
     inkscape:label="plate"
     style="display:inline">
    <polygon
       points="164.236,131.033 164.494,131.999 177.872,128.414 177.614,127.449 178.386,127.242 177.623,124.392 176.85,124.599 175.31,118.852 176.083,118.645 175.319,115.795 174.547,116.002 174.288,115.036 160.91,118.621 161.169,119.587 160.396,119.794 161.159,122.644 161.932,122.437 163.472,128.184 162.699,128.39 163.463,131.24 "
       style="fill:none;stroke:#000000;stroke-width:0.05mm"
       id="polygon12-0"
       transform="matrix(0.999978,0,0,1.0000511,-10.077001,-8.2097795)" />
    <polygon
       points="123.007,126.5 123.78,126.707 123.521,127.673 136.899,131.258 137.158,130.292 137.931,130.498 138.695,127.649 137.922,127.442 139.462,121.695 140.235,121.902 140.998,119.053 140.225,118.846 140.484,117.88 127.106,114.295 126.847,115.261 126.074,115.054 125.311,117.903 126.084,118.11 124.544,123.858 123.771,123.651 "
       style="fill:none;stroke:#000000;stroke-width:0.05mm"
       id="polygon14-9"
       transform="matrix(0.999978,0,0,1.0000511,-11.135335,-8.2097795)" />
    <polygon
       points="187.237,124.87 187.495,125.836 200.874,122.251 200.615,121.286 201.387,121.078 200.624,118.229 199.851,118.436 198.311,112.689 199.084,112.482 198.32,109.632 197.548,109.839 197.289,108.873 183.911,112.458 184.17,113.424 183.397,113.631 184.16,116.48 184.933,116.273 186.473,122.021 185.7,122.228 186.464,125.077 "
       style="fill:none;stroke:#000000;stroke-width:0.05mm"
       id="polygon16"
       transform="matrix(0.999978,0,0,1.0000511,-10.077001,-8.2097795)" />
    <polygon
       points="100.006,120.337 100.779,120.544 100.52,121.51 113.898,125.095 114.157,124.129 114.93,124.336 115.693,121.486 114.921,121.279 116.461,115.532 117.233,115.739 117.997,112.889 117.224,112.682 117.483,111.717 104.105,108.132 103.846,109.098 103.073,108.891 102.31,111.74 103.083,111.947 101.543,117.695 100.77,117.487 "
       style="fill:none;stroke:#000000;stroke-width:0.05mm"
       id="polygon18"
       transform="matrix(0.999978,0,0,1.0000511,-11.135335,-8.2097795)" />
    <polygon
       points="163.905,111.4 164.164,112.366 177.542,108.781 177.283,107.815 178.056,107.608 177.293,104.759 176.52,104.966 174.98,99.218 175.753,99.011 174.989,96.162 174.216,96.369 173.957,95.403 160.579,98.988 160.838,99.954 160.065,100.161 160.829,103.01 161.602,102.803 163.142,108.55 162.369,108.757 163.133,111.607 "
       style="fill:none;stroke:#000000;stroke-width:0.05mm"
       id="polygon20"
       transform="matrix(0.999978,0,0,1.0000511,-10.077001,-8.2097795)" />
    <polygon
       points="123.338,106.867 124.111,107.074 123.852,108.04 137.23,111.624 137.489,110.658 138.261,110.865 139.025,108.016 138.252,107.809 139.792,102.062 140.565,102.269 141.328,99.419 140.556,99.212 140.814,98.246 127.436,94.661 127.178,95.627 126.405,95.42 125.641,98.27 126.414,98.477 124.874,104.224 124.101,104.017 "
       style="fill:none;stroke:#000000;stroke-width:0.05mm"
       id="polygon22"
       transform="matrix(0.999978,0,0,1.0000511,-11.135335,-8.2097795)" />
    <polygon
       points="251.64,107.613 251.899,108.579 265.277,104.995 265.018,104.029 265.791,103.822 265.027,100.972 264.254,101.179 262.714,95.432 263.487,95.225 262.724,92.375 261.951,92.583 261.691,91.617 248.314,95.201 248.573,96.167 247.8,96.374 248.564,99.224 249.336,99.017 250.876,104.764 250.103,104.971 250.867,107.82 "
       style="fill:none;stroke:#000000;stroke-width:0.05mm"
       id="polygon24"
       transform="matrix(0.999978,0,0,1.0000511,-10.077001,-8.2097795)" />
    <polygon
       points="35.603,103.08 36.376,103.287 36.117,104.253 49.495,107.838 49.754,106.872 50.527,107.079 51.29,104.229 50.518,104.022 52.058,98.275 52.83,98.482 53.594,95.633 52.821,95.426 53.08,94.46 39.702,90.875 39.443,91.841 38.67,91.634 37.907,94.483 38.679,94.691 37.14,100.438 36.367,100.231 "
       style="fill:none;stroke:#000000;stroke-width:0.05mm"
       id="polygon26"
       transform="matrix(0.999978,0,0,1.0000511,-11.135335,-8.2097795)" />
    <polygon
       points="182.306,106.469 182.565,107.435 195.943,103.851 195.684,102.885 196.457,102.678 195.693,99.828 194.921,100.035 193.381,94.288 194.153,94.081 193.39,91.231 192.617,91.438 192.358,90.472 178.98,94.057 179.239,95.023 178.466,95.23 179.23,98.08 180.003,97.873 181.543,103.62 180.77,103.827 181.533,106.676 "
       style="fill:none;stroke:#000000;stroke-width:0.05mm"
       id="polygon28"
       transform="matrix(0.999978,0,0,1.0000511,-10.077001,-8.2097795)" />
    <polygon
       points="104.937,101.936 105.71,102.143 105.451,103.109 118.829,106.694 119.088,105.728 119.86,105.935 120.624,103.085 119.851,102.878 121.391,97.131 122.164,97.338 122.927,94.489 122.155,94.282 122.414,93.316 109.035,89.731 108.777,90.697 108.004,90.49 107.24,93.339 108.013,93.546 106.473,99.294 105.7,99.087 "
       style="fill:none;stroke:#000000;stroke-width:0.05mm"
       id="polygon30"
       transform="matrix(0.999978,0,0,1.0000511,-11.135335,-8.2097795)" />
    <polygon
       points="200.707,101.539 200.966,102.505 214.344,98.92 214.085,97.954 214.858,97.747 214.094,94.898 213.322,95.105 211.782,89.357 212.554,89.15 211.791,86.301 211.018,86.508 210.759,85.542 197.381,89.127 197.64,90.093 196.867,90.3 197.631,93.149 198.404,92.942 199.944,98.689 199.171,98.896 199.934,101.746 "
       style="fill:none;stroke:#000000;stroke-width:0.05mm"
       id="polygon32"
       transform="matrix(0.999978,0,0,1.0000511,-10.077001,-8.2097795)" />
    <polygon
       points="86.536,97.006 87.309,97.213 87.05,98.179 100.428,101.763 100.687,100.797 101.46,101.004 102.223,98.155 101.45,97.948 102.99,92.201 103.763,92.408 104.527,89.558 103.754,89.351 104.013,88.385 90.635,84.8 90.376,85.766 89.603,85.559 88.839,88.409 89.612,88.616 88.072,94.363 87.3,94.156 "
       style="fill:none;stroke:#000000;stroke-width:0.05mm"
       id="polygon34"
       transform="matrix(0.999978,0,0,1.0000511,-11.135335,-8.2097795)" />
    <polygon
       points="219.108,96.608 219.367,97.574 232.745,93.99 232.486,93.024 233.259,92.817 232.495,89.967 231.722,90.174 230.182,84.427 230.955,84.22 230.192,81.37 229.419,81.577 229.16,80.611 215.782,84.196 216.041,85.162 215.268,85.369 216.032,88.219 216.804,88.012 218.344,93.759 217.572,93.966 218.335,96.815 "
       style="fill:none;stroke:#000000;stroke-width:0.05mm"
       id="polygon36"
       transform="matrix(0.999978,0,0,1.0000511,-10.077001,-8.2097795)" />
    <polygon
       points="68.135,92.075 68.908,92.282 68.649,93.248 82.027,96.833 82.286,95.867 83.059,96.074 83.822,93.224 83.049,93.017 84.589,87.27 85.362,87.477 86.126,84.628 85.353,84.421 85.612,83.455 72.234,79.87 71.975,80.836 71.202,80.629 70.439,83.478 71.211,83.685 69.671,89.433 68.899,89.226 "
       style="fill:none;stroke:#000000;stroke-width:0.05mm"
       id="polygon38"
       transform="matrix(0.999978,0,0,1.0000511,-11.135335,-8.2097795)" />
    <polygon
       points="237.509,91.678 237.768,92.644 251.146,89.059 250.887,88.093 251.66,87.886 250.896,85.037 250.123,85.244 248.583,79.496 249.356,79.289 248.593,76.44 247.82,76.647 247.561,75.681 234.183,79.266 234.442,80.232 233.669,80.439 234.433,83.288 235.205,83.081 236.745,88.828 235.973,89.035 236.736,91.885 "
       style="fill:none;stroke:#000000;stroke-width:0.05mm"
       id="polygon40"
       transform="matrix(0.999978,0,0,1.0000511,-10.077001,-8.2097795)" />
    <polygon
       points="49.734,87.145 50.507,87.352 50.248,88.318 63.626,91.902 63.885,90.936 64.658,91.143 65.421,88.294 64.648,88.087 66.189,82.34 66.961,82.547 67.725,79.697 66.952,79.49 67.211,78.524 53.833,74.939 53.574,75.905 52.801,75.698 52.038,78.548 52.81,78.755 51.27,84.502 50.498,84.295 "
       style="fill:none;stroke:#000000;stroke-width:0.05mm"
       id="polygon42"
       transform="matrix(0.999978,0,0,1.0000511,-11.135335,-8.2097795)" />
    <polygon
       points="168.175,90.534 168.434,91.5 181.812,87.915 181.553,86.949 182.326,86.742 181.562,83.892 180.79,84.1 179.25,78.352 180.023,78.145 179.259,75.296 178.486,75.503 178.227,74.537 164.849,78.121 165.108,79.087 164.335,79.294 165.099,82.144 165.872,81.937 167.412,87.684 166.639,87.891 167.402,90.741 "
       style="fill:none;stroke:#000000;stroke-width:0.05mm"
       id="polygon44"
       transform="matrix(0.999978,0,0,1.0000511,-10.077001,-8.2097795)" />
    <polygon
       points="119.068,86 119.841,86.207 119.582,87.173 132.96,90.758 133.219,89.792 133.991,89.999 134.755,87.15 133.982,86.943 135.522,81.195 136.295,81.402 137.058,78.553 136.286,78.346 136.544,77.38 123.166,73.795 122.908,74.761 122.135,74.554 121.371,77.404 122.144,77.611 120.604,83.358 119.831,83.151 "
       style="fill:none;stroke:#000000;stroke-width:0.05mm"
       id="polygon46"
       transform="matrix(0.999978,0,0,1.0000511,-11.135335,-8.2097795)" />
    <polygon
       points="255.91,86.747 256.167,87.713 269.547,84.129 269.288,83.163 270.06,82.956 269.297,80.106 268.524,80.313 266.984,74.566 267.757,74.359 266.993,71.509 266.221,71.716 265.962,70.75 252.584,74.335 252.843,75.301 252.07,75.508 252.833,78.358 253.606,78.151 255.146,83.898 254.373,84.105 255.137,86.954 "
       style="fill:none;stroke:#000000;stroke-width:0.05mm"
       id="polygon48"
       transform="matrix(0.999978,0,0,1.0000511,-10.077001,-8.2097795)" />
    <polygon
       points="186.576,85.603 186.835,86.569 200.213,82.984 199.954,82.018 200.727,81.811 199.963,78.962 199.191,79.169 197.651,73.422 198.423,73.215 197.66,70.365 196.887,70.572 196.628,69.606 183.25,73.191 183.509,74.157 182.736,74.364 183.5,77.213 184.273,77.006 185.813,82.754 185.04,82.961 185.803,85.81 "
       style="fill:none;stroke:#000000;stroke-width:0.05mm"
       id="polygon50"
       transform="matrix(0.999978,0,0,1.0000511,-10.077001,-8.2097795)" />
    <polygon
       points="29.033,81.598 29.806,81.805 29.547,82.771 42.925,86.355 43.184,85.389 43.957,85.597 44.72,82.747 43.948,82.54 45.488,76.793 46.26,77 47.024,74.15 46.251,73.943 46.51,72.977 33.132,69.393 32.873,70.359 32.099,70.152 31.337,73.001 32.108,73.208 30.569,78.955 29.797,78.748 "
       style="fill:none;stroke:#000000;stroke-width:0.05mm"
       id="polygon52"
       transform="matrix(0.999978,0,0,1.0000511,-11.135335,-8.2097795)" />
    <polygon
       points="100.667,81.07 101.44,81.277 101.181,82.243 114.559,85.828 114.818,84.862 115.59,85.069 116.354,82.219 115.581,82.012 117.121,76.265 117.894,76.472 118.657,73.622 117.885,73.415 118.144,72.449 104.765,68.865 104.507,69.831 103.734,69.624 102.97,72.473 103.743,72.68 102.203,78.428 101.43,78.22 "
       style="fill:none;stroke:#000000;stroke-width:0.05mm"
       id="polygon54"
       transform="matrix(0.999978,0,0,1.0000511,-11.135335,-8.2097795)" />
    <polygon
       points="204.977,80.673 205.236,81.639 218.614,78.054 218.355,77.088 219.128,76.881 218.364,74.031 217.592,74.238 216.052,68.491 216.824,68.284 216.061,65.435 215.288,65.642 215.029,64.676 201.651,68.26 201.91,69.226 201.137,69.433 201.901,72.283 202.673,72.076 204.213,77.823 203.441,78.03 204.204,80.88 "
       style="fill:none;stroke:#000000;stroke-width:0.05mm"
       id="polygon60"
       transform="matrix(0.999978,0,0,1.0000511,-10.077001,-8.2097795)" />
    <polygon
       points="82.266,76.139 83.039,76.346 82.78,77.312 96.158,80.897 96.417,79.931 97.19,80.138 97.953,77.289 97.18,77.082 98.72,71.334 99.493,71.541 100.257,68.692 99.484,68.485 99.743,67.519 86.365,63.934 86.106,64.9 85.333,64.692 84.57,67.543 85.342,67.75 83.802,73.497 83.03,73.29 "
       style="fill:none;stroke:#000000;stroke-width:0.05mm"
       id="polygon62"
       transform="matrix(0.999978,0,0,1.0000511,-11.135335,-8.2097795)" />
    <polygon
       points="223.378,75.742 223.637,76.708 237.015,73.123 236.756,72.157 237.529,71.95 236.765,69.101 235.992,69.308 234.452,63.561 235.225,63.354 234.462,60.504 233.689,60.711 233.43,59.745 220.052,63.33 220.311,64.296 219.538,64.502 220.302,67.352 221.074,67.145 222.614,72.893 221.842,73.1 222.605,75.949 "
       style="fill:none;stroke:#000000;stroke-width:0.05mm"
       id="polygon64"
       transform="matrix(0.999978,0,0,1.0000511,-10.077001,-8.2097795)" />
    <polygon
       points="63.865,71.209 64.638,71.416 64.379,72.382 77.757,75.967 78.016,75.001 78.789,75.208 79.552,72.358 78.779,72.151 80.319,66.404 81.092,66.611 81.856,63.761 81.083,63.554 81.342,62.588 67.964,59.004 67.705,59.97 66.932,59.763 66.169,62.612 66.941,62.819 65.401,68.567 64.629,68.359 "
       style="fill:none;stroke:#000000;stroke-width:0.05mm"
       id="polygon66"
       transform="matrix(0.999978,0,0,1.0000511,-11.135335,-8.2097795)" />
    <polygon
       points="158.644,73.365 158.903,74.331 172.281,70.747 172.023,69.781 172.795,69.574 172.032,66.724 171.259,66.931 169.719,61.184 170.492,60.977 169.728,58.127 168.956,58.335 168.697,57.369 155.319,60.953 155.577,61.919 154.805,62.126 155.568,64.975 156.341,64.769 157.881,70.516 157.108,70.723 157.872,73.572 "
       style="fill:none;stroke:#000000;stroke-width:0.05mm"
       id="polygon68"
       transform="matrix(0.999978,0,0,1.0000511,-10.077001,-8.2097795)" />
    <polygon
       points="241.779,70.812 242.038,71.778 255.416,68.193 255.157,67.227 255.93,67.02 255.166,64.17 254.393,64.377 252.853,58.63 253.626,58.423 252.863,55.574 252.09,55.781 251.831,54.815 238.453,58.399 238.712,59.365 237.939,59.572 238.703,62.422 239.475,62.215 241.015,67.962 240.242,68.169 241.006,71.019 "
       style="fill:none;stroke:#000000;stroke-width:0.05mm"
       id="polygon70"
       transform="matrix(0.999978,0,0,1.0000511,-10.077001,-8.2097795)" />
    <polygon
       points="119.398,66.367 120.171,66.574 119.912,67.54 133.29,71.125 133.549,70.159 134.322,70.366 135.085,67.516 134.312,67.309 135.852,61.562 136.625,61.769 137.389,58.919 136.616,58.712 136.875,57.746 123.497,54.162 123.238,55.128 122.465,54.921 121.702,57.77 122.474,57.977 120.934,63.724 120.162,63.517 "
       style="fill:none;stroke:#000000;stroke-width:0.05mm"
       id="polygon72"
       transform="matrix(0.999978,0,0,1.0000511,-11.135335,-8.2097795)" />
    <polygon
       points="45.464,66.278 46.237,66.485 45.978,67.451 59.356,71.036 59.615,70.07 60.388,70.277 61.151,67.428 60.379,67.221 61.919,61.473 62.691,61.68 63.455,58.831 62.682,58.624 62.941,57.658 49.563,54.073 49.304,55.039 48.531,54.832 47.768,57.682 48.541,57.889 47.001,63.636 46.228,63.429 "
       style="fill:none;stroke:#000000;stroke-width:0.05mm"
       id="polygon74"
       transform="matrix(0.999978,0,0,1.0000511,-11.135335,-8.2097795)" />
    <polygon
       points="177.045,68.435 177.304,69.401 190.682,65.816 190.423,64.85 191.196,64.642 190.433,61.794 189.66,62.001 188.12,56.253 188.893,56.046 188.129,53.197 187.356,53.404 187.098,52.438 173.72,56.023 173.978,56.989 173.206,57.196 173.969,60.045 174.742,59.838 176.282,65.585 175.509,65.792 176.273,68.642 "
       style="fill:none;stroke:#000000;stroke-width:0.05mm"
       id="polygon76"
       transform="matrix(0.999978,0,0,1.0000511,-10.077001,-8.2097795)" />
    <polygon
       points="260.179,65.881 260.438,66.847 273.817,63.262 273.558,62.296 274.33,62.089 273.567,59.24 272.794,59.447 271.254,53.7 272.027,53.493 271.263,50.643 270.491,50.85 270.232,49.884 256.854,53.469 257.113,54.435 256.34,54.642 257.102,57.491 257.876,57.284 259.416,63.032 258.643,63.239 259.407,66.088 "
       style="fill:none;stroke:#000000;stroke-width:0.05mm"
       id="polygon78"
       transform="matrix(0.999978,0,0,1.0000511,-10.077001,-8.2097795)" />
    <polygon
       points="100.997,61.436 101.77,61.643 101.511,62.609 114.889,66.194 115.148,65.228 115.921,65.435 116.684,62.586 115.912,62.379 117.452,56.631 118.224,56.838 118.988,53.989 118.215,53.782 118.474,52.816 105.096,49.231 104.837,50.197 104.064,49.99 103.301,52.84 104.073,53.047 102.533,58.794 101.761,58.587 "
       style="fill:none;stroke:#000000;stroke-width:0.05mm"
       id="polygon80"
       transform="matrix(0.999978,0,0,1.0000511,-11.135335,-8.2097795)" />
    <polygon
       points="27.063,61.348 27.836,61.555 27.577,62.521 40.955,66.106 41.214,65.139 41.987,65.347 42.75,62.497 41.978,62.29 43.518,56.543 44.29,56.75 45.054,53.9 44.281,53.693 44.54,52.727 31.162,49.143 30.903,50.109 30.13,49.902 29.367,52.751 30.14,52.958 28.6,58.705 27.827,58.498 "
       style="fill:none;stroke:#000000;stroke-width:0.05mm"
       id="polygon82"
       transform="matrix(0.999978,0,0,1.0000511,-11.135335,-8.2097795)" />
    <polygon
       points="195.446,63.504 195.705,64.469 209.083,60.886 208.824,59.92 209.597,59.713 208.834,56.863 208.061,57.07 206.521,51.323 207.294,51.116 206.53,48.266 205.757,48.473 205.498,47.508 192.12,51.092 192.379,52.058 191.606,52.265 192.37,55.115 193.143,54.908 194.683,60.655 193.91,60.862 194.673,63.711 "
       style="fill:none;stroke:#000000;stroke-width:0.05mm"
       id="polygon84"
       transform="matrix(0.999978,0,0,1.0000511,-10.077001,-8.2097795)" />
    <polygon
       points="82.596,56.506 83.369,56.713 83.11,57.679 96.488,61.264 96.747,60.298 97.52,60.505 98.283,57.655 97.511,57.448 99.051,51.701 99.823,51.908 100.587,49.058 99.814,48.851 100.073,47.885 86.695,44.301 86.436,45.267 85.663,45.06 84.9,47.909 85.673,48.116 84.133,53.863 83.36,53.656 "
       style="fill:none;stroke:#000000;stroke-width:0.05mm"
       id="polygon86"
       transform="matrix(0.999978,0,0,1.0000511,-11.135335,-8.2097795)" />
    <polygon
       points="213.847,58.574 214.106,59.54 227.484,55.955 227.225,54.989 227.998,54.782 227.234,51.933 226.462,52.14 224.922,46.392 225.694,46.185 224.931,43.336 224.158,43.543 223.899,42.577 210.521,46.162 210.78,47.128 210.007,47.335 210.771,50.184 211.544,49.977 213.084,55.724 212.311,55.931 213.074,58.781 "
       style="fill:none;stroke:#000000;stroke-width:0.05mm"
       id="polygon88"
       transform="matrix(0.999978,0,0,1.0000511,-10.077001,-8.2097795)" />
    <polygon
       points="64.195,51.575 64.968,51.782 64.709,52.748 78.087,56.333 78.346,55.367 79.119,55.574 79.883,52.725 79.11,52.518 80.65,46.77 81.422,46.977 82.186,44.128 81.413,43.921 81.672,42.955 68.294,39.37 68.035,40.336 67.262,40.129 66.499,42.979 67.272,43.186 65.732,48.933 64.959,48.726 "
       style="fill:none;stroke:#000000;stroke-width:0.05mm"
       id="polygon90"
       transform="matrix(0.999978,0,0,1.0000511,-11.135335,-8.2097795)" />
    <polygon
       points="232.248,53.643 232.507,54.609 245.885,51.025 245.626,50.059 246.399,49.852 245.635,47.002 244.863,47.209 243.323,41.462 244.095,41.255 243.332,38.405 242.559,38.612 242.3,37.647 228.922,41.231 229.181,42.197 228.408,42.404 229.172,45.254 229.945,45.047 231.484,50.794 230.712,51.001 231.475,53.85 "
       style="fill:none;stroke:#000000;stroke-width:0.05mm"
       id="polygon92"
       transform="matrix(0.999978,0,0,1.0000511,-10.077001,-8.2097795)" />
    <polygon
       points="45.795,46.645 46.567,46.852 46.308,47.818 59.687,51.403 59.945,50.437 60.718,50.644 61.482,47.794 60.709,47.587 62.249,41.84 63.022,42.047 63.785,39.197 63.012,38.99 63.271,38.024 49.893,34.44 49.634,35.406 48.862,35.199 48.098,38.048 48.871,38.255 47.331,44.002 46.558,43.795 "
       style="fill:none;stroke:#000000;stroke-width:0.05mm"
       id="polygon94"
       transform="matrix(0.999978,0,0,1.0000511,-11.135335,-8.2097795)" />
    <polygon
       points="255.249,47.48 255.508,48.446 268.886,44.862 268.627,43.896 269.4,43.689 268.636,40.839 267.864,41.046 266.324,35.299 267.096,35.092 266.333,32.242 265.56,32.449 265.301,31.483 251.923,35.068 252.182,36.034 251.409,36.241 252.173,39.091 252.946,38.883 254.486,44.631 253.713,44.838 254.476,47.687 "
       style="fill:none;stroke:#000000;stroke-width:0.05mm"
       id="polygon96"
       transform="matrix(0.999978,0,0,1.0000511,-10.077001,-8.2097795)" />
    <polygon
       points="27.394,41.714 28.166,41.921 27.908,42.887 41.286,46.472 41.544,45.506 42.317,45.713 43.081,42.864 42.308,42.657 43.848,36.909 44.621,37.116 45.384,34.267 44.611,34.06 44.87,33.094 31.492,29.509 31.233,30.475 30.461,30.268 29.697,33.118 30.47,33.325 28.93,39.072 28.157,38.865 "
       style="fill:none;stroke:#000000;stroke-width:0.05mm"
       id="polygon98"
       transform="matrix(0.999978,0,0,1.0000511,-11.135335,-8.2097795)" />
    <path
       id="rect4763-7-6"
       style="display:inline;fill-opacity:0.0014062;stroke:#000000;stroke-width:0.189"
       d="m 257.282,0.09623974 c -29.7921,0.02306 -59.58468,0.0013 -89.37696,0.0078 -49.46644,0.0045 -98.934188,-0.0065 -148.400388,0.01758 C 13.40829,0.37339374 7.8350505,3.9636487 4.2097295,8.7368537 1.5012015,12.248147 -0.10278847,16.666631 0.11402653,21.127479 c 0.0095,23.4983 -0.02766,46.99815 0.0293,70.496094 0.299963,11.786607 4.94370197,23.409117 12.91406247,32.105467 7.364166,8.17219 17.509356,13.77056 28.353516,15.625 4.98675,0.94072 10.07909,0.72847 15.12695,0.75586 58.228665,-0.0127 116.458955,0.009 174.687495,-0.0234 11.45101,-0.19827 22.78636,-4.48831 31.45117,-11.98828 8.3304,-7.08952 14.19709,-16.99779 16.38673,-27.7168 0.89839,-4.157444 1.10734,-8.423079 1.05273,-12.66601 -0.0167,-22.810706 0.0263,-45.621393 -0.0273,-68.431641 -0.3009,-5.806064 -3.69878,-11.0770803 -8.13477,-14.6640623 -3.51083,-2.814387 -7.93811,-4.61110496 -12.4785,-4.51367196 -0.73114,-0.01072 -1.46218,-0.01392 -2.19337,-0.0098 z" />
    <circle
       style="display:inline;fill:#000000;fill-opacity:0.0014062;stroke:#000000;stroke-width:0.189"
       id="path1418-5-1"
       cx="122.59809"
       cy="5.635921"
       r="1.75" />
    <circle
       style="display:inline;fill:#000000;fill-opacity:0.0014062;stroke:#000000;stroke-width:0.189"
       id="path1418-6-92-0"
       cx="90.114761"
       cy="134.57759"
       r="1.75" />
    <circle
       style="display:inline;fill:#000000;fill-opacity:0.0014062;stroke:#000000;stroke-width:0.189"
       id="path1418-6-9-2-6"
       cx="19.036163"
       cy="121.94245"
       r="1.75" />
    <circle
       style="display:inline;fill:#000000;fill-opacity:0.0014062;stroke:#000000;stroke-width:0.189"
       id="path1418-6-9-6-8-3"
       cx="5.3444972"
       cy="61.844486"
       r="1.75" />
    <circle
       style="display:inline;fill:#000000;fill-opacity:0.0014062;stroke:#000000;stroke-width:0.189"
       id="path1418-6-9-6-7-9-2"
       cx="274.84451"
       cy="61.844486"
       r="1.75" />
    <circle
       style="display:inline;fill:#000000;fill-opacity:0.0014062;stroke:#000000;stroke-width:0.189"
       id="path1418-6-9-3-7-0"
       cx="261.15286"
       cy="121.94198"
       r="1.75" />
    <circle
       style="display:inline;fill:#000000;fill-opacity:0.0014062;stroke:#000000;stroke-width:0.189"
       id="path1418-6-5-3-6"
       cx="10.277275"
       cy="10.269256"
       r="1.75" />
    <circle
       style="display:inline;fill:#000000;fill-opacity:0.0014062;stroke:#000000;stroke-width:0.189"
       id="path1418-6-5-6-6-1"
       cx="269.9523"
       cy="10.269485"
       r="1.75" />
    <circle
       style="display:inline;fill:#000000;fill-opacity:0.0014062;stroke:#000000;stroke-width:0.189"
       id="path1418-6-7-1-5"
       cx="190.11478"
       cy="134.57759"
       r="1.75" />
    <circle
       style="display:inline;fill:#000000;fill-opacity:0.0014062;stroke:#000000;stroke-width:0.189"
       id="path1418-3-2-5"
       cx="157.8358"
       cy="5.635921"
       r="1.75" />
  </g>
  <g
     inkscape:groupmode="layer"
     id="layer4"
     inkscape:label="closed"
     style="display:inline">
    <path
       id="rect4763-4"
       style="display:inline;fill-opacity:0.0014062;stroke:#000000;stroke-width:0.189"
       d="m 257.282,0.09623974 c -29.79209,0.02306 -59.58467,0.0013 -89.37695,0.0078 -49.46644,0.0045 -98.9342,-0.0065 -148.400398,0.01758 C 13.40829,0.37339374 7.8350515,3.9636487 4.2097295,8.7368537 1.5012015,12.248147 -0.10278847,16.666631 0.11402653,21.127479 c 0.0095,23.4983 -0.02766,46.99815 0.0293,70.496094 0.299963,11.786607 4.94370197,23.409117 12.91406247,32.105467 7.364168,8.17219 17.50936,13.77056 28.353516,15.625 4.98675,0.94072 10.079094,0.72847 15.126953,0.75586 58.228672,-0.0127 116.458962,0.009 174.687502,-0.0234 11.45101,-0.19827 22.78636,-4.48831 31.45117,-11.98828 8.33039,-7.08952 14.19708,-16.99779 16.38672,-27.7168 0.8984,-4.157444 1.10734,-8.423079 1.05273,-12.66601 -0.0167,-22.810706 0.0263,-45.621393 -0.0273,-68.431641 -0.3009,-5.806064 -3.69878,-11.0770803 -8.13477,-14.6640623 -3.51083,-2.814388 -7.93811,-4.61110496 -12.47851,-4.51367196 -0.73113,-0.01072 -1.46217,-0.01392 -2.19336,-0.0098 z" />
    <path
       id="rect4763-0-7"
       style="display:inline;fill-opacity:0.0014062;stroke:#000000;stroke-width:0.189"
       d="m 257.28906,11.095703 c -40.5849,0.02412 -81.16981,-0.0024 -121.75471,0.0091 -38.571647,0.0041 -77.143735,-0.01023 -115.715097,0.02229 -2.097927,0.148918 -4.002253,1.287787 -5.488404,2.721261 -1.389201,1.372222 -2.60448,3.023637 -3.053923,4.956334 -0.181714,0.707426 -0.203002,1.440299 -0.163645,2.16543 0.01239,23.522574 -0.03274,47.045363 0.03389,70.567791 0.0763,2.30781 0.348668,4.612428 0.847529,6.867466 0.320965,1.24324 0.579338,2.504522 0.992331,3.722652 1.721634,5.35578 4.601117,10.34515 8.443698,14.45978 5.756638,6.28854 13.654537,10.57633 22.067101,11.96625 1.583438,0.29784 3.190983,0.457 4.801442,0.49303 2.155623,0.13687 4.31682,0.0584 6.47503,0.0622 58.832317,-0.0153 117.664787,0.0146 176.497037,-0.0277 1.32883,-0.0353 2.65879,-0.12074 3.97309,-0.32372 2.12911,-0.25753 4.23893,-0.69952 6.28442,-1.3455 1.13869,-0.41142 2.3126,-0.723 3.42602,-1.20357 4.01467,-1.63246 7.74912,-3.95013 10.98822,-6.83013 6.35213,-5.55651 10.79289,-13.25402 12.41312,-21.537265 0.71159,-3.410902 0.79961,-6.911927 0.75883,-10.384254 -0.0181,-22.567249 0.0286,-45.134809 -0.0303,-67.701859 -0.14797,-1.938049 -1.19127,-3.692023 -2.4738,-5.10379 -1.52375,-1.661461 -3.48068,-3.050106 -5.73674,-3.455137 -0.77906,-0.144897 -1.57361,-0.0698 -2.36055,-0.100909 -0.40819,-0.0025 -0.81638,-0.0015 -1.22456,2.27e-4 z"
       inkscape:path-effect="#path-effect2630"
       inkscape:original-d="m 257.28199,0.09622474 c -29.79209,0.02306 -59.58467,0.0013 -89.37695,0.0078 -49.46643,0.0045 -98.93419,-0.0065 -148.400388,0.01758 C 13.40829,0.37337874 7.8350505,3.9636337 4.2097295,8.7368387 1.5012015,12.248132 -0.10278847,16.666616 0.11402653,21.127464 c 0.0095,23.4983 -0.02766,46.99815 0.0293,70.496094 0.299963,11.786602 4.94370197,23.409112 12.91406247,32.105462 7.364168,8.17219 17.50936,13.77056 28.353516,15.625 4.98675,0.94072 10.079094,0.72847 15.126953,0.75586 58.228672,-0.0127 116.458962,0.009 174.687502,-0.0234 11.45101,-0.19827 22.78636,-4.48831 31.45117,-11.98828 8.33039,-7.08952 14.19708,-16.99779 16.38672,-27.7168 0.8984,-4.157439 1.10734,-8.423074 1.05273,-12.666005 -0.0167,-22.810706 0.0263,-45.621393 -0.0273,-68.431641 -0.3009,-5.806064 -3.69878,-11.0770803 -8.13477,-14.6640623 -3.51083,-2.814387 -7.93811,-4.61110496 -12.47851,-4.51367196 -0.73113,-0.01072 -1.46217,-0.01392 -2.19336,-0.0098 z" />
    <circle
       style="display:inline;fill:#000000;fill-opacity:0.0014062;stroke:#000000;stroke-width:0.189"
       id="path1418-65"
       cx="122.59811"
       cy="5.6359215"
       r="1.75" />
    <circle
       style="display:inline;fill:#000000;fill-opacity:0.0014062;stroke:#000000;stroke-width:0.189"
       id="path1418-6-6"
       cx="90.114777"
       cy="134.57759"
       r="1.75" />
    <circle
       style="display:inline;fill:#000000;fill-opacity:0.0014062;stroke:#000000;stroke-width:0.189"
       id="path1418-6-9-9"
       cx="19.036163"
       cy="121.94245"
       r="1.75" />
    <circle
       style="display:inline;fill:#000000;fill-opacity:0.0014062;stroke:#000000;stroke-width:0.189"
       id="path1418-6-9-6-3"
       cx="5.3445015"
       cy="61.844486"
       r="1.75" />
    <circle
       style="display:inline;fill:#000000;fill-opacity:0.0014062;stroke:#000000;stroke-width:0.189"
       id="path1418-6-9-6-7-7"
       cx="274.84451"
       cy="61.844486"
       r="1.75" />
    <circle
       style="display:inline;fill:#000000;fill-opacity:0.0014062;stroke:#000000;stroke-width:0.189"
       id="path1418-6-9-3-4"
       cx="261.15286"
       cy="121.94198"
       r="1.75" />
    <circle
       style="display:inline;fill:#000000;fill-opacity:0.0014062;stroke:#000000;stroke-width:0.189"
       id="path1418-6-5-5"
       cx="10.277275"
       cy="10.269257"
       r="1.75" />
    <circle
       style="display:inline;fill:#000000;fill-opacity:0.0014062;stroke:#000000;stroke-width:0.189"
       id="path1418-6-5-6-2"
       cx="269.9523"
       cy="10.269485"
       r="1.75" />
    <circle
       style="display:inline;fill:#000000;fill-opacity:0.0014062;stroke:#000000;stroke-width:0.189"
       id="path1418-6-7-5"
       cx="190.11479"
       cy="134.57759"
       r="1.75" />
    <circle
       style="display:inline;fill:#000000;fill-opacity:0.0014062;stroke:#000000;stroke-width:0.189"
       id="path1418-3-4"
       cx="157.8358"
       cy="5.6359215"
       r="1.75" />
  </g>
  <g
     inkscape:groupmode="layer"
     id="g2668"
     inkscape:label="open"
     style="display:inline">
    <path
       style="display:inline;fill:none;fill-opacity:0.0014062;stroke:#000000;stroke-width:0.714331"
       d="m 976.54883,0.36132812 c -1.38161,-0.006142 -2.76276,-0.005833 -4.14453,0.001953 -112.60003,0.0871559 -225.20199,0.00473 -337.80274,0.0292969 -22.41327,0.002039 -44.82683,0.003222 -67.24023,0.003906 V 41.960938 c 135.02329,-0.0122 270.04703,0.05486 405.07031,-0.02539 1.54272,-0.0065 3.08419,-0.0094 4.62695,0 2.97427,0.117578 5.9774,-0.166783 8.92188,0.380859 8.52684,1.530826 15.92453,6.779057 21.68363,13.058594 4.8474,5.335813 8.7903,11.966107 9.3496,19.291016 0.2226,85.292793 0.045,170.587323 0.1133,255.880863 0.1541,13.12375 -0.1777,26.35644 -2.8672,39.24804 -6.1237,31.30676 -22.908,60.39941 -46.91605,81.40039 -12.24227,10.88504 -26.35574,19.64453 -41.5293,25.81446 -4.2082,1.81633 -8.6455,2.99385 -12.94922,4.54882 -7.73098,2.4415 -15.70492,4.1126 -23.75195,5.08594 -4.96744,0.76717 -9.99523,1.08924 -15.01758,1.22266 -222.3581,0.15987 -444.71585,0.0476 -667.07422,0.10547 -8.15701,-0.0144 -16.32541,0.28098 -24.47265,-0.23633 -6.08677,-0.13617 -12.1638,-0.73758 -18.14844,-1.86328 -31.79552,-5.25324 -61.64497,-21.45886 -83.402343,-45.22657 -14.523141,-15.55136 -25.4071,-34.40807 -31.914063,-54.65039 -1.560919,-4.60395 -2.536904,-9.37145 -3.75,-14.07031 C 43.448525,363.4028 42.419237,354.69313 42.130859,345.9707 41.879029,257.06703 42.050734,168.16203 42.003906,79.257812 41.855155,76.51716 41.934301,73.746002 42.621094,71.072266 44.319776,63.767584 48.913539,57.526194 54.164062,52.339844 59.78101,46.921989 66.97903,42.617526 74.908203,42.054688 213.86165,41.937534 352.81687,41.981723 491.77148,41.972656 V 0.3984375 C 352.42009,0.39811574 213.06811,0.39114952 73.71875,0.45898438 50.677382,1.4105711 29.61216,14.981026 15.910156,33.021484 5.6732002,46.292514 -0.38781761,62.991666 0.43164062,79.851562 0.46754613,168.66403 0.32573375,257.48184 0.54101562,346.29297 1.674734,390.84078 19.227366,434.76862 49.351562,467.63672 c 27.833075,30.88701 66.176318,52.04774 107.162108,59.05664 18.84756,3.55548 38.09336,2.75195 57.17188,2.85547 220.07685,-0.048 440.15996,0.0346 660.23633,-0.0879 43.27939,-0.74937 86.12221,-16.9642 118.87109,-45.31055 31.48493,-26.79503 53.65783,-64.24306 61.93363,-104.75586 3.3956,-15.71317 4.1868,-31.83482 3.9804,-47.87109 -0.063,-86.21369 0.099,-172.42866 -0.1035,-258.640628 -1.1373,-21.944177 -13.9802,-41.864779 -30.7461,-55.421874 C 1014.5881,6.82388 997.85587,0.03213993 980.69531,0.40039062 c -1.38166,-0.0202582 -2.76487,-0.0329208 -4.14648,-0.0390625 z"
       id="path2644"
       transform="scale(0.26458333)" />
    <circle
       style="display:inline;fill:#000000;fill-opacity:0.0014062;stroke:#000000;stroke-width:0.189"
       id="circle2648"
       cx="122.59811"
       cy="5.6359215"
       r="1.75" />
    <circle
       style="display:inline;fill:#000000;fill-opacity:0.0014062;stroke:#000000;stroke-width:0.189"
       id="circle2650"
       cx="90.114777"
       cy="134.57759"
       r="1.75" />
    <circle
       style="display:inline;fill:#000000;fill-opacity:0.0014062;stroke:#000000;stroke-width:0.189"
       id="circle2652"
       cx="19.036163"
       cy="121.94245"
       r="1.75" />
    <circle
       style="display:inline;fill:#000000;fill-opacity:0.0014062;stroke:#000000;stroke-width:0.189"
       id="circle2654"
       cx="5.3445015"
       cy="61.844486"
       r="1.75" />
    <circle
       style="display:inline;fill:#000000;fill-opacity:0.0014062;stroke:#000000;stroke-width:0.189"
       id="circle2656"
       cx="274.84451"
       cy="61.844486"
       r="1.75" />
    <circle
       style="display:inline;fill:#000000;fill-opacity:0.0014062;stroke:#000000;stroke-width:0.189"
       id="circle2658"
       cx="261.15286"
       cy="121.94198"
       r="1.75" />
    <circle
       style="display:inline;fill:#000000;fill-opacity:0.0014062;stroke:#000000;stroke-width:0.189"
       id="circle2660"
       cx="10.277275"
       cy="10.269257"
       r="1.75" />
    <circle
       style="display:inline;fill:#000000;fill-opacity:0.0014062;stroke:#000000;stroke-width:0.189"
       id="circle2662"
       cx="269.9523"
       cy="10.269485"
       r="1.75" />
    <circle
       style="display:inline;fill:#000000;fill-opacity:0.0014062;stroke:#000000;stroke-width:0.189"
       id="circle2664"
       cx="190.11479"
       cy="134.57759"
       r="1.75" />
    <circle
       style="display:inline;fill:#000000;fill-opacity:0.0014062;stroke:#000000;stroke-width:0.189"
       id="circle2666"
       cx="157.8358"
       cy="5.6359215"
       r="1.75" />
  </g>
  <g
     inkscape:groupmode="layer"
     id="layer3"
     inkscape:label="top"
     style="display:inline">
    <path
       id="polygon12"
       d="m 262.03843,18.255166 -27.45508,7.361328 v -0.0039 l -93.11914,24.951172 5.19141,19.371093 4.59961,-1.236328 4.67187,17.435547 -9.20117,2.464844 4.93164,18.400388 -4.60156,1.23242 5.18945,19.3711 46.9707,-12.58789 -4.93164,-18.400386 13.31641,-3.56836 27.11914,-7.267585 4.92969,18.404301 19.37109,-5.191406 -4.93359,-18.400395 9.20312,-2.464843 -4.93164,-18.402344 9.20117,-2.464844 -4.93359,-18.40039 4.60352,-1.232422 z"
       style="fill:none;stroke:#000000;stroke-width:0.05mm" />
    <path
       id="polygon14"
       d="m 18.185164,17.514932 -5.1875,19.36914 4.59961,1.234375 -4.931641,18.398438 4.601562,1.232421 -4.933593,18.402344 13.804687,3.697266 -4.933594,18.400388 19.369141,5.191406 4.931641,-18.402341 40.433593,10.835935 -4.93164,18.398436 46.97071,12.58789 5.1914,-19.37109 -4.60156,-1.23243 4.93164,-18.400382 -9.20117,-2.464843 4.93164,-18.400391 -4.60352,-1.232422 4.9336,-18.402344 -37.285164,-9.988281 z"
       style="fill:none;stroke:#000000;stroke-width:0.05mm" />
    <path
       id="rect4763-7-0"
       style="display:inline;fill-opacity:0.0014062;stroke:#000000;stroke-width:0.189"
       d="m 257.282,0.09623974 c -29.7921,0.02306 -59.58468,0.0013 -89.37696,0.0078 -49.46644,0.0045 -98.934188,-0.0065 -148.400388,0.01758 C 13.40829,0.37339374 7.8350505,3.9636487 4.2097295,8.7368537 1.5012005,12.248147 -0.10278846,16.666631 0.11402654,21.127479 c 0.0095,23.4983 -0.02766,46.99815 0.0293,70.496094 0.299963,11.786607 4.94370196,23.409117 12.91406246,32.105467 7.364166,8.17219 17.509356,13.77056 28.353516,15.625 4.98675,0.94072 10.07909,0.72847 15.12695,0.75586 58.228665,-0.0127 116.458955,0.009 174.687495,-0.0234 11.45101,-0.19827 22.78636,-4.48831 31.45117,-11.98828 8.3304,-7.08952 14.19709,-16.99779 16.38673,-27.7168 0.89839,-4.157444 1.10734,-8.423079 1.05273,-12.66601 -0.0167,-22.810706 0.0263,-45.621393 -0.0273,-68.431641 -0.3009,-5.806064 -3.69878,-11.0770803 -8.13477,-14.6640623 -3.51083,-2.814387 -7.93811,-4.61110496 -12.4785,-4.51367196 -0.73114,-0.01072 -1.46218,-0.01392 -2.19337,-0.0098 z" />
    <circle
       style="display:inline;fill:#000000;fill-opacity:0.0014062;stroke:#000000;stroke-width:0.189"
       id="path1418-5-7"
       cx="122.59809"
       cy="5.63592"
       r="1.75" />
    <circle
       style="display:inline;fill:#000000;fill-opacity:0.0014062;stroke:#000000;stroke-width:0.189"
       id="path1418-6-92-8"
       cx="90.114769"
       cy="134.57759"
       r="1.75" />
    <circle
       style="display:inline;fill:#000000;fill-opacity:0.0014062;stroke:#000000;stroke-width:0.189"
       id="path1418-6-9-2-68"
       cx="19.036163"
       cy="121.94245"
       r="1.75" />
    <circle
       style="display:inline;fill:#000000;fill-opacity:0.0014062;stroke:#000000;stroke-width:0.189"
       id="path1418-6-9-6-8-8"
       cx="5.3444977"
       cy="61.844486"
       r="1.75" />
    <circle
       style="display:inline;fill:#000000;fill-opacity:0.0014062;stroke:#000000;stroke-width:0.189"
       id="path1418-6-9-6-7-9-4"
       cx="274.84451"
       cy="61.844486"
       r="1.75" />
    <circle
       style="display:inline;fill:#000000;fill-opacity:0.0014062;stroke:#000000;stroke-width:0.189"
       id="path1418-6-9-3-7-3"
       cx="261.15286"
       cy="121.94198"
       r="1.75" />
    <circle
       style="display:inline;fill:#000000;fill-opacity:0.0014062;stroke:#000000;stroke-width:0.189"
       id="path1418-6-5-3-1"
       cx="10.277275"
       cy="10.269256"
       r="1.75" />
    <circle
       style="display:inline;fill:#000000;fill-opacity:0.0014062;stroke:#000000;stroke-width:0.189"
       id="path1418-6-5-6-6-4"
       cx="269.9523"
       cy="10.269485"
       r="1.75" />
    <circle
       style="display:inline;fill:#000000;fill-opacity:0.0014062;stroke:#000000;stroke-width:0.189"
       id="path1418-6-7-1-9"
       cx="190.11478"
       cy="134.57759"
       r="1.75" />
    <circle
       style="display:inline;fill:#000000;fill-opacity:0.0014062;stroke:#000000;stroke-width:0.189"
       id="path1418-3-2-2"
       cx="157.8358"
       cy="5.63592"
       r="1.75" />
  </g>
  <g
     inkscape:groupmode="layer"
     id="g3968"
     inkscape:label="wip copy"
     style="display:inline">
    <rect
       style="fill:#000000;fill-opacity:0.0014062;stroke:#000000;stroke-width:0.189"
       id="rect3964"
       width="50"
       height="35"
       x="115.11478"
       y="0.10677066" />
    <rect
       style="fill:#000000;fill-opacity:0.0014062;stroke:#000000;stroke-width:0.189"
       id="rect3966"
       width="20"
       height="35"
       x="130.11479"
       y="0.10677066" />
  </g>
</svg>
