<?xml version="1.0" encoding="UTF-8" standalone="no"?>
<!-- Generated by SVGo -->

<svg
   width="302.077mm"
   height="160.260mm"
   viewBox="0.000 0.000 302.077 160.260"
   version="1.1"
   id="svg28"
   sodipodi:docname="wip.svg"
   inkscape:version="1.1.1 (3bf5ae0d25, 2021-09-20, custom)"
   xmlns:inkscape="http://www.inkscape.org/namespaces/inkscape"
   xmlns:sodipodi="http://sodipodi.sourceforge.net/DTD/sodipodi-0.dtd"
   xmlns="http://www.w3.org/2000/svg"
   xmlns:svg="http://www.w3.org/2000/svg">
  <defs
     id="defs32">
    <inkscape:path-effect
       effect="offset"
       id="path-effect2672"
       is_visible="true"
       lpeversion="1"
       linejoin_type="miter"
       unit="mm"
       offset="-11"
       miter_limit="4"
       attempt_force_join="false"
       update_on_knot_move="true" />
    <inkscape:path-effect
       effect="offset"
       id="path-effect2630"
       is_visible="true"
       lpeversion="1"
       linejoin_type="miter"
       unit="mm"
       offset="-11"
       miter_limit="4"
       attempt_force_join="false"
       update_on_knot_move="true" />
    <inkscape:path-effect
       effect="offset"
       id="path-effect1591"
       is_visible="true"
       lpeversion="1"
       linejoin_type="miter"
       unit="mm"
       offset="-11"
       miter_limit="4"
       attempt_force_join="false"
       update_on_knot_move="true" />
    <inkscape:path-effect
       effect="offset"
       id="path-effect1468"
       is_visible="true"
       lpeversion="1"
       linejoin_type="miter"
       unit="mm"
       offset="0"
       miter_limit="4"
       attempt_force_join="false"
       update_on_knot_move="true" />
    <inkscape:path-effect
       effect="offset"
       id="path-effect1326"
       is_visible="true"
       lpeversion="1"
       linejoin_type="miter"
       unit="mm"
       offset="0.5"
       miter_limit="4"
       attempt_force_join="false"
       update_on_knot_move="true" />
    <inkscape:path-effect
       effect="offset"
       id="path-effect1324"
       is_visible="true"
       lpeversion="1"
       linejoin_type="miter"
       unit="mm"
       offset="0.5"
       miter_limit="4"
       attempt_force_join="false"
       update_on_knot_move="true" />
  </defs>
  <sodipodi:namedview
     id="namedview30"
     pagecolor="#505050"
     bordercolor="#eeeeee"
     borderopacity="1"
     inkscape:pageshadow="0"
     inkscape:pageopacity="0"
     inkscape:pagecheckerboard="0"
     inkscape:document-units="mm"
     showgrid="false"
     showguides="false"
     inkscape:zoom="1.6694281"
     inkscape:cx="570.85417"
     inkscape:cy="316.57547"
     inkscape:window-width="2516"
     inkscape:window-height="1370"
     inkscape:window-x="20"
     inkscape:window-y="46"
     inkscape:window-maximized="1"
     inkscape:current-layer="layer3" />
  <g
     inkscape:groupmode="layer"
     id="layer3"
     inkscape:label="top-old"
     style="display:inline">
    <path
       id="polygon12"
       d="m 262.03843,18.255166 -27.45508,7.361328 v -0.0039 l -93.11914,24.951172 5.19141,19.371093 4.59961,-1.236328 4.67187,17.435547 -9.20117,2.464844 4.93164,18.400388 -4.60156,1.23242 5.18945,19.3711 46.9707,-12.58789 -4.93164,-18.400386 13.31641,-3.56836 27.11914,-7.267585 4.92969,18.404301 19.37109,-5.191406 -4.93359,-18.400395 9.20312,-2.464843 -4.93164,-18.402344 9.20117,-2.464844 -4.93359,-18.40039 4.60352,-1.232422 z"
       style="fill:none;stroke:#000000;stroke-width:0.05mm" />
    <path
       id="polygon14"
       d="m 18.185164,17.514932 -5.1875,19.36914 4.59961,1.234375 -4.931641,18.398438 4.601562,1.232421 -4.933593,18.402344 13.804687,3.697266 -4.933594,18.400388 19.369141,5.191406 4.931641,-18.402341 40.433593,10.835935 -4.93164,18.398436 46.97071,12.58789 5.1914,-19.37109 -4.60156,-1.23243 4.93164,-18.400382 -9.20117,-2.464843 4.93164,-18.400391 -4.60352,-1.232422 4.9336,-18.402344 -37.285164,-9.988281 z"
       style="fill:none;stroke:#000000;stroke-width:0.05mm" />
    <path
       id="rect4763-7-0"
       style="display:inline;fill-opacity:0.0014062;stroke:#000000;stroke-width:0.189"
       d="m 257.282,0.09623974 c -29.7921,0.02306 -59.58468,0.0013 -89.37696,0.0078 -49.46644,0.0045 -98.934188,-0.0065 -148.400388,0.01758 C 13.40829,0.37339374 7.8350505,3.9636487 4.2097295,8.7368537 1.5012005,12.248147 -0.10278846,16.666631 0.11402654,21.127479 c 0.0095,23.4983 -0.02766,46.99815 0.0293,70.496094 0.299963,11.786607 4.94370196,23.409117 12.91406246,32.105467 7.364166,8.17219 17.509356,13.77056 28.353516,15.625 4.98675,0.94072 10.07909,0.72847 15.12695,0.75586 58.228665,-0.0127 116.458955,0.009 174.687495,-0.0234 11.45101,-0.19827 22.78636,-4.48831 31.45117,-11.98828 8.3304,-7.08952 14.19709,-16.99779 16.38673,-27.7168 0.89839,-4.157444 1.10734,-8.423079 1.05273,-12.66601 -0.0167,-22.810706 0.0263,-45.621393 -0.0273,-68.431641 -0.3009,-5.806064 -3.69878,-11.0770803 -8.13477,-14.6640623 -3.51083,-2.814387 -7.93811,-4.61110496 -12.4785,-4.51367196 -0.73114,-0.01072 -1.46218,-0.01392 -2.19337,-0.0098 z" />
    <circle
       style="display:inline;fill:#000000;fill-opacity:0.0014062;stroke:#000000;stroke-width:0.189"
       id="path1418-5-7"
       cx="122.59809"
       cy="5.63592"
       r="1.75" />
    <circle
       style="display:inline;fill:#000000;fill-opacity:0.0014062;stroke:#000000;stroke-width:0.189"
       id="path1418-6-92-8"
       cx="90.114769"
       cy="134.57759"
       r="1.75" />
    <circle
       style="display:inline;fill:#000000;fill-opacity:0.0014062;stroke:#000000;stroke-width:0.189"
       id="path1418-6-9-2-68"
       cx="19.036163"
       cy="121.94245"
       r="1.75" />
    <circle
       style="display:inline;fill:#000000;fill-opacity:0.0014062;stroke:#000000;stroke-width:0.189"
       id="path1418-6-9-6-8-8"
       cx="5.3444977"
       cy="61.844486"
       r="1.75" />
    <circle
       style="display:inline;fill:#000000;fill-opacity:0.0014062;stroke:#000000;stroke-width:0.189"
       id="path1418-6-9-6-7-9-4"
       cx="274.84451"
       cy="61.844486"
       r="1.75" />
    <circle
       style="display:inline;fill:#000000;fill-opacity:0.0014062;stroke:#000000;stroke-width:0.189"
       id="path1418-6-9-3-7-3"
       cx="261.15286"
       cy="121.94198"
       r="1.75" />
    <circle
       style="display:inline;fill:#000000;fill-opacity:0.0014062;stroke:#000000;stroke-width:0.189"
       id="path1418-6-5-3-1"
       cx="10.277275"
       cy="10.269256"
       r="1.75" />
    <circle
       style="display:inline;fill:#000000;fill-opacity:0.0014062;stroke:#000000;stroke-width:0.189"
       id="path1418-6-5-6-6-4"
       cx="269.9523"
       cy="10.269485"
       r="1.75" />
    <circle
       style="display:inline;fill:#000000;fill-opacity:0.0014062;stroke:#000000;stroke-width:0.189"
       id="path1418-6-7-1-9"
       cx="190.11478"
       cy="134.57759"
       r="1.75" />
    <circle
       style="display:inline;fill:#000000;fill-opacity:0.0014062;stroke:#000000;stroke-width:0.189"
       id="path1418-3-2-2"
       cx="157.8358"
       cy="5.63592"
       r="1.75" />
  </g>
  <g
     inkscape:groupmode="layer"
     id="layer1"
     inkscape:label="plate-old"
     style="display:inline">
    <polygon
       points="163.472,128.184 162.699,128.39 163.463,131.24 164.236,131.033 164.494,131.999 177.872,128.414 177.614,127.449 178.386,127.242 177.623,124.392 176.85,124.599 175.31,118.852 176.083,118.645 175.319,115.795 174.547,116.002 174.288,115.036 160.91,118.621 161.169,119.587 160.396,119.794 161.159,122.644 161.932,122.437 "
       style="fill:none;stroke:#000000;stroke-width:0.05mm"
       id="polygon12-0"
       transform="matrix(0.999978,0,0,1.0000511,-10.077001,-8.2097795)" />
    <polygon
       points="126.084,118.11 124.544,123.858 123.771,123.651 123.007,126.5 123.78,126.707 123.521,127.673 136.899,131.258 137.158,130.292 137.931,130.498 138.695,127.649 137.922,127.442 139.462,121.695 140.235,121.902 140.998,119.053 140.225,118.846 140.484,117.88 127.106,114.295 126.847,115.261 126.074,115.054 125.311,117.903 "
       style="fill:none;stroke:#000000;stroke-width:0.05mm"
       id="polygon14-9"
       transform="matrix(0.999978,0,0,1.0000511,-11.135335,-8.2097795)" />
    <polygon
       points="186.473,122.021 185.7,122.228 186.464,125.077 187.237,124.87 187.495,125.836 200.874,122.251 200.615,121.286 201.387,121.078 200.624,118.229 199.851,118.436 198.311,112.689 199.084,112.482 198.32,109.632 197.548,109.839 197.289,108.873 183.911,112.458 184.17,113.424 183.397,113.631 184.16,116.48 184.933,116.273 "
       style="fill:none;stroke:#000000;stroke-width:0.05mm"
       id="polygon16"
       transform="matrix(0.999978,0,0,1.0000511,-10.077001,-8.2097795)" />
    <polygon
       points="103.083,111.947 101.543,117.695 100.77,117.487 100.006,120.337 100.779,120.544 100.52,121.51 113.898,125.095 114.157,124.129 114.93,124.336 115.693,121.486 114.921,121.279 116.461,115.532 117.233,115.739 117.997,112.889 117.224,112.682 117.483,111.717 104.105,108.132 103.846,109.098 103.073,108.891 102.31,111.74 "
       style="fill:none;stroke:#000000;stroke-width:0.05mm"
       id="polygon18"
       transform="matrix(0.999978,0,0,1.0000511,-11.135335,-8.2097795)" />
    <polygon
       points="163.142,108.55 162.369,108.757 163.133,111.607 163.905,111.4 164.164,112.366 177.542,108.781 177.283,107.815 178.056,107.608 177.293,104.759 176.52,104.966 174.98,99.218 175.753,99.011 174.989,96.162 174.216,96.369 173.957,95.403 160.579,98.988 160.838,99.954 160.065,100.161 160.829,103.01 161.602,102.803 "
       style="fill:none;stroke:#000000;stroke-width:0.05mm"
       id="polygon20"
       transform="matrix(0.999978,0,0,1.0000511,-10.077001,-8.2097795)" />
    <polygon
       points="126.414,98.477 124.874,104.224 124.101,104.017 123.338,106.867 124.111,107.074 123.852,108.04 137.23,111.624 137.489,110.658 138.261,110.865 139.025,108.016 138.252,107.809 139.792,102.062 140.565,102.269 141.328,99.419 140.556,99.212 140.814,98.246 127.436,94.661 127.178,95.627 126.405,95.42 125.641,98.27 "
       style="fill:none;stroke:#000000;stroke-width:0.05mm"
       id="polygon22"
       transform="matrix(0.999978,0,0,1.0000511,-11.135335,-8.2097795)" />
    <polygon
       points="250.876,104.764 250.103,104.971 250.867,107.82 251.64,107.613 251.899,108.579 265.277,104.995 265.018,104.029 265.791,103.822 265.027,100.972 264.254,101.179 262.714,95.432 263.487,95.225 262.724,92.375 261.951,92.583 261.691,91.617 248.314,95.201 248.573,96.167 247.8,96.374 248.564,99.224 249.336,99.017 "
       style="fill:none;stroke:#000000;stroke-width:0.05mm"
       id="polygon24"
       transform="matrix(0.999978,0,0,1.0000511,-10.077001,-8.2097795)" />
    <polygon
       points="38.679,94.691 37.14,100.438 36.367,100.231 35.603,103.08 36.376,103.287 36.117,104.253 49.495,107.838 49.754,106.872 50.527,107.079 51.29,104.229 50.518,104.022 52.058,98.275 52.83,98.482 53.594,95.633 52.821,95.426 53.08,94.46 39.702,90.875 39.443,91.841 38.67,91.634 37.907,94.483 "
       style="fill:none;stroke:#000000;stroke-width:0.05mm"
       id="polygon26"
       transform="matrix(0.999978,0,0,1.0000511,-11.135335,-8.2097795)" />
    <polygon
       points="181.543,103.62 180.77,103.827 181.533,106.676 182.306,106.469 182.565,107.435 195.943,103.851 195.684,102.885 196.457,102.678 195.693,99.828 194.921,100.035 193.381,94.288 194.153,94.081 193.39,91.231 192.617,91.438 192.358,90.472 178.98,94.057 179.239,95.023 178.466,95.23 179.23,98.08 180.003,97.873 "
       style="fill:none;stroke:#000000;stroke-width:0.05mm"
       id="polygon28"
       transform="matrix(0.999978,0,0,1.0000511,-10.077001,-8.2097795)" />
    <polygon
       points="108.013,93.546 106.473,99.294 105.7,99.087 104.937,101.936 105.71,102.143 105.451,103.109 118.829,106.694 119.088,105.728 119.86,105.935 120.624,103.085 119.851,102.878 121.391,97.131 122.164,97.338 122.927,94.489 122.155,94.282 122.414,93.316 109.035,89.731 108.777,90.697 108.004,90.49 107.24,93.339 "
       style="fill:none;stroke:#000000;stroke-width:0.05mm"
       id="polygon30"
       transform="matrix(0.999978,0,0,1.0000511,-11.135335,-8.2097795)" />
    <polygon
       points="199.944,98.689 199.171,98.896 199.934,101.746 200.707,101.539 200.966,102.505 214.344,98.92 214.085,97.954 214.858,97.747 214.094,94.898 213.322,95.105 211.782,89.357 212.554,89.15 211.791,86.301 211.018,86.508 210.759,85.542 197.381,89.127 197.64,90.093 196.867,90.3 197.631,93.149 198.404,92.942 "
       style="fill:none;stroke:#000000;stroke-width:0.05mm"
       id="polygon32"
       transform="matrix(0.999978,0,0,1.0000511,-10.077001,-8.2097795)" />
    <polygon
       points="89.612,88.616 88.072,94.363 87.3,94.156 86.536,97.006 87.309,97.213 87.05,98.179 100.428,101.763 100.687,100.797 101.46,101.004 102.223,98.155 101.45,97.948 102.99,92.201 103.763,92.408 104.527,89.558 103.754,89.351 104.013,88.385 90.635,84.8 90.376,85.766 89.603,85.559 88.839,88.409 "
       style="fill:none;stroke:#000000;stroke-width:0.05mm"
       id="polygon34"
       transform="matrix(0.999978,0,0,1.0000511,-11.135335,-8.2097795)" />
    <polygon
       points="218.344,93.759 217.572,93.966 218.335,96.815 219.108,96.608 219.367,97.574 232.745,93.99 232.486,93.024 233.259,92.817 232.495,89.967 231.722,90.174 230.182,84.427 230.955,84.22 230.192,81.37 229.419,81.577 229.16,80.611 215.782,84.196 216.041,85.162 215.268,85.369 216.032,88.219 216.804,88.012 "
       style="fill:none;stroke:#000000;stroke-width:0.05mm"
       id="polygon36"
       transform="matrix(0.999978,0,0,1.0000511,-10.077001,-8.2097795)" />
    <polygon
       points="71.211,83.685 69.671,89.433 68.899,89.226 68.135,92.075 68.908,92.282 68.649,93.248 82.027,96.833 82.286,95.867 83.059,96.074 83.822,93.224 83.049,93.017 84.589,87.27 85.362,87.477 86.126,84.628 85.353,84.421 85.612,83.455 72.234,79.87 71.975,80.836 71.202,80.629 70.439,83.478 "
       style="fill:none;stroke:#000000;stroke-width:0.05mm"
       id="polygon38"
       transform="matrix(0.999978,0,0,1.0000511,-11.135335,-8.2097795)" />
    <polygon
       points="236.745,88.828 235.973,89.035 236.736,91.885 237.509,91.678 237.768,92.644 251.146,89.059 250.887,88.093 251.66,87.886 250.896,85.037 250.123,85.244 248.583,79.496 249.356,79.289 248.593,76.44 247.82,76.647 247.561,75.681 234.183,79.266 234.442,80.232 233.669,80.439 234.433,83.288 235.205,83.081 "
       style="fill:none;stroke:#000000;stroke-width:0.05mm"
       id="polygon40"
       transform="matrix(0.999978,0,0,1.0000511,-10.077001,-8.2097795)" />
    <polygon
       points="52.81,78.755 51.27,84.502 50.498,84.295 49.734,87.145 50.507,87.352 50.248,88.318 63.626,91.902 63.885,90.936 64.658,91.143 65.421,88.294 64.648,88.087 66.189,82.34 66.961,82.547 67.725,79.697 66.952,79.49 67.211,78.524 53.833,74.939 53.574,75.905 52.801,75.698 52.038,78.548 "
       style="fill:none;stroke:#000000;stroke-width:0.05mm"
       id="polygon42"
       transform="matrix(0.999978,0,0,1.0000511,-11.135335,-8.2097795)" />
    <polygon
       points="167.412,87.684 166.639,87.891 167.402,90.741 168.175,90.534 168.434,91.5 181.812,87.915 181.553,86.949 182.326,86.742 181.562,83.892 180.79,84.1 179.25,78.352 180.023,78.145 179.259,75.296 178.486,75.503 178.227,74.537 164.849,78.121 165.108,79.087 164.335,79.294 165.099,82.144 165.872,81.937 "
       style="fill:none;stroke:#000000;stroke-width:0.05mm"
       id="polygon44"
       transform="matrix(0.999978,0,0,1.0000511,-10.077001,-8.2097795)" />
    <polygon
       points="122.144,77.611 120.604,83.358 119.831,83.151 119.068,86 119.841,86.207 119.582,87.173 132.96,90.758 133.219,89.792 133.991,89.999 134.755,87.15 133.982,86.943 135.522,81.195 136.295,81.402 137.058,78.553 136.286,78.346 136.544,77.38 123.166,73.795 122.908,74.761 122.135,74.554 121.371,77.404 "
       style="fill:none;stroke:#000000;stroke-width:0.05mm"
       id="polygon46"
       transform="matrix(0.999978,0,0,1.0000511,-11.135335,-8.2097795)" />
    <polygon
       points="255.146,83.898 254.373,84.105 255.137,86.954 255.91,86.747 256.167,87.713 269.547,84.129 269.288,83.163 270.06,82.956 269.297,80.106 268.524,80.313 266.984,74.566 267.757,74.359 266.993,71.509 266.221,71.716 265.962,70.75 252.584,74.335 252.843,75.301 252.07,75.508 252.833,78.358 253.606,78.151 "
       style="fill:none;stroke:#000000;stroke-width:0.05mm"
       id="polygon48"
       transform="matrix(0.999978,0,0,1.0000511,-10.077001,-8.2097795)" />
    <polygon
       points="185.813,82.754 185.04,82.961 185.803,85.81 186.576,85.603 186.835,86.569 200.213,82.984 199.954,82.018 200.727,81.811 199.963,78.962 199.191,79.169 197.651,73.422 198.423,73.215 197.66,70.365 196.887,70.572 196.628,69.606 183.25,73.191 183.509,74.157 182.736,74.364 183.5,77.213 184.273,77.006 "
       style="fill:none;stroke:#000000;stroke-width:0.05mm"
       id="polygon50"
       transform="matrix(0.999978,0,0,1.0000511,-10.077001,-8.2097795)" />
    <polygon
       points="32.108,73.208 30.569,78.955 29.797,78.748 29.033,81.598 29.806,81.805 29.547,82.771 42.925,86.355 43.184,85.389 43.957,85.597 44.72,82.747 43.948,82.54 45.488,76.793 46.26,77 47.024,74.15 46.251,73.943 46.51,72.977 33.132,69.393 32.873,70.359 32.099,70.152 31.337,73.001 "
       style="fill:none;stroke:#000000;stroke-width:0.05mm"
       id="polygon52"
       transform="matrix(0.999978,0,0,1.0000511,-11.135335,-8.2097795)" />
    <polygon
       points="103.743,72.68 102.203,78.428 101.43,78.22 100.667,81.07 101.44,81.277 101.181,82.243 114.559,85.828 114.818,84.862 115.59,85.069 116.354,82.219 115.581,82.012 117.121,76.265 117.894,76.472 118.657,73.622 117.885,73.415 118.144,72.449 104.765,68.865 104.507,69.831 103.734,69.624 102.97,72.473 "
       style="fill:none;stroke:#000000;stroke-width:0.05mm"
       id="polygon54"
       transform="matrix(0.999978,0,0,1.0000511,-11.135335,-8.2097795)" />
    <polygon
       points="204.213,77.823 203.441,78.03 204.204,80.88 204.977,80.673 205.236,81.639 218.614,78.054 218.355,77.088 219.128,76.881 218.364,74.031 217.592,74.238 216.052,68.491 216.824,68.284 216.061,65.435 215.288,65.642 215.029,64.676 201.651,68.26 201.91,69.226 201.137,69.433 201.901,72.283 202.673,72.076 "
       style="fill:none;stroke:#000000;stroke-width:0.05mm"
       id="polygon60"
       transform="matrix(0.999978,0,0,1.0000511,-10.077001,-8.2097795)" />
    <polygon
       points="85.342,67.75 83.802,73.497 83.03,73.29 82.266,76.139 83.039,76.346 82.78,77.312 96.158,80.897 96.417,79.931 97.19,80.138 97.953,77.289 97.18,77.082 98.72,71.334 99.493,71.541 100.257,68.692 99.484,68.485 99.743,67.519 86.365,63.934 86.106,64.9 85.333,64.692 84.57,67.543 "
       style="fill:none;stroke:#000000;stroke-width:0.05mm"
       id="polygon62"
       transform="matrix(0.999978,0,0,1.0000511,-11.135335,-8.2097795)" />
    <polygon
       points="222.614,72.893 221.842,73.1 222.605,75.949 223.378,75.742 223.637,76.708 237.015,73.123 236.756,72.157 237.529,71.95 236.765,69.101 235.992,69.308 234.452,63.561 235.225,63.354 234.462,60.504 233.689,60.711 233.43,59.745 220.052,63.33 220.311,64.296 219.538,64.502 220.302,67.352 221.074,67.145 "
       style="fill:none;stroke:#000000;stroke-width:0.05mm"
       id="polygon64"
       transform="matrix(0.999978,0,0,1.0000511,-10.077001,-8.2097795)" />
    <polygon
       points="66.941,62.819 65.401,68.567 64.629,68.359 63.865,71.209 64.638,71.416 64.379,72.382 77.757,75.967 78.016,75.001 78.789,75.208 79.552,72.358 78.779,72.151 80.319,66.404 81.092,66.611 81.856,63.761 81.083,63.554 81.342,62.588 67.964,59.004 67.705,59.97 66.932,59.763 66.169,62.612 "
       style="fill:none;stroke:#000000;stroke-width:0.05mm"
       id="polygon66"
       transform="matrix(0.999978,0,0,1.0000511,-11.135335,-8.2097795)" />
    <polygon
       points="157.881,70.516 157.108,70.723 157.872,73.572 158.644,73.365 158.903,74.331 172.281,70.747 172.023,69.781 172.795,69.574 172.032,66.724 171.259,66.931 169.719,61.184 170.492,60.977 169.728,58.127 168.956,58.335 168.697,57.369 155.319,60.953 155.577,61.919 154.805,62.126 155.568,64.975 156.341,64.769 "
       style="fill:none;stroke:#000000;stroke-width:0.05mm"
       id="polygon68"
       transform="matrix(0.999978,0,0,1.0000511,-10.077001,-8.2097795)" />
    <polygon
       points="241.015,67.962 240.242,68.169 241.006,71.019 241.779,70.812 242.038,71.778 255.416,68.193 255.157,67.227 255.93,67.02 255.166,64.17 254.393,64.377 252.853,58.63 253.626,58.423 252.863,55.574 252.09,55.781 251.831,54.815 238.453,58.399 238.712,59.365 237.939,59.572 238.703,62.422 239.475,62.215 "
       style="fill:none;stroke:#000000;stroke-width:0.05mm"
       id="polygon70"
       transform="matrix(0.999978,0,0,1.0000511,-10.077001,-8.2097795)" />
    <polygon
       points="122.474,57.977 120.934,63.724 120.162,63.517 119.398,66.367 120.171,66.574 119.912,67.54 133.29,71.125 133.549,70.159 134.322,70.366 135.085,67.516 134.312,67.309 135.852,61.562 136.625,61.769 137.389,58.919 136.616,58.712 136.875,57.746 123.497,54.162 123.238,55.128 122.465,54.921 121.702,57.77 "
       style="fill:none;stroke:#000000;stroke-width:0.05mm"
       id="polygon72"
       transform="matrix(0.999978,0,0,1.0000511,-11.135335,-8.2097795)" />
    <polygon
       points="48.541,57.889 47.001,63.636 46.228,63.429 45.464,66.278 46.237,66.485 45.978,67.451 59.356,71.036 59.615,70.07 60.388,70.277 61.151,67.428 60.379,67.221 61.919,61.473 62.691,61.68 63.455,58.831 62.682,58.624 62.941,57.658 49.563,54.073 49.304,55.039 48.531,54.832 47.768,57.682 "
       style="fill:none;stroke:#000000;stroke-width:0.05mm"
       id="polygon74"
       transform="matrix(0.999978,0,0,1.0000511,-11.135335,-8.2097795)" />
    <polygon
       points="176.282,65.585 175.509,65.792 176.273,68.642 177.045,68.435 177.304,69.401 190.682,65.816 190.423,64.85 191.196,64.642 190.433,61.794 189.66,62.001 188.12,56.253 188.893,56.046 188.129,53.197 187.356,53.404 187.098,52.438 173.72,56.023 173.978,56.989 173.206,57.196 173.969,60.045 174.742,59.838 "
       style="fill:none;stroke:#000000;stroke-width:0.05mm"
       id="polygon76"
       transform="matrix(0.999978,0,0,1.0000511,-10.077001,-8.2097795)" />
    <polygon
       points="259.416,63.032 258.643,63.239 259.407,66.088 260.179,65.881 260.438,66.847 273.817,63.262 273.558,62.296 274.33,62.089 273.567,59.24 272.794,59.447 271.254,53.7 272.027,53.493 271.263,50.643 270.491,50.85 270.232,49.884 256.854,53.469 257.113,54.435 256.34,54.642 257.102,57.491 257.876,57.284 "
       style="fill:none;stroke:#000000;stroke-width:0.05mm"
       id="polygon78"
       transform="matrix(0.999978,0,0,1.0000511,-10.077001,-8.2097795)" />
    <polygon
       points="104.073,53.047 102.533,58.794 101.761,58.587 100.997,61.436 101.77,61.643 101.511,62.609 114.889,66.194 115.148,65.228 115.921,65.435 116.684,62.586 115.912,62.379 117.452,56.631 118.224,56.838 118.988,53.989 118.215,53.782 118.474,52.816 105.096,49.231 104.837,50.197 104.064,49.99 103.301,52.84 "
       style="fill:none;stroke:#000000;stroke-width:0.05mm"
       id="polygon80"
       transform="matrix(0.999978,0,0,1.0000511,-11.135335,-8.2097795)" />
    <polygon
       points="30.14,52.958 28.6,58.705 27.827,58.498 27.063,61.348 27.836,61.555 27.577,62.521 40.955,66.106 41.214,65.139 41.987,65.347 42.75,62.497 41.978,62.29 43.518,56.543 44.29,56.75 45.054,53.9 44.281,53.693 44.54,52.727 31.162,49.143 30.903,50.109 30.13,49.902 29.367,52.751 "
       style="fill:none;stroke:#000000;stroke-width:0.05mm"
       id="polygon82"
       transform="matrix(0.999978,0,0,1.0000511,-11.135335,-8.2097795)" />
    <polygon
       points="194.683,60.655 193.91,60.862 194.673,63.711 195.446,63.504 195.705,64.469 209.083,60.886 208.824,59.92 209.597,59.713 208.834,56.863 208.061,57.07 206.521,51.323 207.294,51.116 206.53,48.266 205.757,48.473 205.498,47.508 192.12,51.092 192.379,52.058 191.606,52.265 192.37,55.115 193.143,54.908 "
       style="fill:none;stroke:#000000;stroke-width:0.05mm"
       id="polygon84"
       transform="matrix(0.999978,0,0,1.0000511,-10.077001,-8.2097795)" />
    <polygon
       points="85.673,48.116 84.133,53.863 83.36,53.656 82.596,56.506 83.369,56.713 83.11,57.679 96.488,61.264 96.747,60.298 97.52,60.505 98.283,57.655 97.511,57.448 99.051,51.701 99.823,51.908 100.587,49.058 99.814,48.851 100.073,47.885 86.695,44.301 86.436,45.267 85.663,45.06 84.9,47.909 "
       style="fill:none;stroke:#000000;stroke-width:0.05mm"
       id="polygon86"
       transform="matrix(0.999978,0,0,1.0000511,-11.135335,-8.2097795)" />
    <polygon
       points="213.084,55.724 212.311,55.931 213.074,58.781 213.847,58.574 214.106,59.54 227.484,55.955 227.225,54.989 227.998,54.782 227.234,51.933 226.462,52.14 224.922,46.392 225.694,46.185 224.931,43.336 224.158,43.543 223.899,42.577 210.521,46.162 210.78,47.128 210.007,47.335 210.771,50.184 211.544,49.977 "
       style="fill:none;stroke:#000000;stroke-width:0.05mm"
       id="polygon88"
       transform="matrix(0.999978,0,0,1.0000511,-10.077001,-8.2097795)" />
    <polygon
       points="67.272,43.186 65.732,48.933 64.959,48.726 64.195,51.575 64.968,51.782 64.709,52.748 78.087,56.333 78.346,55.367 79.119,55.574 79.883,52.725 79.11,52.518 80.65,46.77 81.422,46.977 82.186,44.128 81.413,43.921 81.672,42.955 68.294,39.37 68.035,40.336 67.262,40.129 66.499,42.979 "
       style="fill:none;stroke:#000000;stroke-width:0.05mm"
       id="polygon90"
       transform="matrix(0.999978,0,0,1.0000511,-11.135335,-8.2097795)" />
    <polygon
       points="231.484,50.794 230.712,51.001 231.475,53.85 232.248,53.643 232.507,54.609 245.885,51.025 245.626,50.059 246.399,49.852 245.635,47.002 244.863,47.209 243.323,41.462 244.095,41.255 243.332,38.405 242.559,38.612 242.3,37.647 228.922,41.231 229.181,42.197 228.408,42.404 229.172,45.254 229.945,45.047 "
       style="fill:none;stroke:#000000;stroke-width:0.05mm"
       id="polygon92"
       transform="matrix(0.999978,0,0,1.0000511,-10.077001,-8.2097795)" />
    <polygon
       points="48.871,38.255 47.331,44.002 46.558,43.795 45.795,46.645 46.567,46.852 46.308,47.818 59.687,51.403 59.945,50.437 60.718,50.644 61.482,47.794 60.709,47.587 62.249,41.84 63.022,42.047 63.785,39.197 63.012,38.99 63.271,38.024 49.893,34.44 49.634,35.406 48.862,35.199 48.098,38.048 "
       style="fill:none;stroke:#000000;stroke-width:0.05mm"
       id="polygon94"
       transform="matrix(0.999978,0,0,1.0000511,-11.135335,-8.2097795)" />
    <polygon
       points="254.486,44.631 253.713,44.838 254.476,47.687 255.249,47.48 255.508,48.446 268.886,44.862 268.627,43.896 269.4,43.689 268.636,40.839 267.864,41.046 266.324,35.299 267.096,35.092 266.333,32.242 265.56,32.449 265.301,31.483 251.923,35.068 252.182,36.034 251.409,36.241 252.173,39.091 252.946,38.883 "
       style="fill:none;stroke:#000000;stroke-width:0.05mm"
       id="polygon96"
       transform="matrix(0.999978,0,0,1.0000511,-10.077001,-8.2097795)" />
    <polygon
       points="30.47,33.325 28.93,39.072 28.157,38.865 27.394,41.714 28.166,41.921 27.908,42.887 41.286,46.472 41.544,45.506 42.317,45.713 43.081,42.864 42.308,42.657 43.848,36.909 44.621,37.116 45.384,34.267 44.611,34.06 44.87,33.094 31.492,29.509 31.233,30.475 30.461,30.268 29.697,33.118 "
       style="fill:none;stroke:#000000;stroke-width:0.05mm"
       id="polygon98"
       transform="matrix(0.999978,0,0,1.0000511,-11.135335,-8.2097795)" />
    <path
       id="rect4763-7-6"
       style="display:inline;fill-opacity:0.0014062;stroke:#000000;stroke-width:0.189"
       d="m 257.282,0.09623974 c -29.7921,0.02306 -59.58468,0.0013 -89.37696,0.0078 -49.46644,0.0045 -98.934188,-0.0065 -148.400388,0.01758 C 13.40829,0.37339374 7.8350505,3.9636487 4.2097295,8.7368537 1.5012015,12.248147 -0.10278847,16.666631 0.11402653,21.127479 c 0.0095,23.4983 -0.02766,46.99815 0.0293,70.496094 0.299963,11.786607 4.94370197,23.409117 12.91406247,32.105467 7.364166,8.17219 17.509356,13.77056 28.353516,15.625 4.98675,0.94072 10.07909,0.72847 15.12695,0.75586 58.228665,-0.0127 116.458955,0.009 174.687495,-0.0234 11.45101,-0.19827 22.78636,-4.48831 31.45117,-11.98828 8.3304,-7.08952 14.19709,-16.99779 16.38673,-27.7168 0.89839,-4.157444 1.10734,-8.423079 1.05273,-12.66601 -0.0167,-22.810706 0.0263,-45.621393 -0.0273,-68.431641 -0.3009,-5.806064 -3.69878,-11.0770803 -8.13477,-14.6640623 -3.51083,-2.814387 -7.93811,-4.61110496 -12.4785,-4.51367196 -0.73114,-0.01072 -1.46218,-0.01392 -2.19337,-0.0098 z" />
    <circle
       style="display:inline;fill:#000000;fill-opacity:0.0014062;stroke:#000000;stroke-width:0.189"
       id="path1418-5-1"
       cx="122.59809"
       cy="5.635921"
       r="1.75" />
    <circle
       style="display:inline;fill:#000000;fill-opacity:0.0014062;stroke:#000000;stroke-width:0.189"
       id="path1418-6-92-0"
       cx="90.114761"
       cy="134.57759"
       r="1.75" />
    <circle
       style="display:inline;fill:#000000;fill-opacity:0.0014062;stroke:#000000;stroke-width:0.189"
       id="path1418-6-9-2-6"
       cx="19.036163"
       cy="121.94245"
       r="1.75" />
    <circle
       style="display:inline;fill:#000000;fill-opacity:0.0014062;stroke:#000000;stroke-width:0.189"
       id="path1418-6-9-6-8-3"
       cx="5.3444972"
       cy="61.844486"
       r="1.75" />
    <circle
       style="display:inline;fill:#000000;fill-opacity:0.0014062;stroke:#000000;stroke-width:0.189"
       id="path1418-6-9-6-7-9-2"
       cx="274.84451"
       cy="61.844486"
       r="1.75" />
    <circle
       style="display:inline;fill:#000000;fill-opacity:0.0014062;stroke:#000000;stroke-width:0.189"
       id="path1418-6-9-3-7-0"
       cx="261.15286"
       cy="121.94198"
       r="1.75" />
    <circle
       style="display:inline;fill:#000000;fill-opacity:0.0014062;stroke:#000000;stroke-width:0.189"
       id="path1418-6-5-3-6"
       cx="10.277275"
       cy="10.269256"
       r="1.75" />
    <circle
       style="display:inline;fill:#000000;fill-opacity:0.0014062;stroke:#000000;stroke-width:0.189"
       id="path1418-6-5-6-6-1"
       cx="269.9523"
       cy="10.269485"
       r="1.75" />
    <circle
       style="display:inline;fill:#000000;fill-opacity:0.0014062;stroke:#000000;stroke-width:0.189"
       id="path1418-6-7-1-5"
       cx="190.11478"
       cy="134.57759"
       r="1.75" />
    <circle
       style="display:inline;fill:#000000;fill-opacity:0.0014062;stroke:#000000;stroke-width:0.189"
       id="path1418-3-2-5"
       cx="157.8358"
       cy="5.635921"
       r="1.75" />
  </g>
  <g
     inkscape:groupmode="layer"
     id="layer2"
     inkscape:label="bottom"
     style="display:inline">
    <path
       id="rect4763-7"
       style="display:inline;fill-opacity:0.0014062;stroke:#000000;stroke-width:0.189"
       d="m 257.282,0.09623974 c -29.7921,0.02306 -59.58468,0.0013 -89.37696,0.0078 -49.46644,0.0045 -98.934188,-0.0065 -148.400388,0.01758 C 13.40829,0.37339374 7.8350515,3.9636487 4.2097295,8.7368537 1.5012015,12.248147 -0.10278847,16.666631 0.11402653,21.127479 c 0.0095,23.4983 -0.02766,46.99815 0.0293,70.496094 0.299963,11.786607 4.94370197,23.409117 12.91406247,32.105467 7.364166,8.17219 17.509356,13.77056 28.353516,15.625 4.98675,0.94072 10.07909,0.72847 15.12695,0.75586 58.228665,-0.0127 116.458955,0.009 174.687495,-0.0234 11.45101,-0.19827 22.78636,-4.48831 31.45117,-11.98828 8.3304,-7.08952 14.19709,-16.99779 16.38673,-27.7168 0.89839,-4.157444 1.10734,-8.423079 1.05273,-12.66601 -0.0167,-22.810706 0.0263,-45.621393 -0.0273,-68.431641 -0.3009,-5.806064 -3.69878,-11.0770803 -8.13477,-14.6640623 -3.51083,-2.814387 -7.93811,-4.61110496 -12.4785,-4.51367196 -0.73114,-0.01072 -1.46218,-0.01392 -2.19337,-0.0098 z" />
    <circle
       style="display:inline;fill:#000000;fill-opacity:0.0014062;stroke:#000000;stroke-width:0.189"
       id="path1418-5"
       cx="122.5981"
       cy="5.6359215"
       r="1.75" />
    <circle
       style="display:inline;fill:#000000;fill-opacity:0.0014062;stroke:#000000;stroke-width:0.189"
       id="path1418-6-92"
       cx="90.114777"
       cy="134.57759"
       r="1.75" />
    <circle
       style="display:inline;fill:#000000;fill-opacity:0.0014062;stroke:#000000;stroke-width:0.189"
       id="path1418-6-9-2"
       cx="19.036163"
       cy="121.94245"
       r="1.75" />
    <circle
       style="display:inline;fill:#000000;fill-opacity:0.0014062;stroke:#000000;stroke-width:0.189"
       id="path1418-6-9-6-8"
       cx="5.3444982"
       cy="61.844486"
       r="1.75" />
    <circle
       style="display:inline;fill:#000000;fill-opacity:0.0014062;stroke:#000000;stroke-width:0.189"
       id="path1418-6-9-6-7-9"
       cx="274.84451"
       cy="61.844486"
       r="1.75" />
    <circle
       style="display:inline;fill:#000000;fill-opacity:0.0014062;stroke:#000000;stroke-width:0.189"
       id="path1418-6-9-3-7"
       cx="261.15286"
       cy="121.94198"
       r="1.75" />
    <circle
       style="display:inline;fill:#000000;fill-opacity:0.0014062;stroke:#000000;stroke-width:0.189"
       id="path1418-6-5-3"
       cx="10.277275"
       cy="10.269257"
       r="1.75" />
    <circle
       style="display:inline;fill:#000000;fill-opacity:0.0014062;stroke:#000000;stroke-width:0.189"
       id="path1418-6-5-6-6"
       cx="269.9523"
       cy="10.269485"
       r="1.75" />
    <circle
       style="display:inline;fill:#000000;fill-opacity:0.0014062;stroke:#000000;stroke-width:0.189"
       id="path1418-6-7-1"
       cx="190.11478"
       cy="134.57759"
       r="1.75" />
    <circle
       style="display:inline;fill:#000000;fill-opacity:0.0014062;stroke:#000000;stroke-width:0.189"
       id="path1418-3-2"
       cx="157.8358"
       cy="5.6359215"
       r="1.75" />
  </g>
  <g
     inkscape:groupmode="layer"
     id="layer4"
     inkscape:label="closed"
     style="display:inline">
    <path
       id="rect4763-4"
       style="display:inline;fill-opacity:0.0014062;stroke:#000000;stroke-width:0.189"
       d="m 257.282,0.09623974 c -29.79209,0.02306 -59.58467,0.0013 -89.37695,0.0078 -49.46644,0.0045 -98.9342,-0.0065 -148.400398,0.01758 C 13.40829,0.37339374 7.8350515,3.9636487 4.2097295,8.7368537 1.5012015,12.248147 -0.10278847,16.666631 0.11402653,21.127479 c 0.0095,23.4983 -0.02766,46.99815 0.0293,70.496094 0.299963,11.786607 4.94370197,23.409117 12.91406247,32.105467 7.364168,8.17219 17.50936,13.77056 28.353516,15.625 4.98675,0.94072 10.079094,0.72847 15.126953,0.75586 58.228672,-0.0127 116.458962,0.009 174.687502,-0.0234 11.45101,-0.19827 22.78636,-4.48831 31.45117,-11.98828 8.33039,-7.08952 14.19708,-16.99779 16.38672,-27.7168 0.8984,-4.157444 1.10734,-8.423079 1.05273,-12.66601 -0.0167,-22.810706 0.0263,-45.621393 -0.0273,-68.431641 -0.3009,-5.806064 -3.69878,-11.0770803 -8.13477,-14.6640623 -3.51083,-2.814388 -7.93811,-4.61110496 -12.47851,-4.51367196 -0.73113,-0.01072 -1.46217,-0.01392 -2.19336,-0.0098 z" />
    <path
       id="rect4763-0-7"
       style="display:inline;fill-opacity:0.0014062;stroke:#000000;stroke-width:0.189"
       d="m 257.28906,11.095703 c -40.5849,0.02412 -81.16981,-0.0024 -121.75471,0.0091 -38.571647,0.0041 -77.143735,-0.01023 -115.715097,0.02229 -2.097927,0.148918 -4.002253,1.287787 -5.488404,2.721261 -1.389201,1.372222 -2.60448,3.023637 -3.053923,4.956334 -0.181714,0.707426 -0.203002,1.440299 -0.163645,2.16543 0.01239,23.522574 -0.03274,47.045363 0.03389,70.567791 0.0763,2.30781 0.348668,4.612428 0.847529,6.867466 0.320965,1.24324 0.579338,2.504522 0.992331,3.722652 1.721634,5.35578 4.601117,10.34515 8.443698,14.45978 5.756638,6.28854 13.654537,10.57633 22.067101,11.96625 1.583438,0.29784 3.190983,0.457 4.801442,0.49303 2.155623,0.13687 4.31682,0.0584 6.47503,0.0622 58.832317,-0.0153 117.664787,0.0146 176.497037,-0.0277 1.32883,-0.0353 2.65879,-0.12074 3.97309,-0.32372 2.12911,-0.25753 4.23893,-0.69952 6.28442,-1.3455 1.13869,-0.41142 2.3126,-0.723 3.42602,-1.20357 4.01467,-1.63246 7.74912,-3.95013 10.98822,-6.83013 6.35213,-5.55651 10.79289,-13.25402 12.41312,-21.537265 0.71159,-3.410902 0.79961,-6.911927 0.75883,-10.384254 -0.0181,-22.567249 0.0286,-45.134809 -0.0303,-67.701859 -0.14797,-1.938049 -1.19127,-3.692023 -2.4738,-5.10379 -1.52375,-1.661461 -3.48068,-3.050106 -5.73674,-3.455137 -0.77906,-0.144897 -1.57361,-0.0698 -2.36055,-0.100909 -0.40819,-0.0025 -0.81638,-0.0015 -1.22456,2.27e-4 z"
       inkscape:path-effect="#path-effect2630"
       inkscape:original-d="m 257.28199,0.09622474 c -29.79209,0.02306 -59.58467,0.0013 -89.37695,0.0078 -49.46643,0.0045 -98.93419,-0.0065 -148.400388,0.01758 C 13.40829,0.37337874 7.8350505,3.9636337 4.2097295,8.7368387 1.5012015,12.248132 -0.10278847,16.666616 0.11402653,21.127464 c 0.0095,23.4983 -0.02766,46.99815 0.0293,70.496094 0.299963,11.786602 4.94370197,23.409112 12.91406247,32.105462 7.364168,8.17219 17.50936,13.77056 28.353516,15.625 4.98675,0.94072 10.079094,0.72847 15.126953,0.75586 58.228672,-0.0127 116.458962,0.009 174.687502,-0.0234 11.45101,-0.19827 22.78636,-4.48831 31.45117,-11.98828 8.33039,-7.08952 14.19708,-16.99779 16.38672,-27.7168 0.8984,-4.157439 1.10734,-8.423074 1.05273,-12.666005 -0.0167,-22.810706 0.0263,-45.621393 -0.0273,-68.431641 -0.3009,-5.806064 -3.69878,-11.0770803 -8.13477,-14.6640623 -3.51083,-2.814387 -7.93811,-4.61110496 -12.47851,-4.51367196 -0.73113,-0.01072 -1.46217,-0.01392 -2.19336,-0.0098 z" />
    <circle
       style="display:inline;fill:#000000;fill-opacity:0.0014062;stroke:#000000;stroke-width:0.189"
       id="path1418-65"
       cx="122.59811"
       cy="5.6359215"
       r="1.75" />
    <circle
       style="display:inline;fill:#000000;fill-opacity:0.0014062;stroke:#000000;stroke-width:0.189"
       id="path1418-6-6"
       cx="90.114777"
       cy="134.57759"
       r="1.75" />
    <circle
       style="display:inline;fill:#000000;fill-opacity:0.0014062;stroke:#000000;stroke-width:0.189"
       id="path1418-6-9-9"
       cx="19.036163"
       cy="121.94245"
       r="1.75" />
    <circle
       style="display:inline;fill:#000000;fill-opacity:0.0014062;stroke:#000000;stroke-width:0.189"
       id="path1418-6-9-6-3"
       cx="5.3445015"
       cy="61.844486"
       r="1.75" />
    <circle
       style="display:inline;fill:#000000;fill-opacity:0.0014062;stroke:#000000;stroke-width:0.189"
       id="path1418-6-9-6-7-7"
       cx="274.84451"
       cy="61.844486"
       r="1.75" />
    <circle
       style="display:inline;fill:#000000;fill-opacity:0.0014062;stroke:#000000;stroke-width:0.189"
       id="path1418-6-9-3-4"
       cx="261.15286"
       cy="121.94198"
       r="1.75" />
    <circle
       style="display:inline;fill:#000000;fill-opacity:0.0014062;stroke:#000000;stroke-width:0.189"
       id="path1418-6-5-5"
       cx="10.277275"
       cy="10.269257"
       r="1.75" />
    <circle
       style="display:inline;fill:#000000;fill-opacity:0.0014062;stroke:#000000;stroke-width:0.189"
       id="path1418-6-5-6-2"
       cx="269.9523"
       cy="10.269485"
       r="1.75" />
    <circle
       style="display:inline;fill:#000000;fill-opacity:0.0014062;stroke:#000000;stroke-width:0.189"
       id="path1418-6-7-5"
       cx="190.11479"
       cy="134.57759"
       r="1.75" />
    <circle
       style="display:inline;fill:#000000;fill-opacity:0.0014062;stroke:#000000;stroke-width:0.189"
       id="path1418-3-4"
       cx="157.8358"
       cy="5.6359215"
       r="1.75" />
  </g>
  <g
     inkscape:groupmode="layer"
     id="g2668"
     inkscape:label="open"
     style="display:inline">
    <path
       style="display:inline;fill:none;fill-opacity:0.0014062;stroke:#000000;stroke-width:0.714331"
       d="m 976.54883,0.36132812 c -1.38161,-0.006142 -2.76276,-0.005833 -4.14453,0.001953 -112.60003,0.0871559 -225.20199,0.00473 -337.80274,0.0292969 -22.41327,0.002039 -44.82683,0.003222 -67.24023,0.003906 V 41.960938 c 135.02329,-0.0122 270.04703,0.05486 405.07031,-0.02539 1.54272,-0.0065 3.08419,-0.0094 4.62695,0 2.97427,0.117578 5.9774,-0.166783 8.92188,0.380859 8.52684,1.530826 15.92453,6.779057 21.68363,13.058594 4.8474,5.335813 8.7903,11.966107 9.3496,19.291016 0.2226,85.292793 0.045,170.587323 0.1133,255.880863 0.1541,13.12375 -0.1777,26.35644 -2.8672,39.24804 -6.1237,31.30676 -22.908,60.39941 -46.91605,81.40039 -12.24227,10.88504 -26.35574,19.64453 -41.5293,25.81446 -4.2082,1.81633 -8.6455,2.99385 -12.94922,4.54882 -7.73098,2.4415 -15.70492,4.1126 -23.75195,5.08594 -4.96744,0.76717 -9.99523,1.08924 -15.01758,1.22266 -222.3581,0.15987 -444.71585,0.0476 -667.07422,0.10547 -8.15701,-0.0144 -16.32541,0.28098 -24.47265,-0.23633 -6.08677,-0.13617 -12.1638,-0.73758 -18.14844,-1.86328 -31.79552,-5.25324 -61.64497,-21.45886 -83.402343,-45.22657 -14.523141,-15.55136 -25.4071,-34.40807 -31.914063,-54.65039 -1.560919,-4.60395 -2.536904,-9.37145 -3.75,-14.07031 C 43.448525,363.4028 42.419237,354.69313 42.130859,345.9707 41.879029,257.06703 42.050734,168.16203 42.003906,79.257812 41.855155,76.51716 41.934301,73.746002 42.621094,71.072266 44.319776,63.767584 48.913539,57.526194 54.164062,52.339844 59.78101,46.921989 66.97903,42.617526 74.908203,42.054688 213.86165,41.937534 352.81687,41.981723 491.77148,41.972656 V 0.3984375 C 352.42009,0.39811574 213.06811,0.39114952 73.71875,0.45898438 50.677382,1.4105711 29.61216,14.981026 15.910156,33.021484 5.6732002,46.292514 -0.38781761,62.991666 0.43164062,79.851562 0.46754613,168.66403 0.32573375,257.48184 0.54101562,346.29297 1.674734,390.84078 19.227366,434.76862 49.351562,467.63672 c 27.833075,30.88701 66.176318,52.04774 107.162108,59.05664 18.84756,3.55548 38.09336,2.75195 57.17188,2.85547 220.07685,-0.048 440.15996,0.0346 660.23633,-0.0879 43.27939,-0.74937 86.12221,-16.9642 118.87109,-45.31055 31.48493,-26.79503 53.65783,-64.24306 61.93363,-104.75586 3.3956,-15.71317 4.1868,-31.83482 3.9804,-47.87109 -0.063,-86.21369 0.099,-172.42866 -0.1035,-258.640628 -1.1373,-21.944177 -13.9802,-41.864779 -30.7461,-55.421874 C 1014.5881,6.82388 997.85587,0.03213993 980.69531,0.40039062 c -1.38166,-0.0202582 -2.76487,-0.0329208 -4.14648,-0.0390625 z"
       id="path2644"
       transform="scale(0.26458333)" />
    <circle
       style="display:inline;fill:#000000;fill-opacity:0.0014062;stroke:#000000;stroke-width:0.189"
       id="circle2648"
       cx="122.59811"
       cy="5.6359215"
       r="1.75" />
    <circle
       style="display:inline;fill:#000000;fill-opacity:0.0014062;stroke:#000000;stroke-width:0.189"
       id="circle2650"
       cx="90.114777"
       cy="134.57759"
       r="1.75" />
    <circle
       style="display:inline;fill:#000000;fill-opacity:0.0014062;stroke:#000000;stroke-width:0.189"
       id="circle2652"
       cx="19.036163"
       cy="121.94245"
       r="1.75" />
    <circle
       style="display:inline;fill:#000000;fill-opacity:0.0014062;stroke:#000000;stroke-width:0.189"
       id="circle2654"
       cx="5.3445015"
       cy="61.844486"
       r="1.75" />
    <circle
       style="display:inline;fill:#000000;fill-opacity:0.0014062;stroke:#000000;stroke-width:0.189"
       id="circle2656"
       cx="274.84451"
       cy="61.844486"
       r="1.75" />
    <circle
       style="display:inline;fill:#000000;fill-opacity:0.0014062;stroke:#000000;stroke-width:0.189"
       id="circle2658"
       cx="261.15286"
       cy="121.94198"
       r="1.75" />
    <circle
       style="display:inline;fill:#000000;fill-opacity:0.0014062;stroke:#000000;stroke-width:0.189"
       id="circle2660"
       cx="10.277275"
       cy="10.269257"
       r="1.75" />
    <circle
       style="display:inline;fill:#000000;fill-opacity:0.0014062;stroke:#000000;stroke-width:0.189"
       id="circle2662"
       cx="269.9523"
       cy="10.269485"
       r="1.75" />
    <circle
       style="display:inline;fill:#000000;fill-opacity:0.0014062;stroke:#000000;stroke-width:0.189"
       id="circle2664"
       cx="190.11479"
       cy="134.57759"
       r="1.75" />
    <circle
       style="display:inline;fill:#000000;fill-opacity:0.0014062;stroke:#000000;stroke-width:0.189"
       id="circle2666"
       cx="157.8358"
       cy="5.6359215"
       r="1.75" />
  </g>
  <g
     inkscape:groupmode="layer"
     id="g3968"
     inkscape:label="wip"
     style="display:inline">
    <rect
       style="fill:#000000;fill-opacity:0.0014062;stroke:#000000;stroke-width:0.189"
       id="rect3964"
       width="50"
       height="35"
       x="115.11478"
       y="0.10677066" />
    <rect
       style="fill:#000000;fill-opacity:0.0014062;stroke:#000000;stroke-width:0.189"
       id="rect3966"
       width="20"
       height="35"
       x="130.11479"
       y="0.10677066" />
  </g>
  <g
     inkscape:groupmode="layer"
     id="layer5"
     inkscape:label="plate-new"
     style="display:inline">
    <polygon
       points="5,5 281.669,5 281.669,126.844 5,126.844 "
       style="fill:none;stroke:#000000;stroke-width:0.05mm"
       id="polygon2"
       transform="translate(-3.4055118,3.0944882)" />
    <polygon
       points="119.435,109.872 120.22,110.028 120.025,111.009 133.608,113.711 133.804,112.73 134.588,112.886 135.164,109.993 134.379,109.837 135.54,104.001 136.324,104.157 136.9,101.264 136.115,101.108 136.31,100.127 122.727,97.425 122.531,98.406 121.747,98.25 121.171,101.143 121.956,101.299 120.795,107.135 120.011,106.978 "
       style="fill:none;stroke:#000000;stroke-width:0.05mm"
       id="polygon4"
       transform="translate(-3.4055118,3.0944882)" />
    <polygon
       points="152.442,109.935 153.018,112.829 153.802,112.673 153.997,113.653 167.581,110.951 167.386,109.971 168.171,109.815 167.595,106.921 166.811,107.077 165.65,101.242 166.434,101.086 165.859,98.192 165.074,98.348 164.879,97.367 151.295,100.069 151.49,101.05 150.706,101.206 151.281,104.1 152.066,103.944 153.227,109.779 "
       style="fill:none;stroke:#000000;stroke-width:0.05mm"
       id="polygon6"
       transform="translate(-3.4055118,3.0944882)" />
    <polygon
       points="96.08,105.226 96.865,105.382 96.67,106.363 110.253,109.065 110.449,108.084 111.233,108.24 111.809,105.347 111.024,105.191 112.185,99.355 112.97,99.511 113.545,96.618 112.76,96.462 112.955,95.481 99.372,92.779 99.177,93.76 98.392,93.604 97.816,96.497 98.601,96.653 97.44,102.489 96.656,102.333 "
       style="fill:none;stroke:#000000;stroke-width:0.05mm"
       id="polygon8"
       transform="translate(-3.4055118,3.0944882)" />
    <polygon
       points="175.797,105.29 176.373,108.183 177.157,108.027 177.352,109.008 190.936,106.306 190.741,105.325 191.526,105.169 190.95,102.276 190.166,102.432 189.005,96.596 189.789,96.44 189.214,93.547 188.429,93.703 188.234,92.722 174.65,95.424 174.845,96.405 174.061,96.561 174.636,99.454 175.421,99.298 176.582,105.134 "
       style="fill:none;stroke:#000000;stroke-width:0.05mm"
       id="polygon10"
       transform="translate(-3.4055118,3.0944882)" />
    <polygon
       points="26.015,91.289 26.8,91.446 26.605,92.426 40.189,95.128 40.384,94.148 41.168,94.304 41.744,91.41 40.959,91.254 42.12,85.419 42.905,85.575 43.48,82.681 42.696,82.525 42.891,81.544 29.307,78.842 29.112,79.823 28.327,79.667 27.752,82.56 28.536,82.717 27.375,88.552 26.591,88.396 "
       style="fill:none;stroke:#000000;stroke-width:0.05mm"
       id="polygon12-1"
       transform="translate(-3.4055118,3.0944882)" />
    <polygon
       points="245.862,91.353 246.437,94.246 247.222,94.09 247.417,95.071 261,92.369 260.805,91.388 261.591,91.232 261.015,88.339 260.23,88.495 259.07,82.659 259.853,82.503 259.279,79.61 258.494,79.766 258.298,78.785 244.715,81.487 244.91,82.468 244.126,82.624 244.701,85.517 245.486,85.361 246.646,91.197 "
       style="fill:none;stroke:#000000;stroke-width:0.05mm"
       id="polygon14-2"
       transform="translate(-3.4055118,3.0944882)" />
    <polygon
       points="118.481,90.259 119.265,90.415 119.07,91.396 132.654,94.098 132.849,93.117 133.634,93.273 134.209,90.38 133.425,90.223 134.585,84.388 135.37,84.544 135.945,81.651 135.161,81.494 135.356,80.514 121.772,77.812 121.577,78.792 120.792,78.636 120.217,81.53 121.001,81.686 119.841,87.521 119.056,87.365 "
       style="fill:none;stroke:#000000;stroke-width:0.05mm"
       id="polygon16-9"
       transform="translate(-3.4055118,3.0944882)" />
    <polygon
       points="153.397,90.322 153.972,93.216 154.757,93.06 154.952,94.04 168.536,91.338 168.341,90.358 169.125,90.201 168.55,87.308 167.765,87.464 166.604,81.629 167.389,81.472 166.813,78.579 166.029,78.735 165.834,77.754 152.25,80.456 152.445,81.437 151.66,81.593 152.236,84.487 153.02,84.331 154.181,90.166 "
       style="fill:none;stroke:#000000;stroke-width:0.05mm"
       id="polygon18-3"
       transform="translate(-3.4055118,3.0944882)" />
    <polygon
       points="99.797,86.542 100.581,86.698 100.386,87.679 113.97,90.381 114.165,89.4 114.95,89.556 115.525,86.663 114.741,86.507 115.901,80.671 116.686,80.827 117.262,77.934 116.477,77.778 116.672,76.797 103.088,74.095 102.893,75.076 102.108,74.92 101.533,77.813 102.317,77.969 101.157,83.805 100.372,83.649 "
       style="fill:none;stroke:#000000;stroke-width:0.05mm"
       id="polygon20-1"
       transform="translate(-3.4055118,3.0944882)" />
    <polygon
       points="172.081,86.606 172.656,89.499 173.441,89.343 173.636,90.324 187.22,87.622 187.025,86.641 187.809,86.485 187.234,83.592 186.449,83.748 185.288,77.912 186.073,77.756 185.497,74.863 184.713,75.019 184.518,74.038 170.934,76.74 171.129,77.721 170.344,77.877 170.92,80.77 171.704,80.614 172.865,86.45 "
       style="fill:none;stroke:#000000;stroke-width:0.05mm"
       id="polygon22-9"
       transform="translate(-3.4055118,3.0944882)" />
    <polygon
       points="81.113,82.826 81.897,82.982 81.702,83.963 95.286,86.665 95.481,85.684 96.266,85.84 96.841,82.947 96.057,82.791 97.217,76.955 98.002,77.111 98.578,74.218 97.793,74.062 97.988,73.081 84.404,70.379 84.209,71.36 83.424,71.203 82.849,74.097 83.634,74.253 82.473,80.089 81.688,79.932 "
       style="fill:none;stroke:#000000;stroke-width:0.05mm"
       id="polygon24-4"
       transform="translate(-3.4055118,3.0944882)" />
    <polygon
       points="190.765,82.889 191.34,85.783 192.125,85.627 192.32,86.607 205.904,83.905 205.709,82.925 206.493,82.768 205.918,79.875 205.133,80.031 203.972,74.196 204.757,74.04 204.181,71.146 203.397,71.302 203.202,70.321 189.618,73.023 189.813,74.004 189.028,74.16 189.604,77.054 190.388,76.898 191.549,82.733 "
       style="fill:none;stroke:#000000;stroke-width:0.05mm"
       id="polygon26-7"
       transform="translate(-3.4055118,3.0944882)" />
    <polygon
       points="62.429,79.109 63.213,79.265 63.018,80.246 76.602,82.948 76.797,81.967 77.582,82.123 78.157,79.23 77.373,79.074 78.533,73.238 79.318,73.394 79.894,70.501 79.109,70.345 79.304,69.364 65.72,66.662 65.525,67.643 64.739,67.487 64.165,70.38 64.95,70.536 63.789,76.372 63.004,76.216 "
       style="fill:none;stroke:#000000;stroke-width:0.05mm"
       id="polygon28-8"
       transform="translate(-3.4055118,3.0944882)" />
    <polygon
       points="209.448,79.173 210.024,82.066 210.809,81.91 211.004,82.891 224.588,80.189 224.392,79.208 225.177,79.052 224.602,76.159 223.817,76.315 222.656,70.479 223.441,70.323 222.865,67.43 222.081,67.586 221.886,66.605 208.302,69.307 208.497,70.288 207.712,70.444 208.288,73.337 209.072,73.181 210.233,79.017 "
       style="fill:none;stroke:#000000;stroke-width:0.05mm"
       id="polygon30-4"
       transform="translate(-3.4055118,3.0944882)" />
    <polygon
       points="43.745,75.393 44.529,75.549 44.334,76.53 57.918,79.232 58.113,78.251 58.898,78.407 59.473,75.514 58.689,75.358 59.849,69.522 60.634,69.678 61.21,66.785 60.425,66.629 60.62,65.648 47.036,62.946 46.841,63.927 46.056,63.771 45.481,66.664 46.266,66.82 45.105,72.656 44.32,72.5 "
       style="fill:none;stroke:#000000;stroke-width:0.05mm"
       id="polygon32-5"
       transform="translate(-3.4055118,3.0944882)" />
    <polygon
       points="228.132,75.456 228.708,78.35 229.493,78.194 229.688,79.174 243.272,76.472 243.076,75.492 243.861,75.336 243.286,72.442 242.501,72.598 241.34,66.763 242.125,66.607 241.549,63.713 240.765,63.869 240.57,62.889 226.986,65.591 227.181,66.571 226.396,66.727 226.972,69.621 227.756,69.465 228.917,75.3 "
       style="fill:none;stroke:#000000;stroke-width:0.05mm"
       id="polygon34-0"
       transform="translate(-3.4055118,3.0944882)" />
    <polygon
       points="246.816,71.74 247.392,74.633 248.177,74.477 248.372,75.458 261.954,72.756 261.76,71.775 262.545,71.619 261.97,68.726 261.185,68.882 260.024,63.046 260.809,62.89 260.233,59.997 259.449,60.153 259.253,59.172 245.67,61.874 245.865,62.855 245.08,63.011 245.656,65.904 246.44,65.748 247.601,71.584 "
       style="fill:none;stroke:#000000;stroke-width:0.05mm"
       id="polygon36-3"
       transform="translate(-3.4055118,3.0944882)" />
    <polygon
       points="22.725,71.212 23.51,71.368 23.315,72.349 36.899,75.051 37.094,74.07 37.878,74.226 38.454,71.333 37.669,71.177 38.83,65.34 39.615,65.497 40.19,62.604 39.406,62.448 39.601,61.467 26.017,58.765 25.822,59.746 25.037,59.59 24.462,62.483 25.246,62.639 24.085,68.475 23.301,68.319 "
       style="fill:none;stroke:#000000;stroke-width:0.05mm"
       id="polygon38-6"
       transform="translate(-3.4055118,3.0944882)" />
    <polygon
       points="112.855,69.717 113.64,69.873 113.445,70.853 127.028,73.555 127.224,72.575 128.008,72.731 128.584,69.837 127.799,69.681 128.96,63.846 129.744,64.001 130.32,61.108 129.535,60.952 129.729,59.972 116.147,57.27 115.951,58.25 115.167,58.094 114.591,60.988 115.376,61.144 114.215,66.979 113.431,66.823 "
       style="fill:none;stroke:#000000;stroke-width:0.05mm"
       id="polygon40-1"
       transform="translate(-3.4055118,3.0944882)" />
    <polygon
       points="159.022,69.78 159.598,72.673 160.382,72.517 160.577,73.498 174.161,70.796 173.966,69.815 174.751,69.659 174.175,66.766 173.391,66.922 172.23,61.086 173.014,60.93 172.439,58.037 171.654,58.193 171.459,57.212 157.875,59.914 158.07,60.895 157.286,61.051 157.861,63.944 158.646,63.788 159.807,69.624 "
       style="fill:none;stroke:#000000;stroke-width:0.05mm"
       id="polygon42-0"
       transform="translate(-3.4055118,3.0944882)" />
    <polygon
       points="94.171,66 94.956,66.156 94.761,67.137 108.344,69.839 108.54,68.858 109.324,69.014 109.9,66.121 109.115,65.965 110.276,60.129 111.06,60.285 111.636,57.392 110.851,57.236 111.046,56.255 97.463,53.553 97.267,54.534 96.483,54.378 95.907,57.271 96.692,57.427 95.531,63.263 94.747,63.107 "
       style="fill:none;stroke:#000000;stroke-width:0.05mm"
       id="polygon44-6"
       transform="translate(-3.4055118,3.0944882)" />
    <polygon
       points="177.706,66.064 178.282,68.957 179.066,68.801 179.261,69.782 192.845,67.08 192.65,66.099 193.435,65.943 192.859,63.049 192.075,63.206 190.914,57.37 191.698,57.214 191.123,54.32 190.338,54.477 190.143,53.496 176.559,56.198 176.754,57.179 175.97,57.335 176.545,60.228 177.33,60.072 178.491,65.908 "
       style="fill:none;stroke:#000000;stroke-width:0.05mm"
       id="polygon46-3"
       transform="translate(-3.4055118,3.0944882)" />
    <polygon
       points="75.487,62.284 76.272,62.44 76.077,63.42 89.66,66.122 89.856,65.141 90.64,65.298 91.216,62.404 90.431,62.248 91.592,56.413 92.377,56.569 92.952,53.675 92.167,53.519 92.362,52.539 78.779,49.837 78.584,50.817 77.799,50.661 77.223,53.555 78.008,53.711 76.847,59.546 76.063,59.39 "
       style="fill:none;stroke:#000000;stroke-width:0.05mm"
       id="polygon48-2"
       transform="translate(-3.4055118,3.0944882)" />
    <polygon
       points="196.39,62.347 196.966,65.239 197.75,65.084 197.945,66.065 211.529,63.363 211.334,62.382 212.119,62.226 211.543,59.333 210.759,59.489 209.598,53.653 210.382,53.497 209.807,50.604 209.022,50.76 208.827,49.779 195.243,52.481 195.438,53.462 194.654,53.618 195.229,56.511 196.014,56.355 197.175,62.191 "
       style="fill:none;stroke:#000000;stroke-width:0.05mm"
       id="polygon50-0"
       transform="translate(-3.4055118,3.0944882)" />
    <polygon
       points="56.803,58.567 57.588,58.723 57.393,59.704 70.977,62.406 71.172,61.425 71.956,61.581 72.532,58.688 71.747,58.532 72.908,52.696 73.693,52.852 74.268,49.959 73.483,49.803 73.679,48.822 60.095,46.12 59.9,47.101 59.115,46.945 58.539,49.838 59.324,49.994 58.163,55.83 57.379,55.674 "
       style="fill:none;stroke:#000000;stroke-width:0.05mm"
       id="polygon52-6"
       transform="translate(-3.4055118,3.0944882)" />
    <polygon
       points="215.074,58.631 215.649,61.524 216.434,61.368 216.629,62.349 230.213,59.647 230.018,58.666 230.803,58.51 230.227,55.617 229.442,55.773 228.282,49.937 229.066,49.781 228.491,46.888 227.706,47.044 227.511,46.063 213.927,48.765 214.122,49.746 213.338,49.902 213.913,52.795 214.698,52.639 215.859,58.475 "
       style="fill:none;stroke:#000000;stroke-width:0.05mm"
       id="polygon54-1"
       transform="translate(-3.4055118,3.0944882)" />
    <polygon
       points="38.119,54.851 38.904,55.007 38.709,55.988 52.293,58.69 52.488,57.709 53.272,57.865 53.848,54.971 53.063,54.815 54.224,48.98 55.009,49.136 55.584,46.242 54.799,46.086 54.995,45.106 41.411,42.404 41.216,43.384 40.431,43.228 39.855,46.122 40.64,46.278 39.479,52.113 38.695,51.957 "
       style="fill:none;stroke:#000000;stroke-width:0.05mm"
       id="polygon56"
       transform="translate(-3.4055118,3.0944882)" />
    <polygon
       points="233.758,54.914 234.333,57.808 235.118,57.651 235.313,58.632 248.897,55.93 248.702,54.949 249.487,54.793 248.911,51.9 248.126,52.056 246.966,46.22 247.75,46.064 247.175,43.171 246.39,43.327 246.195,42.346 232.611,45.048 232.806,46.029 232.022,46.185 232.597,49.079 233.382,48.922 234.543,54.758 "
       style="fill:none;stroke:#000000;stroke-width:0.05mm"
       id="polygon58"
       transform="translate(-3.4055118,3.0944882)" />
    <polygon
       points="150.635,52.025 151.21,54.919 151.995,54.762 152.19,55.743 165.774,53.041 165.579,52.06 166.363,51.904 165.788,49.011 165.003,49.167 163.842,43.331 164.627,43.175 164.051,40.282 163.267,40.438 163.072,39.457 149.488,42.159 149.683,43.14 148.898,43.296 149.474,46.19 150.258,46.033 151.419,51.869 "
       style="fill:none;stroke:#000000;stroke-width:0.05mm"
       id="polygon60-5"
       transform="translate(-3.4055118,3.0944882)" />
    <polygon
       points="19.435,51.134 20.22,51.29 20.025,52.271 33.609,54.973 33.804,53.992 34.588,54.148 35.164,51.255 34.379,51.099 35.54,45.263 36.325,45.419 36.9,42.526 36.116,42.37 36.311,41.389 22.727,38.687 22.532,39.668 21.747,39.512 21.172,42.405 21.956,42.561 20.795,48.397 20.011,48.241 "
       style="fill:none;stroke:#000000;stroke-width:0.05mm"
       id="polygon62-5"
       transform="translate(-3.4055118,3.0944882)" />
    <polygon
       points="252.442,51.198 253.017,54.091 253.802,53.935 253.997,54.916 267.581,52.214 267.386,51.233 268.171,51.077 267.595,48.184 266.81,48.34 265.65,42.504 266.434,42.348 265.859,39.455 265.074,39.611 264.879,38.63 251.295,41.332 251.49,42.313 250.706,42.469 251.281,45.362 252.066,45.206 253.227,51.042 "
       style="fill:none;stroke:#000000;stroke-width:0.05mm"
       id="polygon64-4"
       transform="translate(-3.4055118,3.0944882)" />
    <polygon
       points="111.9,50.103 112.685,50.26 112.49,51.24 126.074,53.942 126.269,52.962 127.054,53.118 127.629,50.224 126.845,50.068 128.005,44.233 128.788,44.389 129.365,41.495 128.58,41.339 128.776,40.358 115.192,37.656 114.997,38.637 114.212,38.481 113.637,41.374 114.421,41.531 113.261,47.366 112.476,47.21 "
       style="fill:none;stroke:#000000;stroke-width:0.05mm"
       id="polygon66-7"
       transform="translate(-3.4055118,3.0944882)" />
    <polygon
       points="169.319,48.309 169.894,51.202 170.679,51.046 170.874,52.027 184.458,49.325 184.263,48.344 185.047,48.188 184.472,45.295 183.687,45.451 182.526,39.615 183.311,39.459 182.735,36.566 181.951,36.722 181.756,35.741 168.172,38.443 168.367,39.424 167.582,39.58 168.158,42.473 168.942,42.317 170.103,48.153 "
       style="fill:none;stroke:#000000;stroke-width:0.05mm"
       id="polygon68-6"
       transform="translate(-3.4055118,3.0944882)" />
    <polygon
       points="93.217,46.387 94.001,46.543 93.806,47.524 107.39,50.226 107.585,49.245 108.37,49.401 108.945,46.508 108.161,46.352 109.321,40.516 110.106,40.672 110.681,37.779 109.897,37.623 110.092,36.642 96.508,33.94 96.313,34.921 95.528,34.765 94.953,37.658 95.737,37.814 94.577,43.65 93.792,43.494 "
       style="fill:none;stroke:#000000;stroke-width:0.05mm"
       id="polygon70-5"
       transform="translate(-3.4055118,3.0944882)" />
    <polygon
       points="188.003,44.592 188.578,47.486 189.363,47.33 189.558,48.31 203.142,45.608 202.947,44.628 203.731,44.471 203.156,41.578 202.371,41.734 201.21,35.899 201.995,35.742 201.419,32.849 200.635,33.005 200.44,32.024 186.856,34.726 187.051,35.707 186.266,35.863 186.842,38.757 187.626,38.601 188.787,44.436 "
       style="fill:none;stroke:#000000;stroke-width:0.05mm"
       id="polygon72-6"
       transform="translate(-3.4055118,3.0944882)" />
    <polygon
       points="74.533,42.671 75.317,42.827 75.122,43.807 88.706,46.509 88.901,45.529 89.686,45.685 90.261,42.791 89.477,42.635 90.637,36.8 91.422,36.956 91.998,34.062 91.213,33.906 91.408,32.925 77.824,30.223 77.629,31.204 76.844,31.048 76.269,33.942 77.053,34.098 75.893,39.933 75.108,39.777 "
       style="fill:none;stroke:#000000;stroke-width:0.05mm"
       id="polygon74-9"
       transform="translate(-3.4055118,3.0944882)" />
    <polygon
       points="206.687,40.876 207.262,43.769 208.047,43.613 208.242,44.594 221.826,41.892 221.631,40.911 222.415,40.755 221.84,37.862 221.055,38.018 219.894,32.182 220.679,32.026 220.103,29.133 219.319,29.289 219.124,28.308 205.54,31.01 205.735,31.991 204.95,32.147 205.526,35.04 206.31,34.884 207.471,40.72 "
       style="fill:none;stroke:#000000;stroke-width:0.05mm"
       id="polygon76-3"
       transform="translate(-3.4055118,3.0944882)" />
    <polygon
       points="55.849,38.954 56.633,39.11 56.438,40.091 70.022,42.793 70.217,41.812 71.002,41.968 71.577,39.075 70.793,38.919 71.953,33.083 72.738,33.239 73.314,30.346 72.529,30.19 72.724,29.209 59.14,26.507 58.945,27.488 58.16,27.332 57.585,30.225 58.37,30.381 57.209,36.217 56.424,36.061 "
       style="fill:none;stroke:#000000;stroke-width:0.05mm"
       id="polygon78-7"
       transform="translate(-3.4055118,3.0944882)" />
    <polygon
       points="225.37,37.159 225.946,40.053 226.731,39.897 226.926,40.877 240.51,38.175 240.314,37.195 241.099,37.039 240.524,34.145 239.739,34.301 238.578,28.466 239.363,28.31 238.787,25.416 238.003,25.572 237.808,24.591 224.224,27.293 224.419,28.274 223.634,28.43 224.21,31.324 224.994,31.168 226.155,37.003 "
       style="fill:none;stroke:#000000;stroke-width:0.05mm"
       id="polygon80-4"
       transform="translate(-3.4055118,3.0944882)" />
    <polygon
       points="37.165,35.238 37.949,35.394 37.754,36.374 51.338,39.076 51.533,38.096 52.318,38.252 52.893,35.358 52.109,35.202 53.269,29.367 54.054,29.523 54.63,26.629 53.845,26.473 54.04,25.493 40.456,22.791 40.261,23.771 39.476,23.615 38.901,26.509 39.686,26.665 38.525,32.5 37.74,32.344 "
       style="fill:none;stroke:#000000;stroke-width:0.05mm"
       id="polygon82-5"
       transform="translate(-3.4055118,3.0944882)" />
    <polygon
       points="248.725,32.514 249.301,35.407 250.086,35.251 250.281,36.232 263.865,33.53 263.669,32.549 264.454,32.393 263.879,29.5 263.094,29.656 261.933,23.82 262.718,23.664 262.142,20.771 261.358,20.927 261.163,19.946 247.579,22.648 247.774,23.629 246.989,23.785 247.565,26.678 248.349,26.522 249.51,32.357 "
       style="fill:none;stroke:#000000;stroke-width:0.05mm"
       id="polygon84-2"
       transform="translate(-3.4055118,3.0944882)" />
    <polygon
       points="18.481,31.521 19.265,31.677 19.07,32.658 32.654,35.36 32.849,34.379 33.634,34.535 34.209,31.642 33.425,31.486 34.585,25.65 35.37,25.806 35.946,22.913 35.161,22.757 35.356,21.776 21.772,19.074 21.577,20.055 20.793,19.899 20.217,22.792 21.002,22.948 19.841,28.784 19.056,28.628 "
       style="fill:none;stroke:#000000;stroke-width:0.05mm"
       id="polygon86-5"
       transform="translate(-3.4055118,3.0944882)" />
  </g>
  <g
     inkscape:groupmode="layer"
     id="layer6"
     inkscape:label="top-new"
     style="display:inline">
    <polygon
       points="5,5 281.669,5 281.669,126.844 5,126.844 "
       style="fill:none;stroke:#000000;stroke-width:0.05mm"
       id="polygon2-4"
       transform="translate(-3.4055118,3.0944882)" />
    <polygon
       points="16.966,54.315 21.638,55.244 17.921,73.928 27.263,75.786 23.546,94.47 42.232,98.187 45.949,79.502 78.646,86.007 78.646,86.006 92.657,88.793 88.94,107.478 116.968,113.053 116.968,113.052 135.652,116.769 139.369,98.083 134.698,97.154 138.414,78.47 129.072,76.612 132.789,57.928 128.116,56.999 131.834,38.315 19.729,16.015 16.012,34.702 20.683,35.631 "
       style="fill:none;stroke:#000000;stroke-width:0.05mm"
       id="polygon4-7"
       transform="translate(-3.4055118,3.0944882)" />
    <polygon
       points="146.429,40.116 150.146,58.802 154.817,57.873 158.534,76.555 149.191,78.413 152.908,97.097 148.237,98.026 151.954,116.712 198.666,107.42 194.949,88.736 227.644,82.232 227.644,82.233 241.657,79.445 245.374,98.129 264.059,94.413 260.343,75.729 265.014,74.8 261.297,56.115 270.639,54.257 266.923,35.573 271.594,34.644 267.877,15.958 183.799,32.683 183.799,32.682 "
       style="fill:none;stroke:#000000;stroke-width:0.05mm"
       id="polygon6-4"
       transform="translate(-3.4055118,3.0944882)" />
  </g>
</svg>
