  0
SECTION
  2
HEADER
  9
$ACADVER
  1
AC1014
  9
$HANDSEED
  5
FFFF
  9
$MEASUREMENT
 70
     1
  0
ENDSEC
  0
SECTION
  2
TABLES
  0
TABLE
  2
VPORT
  5
8
330
0
100
AcDbSymbolTable
 70
     4
  0
VPORT
  5
2E
330
8
100
AcDbSymbolTableRecord
100
AcDbViewportTableRecord
  2
*ACTIVE
 70
     0
 10
0.0
 20
0.0
 11
1.0
 21
1.0
 12
210.0
 22
148.5
 13
0.0
 23
0.0
 14
10.0
 24
10.0
 15
10.0
 25
10.0
 16
0.0
 26
0.0
 36
1.0
 17
0.0
 27
0.0
 37
0.0
 40
341.0
 41
1.24
 42
50.0
 43
0.0
 44
0.0
 50
0.0
 51
0.0
 71
     0
 72
   100
 73
     1
 74
     3
 75
     0
 76
     0
 77
     0
 78
     0
  0
ENDTAB
  0
TABLE
  2
LTYPE
  5
5
330
0
100
AcDbSymbolTable
 70
     1
  0
LTYPE
  5
14
330
5
100
AcDbSymbolTableRecord
100
AcDbLinetypeTableRecord
  2
BYBLOCK
 70
     0
  3

 72
    65
 73
     0
 40
0.0
  0
LTYPE
  5
15
330
5
100
AcDbSymbolTableRecord
100
AcDbLinetypeTableRecord
  2
BYLAYER
 70
     0
  3

 72
    65
 73
     0
 40
0.0
  0
LTYPE
  5
16
330
5
100
AcDbSymbolTableRecord
100
AcDbLinetypeTableRecord
  2
CONTINUOUS
 70
     0
  3
Solid line
 72
    65
 73
     0
 40
0.0
  0
ENDTAB
  0
TABLE
  2
LAYER
  5
2
100
AcDbSymbolTable
 70
2
  0
LAYER
  5
50
100
AcDbSymbolTableRecord
100
AcDbLayerTableRecord
  2
0
 70
0
  6
CONTINUOUS
  0
LAYER
  5
51
100
AcDbSymbolTableRecord
100
AcDbLayerTableRecord
  2
bottom-3
 70
0
  6
CONTINUOUS
  0
ENDTAB
  0
TABLE
  2
STYLE
  5
3
330
0
100
AcDbSymbolTable
 70
     1
  0
STYLE
  5
11
330
3
100
AcDbSymbolTableRecord
100
AcDbTextStyleTableRecord
  2
STANDARD
 70
     0
 40
0.0
 41
1.0
 50
0.0
 71
     0
 42
2.5
  3
txt
  4

  0
ENDTAB
  0
TABLE
  2
VIEW
  5
6
330
0
100
AcDbSymbolTable
 70
     0
  0
ENDTAB
  0
TABLE
  2
UCS
  5
7
330
0
100
AcDbSymbolTable
 70
     0
  0
ENDTAB
  0
TABLE
  2
APPID
  5
9
330
0
100
AcDbSymbolTable
 70
     2
  0
APPID
  5
12
330
9
100
AcDbSymbolTableRecord
100
AcDbRegAppTableRecord
  2
ACAD
 70
     0
  0
ENDTAB
  0
TABLE
  2
DIMSTYLE
  5
A
330
0
100
AcDbSymbolTable
 70
     1
  0
DIMSTYLE
105
27
330
A
100
AcDbSymbolTableRecord
100
AcDbDimStyleTableRecord
  2
ISO-25
 70
     0
  3

  4

  5

  6

  7

 40
1.0
 41
2.5
 42
0.625
 43
3.75
 44
1.25
 45
0.0
 46
0.0
 47
0.0
 48
0.0
140
2.5
141
2.5
142
0.0
143
0.03937007874016
144
1.0
145
0.0
146
1.0
147
0.625
 71
     0
 72
     0
 73
     0
 74
     0
 75
     0
 76
     0
 77
     1
 78
     8
170
     0
171
     3
172
     1
173
     0
174
     0
175
     0
176
     0
177
     0
178
     0
270
     2
271
     2
272
     2
273
     2
274
     3
340
11
275
     0
280
     0
281
     0
282
     0
283
     0
284
     8
285
     0
286
     0
287
     3
288
     0
  0
ENDTAB
  0
TABLE
  2
BLOCK_RECORD
  5
1
330
0
100
AcDbSymbolTable
 70
     1
  0
BLOCK_RECORD
  5
1F
330
1
100
AcDbSymbolTableRecord
100
AcDbBlockTableRecord
  2
*MODEL_SPACE
  0
BLOCK_RECORD
  5
1B
330
1
100
AcDbSymbolTableRecord
100
AcDbBlockTableRecord
  2
*PAPER_SPACE
  0
ENDTAB
  0
ENDSEC
  0
SECTION
  2
BLOCKS
  0
BLOCK
  5
20
330
1F
100
AcDbEntity
  8
0
100
AcDbBlockBegin
  2
*MODEL_SPACE
 70
     0
 10
0.0
 20
0.0
 30
0.0
  3
*MODEL_SPACE
  1

  0
ENDBLK
  5
21
330
1F
100
AcDbEntity
  8
0
100
AcDbBlockEnd
  0
BLOCK
  5
1C
330
1B
100
AcDbEntity
 67
     1
  8
0
100
AcDbBlockBegin
  2
*PAPER_SPACE
  1

  0
ENDBLK
  5
1D
330
1B
100
AcDbEntity
 67
     1
  8
0
100
AcDbBlockEnd
  0
ENDSEC
  0
SECTION
  2
ENTITIES
  0
SPLINE
  5
100
100
AcDbEntity
  8
bottom-3
 62
7
100
AcDbSpline
 70
8
 71
3
 72
8
 73
4
 74
0
 40
0
 40
0
 40
0
 40
0
 40
1
 40
1
 40
1
 40
1
 10
22.093343
 20
155.166710
 30
0.0
 10
18.128647
 20
155.185139
 30
0.0
 10
14.178098
 20
153.757455
 30
0.0
 10
11.149324
 20
151.197658
 30
0.0
  0
SPLINE
  5
101
100
AcDbEntity
  8
bottom-3
 62
7
100
AcDbSpline
 70
8
 71
3
 72
8
 73
4
 74
0
 40
0
 40
0
 40
0
 40
0
 40
1
 40
1
 40
1
 40
1
 10
11.149324
 20
151.197658
 30
0.0
 10
7.932866
 20
148.515266
 30
0.0
 10
5.777201
 20
144.600884
 30
0.0
 10
5.243649
 20
140.445417
 30
0.0
  0
SPLINE
  5
102
100
AcDbEntity
  8
bottom-3
 62
7
100
AcDbSpline
 70
8
 71
3
 72
8
 73
4
 74
0
 40
0
 40
0
 40
0
 40
0
 40
1
 40
1
 40
1
 40
1
 10
5.243649
 20
140.445417
 30
0.0
 10
5.022971
 20
138.874488
 30
0.0
 10
5.111857
 20
137.286008
 30
0.0
 10
5.093343
 20
135.705459
 30
0.0
  0
SPLINE
  5
103
100
AcDbEntity
  8
bottom-3
 62
7
100
AcDbSpline
 70
8
 71
3
 72
8
 73
4
 74
0
 40
0
 40
0
 40
0
 40
0
 40
1
 40
1
 40
1
 40
1
 10
5.093343
 20
135.705459
 30
0.0
 10
5.094523
 20
114.144925
 30
0.0
 10
5.090973
 20
92.584369
 30
0.0
 10
5.095123
 20
71.023848
 30
0.0
  0
SPLINE
  5
104
100
AcDbEntity
  8
bottom-3
 62
7
100
AcDbSpline
 70
8
 71
3
 72
8
 73
4
 74
0
 40
0
 40
0
 40
0
 40
0
 40
1
 40
1
 40
1
 40
1
 10
5.095123
 20
71.023848
 30
0.0
 10
5.119160
 20
68.032311
 30
0.0
 10
6.069696
 20
65.051526
 30
0.0
 10
7.830665
 20
62.628296
 30
0.0
  0
SPLINE
  5
105
100
AcDbEntity
  8
bottom-3
 62
7
100
AcDbSpline
 70
8
 71
3
 72
8
 73
4
 74
0
 40
0
 40
0
 40
0
 40
0
 40
1
 40
1
 40
1
 40
1
 10
7.830665
 20
62.628296
 30
0.0
 10
8.339898
 20
61.886501
 30
0.0
 10
9.043255
 20
61.310813
 30
0.0
 10
9.602374
 20
60.609288
 30
0.0
  0
SPLINE
  5
106
100
AcDbEntity
  8
bottom-3
 62
7
100
AcDbSpline
 70
8
 71
3
 72
8
 73
4
 74
0
 40
0
 40
0
 40
0
 40
0
 40
1
 40
1
 40
1
 40
1
 10
9.602374
 20
60.609288
 30
0.0
 10
10.380643
 20
59.730990
 30
0.0
 10
11.332074
 20
59.025960
 30
0.0
 10
12.288084
 20
58.353960
 30
0.0
  0
SPLINE
  5
107
100
AcDbEntity
  8
bottom-3
 62
7
100
AcDbSpline
 70
8
 71
3
 72
8
 73
4
 74
0
 40
0
 40
0
 40
0
 40
0
 40
1
 40
1
 40
1
 40
1
 10
12.288084
 20
58.353960
 30
0.0
 10
15.412939
 20
56.227340
 30
0.0
 10
19.038721
 20
54.933740
 30
0.0
 10
22.728112
 20
54.197960
 30
0.0
  0
SPLINE
  5
108
100
AcDbEntity
  8
bottom-3
 62
7
100
AcDbSpline
 70
8
 71
3
 72
8
 73
4
 74
0
 40
0
 40
0
 40
0
 40
0
 40
1
 40
1
 40
1
 40
1
 10
22.728112
 20
54.197960
 30
0.0
 10
33.868551
 20
51.797540
 30
0.0
 10
44.998802
 20
49.349340
 30
0.0
 10
56.147908
 20
46.989330
 30
0.0
  0
SPLINE
  5
109
100
AcDbEntity
  8
bottom-3
 62
7
100
AcDbSpline
 70
8
 71
3
 72
8
 73
4
 74
0
 40
0
 40
0
 40
0
 40
0
 40
1
 40
1
 40
1
 40
1
 10
56.147908
 20
46.989330
 30
0.0
 10
62.301321
 20
45.736390
 30
0.0
 10
68.454768
 20
44.483440
 30
0.0
 10
74.600522
 20
43.193220
 30
0.0
  0
SPLINE
  5
10a
100
AcDbEntity
  8
bottom-3
 62
7
100
AcDbSpline
 70
8
 71
3
 72
8
 73
4
 74
0
 40
0
 40
0
 40
0
 40
0
 40
1
 40
1
 40
1
 40
1
 10
74.600522
 20
43.193220
 30
0.0
 10
89.738124
 20
40.050990
 30
0.0
 10
104.882400
 20
36.936990
 30
0.0
 10
120.068120
 20
34.034650
 30
0.0
  0
SPLINE
  5
10b
100
AcDbEntity
  8
bottom-3
 62
7
100
AcDbSpline
 70
8
 71
3
 72
8
 73
4
 74
0
 40
0
 40
0
 40
0
 40
0
 40
1
 40
1
 40
1
 40
1
 10
120.068120
 20
34.034650
 30
0.0
 10
125.925450
 20
32.931530
 30
0.0
 10
131.783840
 20
31.821940
 30
0.0
 10
137.678460
 20
30.933880
 30
0.0
  0
SPLINE
  5
10c
100
AcDbEntity
  8
bottom-3
 62
7
100
AcDbSpline
 70
8
 71
3
 72
8
 73
4
 74
0
 40
0
 40
0
 40
0
 40
0
 40
1
 40
1
 40
1
 40
1
 10
137.678460
 20
30.933880
 30
0.0
 10
139.136820
 20
30.735010
 30
0.0
 10
140.596010
 20
30.489470
 30
0.0
 10
142.069860
 20
30.454510
 30
0.0
  0
SPLINE
  5
10d
100
AcDbEntity
  8
bottom-3
 62
7
100
AcDbSpline
 70
8
 71
3
 72
8
 73
4
 74
0
 40
0
 40
0
 40
0
 40
0
 40
1
 40
1
 40
1
 40
1
 10
142.069860
 20
30.454510
 30
0.0
 10
143.812250
 20
30.538510
 30
0.0
 10
145.536800
 20
30.828860
 30
0.0
 10
147.261120
 20
31.078640
 30
0.0
  0
SPLINE
  5
10e
100
AcDbEntity
  8
bottom-3
 62
7
100
AcDbSpline
 70
8
 71
3
 72
8
 73
4
 74
0
 40
0
 40
0
 40
0
 40
0
 40
1
 40
1
 40
1
 40
1
 10
147.261120
 20
31.078640
 30
0.0
 10
153.819940
 20
32.106780
 30
0.0
 10
160.342020
 20
33.353420
 30
0.0
 10
166.862610
 20
34.597310
 30
0.0
  0
SPLINE
  5
10f
100
AcDbEntity
  8
bottom-3
 62
7
100
AcDbSpline
 70
8
 71
3
 72
8
 73
4
 74
0
 40
0
 40
0
 40
0
 40
0
 40
1
 40
1
 40
1
 40
1
 10
166.862610
 20
34.597310
 30
0.0
 10
183.945520
 20
37.889850
 30
0.0
 10
200.979160
 20
41.430570
 30
0.0
 10
218.013610
 20
44.963270
 30
0.0
  0
SPLINE
  5
110
100
AcDbEntity
  8
bottom-3
 62
7
100
AcDbSpline
 70
8
 71
3
 72
8
 73
4
 74
0
 40
0
 40
0
 40
0
 40
0
 40
1
 40
1
 40
1
 40
1
 10
218.013610
 20
44.963270
 30
0.0
 10
222.996520
 20
45.994800
 30
0.0
 10
227.991820
 20
46.966490
 30
0.0
 10
232.963910
 20
48.050010
 30
0.0
  0
SPLINE
  5
111
100
AcDbEntity
  8
bottom-3
 62
7
100
AcDbSpline
 70
8
 71
3
 72
8
 73
4
 74
0
 40
0
 40
0
 40
0
 40
0
 40
1
 40
1
 40
1
 40
1
 10
232.963910
 20
48.050010
 30
0.0
 10
242.904860
 20
50.182990
 30
0.0
 10
252.841450
 20
52.338650
 30
0.0
 10
262.779920
 20
54.481320
 30
0.0
  0
SPLINE
  5
112
100
AcDbEntity
  8
bottom-3
 62
7
100
AcDbSpline
 70
8
 71
3
 72
8
 73
4
 74
0
 40
0
 40
0
 40
0
 40
0
 40
1
 40
1
 40
1
 40
1
 10
262.779920
 20
54.481320
 30
0.0
 10
266.610950
 20
55.386690
 30
0.0
 10
270.356910
 20
56.949890
 30
0.0
 10
273.408900
 20
59.477470
 30
0.0
  0
SPLINE
  5
113
100
AcDbEntity
  8
bottom-3
 62
7
100
AcDbSpline
 70
8
 71
3
 72
8
 73
4
 74
0
 40
0
 40
0
 40
0
 40
0
 40
1
 40
1
 40
1
 40
1
 10
273.408900
 20
59.477470
 30
0.0
 10
275.748870
 20
61.407374
 30
0.0
 10
277.605890
 20
63.976957
 30
0.0
 10
278.468940
 20
66.902101
 30
0.0
  0
SPLINE
  5
114
100
AcDbEntity
  8
bottom-3
 62
7
100
AcDbSpline
 70
8
 71
3
 72
8
 73
4
 74
0
 40
0
 40
0
 40
0
 40
0
 40
1
 40
1
 40
1
 40
1
 10
278.468940
 20
66.902101
 30
0.0
 10
278.959410
 20
68.506114
 30
0.0
 10
279.128140
 20
70.191261
 30
0.0
 10
279.093340
 20
71.863710
 30
0.0
  0
SPLINE
  5
115
100
AcDbEntity
  8
bottom-3
 62
7
100
AcDbSpline
 70
8
 71
3
 72
8
 73
4
 74
0
 40
0
 40
0
 40
0
 40
0
 40
1
 40
1
 40
1
 40
1
 10
279.093340
 20
71.863710
 30
0.0
 10
279.092340
 20
94.047353
 30
0.0
 10
279.095340
 20
116.231017
 30
0.0
 10
279.091340
 20
138.414646
 30
0.0
  0
SPLINE
  5
116
100
AcDbEntity
  8
bottom-3
 62
7
100
AcDbSpline
 70
8
 71
3
 72
8
 73
4
 74
0
 40
0
 40
0
 40
0
 40
0
 40
1
 40
1
 40
1
 40
1
 10
279.091340
 20
138.414646
 30
0.0
 10
279.053540
 20
142.381765
 30
0.0
 10
277.564530
 20
146.312764
 30
0.0
 10
274.958760
 20
149.304781
 30
0.0
  0
SPLINE
  5
117
100
AcDbEntity
  8
bottom-3
 62
7
100
AcDbSpline
 70
8
 71
3
 72
8
 73
4
 74
0
 40
0
 40
0
 40
0
 40
0
 40
1
 40
1
 40
1
 40
1
 10
274.958760
 20
149.304781
 30
0.0
 10
272.213100
 20
152.497742
 30
0.0
 10
268.238670
 20
154.599650
 30
0.0
 10
264.050690
 20
155.056341
 30
0.0
  0
SPLINE
  5
118
100
AcDbEntity
  8
bottom-3
 62
7
100
AcDbSpline
 70
8
 71
3
 72
8
 73
4
 74
0
 40
0
 40
0
 40
0
 40
0
 40
1
 40
1
 40
1
 40
1
 10
264.050690
 20
155.056341
 30
0.0
 10
262.567550
 20
155.226080
 30
0.0
 10
261.073240
 20
155.149149
 30
0.0
 10
259.584050
 20
155.166710
 30
0.0
  0
SPLINE
  5
119
100
AcDbEntity
  8
bottom-3
 62
7
100
AcDbSpline
 70
8
 71
3
 72
8
 73
4
 74
0
 40
0
 40
0
 40
0
 40
0
 40
1
 40
1
 40
1
 40
1
 10
259.584050
 20
155.166710
 30
0.0
 10
180.420400
 20
155.166710
 30
0.0
 10
101.256750
 20
155.166710
 30
0.0
 10
22.093096
 20
155.166710
 30
0.0
  0
SPLINE
  5
11a
100
AcDbEntity
  8
bottom-3
 62
7
100
AcDbSpline
 70
8
 71
3
 72
8
 73
4
 74
0
 40
0
 40
0
 40
0
 40
0
 40
1
 40
1
 40
1
 40
1
 10
470.920441
 20
136.015726
 30
0.0
 10
468.245258
 20
136.015726
 30
0.0
 10
465.833490
 20
134.404234
 30
0.0
 10
464.809742
 20
131.932687
 30
0.0
  0
SPLINE
  5
11b
100
AcDbEntity
  8
bottom-3
 62
7
100
AcDbSpline
 70
8
 71
3
 72
8
 73
4
 74
0
 40
0
 40
0
 40
0
 40
0
 40
1
 40
1
 40
1
 40
1
 10
464.809742
 20
131.932687
 30
0.0
 10
463.785993
 20
129.461140
 30
0.0
 10
464.351874
 20
126.616266
 30
0.0
 10
466.243514
 20
124.724626
 30
0.0
  0
SPLINE
  5
11c
100
AcDbEntity
  8
bottom-3
 62
7
100
AcDbSpline
 70
8
 71
3
 72
8
 73
4
 74
0
 40
0
 40
0
 40
0
 40
0
 40
1
 40
1
 40
1
 40
1
 10
466.243514
 20
124.724626
 30
0.0
 10
468.135154
 20
122.832985
 30
0.0
 10
470.980028
 20
122.267105
 30
0.0
 10
473.451575
 20
123.290853
 30
0.0
  0
SPLINE
  5
11d
100
AcDbEntity
  8
bottom-3
 62
7
100
AcDbSpline
 70
8
 71
3
 72
8
 73
4
 74
0
 40
0
 40
0
 40
0
 40
0
 40
1
 40
1
 40
1
 40
1
 10
473.451575
 20
123.290853
 30
0.0
 10
475.923123
 20
124.314602
 30
0.0
 10
477.534614
 20
126.726369
 30
0.0
 10
477.534614
 20
129.401553
 30
0.0
  0
SPLINE
  5
11e
100
AcDbEntity
  8
bottom-3
 62
7
100
AcDbSpline
 70
8
 71
3
 72
8
 73
4
 74
0
 40
0
 40
0
 40
0
 40
0
 40
1
 40
1
 40
1
 40
1
 10
477.534614
 20
129.401553
 30
0.0
 10
477.534614
 20
131.155740
 30
0.0
 10
476.837766
 20
132.838081
 30
0.0
 10
475.597368
 20
134.078479
 30
0.0
  0
SPLINE
  5
11f
100
AcDbEntity
  8
bottom-3
 62
7
100
AcDbSpline
 70
8
 71
3
 72
8
 73
4
 74
0
 40
0
 40
0
 40
0
 40
0
 40
1
 40
1
 40
1
 40
1
 10
475.597368
 20
134.078479
 30
0.0
 10
474.356970
 20
135.318877
 30
0.0
 10
472.674629
 20
136.015726
 30
0.0
 10
470.920441
 20
136.015726
 30
0.0
  0
LWPOLYLINE
  5
120
100
AcDbEntity
  8
bottom-3
 62
7
100
AcDbPolyline
 90
2
 70
0
 10
22.093096
 20
155.166710
 30
0.0
 10
22.093343
 20
155.166710
 30
0.0
  0
SPLINE
  5
121
100
AcDbEntity
  8
bottom-3
 62
7
100
AcDbSpline
 70
8
 71
3
 72
8
 73
4
 74
0
 40
0
 40
0
 40
0
 40
0
 40
1
 40
1
 40
1
 40
1
 10
29.757203
 20
-22.426027
 30
0.0
 10
26.104296
 20
-22.426027
 30
0.0
 10
23.143030
 20
-25.387293
 30
0.0
 10
23.143030
 20
-29.040200
 30
0.0
  0
SPLINE
  5
122
100
AcDbEntity
  8
bottom-3
 62
7
100
AcDbSpline
 70
8
 71
3
 72
8
 73
4
 74
0
 40
0
 40
0
 40
0
 40
0
 40
1
 40
1
 40
1
 40
1
 10
23.143030
 20
-29.040200
 30
0.0
 10
23.143030
 20
-32.693107
 30
0.0
 10
26.104296
 20
-35.654374
 30
0.0
 10
29.757203
 20
-35.654374
 30
0.0
  0
SPLINE
  5
123
100
AcDbEntity
  8
bottom-3
 62
7
100
AcDbSpline
 70
8
 71
3
 72
8
 73
4
 74
0
 40
0
 40
0
 40
0
 40
0
 40
1
 40
1
 40
1
 40
1
 10
29.757203
 20
-35.654374
 30
0.0
 10
33.410110
 20
-35.654374
 30
0.0
 10
36.371376
 20
-32.693107
 30
0.0
 10
36.371376
 20
-29.040200
 30
0.0
  0
SPLINE
  5
124
100
AcDbEntity
  8
bottom-3
 62
7
100
AcDbSpline
 70
8
 71
3
 72
8
 73
4
 74
0
 40
0
 40
0
 40
0
 40
0
 40
1
 40
1
 40
1
 40
1
 10
36.371376
 20
-29.040200
 30
0.0
 10
36.371376
 20
-27.286013
 30
0.0
 10
35.674528
 20
-25.603672
 30
0.0
 10
34.434130
 20
-24.363274
 30
0.0
  0
SPLINE
  5
125
100
AcDbEntity
  8
bottom-3
 62
7
100
AcDbSpline
 70
8
 71
3
 72
8
 73
4
 74
0
 40
0
 40
0
 40
0
 40
0
 40
1
 40
1
 40
1
 40
1
 10
34.434130
 20
-24.363274
 30
0.0
 10
33.193732
 20
-23.122875
 30
0.0
 10
31.511391
 20
-22.426027
 30
0.0
 10
29.757203
 20
-22.426027
 30
0.0
  0
LWPOLYLINE
  5
126
100
AcDbEntity
  8
bottom-3
 62
7
100
AcDbPolyline
 90
1
 70
1
 10
470.920441
 20
136.015726
 30
0.0
  0
SPLINE
  5
127
100
AcDbEntity
  8
bottom-3
 62
7
100
AcDbSpline
 70
8
 71
3
 72
8
 73
4
 74
0
 40
0
 40
0
 40
0
 40
0
 40
1
 40
1
 40
1
 40
1
 10
1044.339931
 20
-22.426027
 30
0.0
 10
1041.664747
 20
-22.426027
 30
0.0
 10
1039.252980
 20
-24.037519
 30
0.0
 10
1038.229231
 20
-26.509066
 30
0.0
  0
SPLINE
  5
128
100
AcDbEntity
  8
bottom-3
 62
7
100
AcDbSpline
 70
8
 71
3
 72
8
 73
4
 74
0
 40
0
 40
0
 40
0
 40
0
 40
1
 40
1
 40
1
 40
1
 10
1038.229231
 20
-26.509066
 30
0.0
 10
1037.205483
 20
-28.980613
 30
0.0
 10
1037.771364
 20
-31.825487
 30
0.0
 10
1039.663004
 20
-33.717127
 30
0.0
  0
SPLINE
  5
129
100
AcDbEntity
  8
bottom-3
 62
7
100
AcDbSpline
 70
8
 71
3
 72
8
 73
4
 74
0
 40
0
 40
0
 40
0
 40
0
 40
1
 40
1
 40
1
 40
1
 10
1039.663004
 20
-33.717127
 30
0.0
 10
1041.554644
 20
-35.608767
 30
0.0
 10
1044.399518
 20
-36.174648
 30
0.0
 10
1046.871065
 20
-35.150900
 30
0.0
  0
SPLINE
  5
12a
100
AcDbEntity
  8
bottom-3
 62
7
100
AcDbSpline
 70
8
 71
3
 72
8
 73
4
 74
0
 40
0
 40
0
 40
0
 40
0
 40
1
 40
1
 40
1
 40
1
 10
1046.871065
 20
-35.150900
 30
0.0
 10
1049.342612
 20
-34.127151
 30
0.0
 10
1050.954104
 20
-31.715384
 30
0.0
 10
1050.954104
 20
-29.040200
 30
0.0
  0
SPLINE
  5
12b
100
AcDbEntity
  8
bottom-3
 62
7
100
AcDbSpline
 70
8
 71
3
 72
8
 73
4
 74
0
 40
0
 40
0
 40
0
 40
0
 40
1
 40
1
 40
1
 40
1
 10
1050.954104
 20
-29.040200
 30
0.0
 10
1050.954104
 20
-27.286013
 30
0.0
 10
1050.257256
 20
-25.603672
 30
0.0
 10
1049.016857
 20
-24.363274
 30
0.0
  0
SPLINE
  5
12c
100
AcDbEntity
  8
bottom-3
 62
7
100
AcDbSpline
 70
8
 71
3
 72
8
 73
4
 74
0
 40
0
 40
0
 40
0
 40
0
 40
1
 40
1
 40
1
 40
1
 10
1049.016857
 20
-24.363274
 30
0.0
 10
1047.776459
 20
-23.122875
 30
0.0
 10
1046.094119
 20
-22.426027
 30
0.0
 10
1044.339931
 20
-22.426027
 30
0.0
  0
LWPOLYLINE
  5
12d
100
AcDbEntity
  8
bottom-3
 62
7
100
AcDbPolyline
 90
1
 70
1
 10
29.757203
 20
-22.426027
 30
0.0
  0
SPLINE
  5
12e
100
AcDbEntity
  8
bottom-3
 62
7
100
AcDbSpline
 70
8
 71
3
 72
8
 73
4
 74
0
 40
0
 40
0
 40
0
 40
0
 40
1
 40
1
 40
1
 40
1
 10
48.400766
 20
118.503919
 30
0.0
 10
45.725583
 20
118.503919
 30
0.0
 10
43.313815
 20
116.892428
 30
0.0
 10
42.290067
 20
114.420881
 30
0.0
  0
SPLINE
  5
12f
100
AcDbEntity
  8
bottom-3
 62
7
100
AcDbSpline
 70
8
 71
3
 72
8
 73
4
 74
0
 40
0
 40
0
 40
0
 40
0
 40
1
 40
1
 40
1
 40
1
 10
42.290067
 20
114.420881
 30
0.0
 10
41.266318
 20
111.949334
 30
0.0
 10
41.832199
 20
109.104460
 30
0.0
 10
43.723839
 20
107.212819
 30
0.0
  0
SPLINE
  5
130
100
AcDbEntity
  8
bottom-3
 62
7
100
AcDbSpline
 70
8
 71
3
 72
8
 73
4
 74
0
 40
0
 40
0
 40
0
 40
0
 40
1
 40
1
 40
1
 40
1
 10
43.723839
 20
107.212819
 30
0.0
 10
45.615480
 20
105.321179
 30
0.0
 10
48.460353
 20
104.755299
 30
0.0
 10
50.931900
 20
105.779047
 30
0.0
  0
SPLINE
  5
131
100
AcDbEntity
  8
bottom-3
 62
7
100
AcDbSpline
 70
8
 71
3
 72
8
 73
4
 74
0
 40
0
 40
0
 40
0
 40
0
 40
1
 40
1
 40
1
 40
1
 10
50.931900
 20
105.779047
 30
0.0
 10
53.403448
 20
106.802795
 30
0.0
 10
55.014939
 20
109.214563
 30
0.0
 10
55.014939
 20
111.889746
 30
0.0
  0
SPLINE
  5
132
100
AcDbEntity
  8
bottom-3
 62
7
100
AcDbSpline
 70
8
 71
3
 72
8
 73
4
 74
0
 40
0
 40
0
 40
0
 40
0
 40
1
 40
1
 40
1
 40
1
 10
55.014939
 20
111.889746
 30
0.0
 10
55.014939
 20
113.643934
 30
0.0
 10
54.318091
 20
115.326275
 30
0.0
 10
53.077693
 20
116.566673
 30
0.0
  0
SPLINE
  5
133
100
AcDbEntity
  8
bottom-3
 62
7
100
AcDbSpline
 70
8
 71
3
 72
8
 73
4
 74
0
 40
0
 40
0
 40
0
 40
0
 40
1
 40
1
 40
1
 40
1
 10
53.077693
 20
116.566673
 30
0.0
 10
51.837295
 20
117.807071
 30
0.0
 10
50.154954
 20
118.503919
 30
0.0
 10
48.400766
 20
118.503919
 30
0.0
  0
LWPOLYLINE
  5
134
100
AcDbEntity
  8
bottom-3
 62
7
100
AcDbPolyline
 90
1
 70
1
 10
1044.339931
 20
-22.426027
 30
0.0
  0
SPLINE
  5
135
100
AcDbEntity
  8
bottom-3
 62
7
100
AcDbSpline
 70
8
 71
3
 72
8
 73
4
 74
0
 40
0
 40
0
 40
0
 40
0
 40
1
 40
1
 40
1
 40
1
 10
1025.849688
 20
118.503054
 30
0.0
 10
1023.174505
 20
118.503054
 30
0.0
 10
1020.762737
 20
116.891562
 30
0.0
 10
1019.738989
 20
114.420015
 30
0.0
  0
SPLINE
  5
136
100
AcDbEntity
  8
bottom-3
 62
7
100
AcDbSpline
 70
8
 71
3
 72
8
 73
4
 74
0
 40
0
 40
0
 40
0
 40
0
 40
1
 40
1
 40
1
 40
1
 10
1019.738989
 20
114.420015
 30
0.0
 10
1018.715241
 20
111.948468
 30
0.0
 10
1019.281121
 20
109.103594
 30
0.0
 10
1021.172761
 20
107.211954
 30
0.0
  0
SPLINE
  5
137
100
AcDbEntity
  8
bottom-3
 62
7
100
AcDbSpline
 70
8
 71
3
 72
8
 73
4
 74
0
 40
0
 40
0
 40
0
 40
0
 40
1
 40
1
 40
1
 40
1
 10
1021.172761
 20
107.211954
 30
0.0
 10
1023.064402
 20
105.320314
 30
0.0
 10
1025.909276
 20
104.754433
 30
0.0
 10
1028.380823
 20
105.778181
 30
0.0
  0
SPLINE
  5
138
100
AcDbEntity
  8
bottom-3
 62
7
100
AcDbSpline
 70
8
 71
3
 72
8
 73
4
 74
0
 40
0
 40
0
 40
0
 40
0
 40
1
 40
1
 40
1
 40
1
 10
1028.380823
 20
105.778181
 30
0.0
 10
1030.852370
 20
106.801930
 30
0.0
 10
1032.463861
 20
109.213697
 30
0.0
 10
1032.463861
 20
111.888881
 30
0.0
  0
SPLINE
  5
139
100
AcDbEntity
  8
bottom-3
 62
7
100
AcDbSpline
 70
8
 71
3
 72
8
 73
4
 74
0
 40
0
 40
0
 40
0
 40
0
 40
1
 40
1
 40
1
 40
1
 10
1032.463861
 20
111.888881
 30
0.0
 10
1032.463861
 20
113.643068
 30
0.0
 10
1031.767013
 20
115.325409
 30
0.0
 10
1030.526615
 20
116.565807
 30
0.0
  0
SPLINE
  5
13a
100
AcDbEntity
  8
bottom-3
 62
7
100
AcDbSpline
 70
8
 71
3
 72
8
 73
4
 74
0
 40
0
 40
0
 40
0
 40
0
 40
1
 40
1
 40
1
 40
1
 10
1030.526615
 20
116.565807
 30
0.0
 10
1029.286217
 20
117.806205
 30
0.0
 10
1027.603876
 20
118.503054
 30
0.0
 10
1025.849688
 20
118.503054
 30
0.0
  0
LWPOLYLINE
  5
13b
100
AcDbEntity
  8
bottom-3
 62
7
100
AcDbPolyline
 90
1
 70
1
 10
48.400766
 20
118.503919
 30
0.0
  0
SPLINE
  5
13c
100
AcDbEntity
  8
bottom-3
 62
7
100
AcDbSpline
 70
8
 71
3
 72
8
 73
4
 74
0
 40
0
 40
0
 40
0
 40
0
 40
1
 40
1
 40
1
 40
1
 10
48.401601
 20
-200.108202
 30
0.0
 10
44.748694
 20
-200.108202
 30
0.0
 10
41.787428
 20
-203.069468
 30
0.0
 10
41.787428
 20
-206.722375
 30
0.0
  0
SPLINE
  5
13d
100
AcDbEntity
  8
bottom-3
 62
7
100
AcDbSpline
 70
8
 71
3
 72
8
 73
4
 74
0
 40
0
 40
0
 40
0
 40
0
 40
1
 40
1
 40
1
 40
1
 10
41.787428
 20
-206.722375
 30
0.0
 10
41.787428
 20
-210.375282
 30
0.0
 10
44.748694
 20
-213.336548
 30
0.0
 10
48.401601
 20
-213.336548
 30
0.0
  0
SPLINE
  5
13e
100
AcDbEntity
  8
bottom-3
 62
7
100
AcDbSpline
 70
8
 71
3
 72
8
 73
4
 74
0
 40
0
 40
0
 40
0
 40
0
 40
1
 40
1
 40
1
 40
1
 10
48.401601
 20
-213.336548
 30
0.0
 10
52.054508
 20
-213.336548
 30
0.0
 10
55.015774
 20
-210.375282
 30
0.0
 10
55.015774
 20
-206.722375
 30
0.0
  0
SPLINE
  5
13f
100
AcDbEntity
  8
bottom-3
 62
7
100
AcDbSpline
 70
8
 71
3
 72
8
 73
4
 74
0
 40
0
 40
0
 40
0
 40
0
 40
1
 40
1
 40
1
 40
1
 10
55.015774
 20
-206.722375
 30
0.0
 10
55.015774
 20
-204.968187
 30
0.0
 10
54.318926
 20
-203.285846
 30
0.0
 10
53.078528
 20
-202.045448
 30
0.0
  0
SPLINE
  5
140
100
AcDbEntity
  8
bottom-3
 62
7
100
AcDbSpline
 70
8
 71
3
 72
8
 73
4
 74
0
 40
0
 40
0
 40
0
 40
0
 40
1
 40
1
 40
1
 40
1
 10
53.078528
 20
-202.045448
 30
0.0
 10
51.838130
 20
-200.805050
 30
0.0
 10
50.155789
 20
-200.108202
 30
0.0
 10
48.401601
 20
-200.108202
 30
0.0
  0
LWPOLYLINE
  5
141
100
AcDbEntity
  8
bottom-3
 62
7
100
AcDbPolyline
 90
1
 70
1
 10
1025.849688
 20
118.503054
 30
0.0
  0
SPLINE
  5
142
100
AcDbEntity
  8
bottom-3
 62
7
100
AcDbSpline
 70
8
 71
3
 72
8
 73
4
 74
0
 40
0
 40
0
 40
0
 40
0
 40
1
 40
1
 40
1
 40
1
 10
1025.850482
 20
-200.108776
 30
0.0
 10
1023.175299
 20
-200.108776
 30
0.0
 10
1020.763531
 20
-201.720268
 30
0.0
 10
1019.739783
 20
-204.191815
 30
0.0
  0
SPLINE
  5
143
100
AcDbEntity
  8
bottom-3
 62
7
100
AcDbSpline
 70
8
 71
3
 72
8
 73
4
 74
0
 40
0
 40
0
 40
0
 40
0
 40
1
 40
1
 40
1
 40
1
 10
1019.739783
 20
-204.191815
 30
0.0
 10
1018.716034
 20
-206.663362
 30
0.0
 10
1019.281915
 20
-209.508236
 30
0.0
 10
1021.173555
 20
-211.399876
 30
0.0
  0
SPLINE
  5
144
100
AcDbEntity
  8
bottom-3
 62
7
100
AcDbSpline
 70
8
 71
3
 72
8
 73
4
 74
0
 40
0
 40
0
 40
0
 40
0
 40
1
 40
1
 40
1
 40
1
 10
1021.173555
 20
-211.399876
 30
0.0
 10
1023.065195
 20
-213.291516
 30
0.0
 10
1025.910069
 20
-213.857397
 30
0.0
 10
1028.381616
 20
-212.833649
 30
0.0
  0
SPLINE
  5
145
100
AcDbEntity
  8
bottom-3
 62
7
100
AcDbSpline
 70
8
 71
3
 72
8
 73
4
 74
0
 40
0
 40
0
 40
0
 40
0
 40
1
 40
1
 40
1
 40
1
 10
1028.381616
 20
-212.833649
 30
0.0
 10
1030.853164
 20
-211.809900
 30
0.0
 10
1032.464655
 20
-209.398133
 30
0.0
 10
1032.464655
 20
-206.722949
 30
0.0
  0
SPLINE
  5
146
100
AcDbEntity
  8
bottom-3
 62
7
100
AcDbSpline
 70
8
 71
3
 72
8
 73
4
 74
0
 40
0
 40
0
 40
0
 40
0
 40
1
 40
1
 40
1
 40
1
 10
1032.464655
 20
-206.722949
 30
0.0
 10
1032.464655
 20
-204.968761
 30
0.0
 10
1031.767807
 20
-203.286421
 30
0.0
 10
1030.527409
 20
-202.046023
 30
0.0
  0
SPLINE
  5
147
100
AcDbEntity
  8
bottom-3
 62
7
100
AcDbSpline
 70
8
 71
3
 72
8
 73
4
 74
0
 40
0
 40
0
 40
0
 40
0
 40
1
 40
1
 40
1
 40
1
 10
1030.527409
 20
-202.046023
 30
0.0
 10
1029.287011
 20
-200.805624
 30
0.0
 10
1027.604670
 20
-200.108776
 30
0.0
 10
1025.850482
 20
-200.108776
 30
0.0
  0
LWPOLYLINE
  5
148
100
AcDbEntity
  8
bottom-3
 62
7
100
AcDbPolyline
 90
1
 70
1
 10
48.401601
 20
-200.108202
 30
0.0
  0
SPLINE
  5
149
100
AcDbEntity
  8
bottom-3
 62
7
100
AcDbSpline
 70
8
 71
3
 72
8
 73
4
 74
0
 40
0
 40
0
 40
0
 40
0
 40
1
 40
1
 40
1
 40
1
 10
604.102261
 20
136.015726
 30
0.0
 10
601.427078
 20
136.015726
 30
0.0
 10
599.015310
 20
134.404234
 30
0.0
 10
597.991562
 20
131.932687
 30
0.0
  0
SPLINE
  5
14a
100
AcDbEntity
  8
bottom-3
 62
7
100
AcDbSpline
 70
8
 71
3
 72
8
 73
4
 74
0
 40
0
 40
0
 40
0
 40
0
 40
1
 40
1
 40
1
 40
1
 10
597.991562
 20
131.932687
 30
0.0
 10
596.967814
 20
129.461140
 30
0.0
 10
597.533694
 20
126.616266
 30
0.0
 10
599.425335
 20
124.724626
 30
0.0
  0
SPLINE
  5
14b
100
AcDbEntity
  8
bottom-3
 62
7
100
AcDbSpline
 70
8
 71
3
 72
8
 73
4
 74
0
 40
0
 40
0
 40
0
 40
0
 40
1
 40
1
 40
1
 40
1
 10
599.425335
 20
124.724626
 30
0.0
 10
601.316975
 20
122.832985
 30
0.0
 10
604.161849
 20
122.267105
 30
0.0
 10
606.633396
 20
123.290853
 30
0.0
  0
SPLINE
  5
14c
100
AcDbEntity
  8
bottom-3
 62
7
100
AcDbSpline
 70
8
 71
3
 72
8
 73
4
 74
0
 40
0
 40
0
 40
0
 40
0
 40
1
 40
1
 40
1
 40
1
 10
606.633396
 20
123.290853
 30
0.0
 10
609.104943
 20
124.314602
 30
0.0
 10
610.716435
 20
126.726369
 30
0.0
 10
610.716435
 20
129.401553
 30
0.0
  0
SPLINE
  5
14d
100
AcDbEntity
  8
bottom-3
 62
7
100
AcDbSpline
 70
8
 71
3
 72
8
 73
4
 74
0
 40
0
 40
0
 40
0
 40
0
 40
1
 40
1
 40
1
 40
1
 10
610.716435
 20
129.401553
 30
0.0
 10
610.716435
 20
131.155740
 30
0.0
 10
610.019586
 20
132.838081
 30
0.0
 10
608.779188
 20
134.078479
 30
0.0
  0
SPLINE
  5
14e
100
AcDbEntity
  8
bottom-3
 62
7
100
AcDbSpline
 70
8
 71
3
 72
8
 73
4
 74
0
 40
0
 40
0
 40
0
 40
0
 40
1
 40
1
 40
1
 40
1
 10
608.779188
 20
134.078479
 30
0.0
 10
607.538790
 20
135.318877
 30
0.0
 10
605.856449
 20
136.015726
 30
0.0
 10
604.102261
 20
136.015726
 30
0.0
  0
LWPOLYLINE
  5
14f
100
AcDbEntity
  8
bottom-3
 62
7
100
AcDbPolyline
 90
1
 70
1
 10
1025.850482
 20
-200.108776
 30
0.0
  0
SPLINE
  5
150
100
AcDbEntity
  8
bottom-3
 62
7
100
AcDbSpline
 70
8
 71
3
 72
8
 73
4
 74
0
 40
0
 40
0
 40
0
 40
0
 40
1
 40
1
 40
1
 40
1
 10
395.331402
 20
-281.548517
 30
0.0
 10
392.656218
 20
-281.548517
 30
0.0
 10
390.244451
 20
-283.160008
 30
0.0
 10
389.220702
 20
-285.631555
 30
0.0
  0
SPLINE
  5
151
100
AcDbEntity
  8
bottom-3
 62
7
100
AcDbSpline
 70
8
 71
3
 72
8
 73
4
 74
0
 40
0
 40
0
 40
0
 40
0
 40
1
 40
1
 40
1
 40
1
 10
389.220702
 20
-285.631555
 30
0.0
 10
388.196954
 20
-288.103102
 30
0.0
 10
388.762835
 20
-290.947976
 30
0.0
 10
390.654475
 20
-292.839617
 30
0.0
  0
SPLINE
  5
152
100
AcDbEntity
  8
bottom-3
 62
7
100
AcDbSpline
 70
8
 71
3
 72
8
 73
4
 74
0
 40
0
 40
0
 40
0
 40
0
 40
1
 40
1
 40
1
 40
1
 10
390.654475
 20
-292.839617
 30
0.0
 10
392.546115
 20
-294.731257
 30
0.0
 10
395.390989
 20
-295.297137
 30
0.0
 10
397.862536
 20
-294.273389
 30
0.0
  0
SPLINE
  5
153
100
AcDbEntity
  8
bottom-3
 62
7
100
AcDbSpline
 70
8
 71
3
 72
8
 73
4
 74
0
 40
0
 40
0
 40
0
 40
0
 40
1
 40
1
 40
1
 40
1
 10
397.862536
 20
-294.273389
 30
0.0
 10
400.334083
 20
-293.249641
 30
0.0
 10
401.945575
 20
-290.837873
 30
0.0
 10
401.945575
 20
-288.162690
 30
0.0
  0
SPLINE
  5
154
100
AcDbEntity
  8
bottom-3
 62
7
100
AcDbSpline
 70
8
 71
3
 72
8
 73
4
 74
0
 40
0
 40
0
 40
0
 40
0
 40
1
 40
1
 40
1
 40
1
 10
401.945575
 20
-288.162690
 30
0.0
 10
401.945575
 20
-286.408502
 30
0.0
 10
401.248726
 20
-284.726161
 30
0.0
 10
400.008328
 20
-283.485763
 30
0.0
  0
SPLINE
  5
155
100
AcDbEntity
  8
bottom-3
 62
7
100
AcDbSpline
 70
8
 71
3
 72
8
 73
4
 74
0
 40
0
 40
0
 40
0
 40
0
 40
1
 40
1
 40
1
 40
1
 10
400.008328
 20
-283.485763
 30
0.0
 10
398.767930
 20
-282.245365
 30
0.0
 10
397.085589
 20
-281.548517
 30
0.0
 10
395.331402
 20
-281.548517
 30
0.0
  0
LWPOLYLINE
  5
156
100
AcDbEntity
  8
bottom-3
 62
7
100
AcDbPolyline
 90
1
 70
1
 10
604.102261
 20
136.015726
 30
0.0
  0
SPLINE
  5
157
100
AcDbEntity
  8
bottom-3
 62
7
100
AcDbSpline
 70
8
 71
3
 72
8
 73
4
 74
0
 40
0
 40
0
 40
0
 40
0
 40
1
 40
1
 40
1
 40
1
 10
679.695458
 20
-281.548517
 30
0.0
 10
677.020275
 20
-281.548517
 30
0.0
 10
674.608507
 20
-283.160008
 30
0.0
 10
673.584759
 20
-285.631555
 30
0.0
  0
SPLINE
  5
158
100
AcDbEntity
  8
bottom-3
 62
7
100
AcDbSpline
 70
8
 71
3
 72
8
 73
4
 74
0
 40
0
 40
0
 40
0
 40
0
 40
1
 40
1
 40
1
 40
1
 10
673.584759
 20
-285.631555
 30
0.0
 10
672.561011
 20
-288.103102
 30
0.0
 10
673.126891
 20
-290.947976
 30
0.0
 10
675.018532
 20
-292.839617
 30
0.0
  0
SPLINE
  5
159
100
AcDbEntity
  8
bottom-3
 62
7
100
AcDbSpline
 70
8
 71
3
 72
8
 73
4
 74
0
 40
0
 40
0
 40
0
 40
0
 40
1
 40
1
 40
1
 40
1
 10
675.018532
 20
-292.839617
 30
0.0
 10
676.910172
 20
-294.731257
 30
0.0
 10
679.755046
 20
-295.297137
 30
0.0
 10
682.226593
 20
-294.273389
 30
0.0
  0
SPLINE
  5
15a
100
AcDbEntity
  8
bottom-3
 62
7
100
AcDbSpline
 70
8
 71
3
 72
8
 73
4
 74
0
 40
0
 40
0
 40
0
 40
0
 40
1
 40
1
 40
1
 40
1
 10
682.226593
 20
-294.273389
 30
0.0
 10
684.698140
 20
-293.249641
 30
0.0
 10
686.309631
 20
-290.837873
 30
0.0
 10
686.309631
 20
-288.162690
 30
0.0
  0
SPLINE
  5
15b
100
AcDbEntity
  8
bottom-3
 62
7
100
AcDbSpline
 70
8
 71
3
 72
8
 73
4
 74
0
 40
0
 40
0
 40
0
 40
0
 40
1
 40
1
 40
1
 40
1
 10
686.309631
 20
-288.162690
 30
0.0
 10
686.309631
 20
-284.509783
 30
0.0
 10
683.348365
 20
-281.548517
 30
0.0
 10
679.695458
 20
-281.548517
 30
0.0
  0
LWPOLYLINE
  5
15c
100
AcDbEntity
  8
bottom-3
 62
7
100
AcDbPolyline
 90
1
 70
1
 10
395.331402
 20
-281.548517
 30
0.0
  0
LWPOLYLINE
  5
15d
100
AcDbEntity
  8
bottom-3
 62
7
100
AcDbPolyline
 90
1
 70
1
 10
679.695458
 20
-281.548517
 30
0.0
  0
ENDSEC
  0
SECTION
  2
OBJECTS
  0
DICTIONARY
  5
C
330
0
100
AcDbDictionary
  3
ACAD_GROUP
350
D
  3
ACAD_MLINESTYLE
350
17
  0
DICTIONARY
  5
D
330
C
100
AcDbDictionary
  0
DICTIONARY
  5
1A
330
C
100
AcDbDictionary
  0
DICTIONARY
  5
17
330
C
100
AcDbDictionary
  3
STANDARD
350
18
  0
DICTIONARY
  5
19
330
C
100
AcDbDictionary
  0
ENDSEC
  0
EOF
