  0
SECTION
  2
HEADER
  9
$ACADVER
  1
AC1014
  9
$HANDSEED
  5
FFFF
  9
$MEASUREMENT
 70
     1
  0
ENDSEC
  0
SECTION
  2
TABLES
  0
TABLE
  2
VPORT
  5
8
330
0
100
AcDbSymbolTable
 70
     4
  0
VPORT
  5
2E
330
8
100
AcDbSymbolTableRecord
100
AcDbViewportTableRecord
  2
*ACTIVE
 70
     0
 10
0.0
 20
0.0
 11
1.0
 21
1.0
 12
210.0
 22
148.5
 13
0.0
 23
0.0
 14
10.0
 24
10.0
 15
10.0
 25
10.0
 16
0.0
 26
0.0
 36
1.0
 17
0.0
 27
0.0
 37
0.0
 40
341.0
 41
1.24
 42
50.0
 43
0.0
 44
0.0
 50
0.0
 51
0.0
 71
     0
 72
   100
 73
     1
 74
     3
 75
     0
 76
     0
 77
     0
 78
     0
  0
ENDTAB
  0
TABLE
  2
LTYPE
  5
5
330
0
100
AcDbSymbolTable
 70
     1
  0
LTYPE
  5
14
330
5
100
AcDbSymbolTableRecord
100
AcDbLinetypeTableRecord
  2
BYBLOCK
 70
     0
  3

 72
    65
 73
     0
 40
0.0
  0
LTYPE
  5
15
330
5
100
AcDbSymbolTableRecord
100
AcDbLinetypeTableRecord
  2
BYLAYER
 70
     0
  3

 72
    65
 73
     0
 40
0.0
  0
LTYPE
  5
16
330
5
100
AcDbSymbolTableRecord
100
AcDbLinetypeTableRecord
  2
CONTINUOUS
 70
     0
  3
Solid line
 72
    65
 73
     0
 40
0.0
  0
ENDTAB
  0
TABLE
  2
LAYER
  5
2
100
AcDbSymbolTable
 70
2
  0
LAYER
  5
50
100
AcDbSymbolTableRecord
100
AcDbLayerTableRecord
  2
0
 70
0
  6
CONTINUOUS
  0
LAYER
  5
51
100
AcDbSymbolTableRecord
100
AcDbLayerTableRecord
  2
bottom-3
 70
0
  6
CONTINUOUS
  0
ENDTAB
  0
TABLE
  2
STYLE
  5
3
330
0
100
AcDbSymbolTable
 70
     1
  0
STYLE
  5
11
330
3
100
AcDbSymbolTableRecord
100
AcDbTextStyleTableRecord
  2
STANDARD
 70
     0
 40
0.0
 41
1.0
 50
0.0
 71
     0
 42
2.5
  3
txt
  4

  0
ENDTAB
  0
TABLE
  2
VIEW
  5
6
330
0
100
AcDbSymbolTable
 70
     0
  0
ENDTAB
  0
TABLE
  2
UCS
  5
7
330
0
100
AcDbSymbolTable
 70
     0
  0
ENDTAB
  0
TABLE
  2
APPID
  5
9
330
0
100
AcDbSymbolTable
 70
     2
  0
APPID
  5
12
330
9
100
AcDbSymbolTableRecord
100
AcDbRegAppTableRecord
  2
ACAD
 70
     0
  0
ENDTAB
  0
TABLE
  2
DIMSTYLE
  5
A
330
0
100
AcDbSymbolTable
 70
     1
  0
DIMSTYLE
105
27
330
A
100
AcDbSymbolTableRecord
100
AcDbDimStyleTableRecord
  2
ISO-25
 70
     0
  3

  4

  5

  6

  7

 40
1.0
 41
2.5
 42
0.625
 43
3.75
 44
1.25
 45
0.0
 46
0.0
 47
0.0
 48
0.0
140
2.5
141
2.5
142
0.0
143
0.03937007874016
144
1.0
145
0.0
146
1.0
147
0.625
 71
     0
 72
     0
 73
     0
 74
     0
 75
     0
 76
     0
 77
     1
 78
     8
170
     0
171
     3
172
     1
173
     0
174
     0
175
     0
176
     0
177
     0
178
     0
270
     2
271
     2
272
     2
273
     2
274
     3
340
11
275
     0
280
     0
281
     0
282
     0
283
     0
284
     8
285
     0
286
     0
287
     3
288
     0
  0
ENDTAB
  0
TABLE
  2
BLOCK_RECORD
  5
1
330
0
100
AcDbSymbolTable
 70
     1
  0
BLOCK_RECORD
  5
1F
330
1
100
AcDbSymbolTableRecord
100
AcDbBlockTableRecord
  2
*MODEL_SPACE
  0
BLOCK_RECORD
  5
1B
330
1
100
AcDbSymbolTableRecord
100
AcDbBlockTableRecord
  2
*PAPER_SPACE
  0
ENDTAB
  0
ENDSEC
  0
SECTION
  2
BLOCKS
  0
BLOCK
  5
20
330
1F
100
AcDbEntity
  8
0
100
AcDbBlockBegin
  2
*MODEL_SPACE
 70
     0
 10
0.0
 20
0.0
 30
0.0
  3
*MODEL_SPACE
  1

  0
ENDBLK
  5
21
330
1F
100
AcDbEntity
  8
0
100
AcDbBlockEnd
  0
BLOCK
  5
1C
330
1B
100
AcDbEntity
 67
     1
  8
0
100
AcDbBlockBegin
  2
*PAPER_SPACE
  1

  0
ENDBLK
  5
1D
330
1B
100
AcDbEntity
 67
     1
  8
0
100
AcDbBlockEnd
  0
ENDSEC
  0
SECTION
  2
ENTITIES
  0
SPLINE
  5
100
100
AcDbEntity
  8
bottom-3
 62
7
100
AcDbSpline
 70
8
 71
3
 72
8
 73
4
 74
0
 40
0
 40
0
 40
0
 40
0
 40
1
 40
1
 40
1
 40
1
 10
17.097343
 20
160.162710
 30
0.0
 10
13.132647
 20
160.181139
 30
0.0
 10
9.182098
 20
158.753455
 30
0.0
 10
6.153324
 20
156.193658
 30
0.0
  0
SPLINE
  5
101
100
AcDbEntity
  8
bottom-3
 62
7
100
AcDbSpline
 70
8
 71
3
 72
8
 73
4
 74
0
 40
0
 40
0
 40
0
 40
0
 40
1
 40
1
 40
1
 40
1
 10
6.153324
 20
156.193658
 30
0.0
 10
2.936866
 20
153.511266
 30
0.0
 10
0.781201
 20
149.596884
 30
0.0
 10
0.247649
 20
145.441417
 30
0.0
  0
SPLINE
  5
102
100
AcDbEntity
  8
bottom-3
 62
7
100
AcDbSpline
 70
8
 71
3
 72
8
 73
4
 74
0
 40
0
 40
0
 40
0
 40
0
 40
1
 40
1
 40
1
 40
1
 10
0.247649
 20
145.441417
 30
0.0
 10
0.026971
 20
143.870488
 30
0.0
 10
0.115857
 20
142.282008
 30
0.0
 10
0.097343
 20
140.701459
 30
0.0
  0
SPLINE
  5
103
100
AcDbEntity
  8
bottom-3
 62
7
100
AcDbSpline
 70
8
 71
3
 72
8
 73
4
 74
0
 40
0
 40
0
 40
0
 40
0
 40
1
 40
1
 40
1
 40
1
 10
0.097343
 20
140.701459
 30
0.0
 10
0.098523
 20
119.140925
 30
0.0
 10
0.094973
 20
97.580369
 30
0.0
 10
0.099123
 20
76.019848
 30
0.0
  0
SPLINE
  5
104
100
AcDbEntity
  8
bottom-3
 62
7
100
AcDbSpline
 70
8
 71
3
 72
8
 73
4
 74
0
 40
0
 40
0
 40
0
 40
0
 40
1
 40
1
 40
1
 40
1
 10
0.099123
 20
76.019848
 30
0.0
 10
0.123160
 20
73.028311
 30
0.0
 10
1.073696
 20
70.047526
 30
0.0
 10
2.834665
 20
67.624296
 30
0.0
  0
SPLINE
  5
105
100
AcDbEntity
  8
bottom-3
 62
7
100
AcDbSpline
 70
8
 71
3
 72
8
 73
4
 74
0
 40
0
 40
0
 40
0
 40
0
 40
1
 40
1
 40
1
 40
1
 10
2.834665
 20
67.624296
 30
0.0
 10
3.343898
 20
66.882501
 30
0.0
 10
4.047255
 20
66.306813
 30
0.0
 10
4.606374
 20
65.605288
 30
0.0
  0
SPLINE
  5
106
100
AcDbEntity
  8
bottom-3
 62
7
100
AcDbSpline
 70
8
 71
3
 72
8
 73
4
 74
0
 40
0
 40
0
 40
0
 40
0
 40
1
 40
1
 40
1
 40
1
 10
4.606374
 20
65.605288
 30
0.0
 10
5.384643
 20
64.726990
 30
0.0
 10
6.336074
 20
64.021960
 30
0.0
 10
7.292084
 20
63.349960
 30
0.0
  0
SPLINE
  5
107
100
AcDbEntity
  8
bottom-3
 62
7
100
AcDbSpline
 70
8
 71
3
 72
8
 73
4
 74
0
 40
0
 40
0
 40
0
 40
0
 40
1
 40
1
 40
1
 40
1
 10
7.292084
 20
63.349960
 30
0.0
 10
10.416939
 20
61.223340
 30
0.0
 10
14.042721
 20
59.929740
 30
0.0
 10
17.732112
 20
59.193960
 30
0.0
  0
SPLINE
  5
108
100
AcDbEntity
  8
bottom-3
 62
7
100
AcDbSpline
 70
8
 71
3
 72
8
 73
4
 74
0
 40
0
 40
0
 40
0
 40
0
 40
1
 40
1
 40
1
 40
1
 10
17.732112
 20
59.193960
 30
0.0
 10
28.872551
 20
56.793540
 30
0.0
 10
40.002802
 20
54.345340
 30
0.0
 10
51.151908
 20
51.985330
 30
0.0
  0
SPLINE
  5
109
100
AcDbEntity
  8
bottom-3
 62
7
100
AcDbSpline
 70
8
 71
3
 72
8
 73
4
 74
0
 40
0
 40
0
 40
0
 40
0
 40
1
 40
1
 40
1
 40
1
 10
51.151908
 20
51.985330
 30
0.0
 10
57.305321
 20
50.732390
 30
0.0
 10
63.458768
 20
49.479440
 30
0.0
 10
69.604522
 20
48.189220
 30
0.0
  0
SPLINE
  5
10a
100
AcDbEntity
  8
bottom-3
 62
7
100
AcDbSpline
 70
8
 71
3
 72
8
 73
4
 74
0
 40
0
 40
0
 40
0
 40
0
 40
1
 40
1
 40
1
 40
1
 10
69.604522
 20
48.189220
 30
0.0
 10
84.742124
 20
45.046990
 30
0.0
 10
99.886400
 20
41.932990
 30
0.0
 10
115.072120
 20
39.030650
 30
0.0
  0
SPLINE
  5
10b
100
AcDbEntity
  8
bottom-3
 62
7
100
AcDbSpline
 70
8
 71
3
 72
8
 73
4
 74
0
 40
0
 40
0
 40
0
 40
0
 40
1
 40
1
 40
1
 40
1
 10
115.072120
 20
39.030650
 30
0.0
 10
120.929450
 20
37.927530
 30
0.0
 10
126.787840
 20
36.817940
 30
0.0
 10
132.682460
 20
35.929880
 30
0.0
  0
SPLINE
  5
10c
100
AcDbEntity
  8
bottom-3
 62
7
100
AcDbSpline
 70
8
 71
3
 72
8
 73
4
 74
0
 40
0
 40
0
 40
0
 40
0
 40
1
 40
1
 40
1
 40
1
 10
132.682460
 20
35.929880
 30
0.0
 10
134.140820
 20
35.731010
 30
0.0
 10
135.600010
 20
35.485470
 30
0.0
 10
137.073860
 20
35.450510
 30
0.0
  0
SPLINE
  5
10d
100
AcDbEntity
  8
bottom-3
 62
7
100
AcDbSpline
 70
8
 71
3
 72
8
 73
4
 74
0
 40
0
 40
0
 40
0
 40
0
 40
1
 40
1
 40
1
 40
1
 10
137.073860
 20
35.450510
 30
0.0
 10
138.816250
 20
35.534510
 30
0.0
 10
140.540800
 20
35.824860
 30
0.0
 10
142.265120
 20
36.074640
 30
0.0
  0
SPLINE
  5
10e
100
AcDbEntity
  8
bottom-3
 62
7
100
AcDbSpline
 70
8
 71
3
 72
8
 73
4
 74
0
 40
0
 40
0
 40
0
 40
0
 40
1
 40
1
 40
1
 40
1
 10
142.265120
 20
36.074640
 30
0.0
 10
148.823940
 20
37.102780
 30
0.0
 10
155.346020
 20
38.349420
 30
0.0
 10
161.866610
 20
39.593310
 30
0.0
  0
SPLINE
  5
10f
100
AcDbEntity
  8
bottom-3
 62
7
100
AcDbSpline
 70
8
 71
3
 72
8
 73
4
 74
0
 40
0
 40
0
 40
0
 40
0
 40
1
 40
1
 40
1
 40
1
 10
161.866610
 20
39.593310
 30
0.0
 10
178.949520
 20
42.885850
 30
0.0
 10
195.983160
 20
46.426570
 30
0.0
 10
213.017610
 20
49.959270
 30
0.0
  0
SPLINE
  5
110
100
AcDbEntity
  8
bottom-3
 62
7
100
AcDbSpline
 70
8
 71
3
 72
8
 73
4
 74
0
 40
0
 40
0
 40
0
 40
0
 40
1
 40
1
 40
1
 40
1
 10
213.017610
 20
49.959270
 30
0.0
 10
218.000520
 20
50.990800
 30
0.0
 10
222.995820
 20
51.962490
 30
0.0
 10
227.967910
 20
53.046010
 30
0.0
  0
SPLINE
  5
111
100
AcDbEntity
  8
bottom-3
 62
7
100
AcDbSpline
 70
8
 71
3
 72
8
 73
4
 74
0
 40
0
 40
0
 40
0
 40
0
 40
1
 40
1
 40
1
 40
1
 10
227.967910
 20
53.046010
 30
0.0
 10
237.908860
 20
55.178990
 30
0.0
 10
247.845450
 20
57.334650
 30
0.0
 10
257.783920
 20
59.477320
 30
0.0
  0
SPLINE
  5
112
100
AcDbEntity
  8
bottom-3
 62
7
100
AcDbSpline
 70
8
 71
3
 72
8
 73
4
 74
0
 40
0
 40
0
 40
0
 40
0
 40
1
 40
1
 40
1
 40
1
 10
257.783920
 20
59.477320
 30
0.0
 10
261.614950
 20
60.382690
 30
0.0
 10
265.360910
 20
61.945890
 30
0.0
 10
268.412900
 20
64.473470
 30
0.0
  0
SPLINE
  5
113
100
AcDbEntity
  8
bottom-3
 62
7
100
AcDbSpline
 70
8
 71
3
 72
8
 73
4
 74
0
 40
0
 40
0
 40
0
 40
0
 40
1
 40
1
 40
1
 40
1
 10
268.412900
 20
64.473470
 30
0.0
 10
270.752870
 20
66.403374
 30
0.0
 10
272.609890
 20
68.972957
 30
0.0
 10
273.472940
 20
71.898101
 30
0.0
  0
SPLINE
  5
114
100
AcDbEntity
  8
bottom-3
 62
7
100
AcDbSpline
 70
8
 71
3
 72
8
 73
4
 74
0
 40
0
 40
0
 40
0
 40
0
 40
1
 40
1
 40
1
 40
1
 10
273.472940
 20
71.898101
 30
0.0
 10
273.963410
 20
73.502114
 30
0.0
 10
274.132140
 20
75.187261
 30
0.0
 10
274.097340
 20
76.859710
 30
0.0
  0
SPLINE
  5
115
100
AcDbEntity
  8
bottom-3
 62
7
100
AcDbSpline
 70
8
 71
3
 72
8
 73
4
 74
0
 40
0
 40
0
 40
0
 40
0
 40
1
 40
1
 40
1
 40
1
 10
274.097340
 20
76.859710
 30
0.0
 10
274.096340
 20
99.043353
 30
0.0
 10
274.099340
 20
121.227017
 30
0.0
 10
274.095340
 20
143.410646
 30
0.0
  0
SPLINE
  5
116
100
AcDbEntity
  8
bottom-3
 62
7
100
AcDbSpline
 70
8
 71
3
 72
8
 73
4
 74
0
 40
0
 40
0
 40
0
 40
0
 40
1
 40
1
 40
1
 40
1
 10
274.095340
 20
143.410646
 30
0.0
 10
274.057540
 20
147.377765
 30
0.0
 10
272.568530
 20
151.308764
 30
0.0
 10
269.962760
 20
154.300781
 30
0.0
  0
SPLINE
  5
117
100
AcDbEntity
  8
bottom-3
 62
7
100
AcDbSpline
 70
8
 71
3
 72
8
 73
4
 74
0
 40
0
 40
0
 40
0
 40
0
 40
1
 40
1
 40
1
 40
1
 10
269.962760
 20
154.300781
 30
0.0
 10
267.217100
 20
157.493742
 30
0.0
 10
263.242670
 20
159.595650
 30
0.0
 10
259.054690
 20
160.052341
 30
0.0
  0
SPLINE
  5
118
100
AcDbEntity
  8
bottom-3
 62
7
100
AcDbSpline
 70
8
 71
3
 72
8
 73
4
 74
0
 40
0
 40
0
 40
0
 40
0
 40
1
 40
1
 40
1
 40
1
 10
259.054690
 20
160.052341
 30
0.0
 10
257.571550
 20
160.222080
 30
0.0
 10
256.077240
 20
160.145149
 30
0.0
 10
254.588050
 20
160.162710
 30
0.0
  0
SPLINE
  5
119
100
AcDbEntity
  8
bottom-3
 62
7
100
AcDbSpline
 70
8
 71
3
 72
8
 73
4
 74
0
 40
0
 40
0
 40
0
 40
0
 40
1
 40
1
 40
1
 40
1
 10
254.588050
 20
160.162710
 30
0.0
 10
175.424400
 20
160.162710
 30
0.0
 10
96.260750
 20
160.162710
 30
0.0
 10
17.097096
 20
160.162710
 30
0.0
  0
SPLINE
  5
11a
100
AcDbEntity
  8
bottom-3
 62
7
100
AcDbSpline
 70
8
 71
3
 72
8
 73
4
 74
0
 40
0
 40
0
 40
0
 40
0
 40
1
 40
1
 40
1
 40
1
 10
121.351700
 20
157.091369
 30
0.0
 10
121.351700
 20
156.627240
 30
0.0
 10
121.167326
 20
156.182121
 30
0.0
 10
120.839137
 20
155.853932
 30
0.0
  0
SPLINE
  5
11b
100
AcDbEntity
  8
bottom-3
 62
7
100
AcDbSpline
 70
8
 71
3
 72
8
 73
4
 74
0
 40
0
 40
0
 40
0
 40
0
 40
1
 40
1
 40
1
 40
1
 10
120.839137
 20
155.853932
 30
0.0
 10
120.510948
 20
155.525744
 30
0.0
 10
120.065829
 20
155.341369
 30
0.0
 10
119.601700
 20
155.341369
 30
0.0
  0
SPLINE
  5
11c
100
AcDbEntity
  8
bottom-3
 62
7
100
AcDbSpline
 70
8
 71
3
 72
8
 73
4
 74
0
 40
0
 40
0
 40
0
 40
0
 40
1
 40
1
 40
1
 40
1
 10
119.601700
 20
155.341369
 30
0.0
 10
119.137571
 20
155.341369
 30
0.0
 10
118.692452
 20
155.525744
 30
0.0
 10
118.364263
 20
155.853932
 30
0.0
  0
SPLINE
  5
11d
100
AcDbEntity
  8
bottom-3
 62
7
100
AcDbSpline
 70
8
 71
3
 72
8
 73
4
 74
0
 40
0
 40
0
 40
0
 40
0
 40
1
 40
1
 40
1
 40
1
 10
118.364263
 20
155.853932
 30
0.0
 10
118.036074
 20
156.182121
 30
0.0
 10
117.851700
 20
156.627240
 30
0.0
 10
117.851700
 20
157.091369
 30
0.0
  0
SPLINE
  5
11e
100
AcDbEntity
  8
bottom-3
 62
7
100
AcDbSpline
 70
8
 71
3
 72
8
 73
4
 74
0
 40
0
 40
0
 40
0
 40
0
 40
1
 40
1
 40
1
 40
1
 10
117.851700
 20
157.091369
 30
0.0
 10
117.851700
 20
157.555498
 30
0.0
 10
118.036074
 20
158.000617
 30
0.0
 10
118.364263
 20
158.328806
 30
0.0
  0
SPLINE
  5
11f
100
AcDbEntity
  8
bottom-3
 62
7
100
AcDbSpline
 70
8
 71
3
 72
8
 73
4
 74
0
 40
0
 40
0
 40
0
 40
0
 40
1
 40
1
 40
1
 40
1
 10
118.364263
 20
158.328806
 30
0.0
 10
118.692452
 20
158.656995
 30
0.0
 10
119.137571
 20
158.841369
 30
0.0
 10
119.601700
 20
158.841369
 30
0.0
  0
SPLINE
  5
120
100
AcDbEntity
  8
bottom-3
 62
7
100
AcDbSpline
 70
8
 71
3
 72
8
 73
4
 74
0
 40
0
 40
0
 40
0
 40
0
 40
1
 40
1
 40
1
 40
1
 10
119.601700
 20
158.841369
 30
0.0
 10
120.065829
 20
158.841369
 30
0.0
 10
120.510948
 20
158.656995
 30
0.0
 10
120.839137
 20
158.328806
 30
0.0
  0
SPLINE
  5
121
100
AcDbEntity
  8
bottom-3
 62
7
100
AcDbSpline
 70
8
 71
3
 72
8
 73
4
 74
0
 40
0
 40
0
 40
0
 40
0
 40
1
 40
1
 40
1
 40
1
 10
120.839137
 20
158.328806
 30
0.0
 10
121.167326
 20
158.000617
 30
0.0
 10
121.351700
 20
157.555498
 30
0.0
 10
121.351700
 20
157.091369
 30
0.0
  0
LWPOLYLINE
  5
122
100
AcDbEntity
  8
bottom-3
 62
7
100
AcDbPolyline
 90
2
 70
0
 10
17.097096
 20
160.162710
 30
0.0
 10
17.097343
 20
160.162710
 30
0.0
  0
SPLINE
  5
123
100
AcDbEntity
  8
bottom-3
 62
7
100
AcDbSpline
 70
8
 71
3
 72
8
 73
4
 74
0
 40
0
 40
0
 40
0
 40
0
 40
1
 40
1
 40
1
 40
1
 10
4.627260
 20
115.170320
 30
0.0
 10
4.627260
 20
114.706191
 30
0.0
 10
4.442886
 20
114.261072
 30
0.0
 10
4.114697
 20
113.932883
 30
0.0
  0
SPLINE
  5
124
100
AcDbEntity
  8
bottom-3
 62
7
100
AcDbSpline
 70
8
 71
3
 72
8
 73
4
 74
0
 40
0
 40
0
 40
0
 40
0
 40
1
 40
1
 40
1
 40
1
 10
4.114697
 20
113.932883
 30
0.0
 10
3.786508
 20
113.604694
 30
0.0
 10
3.341389
 20
113.420320
 30
0.0
 10
2.877260
 20
113.420320
 30
0.0
  0
SPLINE
  5
125
100
AcDbEntity
  8
bottom-3
 62
7
100
AcDbSpline
 70
8
 71
3
 72
8
 73
4
 74
0
 40
0
 40
0
 40
0
 40
0
 40
1
 40
1
 40
1
 40
1
 10
2.877260
 20
113.420320
 30
0.0
 10
1.910762
 20
113.420320
 30
0.0
 10
1.127260
 20
114.203822
 30
0.0
 10
1.127260
 20
115.170320
 30
0.0
  0
SPLINE
  5
126
100
AcDbEntity
  8
bottom-3
 62
7
100
AcDbSpline
 70
8
 71
3
 72
8
 73
4
 74
0
 40
0
 40
0
 40
0
 40
0
 40
1
 40
1
 40
1
 40
1
 10
1.127260
 20
115.170320
 30
0.0
 10
1.127260
 20
115.634449
 30
0.0
 10
1.311634
 20
116.079568
 30
0.0
 10
1.639823
 20
116.407757
 30
0.0
  0
SPLINE
  5
127
100
AcDbEntity
  8
bottom-3
 62
7
100
AcDbSpline
 70
8
 71
3
 72
8
 73
4
 74
0
 40
0
 40
0
 40
0
 40
0
 40
1
 40
1
 40
1
 40
1
 10
1.639823
 20
116.407757
 30
0.0
 10
1.968012
 20
116.735946
 30
0.0
 10
2.413131
 20
116.920320
 30
0.0
 10
2.877260
 20
116.920320
 30
0.0
  0
SPLINE
  5
128
100
AcDbEntity
  8
bottom-3
 62
7
100
AcDbSpline
 70
8
 71
3
 72
8
 73
4
 74
0
 40
0
 40
0
 40
0
 40
0
 40
1
 40
1
 40
1
 40
1
 10
2.877260
 20
116.920320
 30
0.0
 10
3.341389
 20
116.920320
 30
0.0
 10
3.786508
 20
116.735946
 30
0.0
 10
4.114697
 20
116.407757
 30
0.0
  0
SPLINE
  5
129
100
AcDbEntity
  8
bottom-3
 62
7
100
AcDbSpline
 70
8
 71
3
 72
8
 73
4
 74
0
 40
0
 40
0
 40
0
 40
0
 40
1
 40
1
 40
1
 40
1
 10
4.114697
 20
116.407757
 30
0.0
 10
4.442886
 20
116.079568
 30
0.0
 10
4.627260
 20
115.634449
 30
0.0
 10
4.627260
 20
115.170320
 30
0.0
  0
LWPOLYLINE
  5
12a
100
AcDbEntity
  8
bottom-3
 62
7
100
AcDbPolyline
 90
1
 70
1
 10
121.351700
 20
157.091369
 30
0.0
  0
SPLINE
  5
12b
100
AcDbEntity
  8
bottom-3
 62
7
100
AcDbSpline
 70
8
 71
3
 72
8
 73
4
 74
0
 40
0
 40
0
 40
0
 40
0
 40
1
 40
1
 40
1
 40
1
 10
273.068940
 20
115.170320
 30
0.0
 10
273.068940
 20
114.706191
 30
0.0
 10
272.884566
 20
114.261072
 30
0.0
 10
272.556377
 20
113.932883
 30
0.0
  0
SPLINE
  5
12c
100
AcDbEntity
  8
bottom-3
 62
7
100
AcDbSpline
 70
8
 71
3
 72
8
 73
4
 74
0
 40
0
 40
0
 40
0
 40
0
 40
1
 40
1
 40
1
 40
1
 10
272.556377
 20
113.932883
 30
0.0
 10
272.228188
 20
113.604694
 30
0.0
 10
271.783069
 20
113.420320
 30
0.0
 10
271.318940
 20
113.420320
 30
0.0
  0
SPLINE
  5
12d
100
AcDbEntity
  8
bottom-3
 62
7
100
AcDbSpline
 70
8
 71
3
 72
8
 73
4
 74
0
 40
0
 40
0
 40
0
 40
0
 40
1
 40
1
 40
1
 40
1
 10
271.318940
 20
113.420320
 30
0.0
 10
270.854811
 20
113.420320
 30
0.0
 10
270.409692
 20
113.604694
 30
0.0
 10
270.081503
 20
113.932883
 30
0.0
  0
SPLINE
  5
12e
100
AcDbEntity
  8
bottom-3
 62
7
100
AcDbSpline
 70
8
 71
3
 72
8
 73
4
 74
0
 40
0
 40
0
 40
0
 40
0
 40
1
 40
1
 40
1
 40
1
 10
270.081503
 20
113.932883
 30
0.0
 10
269.753314
 20
114.261072
 30
0.0
 10
269.568940
 20
114.706191
 30
0.0
 10
269.568940
 20
115.170320
 30
0.0
  0
SPLINE
  5
12f
100
AcDbEntity
  8
bottom-3
 62
7
100
AcDbSpline
 70
8
 71
3
 72
8
 73
4
 74
0
 40
0
 40
0
 40
0
 40
0
 40
1
 40
1
 40
1
 40
1
 10
269.568940
 20
115.170320
 30
0.0
 10
269.568940
 20
115.634449
 30
0.0
 10
269.753314
 20
116.079568
 30
0.0
 10
270.081503
 20
116.407757
 30
0.0
  0
SPLINE
  5
130
100
AcDbEntity
  8
bottom-3
 62
7
100
AcDbSpline
 70
8
 71
3
 72
8
 73
4
 74
0
 40
0
 40
0
 40
0
 40
0
 40
1
 40
1
 40
1
 40
1
 10
270.081503
 20
116.407757
 30
0.0
 10
270.409692
 20
116.735946
 30
0.0
 10
270.854811
 20
116.920320
 30
0.0
 10
271.318940
 20
116.920320
 30
0.0
  0
SPLINE
  5
131
100
AcDbEntity
  8
bottom-3
 62
7
100
AcDbSpline
 70
8
 71
3
 72
8
 73
4
 74
0
 40
0
 40
0
 40
0
 40
0
 40
1
 40
1
 40
1
 40
1
 10
271.318940
 20
116.920320
 30
0.0
 10
271.783069
 20
116.920320
 30
0.0
 10
272.228188
 20
116.735946
 30
0.0
 10
272.556377
 20
116.407757
 30
0.0
  0
SPLINE
  5
132
100
AcDbEntity
  8
bottom-3
 62
7
100
AcDbSpline
 70
8
 71
3
 72
8
 73
4
 74
0
 40
0
 40
0
 40
0
 40
0
 40
1
 40
1
 40
1
 40
1
 10
272.556377
 20
116.407757
 30
0.0
 10
272.884566
 20
116.079568
 30
0.0
 10
273.068940
 20
115.634449
 30
0.0
 10
273.068940
 20
115.170320
 30
0.0
  0
LWPOLYLINE
  5
133
100
AcDbEntity
  8
bottom-3
 62
7
100
AcDbPolyline
 90
1
 70
1
 10
4.627260
 20
115.170320
 30
0.0
  0
SPLINE
  5
134
100
AcDbEntity
  8
bottom-3
 62
7
100
AcDbSpline
 70
8
 71
3
 72
8
 73
4
 74
0
 40
0
 40
0
 40
0
 40
0
 40
1
 40
1
 40
1
 40
1
 10
9.560036
 20
152.458037
 30
0.0
 10
9.560036
 20
151.993908
 30
0.0
 10
9.375662
 20
151.548788
 30
0.0
 10
9.047473
 20
151.220600
 30
0.0
  0
SPLINE
  5
135
100
AcDbEntity
  8
bottom-3
 62
7
100
AcDbSpline
 70
8
 71
3
 72
8
 73
4
 74
0
 40
0
 40
0
 40
0
 40
0
 40
1
 40
1
 40
1
 40
1
 10
9.047473
 20
151.220600
 30
0.0
 10
8.719284
 20
150.892411
 30
0.0
 10
8.274165
 20
150.708037
 30
0.0
 10
7.810036
 20
150.708037
 30
0.0
  0
SPLINE
  5
136
100
AcDbEntity
  8
bottom-3
 62
7
100
AcDbSpline
 70
8
 71
3
 72
8
 73
4
 74
0
 40
0
 40
0
 40
0
 40
0
 40
1
 40
1
 40
1
 40
1
 10
7.810036
 20
150.708037
 30
0.0
 10
7.345907
 20
150.708037
 30
0.0
 10
6.900788
 20
150.892411
 30
0.0
 10
6.572599
 20
151.220600
 30
0.0
  0
SPLINE
  5
137
100
AcDbEntity
  8
bottom-3
 62
7
100
AcDbSpline
 70
8
 71
3
 72
8
 73
4
 74
0
 40
0
 40
0
 40
0
 40
0
 40
1
 40
1
 40
1
 40
1
 10
6.572599
 20
151.220600
 30
0.0
 10
6.244411
 20
151.548788
 30
0.0
 10
6.060036
 20
151.993908
 30
0.0
 10
6.060036
 20
152.458037
 30
0.0
  0
SPLINE
  5
138
100
AcDbEntity
  8
bottom-3
 62
7
100
AcDbSpline
 70
8
 71
3
 72
8
 73
4
 74
0
 40
0
 40
0
 40
0
 40
0
 40
1
 40
1
 40
1
 40
1
 10
6.060036
 20
152.458037
 30
0.0
 10
6.060036
 20
152.922166
 30
0.0
 10
6.244411
 20
153.367285
 30
0.0
 10
6.572599
 20
153.695474
 30
0.0
  0
SPLINE
  5
139
100
AcDbEntity
  8
bottom-3
 62
7
100
AcDbSpline
 70
8
 71
3
 72
8
 73
4
 74
0
 40
0
 40
0
 40
0
 40
0
 40
1
 40
1
 40
1
 40
1
 10
6.572599
 20
153.695474
 30
0.0
 10
6.900788
 20
154.023662
 30
0.0
 10
7.345907
 20
154.208037
 30
0.0
 10
7.810036
 20
154.208037
 30
0.0
  0
SPLINE
  5
13a
100
AcDbEntity
  8
bottom-3
 62
7
100
AcDbSpline
 70
8
 71
3
 72
8
 73
4
 74
0
 40
0
 40
0
 40
0
 40
0
 40
1
 40
1
 40
1
 40
1
 10
7.810036
 20
154.208037
 30
0.0
 10
8.274165
 20
154.208037
 30
0.0
 10
8.719284
 20
154.023662
 30
0.0
 10
9.047473
 20
153.695474
 30
0.0
  0
SPLINE
  5
13b
100
AcDbEntity
  8
bottom-3
 62
7
100
AcDbSpline
 70
8
 71
3
 72
8
 73
4
 74
0
 40
0
 40
0
 40
0
 40
0
 40
1
 40
1
 40
1
 40
1
 10
9.047473
 20
153.695474
 30
0.0
 10
9.375662
 20
153.367285
 30
0.0
 10
9.560036
 20
152.922166
 30
0.0
 10
9.560036
 20
152.458037
 30
0.0
  0
LWPOLYLINE
  5
13c
100
AcDbEntity
  8
bottom-3
 62
7
100
AcDbPolyline
 90
1
 70
1
 10
273.068940
 20
115.170320
 30
0.0
  0
SPLINE
  5
13d
100
AcDbEntity
  8
bottom-3
 62
7
100
AcDbSpline
 70
8
 71
3
 72
8
 73
4
 74
0
 40
0
 40
0
 40
0
 40
0
 40
1
 40
1
 40
1
 40
1
 10
268.176730
 20
152.457808
 30
0.0
 10
268.176730
 20
151.993679
 30
0.0
 10
267.992356
 20
151.548560
 30
0.0
 10
267.664167
 20
151.220371
 30
0.0
  0
SPLINE
  5
13e
100
AcDbEntity
  8
bottom-3
 62
7
100
AcDbSpline
 70
8
 71
3
 72
8
 73
4
 74
0
 40
0
 40
0
 40
0
 40
0
 40
1
 40
1
 40
1
 40
1
 10
267.664167
 20
151.220371
 30
0.0
 10
267.335978
 20
150.892182
 30
0.0
 10
266.890859
 20
150.707808
 30
0.0
 10
266.426730
 20
150.707808
 30
0.0
  0
SPLINE
  5
13f
100
AcDbEntity
  8
bottom-3
 62
7
100
AcDbSpline
 70
8
 71
3
 72
8
 73
4
 74
0
 40
0
 40
0
 40
0
 40
0
 40
1
 40
1
 40
1
 40
1
 10
266.426730
 20
150.707808
 30
0.0
 10
265.962601
 20
150.707808
 30
0.0
 10
265.517482
 20
150.892182
 30
0.0
 10
265.189293
 20
151.220371
 30
0.0
  0
SPLINE
  5
140
100
AcDbEntity
  8
bottom-3
 62
7
100
AcDbSpline
 70
8
 71
3
 72
8
 73
4
 74
0
 40
0
 40
0
 40
0
 40
0
 40
1
 40
1
 40
1
 40
1
 10
265.189293
 20
151.220371
 30
0.0
 10
264.861104
 20
151.548560
 30
0.0
 10
264.676730
 20
151.993679
 30
0.0
 10
264.676730
 20
152.457808
 30
0.0
  0
SPLINE
  5
141
100
AcDbEntity
  8
bottom-3
 62
7
100
AcDbSpline
 70
8
 71
3
 72
8
 73
4
 74
0
 40
0
 40
0
 40
0
 40
0
 40
1
 40
1
 40
1
 40
1
 10
264.676730
 20
152.457808
 30
0.0
 10
264.676730
 20
152.921937
 30
0.0
 10
264.861104
 20
153.367056
 30
0.0
 10
265.189293
 20
153.695245
 30
0.0
  0
SPLINE
  5
142
100
AcDbEntity
  8
bottom-3
 62
7
100
AcDbSpline
 70
8
 71
3
 72
8
 73
4
 74
0
 40
0
 40
0
 40
0
 40
0
 40
1
 40
1
 40
1
 40
1
 10
265.189293
 20
153.695245
 30
0.0
 10
265.517482
 20
154.023433
 30
0.0
 10
265.962601
 20
154.207808
 30
0.0
 10
266.426730
 20
154.207808
 30
0.0
  0
SPLINE
  5
143
100
AcDbEntity
  8
bottom-3
 62
7
100
AcDbSpline
 70
8
 71
3
 72
8
 73
4
 74
0
 40
0
 40
0
 40
0
 40
0
 40
1
 40
1
 40
1
 40
1
 10
266.426730
 20
154.207808
 30
0.0
 10
266.890859
 20
154.207808
 30
0.0
 10
267.335978
 20
154.023433
 30
0.0
 10
267.664167
 20
153.695245
 30
0.0
  0
SPLINE
  5
144
100
AcDbEntity
  8
bottom-3
 62
7
100
AcDbSpline
 70
8
 71
3
 72
8
 73
4
 74
0
 40
0
 40
0
 40
0
 40
0
 40
1
 40
1
 40
1
 40
1
 10
267.664167
 20
153.695245
 30
0.0
 10
267.992356
 20
153.367056
 30
0.0
 10
268.176730
 20
152.921937
 30
0.0
 10
268.176730
 20
152.457808
 30
0.0
  0
LWPOLYLINE
  5
145
100
AcDbEntity
  8
bottom-3
 62
7
100
AcDbPolyline
 90
1
 70
1
 10
9.560036
 20
152.458037
 30
0.0
  0
SPLINE
  5
146
100
AcDbEntity
  8
bottom-3
 62
7
100
AcDbSpline
 70
8
 71
3
 72
8
 73
4
 74
0
 40
0
 40
0
 40
0
 40
0
 40
1
 40
1
 40
1
 40
1
 10
9.560257
 20
68.158582
 30
0.0
 10
9.560257
 20
67.694453
 30
0.0
 10
9.375883
 20
67.249334
 30
0.0
 10
9.047694
 20
66.921145
 30
0.0
  0
SPLINE
  5
147
100
AcDbEntity
  8
bottom-3
 62
7
100
AcDbSpline
 70
8
 71
3
 72
8
 73
4
 74
0
 40
0
 40
0
 40
0
 40
0
 40
1
 40
1
 40
1
 40
1
 10
9.047694
 20
66.921145
 30
0.0
 10
8.719506
 20
66.592956
 30
0.0
 10
8.274386
 20
66.408582
 30
0.0
 10
7.810257
 20
66.408582
 30
0.0
  0
SPLINE
  5
148
100
AcDbEntity
  8
bottom-3
 62
7
100
AcDbSpline
 70
8
 71
3
 72
8
 73
4
 74
0
 40
0
 40
0
 40
0
 40
0
 40
1
 40
1
 40
1
 40
1
 10
7.810257
 20
66.408582
 30
0.0
 10
7.346129
 20
66.408582
 30
0.0
 10
6.901009
 20
66.592956
 30
0.0
 10
6.572821
 20
66.921145
 30
0.0
  0
SPLINE
  5
149
100
AcDbEntity
  8
bottom-3
 62
7
100
AcDbSpline
 70
8
 71
3
 72
8
 73
4
 74
0
 40
0
 40
0
 40
0
 40
0
 40
1
 40
1
 40
1
 40
1
 10
6.572821
 20
66.921145
 30
0.0
 10
6.244632
 20
67.249334
 30
0.0
 10
6.060257
 20
67.694453
 30
0.0
 10
6.060257
 20
68.158582
 30
0.0
  0
SPLINE
  5
14a
100
AcDbEntity
  8
bottom-3
 62
7
100
AcDbSpline
 70
8
 71
3
 72
8
 73
4
 74
0
 40
0
 40
0
 40
0
 40
0
 40
1
 40
1
 40
1
 40
1
 10
6.060257
 20
68.158582
 30
0.0
 10
6.060257
 20
68.622711
 30
0.0
 10
6.244632
 20
69.067830
 30
0.0
 10
6.572821
 20
69.396019
 30
0.0
  0
SPLINE
  5
14b
100
AcDbEntity
  8
bottom-3
 62
7
100
AcDbSpline
 70
8
 71
3
 72
8
 73
4
 74
0
 40
0
 40
0
 40
0
 40
0
 40
1
 40
1
 40
1
 40
1
 10
6.572821
 20
69.396019
 30
0.0
 10
6.901009
 20
69.724208
 30
0.0
 10
7.346129
 20
69.908582
 30
0.0
 10
7.810257
 20
69.908582
 30
0.0
  0
SPLINE
  5
14c
100
AcDbEntity
  8
bottom-3
 62
7
100
AcDbSpline
 70
8
 71
3
 72
8
 73
4
 74
0
 40
0
 40
0
 40
0
 40
0
 40
1
 40
1
 40
1
 40
1
 10
7.810257
 20
69.908582
 30
0.0
 10
8.274386
 20
69.908582
 30
0.0
 10
8.719506
 20
69.724208
 30
0.0
 10
9.047694
 20
69.396019
 30
0.0
  0
SPLINE
  5
14d
100
AcDbEntity
  8
bottom-3
 62
7
100
AcDbSpline
 70
8
 71
3
 72
8
 73
4
 74
0
 40
0
 40
0
 40
0
 40
0
 40
1
 40
1
 40
1
 40
1
 10
9.047694
 20
69.396019
 30
0.0
 10
9.375883
 20
69.067830
 30
0.0
 10
9.560257
 20
68.622711
 30
0.0
 10
9.560257
 20
68.158582
 30
0.0
  0
LWPOLYLINE
  5
14e
100
AcDbEntity
  8
bottom-3
 62
7
100
AcDbPolyline
 90
1
 70
1
 10
268.176730
 20
152.457808
 30
0.0
  0
SPLINE
  5
14f
100
AcDbEntity
  8
bottom-3
 62
7
100
AcDbSpline
 70
8
 71
3
 72
8
 73
4
 74
0
 40
0
 40
0
 40
0
 40
0
 40
1
 40
1
 40
1
 40
1
 10
268.176940
 20
68.158430
 30
0.0
 10
268.176940
 20
67.694301
 30
0.0
 10
267.992566
 20
67.249182
 30
0.0
 10
267.664377
 20
66.920993
 30
0.0
  0
SPLINE
  5
150
100
AcDbEntity
  8
bottom-3
 62
7
100
AcDbSpline
 70
8
 71
3
 72
8
 73
4
 74
0
 40
0
 40
0
 40
0
 40
0
 40
1
 40
1
 40
1
 40
1
 10
267.664377
 20
66.920993
 30
0.0
 10
267.336188
 20
66.592804
 30
0.0
 10
266.891069
 20
66.408430
 30
0.0
 10
266.426940
 20
66.408430
 30
0.0
  0
SPLINE
  5
151
100
AcDbEntity
  8
bottom-3
 62
7
100
AcDbSpline
 70
8
 71
3
 72
8
 73
4
 74
0
 40
0
 40
0
 40
0
 40
0
 40
1
 40
1
 40
1
 40
1
 10
266.426940
 20
66.408430
 30
0.0
 10
265.962811
 20
66.408430
 30
0.0
 10
265.517692
 20
66.592804
 30
0.0
 10
265.189503
 20
66.920993
 30
0.0
  0
SPLINE
  5
152
100
AcDbEntity
  8
bottom-3
 62
7
100
AcDbSpline
 70
8
 71
3
 72
8
 73
4
 74
0
 40
0
 40
0
 40
0
 40
0
 40
1
 40
1
 40
1
 40
1
 10
265.189503
 20
66.920993
 30
0.0
 10
264.861314
 20
67.249182
 30
0.0
 10
264.676940
 20
67.694301
 30
0.0
 10
264.676940
 20
68.158430
 30
0.0
  0
SPLINE
  5
153
100
AcDbEntity
  8
bottom-3
 62
7
100
AcDbSpline
 70
8
 71
3
 72
8
 73
4
 74
0
 40
0
 40
0
 40
0
 40
0
 40
1
 40
1
 40
1
 40
1
 10
264.676940
 20
68.158430
 30
0.0
 10
264.676940
 20
68.622559
 30
0.0
 10
264.861314
 20
69.067678
 30
0.0
 10
265.189503
 20
69.395867
 30
0.0
  0
SPLINE
  5
154
100
AcDbEntity
  8
bottom-3
 62
7
100
AcDbSpline
 70
8
 71
3
 72
8
 73
4
 74
0
 40
0
 40
0
 40
0
 40
0
 40
1
 40
1
 40
1
 40
1
 10
265.189503
 20
69.395867
 30
0.0
 10
265.517692
 20
69.724056
 30
0.0
 10
265.962811
 20
69.908430
 30
0.0
 10
266.426940
 20
69.908430
 30
0.0
  0
SPLINE
  5
155
100
AcDbEntity
  8
bottom-3
 62
7
100
AcDbSpline
 70
8
 71
3
 72
8
 73
4
 74
0
 40
0
 40
0
 40
0
 40
0
 40
1
 40
1
 40
1
 40
1
 10
266.426940
 20
69.908430
 30
0.0
 10
266.891069
 20
69.908430
 30
0.0
 10
267.336188
 20
69.724056
 30
0.0
 10
267.664377
 20
69.395867
 30
0.0
  0
SPLINE
  5
156
100
AcDbEntity
  8
bottom-3
 62
7
100
AcDbSpline
 70
8
 71
3
 72
8
 73
4
 74
0
 40
0
 40
0
 40
0
 40
0
 40
1
 40
1
 40
1
 40
1
 10
267.664377
 20
69.395867
 30
0.0
 10
267.992566
 20
69.067678
 30
0.0
 10
268.176940
 20
68.622559
 30
0.0
 10
268.176940
 20
68.158430
 30
0.0
  0
LWPOLYLINE
  5
157
100
AcDbEntity
  8
bottom-3
 62
7
100
AcDbPolyline
 90
1
 70
1
 10
9.560257
 20
68.158582
 30
0.0
  0
SPLINE
  5
158
100
AcDbEntity
  8
bottom-3
 62
7
100
AcDbSpline
 70
8
 71
3
 72
8
 73
4
 74
0
 40
0
 40
0
 40
0
 40
0
 40
1
 40
1
 40
1
 40
1
 10
156.589390
 20
157.091369
 30
0.0
 10
156.589390
 20
156.627240
 30
0.0
 10
156.405016
 20
156.182121
 30
0.0
 10
156.076827
 20
155.853932
 30
0.0
  0
SPLINE
  5
159
100
AcDbEntity
  8
bottom-3
 62
7
100
AcDbSpline
 70
8
 71
3
 72
8
 73
4
 74
0
 40
0
 40
0
 40
0
 40
0
 40
1
 40
1
 40
1
 40
1
 10
156.076827
 20
155.853932
 30
0.0
 10
155.748638
 20
155.525744
 30
0.0
 10
155.303519
 20
155.341369
 30
0.0
 10
154.839390
 20
155.341369
 30
0.0
  0
SPLINE
  5
15a
100
AcDbEntity
  8
bottom-3
 62
7
100
AcDbSpline
 70
8
 71
3
 72
8
 73
4
 74
0
 40
0
 40
0
 40
0
 40
0
 40
1
 40
1
 40
1
 40
1
 10
154.839390
 20
155.341369
 30
0.0
 10
154.375261
 20
155.341369
 30
0.0
 10
153.930142
 20
155.525744
 30
0.0
 10
153.601953
 20
155.853932
 30
0.0
  0
SPLINE
  5
15b
100
AcDbEntity
  8
bottom-3
 62
7
100
AcDbSpline
 70
8
 71
3
 72
8
 73
4
 74
0
 40
0
 40
0
 40
0
 40
0
 40
1
 40
1
 40
1
 40
1
 10
153.601953
 20
155.853932
 30
0.0
 10
153.273764
 20
156.182121
 30
0.0
 10
153.089390
 20
156.627240
 30
0.0
 10
153.089390
 20
157.091369
 30
0.0
  0
SPLINE
  5
15c
100
AcDbEntity
  8
bottom-3
 62
7
100
AcDbSpline
 70
8
 71
3
 72
8
 73
4
 74
0
 40
0
 40
0
 40
0
 40
0
 40
1
 40
1
 40
1
 40
1
 10
153.089390
 20
157.091369
 30
0.0
 10
153.089390
 20
157.555498
 30
0.0
 10
153.273764
 20
158.000617
 30
0.0
 10
153.601953
 20
158.328806
 30
0.0
  0
SPLINE
  5
15d
100
AcDbEntity
  8
bottom-3
 62
7
100
AcDbSpline
 70
8
 71
3
 72
8
 73
4
 74
0
 40
0
 40
0
 40
0
 40
0
 40
1
 40
1
 40
1
 40
1
 10
153.601953
 20
158.328806
 30
0.0
 10
153.930142
 20
158.656995
 30
0.0
 10
154.375261
 20
158.841369
 30
0.0
 10
154.839390
 20
158.841369
 30
0.0
  0
SPLINE
  5
15e
100
AcDbEntity
  8
bottom-3
 62
7
100
AcDbSpline
 70
8
 71
3
 72
8
 73
4
 74
0
 40
0
 40
0
 40
0
 40
0
 40
1
 40
1
 40
1
 40
1
 10
154.839390
 20
158.841369
 30
0.0
 10
155.303519
 20
158.841369
 30
0.0
 10
155.748638
 20
158.656995
 30
0.0
 10
156.076827
 20
158.328806
 30
0.0
  0
SPLINE
  5
15f
100
AcDbEntity
  8
bottom-3
 62
7
100
AcDbSpline
 70
8
 71
3
 72
8
 73
4
 74
0
 40
0
 40
0
 40
0
 40
0
 40
1
 40
1
 40
1
 40
1
 10
156.076827
 20
158.328806
 30
0.0
 10
156.405016
 20
158.000617
 30
0.0
 10
156.589390
 20
157.555498
 30
0.0
 10
156.589390
 20
157.091369
 30
0.0
  0
LWPOLYLINE
  5
160
100
AcDbEntity
  8
bottom-3
 62
7
100
AcDbPolyline
 90
1
 70
1
 10
268.176940
 20
68.158430
 30
0.0
  0
SPLINE
  5
161
100
AcDbEntity
  8
bottom-3
 62
7
100
AcDbSpline
 70
8
 71
3
 72
8
 73
4
 74
0
 40
0
 40
0
 40
0
 40
0
 40
1
 40
1
 40
1
 40
1
 10
101.352100
 20
46.610830
 30
0.0
 10
101.352100
 20
46.146701
 30
0.0
 10
101.167725
 20
45.701581
 30
0.0
 10
100.839536
 20
45.373392
 30
0.0
  0
SPLINE
  5
162
100
AcDbEntity
  8
bottom-3
 62
7
100
AcDbSpline
 70
8
 71
3
 72
8
 73
4
 74
0
 40
0
 40
0
 40
0
 40
0
 40
1
 40
1
 40
1
 40
1
 10
100.839536
 20
45.373392
 30
0.0
 10
100.511346
 20
45.045203
 30
0.0
 10
100.066226
 20
44.860829
 30
0.0
 10
99.602097
 20
44.860830
 30
0.0
  0
SPLINE
  5
163
100
AcDbEntity
  8
bottom-3
 62
7
100
AcDbSpline
 70
8
 71
3
 72
8
 73
4
 74
0
 40
0
 40
0
 40
0
 40
0
 40
1
 40
1
 40
1
 40
1
 10
99.602097
 20
44.860830
 30
0.0
 10
99.137968
 20
44.860830
 30
0.0
 10
98.692849
 20
45.045204
 30
0.0
 10
98.364660
 20
45.373393
 30
0.0
  0
SPLINE
  5
164
100
AcDbEntity
  8
bottom-3
 62
7
100
AcDbSpline
 70
8
 71
3
 72
8
 73
4
 74
0
 40
0
 40
0
 40
0
 40
0
 40
1
 40
1
 40
1
 40
1
 10
98.364660
 20
45.373393
 30
0.0
 10
98.036471
 20
45.701582
 30
0.0
 10
97.852097
 20
46.146701
 30
0.0
 10
97.852097
 20
46.610830
 30
0.0
  0
SPLINE
  5
165
100
AcDbEntity
  8
bottom-3
 62
7
100
AcDbSpline
 70
8
 71
3
 72
8
 73
4
 74
0
 40
0
 40
0
 40
0
 40
0
 40
1
 40
1
 40
1
 40
1
 10
97.852097
 20
46.610830
 30
0.0
 10
97.852097
 20
47.074959
 30
0.0
 10
98.036471
 20
47.520078
 30
0.0
 10
98.364660
 20
47.848267
 30
0.0
  0
SPLINE
  5
166
100
AcDbEntity
  8
bottom-3
 62
7
100
AcDbSpline
 70
8
 71
3
 72
8
 73
4
 74
0
 40
0
 40
0
 40
0
 40
0
 40
1
 40
1
 40
1
 40
1
 10
98.364660
 20
47.848267
 30
0.0
 10
98.692849
 20
48.176456
 30
0.0
 10
99.137968
 20
48.360830
 30
0.0
 10
99.602097
 20
48.360830
 30
0.0
  0
SPLINE
  5
167
100
AcDbEntity
  8
bottom-3
 62
7
100
AcDbSpline
 70
8
 71
3
 72
8
 73
4
 74
0
 40
0
 40
0
 40
0
 40
0
 40
1
 40
1
 40
1
 40
1
 10
99.602097
 20
48.360830
 30
0.0
 10
100.066226
 20
48.360831
 30
0.0
 10
100.511346
 20
48.176457
 30
0.0
 10
100.839536
 20
47.848268
 30
0.0
  0
SPLINE
  5
168
100
AcDbEntity
  8
bottom-3
 62
7
100
AcDbSpline
 70
8
 71
3
 72
8
 73
4
 74
0
 40
0
 40
0
 40
0
 40
0
 40
1
 40
1
 40
1
 40
1
 10
100.839536
 20
47.848268
 30
0.0
 10
101.167725
 20
47.520079
 30
0.0
 10
101.352100
 20
47.074959
 30
0.0
 10
101.352100
 20
46.610830
 30
0.0
  0
LWPOLYLINE
  5
169
100
AcDbEntity
  8
bottom-3
 62
7
100
AcDbPolyline
 90
1
 70
1
 10
156.589390
 20
157.091369
 30
0.0
  0
SPLINE
  5
16a
100
AcDbEntity
  8
bottom-3
 62
7
100
AcDbSpline
 70
8
 71
3
 72
8
 73
4
 74
0
 40
0
 40
0
 40
0
 40
0
 40
1
 40
1
 40
1
 40
1
 10
176.590090
 20
46.610830
 30
0.0
 10
176.590090
 20
46.146701
 30
0.0
 10
176.405716
 20
45.701582
 30
0.0
 10
176.077527
 20
45.373393
 30
0.0
  0
SPLINE
  5
16b
100
AcDbEntity
  8
bottom-3
 62
7
100
AcDbSpline
 70
8
 71
3
 72
8
 73
4
 74
0
 40
0
 40
0
 40
0
 40
0
 40
1
 40
1
 40
1
 40
1
 10
176.077527
 20
45.373393
 30
0.0
 10
175.749338
 20
45.045204
 30
0.0
 10
175.304219
 20
44.860830
 30
0.0
 10
174.840090
 20
44.860830
 30
0.0
  0
SPLINE
  5
16c
100
AcDbEntity
  8
bottom-3
 62
7
100
AcDbSpline
 70
8
 71
3
 72
8
 73
4
 74
0
 40
0
 40
0
 40
0
 40
0
 40
1
 40
1
 40
1
 40
1
 10
174.840090
 20
44.860830
 30
0.0
 10
174.375961
 20
44.860830
 30
0.0
 10
173.930842
 20
45.045204
 30
0.0
 10
173.602653
 20
45.373393
 30
0.0
  0
SPLINE
  5
16d
100
AcDbEntity
  8
bottom-3
 62
7
100
AcDbSpline
 70
8
 71
3
 72
8
 73
4
 74
0
 40
0
 40
0
 40
0
 40
0
 40
1
 40
1
 40
1
 40
1
 10
173.602653
 20
45.373393
 30
0.0
 10
173.274464
 20
45.701582
 30
0.0
 10
173.090090
 20
46.146701
 30
0.0
 10
173.090090
 20
46.610830
 30
0.0
  0
SPLINE
  5
16e
100
AcDbEntity
  8
bottom-3
 62
7
100
AcDbSpline
 70
8
 71
3
 72
8
 73
4
 74
0
 40
0
 40
0
 40
0
 40
0
 40
1
 40
1
 40
1
 40
1
 10
173.090090
 20
46.610830
 30
0.0
 10
173.090090
 20
47.074959
 30
0.0
 10
173.274464
 20
47.520078
 30
0.0
 10
173.602653
 20
47.848267
 30
0.0
  0
SPLINE
  5
16f
100
AcDbEntity
  8
bottom-3
 62
7
100
AcDbSpline
 70
8
 71
3
 72
8
 73
4
 74
0
 40
0
 40
0
 40
0
 40
0
 40
1
 40
1
 40
1
 40
1
 10
173.602653
 20
47.848267
 30
0.0
 10
173.930842
 20
48.176456
 30
0.0
 10
174.375961
 20
48.360830
 30
0.0
 10
174.840090
 20
48.360830
 30
0.0
  0
SPLINE
  5
170
100
AcDbEntity
  8
bottom-3
 62
7
100
AcDbSpline
 70
8
 71
3
 72
8
 73
4
 74
0
 40
0
 40
0
 40
0
 40
0
 40
1
 40
1
 40
1
 40
1
 10
174.840090
 20
48.360830
 30
0.0
 10
175.304219
 20
48.360830
 30
0.0
 10
175.749338
 20
48.176456
 30
0.0
 10
176.077527
 20
47.848267
 30
0.0
  0
SPLINE
  5
171
100
AcDbEntity
  8
bottom-3
 62
7
100
AcDbSpline
 70
8
 71
3
 72
8
 73
4
 74
0
 40
0
 40
0
 40
0
 40
0
 40
1
 40
1
 40
1
 40
1
 10
176.077527
 20
47.848267
 30
0.0
 10
176.405716
 20
47.520078
 30
0.0
 10
176.590090
 20
47.074959
 30
0.0
 10
176.590090
 20
46.610830
 30
0.0
  0
LWPOLYLINE
  5
172
100
AcDbEntity
  8
bottom-3
 62
7
100
AcDbPolyline
 90
1
 70
1
 10
101.352100
 20
46.610830
 30
0.0
  0
LWPOLYLINE
  5
173
100
AcDbEntity
  8
bottom-3
 62
7
100
AcDbPolyline
 90
1
 70
1
 10
176.590090
 20
46.610830
 30
0.0
  0
ENDSEC
  0
SECTION
  2
OBJECTS
  0
DICTIONARY
  5
C
330
0
100
AcDbDictionary
  3
ACAD_GROUP
350
D
  3
ACAD_MLINESTYLE
350
17
  0
DICTIONARY
  5
D
330
C
100
AcDbDictionary
  0
DICTIONARY
  5
1A
330
C
100
AcDbDictionary
  0
DICTIONARY
  5
17
330
C
100
AcDbDictionary
  3
STANDARD
350
18
  0
DICTIONARY
  5
19
330
C
100
AcDbDictionary
  0
ENDSEC
  0
EOF
