<?xml version="1.0" encoding="UTF-8" standalone="no"?>
<!-- Generated by SVGo -->

<svg
   width="302.077mm"
   height="160.260mm"
   viewBox="0.000 0.000 302.077 160.260"
   version="1.1"
   id="svg28"
   sodipodi:docname="open-2.svg"
   inkscape:version="1.2 (dc2aedaf03, 2022-05-15)"
   xmlns:inkscape="http://www.inkscape.org/namespaces/inkscape"
   xmlns:sodipodi="http://sodipodi.sourceforge.net/DTD/sodipodi-0.dtd"
   xmlns="http://www.w3.org/2000/svg"
   xmlns:svg="http://www.w3.org/2000/svg"
   xmlns:rdf="http://www.w3.org/1999/02/22-rdf-syntax-ns#"
   xmlns:cc="http://creativecommons.org/ns#"
   xmlns:dc="http://purl.org/dc/elements/1.1/">
  <title
     id="title946">Eliza</title>
  <defs
     id="defs32">
    <inkscape:path-effect
       effect="offset"
       id="path-effect2555"
       is_visible="true"
       lpeversion="1"
       linejoin_type="miter"
       unit="mm"
       offset="-11"
       miter_limit="4"
       attempt_force_join="false"
       update_on_knot_move="true" />
    <inkscape:path-effect
       effect="offset"
       id="path-effect2513"
       is_visible="true"
       lpeversion="1"
       linejoin_type="miter"
       unit="mm"
       offset="0"
       miter_limit="4"
       attempt_force_join="false"
       update_on_knot_move="true" />
    <inkscape:path-effect
       effect="offset"
       id="path-effect2409"
       is_visible="true"
       lpeversion="1"
       linejoin_type="miter"
       unit="mm"
       offset="-11"
       miter_limit="4"
       attempt_force_join="false"
       update_on_knot_move="true" />
    <inkscape:path-effect
       effect="offset"
       id="path-effect2269"
       is_visible="true"
       lpeversion="1"
       linejoin_type="miter"
       unit="mm"
       offset="-11"
       miter_limit="4"
       attempt_force_join="false"
       update_on_knot_move="true" />
    <inkscape:path-effect
       effect="offset"
       id="path-effect2038"
       is_visible="true"
       lpeversion="1"
       linejoin_type="miter"
       unit="mm"
       offset="-1"
       miter_limit="4"
       attempt_force_join="false"
       update_on_knot_move="true" />
    <inkscape:path-effect
       effect="offset"
       id="path-effect1994"
       is_visible="true"
       lpeversion="1"
       linejoin_type="miter"
       unit="mm"
       offset="2"
       miter_limit="4"
       attempt_force_join="false"
       update_on_knot_move="true" />
    <inkscape:path-effect
       effect="offset"
       id="path-effect1795"
       is_visible="true"
       lpeversion="1"
       linejoin_type="miter"
       unit="mm"
       offset="-1"
       miter_limit="4"
       attempt_force_join="false"
       update_on_knot_move="true" />
    <inkscape:path-effect
       effect="offset"
       id="path-effect1793"
       is_visible="true"
       lpeversion="1"
       linejoin_type="miter"
       unit="mm"
       offset="1"
       miter_limit="4"
       attempt_force_join="false"
       update_on_knot_move="true" />
    <inkscape:path-effect
       effect="offset"
       id="path-effect1789"
       is_visible="true"
       lpeversion="1"
       linejoin_type="miter"
       unit="mm"
       offset="1"
       miter_limit="4"
       attempt_force_join="false"
       update_on_knot_move="true" />
    <inkscape:path-effect
       effect="offset"
       id="path-effect1739"
       is_visible="true"
       lpeversion="1"
       linejoin_type="miter"
       unit="mm"
       offset="-1"
       miter_limit="4"
       attempt_force_join="false"
       update_on_knot_move="true" />
    <inkscape:path-effect
       effect="offset"
       id="path-effect1737"
       is_visible="true"
       lpeversion="1"
       linejoin_type="miter"
       unit="mm"
       offset="1"
       miter_limit="4"
       attempt_force_join="false"
       update_on_knot_move="true" />
    <inkscape:path-effect
       effect="offset"
       id="path-effect1733"
       is_visible="true"
       lpeversion="1"
       linejoin_type="miter"
       unit="mm"
       offset="1"
       miter_limit="4"
       attempt_force_join="false"
       update_on_knot_move="true" />
    <inkscape:path-effect
       effect="offset"
       id="path-effect1683"
       is_visible="true"
       lpeversion="1"
       linejoin_type="miter"
       unit="mm"
       offset="3"
       miter_limit="4"
       attempt_force_join="false"
       update_on_knot_move="true" />
    <inkscape:path-effect
       effect="offset"
       id="path-effect968"
       is_visible="true"
       lpeversion="1"
       linejoin_type="miter"
       unit="mm"
       offset="-3"
       miter_limit="4"
       attempt_force_join="false"
       update_on_knot_move="true" />
    <inkscape:path-effect
       effect="offset"
       id="path-effect948"
       is_visible="true"
       lpeversion="1"
       linejoin_type="miter"
       unit="mm"
       offset="-3"
       miter_limit="4"
       attempt_force_join="false"
       update_on_knot_move="true" />
    <inkscape:path-effect
       effect="offset"
       id="path-effect1032"
       is_visible="true"
       lpeversion="1"
       linejoin_type="miter"
       unit="mm"
       offset="-2"
       miter_limit="4"
       attempt_force_join="false"
       update_on_knot_move="true" />
    <inkscape:path-effect
       effect="offset"
       id="path-effect988"
       is_visible="true"
       lpeversion="1"
       linejoin_type="miter"
       unit="mm"
       offset="-1"
       miter_limit="4"
       attempt_force_join="false"
       update_on_knot_move="true" />
    <inkscape:path-effect
       effect="offset"
       id="path-effect8589"
       is_visible="true"
       lpeversion="1"
       linejoin_type="miter"
       unit="mm"
       offset="-11"
       miter_limit="4"
       attempt_force_join="false"
       update_on_knot_move="true" />
    <inkscape:path-effect
       effect="offset"
       id="path-effect7616"
       is_visible="true"
       lpeversion="1"
       linejoin_type="miter"
       unit="mm"
       offset="-11"
       miter_limit="4"
       attempt_force_join="false"
       update_on_knot_move="true" />
    <inkscape:path-effect
       effect="offset"
       id="path-effect6560"
       is_visible="true"
       lpeversion="1"
       linejoin_type="miter"
       unit="mm"
       offset="-11"
       miter_limit="4"
       attempt_force_join="false"
       update_on_knot_move="true" />
    <inkscape:path-effect
       effect="offset"
       id="path-effect6518"
       is_visible="true"
       lpeversion="1"
       linejoin_type="miter"
       unit="mm"
       offset="0"
       miter_limit="4"
       attempt_force_join="false"
       update_on_knot_move="true" />
    <inkscape:path-effect
       effect="offset"
       id="path-effect2519"
       is_visible="true"
       lpeversion="1"
       linejoin_type="miter"
       unit="mm"
       offset="1"
       miter_limit="4"
       attempt_force_join="false"
       update_on_knot_move="true" />
    <inkscape:path-effect
       effect="offset"
       id="path-effect2517"
       is_visible="true"
       lpeversion="1"
       linejoin_type="miter"
       unit="mm"
       offset="1"
       miter_limit="4"
       attempt_force_join="false"
       update_on_knot_move="true" />
    <inkscape:path-effect
       effect="offset"
       id="path-effect2672"
       is_visible="true"
       lpeversion="1"
       linejoin_type="miter"
       unit="mm"
       offset="-11"
       miter_limit="4"
       attempt_force_join="false"
       update_on_knot_move="true" />
    <inkscape:path-effect
       effect="offset"
       id="path-effect2630"
       is_visible="true"
       lpeversion="1"
       linejoin_type="miter"
       unit="mm"
       offset="-11"
       miter_limit="4"
       attempt_force_join="false"
       update_on_knot_move="true" />
    <inkscape:path-effect
       effect="offset"
       id="path-effect1591"
       is_visible="true"
       lpeversion="1"
       linejoin_type="miter"
       unit="mm"
       offset="-11"
       miter_limit="4"
       attempt_force_join="false"
       update_on_knot_move="true" />
    <inkscape:path-effect
       effect="offset"
       id="path-effect1468"
       is_visible="true"
       lpeversion="1"
       linejoin_type="miter"
       unit="mm"
       offset="0"
       miter_limit="4"
       attempt_force_join="false"
       update_on_knot_move="true" />
    <inkscape:path-effect
       effect="offset"
       id="path-effect1326"
       is_visible="true"
       lpeversion="1"
       linejoin_type="miter"
       unit="mm"
       offset="0.5"
       miter_limit="4"
       attempt_force_join="false"
       update_on_knot_move="true" />
    <inkscape:path-effect
       effect="offset"
       id="path-effect1324"
       is_visible="true"
       lpeversion="1"
       linejoin_type="miter"
       unit="mm"
       offset="0.5"
       miter_limit="4"
       attempt_force_join="false"
       update_on_knot_move="true" />
    <inkscape:path-effect
       effect="offset"
       id="path-effect2952"
       is_visible="true"
       lpeversion="1"
       linejoin_type="miter"
       unit="mm"
       offset="-0.5"
       miter_limit="4"
       attempt_force_join="false"
       update_on_knot_move="true" />
    <inkscape:path-effect
       effect="offset"
       id="path-effect2952-3"
       is_visible="true"
       lpeversion="1"
       linejoin_type="miter"
       unit="mm"
       offset="-0.5"
       miter_limit="4"
       attempt_force_join="false"
       update_on_knot_move="true" />
    <inkscape:path-effect
       effect="offset"
       id="path-effect2952-6"
       is_visible="true"
       lpeversion="1"
       linejoin_type="miter"
       unit="mm"
       offset="-0.5"
       miter_limit="4"
       attempt_force_join="false"
       update_on_knot_move="true" />
    <inkscape:path-effect
       effect="offset"
       id="path-effect2952-7"
       is_visible="true"
       lpeversion="1"
       linejoin_type="miter"
       unit="mm"
       offset="-0.5"
       miter_limit="4"
       attempt_force_join="false"
       update_on_knot_move="true" />
  </defs>
  <sodipodi:namedview
     id="namedview30"
     pagecolor="#505050"
     bordercolor="#eeeeee"
     borderopacity="1"
     inkscape:pageshadow="0"
     inkscape:pageopacity="0"
     inkscape:pagecheckerboard="0"
     inkscape:document-units="mm"
     showgrid="false"
     showguides="true"
     inkscape:zoom="0.9"
     inkscape:cx="528.88889"
     inkscape:cy="316.66667"
     inkscape:window-width="2560"
     inkscape:window-height="1440"
     inkscape:window-x="0"
     inkscape:window-y="0"
     inkscape:window-maximized="1"
     inkscape:current-layer="g2036"
     inkscape:showpageshadow="0"
     inkscape:deskcolor="#505050" />
  <g
     inkscape:groupmode="layer"
     id="g2036"
     inkscape:label="open-2"
     style="display:inline"
     sodipodi:insensitive="true">
    <path
       id="path2014"
       style="display:inline;fill:none;fill-opacity:0.0014062;stroke:#000000;stroke-width:0.189"
       d="m 1.4142062,95.395591 c -0.00904,-0.0034 -0.00671,0.01815 0,0 v 0" />
    <path
       id="path3782"
       style="display:inline;fill:none;fill-opacity:0.0014062;stroke:#000000;stroke-width:0.189"
       d="m 277.3301,90.260867 -0.0209,0.08065 0.0227,-0.08065 h -0.003 v 0" />
    <path
       id="path3780"
       style="display:inline;fill:none;fill-opacity:0.0014062;stroke:#000000;stroke-width:0.189"
       d="m 277.33611,90.241336 c 0,0.006 0.006,-0.0011 0,0 v 0" />
    <path
       id="path3778"
       style="display:inline;fill:none;fill-opacity:0.0014062;stroke:#000000;stroke-width:0.189"
       d="m 277.3341,90.239336 c -0.008,0.0031 0.008,0.0031 0,0 v 0" />
    <path
       id="path3776"
       style="display:inline;fill:none;fill-opacity:0.0014062;stroke:#000000;stroke-width:0.189"
       d="m 277.35169,90.192467 c -0.0101,0.0091 -0.0109,0.04793 0,0 v 0" />
    <path
       id="rect6305-4-4-5-1"
       style="display:inline;fill:none;fill-opacity:0.0014062;stroke:#000000;stroke-width:0.189"
       d="m 148.11628,0.09682801 c 36.53215,1.8e-4 73.06429,2.5e-4 109.59641,-0.00104 2.16019,-0.023962 4.33138,0.2854497 6.36928,1.01439199 3.95044,1.3817684 7.39709,4.1812469 9.5064,7.800996 1.54152,2.602973 2.42055,5.597728 2.50045,8.623464 0.016,22.101308 0.003,44.20284 0.007,66.304237 0.0443,1.842873 -0.0689,3.706476 -0.57684,5.487112 -0.32502,1.119452 -0.71554,2.241031 -1.34813,3.227419 -0.90202,1.643261 -2.041,3.163797 -3.44252,4.415052 -3.22559,2.92501 -7.32409,4.72619 -11.52252,5.74241 -9.27053,2.00867 -18.54386,4.01037 -27.81767,6.00614 -4.81696,1.05538 -9.64989,2.03511 -14.48317,3.01228 -16.07248,3.31735 -32.13631,6.67911 -48.24276,9.829 -7.56599,1.46669 -15.13045,2.95041 -22.73427,4.21068 -2.2911,0.36728 -4.58165,0.75692 -6.89265,0.97832 -1.13544,0.13928 -2.277,-0.007 -3.4056,-0.13927 -4.61403,-0.61438 -9.19644,-1.44305 -13.77468,-2.27873 -15.35652,-2.84727 -30.658023,-5.98171 -45.953146,-9.13948 -7.740375,-1.61005 -15.48067,-3.22061 -23.229432,-4.78996 -9.303803,-1.94987 -18.587799,-3.99312 -27.878929,-6.00233 -2.586132,-0.56942 -5.179622,-1.10595 -7.763509,-1.68374 -1.040844,-0.23117 -2.047967,-0.57947 -3.055376,-0.92291 C 11.853714,101.15638 9.920416,100.04902 8.026674,98.92729 6.963664,98.23376 5.9389376,97.45619 5.059184,96.53456 4.5477479,95.940874 4.0015077,95.378652 3.4765479,94.79682 1.3695915,92.203065 0.19770466,88.886325 0.10309766,85.552763 c -0.01622,-20.317391 -0.00295,-40.635007 -0.00708,-60.952482 0.01296,-2.357491 -0.019221,-4.715438 0.01441,-7.072685 C 0.21746636,12.812506 2.3101974,8.191261 5.751738,4.9712268 5.9657389,4.7627402 6.441048,4.3562238 6.515769,4.2940303 9.722377,1.5861617 13.909988,0.07594471 18.105613,0.09676471 h 2.81e-4 45.314796 c 21.565262,-2.168e-4 43.13053,-1.447e-4 64.6958,-3.62e-5 l 6e-5,9.00065549 h -110.020712 -2.7e-5 v 0 c -2.515314,-0.01741 -5.011568,1.082993 -6.687709,2.959893 -1.539683,1.687897 -2.374163,3.981172 -2.31229,6.262397 10e-4,22.276079 -0.0021,44.552186 0.0016,66.828245 0.01875,1.750581 0.78384,3.44203 1.977081,4.706628 1.662007,1.778606 3.922642,2.862553 6.209142,3.600532 1.894406,0.61356 3.866026,0.917342 5.811,1.320879 38.303773,7.607142 76.607565,15.214282 114.911355,22.821422 39.40227,-7.81387 78.80512,-15.62487 118.20704,-23.440523 2.63296,-0.554763 5.26379,-1.424951 7.46028,-3.020822 1.5489,-1.123262 2.83771,-2.721817 3.25519,-4.62062 0.24538,-1.029724 0.14688,-2.092579 0.16735,-3.140358 V 17.980571 c -0.0138,-2.575955 -1.20483,-5.114395 -3.18277,-6.765756 -1.67393,-1.428671 -3.88709,-2.182305 -6.08326,-2.117431 H 148.11637 Z"
       sodipodi:nodetypes="ccccccccccccccccccccccccccccccsccccccscccccccccccccccc" />
    <path
       id="circle2016"
       style="display:inline;fill-opacity:0.0014062;stroke:#000000;stroke-width:0.189"
       d="m 122.35021,4.1681056 a 1.75,1.75 0 0 1 -1.75,1.75 1.75,1.75 0 0 1 -1.75,-1.75 1.75,1.75 0 0 1 1.75,-1.75 1.75,1.75 0 0 1 1.75,1.75 z" />
    <path
       id="circle2018"
       style="display:inline;fill-opacity:0.0014062;stroke:#000000;stroke-width:0.189"
       d="m 5.6257639,46.089153 a 1.75,1.75 0 0 1 -1.75,1.75 1.75,1.75 0 0 1 -1.75,-1.75 1.75,1.75 0 0 1 1.75,-1.75 1.75,1.75 0 0 1 1.75,1.75 z" />
    <path
       id="circle2020"
       style="display:inline;fill-opacity:0.0014062;stroke:#000000;stroke-width:0.189"
       d="m 274.06744,46.089153 a 1.75,1.75 0 0 1 -1.75,1.75 1.75,1.75 0 0 1 -1.75,-1.75 1.75,1.75 0 0 1 1.75,-1.75 1.75,1.75 0 0 1 1.75,1.75 z" />
    <path
       id="circle2022"
       style="display:inline;fill-opacity:0.0014062;stroke:#000000;stroke-width:0.189"
       d="m 10.558539,8.8014383 a 1.75,1.75 0 0 1 -1.7499996,1.7499997 1.75,1.75 0 0 1 -1.75,-1.7499997 1.75,1.75 0 0 1 1.75,-1.75 1.75,1.75 0 0 1 1.7499996,1.75 z" />
    <path
       id="circle2024"
       style="display:inline;fill-opacity:0.0014062;stroke:#000000;stroke-width:0.189"
       d="m 269.17523,8.8016672 a 1.75,1.75 0 0 1 -1.75,1.7499998 1.75,1.75 0 0 1 -1.75,-1.7499998 1.75,1.75 0 0 1 1.75,-1.75 1.75,1.75 0 0 1 1.75,1.75 z" />
    <path
       id="circle2026"
       style="display:inline;fill-opacity:0.0014062;stroke:#000000;stroke-width:0.189"
       d="m 10.558761,93.100891 a 1.75,1.75 0 0 1 -1.7500004,1.75 1.75,1.75 0 0 1 -1.75,-1.75 1.75,1.75 0 0 1 1.75,-1.75 1.75,1.75 0 0 1 1.7500004,1.75 z" />
    <path
       id="circle2028"
       style="display:inline;fill-opacity:0.0014062;stroke:#000000;stroke-width:0.189"
       d="m 269.17545,93.101044 a 1.75,1.75 0 0 1 -1.75,1.75 1.75,1.75 0 0 1 -1.75,-1.75 1.75,1.75 0 0 1 1.75,-1.75 1.75,1.75 0 0 1 1.75,1.75 z" />
    <path
       id="circle2030"
       style="display:inline;fill-opacity:0.0014062;stroke:#000000;stroke-width:0.189"
       d="m 157.58789,4.1681056 a 1.75,1.75 0 0 1 -1.75,1.75 1.75,1.75 0 0 1 -1.75,-1.75 1.75,1.75 0 0 1 1.75,-1.75 1.75,1.75 0 0 1 1.75,1.75 z" />
    <path
       id="circle2032"
       style="display:inline;fill-opacity:0.0014062;stroke:#000000;stroke-width:0.189"
       d="m 102.3506,114.64865 a 1.75,1.75 0 0 1 -1.75,1.75 1.75,1.75 0 0 1 -1.749999,-1.75 1.75,1.75 0 0 1 1.749999,-1.75 1.75,1.75 0 0 1 1.75,1.75 z" />
    <path
       id="circle2034"
       style="display:inline;fill-opacity:0.0014062;stroke:#000000;stroke-width:0.189"
       d="m 177.58859,114.64865 a 1.75,1.75 0 0 1 -1.75,1.75 1.75,1.75 0 0 1 -1.75,-1.75 1.75,1.75 0 0 1 1.75,-1.75 1.75,1.75 0 0 1 1.75,1.75 z" />
    <path
       style="fill:none;stroke:#000000;stroke-width:0.264583px;stroke-linecap:butt;stroke-linejoin:miter;stroke-opacity:1"
       d="m 128.11655,9.097384 c 19.99982,0 19.99982,0 19.99982,0"
       id="path1927" />
  </g>
  <metadata
     id="metadata944">
    <rdf:RDF>
      <cc:Work
         rdf:about="">
        <dc:title>Eliza</dc:title>
        <dc:creator>
          <cc:Agent>
            <dc:title>Cody Bloemhard</dc:title>
          </cc:Agent>
        </dc:creator>
        <dc:rights>
          <cc:Agent>
            <dc:title>GPL v3</dc:title>
          </cc:Agent>
        </dc:rights>
      </cc:Work>
    </rdf:RDF>
  </metadata>
</svg>
