  0
SECTION
  2
HEADER
  9
$ACADVER
  1
AC1014
  9
$HANDSEED
  5
FFFF
  9
$MEASUREMENT
 70
     1
  0
ENDSEC
  0
SECTION
  2
TABLES
  0
TABLE
  2
VPORT
  5
8
330
0
100
AcDbSymbolTable
 70
     4
  0
VPORT
  5
2E
330
8
100
AcDbSymbolTableRecord
100
AcDbViewportTableRecord
  2
*ACTIVE
 70
     0
 10
0.0
 20
0.0
 11
1.0
 21
1.0
 12
210.0
 22
148.5
 13
0.0
 23
0.0
 14
10.0
 24
10.0
 15
10.0
 25
10.0
 16
0.0
 26
0.0
 36
1.0
 17
0.0
 27
0.0
 37
0.0
 40
341.0
 41
1.24
 42
50.0
 43
0.0
 44
0.0
 50
0.0
 51
0.0
 71
     0
 72
   100
 73
     1
 74
     3
 75
     0
 76
     0
 77
     0
 78
     0
  0
ENDTAB
  0
TABLE
  2
LTYPE
  5
5
330
0
100
AcDbSymbolTable
 70
     1
  0
LTYPE
  5
14
330
5
100
AcDbSymbolTableRecord
100
AcDbLinetypeTableRecord
  2
BYBLOCK
 70
     0
  3

 72
    65
 73
     0
 40
0.0
  0
LTYPE
  5
15
330
5
100
AcDbSymbolTableRecord
100
AcDbLinetypeTableRecord
  2
BYLAYER
 70
     0
  3

 72
    65
 73
     0
 40
0.0
  0
LTYPE
  5
16
330
5
100
AcDbSymbolTableRecord
100
AcDbLinetypeTableRecord
  2
CONTINUOUS
 70
     0
  3
Solid line
 72
    65
 73
     0
 40
0.0
  0
ENDTAB
  0
TABLE
  2
LAYER
  5
2
100
AcDbSymbolTable
 70
2
  0
LAYER
  5
50
100
AcDbSymbolTableRecord
100
AcDbLayerTableRecord
  2
0
 70
0
  6
CONTINUOUS
  0
LAYER
  5
51
100
AcDbSymbolTableRecord
100
AcDbLayerTableRecord
  2
open-0
 70
0
  6
CONTINUOUS
  0
ENDTAB
  0
TABLE
  2
STYLE
  5
3
330
0
100
AcDbSymbolTable
 70
     1
  0
STYLE
  5
11
330
3
100
AcDbSymbolTableRecord
100
AcDbTextStyleTableRecord
  2
STANDARD
 70
     0
 40
0.0
 41
1.0
 50
0.0
 71
     0
 42
2.5
  3
txt
  4

  0
ENDTAB
  0
TABLE
  2
VIEW
  5
6
330
0
100
AcDbSymbolTable
 70
     0
  0
ENDTAB
  0
TABLE
  2
UCS
  5
7
330
0
100
AcDbSymbolTable
 70
     0
  0
ENDTAB
  0
TABLE
  2
APPID
  5
9
330
0
100
AcDbSymbolTable
 70
     2
  0
APPID
  5
12
330
9
100
AcDbSymbolTableRecord
100
AcDbRegAppTableRecord
  2
ACAD
 70
     0
  0
ENDTAB
  0
TABLE
  2
DIMSTYLE
  5
A
330
0
100
AcDbSymbolTable
 70
     1
  0
DIMSTYLE
105
27
330
A
100
AcDbSymbolTableRecord
100
AcDbDimStyleTableRecord
  2
ISO-25
 70
     0
  3

  4

  5

  6

  7

 40
1.0
 41
2.5
 42
0.625
 43
3.75
 44
1.25
 45
0.0
 46
0.0
 47
0.0
 48
0.0
140
2.5
141
2.5
142
0.0
143
0.03937007874016
144
1.0
145
0.0
146
1.0
147
0.625
 71
     0
 72
     0
 73
     0
 74
     0
 75
     0
 76
     0
 77
     1
 78
     8
170
     0
171
     3
172
     1
173
     0
174
     0
175
     0
176
     0
177
     0
178
     0
270
     2
271
     2
272
     2
273
     2
274
     3
340
11
275
     0
280
     0
281
     0
282
     0
283
     0
284
     8
285
     0
286
     0
287
     3
288
     0
  0
ENDTAB
  0
TABLE
  2
BLOCK_RECORD
  5
1
330
0
100
AcDbSymbolTable
 70
     1
  0
BLOCK_RECORD
  5
1F
330
1
100
AcDbSymbolTableRecord
100
AcDbBlockTableRecord
  2
*MODEL_SPACE
  0
BLOCK_RECORD
  5
1B
330
1
100
AcDbSymbolTableRecord
100
AcDbBlockTableRecord
  2
*PAPER_SPACE
  0
ENDTAB
  0
ENDSEC
  0
SECTION
  2
BLOCKS
  0
BLOCK
  5
20
330
1F
100
AcDbEntity
  8
0
100
AcDbBlockBegin
  2
*MODEL_SPACE
 70
     0
 10
0.0
 20
0.0
 30
0.0
  3
*MODEL_SPACE
  1

  0
ENDBLK
  5
21
330
1F
100
AcDbEntity
  8
0
100
AcDbBlockEnd
  0
BLOCK
  5
1C
330
1B
100
AcDbEntity
 67
     1
  8
0
100
AcDbBlockBegin
  2
*PAPER_SPACE
  1

  0
ENDBLK
  5
1D
330
1B
100
AcDbEntity
 67
     1
  8
0
100
AcDbBlockEnd
  0
ENDSEC
  0
SECTION
  2
ENTITIES
  0
SPLINE
  5
100
100
AcDbEntity
  8
open-0
 62
7
100
AcDbSpline
 70
8
 71
3
 72
8
 73
4
 74
0
 40
0
 40
0
 40
0
 40
0
 40
1
 40
1
 40
1
 40
1
 10
149.117530
 20
104.160365
 30
0.0
 10
148.009090
 20
104.167365
 30
0.0
 10
146.908840
 20
103.689055
 30
0.0
 10
146.161560
 20
102.869865
 30
0.0
  0
SPLINE
  5
101
100
AcDbEntity
  8
open-0
 62
7
100
AcDbSpline
 70
8
 71
3
 72
8
 73
4
 74
0
 40
0
 40
0
 40
0
 40
0
 40
1
 40
1
 40
1
 40
1
 10
146.161560
 20
102.869865
 30
0.0
 10
145.457980
 20
102.114655
 30
0.0
 10
145.074130
 20
101.079355
 30
0.0
 10
145.099950
 20
100.048745
 30
0.0
  0
SPLINE
  5
102
100
AcDbEntity
  8
open-0
 62
7
100
AcDbSpline
 70
8
 71
3
 72
8
 73
4
 74
0
 40
0
 40
0
 40
0
 40
0
 40
1
 40
1
 40
1
 40
1
 10
145.099950
 20
100.048745
 30
0.0
 10
145.100950
 20
99.114895
 30
0.0
 10
145.096950
 20
98.180995
 30
0.0
 10
145.101950
 20
97.247185
 30
0.0
  0
SPLINE
  5
103
100
AcDbEntity
  8
open-0
 62
7
100
AcDbSpline
 70
8
 71
3
 72
8
 73
4
 74
0
 40
0
 40
0
 40
0
 40
0
 40
1
 40
1
 40
1
 40
1
 10
145.101950
 20
97.247185
 30
0.0
 10
145.129950
 20
96.107575
 30
0.0
 10
145.674950
 20
94.994695
 30
0.0
 10
146.558530
 20
94.274355
 30
0.0
  0
SPLINE
  5
104
100
AcDbEntity
  8
open-0
 62
7
100
AcDbSpline
 70
8
 71
3
 72
8
 73
4
 74
0
 40
0
 40
0
 40
0
 40
0
 40
1
 40
1
 40
1
 40
1
 10
146.558530
 20
94.274355
 30
0.0
 10
147.299270
 20
93.657585
 30
0.0
 10
148.268220
 20
93.332475
 30
0.0
 10
149.230340
 20
93.359585
 30
0.0
  0
SPLINE
  5
105
100
AcDbEntity
  8
open-0
 62
7
100
AcDbSpline
 70
8
 71
3
 72
8
 73
4
 74
0
 40
0
 40
0
 40
0
 40
0
 40
1
 40
1
 40
1
 40
1
 10
149.230340
 20
93.359585
 30
0.0
 10
185.861140
 20
93.359805
 30
0.0
 10
222.491930
 20
93.359145
 30
0.0
 10
259.122730
 20
93.359915
 30
0.0
  0
SPLINE
  5
106
100
AcDbEntity
  8
open-0
 62
7
100
AcDbSpline
 70
8
 71
3
 72
8
 73
4
 74
0
 40
0
 40
0
 40
0
 40
0
 40
1
 40
1
 40
1
 40
1
 10
259.122730
 20
93.359915
 30
0.0
 10
260.256400
 20
93.365915
 30
0.0
 10
261.373930
 20
93.883185
 30
0.0
 10
262.111260
 20
94.744615
 30
0.0
  0
SPLINE
  5
107
100
AcDbEntity
  8
open-0
 62
7
100
AcDbSpline
 70
8
 71
3
 72
8
 73
4
 74
0
 40
0
 40
0
 40
0
 40
0
 40
1
 40
1
 40
1
 40
1
 10
262.111260
 20
94.744615
 30
0.0
 10
262.767090
 20
95.494495
 30
0.0
 10
263.116760
 20
96.495625
 30
0.0
 10
263.088190
 20
97.490015
 30
0.0
  0
SPLINE
  5
108
100
AcDbEntity
  8
open-0
 62
7
100
AcDbSpline
 70
8
 71
3
 72
8
 73
4
 74
0
 40
0
 40
0
 40
0
 40
0
 40
1
 40
1
 40
1
 40
1
 10
263.088190
 20
97.490015
 30
0.0
 10
263.087190
 20
98.417595
 30
0.0
 10
263.091190
 20
99.345225
 30
0.0
 10
263.086190
 20
100.272765
 30
0.0
  0
SPLINE
  5
109
100
AcDbEntity
  8
open-0
 62
7
100
AcDbSpline
 70
8
 71
3
 72
8
 73
4
 74
0
 40
0
 40
0
 40
0
 40
0
 40
1
 40
1
 40
1
 40
1
 10
263.086190
 20
100.272765
 30
0.0
 10
263.058190
 20
101.412375
 30
0.0
 10
262.513190
 20
102.525255
 30
0.0
 10
261.629610
 20
103.245595
 30
0.0
  0
SPLINE
  5
10a
100
AcDbEntity
  8
open-0
 62
7
100
AcDbSpline
 70
8
 71
3
 72
8
 73
4
 74
0
 40
0
 40
0
 40
0
 40
0
 40
1
 40
1
 40
1
 40
1
 10
261.629610
 20
103.245595
 30
0.0
 10
260.888870
 20
103.862365
 30
0.0
 10
259.919920
 20
104.187475
 30
0.0
 10
258.957800
 20
104.160365
 30
0.0
  0
SPLINE
  5
10b
100
AcDbEntity
  8
open-0
 62
7
100
AcDbSpline
 70
8
 71
3
 72
8
 73
4
 74
0
 40
0
 40
0
 40
0
 40
0
 40
1
 40
1
 40
1
 40
1
 10
258.957800
 20
104.160365
 30
0.0
 10
222.344370
 20
104.160365
 30
0.0
 10
185.730950
 20
104.160365
 30
0.0
 10
149.117530
 20
104.160365
 30
0.0
  0
SPLINE
  5
10c
100
AcDbEntity
  8
open-0
 62
7
100
AcDbSpline
 70
8
 71
3
 72
8
 73
4
 74
0
 40
0
 40
0
 40
0
 40
0
 40
1
 40
1
 40
1
 40
1
 10
24.119481
 20
104.160365
 30
0.0
 10
23.003621
 20
104.167365
 30
0.0
 10
21.896344
 20
103.682585
 30
0.0
 10
21.148169
 20
102.854255
 30
0.0
  0
SPLINE
  5
10d
100
AcDbEntity
  8
open-0
 62
7
100
AcDbSpline
 70
8
 71
3
 72
8
 73
4
 74
0
 40
0
 40
0
 40
0
 40
0
 40
1
 40
1
 40
1
 40
1
 10
21.148169
 20
102.854255
 30
0.0
 10
20.453077
 20
102.100715
 30
0.0
 10
20.074239
 20
101.072445
 30
0.0
 10
20.099951
 20
100.048745
 30
0.0
  0
SPLINE
  5
10e
100
AcDbEntity
  8
open-0
 62
7
100
AcDbSpline
 70
8
 71
3
 72
8
 73
4
 74
0
 40
0
 40
0
 40
0
 40
0
 40
1
 40
1
 40
1
 40
1
 10
20.099951
 20
100.048745
 30
0.0
 10
20.101251
 20
99.114905
 30
0.0
 10
20.097351
 20
98.181015
 30
0.0
 10
20.101951
 20
97.247205
 30
0.0
  0
SPLINE
  5
10f
100
AcDbEntity
  8
open-0
 62
7
100
AcDbSpline
 70
8
 71
3
 72
8
 73
4
 74
0
 40
0
 40
0
 40
0
 40
0
 40
1
 40
1
 40
1
 40
1
 10
20.101951
 20
97.247205
 30
0.0
 10
20.130061
 20
96.107395
 30
0.0
 10
20.675865
 20
94.994695
 30
0.0
 10
21.559684
 20
94.274505
 30
0.0
  0
SPLINE
  5
110
100
AcDbEntity
  8
open-0
 62
7
100
AcDbSpline
 70
8
 71
3
 72
8
 73
4
 74
0
 40
0
 40
0
 40
0
 40
0
 40
1
 40
1
 40
1
 40
1
 10
21.559684
 20
94.274505
 30
0.0
 10
22.300768
 20
93.657785
 30
0.0
 10
23.269900
 20
93.332485
 30
0.0
 10
24.232297
 20
93.359585
 30
0.0
  0
SPLINE
  5
111
100
AcDbEntity
  8
open-0
 62
7
100
AcDbSpline
 70
8
 71
3
 72
8
 73
4
 74
0
 40
0
 40
0
 40
0
 40
0
 40
1
 40
1
 40
1
 40
1
 10
24.232297
 20
93.359585
 30
0.0
 10
60.863090
 20
93.359805
 30
0.0
 10
97.493888
 20
93.359145
 30
0.0
 10
134.124690
 20
93.359915
 30
0.0
  0
SPLINE
  5
112
100
AcDbEntity
  8
open-0
 62
7
100
AcDbSpline
 70
8
 71
3
 72
8
 73
4
 74
0
 40
0
 40
0
 40
0
 40
0
 40
1
 40
1
 40
1
 40
1
 10
134.124690
 20
93.359915
 30
0.0
 10
135.258360
 20
93.365915
 30
0.0
 10
136.375890
 20
93.883185
 30
0.0
 10
137.113220
 20
94.744615
 30
0.0
  0
SPLINE
  5
113
100
AcDbEntity
  8
open-0
 62
7
100
AcDbSpline
 70
8
 71
3
 72
8
 73
4
 74
0
 40
0
 40
0
 40
0
 40
0
 40
1
 40
1
 40
1
 40
1
 10
137.113220
 20
94.744615
 30
0.0
 10
137.769050
 20
95.494495
 30
0.0
 10
138.118720
 20
96.495625
 30
0.0
 10
138.090150
 20
97.490015
 30
0.0
  0
SPLINE
  5
114
100
AcDbEntity
  8
open-0
 62
7
100
AcDbSpline
 70
8
 71
3
 72
8
 73
4
 74
0
 40
0
 40
0
 40
0
 40
0
 40
1
 40
1
 40
1
 40
1
 10
138.090150
 20
97.490015
 30
0.0
 10
138.089150
 20
98.417595
 30
0.0
 10
138.093150
 20
99.345225
 30
0.0
 10
138.088150
 20
100.272765
 30
0.0
  0
SPLINE
  5
115
100
AcDbEntity
  8
open-0
 62
7
100
AcDbSpline
 70
8
 71
3
 72
8
 73
4
 74
0
 40
0
 40
0
 40
0
 40
0
 40
1
 40
1
 40
1
 40
1
 10
138.088150
 20
100.272765
 30
0.0
 10
138.060150
 20
101.412375
 30
0.0
 10
137.515150
 20
102.525255
 30
0.0
 10
136.631570
 20
103.245595
 30
0.0
  0
SPLINE
  5
116
100
AcDbEntity
  8
open-0
 62
7
100
AcDbSpline
 70
8
 71
3
 72
8
 73
4
 74
0
 40
0
 40
0
 40
0
 40
0
 40
1
 40
1
 40
1
 40
1
 10
136.631570
 20
103.245595
 30
0.0
 10
135.890830
 20
103.862365
 30
0.0
 10
134.921880
 20
104.187475
 30
0.0
 10
133.959750
 20
104.160365
 30
0.0
  0
SPLINE
  5
117
100
AcDbEntity
  8
open-0
 62
7
100
AcDbSpline
 70
8
 71
3
 72
8
 73
4
 74
0
 40
0
 40
0
 40
0
 40
0
 40
1
 40
1
 40
1
 40
1
 10
133.959750
 20
104.160365
 30
0.0
 10
97.346325
 20
104.160365
 30
0.0
 10
60.732903
 20
104.160365
 30
0.0
 10
24.119481
 20
104.160365
 30
0.0
  0
LWPOLYLINE
  5
118
100
AcDbEntity
  8
open-0
 62
7
100
AcDbPolyline
 90
1
 70
1
 10
149.117530
 20
104.160365
 30
0.0
  0
LWPOLYLINE
  5
119
100
AcDbEntity
  8
open-0
 62
7
100
AcDbPolyline
 90
1
 70
1
 10
24.119481
 20
104.160365
 30
0.0
  0
SPLINE
  5
11a
100
AcDbEntity
  8
open-0
 62
7
100
AcDbSpline
 70
8
 71
3
 72
8
 73
4
 74
0
 40
0
 40
0
 40
0
 40
0
 40
1
 40
1
 40
1
 40
1
 10
982.941131
 20
95.634920
 30
0.0
 10
987.971710
 20
95.634920
 30
0.0
 10
992.796249
 20
93.636531
 30
0.0
 10
996.353405
 20
90.079375
 30
0.0
  0
SPLINE
  5
11b
100
AcDbEntity
  8
open-0
 62
7
100
AcDbSpline
 70
8
 71
3
 72
8
 73
4
 74
0
 40
0
 40
0
 40
0
 40
0
 40
1
 40
1
 40
1
 40
1
 10
996.353405
 20
90.079375
 30
0.0
 10
999.910562
 20
86.522218
 30
0.0
 10
1001.908951
 20
81.697679
 30
0.0
 10
1001.908951
 20
76.667100
 30
0.0
  0
LWPOLYLINE
  5
11c
100
AcDbEntity
  8
open-0
 62
7
100
AcDbPolyline
 90
2
 70
0
 10
567.372431
 20
95.634920
 30
0.0
 10
982.941131
 20
95.634920
 30
0.0
  0
SPLINE
  5
11d
100
AcDbEntity
  8
open-0
 62
7
100
AcDbSpline
 70
8
 71
3
 72
8
 73
4
 74
0
 40
0
 40
0
 40
0
 40
0
 40
1
 40
1
 40
1
 40
1
 10
1001.908951
 20
66.215104
 30
0.0
 10
1001.908951
 20
61.184526
 30
0.0
 10
999.910562
 20
56.359986
 30
0.0
 10
996.353405
 20
52.802830
 30
0.0
  0
SPLINE
  5
11e
100
AcDbEntity
  8
open-0
 62
7
100
AcDbSpline
 70
8
 71
3
 72
8
 73
4
 74
0
 40
0
 40
0
 40
0
 40
0
 40
1
 40
1
 40
1
 40
1
 10
996.353405
 20
52.802830
 30
0.0
 10
992.796249
 20
49.245674
 30
0.0
 10
987.971710
 20
47.247284
 30
0.0
 10
982.941131
 20
47.247284
 30
0.0
  0
LWPOLYLINE
  5
11f
100
AcDbEntity
  8
open-0
 62
7
100
AcDbPolyline
 90
2
 70
0
 10
1001.908951
 20
76.667100
 30
0.0
 10
1001.908951
 20
66.215104
 30
0.0
  0
SPLINE
  5
120
100
AcDbEntity
  8
open-0
 62
7
100
AcDbSpline
 70
8
 71
3
 72
8
 73
4
 74
0
 40
0
 40
0
 40
0
 40
0
 40
1
 40
1
 40
1
 40
1
 10
567.372431
 20
47.247284
 30
0.0
 10
562.341852
 20
47.247284
 30
0.0
 10
557.517313
 20
49.245674
 30
0.0
 10
553.960157
 20
52.802830
 30
0.0
  0
SPLINE
  5
121
100
AcDbEntity
  8
open-0
 62
7
100
AcDbSpline
 70
8
 71
3
 72
8
 73
4
 74
0
 40
0
 40
0
 40
0
 40
0
 40
1
 40
1
 40
1
 40
1
 10
553.960157
 20
52.802830
 30
0.0
 10
550.403001
 20
56.359986
 30
0.0
 10
548.404611
 20
61.184526
 30
0.0
 10
548.404611
 20
66.215104
 30
0.0
  0
LWPOLYLINE
  5
122
100
AcDbEntity
  8
open-0
 62
7
100
AcDbPolyline
 90
2
 70
0
 10
982.941131
 20
47.247284
 30
0.0
 10
567.372431
 20
47.247284
 30
0.0
  0
SPLINE
  5
123
100
AcDbEntity
  8
open-0
 62
7
100
AcDbSpline
 70
8
 71
3
 72
8
 73
4
 74
0
 40
0
 40
0
 40
0
 40
0
 40
1
 40
1
 40
1
 40
1
 10
548.404611
 20
76.667100
 30
0.0
 10
548.404611
 20
81.697679
 30
0.0
 10
550.403001
 20
86.522218
 30
0.0
 10
553.960157
 20
90.079375
 30
0.0
  0
SPLINE
  5
124
100
AcDbEntity
  8
open-0
 62
7
100
AcDbSpline
 70
8
 71
3
 72
8
 73
4
 74
0
 40
0
 40
0
 40
0
 40
0
 40
1
 40
1
 40
1
 40
1
 10
553.960157
 20
90.079375
 30
0.0
 10
557.517313
 20
93.636531
 30
0.0
 10
562.341852
 20
95.634920
 30
0.0
 10
567.372431
 20
95.634920
 30
0.0
  0
LWPOLYLINE
  5
125
100
AcDbEntity
  8
open-0
 62
7
100
AcDbPolyline
 90
2
 70
0
 10
548.404611
 20
66.215104
 30
0.0
 10
548.404611
 20
76.667100
 30
0.0
  0
LWPOLYLINE
  5
126
100
AcDbEntity
  8
open-0
 62
7
100
AcDbPolyline
 90
1
 70
1
 10
567.372431
 20
95.634920
 30
0.0
  0
SPLINE
  5
127
100
AcDbEntity
  8
open-0
 62
7
100
AcDbSpline
 70
8
 71
3
 72
8
 73
4
 74
0
 40
0
 40
0
 40
0
 40
0
 40
1
 40
1
 40
1
 40
1
 10
510.500183
 20
95.634920
 30
0.0
 10
515.530761
 20
95.634920
 30
0.0
 10
520.355300
 20
93.636531
 30
0.0
 10
523.912457
 20
90.079375
 30
0.0
  0
SPLINE
  5
128
100
AcDbEntity
  8
open-0
 62
7
100
AcDbSpline
 70
8
 71
3
 72
8
 73
4
 74
0
 40
0
 40
0
 40
0
 40
0
 40
1
 40
1
 40
1
 40
1
 10
523.912457
 20
90.079375
 30
0.0
 10
527.469613
 20
86.522218
 30
0.0
 10
529.468003
 20
81.697679
 30
0.0
 10
529.468003
 20
76.667100
 30
0.0
  0
LWPOLYLINE
  5
129
100
AcDbEntity
  8
open-0
 62
7
100
AcDbPolyline
 90
2
 70
0
 10
94.931482
 20
95.634920
 30
0.0
 10
510.500183
 20
95.634920
 30
0.0
  0
SPLINE
  5
12a
100
AcDbEntity
  8
open-0
 62
7
100
AcDbSpline
 70
8
 71
3
 72
8
 73
4
 74
0
 40
0
 40
0
 40
0
 40
0
 40
1
 40
1
 40
1
 40
1
 10
529.468003
 20
66.215104
 30
0.0
 10
529.468003
 20
61.184526
 30
0.0
 10
527.469613
 20
56.359986
 30
0.0
 10
523.912457
 20
52.802830
 30
0.0
  0
SPLINE
  5
12b
100
AcDbEntity
  8
open-0
 62
7
100
AcDbSpline
 70
8
 71
3
 72
8
 73
4
 74
0
 40
0
 40
0
 40
0
 40
0
 40
1
 40
1
 40
1
 40
1
 10
523.912457
 20
52.802830
 30
0.0
 10
520.355300
 20
49.245674
 30
0.0
 10
515.530761
 20
47.247284
 30
0.0
 10
510.500183
 20
47.247284
 30
0.0
  0
LWPOLYLINE
  5
12c
100
AcDbEntity
  8
open-0
 62
7
100
AcDbPolyline
 90
2
 70
0
 10
529.468003
 20
76.667100
 30
0.0
 10
529.468003
 20
66.215104
 30
0.0
  0
SPLINE
  5
12d
100
AcDbEntity
  8
open-0
 62
7
100
AcDbSpline
 70
8
 71
3
 72
8
 73
4
 74
0
 40
0
 40
0
 40
0
 40
0
 40
1
 40
1
 40
1
 40
1
 10
94.931482
 20
47.247284
 30
0.0
 10
89.900904
 20
47.247284
 30
0.0
 10
85.076364
 20
49.245674
 30
0.0
 10
81.519208
 20
52.802830
 30
0.0
  0
SPLINE
  5
12e
100
AcDbEntity
  8
open-0
 62
7
100
AcDbSpline
 70
8
 71
3
 72
8
 73
4
 74
0
 40
0
 40
0
 40
0
 40
0
 40
1
 40
1
 40
1
 40
1
 10
81.519208
 20
52.802830
 30
0.0
 10
77.962052
 20
56.359986
 30
0.0
 10
75.963662
 20
61.184526
 30
0.0
 10
75.963662
 20
66.215104
 30
0.0
  0
LWPOLYLINE
  5
12f
100
AcDbEntity
  8
open-0
 62
7
100
AcDbPolyline
 90
2
 70
0
 10
510.500183
 20
47.247284
 30
0.0
 10
94.931482
 20
47.247284
 30
0.0
  0
SPLINE
  5
130
100
AcDbEntity
  8
open-0
 62
7
100
AcDbSpline
 70
8
 71
3
 72
8
 73
4
 74
0
 40
0
 40
0
 40
0
 40
0
 40
1
 40
1
 40
1
 40
1
 10
75.963662
 20
76.667100
 30
0.0
 10
75.963662
 20
81.697679
 30
0.0
 10
77.962052
 20
86.522218
 30
0.0
 10
81.519208
 20
90.079375
 30
0.0
  0
SPLINE
  5
131
100
AcDbEntity
  8
open-0
 62
7
100
AcDbSpline
 70
8
 71
3
 72
8
 73
4
 74
0
 40
0
 40
0
 40
0
 40
0
 40
1
 40
1
 40
1
 40
1
 10
81.519208
 20
90.079375
 30
0.0
 10
85.076364
 20
93.636531
 30
0.0
 10
89.900904
 20
95.634920
 30
0.0
 10
94.931482
 20
95.634920
 30
0.0
  0
LWPOLYLINE
  5
132
100
AcDbEntity
  8
open-0
 62
7
100
AcDbPolyline
 90
2
 70
0
 10
75.963662
 20
66.215104
 30
0.0
 10
75.963662
 20
76.667100
 30
0.0
  0
SPLINE
  5
133
100
AcDbEntity
  8
open-0
 62
7
100
AcDbSpline
 70
8
 71
3
 72
8
 73
4
 74
0
 40
0
 40
0
 40
0
 40
0
 40
1
 40
1
 40
1
 40
1
 10
149.617190
 20
124.660391
 30
0.0
 10
148.402420
 20
124.667991
 30
0.0
 10
147.195880
 20
124.157356
 30
0.0
 10
146.358170
 20
123.277165
 30
0.0
  0
SPLINE
  5
134
100
AcDbEntity
  8
open-0
 62
7
100
AcDbSpline
 70
8
 71
3
 72
8
 73
4
 74
0
 40
0
 40
0
 40
0
 40
0
 40
1
 40
1
 40
1
 40
1
 10
146.358170
 20
123.277165
 30
0.0
 10
145.535000
 20
122.429406
 30
0.0
 10
145.075390
 20
121.247499
 30
0.0
 10
145.099610
 20
120.066884
 30
0.0
  0
SPLINE
  5
135
100
AcDbEntity
  8
open-0
 62
7
100
AcDbSpline
 70
8
 71
3
 72
8
 73
4
 74
0
 40
0
 40
0
 40
0
 40
0
 40
1
 40
1
 40
1
 40
1
 10
145.099610
 20
120.066884
 30
0.0
 10
145.100610
 20
119.121616
 30
0.0
 10
145.096610
 20
118.176288
 30
0.0
 10
145.101610
 20
117.231060
 30
0.0
  0
SPLINE
  5
136
100
AcDbEntity
  8
open-0
 62
7
100
AcDbSpline
 70
8
 71
3
 72
8
 73
4
 74
0
 40
0
 40
0
 40
0
 40
0
 40
1
 40
1
 40
1
 40
1
 10
145.101610
 20
117.231060
 30
0.0
 10
145.132910
 20
115.976982
 30
0.0
 10
145.719820
 20
114.751002
 30
0.0
 10
146.677470
 20
113.940647
 30
0.0
  0
SPLINE
  5
137
100
AcDbEntity
  8
open-0
 62
7
100
AcDbSpline
 70
8
 71
3
 72
8
 73
4
 74
0
 40
0
 40
0
 40
0
 40
0
 40
1
 40
1
 40
1
 40
1
 10
146.677470
 20
113.940647
 30
0.0
 10
147.514920
 20
113.217421
 30
0.0
 10
148.626010
 20
112.830369
 30
0.0
 10
149.730790
 20
112.859609
 30
0.0
  0
SPLINE
  5
138
100
AcDbEntity
  8
open-0
 62
7
100
AcDbSpline
 70
8
 71
3
 72
8
 73
4
 74
0
 40
0
 40
0
 40
0
 40
0
 40
1
 40
1
 40
1
 40
1
 10
149.730790
 20
112.859609
 30
0.0
 10
186.353640
 20
112.859670
 30
0.0
 10
222.976490
 20
112.859486
 30
0.0
 10
259.599340
 20
112.859701
 30
0.0
  0
SPLINE
  5
139
100
AcDbEntity
  8
open-0
 62
7
100
AcDbSpline
 70
8
 71
3
 72
8
 73
4
 74
0
 40
0
 40
0
 40
0
 40
0
 40
1
 40
1
 40
1
 40
1
 10
259.599340
 20
112.859701
 30
0.0
 10
260.838390
 20
112.859429
 30
0.0
 10
262.064750
 20
113.399569
 30
0.0
 10
262.898800
 20
114.316244
 30
0.0
  0
SPLINE
  5
13a
100
AcDbEntity
  8
open-0
 62
7
100
AcDbSpline
 70
8
 71
3
 72
8
 73
4
 74
0
 40
0
 40
0
 40
0
 40
0
 40
1
 40
1
 40
1
 40
1
 10
262.898800
 20
114.316244
 30
0.0
 10
263.684400
 20
115.162120
 30
0.0
 10
264.115250
 20
116.319096
 30
0.0
 10
264.087600
 20
117.472098
 30
0.0
  0
SPLINE
  5
13b
100
AcDbEntity
  8
open-0
 62
7
100
AcDbSpline
 70
8
 71
3
 72
8
 73
4
 74
0
 40
0
 40
0
 40
0
 40
0
 40
1
 40
1
 40
1
 40
1
 10
264.087600
 20
117.472098
 30
0.0
 10
264.086600
 20
118.411038
 30
0.0
 10
264.090600
 20
119.350039
 30
0.0
 10
264.085600
 20
120.288940
 30
0.0
  0
SPLINE
  5
13c
100
AcDbEntity
  8
open-0
 62
7
100
AcDbSpline
 70
8
 71
3
 72
8
 73
4
 74
0
 40
0
 40
0
 40
0
 40
0
 40
1
 40
1
 40
1
 40
1
 10
264.085600
 20
120.288940
 30
0.0
 10
264.054300
 20
121.543018
 30
0.0
 10
263.467390
 20
122.768998
 30
0.0
 10
262.509740
 20
123.579353
 30
0.0
  0
SPLINE
  5
13d
100
AcDbEntity
  8
open-0
 62
7
100
AcDbSpline
 70
8
 71
3
 72
8
 73
4
 74
0
 40
0
 40
0
 40
0
 40
0
 40
1
 40
1
 40
1
 40
1
 10
262.509740
 20
123.579353
 30
0.0
 10
261.672290
 20
124.302579
 30
0.0
 10
260.561200
 20
124.689631
 30
0.0
 10
259.456420
 20
124.660391
 30
0.0
  0
SPLINE
  5
13e
100
AcDbEntity
  8
open-0
 62
7
100
AcDbSpline
 70
8
 71
3
 72
8
 73
4
 74
0
 40
0
 40
0
 40
0
 40
0
 40
1
 40
1
 40
1
 40
1
 10
259.456420
 20
124.660391
 30
0.0
 10
222.843340
 20
124.660391
 30
0.0
 10
186.230270
 20
124.660391
 30
0.0
 10
149.617190
 20
124.660391
 30
0.0
  0
LWPOLYLINE
  5
13f
100
AcDbEntity
  8
open-0
 62
7
100
AcDbPolyline
 90
1
 70
1
 10
94.931482
 20
95.634920
 30
0.0
  0
SPLINE
  5
140
100
AcDbEntity
  8
open-0
 62
7
100
AcDbSpline
 70
8
 71
3
 72
8
 73
4
 74
0
 40
0
 40
0
 40
0
 40
0
 40
1
 40
1
 40
1
 40
1
 10
24.619176
 20
124.660392
 30
0.0
 10
23.404083
 20
124.667992
 30
0.0
 10
22.197309
 20
124.157222
 30
0.0
 10
21.359096
 20
123.277117
 30
0.0
  0
SPLINE
  5
141
100
AcDbEntity
  8
open-0
 62
7
100
AcDbSpline
 70
8
 71
3
 72
8
 73
4
 74
0
 40
0
 40
0
 40
0
 40
0
 40
1
 40
1
 40
1
 40
1
 10
21.359096
 20
123.277117
 30
0.0
 10
20.535583
 20
122.429558
 30
0.0
 10
20.075242
 20
121.247687
 30
0.0
 10
20.099645
 20
120.066884
 30
0.0
  0
SPLINE
  5
142
100
AcDbEntity
  8
open-0
 62
7
100
AcDbSpline
 70
8
 71
3
 72
8
 73
4
 74
0
 40
0
 40
0
 40
0
 40
0
 40
1
 40
1
 40
1
 40
1
 10
20.099645
 20
120.066884
 30
0.0
 10
20.101045
 20
119.121622
 30
0.0
 10
20.096745
 20
118.176299
 30
0.0
 10
20.101945
 20
117.231075
 30
0.0
  0
SPLINE
  5
143
100
AcDbEntity
  8
open-0
 62
7
100
AcDbSpline
 70
8
 71
3
 72
8
 73
4
 74
0
 40
0
 40
0
 40
0
 40
0
 40
1
 40
1
 40
1
 40
1
 10
20.101945
 20
117.231075
 30
0.0
 10
20.133325
 20
115.976783
 30
0.0
 10
20.720976
 20
114.750916
 30
0.0
 10
21.678929
 20
113.940727
 30
0.0
  0
SPLINE
  5
144
100
AcDbEntity
  8
open-0
 62
7
100
AcDbSpline
 70
8
 71
3
 72
8
 73
4
 74
0
 40
0
 40
0
 40
0
 40
0
 40
1
 40
1
 40
1
 40
1
 10
21.678929
 20
113.940727
 30
0.0
 10
22.516745
 20
113.217576
 30
0.0
 10
23.628027
 20
112.830387
 30
0.0
 10
24.733074
 20
112.859610
 30
0.0
  0
SPLINE
  5
145
100
AcDbEntity
  8
open-0
 62
7
100
AcDbSpline
 70
8
 71
3
 72
8
 73
4
 74
0
 40
0
 40
0
 40
0
 40
0
 40
1
 40
1
 40
1
 40
1
 10
24.733074
 20
112.859610
 30
0.0
 10
61.355923
 20
112.859671
 30
0.0
 10
97.978771
 20
112.859487
 30
0.0
 10
134.601620
 20
112.859702
 30
0.0
  0
SPLINE
  5
146
100
AcDbEntity
  8
open-0
 62
7
100
AcDbSpline
 70
8
 71
3
 72
8
 73
4
 74
0
 40
0
 40
0
 40
0
 40
0
 40
1
 40
1
 40
1
 40
1
 10
134.601620
 20
112.859702
 30
0.0
 10
135.840670
 20
112.859430
 30
0.0
 10
137.067030
 20
113.399570
 30
0.0
 10
137.901080
 20
114.316245
 30
0.0
  0
SPLINE
  5
147
100
AcDbEntity
  8
open-0
 62
7
100
AcDbSpline
 70
8
 71
3
 72
8
 73
4
 74
0
 40
0
 40
0
 40
0
 40
0
 40
1
 40
1
 40
1
 40
1
 10
137.901080
 20
114.316245
 30
0.0
 10
138.686680
 20
115.162121
 30
0.0
 10
139.117530
 20
116.319098
 30
0.0
 10
139.089880
 20
117.472101
 30
0.0
  0
SPLINE
  5
148
100
AcDbEntity
  8
open-0
 62
7
100
AcDbSpline
 70
8
 71
3
 72
8
 73
4
 74
0
 40
0
 40
0
 40
0
 40
0
 40
1
 40
1
 40
1
 40
1
 10
139.089880
 20
117.472101
 30
0.0
 10
139.088880
 20
118.411041
 30
0.0
 10
139.092880
 20
119.350041
 30
0.0
 10
139.087880
 20
120.288942
 30
0.0
  0
SPLINE
  5
149
100
AcDbEntity
  8
open-0
 62
7
100
AcDbSpline
 70
8
 71
3
 72
8
 73
4
 74
0
 40
0
 40
0
 40
0
 40
0
 40
1
 40
1
 40
1
 40
1
 10
139.087880
 20
120.288942
 30
0.0
 10
139.056580
 20
121.543020
 30
0.0
 10
138.469670
 20
122.768999
 30
0.0
 10
137.512020
 20
123.579354
 30
0.0
  0
SPLINE
  5
14a
100
AcDbEntity
  8
open-0
 62
7
100
AcDbSpline
 70
8
 71
3
 72
8
 73
4
 74
0
 40
0
 40
0
 40
0
 40
0
 40
1
 40
1
 40
1
 40
1
 10
137.512020
 20
123.579354
 30
0.0
 10
136.674570
 20
124.302581
 30
0.0
 10
135.563480
 20
124.689632
 30
0.0
 10
134.458700
 20
124.660392
 30
0.0
  0
SPLINE
  5
14b
100
AcDbEntity
  8
open-0
 62
7
100
AcDbSpline
 70
8
 71
3
 72
8
 73
4
 74
0
 40
0
 40
0
 40
0
 40
0
 40
1
 40
1
 40
1
 40
1
 10
134.458700
 20
124.660392
 30
0.0
 10
97.845622
 20
124.660392
 30
0.0
 10
61.232546
 20
124.660392
 30
0.0
 10
24.619470
 20
124.660392
 30
0.0
  0
LWPOLYLINE
  5
14c
100
AcDbEntity
  8
open-0
 62
7
100
AcDbPolyline
 90
1
 70
1
 10
149.617190
 20
124.660391
 30
0.0
  0
LWPOLYLINE
  5
14d
100
AcDbEntity
  8
open-0
 62
7
100
AcDbPolyline
 90
2
 70
0
 10
24.619470
 20
124.660392
 30
0.0
 10
24.619176
 20
124.660392
 30
0.0
  0
SPLINE
  5
14e
100
AcDbEntity
  8
open-0
 62
7
100
AcDbSpline
 70
8
 71
3
 72
8
 73
4
 74
0
 40
0
 40
0
 40
0
 40
0
 40
1
 40
1
 40
1
 40
1
 10
262.094500
 20
158.165500
 30
0.0
 10
273.174500
 20
158.165500
 30
0.0
 10
282.094500
 20
149.245500
 30
0.0
 10
282.094500
 20
138.165500
 30
0.0
  0
LWPOLYLINE
  5
14f
100
AcDbEntity
  8
open-0
 62
7
100
AcDbPolyline
 90
2
 70
0
 10
152.114290
 20
158.165500
 30
0.0
 10
262.094500
 20
158.165500
 30
0.0
  0
SPLINE
  5
150
100
AcDbEntity
  8
open-0
 62
7
100
AcDbSpline
 70
8
 71
3
 72
8
 73
4
 74
0
 40
0
 40
0
 40
0
 40
0
 40
1
 40
1
 40
1
 40
1
 10
282.094500
 20
71.266250
 30
0.0
 10
282.094500
 20
60.186250
 30
0.0
 10
272.968070
 20
53.395110
 30
0.0
 10
262.094500
 20
51.266250
 30
0.0
  0
SPLINE
  5
151
100
AcDbEntity
  8
open-0
 62
7
100
AcDbSpline
 70
8
 71
3
 72
8
 73
4
 74
0
 40
0
 40
0
 40
0
 40
0
 40
1
 40
1
 40
1
 40
1
 10
262.094500
 20
51.266250
 30
0.0
 10
262.094500
 20
51.266250
 30
0.0
 10
151.961450
 20
27.465480
 30
0.0
 10
142.000000
 20
27.453750
 30
0.0
  0
SPLINE
  5
152
100
AcDbEntity
  8
open-0
 62
7
100
AcDbSpline
 70
8
 71
3
 72
8
 73
4
 74
0
 40
0
 40
0
 40
0
 40
0
 40
1
 40
1
 40
1
 40
1
 10
142.000000
 20
27.453750
 30
0.0
 10
132.082320
 20
27.442050
 30
0.0
 10
22.094500
 20
51.266250
 30
0.0
 10
22.094500
 20
51.266250
 30
0.0
  0
SPLINE
  5
153
100
AcDbEntity
  8
open-0
 62
7
100
AcDbSpline
 70
8
 71
3
 72
8
 73
4
 74
0
 40
0
 40
0
 40
0
 40
0
 40
1
 40
1
 40
1
 40
1
 10
22.094500
 20
51.266250
 30
0.0
 10
11.226738
 20
53.424520
 30
0.0
 10
2.094500
 20
60.186250
 30
0.0
 10
2.094500
 20
71.266250
 30
0.0
  0
LWPOLYLINE
  5
154
100
AcDbEntity
  8
open-0
 62
7
100
AcDbPolyline
 90
2
 70
0
 10
282.094500
 20
138.165500
 30
0.0
 10
282.094500
 20
71.266250
 30
0.0
  0
SPLINE
  5
155
100
AcDbEntity
  8
open-0
 62
7
100
AcDbSpline
 70
8
 71
3
 72
8
 73
4
 74
0
 40
0
 40
0
 40
0
 40
0
 40
1
 40
1
 40
1
 40
1
 10
2.094500
 20
138.165500
 30
0.0
 10
2.094500
 20
149.245500
 30
0.0
 10
11.014500
 20
158.165500
 30
0.0
 10
22.094500
 20
158.165500
 30
0.0
  0
LWPOLYLINE
  5
156
100
AcDbEntity
  8
open-0
 62
7
100
AcDbPolyline
 90
2
 70
0
 10
2.094500
 20
71.266250
 30
0.0
 10
2.094500
 20
138.165500
 30
0.0
  0
SPLINE
  5
157
100
AcDbEntity
  8
open-0
 62
7
100
AcDbSpline
 70
8
 71
3
 72
8
 73
4
 74
0
 40
0
 40
0
 40
0
 40
0
 40
1
 40
1
 40
1
 40
1
 10
22.093750
 20
147.166250
 30
0.0
 10
19.578435
 20
147.183660
 30
0.0
 10
17.082181
 20
146.083257
 30
0.0
 10
15.406040
 20
144.206357
 30
0.0
  0
SPLINE
  5
158
100
AcDbEntity
  8
open-0
 62
7
100
AcDbSpline
 70
8
 71
3
 72
8
 73
4
 74
0
 40
0
 40
0
 40
0
 40
0
 40
1
 40
1
 40
1
 40
1
 10
15.406040
 20
144.206357
 30
0.0
 10
13.866357
 20
142.518460
 30
0.0
 10
13.031877
 20
140.225185
 30
0.0
 10
13.093750
 20
137.943960
 30
0.0
  0
SPLINE
  5
159
100
AcDbEntity
  8
open-0
 62
7
100
AcDbSpline
 70
8
 71
3
 72
8
 73
4
 74
0
 40
0
 40
0
 40
0
 40
0
 40
1
 40
1
 40
1
 40
1
 10
13.093750
 20
137.943960
 30
0.0
 10
13.094750
 20
115.667881
 30
0.0
 10
13.091650
 20
93.391774
 30
0.0
 10
13.095350
 20
71.115715
 30
0.0
  0
SPLINE
  5
15a
100
AcDbEntity
  8
open-0
 62
7
100
AcDbSpline
 70
8
 71
3
 72
8
 73
4
 74
0
 40
0
 40
0
 40
0
 40
0
 40
1
 40
1
 40
1
 40
1
 10
13.095350
 20
71.115715
 30
0.0
 10
13.114100
 20
69.365134
 30
0.0
 10
13.879189
 20
67.673684
 30
0.0
 10
15.072430
 20
66.409087
 30
0.0
  0
SPLINE
  5
15b
100
AcDbEntity
  8
open-0
 62
7
100
AcDbSpline
 70
8
 71
3
 72
8
 73
4
 74
0
 40
0
 40
0
 40
0
 40
0
 40
1
 40
1
 40
1
 40
1
 10
15.072430
 20
66.409087
 30
0.0
 10
16.734437
 20
64.630481
 30
0.0
 10
18.995072
 20
63.546534
 30
0.0
 10
21.281573
 20
62.808555
 30
0.0
  0
SPLINE
  5
15c
100
AcDbEntity
  8
open-0
 62
7
100
AcDbSpline
 70
8
 71
3
 72
8
 73
4
 74
0
 40
0
 40
0
 40
0
 40
0
 40
1
 40
1
 40
1
 40
1
 10
21.281573
 20
62.808555
 30
0.0
 10
23.175979
 20
62.194994
 30
0.0
 10
25.147599
 20
61.891213
 30
0.0
 10
27.092573
 20
61.487676
 30
0.0
  0
SPLINE
  5
15d
100
AcDbEntity
  8
open-0
 62
7
100
AcDbSpline
 70
8
 71
3
 72
8
 73
4
 74
0
 40
0
 40
0
 40
0
 40
0
 40
1
 40
1
 40
1
 40
1
 10
27.092573
 20
61.487676
 30
0.0
 10
65.396359
 20
53.880530
 30
0.0
 10
103.700150
 20
46.273390
 30
0.0
 10
142.003940
 20
38.666250
 30
0.0
  0
SPLINE
  5
15e
100
AcDbEntity
  8
open-0
 62
7
100
AcDbSpline
 70
8
 71
3
 72
8
 73
4
 74
0
 40
0
 40
0
 40
0
 40
0
 40
1
 40
1
 40
1
 40
1
 10
142.003940
 20
38.666250
 30
0.0
 10
181.406200
 20
46.480120
 30
0.0
 10
220.809050
 20
54.291120
 30
0.0
 10
260.210970
 20
62.106777
 30
0.0
  0
SPLINE
  5
15f
100
AcDbEntity
  8
open-0
 62
7
100
AcDbSpline
 70
8
 71
3
 72
8
 73
4
 74
0
 40
0
 40
0
 40
0
 40
0
 40
1
 40
1
 40
1
 40
1
 10
260.210970
 20
62.106777
 30
0.0
 10
262.843930
 20
62.661539
 30
0.0
 10
265.474760
 20
63.531727
 30
0.0
 10
267.671250
 20
65.127599
 30
0.0
  0
SPLINE
  5
160
100
AcDbEntity
  8
open-0
 62
7
100
AcDbSpline
 70
8
 71
3
 72
8
 73
4
 74
0
 40
0
 40
0
 40
0
 40
0
 40
1
 40
1
 40
1
 40
1
 10
267.671250
 20
65.127599
 30
0.0
 10
269.220150
 20
66.250861
 30
0.0
 10
270.508960
 20
67.849415
 30
0.0
 10
270.926450
 20
69.748219
 30
0.0
  0
SPLINE
  5
161
100
AcDbEntity
  8
open-0
 62
7
100
AcDbSpline
 70
8
 71
3
 72
8
 73
4
 74
0
 40
0
 40
0
 40
0
 40
0
 40
1
 40
1
 40
1
 40
1
 10
270.926450
 20
69.748219
 30
0.0
 10
271.171820
 20
70.777943
 30
0.0
 10
271.073320
 20
71.840798
 30
0.0
 10
271.093800
 20
72.888577
 30
0.0
  0
LWPOLYLINE
  5
162
100
AcDbEntity
  8
open-0
 62
7
100
AcDbPolyline
 90
7
 70
0
 10
22.094500
 20
158.165500
 30
0.0
 10
22.094500
 20
158.165500
 30
0.0
 10
132.114500
 20
158.165500
 30
0.0
 10
132.114490
 20
147.166250
 30
0.0
 10
22.093777
 20
147.166250
 30
0.0
 10
22.093750
 20
147.166250
 30
0.0
 10
22.093750
 20
147.166250
 30
0.0
  0
SPLINE
  5
163
100
AcDbEntity
  8
open-0
 62
7
100
AcDbSpline
 70
8
 71
3
 72
8
 73
4
 74
0
 40
0
 40
0
 40
0
 40
0
 40
1
 40
1
 40
1
 40
1
 10
271.093800
 20
138.283063
 30
0.0
 10
271.080000
 20
140.859018
 30
0.0
 10
269.888960
 20
143.397458
 30
0.0
 10
267.911020
 20
145.048819
 30
0.0
  0
SPLINE
  5
164
100
AcDbEntity
  8
open-0
 62
7
100
AcDbSpline
 70
8
 71
3
 72
8
 73
4
 74
0
 40
0
 40
0
 40
0
 40
0
 40
1
 40
1
 40
1
 40
1
 10
267.911020
 20
145.048819
 30
0.0
 10
266.237090
 20
146.477490
 30
0.0
 10
264.023940
 20
147.231124
 30
0.0
 10
261.827760
 20
147.166250
 30
0.0
  0
LWPOLYLINE
  5
165
100
AcDbEntity
  8
open-0
 62
7
100
AcDbPolyline
 90
2
 70
0
 10
271.093800
 20
72.888577
 30
0.0
 10
271.093800
 20
138.283063
 30
0.0
  0
SPLINE
  5
166
100
AcDbEntity
  8
open-0
 62
7
100
AcDbSpline
 70
8
 71
3
 72
8
 73
4
 74
0
 40
0
 40
0
 40
0
 40
0
 40
1
 40
1
 40
1
 40
1
 10
470.921991
 20
136.013978
 30
0.0
 10
468.246807
 20
136.013978
 30
0.0
 10
465.835040
 20
134.402486
 30
0.0
 10
464.811291
 20
131.930939
 30
0.0
  0
SPLINE
  5
167
100
AcDbEntity
  8
open-0
 62
7
100
AcDbSpline
 70
8
 71
3
 72
8
 73
4
 74
0
 40
0
 40
0
 40
0
 40
0
 40
1
 40
1
 40
1
 40
1
 10
464.811291
 20
131.930939
 30
0.0
 10
463.787543
 20
129.459392
 30
0.0
 10
464.353424
 20
126.614518
 30
0.0
 10
466.245064
 20
124.722878
 30
0.0
  0
SPLINE
  5
168
100
AcDbEntity
  8
open-0
 62
7
100
AcDbSpline
 70
8
 71
3
 72
8
 73
4
 74
0
 40
0
 40
0
 40
0
 40
0
 40
1
 40
1
 40
1
 40
1
 10
466.245064
 20
124.722878
 30
0.0
 10
468.136704
 20
122.831237
 30
0.0
 10
470.981578
 20
122.265357
 30
0.0
 10
473.453125
 20
123.289105
 30
0.0
  0
SPLINE
  5
169
100
AcDbEntity
  8
open-0
 62
7
100
AcDbSpline
 70
8
 71
3
 72
8
 73
4
 74
0
 40
0
 40
0
 40
0
 40
0
 40
1
 40
1
 40
1
 40
1
 10
473.453125
 20
123.289105
 30
0.0
 10
475.924672
 20
124.312854
 30
0.0
 10
477.536164
 20
126.724621
 30
0.0
 10
477.536164
 20
129.399804
 30
0.0
  0
SPLINE
  5
16a
100
AcDbEntity
  8
open-0
 62
7
100
AcDbSpline
 70
8
 71
3
 72
8
 73
4
 74
0
 40
0
 40
0
 40
0
 40
0
 40
1
 40
1
 40
1
 40
1
 10
477.536164
 20
129.399804
 30
0.0
 10
477.536164
 20
131.153992
 30
0.0
 10
476.839315
 20
132.836333
 30
0.0
 10
475.598917
 20
134.076731
 30
0.0
  0
SPLINE
  5
16b
100
AcDbEntity
  8
open-0
 62
7
100
AcDbSpline
 70
8
 71
3
 72
8
 73
4
 74
0
 40
0
 40
0
 40
0
 40
0
 40
1
 40
1
 40
1
 40
1
 10
475.598917
 20
134.076731
 30
0.0
 10
474.358519
 20
135.317129
 30
0.0
 10
472.676178
 20
136.013978
 30
0.0
 10
470.921991
 20
136.013978
 30
0.0
  0
LWPOLYLINE
  5
16c
100
AcDbEntity
  8
open-0
 62
7
100
AcDbPolyline
 90
3
 70
0
 10
261.827760
 20
147.166250
 30
0.0
 10
152.114310
 20
147.166250
 30
0.0
 10
152.114290
 20
158.165500
 30
0.0
  0
SPLINE
  5
16d
100
AcDbEntity
  8
open-0
 62
7
100
AcDbSpline
 70
8
 71
3
 72
8
 73
4
 74
0
 40
0
 40
0
 40
0
 40
0
 40
1
 40
1
 40
1
 40
1
 10
29.758744
 20
-22.427773
 30
0.0
 10
27.083561
 20
-22.427773
 30
0.0
 10
24.671793
 20
-24.039265
 30
0.0
 10
23.648045
 20
-26.510812
 30
0.0
  0
SPLINE
  5
16e
100
AcDbEntity
  8
open-0
 62
7
100
AcDbSpline
 70
8
 71
3
 72
8
 73
4
 74
0
 40
0
 40
0
 40
0
 40
0
 40
1
 40
1
 40
1
 40
1
 10
23.648045
 20
-26.510812
 30
0.0
 10
22.624296
 20
-28.982359
 30
0.0
 10
23.190177
 20
-31.827233
 30
0.0
 10
25.081817
 20
-33.718873
 30
0.0
  0
SPLINE
  5
16f
100
AcDbEntity
  8
open-0
 62
7
100
AcDbSpline
 70
8
 71
3
 72
8
 73
4
 74
0
 40
0
 40
0
 40
0
 40
0
 40
1
 40
1
 40
1
 40
1
 10
25.081817
 20
-33.718873
 30
0.0
 10
26.973458
 20
-35.610513
 30
0.0
 10
29.818331
 20
-36.176394
 30
0.0
 10
32.289879
 20
-35.152646
 30
0.0
  0
SPLINE
  5
170
100
AcDbEntity
  8
open-0
 62
7
100
AcDbSpline
 70
8
 71
3
 72
8
 73
4
 74
0
 40
0
 40
0
 40
0
 40
0
 40
1
 40
1
 40
1
 40
1
 10
32.289879
 20
-35.152646
 30
0.0
 10
34.761426
 20
-34.128897
 30
0.0
 10
36.372917
 20
-31.717130
 30
0.0
 10
36.372917
 20
-29.041946
 30
0.0
  0
SPLINE
  5
171
100
AcDbEntity
  8
open-0
 62
7
100
AcDbSpline
 70
8
 71
3
 72
8
 73
4
 74
0
 40
0
 40
0
 40
0
 40
0
 40
1
 40
1
 40
1
 40
1
 10
36.372917
 20
-29.041946
 30
0.0
 10
36.372917
 20
-27.287759
 30
0.0
 10
35.676069
 20
-25.605418
 30
0.0
 10
34.435671
 20
-24.365020
 30
0.0
  0
SPLINE
  5
172
100
AcDbEntity
  8
open-0
 62
7
100
AcDbSpline
 70
8
 71
3
 72
8
 73
4
 74
0
 40
0
 40
0
 40
0
 40
0
 40
1
 40
1
 40
1
 40
1
 10
34.435671
 20
-24.365020
 30
0.0
 10
33.195273
 20
-23.124622
 30
0.0
 10
31.512932
 20
-22.427773
 30
0.0
 10
29.758744
 20
-22.427773
 30
0.0
  0
LWPOLYLINE
  5
173
100
AcDbEntity
  8
open-0
 62
7
100
AcDbPolyline
 90
1
 70
1
 10
470.921991
 20
136.013978
 30
0.0
  0
SPLINE
  5
174
100
AcDbEntity
  8
open-0
 62
7
100
AcDbSpline
 70
8
 71
3
 72
8
 73
4
 74
0
 40
0
 40
0
 40
0
 40
0
 40
1
 40
1
 40
1
 40
1
 10
1044.341443
 20
-22.427773
 30
0.0
 10
1041.666259
 20
-22.427773
 30
0.0
 10
1039.254492
 20
-24.039265
 30
0.0
 10
1038.230743
 20
-26.510812
 30
0.0
  0
SPLINE
  5
175
100
AcDbEntity
  8
open-0
 62
7
100
AcDbSpline
 70
8
 71
3
 72
8
 73
4
 74
0
 40
0
 40
0
 40
0
 40
0
 40
1
 40
1
 40
1
 40
1
 10
1038.230743
 20
-26.510812
 30
0.0
 10
1037.206995
 20
-28.982359
 30
0.0
 10
1037.772875
 20
-31.827233
 30
0.0
 10
1039.664516
 20
-33.718873
 30
0.0
  0
SPLINE
  5
176
100
AcDbEntity
  8
open-0
 62
7
100
AcDbSpline
 70
8
 71
3
 72
8
 73
4
 74
0
 40
0
 40
0
 40
0
 40
0
 40
1
 40
1
 40
1
 40
1
 10
1039.664516
 20
-33.718873
 30
0.0
 10
1041.556156
 20
-35.610513
 30
0.0
 10
1044.401030
 20
-36.176394
 30
0.0
 10
1046.872577
 20
-35.152646
 30
0.0
  0
SPLINE
  5
177
100
AcDbEntity
  8
open-0
 62
7
100
AcDbSpline
 70
8
 71
3
 72
8
 73
4
 74
0
 40
0
 40
0
 40
0
 40
0
 40
1
 40
1
 40
1
 40
1
 10
1046.872577
 20
-35.152646
 30
0.0
 10
1049.344124
 20
-34.128897
 30
0.0
 10
1050.955616
 20
-31.717130
 30
0.0
 10
1050.955616
 20
-29.041946
 30
0.0
  0
SPLINE
  5
178
100
AcDbEntity
  8
open-0
 62
7
100
AcDbSpline
 70
8
 71
3
 72
8
 73
4
 74
0
 40
0
 40
0
 40
0
 40
0
 40
1
 40
1
 40
1
 40
1
 10
1050.955616
 20
-29.041946
 30
0.0
 10
1050.955616
 20
-27.287759
 30
0.0
 10
1050.258767
 20
-25.605418
 30
0.0
 10
1049.018369
 20
-24.365020
 30
0.0
  0
SPLINE
  5
179
100
AcDbEntity
  8
open-0
 62
7
100
AcDbSpline
 70
8
 71
3
 72
8
 73
4
 74
0
 40
0
 40
0
 40
0
 40
0
 40
1
 40
1
 40
1
 40
1
 10
1049.018369
 20
-24.365020
 30
0.0
 10
1047.777971
 20
-23.124622
 30
0.0
 10
1046.095630
 20
-22.427773
 30
0.0
 10
1044.341443
 20
-22.427773
 30
0.0
  0
LWPOLYLINE
  5
17a
100
AcDbEntity
  8
open-0
 62
7
100
AcDbPolyline
 90
1
 70
1
 10
29.758744
 20
-22.427773
 30
0.0
  0
SPLINE
  5
17b
100
AcDbEntity
  8
open-0
 62
7
100
AcDbSpline
 70
8
 71
3
 72
8
 73
4
 74
0
 40
0
 40
0
 40
0
 40
0
 40
1
 40
1
 40
1
 40
1
 10
48.402304
 20
118.502181
 30
0.0
 10
44.749397
 20
118.502181
 30
0.0
 10
41.788131
 20
115.540915
 30
0.0
 10
41.788131
 20
111.888008
 30
0.0
  0
SPLINE
  5
17c
100
AcDbEntity
  8
open-0
 62
7
100
AcDbSpline
 70
8
 71
3
 72
8
 73
4
 74
0
 40
0
 40
0
 40
0
 40
0
 40
1
 40
1
 40
1
 40
1
 10
41.788131
 20
111.888008
 30
0.0
 10
41.788131
 20
108.235101
 30
0.0
 10
44.749397
 20
105.273834
 30
0.0
 10
48.402304
 20
105.273834
 30
0.0
  0
SPLINE
  5
17d
100
AcDbEntity
  8
open-0
 62
7
100
AcDbSpline
 70
8
 71
3
 72
8
 73
4
 74
0
 40
0
 40
0
 40
0
 40
0
 40
1
 40
1
 40
1
 40
1
 10
48.402304
 20
105.273834
 30
0.0
 10
52.055211
 20
105.273834
 30
0.0
 10
55.016477
 20
108.235101
 30
0.0
 10
55.016477
 20
111.888008
 30
0.0
  0
SPLINE
  5
17e
100
AcDbEntity
  8
open-0
 62
7
100
AcDbSpline
 70
8
 71
3
 72
8
 73
4
 74
0
 40
0
 40
0
 40
0
 40
0
 40
1
 40
1
 40
1
 40
1
 10
55.016477
 20
111.888008
 30
0.0
 10
55.016477
 20
113.642195
 30
0.0
 10
54.319629
 20
115.324536
 30
0.0
 10
53.079231
 20
116.564934
 30
0.0
  0
SPLINE
  5
17f
100
AcDbEntity
  8
open-0
 62
7
100
AcDbSpline
 70
8
 71
3
 72
8
 73
4
 74
0
 40
0
 40
0
 40
0
 40
0
 40
1
 40
1
 40
1
 40
1
 10
53.079231
 20
116.564934
 30
0.0
 10
51.838833
 20
117.805332
 30
0.0
 10
50.156492
 20
118.502181
 30
0.0
 10
48.402304
 20
118.502181
 30
0.0
  0
LWPOLYLINE
  5
180
100
AcDbEntity
  8
open-0
 62
7
100
AcDbPolyline
 90
1
 70
1
 10
1044.341443
 20
-22.427773
 30
0.0
  0
SPLINE
  5
181
100
AcDbEntity
  8
open-0
 62
7
100
AcDbSpline
 70
8
 71
3
 72
8
 73
4
 74
0
 40
0
 40
0
 40
0
 40
0
 40
1
 40
1
 40
1
 40
1
 10
1025.851200
 20
118.501315
 30
0.0
 10
1023.176017
 20
118.501315
 30
0.0
 10
1020.764249
 20
116.889824
 30
0.0
 10
1019.740501
 20
114.418277
 30
0.0
  0
SPLINE
  5
182
100
AcDbEntity
  8
open-0
 62
7
100
AcDbSpline
 70
8
 71
3
 72
8
 73
4
 74
0
 40
0
 40
0
 40
0
 40
0
 40
1
 40
1
 40
1
 40
1
 10
1019.740501
 20
114.418277
 30
0.0
 10
1018.716752
 20
111.946729
 30
0.0
 10
1019.282633
 20
109.101856
 30
0.0
 10
1021.174273
 20
107.210215
 30
0.0
  0
SPLINE
  5
183
100
AcDbEntity
  8
open-0
 62
7
100
AcDbSpline
 70
8
 71
3
 72
8
 73
4
 74
0
 40
0
 40
0
 40
0
 40
0
 40
1
 40
1
 40
1
 40
1
 10
1021.174273
 20
107.210215
 30
0.0
 10
1023.065914
 20
105.318575
 30
0.0
 10
1025.910787
 20
104.752694
 30
0.0
 10
1028.382335
 20
105.776443
 30
0.0
  0
SPLINE
  5
184
100
AcDbEntity
  8
open-0
 62
7
100
AcDbSpline
 70
8
 71
3
 72
8
 73
4
 74
0
 40
0
 40
0
 40
0
 40
0
 40
1
 40
1
 40
1
 40
1
 10
1028.382335
 20
105.776443
 30
0.0
 10
1030.853882
 20
106.800191
 30
0.0
 10
1032.465373
 20
109.211959
 30
0.0
 10
1032.465373
 20
111.887142
 30
0.0
  0
SPLINE
  5
185
100
AcDbEntity
  8
open-0
 62
7
100
AcDbSpline
 70
8
 71
3
 72
8
 73
4
 74
0
 40
0
 40
0
 40
0
 40
0
 40
1
 40
1
 40
1
 40
1
 10
1032.465373
 20
111.887142
 30
0.0
 10
1032.465373
 20
113.641330
 30
0.0
 10
1031.768525
 20
115.323671
 30
0.0
 10
1030.528127
 20
116.564069
 30
0.0
  0
SPLINE
  5
186
100
AcDbEntity
  8
open-0
 62
7
100
AcDbSpline
 70
8
 71
3
 72
8
 73
4
 74
0
 40
0
 40
0
 40
0
 40
0
 40
1
 40
1
 40
1
 40
1
 10
1030.528127
 20
116.564069
 30
0.0
 10
1029.287729
 20
117.804467
 30
0.0
 10
1027.605388
 20
118.501315
 30
0.0
 10
1025.851200
 20
118.501315
 30
0.0
  0
LWPOLYLINE
  5
187
100
AcDbEntity
  8
open-0
 62
7
100
AcDbPolyline
 90
1
 70
1
 10
48.402304
 20
118.502181
 30
0.0
  0
SPLINE
  5
188
100
AcDbEntity
  8
open-0
 62
7
100
AcDbSpline
 70
8
 71
3
 72
8
 73
4
 74
0
 40
0
 40
0
 40
0
 40
0
 40
1
 40
1
 40
1
 40
1
 10
48.403140
 20
-200.109933
 30
0.0
 10
44.750233
 20
-200.109933
 30
0.0
 10
41.788966
 20
-203.071199
 30
0.0
 10
41.788966
 20
-206.724106
 30
0.0
  0
SPLINE
  5
189
100
AcDbEntity
  8
open-0
 62
7
100
AcDbSpline
 70
8
 71
3
 72
8
 73
4
 74
0
 40
0
 40
0
 40
0
 40
0
 40
1
 40
1
 40
1
 40
1
 10
41.788966
 20
-206.724106
 30
0.0
 10
41.788966
 20
-210.377013
 30
0.0
 10
44.750233
 20
-213.338279
 30
0.0
 10
48.403140
 20
-213.338279
 30
0.0
  0
SPLINE
  5
18a
100
AcDbEntity
  8
open-0
 62
7
100
AcDbSpline
 70
8
 71
3
 72
8
 73
4
 74
0
 40
0
 40
0
 40
0
 40
0
 40
1
 40
1
 40
1
 40
1
 10
48.403140
 20
-213.338279
 30
0.0
 10
52.056047
 20
-213.338279
 30
0.0
 10
55.017313
 20
-210.377013
 30
0.0
 10
55.017313
 20
-206.724106
 30
0.0
  0
SPLINE
  5
18b
100
AcDbEntity
  8
open-0
 62
7
100
AcDbSpline
 70
8
 71
3
 72
8
 73
4
 74
0
 40
0
 40
0
 40
0
 40
0
 40
1
 40
1
 40
1
 40
1
 10
55.017313
 20
-206.724106
 30
0.0
 10
55.017313
 20
-204.969918
 30
0.0
 10
54.320464
 20
-203.287577
 30
0.0
 10
53.080066
 20
-202.047179
 30
0.0
  0
SPLINE
  5
18c
100
AcDbEntity
  8
open-0
 62
7
100
AcDbSpline
 70
8
 71
3
 72
8
 73
4
 74
0
 40
0
 40
0
 40
0
 40
0
 40
1
 40
1
 40
1
 40
1
 10
53.080066
 20
-202.047179
 30
0.0
 10
51.839668
 20
-200.806781
 30
0.0
 10
50.157327
 20
-200.109933
 30
0.0
 10
48.403140
 20
-200.109933
 30
0.0
  0
LWPOLYLINE
  5
18d
100
AcDbEntity
  8
open-0
 62
7
100
AcDbPolyline
 90
1
 70
1
 10
1025.851200
 20
118.501315
 30
0.0
  0
SPLINE
  5
18e
100
AcDbEntity
  8
open-0
 62
7
100
AcDbSpline
 70
8
 71
3
 72
8
 73
4
 74
0
 40
0
 40
0
 40
0
 40
0
 40
1
 40
1
 40
1
 40
1
 10
1025.851994
 20
-200.110507
 30
0.0
 10
1022.199087
 20
-200.110507
 30
0.0
 10
1019.237820
 20
-203.071773
 30
0.0
 10
1019.237820
 20
-206.724680
 30
0.0
  0
SPLINE
  5
18f
100
AcDbEntity
  8
open-0
 62
7
100
AcDbSpline
 70
8
 71
3
 72
8
 73
4
 74
0
 40
0
 40
0
 40
0
 40
0
 40
1
 40
1
 40
1
 40
1
 10
1019.237820
 20
-206.724680
 30
0.0
 10
1019.237820
 20
-210.377587
 30
0.0
 10
1022.199087
 20
-213.338854
 30
0.0
 10
1025.851994
 20
-213.338854
 30
0.0
  0
SPLINE
  5
190
100
AcDbEntity
  8
open-0
 62
7
100
AcDbSpline
 70
8
 71
3
 72
8
 73
4
 74
0
 40
0
 40
0
 40
0
 40
0
 40
1
 40
1
 40
1
 40
1
 10
1025.851994
 20
-213.338854
 30
0.0
 10
1029.504901
 20
-213.338854
 30
0.0
 10
1032.466167
 20
-210.377587
 30
0.0
 10
1032.466167
 20
-206.724680
 30
0.0
  0
SPLINE
  5
191
100
AcDbEntity
  8
open-0
 62
7
100
AcDbSpline
 70
8
 71
3
 72
8
 73
4
 74
0
 40
0
 40
0
 40
0
 40
0
 40
1
 40
1
 40
1
 40
1
 10
1032.466167
 20
-206.724680
 30
0.0
 10
1032.466167
 20
-204.970493
 30
0.0
 10
1031.769319
 20
-203.288152
 30
0.0
 10
1030.528920
 20
-202.047754
 30
0.0
  0
SPLINE
  5
192
100
AcDbEntity
  8
open-0
 62
7
100
AcDbSpline
 70
8
 71
3
 72
8
 73
4
 74
0
 40
0
 40
0
 40
0
 40
0
 40
1
 40
1
 40
1
 40
1
 10
1030.528920
 20
-202.047754
 30
0.0
 10
1029.288522
 20
-200.807355
 30
0.0
 10
1027.606182
 20
-200.110507
 30
0.0
 10
1025.851994
 20
-200.110507
 30
0.0
  0
LWPOLYLINE
  5
193
100
AcDbEntity
  8
open-0
 62
7
100
AcDbPolyline
 90
1
 70
1
 10
48.403140
 20
-200.109933
 30
0.0
  0
SPLINE
  5
194
100
AcDbEntity
  8
open-0
 62
7
100
AcDbSpline
 70
8
 71
3
 72
8
 73
4
 74
0
 40
0
 40
0
 40
0
 40
0
 40
1
 40
1
 40
1
 40
1
 10
604.103811
 20
136.013978
 30
0.0
 10
601.428628
 20
136.013978
 30
0.0
 10
599.016860
 20
134.402486
 30
0.0
 10
597.993112
 20
131.930939
 30
0.0
  0
SPLINE
  5
195
100
AcDbEntity
  8
open-0
 62
7
100
AcDbSpline
 70
8
 71
3
 72
8
 73
4
 74
0
 40
0
 40
0
 40
0
 40
0
 40
1
 40
1
 40
1
 40
1
 10
597.993112
 20
131.930939
 30
0.0
 10
596.969363
 20
129.459392
 30
0.0
 10
597.535244
 20
126.614518
 30
0.0
 10
599.426884
 20
124.722878
 30
0.0
  0
SPLINE
  5
196
100
AcDbEntity
  8
open-0
 62
7
100
AcDbSpline
 70
8
 71
3
 72
8
 73
4
 74
0
 40
0
 40
0
 40
0
 40
0
 40
1
 40
1
 40
1
 40
1
 10
599.426884
 20
124.722878
 30
0.0
 10
601.318525
 20
122.831237
 30
0.0
 10
604.163398
 20
122.265357
 30
0.0
 10
606.634946
 20
123.289105
 30
0.0
  0
SPLINE
  5
197
100
AcDbEntity
  8
open-0
 62
7
100
AcDbSpline
 70
8
 71
3
 72
8
 73
4
 74
0
 40
0
 40
0
 40
0
 40
0
 40
1
 40
1
 40
1
 40
1
 10
606.634946
 20
123.289105
 30
0.0
 10
609.106493
 20
124.312854
 30
0.0
 10
610.717984
 20
126.724621
 30
0.0
 10
610.717984
 20
129.399804
 30
0.0
  0
SPLINE
  5
198
100
AcDbEntity
  8
open-0
 62
7
100
AcDbSpline
 70
8
 71
3
 72
8
 73
4
 74
0
 40
0
 40
0
 40
0
 40
0
 40
1
 40
1
 40
1
 40
1
 10
610.717984
 20
129.399804
 30
0.0
 10
610.717984
 20
133.052711
 30
0.0
 10
607.756718
 20
136.013978
 30
0.0
 10
604.103811
 20
136.013978
 30
0.0
  0
LWPOLYLINE
  5
199
100
AcDbEntity
  8
open-0
 62
7
100
AcDbPolyline
 90
1
 70
1
 10
1025.851994
 20
-200.110507
 30
0.0
  0
SPLINE
  5
19a
100
AcDbEntity
  8
open-0
 62
7
100
AcDbSpline
 70
8
 71
3
 72
8
 73
4
 74
0
 40
0
 40
0
 40
0
 40
0
 40
1
 40
1
 40
1
 40
1
 10
395.332951
 20
-281.550255
 30
0.0
 10
392.657768
 20
-281.550255
 30
0.0
 10
390.246000
 20
-283.161747
 30
0.0
 10
389.222252
 20
-285.633294
 30
0.0
  0
SPLINE
  5
19b
100
AcDbEntity
  8
open-0
 62
7
100
AcDbSpline
 70
8
 71
3
 72
8
 73
4
 74
0
 40
0
 40
0
 40
0
 40
0
 40
1
 40
1
 40
1
 40
1
 10
389.222252
 20
-285.633294
 30
0.0
 10
388.198504
 20
-288.104841
 30
0.0
 10
388.764384
 20
-290.949715
 30
0.0
 10
390.656024
 20
-292.841355
 30
0.0
  0
SPLINE
  5
19c
100
AcDbEntity
  8
open-0
 62
7
100
AcDbSpline
 70
8
 71
3
 72
8
 73
4
 74
0
 40
0
 40
0
 40
0
 40
0
 40
1
 40
1
 40
1
 40
1
 10
390.656024
 20
-292.841355
 30
0.0
 10
392.547665
 20
-294.732995
 30
0.0
 10
395.392539
 20
-295.298876
 30
0.0
 10
397.864086
 20
-294.275128
 30
0.0
  0
SPLINE
  5
19d
100
AcDbEntity
  8
open-0
 62
7
100
AcDbSpline
 70
8
 71
3
 72
8
 73
4
 74
0
 40
0
 40
0
 40
0
 40
0
 40
1
 40
1
 40
1
 40
1
 10
397.864086
 20
-294.275128
 30
0.0
 10
400.335633
 20
-293.251379
 30
0.0
 10
401.947124
 20
-290.839612
 30
0.0
 10
401.947124
 20
-288.164428
 30
0.0
  0
SPLINE
  5
19e
100
AcDbEntity
  8
open-0
 62
7
100
AcDbSpline
 70
8
 71
3
 72
8
 73
4
 74
0
 40
0
 40
0
 40
0
 40
0
 40
1
 40
1
 40
1
 40
1
 10
401.947124
 20
-288.164428
 30
0.0
 10
401.947124
 20
-286.410241
 30
0.0
 10
401.250276
 20
-284.727900
 30
0.0
 10
400.009878
 20
-283.487502
 30
0.0
  0
SPLINE
  5
19f
100
AcDbEntity
  8
open-0
 62
7
100
AcDbSpline
 70
8
 71
3
 72
8
 73
4
 74
0
 40
0
 40
0
 40
0
 40
0
 40
1
 40
1
 40
1
 40
1
 10
400.009878
 20
-283.487502
 30
0.0
 10
398.769480
 20
-282.247104
 30
0.0
 10
397.087139
 20
-281.550255
 30
0.0
 10
395.332951
 20
-281.550255
 30
0.0
  0
LWPOLYLINE
  5
1a0
100
AcDbEntity
  8
open-0
 62
7
100
AcDbPolyline
 90
1
 70
1
 10
604.103811
 20
136.013978
 30
0.0
  0
SPLINE
  5
1a1
100
AcDbEntity
  8
open-0
 62
7
100
AcDbSpline
 70
8
 71
3
 72
8
 73
4
 74
0
 40
0
 40
0
 40
0
 40
0
 40
1
 40
1
 40
1
 40
1
 10
679.697008
 20
-281.550255
 30
0.0
 10
677.021825
 20
-281.550255
 30
0.0
 10
674.610057
 20
-283.161747
 30
0.0
 10
673.586309
 20
-285.633294
 30
0.0
  0
SPLINE
  5
1a2
100
AcDbEntity
  8
open-0
 62
7
100
AcDbSpline
 70
8
 71
3
 72
8
 73
4
 74
0
 40
0
 40
0
 40
0
 40
0
 40
1
 40
1
 40
1
 40
1
 10
673.586309
 20
-285.633294
 30
0.0
 10
672.562560
 20
-288.104841
 30
0.0
 10
673.128441
 20
-290.949715
 30
0.0
 10
675.020081
 20
-292.841355
 30
0.0
  0
SPLINE
  5
1a3
100
AcDbEntity
  8
open-0
 62
7
100
AcDbSpline
 70
8
 71
3
 72
8
 73
4
 74
0
 40
0
 40
0
 40
0
 40
0
 40
1
 40
1
 40
1
 40
1
 10
675.020081
 20
-292.841355
 30
0.0
 10
676.911721
 20
-294.732995
 30
0.0
 10
679.756595
 20
-295.298876
 30
0.0
 10
682.228142
 20
-294.275128
 30
0.0
  0
SPLINE
  5
1a4
100
AcDbEntity
  8
open-0
 62
7
100
AcDbSpline
 70
8
 71
3
 72
8
 73
4
 74
0
 40
0
 40
0
 40
0
 40
0
 40
1
 40
1
 40
1
 40
1
 10
682.228142
 20
-294.275128
 30
0.0
 10
684.699690
 20
-293.251379
 30
0.0
 10
686.311181
 20
-290.839612
 30
0.0
 10
686.311181
 20
-288.164428
 30
0.0
  0
SPLINE
  5
1a5
100
AcDbEntity
  8
open-0
 62
7
100
AcDbSpline
 70
8
 71
3
 72
8
 73
4
 74
0
 40
0
 40
0
 40
0
 40
0
 40
1
 40
1
 40
1
 40
1
 10
686.311181
 20
-288.164428
 30
0.0
 10
686.311181
 20
-286.410241
 30
0.0
 10
685.614333
 20
-284.727900
 30
0.0
 10
684.373935
 20
-283.487502
 30
0.0
  0
SPLINE
  5
1a6
100
AcDbEntity
  8
open-0
 62
7
100
AcDbSpline
 70
8
 71
3
 72
8
 73
4
 74
0
 40
0
 40
0
 40
0
 40
0
 40
1
 40
1
 40
1
 40
1
 10
684.373935
 20
-283.487502
 30
0.0
 10
683.133537
 20
-282.247104
 30
0.0
 10
681.451196
 20
-281.550255
 30
0.0
 10
679.697008
 20
-281.550255
 30
0.0
  0
LWPOLYLINE
  5
1a7
100
AcDbEntity
  8
open-0
 62
7
100
AcDbPolyline
 90
1
 70
1
 10
395.332951
 20
-281.550255
 30
0.0
  0
SPLINE
  5
1a8
100
AcDbEntity
  8
open-0
 62
7
100
AcDbSpline
 70
8
 71
3
 72
8
 73
4
 74
0
 40
0
 40
0
 40
0
 40
0
 40
1
 40
1
 40
1
 40
1
 10
261.323450
 20
135.961524
 30
0.0
 10
260.771171
 20
135.961511
 30
0.0
 10
260.323463
 20
135.513803
 30
0.0
 10
260.323450
 20
134.961524
 30
0.0
  0
SPLINE
  5
1a9
100
AcDbEntity
  8
open-0
 62
7
100
AcDbSpline
 70
8
 71
3
 72
8
 73
4
 74
0
 40
0
 40
0
 40
0
 40
0
 40
1
 40
1
 40
1
 40
1
 10
260.323450
 20
134.961524
 30
0.0
 10
260.323463
 20
134.409245
 30
0.0
 10
260.771171
 20
133.961537
 30
0.0
 10
261.323450
 20
133.961524
 30
0.0
  0
SPLINE
  5
1aa
100
AcDbEntity
  8
open-0
 62
7
100
AcDbSpline
 70
8
 71
3
 72
8
 73
4
 74
0
 40
0
 40
0
 40
0
 40
0
 40
1
 40
1
 40
1
 40
1
 10
261.323450
 20
133.961524
 30
0.0
 10
261.875729
 20
133.961537
 30
0.0
 10
262.323437
 20
134.409245
 30
0.0
 10
262.323450
 20
134.961524
 30
0.0
  0
SPLINE
  5
1ab
100
AcDbEntity
  8
open-0
 62
7
100
AcDbSpline
 70
8
 71
3
 72
8
 73
4
 74
0
 40
0
 40
0
 40
0
 40
0
 40
1
 40
1
 40
1
 40
1
 10
262.323450
 20
134.961524
 30
0.0
 10
262.323437
 20
135.513803
 30
0.0
 10
261.875729
 20
135.961511
 30
0.0
 10
261.323450
 20
135.961524
 30
0.0
  0
LWPOLYLINE
  5
1ac
100
AcDbEntity
  8
open-0
 62
7
100
AcDbPolyline
 90
1
 70
1
 10
679.697008
 20
-281.550255
 30
0.0
  0
SPLINE
  5
1ad
100
AcDbEntity
  8
open-0
 62
7
100
AcDbSpline
 70
8
 71
3
 72
8
 73
4
 74
0
 40
0
 40
0
 40
0
 40
0
 40
1
 40
1
 40
1
 40
1
 10
149.735452
 20
140.594524
 30
0.0
 10
149.183173
 20
140.594511
 30
0.0
 10
148.735465
 20
140.146803
 30
0.0
 10
148.735452
 20
139.594524
 30
0.0
  0
SPLINE
  5
1ae
100
AcDbEntity
  8
open-0
 62
7
100
AcDbSpline
 70
8
 71
3
 72
8
 73
4
 74
0
 40
0
 40
0
 40
0
 40
0
 40
1
 40
1
 40
1
 40
1
 10
148.735452
 20
139.594524
 30
0.0
 10
148.735465
 20
139.042245
 30
0.0
 10
149.183173
 20
138.594537
 30
0.0
 10
149.735452
 20
138.594524
 30
0.0
  0
SPLINE
  5
1af
100
AcDbEntity
  8
open-0
 62
7
100
AcDbSpline
 70
8
 71
3
 72
8
 73
4
 74
0
 40
0
 40
0
 40
0
 40
0
 40
1
 40
1
 40
1
 40
1
 10
149.735452
 20
138.594524
 30
0.0
 10
150.287731
 20
138.594537
 30
0.0
 10
150.735439
 20
139.042245
 30
0.0
 10
150.735452
 20
139.594524
 30
0.0
  0
SPLINE
  5
1b0
100
AcDbEntity
  8
open-0
 62
7
100
AcDbSpline
 70
8
 71
3
 72
8
 73
4
 74
0
 40
0
 40
0
 40
0
 40
0
 40
1
 40
1
 40
1
 40
1
 10
150.735452
 20
139.594524
 30
0.0
 10
150.735439
 20
140.146803
 30
0.0
 10
150.287731
 20
140.594511
 30
0.0
 10
149.735452
 20
140.594524
 30
0.0
  0
LWPOLYLINE
  5
1b1
100
AcDbEntity
  8
open-0
 62
7
100
AcDbPolyline
 90
1
 70
1
 10
261.323450
 20
135.961524
 30
0.0
  0
SPLINE
  5
1b2
100
AcDbEntity
  8
open-0
 62
7
100
AcDbSpline
 70
8
 71
3
 72
8
 73
4
 74
0
 40
0
 40
0
 40
0
 40
0
 40
1
 40
1
 40
1
 40
1
 10
512.876220
 20
85.933795
 30
0.0
 10
511.347508
 20
85.933795
 30
0.0
 10
509.969322
 20
85.012920
 30
0.0
 10
509.384309
 20
83.600574
 30
0.0
  0
SPLINE
  5
1b3
100
AcDbEntity
  8
open-0
 62
7
100
AcDbSpline
 70
8
 71
3
 72
8
 73
4
 74
0
 40
0
 40
0
 40
0
 40
0
 40
1
 40
1
 40
1
 40
1
 10
509.384309
 20
83.600574
 30
0.0
 10
508.799295
 20
82.188228
 30
0.0
 10
509.122664
 20
80.562547
 30
0.0
 10
510.203627
 20
79.481584
 30
0.0
  0
SPLINE
  5
1b4
100
AcDbEntity
  8
open-0
 62
7
100
AcDbSpline
 70
8
 71
3
 72
8
 73
4
 74
0
 40
0
 40
0
 40
0
 40
0
 40
1
 40
1
 40
1
 40
1
 10
510.203627
 20
79.481584
 30
0.0
 10
511.284590
 20
78.400621
 30
0.0
 10
512.910271
 20
78.077253
 30
0.0
 10
514.322618
 20
78.662266
 30
0.0
  0
SPLINE
  5
1b5
100
AcDbEntity
  8
open-0
 62
7
100
AcDbSpline
 70
8
 71
3
 72
8
 73
4
 74
0
 40
0
 40
0
 40
0
 40
0
 40
1
 40
1
 40
1
 40
1
 10
514.322618
 20
78.662266
 30
0.0
 10
515.734964
 20
79.247279
 30
0.0
 10
516.655839
 20
80.625464
 30
0.0
 10
516.655839
 20
82.154177
 30
0.0
  0
SPLINE
  5
1b6
100
AcDbEntity
  8
open-0
 62
7
100
AcDbSpline
 70
8
 71
3
 72
8
 73
4
 74
0
 40
0
 40
0
 40
0
 40
0
 40
1
 40
1
 40
1
 40
1
 10
516.655839
 20
82.154177
 30
0.0
 10
516.655839
 20
83.156594
 30
0.0
 10
516.257630
 20
84.117954
 30
0.0
 10
515.548814
 20
84.826770
 30
0.0
  0
SPLINE
  5
1b7
100
AcDbEntity
  8
open-0
 62
7
100
AcDbSpline
 70
8
 71
3
 72
8
 73
4
 74
0
 40
0
 40
0
 40
0
 40
0
 40
1
 40
1
 40
1
 40
1
 10
515.548814
 20
84.826770
 30
0.0
 10
514.839998
 20
85.535586
 30
0.0
 10
513.878638
 20
85.933795
 30
0.0
 10
512.876220
 20
85.933795
 30
0.0
  0
LWPOLYLINE
  5
1b8
100
AcDbEntity
  8
open-0
 62
7
100
AcDbPolyline
 90
1
 70
1
 10
149.735452
 20
140.594524
 30
0.0
  0
SPLINE
  5
1b9
100
AcDbEntity
  8
open-0
 62
7
100
AcDbSpline
 70
8
 71
3
 72
8
 73
4
 74
0
 40
0
 40
0
 40
0
 40
0
 40
1
 40
1
 40
1
 40
1
 10
90.355276
 20
68.423240
 30
0.0
 10
88.826563
 20
68.423240
 30
0.0
 10
87.448377
 20
67.502365
 30
0.0
 10
86.863364
 20
66.090019
 30
0.0
  0
SPLINE
  5
1ba
100
AcDbEntity
  8
open-0
 62
7
100
AcDbSpline
 70
8
 71
3
 72
8
 73
4
 74
0
 40
0
 40
0
 40
0
 40
0
 40
1
 40
1
 40
1
 40
1
 10
86.863364
 20
66.090019
 30
0.0
 10
86.278351
 20
64.677673
 30
0.0
 10
86.601719
 20
63.051992
 30
0.0
 10
87.682682
 20
61.971029
 30
0.0
  0
SPLINE
  5
1bb
100
AcDbEntity
  8
open-0
 62
7
100
AcDbSpline
 70
8
 71
3
 72
8
 73
4
 74
0
 40
0
 40
0
 40
0
 40
0
 40
1
 40
1
 40
1
 40
1
 10
87.682682
 20
61.971029
 30
0.0
 10
88.763645
 20
60.890066
 30
0.0
 10
90.389326
 20
60.566698
 30
0.0
 10
91.801673
 20
61.151711
 30
0.0
  0
SPLINE
  5
1bc
100
AcDbEntity
  8
open-0
 62
7
100
AcDbSpline
 70
8
 71
3
 72
8
 73
4
 74
0
 40
0
 40
0
 40
0
 40
0
 40
1
 40
1
 40
1
 40
1
 10
91.801673
 20
61.151711
 30
0.0
 10
93.214019
 20
61.736724
 30
0.0
 10
94.134894
 20
63.114909
 30
0.0
 10
94.134894
 20
64.643622
 30
0.0
  0
SPLINE
  5
1bd
100
AcDbEntity
  8
open-0
 62
7
100
AcDbSpline
 70
8
 71
3
 72
8
 73
4
 74
0
 40
0
 40
0
 40
0
 40
0
 40
1
 40
1
 40
1
 40
1
 10
94.134894
 20
64.643622
 30
0.0
 10
94.134894
 20
65.646039
 30
0.0
 10
93.736685
 20
66.607399
 30
0.0
 10
93.027869
 20
67.316215
 30
0.0
  0
SPLINE
  5
1be
100
AcDbEntity
  8
open-0
 62
7
100
AcDbSpline
 70
8
 71
3
 72
8
 73
4
 74
0
 40
0
 40
0
 40
0
 40
0
 40
1
 40
1
 40
1
 40
1
 10
93.027869
 20
67.316215
 30
0.0
 10
92.319053
 20
68.025031
 30
0.0
 10
91.357693
 20
68.423240
 30
0.0
 10
90.355276
 20
68.423240
 30
0.0
  0
LWPOLYLINE
  5
1bf
100
AcDbEntity
  8
open-0
 62
7
100
AcDbPolyline
 90
1
 70
1
 10
512.876220
 20
85.933795
 30
0.0
  0
SPLINE
  5
1c0
100
AcDbEntity
  8
open-0
 62
7
100
AcDbSpline
 70
8
 71
3
 72
8
 73
4
 74
0
 40
0
 40
0
 40
0
 40
0
 40
1
 40
1
 40
1
 40
1
 10
260.823890
 20
117.961525
 30
0.0
 10
260.271611
 20
117.961512
 30
0.0
 10
259.823903
 20
117.513804
 30
0.0
 10
259.823890
 20
116.961525
 30
0.0
  0
SPLINE
  5
1c1
100
AcDbEntity
  8
open-0
 62
7
100
AcDbSpline
 70
8
 71
3
 72
8
 73
4
 74
0
 40
0
 40
0
 40
0
 40
0
 40
1
 40
1
 40
1
 40
1
 10
259.823890
 20
116.961525
 30
0.0
 10
259.823903
 20
116.409246
 30
0.0
 10
260.271611
 20
115.961538
 30
0.0
 10
260.823890
 20
115.961525
 30
0.0
  0
SPLINE
  5
1c2
100
AcDbEntity
  8
open-0
 62
7
100
AcDbSpline
 70
8
 71
3
 72
8
 73
4
 74
0
 40
0
 40
0
 40
0
 40
0
 40
1
 40
1
 40
1
 40
1
 10
260.823890
 20
115.961525
 30
0.0
 10
261.376169
 20
115.961538
 30
0.0
 10
261.823877
 20
116.409246
 30
0.0
 10
261.823890
 20
116.961525
 30
0.0
  0
SPLINE
  5
1c3
100
AcDbEntity
  8
open-0
 62
7
100
AcDbSpline
 70
8
 71
3
 72
8
 73
4
 74
0
 40
0
 40
0
 40
0
 40
0
 40
1
 40
1
 40
1
 40
1
 10
261.823890
 20
116.961525
 30
0.0
 10
261.823877
 20
117.513804
 30
0.0
 10
261.376169
 20
117.961512
 30
0.0
 10
260.823890
 20
117.961525
 30
0.0
  0
LWPOLYLINE
  5
1c4
100
AcDbEntity
  8
open-0
 62
7
100
AcDbPolyline
 90
1
 70
1
 10
90.355276
 20
68.423240
 30
0.0
  0
SPLINE
  5
1c5
100
AcDbEntity
  8
open-0
 62
7
100
AcDbSpline
 70
8
 71
3
 72
8
 73
4
 74
0
 40
0
 40
0
 40
0
 40
0
 40
1
 40
1
 40
1
 40
1
 10
149.235885
 20
122.594525
 30
0.0
 10
148.683606
 20
122.594512
 30
0.0
 10
148.235899
 20
122.146804
 30
0.0
 10
148.235885
 20
121.594525
 30
0.0
  0
SPLINE
  5
1c6
100
AcDbEntity
  8
open-0
 62
7
100
AcDbSpline
 70
8
 71
3
 72
8
 73
4
 74
0
 40
0
 40
0
 40
0
 40
0
 40
1
 40
1
 40
1
 40
1
 10
148.235885
 20
121.594525
 30
0.0
 10
148.235899
 20
121.042246
 30
0.0
 10
148.683606
 20
120.594538
 30
0.0
 10
149.235885
 20
120.594525
 30
0.0
  0
SPLINE
  5
1c7
100
AcDbEntity
  8
open-0
 62
7
100
AcDbSpline
 70
8
 71
3
 72
8
 73
4
 74
0
 40
0
 40
0
 40
0
 40
0
 40
1
 40
1
 40
1
 40
1
 10
149.235885
 20
120.594525
 30
0.0
 10
149.788165
 20
120.594538
 30
0.0
 10
150.235872
 20
121.042246
 30
0.0
 10
150.235885
 20
121.594525
 30
0.0
  0
SPLINE
  5
1c8
100
AcDbEntity
  8
open-0
 62
7
100
AcDbSpline
 70
8
 71
3
 72
8
 73
4
 74
0
 40
0
 40
0
 40
0
 40
0
 40
1
 40
1
 40
1
 40
1
 10
150.235885
 20
121.594525
 30
0.0
 10
150.235872
 20
122.146804
 30
0.0
 10
149.788165
 20
122.594512
 30
0.0
 10
149.235885
 20
122.594525
 30
0.0
  0
LWPOLYLINE
  5
1c9
100
AcDbEntity
  8
open-0
 62
7
100
AcDbPolyline
 90
1
 70
1
 10
260.823890
 20
117.961525
 30
0.0
  0
SPLINE
  5
1ca
100
AcDbEntity
  8
open-0
 62
7
100
AcDbSpline
 70
8
 71
3
 72
8
 73
4
 74
0
 40
0
 40
0
 40
0
 40
0
 40
1
 40
1
 40
1
 40
1
 10
510.992504
 20
17.902291
 30
0.0
 10
509.463791
 20
17.902291
 30
0.0
 10
508.085605
 20
16.981417
 30
0.0
 10
507.500592
 20
15.569070
 30
0.0
  0
SPLINE
  5
1cb
100
AcDbEntity
  8
open-0
 62
7
100
AcDbSpline
 70
8
 71
3
 72
8
 73
4
 74
0
 40
0
 40
0
 40
0
 40
0
 40
1
 40
1
 40
1
 40
1
 10
507.500592
 20
15.569070
 30
0.0
 10
506.915579
 20
14.156724
 30
0.0
 10
507.238947
 20
12.531043
 30
0.0
 10
508.319910
 20
11.450080
 30
0.0
  0
SPLINE
  5
1cc
100
AcDbEntity
  8
open-0
 62
7
100
AcDbSpline
 70
8
 71
3
 72
8
 73
4
 74
0
 40
0
 40
0
 40
0
 40
0
 40
1
 40
1
 40
1
 40
1
 10
508.319910
 20
11.450080
 30
0.0
 10
509.400873
 20
10.369117
 30
0.0
 10
511.026555
 20
10.045749
 30
0.0
 10
512.438901
 20
10.630762
 30
0.0
  0
SPLINE
  5
1cd
100
AcDbEntity
  8
open-0
 62
7
100
AcDbSpline
 70
8
 71
3
 72
8
 73
4
 74
0
 40
0
 40
0
 40
0
 40
0
 40
1
 40
1
 40
1
 40
1
 10
512.438901
 20
10.630762
 30
0.0
 10
513.851248
 20
11.215775
 30
0.0
 10
514.772122
 20
12.593961
 30
0.0
 10
514.772122
 20
14.122673
 30
0.0
  0
SPLINE
  5
1ce
100
AcDbEntity
  8
open-0
 62
7
100
AcDbSpline
 70
8
 71
3
 72
8
 73
4
 74
0
 40
0
 40
0
 40
0
 40
0
 40
1
 40
1
 40
1
 40
1
 10
514.772122
 20
14.122673
 30
0.0
 10
514.772122
 20
15.125090
 30
0.0
 10
514.373914
 20
16.086451
 30
0.0
 10
513.665098
 20
16.795267
 30
0.0
  0
SPLINE
  5
1cf
100
AcDbEntity
  8
open-0
 62
7
100
AcDbSpline
 70
8
 71
3
 72
8
 73
4
 74
0
 40
0
 40
0
 40
0
 40
0
 40
1
 40
1
 40
1
 40
1
 10
513.665098
 20
16.795267
 30
0.0
 10
512.956282
 20
17.504082
 30
0.0
 10
511.994921
 20
17.902291
 30
0.0
 10
510.992504
 20
17.902291
 30
0.0
  0
LWPOLYLINE
  5
1d0
100
AcDbEntity
  8
open-0
 62
7
100
AcDbPolyline
 90
1
 70
1
 10
149.235885
 20
122.594525
 30
0.0
  0
SPLINE
  5
1d1
100
AcDbEntity
  8
open-0
 62
7
100
AcDbSpline
 70
8
 71
3
 72
8
 73
4
 74
0
 40
0
 40
0
 40
0
 40
0
 40
1
 40
1
 40
1
 40
1
 10
88.471567
 20
0.391743
 30
0.0
 10
86.942854
 20
0.391743
 30
0.0
 10
85.564668
 20
-0.529131
 30
0.0
 10
84.979655
 20
-1.941477
 30
0.0
  0
SPLINE
  5
1d2
100
AcDbEntity
  8
open-0
 62
7
100
AcDbSpline
 70
8
 71
3
 72
8
 73
4
 74
0
 40
0
 40
0
 40
0
 40
0
 40
1
 40
1
 40
1
 40
1
 10
84.979655
 20
-1.941477
 30
0.0
 10
84.394642
 20
-3.353823
 30
0.0
 10
84.718010
 20
-4.979504
 30
0.0
 10
85.798973
 20
-6.060467
 30
0.0
  0
SPLINE
  5
1d3
100
AcDbEntity
  8
open-0
 62
7
100
AcDbSpline
 70
8
 71
3
 72
8
 73
4
 74
0
 40
0
 40
0
 40
0
 40
0
 40
1
 40
1
 40
1
 40
1
 10
85.798973
 20
-6.060467
 30
0.0
 10
86.879936
 20
-7.141430
 30
0.0
 10
88.505617
 20
-7.464798
 30
0.0
 10
89.917964
 20
-6.879785
 30
0.0
  0
SPLINE
  5
1d4
100
AcDbEntity
  8
open-0
 62
7
100
AcDbSpline
 70
8
 71
3
 72
8
 73
4
 74
0
 40
0
 40
0
 40
0
 40
0
 40
1
 40
1
 40
1
 40
1
 10
89.917964
 20
-6.879785
 30
0.0
 10
91.330310
 20
-6.294772
 30
0.0
 10
92.251185
 20
-4.916587
 30
0.0
 10
92.251185
 20
-3.387874
 30
0.0
  0
SPLINE
  5
1d5
100
AcDbEntity
  8
open-0
 62
7
100
AcDbSpline
 70
8
 71
3
 72
8
 73
4
 74
0
 40
0
 40
0
 40
0
 40
0
 40
1
 40
1
 40
1
 40
1
 10
92.251185
 20
-3.387874
 30
0.0
 10
92.251185
 20
-2.385457
 30
0.0
 10
91.852976
 20
-1.424097
 30
0.0
 10
91.144160
 20
-0.715281
 30
0.0
  0
SPLINE
  5
1d6
100
AcDbEntity
  8
open-0
 62
7
100
AcDbSpline
 70
8
 71
3
 72
8
 73
4
 74
0
 40
0
 40
0
 40
0
 40
0
 40
1
 40
1
 40
1
 40
1
 10
91.144160
 20
-0.715281
 30
0.0
 10
90.435344
 20
-0.006465
 30
0.0
 10
89.473984
 20
0.391743
 30
0.0
 10
88.471567
 20
0.391743
 30
0.0
  0
LWPOLYLINE
  5
1d7
100
AcDbEntity
  8
open-0
 62
7
100
AcDbPolyline
 90
1
 70
1
 10
510.992504
 20
17.902291
 30
0.0
  0
SPLINE
  5
1d8
100
AcDbEntity
  8
open-0
 62
7
100
AcDbSpline
 70
8
 71
3
 72
8
 73
4
 74
0
 40
0
 40
0
 40
0
 40
0
 40
1
 40
1
 40
1
 40
1
 10
260.324210
 20
97.961498
 30
0.0
 10
259.771931
 20
97.961485
 30
0.0
 10
259.324223
 20
97.513777
 30
0.0
 10
259.324210
 20
96.961498
 30
0.0
  0
SPLINE
  5
1d9
100
AcDbEntity
  8
open-0
 62
7
100
AcDbSpline
 70
8
 71
3
 72
8
 73
4
 74
0
 40
0
 40
0
 40
0
 40
0
 40
1
 40
1
 40
1
 40
1
 10
259.324210
 20
96.961498
 30
0.0
 10
259.324223
 20
96.409219
 30
0.0
 10
259.771931
 20
95.961511
 30
0.0
 10
260.324210
 20
95.961498
 30
0.0
  0
SPLINE
  5
1da
100
AcDbEntity
  8
open-0
 62
7
100
AcDbSpline
 70
8
 71
3
 72
8
 73
4
 74
0
 40
0
 40
0
 40
0
 40
0
 40
1
 40
1
 40
1
 40
1
 10
260.324210
 20
95.961498
 30
0.0
 10
260.876489
 20
95.961511
 30
0.0
 10
261.324197
 20
96.409219
 30
0.0
 10
261.324210
 20
96.961498
 30
0.0
  0
SPLINE
  5
1db
100
AcDbEntity
  8
open-0
 62
7
100
AcDbSpline
 70
8
 71
3
 72
8
 73
4
 74
0
 40
0
 40
0
 40
0
 40
0
 40
1
 40
1
 40
1
 40
1
 10
261.324210
 20
96.961498
 30
0.0
 10
261.324197
 20
97.513777
 30
0.0
 10
260.876489
 20
97.961485
 30
0.0
 10
260.324210
 20
97.961498
 30
0.0
  0
LWPOLYLINE
  5
1dc
100
AcDbEntity
  8
open-0
 62
7
100
AcDbPolyline
 90
1
 70
1
 10
88.471567
 20
0.391743
 30
0.0
  0
SPLINE
  5
1dd
100
AcDbEntity
  8
open-0
 62
7
100
AcDbSpline
 70
8
 71
3
 72
8
 73
4
 74
0
 40
0
 40
0
 40
0
 40
0
 40
1
 40
1
 40
1
 40
1
 10
148.736199
 20
102.594498
 30
0.0
 10
148.183920
 20
102.594485
 30
0.0
 10
147.736212
 20
102.146777
 30
0.0
 10
147.736199
 20
101.594498
 30
0.0
  0
SPLINE
  5
1de
100
AcDbEntity
  8
open-0
 62
7
100
AcDbSpline
 70
8
 71
3
 72
8
 73
4
 74
0
 40
0
 40
0
 40
0
 40
0
 40
1
 40
1
 40
1
 40
1
 10
147.736199
 20
101.594498
 30
0.0
 10
147.736212
 20
101.042219
 30
0.0
 10
148.183920
 20
100.594511
 30
0.0
 10
148.736199
 20
100.594498
 30
0.0
  0
SPLINE
  5
1df
100
AcDbEntity
  8
open-0
 62
7
100
AcDbSpline
 70
8
 71
3
 72
8
 73
4
 74
0
 40
0
 40
0
 40
0
 40
0
 40
1
 40
1
 40
1
 40
1
 10
148.736199
 20
100.594498
 30
0.0
 10
149.288478
 20
100.594511
 30
0.0
 10
149.736186
 20
101.042219
 30
0.0
 10
149.736199
 20
101.594498
 30
0.0
  0
SPLINE
  5
1e0
100
AcDbEntity
  8
open-0
 62
7
100
AcDbSpline
 70
8
 71
3
 72
8
 73
4
 74
0
 40
0
 40
0
 40
0
 40
0
 40
1
 40
1
 40
1
 40
1
 10
149.736199
 20
101.594498
 30
0.0
 10
149.736186
 20
102.146777
 30
0.0
 10
149.288478
 20
102.594485
 30
0.0
 10
148.736199
 20
102.594498
 30
0.0
  0
LWPOLYLINE
  5
1e1
100
AcDbEntity
  8
open-0
 62
7
100
AcDbPolyline
 90
1
 70
1
 10
260.324210
 20
97.961498
 30
0.0
  0
SPLINE
  5
1e2
100
AcDbEntity
  8
open-0
 62
7
100
AcDbSpline
 70
8
 71
3
 72
8
 73
4
 74
0
 40
0
 40
0
 40
0
 40
0
 40
1
 40
1
 40
1
 40
1
 10
509.103912
 20
-57.688461
 30
0.0
 10
507.575199
 20
-57.688461
 30
0.0
 10
506.197013
 20
-58.609335
 30
0.0
 10
505.612000
 20
-60.021681
 30
0.0
  0
SPLINE
  5
1e3
100
AcDbEntity
  8
open-0
 62
7
100
AcDbSpline
 70
8
 71
3
 72
8
 73
4
 74
0
 40
0
 40
0
 40
0
 40
0
 40
1
 40
1
 40
1
 40
1
 10
505.612000
 20
-60.021681
 30
0.0
 10
505.026987
 20
-61.434027
 30
0.0
 10
505.350355
 20
-63.059708
 30
0.0
 10
506.431318
 20
-64.140671
 30
0.0
  0
SPLINE
  5
1e4
100
AcDbEntity
  8
open-0
 62
7
100
AcDbSpline
 70
8
 71
3
 72
8
 73
4
 74
0
 40
0
 40
0
 40
0
 40
0
 40
1
 40
1
 40
1
 40
1
 10
506.431318
 20
-64.140671
 30
0.0
 10
507.512281
 20
-65.221634
 30
0.0
 10
509.137963
 20
-65.545002
 30
0.0
 10
510.550309
 20
-64.959989
 30
0.0
  0
SPLINE
  5
1e5
100
AcDbEntity
  8
open-0
 62
7
100
AcDbSpline
 70
8
 71
3
 72
8
 73
4
 74
0
 40
0
 40
0
 40
0
 40
0
 40
1
 40
1
 40
1
 40
1
 10
510.550309
 20
-64.959989
 30
0.0
 10
511.962656
 20
-64.374976
 30
0.0
 10
512.883530
 20
-62.996791
 30
0.0
 10
512.883530
 20
-61.468078
 30
0.0
  0
SPLINE
  5
1e6
100
AcDbEntity
  8
open-0
 62
7
100
AcDbSpline
 70
8
 71
3
 72
8
 73
4
 74
0
 40
0
 40
0
 40
0
 40
0
 40
1
 40
1
 40
1
 40
1
 10
512.883530
 20
-61.468078
 30
0.0
 10
512.883530
 20
-60.465661
 30
0.0
 10
512.485321
 20
-59.504301
 30
0.0
 10
511.776506
 20
-58.795485
 30
0.0
  0
SPLINE
  5
1e7
100
AcDbEntity
  8
open-0
 62
7
100
AcDbSpline
 70
8
 71
3
 72
8
 73
4
 74
0
 40
0
 40
0
 40
0
 40
0
 40
1
 40
1
 40
1
 40
1
 10
511.776506
 20
-58.795485
 30
0.0
 10
511.067690
 20
-58.086669
 30
0.0
 10
510.106329
 20
-57.688461
 30
0.0
 10
509.103912
 20
-57.688461
 30
0.0
  0
LWPOLYLINE
  5
1e8
100
AcDbEntity
  8
open-0
 62
7
100
AcDbPolyline
 90
1
 70
1
 10
148.736199
 20
102.594498
 30
0.0
  0
SPLINE
  5
1e9
100
AcDbEntity
  8
open-0
 62
7
100
AcDbSpline
 70
8
 71
3
 72
8
 73
4
 74
0
 40
0
 40
0
 40
0
 40
0
 40
1
 40
1
 40
1
 40
1
 10
86.582956
 20
-75.198997
 30
0.0
 10
85.054243
 20
-75.198997
 30
0.0
 10
83.676057
 20
-76.119871
 30
0.0
 10
83.091044
 20
-77.532217
 30
0.0
  0
SPLINE
  5
1ea
100
AcDbEntity
  8
open-0
 62
7
100
AcDbSpline
 70
8
 71
3
 72
8
 73
4
 74
0
 40
0
 40
0
 40
0
 40
0
 40
1
 40
1
 40
1
 40
1
 10
83.091044
 20
-77.532217
 30
0.0
 10
82.506031
 20
-78.944563
 30
0.0
 10
82.829399
 20
-80.570244
 30
0.0
 10
83.910362
 20
-81.651207
 30
0.0
  0
SPLINE
  5
1eb
100
AcDbEntity
  8
open-0
 62
7
100
AcDbSpline
 70
8
 71
3
 72
8
 73
4
 74
0
 40
0
 40
0
 40
0
 40
0
 40
1
 40
1
 40
1
 40
1
 10
83.910362
 20
-81.651207
 30
0.0
 10
84.991325
 20
-82.732170
 30
0.0
 10
86.617006
 20
-83.055538
 30
0.0
 10
88.029353
 20
-82.470525
 30
0.0
  0
SPLINE
  5
1ec
100
AcDbEntity
  8
open-0
 62
7
100
AcDbSpline
 70
8
 71
3
 72
8
 73
4
 74
0
 40
0
 40
0
 40
0
 40
0
 40
1
 40
1
 40
1
 40
1
 10
88.029353
 20
-82.470525
 30
0.0
 10
89.441699
 20
-81.885512
 30
0.0
 10
90.362574
 20
-80.507327
 30
0.0
 10
90.362574
 20
-78.978614
 30
0.0
  0
SPLINE
  5
1ed
100
AcDbEntity
  8
open-0
 62
7
100
AcDbSpline
 70
8
 71
3
 72
8
 73
4
 74
0
 40
0
 40
0
 40
0
 40
0
 40
1
 40
1
 40
1
 40
1
 10
90.362574
 20
-78.978614
 30
0.0
 10
90.362574
 20
-76.891189
 30
0.0
 10
88.670381
 20
-75.198997
 30
0.0
 10
86.582956
 20
-75.198997
 30
0.0
  0
LWPOLYLINE
  5
1ee
100
AcDbEntity
  8
open-0
 62
7
100
AcDbPolyline
 90
1
 70
1
 10
509.103912
 20
-57.688461
 30
0.0
  0
LWPOLYLINE
  5
1ef
100
AcDbEntity
  8
open-0
 62
7
100
AcDbPolyline
 90
1
 70
1
 10
86.582956
 20
-75.198997
 30
0.0
  0
ENDSEC
  0
SECTION
  2
OBJECTS
  0
DICTIONARY
  5
C
330
0
100
AcDbDictionary
  3
ACAD_GROUP
350
D
  3
ACAD_MLINESTYLE
350
17
  0
DICTIONARY
  5
D
330
C
100
AcDbDictionary
  0
DICTIONARY
  5
1A
330
C
100
AcDbDictionary
  0
DICTIONARY
  5
17
330
C
100
AcDbDictionary
  3
STANDARD
350
18
  0
DICTIONARY
  5
19
330
C
100
AcDbDictionary
  0
ENDSEC
  0
EOF
