  0
SECTION
  2
HEADER
  9
$ACADVER
  1
AC1014
  9
$HANDSEED
  5
FFFF
  9
$MEASUREMENT
 70
     1
  0
ENDSEC
  0
SECTION
  2
TABLES
  0
TABLE
  2
VPORT
  5
8
330
0
100
AcDbSymbolTable
 70
     4
  0
VPORT
  5
2E
330
8
100
AcDbSymbolTableRecord
100
AcDbViewportTableRecord
  2
*ACTIVE
 70
     0
 10
0.0
 20
0.0
 11
1.0
 21
1.0
 12
210.0
 22
148.5
 13
0.0
 23
0.0
 14
10.0
 24
10.0
 15
10.0
 25
10.0
 16
0.0
 26
0.0
 36
1.0
 17
0.0
 27
0.0
 37
0.0
 40
341.0
 41
1.24
 42
50.0
 43
0.0
 44
0.0
 50
0.0
 51
0.0
 71
     0
 72
   100
 73
     1
 74
     3
 75
     0
 76
     0
 77
     0
 78
     0
  0
ENDTAB
  0
TABLE
  2
LTYPE
  5
5
330
0
100
AcDbSymbolTable
 70
     1
  0
LTYPE
  5
14
330
5
100
AcDbSymbolTableRecord
100
AcDbLinetypeTableRecord
  2
BYBLOCK
 70
     0
  3

 72
    65
 73
     0
 40
0.0
  0
LTYPE
  5
15
330
5
100
AcDbSymbolTableRecord
100
AcDbLinetypeTableRecord
  2
BYLAYER
 70
     0
  3

 72
    65
 73
     0
 40
0.0
  0
LTYPE
  5
16
330
5
100
AcDbSymbolTableRecord
100
AcDbLinetypeTableRecord
  2
CONTINUOUS
 70
     0
  3
Solid line
 72
    65
 73
     0
 40
0.0
  0
ENDTAB
  0
TABLE
  2
LAYER
  5
2
100
AcDbSymbolTable
 70
2
  0
LAYER
  5
50
100
AcDbSymbolTableRecord
100
AcDbLayerTableRecord
  2
0
 70
0
  6
CONTINUOUS
  0
LAYER
  5
51
100
AcDbSymbolTableRecord
100
AcDbLayerTableRecord
  2
open-0
 70
0
  6
CONTINUOUS
  0
ENDTAB
  0
TABLE
  2
STYLE
  5
3
330
0
100
AcDbSymbolTable
 70
     1
  0
STYLE
  5
11
330
3
100
AcDbSymbolTableRecord
100
AcDbTextStyleTableRecord
  2
STANDARD
 70
     0
 40
0.0
 41
1.0
 50
0.0
 71
     0
 42
2.5
  3
txt
  4

  0
ENDTAB
  0
TABLE
  2
VIEW
  5
6
330
0
100
AcDbSymbolTable
 70
     0
  0
ENDTAB
  0
TABLE
  2
UCS
  5
7
330
0
100
AcDbSymbolTable
 70
     0
  0
ENDTAB
  0
TABLE
  2
APPID
  5
9
330
0
100
AcDbSymbolTable
 70
     2
  0
APPID
  5
12
330
9
100
AcDbSymbolTableRecord
100
AcDbRegAppTableRecord
  2
ACAD
 70
     0
  0
ENDTAB
  0
TABLE
  2
DIMSTYLE
  5
A
330
0
100
AcDbSymbolTable
 70
     1
  0
DIMSTYLE
105
27
330
A
100
AcDbSymbolTableRecord
100
AcDbDimStyleTableRecord
  2
ISO-25
 70
     0
  3

  4

  5

  6

  7

 40
1.0
 41
2.5
 42
0.625
 43
3.75
 44
1.25
 45
0.0
 46
0.0
 47
0.0
 48
0.0
140
2.5
141
2.5
142
0.0
143
0.03937007874016
144
1.0
145
0.0
146
1.0
147
0.625
 71
     0
 72
     0
 73
     0
 74
     0
 75
     0
 76
     0
 77
     1
 78
     8
170
     0
171
     3
172
     1
173
     0
174
     0
175
     0
176
     0
177
     0
178
     0
270
     2
271
     2
272
     2
273
     2
274
     3
340
11
275
     0
280
     0
281
     0
282
     0
283
     0
284
     8
285
     0
286
     0
287
     3
288
     0
  0
ENDTAB
  0
TABLE
  2
BLOCK_RECORD
  5
1
330
0
100
AcDbSymbolTable
 70
     1
  0
BLOCK_RECORD
  5
1F
330
1
100
AcDbSymbolTableRecord
100
AcDbBlockTableRecord
  2
*MODEL_SPACE
  0
BLOCK_RECORD
  5
1B
330
1
100
AcDbSymbolTableRecord
100
AcDbBlockTableRecord
  2
*PAPER_SPACE
  0
ENDTAB
  0
ENDSEC
  0
SECTION
  2
BLOCKS
  0
BLOCK
  5
20
330
1F
100
AcDbEntity
  8
0
100
AcDbBlockBegin
  2
*MODEL_SPACE
 70
     0
 10
0.0
 20
0.0
 30
0.0
  3
*MODEL_SPACE
  1

  0
ENDBLK
  5
21
330
1F
100
AcDbEntity
  8
0
100
AcDbBlockEnd
  0
BLOCK
  5
1C
330
1B
100
AcDbEntity
 67
     1
  8
0
100
AcDbBlockBegin
  2
*PAPER_SPACE
  1

  0
ENDBLK
  5
1D
330
1B
100
AcDbEntity
 67
     1
  8
0
100
AcDbBlockEnd
  0
ENDSEC
  0
SECTION
  2
ENTITIES
  0
SPLINE
  5
100
100
AcDbEntity
  8
open-0
 62
7
100
AcDbSpline
 70
8
 71
3
 72
8
 73
4
 74
0
 40
0
 40
0
 40
0
 40
0
 40
1
 40
1
 40
1
 40
1
 10
147.117530
 20
106.160365
 30
0.0
 10
146.009090
 20
106.167365
 30
0.0
 10
144.908840
 20
105.689055
 30
0.0
 10
144.161560
 20
104.869865
 30
0.0
  0
SPLINE
  5
101
100
AcDbEntity
  8
open-0
 62
7
100
AcDbSpline
 70
8
 71
3
 72
8
 73
4
 74
0
 40
0
 40
0
 40
0
 40
0
 40
1
 40
1
 40
1
 40
1
 10
144.161560
 20
104.869865
 30
0.0
 10
143.457980
 20
104.114655
 30
0.0
 10
143.074130
 20
103.079355
 30
0.0
 10
143.099950
 20
102.048745
 30
0.0
  0
SPLINE
  5
102
100
AcDbEntity
  8
open-0
 62
7
100
AcDbSpline
 70
8
 71
3
 72
8
 73
4
 74
0
 40
0
 40
0
 40
0
 40
0
 40
1
 40
1
 40
1
 40
1
 10
143.099950
 20
102.048745
 30
0.0
 10
143.100950
 20
101.114895
 30
0.0
 10
143.096950
 20
100.180995
 30
0.0
 10
143.101950
 20
99.247185
 30
0.0
  0
SPLINE
  5
103
100
AcDbEntity
  8
open-0
 62
7
100
AcDbSpline
 70
8
 71
3
 72
8
 73
4
 74
0
 40
0
 40
0
 40
0
 40
0
 40
1
 40
1
 40
1
 40
1
 10
143.101950
 20
99.247185
 30
0.0
 10
143.129950
 20
98.107575
 30
0.0
 10
143.674950
 20
96.994695
 30
0.0
 10
144.558530
 20
96.274355
 30
0.0
  0
SPLINE
  5
104
100
AcDbEntity
  8
open-0
 62
7
100
AcDbSpline
 70
8
 71
3
 72
8
 73
4
 74
0
 40
0
 40
0
 40
0
 40
0
 40
1
 40
1
 40
1
 40
1
 10
144.558530
 20
96.274355
 30
0.0
 10
145.299270
 20
95.657585
 30
0.0
 10
146.268220
 20
95.332475
 30
0.0
 10
147.230340
 20
95.359585
 30
0.0
  0
SPLINE
  5
105
100
AcDbEntity
  8
open-0
 62
7
100
AcDbSpline
 70
8
 71
3
 72
8
 73
4
 74
0
 40
0
 40
0
 40
0
 40
0
 40
1
 40
1
 40
1
 40
1
 10
147.230340
 20
95.359585
 30
0.0
 10
183.861140
 20
95.359805
 30
0.0
 10
220.491930
 20
95.359145
 30
0.0
 10
257.122730
 20
95.359915
 30
0.0
  0
SPLINE
  5
106
100
AcDbEntity
  8
open-0
 62
7
100
AcDbSpline
 70
8
 71
3
 72
8
 73
4
 74
0
 40
0
 40
0
 40
0
 40
0
 40
1
 40
1
 40
1
 40
1
 10
257.122730
 20
95.359915
 30
0.0
 10
258.256400
 20
95.365915
 30
0.0
 10
259.373930
 20
95.883185
 30
0.0
 10
260.111260
 20
96.744615
 30
0.0
  0
SPLINE
  5
107
100
AcDbEntity
  8
open-0
 62
7
100
AcDbSpline
 70
8
 71
3
 72
8
 73
4
 74
0
 40
0
 40
0
 40
0
 40
0
 40
1
 40
1
 40
1
 40
1
 10
260.111260
 20
96.744615
 30
0.0
 10
260.767090
 20
97.494495
 30
0.0
 10
261.116760
 20
98.495625
 30
0.0
 10
261.088190
 20
99.490015
 30
0.0
  0
SPLINE
  5
108
100
AcDbEntity
  8
open-0
 62
7
100
AcDbSpline
 70
8
 71
3
 72
8
 73
4
 74
0
 40
0
 40
0
 40
0
 40
0
 40
1
 40
1
 40
1
 40
1
 10
261.088190
 20
99.490015
 30
0.0
 10
261.087190
 20
100.417595
 30
0.0
 10
261.091190
 20
101.345225
 30
0.0
 10
261.086190
 20
102.272765
 30
0.0
  0
SPLINE
  5
109
100
AcDbEntity
  8
open-0
 62
7
100
AcDbSpline
 70
8
 71
3
 72
8
 73
4
 74
0
 40
0
 40
0
 40
0
 40
0
 40
1
 40
1
 40
1
 40
1
 10
261.086190
 20
102.272765
 30
0.0
 10
261.058190
 20
103.412375
 30
0.0
 10
260.513190
 20
104.525255
 30
0.0
 10
259.629610
 20
105.245595
 30
0.0
  0
SPLINE
  5
10a
100
AcDbEntity
  8
open-0
 62
7
100
AcDbSpline
 70
8
 71
3
 72
8
 73
4
 74
0
 40
0
 40
0
 40
0
 40
0
 40
1
 40
1
 40
1
 40
1
 10
259.629610
 20
105.245595
 30
0.0
 10
258.888870
 20
105.862365
 30
0.0
 10
257.919920
 20
106.187475
 30
0.0
 10
256.957800
 20
106.160365
 30
0.0
  0
SPLINE
  5
10b
100
AcDbEntity
  8
open-0
 62
7
100
AcDbSpline
 70
8
 71
3
 72
8
 73
4
 74
0
 40
0
 40
0
 40
0
 40
0
 40
1
 40
1
 40
1
 40
1
 10
256.957800
 20
106.160365
 30
0.0
 10
220.344370
 20
106.160365
 30
0.0
 10
183.730950
 20
106.160365
 30
0.0
 10
147.117530
 20
106.160365
 30
0.0
  0
SPLINE
  5
10c
100
AcDbEntity
  8
open-0
 62
7
100
AcDbSpline
 70
8
 71
3
 72
8
 73
4
 74
0
 40
0
 40
0
 40
0
 40
0
 40
1
 40
1
 40
1
 40
1
 10
22.119481
 20
106.160365
 30
0.0
 10
21.003621
 20
106.167365
 30
0.0
 10
19.896344
 20
105.682585
 30
0.0
 10
19.148169
 20
104.854255
 30
0.0
  0
SPLINE
  5
10d
100
AcDbEntity
  8
open-0
 62
7
100
AcDbSpline
 70
8
 71
3
 72
8
 73
4
 74
0
 40
0
 40
0
 40
0
 40
0
 40
1
 40
1
 40
1
 40
1
 10
19.148169
 20
104.854255
 30
0.0
 10
18.453077
 20
104.100715
 30
0.0
 10
18.074239
 20
103.072445
 30
0.0
 10
18.099951
 20
102.048745
 30
0.0
  0
SPLINE
  5
10e
100
AcDbEntity
  8
open-0
 62
7
100
AcDbSpline
 70
8
 71
3
 72
8
 73
4
 74
0
 40
0
 40
0
 40
0
 40
0
 40
1
 40
1
 40
1
 40
1
 10
18.099951
 20
102.048745
 30
0.0
 10
18.101251
 20
101.114905
 30
0.0
 10
18.097351
 20
100.181015
 30
0.0
 10
18.101951
 20
99.247205
 30
0.0
  0
SPLINE
  5
10f
100
AcDbEntity
  8
open-0
 62
7
100
AcDbSpline
 70
8
 71
3
 72
8
 73
4
 74
0
 40
0
 40
0
 40
0
 40
0
 40
1
 40
1
 40
1
 40
1
 10
18.101951
 20
99.247205
 30
0.0
 10
18.130061
 20
98.107395
 30
0.0
 10
18.675865
 20
96.994695
 30
0.0
 10
19.559684
 20
96.274505
 30
0.0
  0
SPLINE
  5
110
100
AcDbEntity
  8
open-0
 62
7
100
AcDbSpline
 70
8
 71
3
 72
8
 73
4
 74
0
 40
0
 40
0
 40
0
 40
0
 40
1
 40
1
 40
1
 40
1
 10
19.559684
 20
96.274505
 30
0.0
 10
20.300768
 20
95.657785
 30
0.0
 10
21.269900
 20
95.332485
 30
0.0
 10
22.232297
 20
95.359585
 30
0.0
  0
SPLINE
  5
111
100
AcDbEntity
  8
open-0
 62
7
100
AcDbSpline
 70
8
 71
3
 72
8
 73
4
 74
0
 40
0
 40
0
 40
0
 40
0
 40
1
 40
1
 40
1
 40
1
 10
22.232297
 20
95.359585
 30
0.0
 10
58.863090
 20
95.359805
 30
0.0
 10
95.493888
 20
95.359145
 30
0.0
 10
132.124690
 20
95.359915
 30
0.0
  0
SPLINE
  5
112
100
AcDbEntity
  8
open-0
 62
7
100
AcDbSpline
 70
8
 71
3
 72
8
 73
4
 74
0
 40
0
 40
0
 40
0
 40
0
 40
1
 40
1
 40
1
 40
1
 10
132.124690
 20
95.359915
 30
0.0
 10
133.258360
 20
95.365915
 30
0.0
 10
134.375890
 20
95.883185
 30
0.0
 10
135.113220
 20
96.744615
 30
0.0
  0
SPLINE
  5
113
100
AcDbEntity
  8
open-0
 62
7
100
AcDbSpline
 70
8
 71
3
 72
8
 73
4
 74
0
 40
0
 40
0
 40
0
 40
0
 40
1
 40
1
 40
1
 40
1
 10
135.113220
 20
96.744615
 30
0.0
 10
135.769050
 20
97.494495
 30
0.0
 10
136.118720
 20
98.495625
 30
0.0
 10
136.090150
 20
99.490015
 30
0.0
  0
SPLINE
  5
114
100
AcDbEntity
  8
open-0
 62
7
100
AcDbSpline
 70
8
 71
3
 72
8
 73
4
 74
0
 40
0
 40
0
 40
0
 40
0
 40
1
 40
1
 40
1
 40
1
 10
136.090150
 20
99.490015
 30
0.0
 10
136.089150
 20
100.417595
 30
0.0
 10
136.093150
 20
101.345225
 30
0.0
 10
136.088150
 20
102.272765
 30
0.0
  0
SPLINE
  5
115
100
AcDbEntity
  8
open-0
 62
7
100
AcDbSpline
 70
8
 71
3
 72
8
 73
4
 74
0
 40
0
 40
0
 40
0
 40
0
 40
1
 40
1
 40
1
 40
1
 10
136.088150
 20
102.272765
 30
0.0
 10
136.060150
 20
103.412375
 30
0.0
 10
135.515150
 20
104.525255
 30
0.0
 10
134.631570
 20
105.245595
 30
0.0
  0
SPLINE
  5
116
100
AcDbEntity
  8
open-0
 62
7
100
AcDbSpline
 70
8
 71
3
 72
8
 73
4
 74
0
 40
0
 40
0
 40
0
 40
0
 40
1
 40
1
 40
1
 40
1
 10
134.631570
 20
105.245595
 30
0.0
 10
133.890830
 20
105.862365
 30
0.0
 10
132.921880
 20
106.187475
 30
0.0
 10
131.959750
 20
106.160365
 30
0.0
  0
SPLINE
  5
117
100
AcDbEntity
  8
open-0
 62
7
100
AcDbSpline
 70
8
 71
3
 72
8
 73
4
 74
0
 40
0
 40
0
 40
0
 40
0
 40
1
 40
1
 40
1
 40
1
 10
131.959750
 20
106.160365
 30
0.0
 10
95.346325
 20
106.160365
 30
0.0
 10
58.732903
 20
106.160365
 30
0.0
 10
22.119481
 20
106.160365
 30
0.0
  0
LWPOLYLINE
  5
118
100
AcDbEntity
  8
open-0
 62
7
100
AcDbPolyline
 90
1
 70
1
 10
147.117530
 20
106.160365
 30
0.0
  0
LWPOLYLINE
  5
119
100
AcDbEntity
  8
open-0
 62
7
100
AcDbPolyline
 90
1
 70
1
 10
22.119481
 20
106.160365
 30
0.0
  0
SPLINE
  5
11a
100
AcDbEntity
  8
open-0
 62
7
100
AcDbSpline
 70
8
 71
3
 72
8
 73
4
 74
0
 40
0
 40
0
 40
0
 40
0
 40
1
 40
1
 40
1
 40
1
 10
258.069850
 20
145.161281
 30
0.0
 10
260.850140
 20
145.161281
 30
0.0
 10
263.088420
 20
142.923000
 30
0.0
 10
263.088420
 20
140.142712
 30
0.0
  0
LWPOLYLINE
  5
11b
100
AcDbEntity
  8
open-0
 62
7
100
AcDbPolyline
 90
2
 70
0
 10
148.117290
 20
145.161281
 30
0.0
 10
258.069850
 20
145.161281
 30
0.0
  0
SPLINE
  5
11c
100
AcDbEntity
  8
open-0
 62
7
100
AcDbSpline
 70
8
 71
3
 72
8
 73
4
 74
0
 40
0
 40
0
 40
0
 40
0
 40
1
 40
1
 40
1
 40
1
 10
263.088420
 20
137.377289
 30
0.0
 10
263.088420
 20
134.597001
 30
0.0
 10
260.850140
 20
132.358720
 30
0.0
 10
258.069850
 20
132.358720
 30
0.0
  0
LWPOLYLINE
  5
11d
100
AcDbEntity
  8
open-0
 62
7
100
AcDbPolyline
 90
2
 70
0
 10
263.088420
 20
140.142712
 30
0.0
 10
263.088420
 20
137.377289
 30
0.0
  0
SPLINE
  5
11e
100
AcDbEntity
  8
open-0
 62
7
100
AcDbSpline
 70
8
 71
3
 72
8
 73
4
 74
0
 40
0
 40
0
 40
0
 40
0
 40
1
 40
1
 40
1
 40
1
 10
148.117290
 20
132.358720
 30
0.0
 10
145.337010
 20
132.358720
 30
0.0
 10
143.098720
 20
134.597001
 30
0.0
 10
143.098720
 20
137.377289
 30
0.0
  0
LWPOLYLINE
  5
11f
100
AcDbEntity
  8
open-0
 62
7
100
AcDbPolyline
 90
2
 70
0
 10
258.069850
 20
132.358720
 30
0.0
 10
148.117290
 20
132.358720
 30
0.0
  0
SPLINE
  5
120
100
AcDbEntity
  8
open-0
 62
7
100
AcDbSpline
 70
8
 71
3
 72
8
 73
4
 74
0
 40
0
 40
0
 40
0
 40
0
 40
1
 40
1
 40
1
 40
1
 10
143.098720
 20
140.142712
 30
0.0
 10
143.098720
 20
142.923000
 30
0.0
 10
145.337010
 20
145.161281
 30
0.0
 10
148.117290
 20
145.161281
 30
0.0
  0
LWPOLYLINE
  5
121
100
AcDbEntity
  8
open-0
 62
7
100
AcDbPolyline
 90
2
 70
0
 10
143.098720
 20
137.377289
 30
0.0
 10
143.098720
 20
140.142712
 30
0.0
  0
LWPOLYLINE
  5
122
100
AcDbEntity
  8
open-0
 62
7
100
AcDbPolyline
 90
1
 70
1
 10
148.117290
 20
145.161281
 30
0.0
  0
SPLINE
  5
123
100
AcDbEntity
  8
open-0
 62
7
100
AcDbSpline
 70
8
 71
3
 72
8
 73
4
 74
0
 40
0
 40
0
 40
0
 40
0
 40
1
 40
1
 40
1
 40
1
 10
133.069840
 20
145.161281
 30
0.0
 10
135.850130
 20
145.161281
 30
0.0
 10
138.088410
 20
142.923000
 30
0.0
 10
138.088410
 20
140.142712
 30
0.0
  0
LWPOLYLINE
  5
124
100
AcDbEntity
  8
open-0
 62
7
100
AcDbPolyline
 90
2
 70
0
 10
23.117288
 20
145.161281
 30
0.0
 10
133.069840
 20
145.161281
 30
0.0
  0
SPLINE
  5
125
100
AcDbEntity
  8
open-0
 62
7
100
AcDbSpline
 70
8
 71
3
 72
8
 73
4
 74
0
 40
0
 40
0
 40
0
 40
0
 40
1
 40
1
 40
1
 40
1
 10
138.088410
 20
137.377289
 30
0.0
 10
138.088410
 20
134.597001
 30
0.0
 10
135.850130
 20
132.358720
 30
0.0
 10
133.069840
 20
132.358720
 30
0.0
  0
LWPOLYLINE
  5
126
100
AcDbEntity
  8
open-0
 62
7
100
AcDbPolyline
 90
2
 70
0
 10
138.088410
 20
140.142712
 30
0.0
 10
138.088410
 20
137.377289
 30
0.0
  0
SPLINE
  5
127
100
AcDbEntity
  8
open-0
 62
7
100
AcDbSpline
 70
8
 71
3
 72
8
 73
4
 74
0
 40
0
 40
0
 40
0
 40
0
 40
1
 40
1
 40
1
 40
1
 10
23.117288
 20
132.358720
 30
0.0
 10
20.337000
 20
132.358720
 30
0.0
 10
18.098719
 20
134.597001
 30
0.0
 10
18.098719
 20
137.377289
 30
0.0
  0
LWPOLYLINE
  5
128
100
AcDbEntity
  8
open-0
 62
7
100
AcDbPolyline
 90
2
 70
0
 10
133.069840
 20
132.358720
 30
0.0
 10
23.117288
 20
132.358720
 30
0.0
  0
SPLINE
  5
129
100
AcDbEntity
  8
open-0
 62
7
100
AcDbSpline
 70
8
 71
3
 72
8
 73
4
 74
0
 40
0
 40
0
 40
0
 40
0
 40
1
 40
1
 40
1
 40
1
 10
18.098719
 20
140.142712
 30
0.0
 10
18.098719
 20
142.923000
 30
0.0
 10
20.337000
 20
145.161281
 30
0.0
 10
23.117288
 20
145.161281
 30
0.0
  0
LWPOLYLINE
  5
12a
100
AcDbEntity
  8
open-0
 62
7
100
AcDbPolyline
 90
2
 70
0
 10
18.098719
 20
137.377289
 30
0.0
 10
18.098719
 20
140.142712
 30
0.0
  0
SPLINE
  5
12b
100
AcDbEntity
  8
open-0
 62
7
100
AcDbSpline
 70
8
 71
3
 72
8
 73
4
 74
0
 40
0
 40
0
 40
0
 40
0
 40
1
 40
1
 40
1
 40
1
 10
147.617190
 20
126.660391
 30
0.0
 10
146.402420
 20
126.667991
 30
0.0
 10
145.195880
 20
126.157356
 30
0.0
 10
144.358170
 20
125.277165
 30
0.0
  0
SPLINE
  5
12c
100
AcDbEntity
  8
open-0
 62
7
100
AcDbSpline
 70
8
 71
3
 72
8
 73
4
 74
0
 40
0
 40
0
 40
0
 40
0
 40
1
 40
1
 40
1
 40
1
 10
144.358170
 20
125.277165
 30
0.0
 10
143.535000
 20
124.429406
 30
0.0
 10
143.075390
 20
123.247499
 30
0.0
 10
143.099610
 20
122.066884
 30
0.0
  0
SPLINE
  5
12d
100
AcDbEntity
  8
open-0
 62
7
100
AcDbSpline
 70
8
 71
3
 72
8
 73
4
 74
0
 40
0
 40
0
 40
0
 40
0
 40
1
 40
1
 40
1
 40
1
 10
143.099610
 20
122.066884
 30
0.0
 10
143.100610
 20
121.121616
 30
0.0
 10
143.096610
 20
120.176288
 30
0.0
 10
143.101610
 20
119.231060
 30
0.0
  0
SPLINE
  5
12e
100
AcDbEntity
  8
open-0
 62
7
100
AcDbSpline
 70
8
 71
3
 72
8
 73
4
 74
0
 40
0
 40
0
 40
0
 40
0
 40
1
 40
1
 40
1
 40
1
 10
143.101610
 20
119.231060
 30
0.0
 10
143.132910
 20
117.976982
 30
0.0
 10
143.719820
 20
116.751002
 30
0.0
 10
144.677470
 20
115.940647
 30
0.0
  0
SPLINE
  5
12f
100
AcDbEntity
  8
open-0
 62
7
100
AcDbSpline
 70
8
 71
3
 72
8
 73
4
 74
0
 40
0
 40
0
 40
0
 40
0
 40
1
 40
1
 40
1
 40
1
 10
144.677470
 20
115.940647
 30
0.0
 10
145.514920
 20
115.217421
 30
0.0
 10
146.626010
 20
114.830369
 30
0.0
 10
147.730790
 20
114.859609
 30
0.0
  0
SPLINE
  5
130
100
AcDbEntity
  8
open-0
 62
7
100
AcDbSpline
 70
8
 71
3
 72
8
 73
4
 74
0
 40
0
 40
0
 40
0
 40
0
 40
1
 40
1
 40
1
 40
1
 10
147.730790
 20
114.859609
 30
0.0
 10
184.353640
 20
114.859670
 30
0.0
 10
220.976490
 20
114.859486
 30
0.0
 10
257.599340
 20
114.859701
 30
0.0
  0
SPLINE
  5
131
100
AcDbEntity
  8
open-0
 62
7
100
AcDbSpline
 70
8
 71
3
 72
8
 73
4
 74
0
 40
0
 40
0
 40
0
 40
0
 40
1
 40
1
 40
1
 40
1
 10
257.599340
 20
114.859701
 30
0.0
 10
258.838390
 20
114.859429
 30
0.0
 10
260.064750
 20
115.399569
 30
0.0
 10
260.898800
 20
116.316244
 30
0.0
  0
SPLINE
  5
132
100
AcDbEntity
  8
open-0
 62
7
100
AcDbSpline
 70
8
 71
3
 72
8
 73
4
 74
0
 40
0
 40
0
 40
0
 40
0
 40
1
 40
1
 40
1
 40
1
 10
260.898800
 20
116.316244
 30
0.0
 10
261.684400
 20
117.162120
 30
0.0
 10
262.115250
 20
118.319096
 30
0.0
 10
262.087600
 20
119.472098
 30
0.0
  0
SPLINE
  5
133
100
AcDbEntity
  8
open-0
 62
7
100
AcDbSpline
 70
8
 71
3
 72
8
 73
4
 74
0
 40
0
 40
0
 40
0
 40
0
 40
1
 40
1
 40
1
 40
1
 10
262.087600
 20
119.472098
 30
0.0
 10
262.086600
 20
120.411038
 30
0.0
 10
262.090600
 20
121.350039
 30
0.0
 10
262.085600
 20
122.288940
 30
0.0
  0
SPLINE
  5
134
100
AcDbEntity
  8
open-0
 62
7
100
AcDbSpline
 70
8
 71
3
 72
8
 73
4
 74
0
 40
0
 40
0
 40
0
 40
0
 40
1
 40
1
 40
1
 40
1
 10
262.085600
 20
122.288940
 30
0.0
 10
262.054300
 20
123.543018
 30
0.0
 10
261.467390
 20
124.768998
 30
0.0
 10
260.509740
 20
125.579353
 30
0.0
  0
SPLINE
  5
135
100
AcDbEntity
  8
open-0
 62
7
100
AcDbSpline
 70
8
 71
3
 72
8
 73
4
 74
0
 40
0
 40
0
 40
0
 40
0
 40
1
 40
1
 40
1
 40
1
 10
260.509740
 20
125.579353
 30
0.0
 10
259.672290
 20
126.302579
 30
0.0
 10
258.561200
 20
126.689631
 30
0.0
 10
257.456420
 20
126.660391
 30
0.0
  0
SPLINE
  5
136
100
AcDbEntity
  8
open-0
 62
7
100
AcDbSpline
 70
8
 71
3
 72
8
 73
4
 74
0
 40
0
 40
0
 40
0
 40
0
 40
1
 40
1
 40
1
 40
1
 10
257.456420
 20
126.660391
 30
0.0
 10
220.843340
 20
126.660391
 30
0.0
 10
184.230270
 20
126.660391
 30
0.0
 10
147.617190
 20
126.660391
 30
0.0
  0
LWPOLYLINE
  5
137
100
AcDbEntity
  8
open-0
 62
7
100
AcDbPolyline
 90
1
 70
1
 10
23.117288
 20
145.161281
 30
0.0
  0
SPLINE
  5
138
100
AcDbEntity
  8
open-0
 62
7
100
AcDbSpline
 70
8
 71
3
 72
8
 73
4
 74
0
 40
0
 40
0
 40
0
 40
0
 40
1
 40
1
 40
1
 40
1
 10
22.619176
 20
126.660392
 30
0.0
 10
21.404083
 20
126.667992
 30
0.0
 10
20.197309
 20
126.157222
 30
0.0
 10
19.359096
 20
125.277117
 30
0.0
  0
SPLINE
  5
139
100
AcDbEntity
  8
open-0
 62
7
100
AcDbSpline
 70
8
 71
3
 72
8
 73
4
 74
0
 40
0
 40
0
 40
0
 40
0
 40
1
 40
1
 40
1
 40
1
 10
19.359096
 20
125.277117
 30
0.0
 10
18.535583
 20
124.429558
 30
0.0
 10
18.075242
 20
123.247687
 30
0.0
 10
18.099645
 20
122.066884
 30
0.0
  0
SPLINE
  5
13a
100
AcDbEntity
  8
open-0
 62
7
100
AcDbSpline
 70
8
 71
3
 72
8
 73
4
 74
0
 40
0
 40
0
 40
0
 40
0
 40
1
 40
1
 40
1
 40
1
 10
18.099645
 20
122.066884
 30
0.0
 10
18.101045
 20
121.121622
 30
0.0
 10
18.096745
 20
120.176299
 30
0.0
 10
18.101945
 20
119.231075
 30
0.0
  0
SPLINE
  5
13b
100
AcDbEntity
  8
open-0
 62
7
100
AcDbSpline
 70
8
 71
3
 72
8
 73
4
 74
0
 40
0
 40
0
 40
0
 40
0
 40
1
 40
1
 40
1
 40
1
 10
18.101945
 20
119.231075
 30
0.0
 10
18.133325
 20
117.976783
 30
0.0
 10
18.720976
 20
116.750916
 30
0.0
 10
19.678929
 20
115.940727
 30
0.0
  0
SPLINE
  5
13c
100
AcDbEntity
  8
open-0
 62
7
100
AcDbSpline
 70
8
 71
3
 72
8
 73
4
 74
0
 40
0
 40
0
 40
0
 40
0
 40
1
 40
1
 40
1
 40
1
 10
19.678929
 20
115.940727
 30
0.0
 10
20.516745
 20
115.217576
 30
0.0
 10
21.628027
 20
114.830387
 30
0.0
 10
22.733074
 20
114.859610
 30
0.0
  0
SPLINE
  5
13d
100
AcDbEntity
  8
open-0
 62
7
100
AcDbSpline
 70
8
 71
3
 72
8
 73
4
 74
0
 40
0
 40
0
 40
0
 40
0
 40
1
 40
1
 40
1
 40
1
 10
22.733074
 20
114.859610
 30
0.0
 10
59.355923
 20
114.859671
 30
0.0
 10
95.978771
 20
114.859487
 30
0.0
 10
132.601620
 20
114.859702
 30
0.0
  0
SPLINE
  5
13e
100
AcDbEntity
  8
open-0
 62
7
100
AcDbSpline
 70
8
 71
3
 72
8
 73
4
 74
0
 40
0
 40
0
 40
0
 40
0
 40
1
 40
1
 40
1
 40
1
 10
132.601620
 20
114.859702
 30
0.0
 10
133.840670
 20
114.859430
 30
0.0
 10
135.067030
 20
115.399570
 30
0.0
 10
135.901080
 20
116.316245
 30
0.0
  0
SPLINE
  5
13f
100
AcDbEntity
  8
open-0
 62
7
100
AcDbSpline
 70
8
 71
3
 72
8
 73
4
 74
0
 40
0
 40
0
 40
0
 40
0
 40
1
 40
1
 40
1
 40
1
 10
135.901080
 20
116.316245
 30
0.0
 10
136.686680
 20
117.162121
 30
0.0
 10
137.117530
 20
118.319098
 30
0.0
 10
137.089880
 20
119.472101
 30
0.0
  0
SPLINE
  5
140
100
AcDbEntity
  8
open-0
 62
7
100
AcDbSpline
 70
8
 71
3
 72
8
 73
4
 74
0
 40
0
 40
0
 40
0
 40
0
 40
1
 40
1
 40
1
 40
1
 10
137.089880
 20
119.472101
 30
0.0
 10
137.088880
 20
120.411041
 30
0.0
 10
137.092880
 20
121.350041
 30
0.0
 10
137.087880
 20
122.288942
 30
0.0
  0
SPLINE
  5
141
100
AcDbEntity
  8
open-0
 62
7
100
AcDbSpline
 70
8
 71
3
 72
8
 73
4
 74
0
 40
0
 40
0
 40
0
 40
0
 40
1
 40
1
 40
1
 40
1
 10
137.087880
 20
122.288942
 30
0.0
 10
137.056580
 20
123.543020
 30
0.0
 10
136.469670
 20
124.768999
 30
0.0
 10
135.512020
 20
125.579354
 30
0.0
  0
SPLINE
  5
142
100
AcDbEntity
  8
open-0
 62
7
100
AcDbSpline
 70
8
 71
3
 72
8
 73
4
 74
0
 40
0
 40
0
 40
0
 40
0
 40
1
 40
1
 40
1
 40
1
 10
135.512020
 20
125.579354
 30
0.0
 10
134.674570
 20
126.302581
 30
0.0
 10
133.563480
 20
126.689632
 30
0.0
 10
132.458700
 20
126.660392
 30
0.0
  0
SPLINE
  5
143
100
AcDbEntity
  8
open-0
 62
7
100
AcDbSpline
 70
8
 71
3
 72
8
 73
4
 74
0
 40
0
 40
0
 40
0
 40
0
 40
1
 40
1
 40
1
 40
1
 10
132.458700
 20
126.660392
 30
0.0
 10
95.845622
 20
126.660392
 30
0.0
 10
59.232546
 20
126.660392
 30
0.0
 10
22.619470
 20
126.660392
 30
0.0
  0
LWPOLYLINE
  5
144
100
AcDbEntity
  8
open-0
 62
7
100
AcDbPolyline
 90
1
 70
1
 10
147.617190
 20
126.660391
 30
0.0
  0
LWPOLYLINE
  5
145
100
AcDbEntity
  8
open-0
 62
7
100
AcDbPolyline
 90
2
 70
0
 10
22.619470
 20
126.660392
 30
0.0
 10
22.619176
 20
126.660392
 30
0.0
  0
SPLINE
  5
146
100
AcDbEntity
  8
open-0
 62
7
100
AcDbSpline
 70
8
 71
3
 72
8
 73
4
 74
0
 40
0
 40
0
 40
0
 40
0
 40
1
 40
1
 40
1
 40
1
 10
260.094500
 20
160.165500
 30
0.0
 10
271.174500
 20
160.165500
 30
0.0
 10
280.094500
 20
151.245500
 30
0.0
 10
280.094500
 20
140.165500
 30
0.0
  0
LWPOLYLINE
  5
147
100
AcDbEntity
  8
open-0
 62
7
100
AcDbPolyline
 90
2
 70
0
 10
150.114290
 20
160.165500
 30
0.0
 10
260.094500
 20
160.165500
 30
0.0
  0
SPLINE
  5
148
100
AcDbEntity
  8
open-0
 62
7
100
AcDbSpline
 70
8
 71
3
 72
8
 73
4
 74
0
 40
0
 40
0
 40
0
 40
0
 40
1
 40
1
 40
1
 40
1
 10
280.094500
 20
73.266250
 30
0.0
 10
280.094500
 20
62.186250
 30
0.0
 10
270.968070
 20
55.395110
 30
0.0
 10
260.094500
 20
53.266250
 30
0.0
  0
SPLINE
  5
149
100
AcDbEntity
  8
open-0
 62
7
100
AcDbSpline
 70
8
 71
3
 72
8
 73
4
 74
0
 40
0
 40
0
 40
0
 40
0
 40
1
 40
1
 40
1
 40
1
 10
260.094500
 20
53.266250
 30
0.0
 10
260.094500
 20
53.266250
 30
0.0
 10
149.961450
 20
29.465480
 30
0.0
 10
140.000000
 20
29.453750
 30
0.0
  0
SPLINE
  5
14a
100
AcDbEntity
  8
open-0
 62
7
100
AcDbSpline
 70
8
 71
3
 72
8
 73
4
 74
0
 40
0
 40
0
 40
0
 40
0
 40
1
 40
1
 40
1
 40
1
 10
140.000000
 20
29.453750
 30
0.0
 10
130.082320
 20
29.442050
 30
0.0
 10
20.094500
 20
53.266250
 30
0.0
 10
20.094500
 20
53.266250
 30
0.0
  0
SPLINE
  5
14b
100
AcDbEntity
  8
open-0
 62
7
100
AcDbSpline
 70
8
 71
3
 72
8
 73
4
 74
0
 40
0
 40
0
 40
0
 40
0
 40
1
 40
1
 40
1
 40
1
 10
20.094500
 20
53.266250
 30
0.0
 10
9.226738
 20
55.424520
 30
0.0
 10
0.094500
 20
62.186250
 30
0.0
 10
0.094500
 20
73.266250
 30
0.0
  0
LWPOLYLINE
  5
14c
100
AcDbEntity
  8
open-0
 62
7
100
AcDbPolyline
 90
2
 70
0
 10
280.094500
 20
140.165500
 30
0.0
 10
280.094500
 20
73.266250
 30
0.0
  0
SPLINE
  5
14d
100
AcDbEntity
  8
open-0
 62
7
100
AcDbSpline
 70
8
 71
3
 72
8
 73
4
 74
0
 40
0
 40
0
 40
0
 40
0
 40
1
 40
1
 40
1
 40
1
 10
0.094500
 20
140.165500
 30
0.0
 10
0.094500
 20
151.245500
 30
0.0
 10
9.014500
 20
160.165500
 30
0.0
 10
20.094500
 20
160.165500
 30
0.0
  0
LWPOLYLINE
  5
14e
100
AcDbEntity
  8
open-0
 62
7
100
AcDbPolyline
 90
2
 70
0
 10
0.094500
 20
73.266250
 30
0.0
 10
0.094500
 20
140.165500
 30
0.0
  0
SPLINE
  5
14f
100
AcDbEntity
  8
open-0
 62
7
100
AcDbSpline
 70
8
 71
3
 72
8
 73
4
 74
0
 40
0
 40
0
 40
0
 40
0
 40
1
 40
1
 40
1
 40
1
 10
20.093750
 20
149.166250
 30
0.0
 10
17.578435
 20
149.183660
 30
0.0
 10
15.082181
 20
148.083257
 30
0.0
 10
13.406040
 20
146.206357
 30
0.0
  0
SPLINE
  5
150
100
AcDbEntity
  8
open-0
 62
7
100
AcDbSpline
 70
8
 71
3
 72
8
 73
4
 74
0
 40
0
 40
0
 40
0
 40
0
 40
1
 40
1
 40
1
 40
1
 10
13.406040
 20
146.206357
 30
0.0
 10
11.866357
 20
144.518460
 30
0.0
 10
11.031877
 20
142.225185
 30
0.0
 10
11.093750
 20
139.943960
 30
0.0
  0
SPLINE
  5
151
100
AcDbEntity
  8
open-0
 62
7
100
AcDbSpline
 70
8
 71
3
 72
8
 73
4
 74
0
 40
0
 40
0
 40
0
 40
0
 40
1
 40
1
 40
1
 40
1
 10
11.093750
 20
139.943960
 30
0.0
 10
11.094750
 20
117.667881
 30
0.0
 10
11.091650
 20
95.391774
 30
0.0
 10
11.095350
 20
73.115715
 30
0.0
  0
SPLINE
  5
152
100
AcDbEntity
  8
open-0
 62
7
100
AcDbSpline
 70
8
 71
3
 72
8
 73
4
 74
0
 40
0
 40
0
 40
0
 40
0
 40
1
 40
1
 40
1
 40
1
 10
11.095350
 20
73.115715
 30
0.0
 10
11.114100
 20
71.365134
 30
0.0
 10
11.879189
 20
69.673684
 30
0.0
 10
13.072430
 20
68.409087
 30
0.0
  0
SPLINE
  5
153
100
AcDbEntity
  8
open-0
 62
7
100
AcDbSpline
 70
8
 71
3
 72
8
 73
4
 74
0
 40
0
 40
0
 40
0
 40
0
 40
1
 40
1
 40
1
 40
1
 10
13.072430
 20
68.409087
 30
0.0
 10
14.734437
 20
66.630481
 30
0.0
 10
16.995072
 20
65.546534
 30
0.0
 10
19.281573
 20
64.808555
 30
0.0
  0
SPLINE
  5
154
100
AcDbEntity
  8
open-0
 62
7
100
AcDbSpline
 70
8
 71
3
 72
8
 73
4
 74
0
 40
0
 40
0
 40
0
 40
0
 40
1
 40
1
 40
1
 40
1
 10
19.281573
 20
64.808555
 30
0.0
 10
21.175979
 20
64.194994
 30
0.0
 10
23.147599
 20
63.891213
 30
0.0
 10
25.092573
 20
63.487676
 30
0.0
  0
SPLINE
  5
155
100
AcDbEntity
  8
open-0
 62
7
100
AcDbSpline
 70
8
 71
3
 72
8
 73
4
 74
0
 40
0
 40
0
 40
0
 40
0
 40
1
 40
1
 40
1
 40
1
 10
25.092573
 20
63.487676
 30
0.0
 10
63.396359
 20
55.880530
 30
0.0
 10
101.700150
 20
48.273390
 30
0.0
 10
140.003940
 20
40.666250
 30
0.0
  0
SPLINE
  5
156
100
AcDbEntity
  8
open-0
 62
7
100
AcDbSpline
 70
8
 71
3
 72
8
 73
4
 74
0
 40
0
 40
0
 40
0
 40
0
 40
1
 40
1
 40
1
 40
1
 10
140.003940
 20
40.666250
 30
0.0
 10
179.406200
 20
48.480120
 30
0.0
 10
218.809050
 20
56.291120
 30
0.0
 10
258.210970
 20
64.106777
 30
0.0
  0
SPLINE
  5
157
100
AcDbEntity
  8
open-0
 62
7
100
AcDbSpline
 70
8
 71
3
 72
8
 73
4
 74
0
 40
0
 40
0
 40
0
 40
0
 40
1
 40
1
 40
1
 40
1
 10
258.210970
 20
64.106777
 30
0.0
 10
260.843930
 20
64.661539
 30
0.0
 10
263.474760
 20
65.531727
 30
0.0
 10
265.671250
 20
67.127599
 30
0.0
  0
SPLINE
  5
158
100
AcDbEntity
  8
open-0
 62
7
100
AcDbSpline
 70
8
 71
3
 72
8
 73
4
 74
0
 40
0
 40
0
 40
0
 40
0
 40
1
 40
1
 40
1
 40
1
 10
265.671250
 20
67.127599
 30
0.0
 10
267.220150
 20
68.250861
 30
0.0
 10
268.508960
 20
69.849415
 30
0.0
 10
268.926450
 20
71.748219
 30
0.0
  0
SPLINE
  5
159
100
AcDbEntity
  8
open-0
 62
7
100
AcDbSpline
 70
8
 71
3
 72
8
 73
4
 74
0
 40
0
 40
0
 40
0
 40
0
 40
1
 40
1
 40
1
 40
1
 10
268.926450
 20
71.748219
 30
0.0
 10
269.171820
 20
72.777943
 30
0.0
 10
269.073320
 20
73.840798
 30
0.0
 10
269.093800
 20
74.888577
 30
0.0
  0
LWPOLYLINE
  5
15a
100
AcDbEntity
  8
open-0
 62
7
100
AcDbPolyline
 90
7
 70
0
 10
20.094500
 20
160.165500
 30
0.0
 10
20.094500
 20
160.165500
 30
0.0
 10
130.114500
 20
160.165500
 30
0.0
 10
130.114490
 20
149.166250
 30
0.0
 10
20.093777
 20
149.166250
 30
0.0
 10
20.093750
 20
149.166250
 30
0.0
 10
20.093750
 20
149.166250
 30
0.0
  0
SPLINE
  5
15b
100
AcDbEntity
  8
open-0
 62
7
100
AcDbSpline
 70
8
 71
3
 72
8
 73
4
 74
0
 40
0
 40
0
 40
0
 40
0
 40
1
 40
1
 40
1
 40
1
 10
269.093800
 20
140.283063
 30
0.0
 10
269.080000
 20
142.859018
 30
0.0
 10
267.888960
 20
145.397458
 30
0.0
 10
265.911020
 20
147.048819
 30
0.0
  0
SPLINE
  5
15c
100
AcDbEntity
  8
open-0
 62
7
100
AcDbSpline
 70
8
 71
3
 72
8
 73
4
 74
0
 40
0
 40
0
 40
0
 40
0
 40
1
 40
1
 40
1
 40
1
 10
265.911020
 20
147.048819
 30
0.0
 10
264.237090
 20
148.477490
 30
0.0
 10
262.023940
 20
149.231124
 30
0.0
 10
259.827760
 20
149.166250
 30
0.0
  0
LWPOLYLINE
  5
15d
100
AcDbEntity
  8
open-0
 62
7
100
AcDbPolyline
 90
2
 70
0
 10
269.093800
 20
74.888577
 30
0.0
 10
269.093800
 20
140.283063
 30
0.0
  0
SPLINE
  5
15e
100
AcDbEntity
  8
open-0
 62
7
100
AcDbSpline
 70
8
 71
3
 72
8
 73
4
 74
0
 40
0
 40
0
 40
0
 40
0
 40
1
 40
1
 40
1
 40
1
 10
124.348110
 20
154.094907
 30
0.0
 10
124.348110
 20
153.630778
 30
0.0
 10
124.163736
 20
153.185658
 30
0.0
 10
123.835547
 20
152.857470
 30
0.0
  0
SPLINE
  5
15f
100
AcDbEntity
  8
open-0
 62
7
100
AcDbSpline
 70
8
 71
3
 72
8
 73
4
 74
0
 40
0
 40
0
 40
0
 40
0
 40
1
 40
1
 40
1
 40
1
 10
123.835547
 20
152.857470
 30
0.0
 10
123.507358
 20
152.529281
 30
0.0
 10
123.062239
 20
152.344907
 30
0.0
 10
122.598110
 20
152.344907
 30
0.0
  0
SPLINE
  5
160
100
AcDbEntity
  8
open-0
 62
7
100
AcDbSpline
 70
8
 71
3
 72
8
 73
4
 74
0
 40
0
 40
0
 40
0
 40
0
 40
1
 40
1
 40
1
 40
1
 10
122.598110
 20
152.344907
 30
0.0
 10
122.133981
 20
152.344907
 30
0.0
 10
121.688862
 20
152.529281
 30
0.0
 10
121.360673
 20
152.857470
 30
0.0
  0
SPLINE
  5
161
100
AcDbEntity
  8
open-0
 62
7
100
AcDbSpline
 70
8
 71
3
 72
8
 73
4
 74
0
 40
0
 40
0
 40
0
 40
0
 40
1
 40
1
 40
1
 40
1
 10
121.360673
 20
152.857470
 30
0.0
 10
121.032484
 20
153.185658
 30
0.0
 10
120.848110
 20
153.630778
 30
0.0
 10
120.848110
 20
154.094907
 30
0.0
  0
SPLINE
  5
162
100
AcDbEntity
  8
open-0
 62
7
100
AcDbSpline
 70
8
 71
3
 72
8
 73
4
 74
0
 40
0
 40
0
 40
0
 40
0
 40
1
 40
1
 40
1
 40
1
 10
120.848110
 20
154.094907
 30
0.0
 10
120.848110
 20
154.559035
 30
0.0
 10
121.032484
 20
155.004155
 30
0.0
 10
121.360673
 20
155.332343
 30
0.0
  0
SPLINE
  5
163
100
AcDbEntity
  8
open-0
 62
7
100
AcDbSpline
 70
8
 71
3
 72
8
 73
4
 74
0
 40
0
 40
0
 40
0
 40
0
 40
1
 40
1
 40
1
 40
1
 10
121.360673
 20
155.332343
 30
0.0
 10
121.688862
 20
155.660532
 30
0.0
 10
122.133981
 20
155.844907
 30
0.0
 10
122.598110
 20
155.844907
 30
0.0
  0
SPLINE
  5
164
100
AcDbEntity
  8
open-0
 62
7
100
AcDbSpline
 70
8
 71
3
 72
8
 73
4
 74
0
 40
0
 40
0
 40
0
 40
0
 40
1
 40
1
 40
1
 40
1
 10
122.598110
 20
155.844907
 30
0.0
 10
123.062239
 20
155.844907
 30
0.0
 10
123.507358
 20
155.660532
 30
0.0
 10
123.835547
 20
155.332343
 30
0.0
  0
SPLINE
  5
165
100
AcDbEntity
  8
open-0
 62
7
100
AcDbSpline
 70
8
 71
3
 72
8
 73
4
 74
0
 40
0
 40
0
 40
0
 40
0
 40
1
 40
1
 40
1
 40
1
 10
123.835547
 20
155.332343
 30
0.0
 10
124.163736
 20
155.004155
 30
0.0
 10
124.348110
 20
154.559035
 30
0.0
 10
124.348110
 20
154.094907
 30
0.0
  0
LWPOLYLINE
  5
166
100
AcDbEntity
  8
open-0
 62
7
100
AcDbPolyline
 90
3
 70
0
 10
259.827760
 20
149.166250
 30
0.0
 10
150.114310
 20
149.166250
 30
0.0
 10
150.114290
 20
160.165500
 30
0.0
  0
SPLINE
  5
167
100
AcDbEntity
  8
open-0
 62
7
100
AcDbSpline
 70
8
 71
3
 72
8
 73
4
 74
0
 40
0
 40
0
 40
0
 40
0
 40
1
 40
1
 40
1
 40
1
 10
7.623668
 20
112.173860
 30
0.0
 10
7.623668
 20
111.709731
 30
0.0
 10
7.439293
 20
111.264612
 30
0.0
 10
7.111105
 20
110.936423
 30
0.0
  0
SPLINE
  5
168
100
AcDbEntity
  8
open-0
 62
7
100
AcDbSpline
 70
8
 71
3
 72
8
 73
4
 74
0
 40
0
 40
0
 40
0
 40
0
 40
1
 40
1
 40
1
 40
1
 10
7.111105
 20
110.936423
 30
0.0
 10
6.782916
 20
110.608234
 30
0.0
 10
6.337797
 20
110.423860
 30
0.0
 10
5.873668
 20
110.423860
 30
0.0
  0
SPLINE
  5
169
100
AcDbEntity
  8
open-0
 62
7
100
AcDbSpline
 70
8
 71
3
 72
8
 73
4
 74
0
 40
0
 40
0
 40
0
 40
0
 40
1
 40
1
 40
1
 40
1
 10
5.873668
 20
110.423860
 30
0.0
 10
5.409539
 20
110.423860
 30
0.0
 10
4.964419
 20
110.608234
 30
0.0
 10
4.636231
 20
110.936423
 30
0.0
  0
SPLINE
  5
16a
100
AcDbEntity
  8
open-0
 62
7
100
AcDbSpline
 70
8
 71
3
 72
8
 73
4
 74
0
 40
0
 40
0
 40
0
 40
0
 40
1
 40
1
 40
1
 40
1
 10
4.636231
 20
110.936423
 30
0.0
 10
4.308042
 20
111.264612
 30
0.0
 10
4.123668
 20
111.709731
 30
0.0
 10
4.123668
 20
112.173860
 30
0.0
  0
SPLINE
  5
16b
100
AcDbEntity
  8
open-0
 62
7
100
AcDbSpline
 70
8
 71
3
 72
8
 73
4
 74
0
 40
0
 40
0
 40
0
 40
0
 40
1
 40
1
 40
1
 40
1
 10
4.123668
 20
112.173860
 30
0.0
 10
4.123668
 20
112.637989
 30
0.0
 10
4.308042
 20
113.083108
 30
0.0
 10
4.636231
 20
113.411297
 30
0.0
  0
SPLINE
  5
16c
100
AcDbEntity
  8
open-0
 62
7
100
AcDbSpline
 70
8
 71
3
 72
8
 73
4
 74
0
 40
0
 40
0
 40
0
 40
0
 40
1
 40
1
 40
1
 40
1
 10
4.636231
 20
113.411297
 30
0.0
 10
4.964419
 20
113.739486
 30
0.0
 10
5.409539
 20
113.923860
 30
0.0
 10
5.873668
 20
113.923860
 30
0.0
  0
SPLINE
  5
16d
100
AcDbEntity
  8
open-0
 62
7
100
AcDbSpline
 70
8
 71
3
 72
8
 73
4
 74
0
 40
0
 40
0
 40
0
 40
0
 40
1
 40
1
 40
1
 40
1
 10
5.873668
 20
113.923860
 30
0.0
 10
6.337797
 20
113.923860
 30
0.0
 10
6.782916
 20
113.739486
 30
0.0
 10
7.111105
 20
113.411297
 30
0.0
  0
SPLINE
  5
16e
100
AcDbEntity
  8
open-0
 62
7
100
AcDbSpline
 70
8
 71
3
 72
8
 73
4
 74
0
 40
0
 40
0
 40
0
 40
0
 40
1
 40
1
 40
1
 40
1
 10
7.111105
 20
113.411297
 30
0.0
 10
7.439293
 20
113.083108
 30
0.0
 10
7.623668
 20
112.637989
 30
0.0
 10
7.623668
 20
112.173860
 30
0.0
  0
LWPOLYLINE
  5
16f
100
AcDbEntity
  8
open-0
 62
7
100
AcDbPolyline
 90
1
 70
1
 10
124.348110
 20
154.094907
 30
0.0
  0
SPLINE
  5
170
100
AcDbEntity
  8
open-0
 62
7
100
AcDbSpline
 70
8
 71
3
 72
8
 73
4
 74
0
 40
0
 40
0
 40
0
 40
0
 40
1
 40
1
 40
1
 40
1
 10
276.065340
 20
112.173860
 30
0.0
 10
276.065340
 20
111.709731
 30
0.0
 10
275.880966
 20
111.264612
 30
0.0
 10
275.552777
 20
110.936423
 30
0.0
  0
SPLINE
  5
171
100
AcDbEntity
  8
open-0
 62
7
100
AcDbSpline
 70
8
 71
3
 72
8
 73
4
 74
0
 40
0
 40
0
 40
0
 40
0
 40
1
 40
1
 40
1
 40
1
 10
275.552777
 20
110.936423
 30
0.0
 10
275.224588
 20
110.608234
 30
0.0
 10
274.779469
 20
110.423860
 30
0.0
 10
274.315340
 20
110.423860
 30
0.0
  0
SPLINE
  5
172
100
AcDbEntity
  8
open-0
 62
7
100
AcDbSpline
 70
8
 71
3
 72
8
 73
4
 74
0
 40
0
 40
0
 40
0
 40
0
 40
1
 40
1
 40
1
 40
1
 10
274.315340
 20
110.423860
 30
0.0
 10
273.851211
 20
110.423860
 30
0.0
 10
273.406092
 20
110.608234
 30
0.0
 10
273.077903
 20
110.936423
 30
0.0
  0
SPLINE
  5
173
100
AcDbEntity
  8
open-0
 62
7
100
AcDbSpline
 70
8
 71
3
 72
8
 73
4
 74
0
 40
0
 40
0
 40
0
 40
0
 40
1
 40
1
 40
1
 40
1
 10
273.077903
 20
110.936423
 30
0.0
 10
272.749714
 20
111.264612
 30
0.0
 10
272.565340
 20
111.709731
 30
0.0
 10
272.565340
 20
112.173860
 30
0.0
  0
SPLINE
  5
174
100
AcDbEntity
  8
open-0
 62
7
100
AcDbSpline
 70
8
 71
3
 72
8
 73
4
 74
0
 40
0
 40
0
 40
0
 40
0
 40
1
 40
1
 40
1
 40
1
 10
272.565340
 20
112.173860
 30
0.0
 10
272.565340
 20
112.637989
 30
0.0
 10
272.749714
 20
113.083108
 30
0.0
 10
273.077903
 20
113.411297
 30
0.0
  0
SPLINE
  5
175
100
AcDbEntity
  8
open-0
 62
7
100
AcDbSpline
 70
8
 71
3
 72
8
 73
4
 74
0
 40
0
 40
0
 40
0
 40
0
 40
1
 40
1
 40
1
 40
1
 10
273.077903
 20
113.411297
 30
0.0
 10
273.406092
 20
113.739486
 30
0.0
 10
273.851211
 20
113.923860
 30
0.0
 10
274.315340
 20
113.923860
 30
0.0
  0
SPLINE
  5
176
100
AcDbEntity
  8
open-0
 62
7
100
AcDbSpline
 70
8
 71
3
 72
8
 73
4
 74
0
 40
0
 40
0
 40
0
 40
0
 40
1
 40
1
 40
1
 40
1
 10
274.315340
 20
113.923860
 30
0.0
 10
274.779469
 20
113.923860
 30
0.0
 10
275.224588
 20
113.739486
 30
0.0
 10
275.552777
 20
113.411297
 30
0.0
  0
SPLINE
  5
177
100
AcDbEntity
  8
open-0
 62
7
100
AcDbSpline
 70
8
 71
3
 72
8
 73
4
 74
0
 40
0
 40
0
 40
0
 40
0
 40
1
 40
1
 40
1
 40
1
 10
275.552777
 20
113.411297
 30
0.0
 10
275.880966
 20
113.083108
 30
0.0
 10
276.065340
 20
112.637989
 30
0.0
 10
276.065340
 20
112.173860
 30
0.0
  0
LWPOLYLINE
  5
178
100
AcDbEntity
  8
open-0
 62
7
100
AcDbPolyline
 90
1
 70
1
 10
7.623668
 20
112.173860
 30
0.0
  0
SPLINE
  5
179
100
AcDbEntity
  8
open-0
 62
7
100
AcDbSpline
 70
8
 71
3
 72
8
 73
4
 74
0
 40
0
 40
0
 40
0
 40
0
 40
1
 40
1
 40
1
 40
1
 10
12.556443
 20
149.461577
 30
0.0
 10
12.556443
 20
148.997448
 30
0.0
 10
12.372069
 20
148.552329
 30
0.0
 10
12.043880
 20
148.224140
 30
0.0
  0
SPLINE
  5
17a
100
AcDbEntity
  8
open-0
 62
7
100
AcDbSpline
 70
8
 71
3
 72
8
 73
4
 74
0
 40
0
 40
0
 40
0
 40
0
 40
1
 40
1
 40
1
 40
1
 10
12.043880
 20
148.224140
 30
0.0
 10
11.715691
 20
147.895951
 30
0.0
 10
11.270572
 20
147.711577
 30
0.0
 10
10.806443
 20
147.711577
 30
0.0
  0
SPLINE
  5
17b
100
AcDbEntity
  8
open-0
 62
7
100
AcDbSpline
 70
8
 71
3
 72
8
 73
4
 74
0
 40
0
 40
0
 40
0
 40
0
 40
1
 40
1
 40
1
 40
1
 10
10.806443
 20
147.711577
 30
0.0
 10
9.839945
 20
147.711577
 30
0.0
 10
9.056443
 20
148.495079
 30
0.0
 10
9.056443
 20
149.461577
 30
0.0
  0
SPLINE
  5
17c
100
AcDbEntity
  8
open-0
 62
7
100
AcDbSpline
 70
8
 71
3
 72
8
 73
4
 74
0
 40
0
 40
0
 40
0
 40
0
 40
1
 40
1
 40
1
 40
1
 10
9.056443
 20
149.461577
 30
0.0
 10
9.056443
 20
149.925706
 30
0.0
 10
9.240818
 20
150.370825
 30
0.0
 10
9.569006
 20
150.699014
 30
0.0
  0
SPLINE
  5
17d
100
AcDbEntity
  8
open-0
 62
7
100
AcDbSpline
 70
8
 71
3
 72
8
 73
4
 74
0
 40
0
 40
0
 40
0
 40
0
 40
1
 40
1
 40
1
 40
1
 10
9.569006
 20
150.699014
 30
0.0
 10
9.897195
 20
151.027203
 30
0.0
 10
10.342314
 20
151.211577
 30
0.0
 10
10.806443
 20
151.211577
 30
0.0
  0
SPLINE
  5
17e
100
AcDbEntity
  8
open-0
 62
7
100
AcDbSpline
 70
8
 71
3
 72
8
 73
4
 74
0
 40
0
 40
0
 40
0
 40
0
 40
1
 40
1
 40
1
 40
1
 10
10.806443
 20
151.211577
 30
0.0
 10
11.270572
 20
151.211577
 30
0.0
 10
11.715691
 20
151.027203
 30
0.0
 10
12.043880
 20
150.699014
 30
0.0
  0
SPLINE
  5
17f
100
AcDbEntity
  8
open-0
 62
7
100
AcDbSpline
 70
8
 71
3
 72
8
 73
4
 74
0
 40
0
 40
0
 40
0
 40
0
 40
1
 40
1
 40
1
 40
1
 10
12.043880
 20
150.699014
 30
0.0
 10
12.372069
 20
150.370825
 30
0.0
 10
12.556443
 20
149.925706
 30
0.0
 10
12.556443
 20
149.461577
 30
0.0
  0
LWPOLYLINE
  5
180
100
AcDbEntity
  8
open-0
 62
7
100
AcDbPolyline
 90
1
 70
1
 10
276.065340
 20
112.173860
 30
0.0
  0
SPLINE
  5
181
100
AcDbEntity
  8
open-0
 62
7
100
AcDbSpline
 70
8
 71
3
 72
8
 73
4
 74
0
 40
0
 40
0
 40
0
 40
0
 40
1
 40
1
 40
1
 40
1
 10
271.173130
 20
149.461348
 30
0.0
 10
271.173130
 20
148.997219
 30
0.0
 10
270.988756
 20
148.552100
 30
0.0
 10
270.660567
 20
148.223911
 30
0.0
  0
SPLINE
  5
182
100
AcDbEntity
  8
open-0
 62
7
100
AcDbSpline
 70
8
 71
3
 72
8
 73
4
 74
0
 40
0
 40
0
 40
0
 40
0
 40
1
 40
1
 40
1
 40
1
 10
270.660567
 20
148.223911
 30
0.0
 10
270.332378
 20
147.895722
 30
0.0
 10
269.887259
 20
147.711348
 30
0.0
 10
269.423130
 20
147.711348
 30
0.0
  0
SPLINE
  5
183
100
AcDbEntity
  8
open-0
 62
7
100
AcDbSpline
 70
8
 71
3
 72
8
 73
4
 74
0
 40
0
 40
0
 40
0
 40
0
 40
1
 40
1
 40
1
 40
1
 10
269.423130
 20
147.711348
 30
0.0
 10
268.959001
 20
147.711348
 30
0.0
 10
268.513882
 20
147.895722
 30
0.0
 10
268.185693
 20
148.223911
 30
0.0
  0
SPLINE
  5
184
100
AcDbEntity
  8
open-0
 62
7
100
AcDbSpline
 70
8
 71
3
 72
8
 73
4
 74
0
 40
0
 40
0
 40
0
 40
0
 40
1
 40
1
 40
1
 40
1
 10
268.185693
 20
148.223911
 30
0.0
 10
267.857504
 20
148.552100
 30
0.0
 10
267.673130
 20
148.997219
 30
0.0
 10
267.673130
 20
149.461348
 30
0.0
  0
SPLINE
  5
185
100
AcDbEntity
  8
open-0
 62
7
100
AcDbSpline
 70
8
 71
3
 72
8
 73
4
 74
0
 40
0
 40
0
 40
0
 40
0
 40
1
 40
1
 40
1
 40
1
 10
267.673130
 20
149.461348
 30
0.0
 10
267.673130
 20
149.925477
 30
0.0
 10
267.857504
 20
150.370596
 30
0.0
 10
268.185693
 20
150.698785
 30
0.0
  0
SPLINE
  5
186
100
AcDbEntity
  8
open-0
 62
7
100
AcDbSpline
 70
8
 71
3
 72
8
 73
4
 74
0
 40
0
 40
0
 40
0
 40
0
 40
1
 40
1
 40
1
 40
1
 10
268.185693
 20
150.698785
 30
0.0
 10
268.513882
 20
151.026974
 30
0.0
 10
268.959001
 20
151.211348
 30
0.0
 10
269.423130
 20
151.211348
 30
0.0
  0
SPLINE
  5
187
100
AcDbEntity
  8
open-0
 62
7
100
AcDbSpline
 70
8
 71
3
 72
8
 73
4
 74
0
 40
0
 40
0
 40
0
 40
0
 40
1
 40
1
 40
1
 40
1
 10
269.423130
 20
151.211348
 30
0.0
 10
269.887259
 20
151.211348
 30
0.0
 10
270.332378
 20
151.026974
 30
0.0
 10
270.660567
 20
150.698785
 30
0.0
  0
SPLINE
  5
188
100
AcDbEntity
  8
open-0
 62
7
100
AcDbSpline
 70
8
 71
3
 72
8
 73
4
 74
0
 40
0
 40
0
 40
0
 40
0
 40
1
 40
1
 40
1
 40
1
 10
270.660567
 20
150.698785
 30
0.0
 10
270.988756
 20
150.370596
 30
0.0
 10
271.173130
 20
149.925477
 30
0.0
 10
271.173130
 20
149.461348
 30
0.0
  0
LWPOLYLINE
  5
189
100
AcDbEntity
  8
open-0
 62
7
100
AcDbPolyline
 90
1
 70
1
 10
12.556443
 20
149.461577
 30
0.0
  0
SPLINE
  5
18a
100
AcDbEntity
  8
open-0
 62
7
100
AcDbSpline
 70
8
 71
3
 72
8
 73
4
 74
0
 40
0
 40
0
 40
0
 40
0
 40
1
 40
1
 40
1
 40
1
 10
12.556664
 20
65.162122
 30
0.0
 10
12.556664
 20
64.697993
 30
0.0
 10
12.372290
 20
64.252874
 30
0.0
 10
12.044101
 20
63.924685
 30
0.0
  0
SPLINE
  5
18b
100
AcDbEntity
  8
open-0
 62
7
100
AcDbSpline
 70
8
 71
3
 72
8
 73
4
 74
0
 40
0
 40
0
 40
0
 40
0
 40
1
 40
1
 40
1
 40
1
 10
12.044101
 20
63.924685
 30
0.0
 10
11.715912
 20
63.596496
 30
0.0
 10
11.270793
 20
63.412122
 30
0.0
 10
10.806664
 20
63.412122
 30
0.0
  0
SPLINE
  5
18c
100
AcDbEntity
  8
open-0
 62
7
100
AcDbSpline
 70
8
 71
3
 72
8
 73
4
 74
0
 40
0
 40
0
 40
0
 40
0
 40
1
 40
1
 40
1
 40
1
 10
10.806664
 20
63.412122
 30
0.0
 10
9.840166
 20
63.412122
 30
0.0
 10
9.056665
 20
64.195624
 30
0.0
 10
9.056665
 20
65.162122
 30
0.0
  0
SPLINE
  5
18d
100
AcDbEntity
  8
open-0
 62
7
100
AcDbSpline
 70
8
 71
3
 72
8
 73
4
 74
0
 40
0
 40
0
 40
0
 40
0
 40
1
 40
1
 40
1
 40
1
 10
9.056665
 20
65.162122
 30
0.0
 10
9.056665
 20
66.128620
 30
0.0
 10
9.840166
 20
66.912122
 30
0.0
 10
10.806664
 20
66.912122
 30
0.0
  0
SPLINE
  5
18e
100
AcDbEntity
  8
open-0
 62
7
100
AcDbSpline
 70
8
 71
3
 72
8
 73
4
 74
0
 40
0
 40
0
 40
0
 40
0
 40
1
 40
1
 40
1
 40
1
 10
10.806664
 20
66.912122
 30
0.0
 10
11.270793
 20
66.912122
 30
0.0
 10
11.715912
 20
66.727748
 30
0.0
 10
12.044101
 20
66.399559
 30
0.0
  0
SPLINE
  5
18f
100
AcDbEntity
  8
open-0
 62
7
100
AcDbSpline
 70
8
 71
3
 72
8
 73
4
 74
0
 40
0
 40
0
 40
0
 40
0
 40
1
 40
1
 40
1
 40
1
 10
12.044101
 20
66.399559
 30
0.0
 10
12.372290
 20
66.071370
 30
0.0
 10
12.556664
 20
65.626251
 30
0.0
 10
12.556664
 20
65.162122
 30
0.0
  0
LWPOLYLINE
  5
190
100
AcDbEntity
  8
open-0
 62
7
100
AcDbPolyline
 90
1
 70
1
 10
271.173130
 20
149.461348
 30
0.0
  0
SPLINE
  5
191
100
AcDbEntity
  8
open-0
 62
7
100
AcDbSpline
 70
8
 71
3
 72
8
 73
4
 74
0
 40
0
 40
0
 40
0
 40
0
 40
1
 40
1
 40
1
 40
1
 10
271.173340
 20
65.161970
 30
0.0
 10
271.173340
 20
64.697841
 30
0.0
 10
270.988966
 20
64.252722
 30
0.0
 10
270.660777
 20
63.924533
 30
0.0
  0
SPLINE
  5
192
100
AcDbEntity
  8
open-0
 62
7
100
AcDbSpline
 70
8
 71
3
 72
8
 73
4
 74
0
 40
0
 40
0
 40
0
 40
0
 40
1
 40
1
 40
1
 40
1
 10
270.660777
 20
63.924533
 30
0.0
 10
270.332588
 20
63.596344
 30
0.0
 10
269.887469
 20
63.411970
 30
0.0
 10
269.423340
 20
63.411970
 30
0.0
  0
SPLINE
  5
193
100
AcDbEntity
  8
open-0
 62
7
100
AcDbSpline
 70
8
 71
3
 72
8
 73
4
 74
0
 40
0
 40
0
 40
0
 40
0
 40
1
 40
1
 40
1
 40
1
 10
269.423340
 20
63.411970
 30
0.0
 10
268.959211
 20
63.411970
 30
0.0
 10
268.514092
 20
63.596344
 30
0.0
 10
268.185903
 20
63.924533
 30
0.0
  0
SPLINE
  5
194
100
AcDbEntity
  8
open-0
 62
7
100
AcDbSpline
 70
8
 71
3
 72
8
 73
4
 74
0
 40
0
 40
0
 40
0
 40
0
 40
1
 40
1
 40
1
 40
1
 10
268.185903
 20
63.924533
 30
0.0
 10
267.857714
 20
64.252722
 30
0.0
 10
267.673340
 20
64.697841
 30
0.0
 10
267.673340
 20
65.161970
 30
0.0
  0
SPLINE
  5
195
100
AcDbEntity
  8
open-0
 62
7
100
AcDbSpline
 70
8
 71
3
 72
8
 73
4
 74
0
 40
0
 40
0
 40
0
 40
0
 40
1
 40
1
 40
1
 40
1
 10
267.673340
 20
65.161970
 30
0.0
 10
267.673340
 20
65.626099
 30
0.0
 10
267.857714
 20
66.071218
 30
0.0
 10
268.185903
 20
66.399407
 30
0.0
  0
SPLINE
  5
196
100
AcDbEntity
  8
open-0
 62
7
100
AcDbSpline
 70
8
 71
3
 72
8
 73
4
 74
0
 40
0
 40
0
 40
0
 40
0
 40
1
 40
1
 40
1
 40
1
 10
268.185903
 20
66.399407
 30
0.0
 10
268.514092
 20
66.727596
 30
0.0
 10
268.959211
 20
66.911970
 30
0.0
 10
269.423340
 20
66.911970
 30
0.0
  0
SPLINE
  5
197
100
AcDbEntity
  8
open-0
 62
7
100
AcDbSpline
 70
8
 71
3
 72
8
 73
4
 74
0
 40
0
 40
0
 40
0
 40
0
 40
1
 40
1
 40
1
 40
1
 10
269.423340
 20
66.911970
 30
0.0
 10
269.887469
 20
66.911970
 30
0.0
 10
270.332588
 20
66.727596
 30
0.0
 10
270.660777
 20
66.399407
 30
0.0
  0
SPLINE
  5
198
100
AcDbEntity
  8
open-0
 62
7
100
AcDbSpline
 70
8
 71
3
 72
8
 73
4
 74
0
 40
0
 40
0
 40
0
 40
0
 40
1
 40
1
 40
1
 40
1
 10
270.660777
 20
66.399407
 30
0.0
 10
270.988966
 20
66.071218
 30
0.0
 10
271.173340
 20
65.626099
 30
0.0
 10
271.173340
 20
65.161970
 30
0.0
  0
LWPOLYLINE
  5
199
100
AcDbEntity
  8
open-0
 62
7
100
AcDbPolyline
 90
1
 70
1
 10
12.556664
 20
65.162122
 30
0.0
  0
SPLINE
  5
19a
100
AcDbEntity
  8
open-0
 62
7
100
AcDbSpline
 70
8
 71
3
 72
8
 73
4
 74
0
 40
0
 40
0
 40
0
 40
0
 40
1
 40
1
 40
1
 40
1
 10
159.585800
 20
154.094907
 30
0.0
 10
159.585800
 20
153.630778
 30
0.0
 10
159.401426
 20
153.185658
 30
0.0
 10
159.073237
 20
152.857470
 30
0.0
  0
SPLINE
  5
19b
100
AcDbEntity
  8
open-0
 62
7
100
AcDbSpline
 70
8
 71
3
 72
8
 73
4
 74
0
 40
0
 40
0
 40
0
 40
0
 40
1
 40
1
 40
1
 40
1
 10
159.073237
 20
152.857470
 30
0.0
 10
158.745048
 20
152.529281
 30
0.0
 10
158.299929
 20
152.344907
 30
0.0
 10
157.835800
 20
152.344907
 30
0.0
  0
SPLINE
  5
19c
100
AcDbEntity
  8
open-0
 62
7
100
AcDbSpline
 70
8
 71
3
 72
8
 73
4
 74
0
 40
0
 40
0
 40
0
 40
0
 40
1
 40
1
 40
1
 40
1
 10
157.835800
 20
152.344907
 30
0.0
 10
157.371671
 20
152.344907
 30
0.0
 10
156.926552
 20
152.529281
 30
0.0
 10
156.598363
 20
152.857470
 30
0.0
  0
SPLINE
  5
19d
100
AcDbEntity
  8
open-0
 62
7
100
AcDbSpline
 70
8
 71
3
 72
8
 73
4
 74
0
 40
0
 40
0
 40
0
 40
0
 40
1
 40
1
 40
1
 40
1
 10
156.598363
 20
152.857470
 30
0.0
 10
156.270174
 20
153.185658
 30
0.0
 10
156.085800
 20
153.630778
 30
0.0
 10
156.085800
 20
154.094907
 30
0.0
  0
SPLINE
  5
19e
100
AcDbEntity
  8
open-0
 62
7
100
AcDbSpline
 70
8
 71
3
 72
8
 73
4
 74
0
 40
0
 40
0
 40
0
 40
0
 40
1
 40
1
 40
1
 40
1
 10
156.085800
 20
154.094907
 30
0.0
 10
156.085800
 20
154.559035
 30
0.0
 10
156.270174
 20
155.004155
 30
0.0
 10
156.598363
 20
155.332343
 30
0.0
  0
SPLINE
  5
19f
100
AcDbEntity
  8
open-0
 62
7
100
AcDbSpline
 70
8
 71
3
 72
8
 73
4
 74
0
 40
0
 40
0
 40
0
 40
0
 40
1
 40
1
 40
1
 40
1
 10
156.598363
 20
155.332343
 30
0.0
 10
156.926552
 20
155.660532
 30
0.0
 10
157.371671
 20
155.844907
 30
0.0
 10
157.835800
 20
155.844907
 30
0.0
  0
SPLINE
  5
1a0
100
AcDbEntity
  8
open-0
 62
7
100
AcDbSpline
 70
8
 71
3
 72
8
 73
4
 74
0
 40
0
 40
0
 40
0
 40
0
 40
1
 40
1
 40
1
 40
1
 10
157.835800
 20
155.844907
 30
0.0
 10
158.299929
 20
155.844907
 30
0.0
 10
158.745048
 20
155.660532
 30
0.0
 10
159.073237
 20
155.332343
 30
0.0
  0
SPLINE
  5
1a1
100
AcDbEntity
  8
open-0
 62
7
100
AcDbSpline
 70
8
 71
3
 72
8
 73
4
 74
0
 40
0
 40
0
 40
0
 40
0
 40
1
 40
1
 40
1
 40
1
 10
159.073237
 20
155.332343
 30
0.0
 10
159.401426
 20
155.004155
 30
0.0
 10
159.585800
 20
154.559035
 30
0.0
 10
159.585800
 20
154.094907
 30
0.0
  0
LWPOLYLINE
  5
1a2
100
AcDbEntity
  8
open-0
 62
7
100
AcDbPolyline
 90
1
 70
1
 10
271.173340
 20
65.161970
 30
0.0
  0
SPLINE
  5
1a3
100
AcDbEntity
  8
open-0
 62
7
100
AcDbSpline
 70
8
 71
3
 72
8
 73
4
 74
0
 40
0
 40
0
 40
0
 40
0
 40
1
 40
1
 40
1
 40
1
 10
104.348510
 20
43.614370
 30
0.0
 10
104.348510
 20
43.150241
 30
0.0
 10
104.164136
 20
42.705122
 30
0.0
 10
103.835947
 20
42.376933
 30
0.0
  0
SPLINE
  5
1a4
100
AcDbEntity
  8
open-0
 62
7
100
AcDbSpline
 70
8
 71
3
 72
8
 73
4
 74
0
 40
0
 40
0
 40
0
 40
0
 40
1
 40
1
 40
1
 40
1
 10
103.835947
 20
42.376933
 30
0.0
 10
103.507758
 20
42.048744
 30
0.0
 10
103.062639
 20
41.864370
 30
0.0
 10
102.598510
 20
41.864370
 30
0.0
  0
SPLINE
  5
1a5
100
AcDbEntity
  8
open-0
 62
7
100
AcDbSpline
 70
8
 71
3
 72
8
 73
4
 74
0
 40
0
 40
0
 40
0
 40
0
 40
1
 40
1
 40
1
 40
1
 10
102.598510
 20
41.864370
 30
0.0
 10
101.632012
 20
41.864370
 30
0.0
 10
100.848510
 20
42.647872
 30
0.0
 10
100.848510
 20
43.614370
 30
0.0
  0
SPLINE
  5
1a6
100
AcDbEntity
  8
open-0
 62
7
100
AcDbSpline
 70
8
 71
3
 72
8
 73
4
 74
0
 40
0
 40
0
 40
0
 40
0
 40
1
 40
1
 40
1
 40
1
 10
100.848510
 20
43.614370
 30
0.0
 10
100.848510
 20
44.078499
 30
0.0
 10
101.032884
 20
44.523618
 30
0.0
 10
101.361073
 20
44.851807
 30
0.0
  0
SPLINE
  5
1a7
100
AcDbEntity
  8
open-0
 62
7
100
AcDbSpline
 70
8
 71
3
 72
8
 73
4
 74
0
 40
0
 40
0
 40
0
 40
0
 40
1
 40
1
 40
1
 40
1
 10
101.361073
 20
44.851807
 30
0.0
 10
101.689262
 20
45.179996
 30
0.0
 10
102.134381
 20
45.364370
 30
0.0
 10
102.598510
 20
45.364370
 30
0.0
  0
SPLINE
  5
1a8
100
AcDbEntity
  8
open-0
 62
7
100
AcDbSpline
 70
8
 71
3
 72
8
 73
4
 74
0
 40
0
 40
0
 40
0
 40
0
 40
1
 40
1
 40
1
 40
1
 10
102.598510
 20
45.364370
 30
0.0
 10
103.062639
 20
45.364370
 30
0.0
 10
103.507758
 20
45.179996
 30
0.0
 10
103.835947
 20
44.851807
 30
0.0
  0
SPLINE
  5
1a9
100
AcDbEntity
  8
open-0
 62
7
100
AcDbSpline
 70
8
 71
3
 72
8
 73
4
 74
0
 40
0
 40
0
 40
0
 40
0
 40
1
 40
1
 40
1
 40
1
 10
103.835947
 20
44.851807
 30
0.0
 10
104.164136
 20
44.523618
 30
0.0
 10
104.348510
 20
44.078499
 30
0.0
 10
104.348510
 20
43.614370
 30
0.0
  0
LWPOLYLINE
  5
1aa
100
AcDbEntity
  8
open-0
 62
7
100
AcDbPolyline
 90
1
 70
1
 10
159.585800
 20
154.094907
 30
0.0
  0
SPLINE
  5
1ab
100
AcDbEntity
  8
open-0
 62
7
100
AcDbSpline
 70
8
 71
3
 72
8
 73
4
 74
0
 40
0
 40
0
 40
0
 40
0
 40
1
 40
1
 40
1
 40
1
 10
179.586500
 20
43.614370
 30
0.0
 10
179.586500
 20
43.150241
 30
0.0
 10
179.402126
 20
42.705122
 30
0.0
 10
179.073937
 20
42.376933
 30
0.0
  0
SPLINE
  5
1ac
100
AcDbEntity
  8
open-0
 62
7
100
AcDbSpline
 70
8
 71
3
 72
8
 73
4
 74
0
 40
0
 40
0
 40
0
 40
0
 40
1
 40
1
 40
1
 40
1
 10
179.073937
 20
42.376933
 30
0.0
 10
178.745748
 20
42.048744
 30
0.0
 10
178.300629
 20
41.864370
 30
0.0
 10
177.836500
 20
41.864370
 30
0.0
  0
SPLINE
  5
1ad
100
AcDbEntity
  8
open-0
 62
7
100
AcDbSpline
 70
8
 71
3
 72
8
 73
4
 74
0
 40
0
 40
0
 40
0
 40
0
 40
1
 40
1
 40
1
 40
1
 10
177.836500
 20
41.864370
 30
0.0
 10
177.372371
 20
41.864370
 30
0.0
 10
176.927252
 20
42.048744
 30
0.0
 10
176.599063
 20
42.376933
 30
0.0
  0
SPLINE
  5
1ae
100
AcDbEntity
  8
open-0
 62
7
100
AcDbSpline
 70
8
 71
3
 72
8
 73
4
 74
0
 40
0
 40
0
 40
0
 40
0
 40
1
 40
1
 40
1
 40
1
 10
176.599063
 20
42.376933
 30
0.0
 10
176.270874
 20
42.705122
 30
0.0
 10
176.086500
 20
43.150241
 30
0.0
 10
176.086500
 20
43.614370
 30
0.0
  0
SPLINE
  5
1af
100
AcDbEntity
  8
open-0
 62
7
100
AcDbSpline
 70
8
 71
3
 72
8
 73
4
 74
0
 40
0
 40
0
 40
0
 40
0
 40
1
 40
1
 40
1
 40
1
 10
176.086500
 20
43.614370
 30
0.0
 10
176.086500
 20
44.078499
 30
0.0
 10
176.270874
 20
44.523618
 30
0.0
 10
176.599063
 20
44.851807
 30
0.0
  0
SPLINE
  5
1b0
100
AcDbEntity
  8
open-0
 62
7
100
AcDbSpline
 70
8
 71
3
 72
8
 73
4
 74
0
 40
0
 40
0
 40
0
 40
0
 40
1
 40
1
 40
1
 40
1
 10
176.599063
 20
44.851807
 30
0.0
 10
176.927252
 20
45.179996
 30
0.0
 10
177.372371
 20
45.364370
 30
0.0
 10
177.836500
 20
45.364370
 30
0.0
  0
SPLINE
  5
1b1
100
AcDbEntity
  8
open-0
 62
7
100
AcDbSpline
 70
8
 71
3
 72
8
 73
4
 74
0
 40
0
 40
0
 40
0
 40
0
 40
1
 40
1
 40
1
 40
1
 10
177.836500
 20
45.364370
 30
0.0
 10
178.300629
 20
45.364370
 30
0.0
 10
178.745748
 20
45.179996
 30
0.0
 10
179.073937
 20
44.851807
 30
0.0
  0
SPLINE
  5
1b2
100
AcDbEntity
  8
open-0
 62
7
100
AcDbSpline
 70
8
 71
3
 72
8
 73
4
 74
0
 40
0
 40
0
 40
0
 40
0
 40
1
 40
1
 40
1
 40
1
 10
179.073937
 20
44.851807
 30
0.0
 10
179.402126
 20
44.523618
 30
0.0
 10
179.586500
 20
44.078499
 30
0.0
 10
179.586500
 20
43.614370
 30
0.0
  0
LWPOLYLINE
  5
1b3
100
AcDbEntity
  8
open-0
 62
7
100
AcDbPolyline
 90
1
 70
1
 10
104.348510
 20
43.614370
 30
0.0
  0
SPLINE
  5
1b4
100
AcDbEntity
  8
open-0
 62
7
100
AcDbSpline
 70
8
 71
3
 72
8
 73
4
 74
0
 40
0
 40
0
 40
0
 40
0
 40
1
 40
1
 40
1
 40
1
 10
259.323450
 20
137.961524
 30
0.0
 10
258.771171
 20
137.961511
 30
0.0
 10
258.323463
 20
137.513803
 30
0.0
 10
258.323450
 20
136.961524
 30
0.0
  0
SPLINE
  5
1b5
100
AcDbEntity
  8
open-0
 62
7
100
AcDbSpline
 70
8
 71
3
 72
8
 73
4
 74
0
 40
0
 40
0
 40
0
 40
0
 40
1
 40
1
 40
1
 40
1
 10
258.323450
 20
136.961524
 30
0.0
 10
258.323463
 20
136.409245
 30
0.0
 10
258.771171
 20
135.961537
 30
0.0
 10
259.323450
 20
135.961524
 30
0.0
  0
SPLINE
  5
1b6
100
AcDbEntity
  8
open-0
 62
7
100
AcDbSpline
 70
8
 71
3
 72
8
 73
4
 74
0
 40
0
 40
0
 40
0
 40
0
 40
1
 40
1
 40
1
 40
1
 10
259.323450
 20
135.961524
 30
0.0
 10
259.875729
 20
135.961537
 30
0.0
 10
260.323437
 20
136.409245
 30
0.0
 10
260.323450
 20
136.961524
 30
0.0
  0
SPLINE
  5
1b7
100
AcDbEntity
  8
open-0
 62
7
100
AcDbSpline
 70
8
 71
3
 72
8
 73
4
 74
0
 40
0
 40
0
 40
0
 40
0
 40
1
 40
1
 40
1
 40
1
 10
260.323450
 20
136.961524
 30
0.0
 10
260.323437
 20
137.513803
 30
0.0
 10
259.875729
 20
137.961511
 30
0.0
 10
259.323450
 20
137.961524
 30
0.0
  0
LWPOLYLINE
  5
1b8
100
AcDbEntity
  8
open-0
 62
7
100
AcDbPolyline
 90
1
 70
1
 10
179.586500
 20
43.614370
 30
0.0
  0
SPLINE
  5
1b9
100
AcDbEntity
  8
open-0
 62
7
100
AcDbSpline
 70
8
 71
3
 72
8
 73
4
 74
0
 40
0
 40
0
 40
0
 40
0
 40
1
 40
1
 40
1
 40
1
 10
147.735452
 20
142.594524
 30
0.0
 10
147.183173
 20
142.594511
 30
0.0
 10
146.735465
 20
142.146803
 30
0.0
 10
146.735452
 20
141.594524
 30
0.0
  0
SPLINE
  5
1ba
100
AcDbEntity
  8
open-0
 62
7
100
AcDbSpline
 70
8
 71
3
 72
8
 73
4
 74
0
 40
0
 40
0
 40
0
 40
0
 40
1
 40
1
 40
1
 40
1
 10
146.735452
 20
141.594524
 30
0.0
 10
146.735465
 20
141.042245
 30
0.0
 10
147.183173
 20
140.594537
 30
0.0
 10
147.735452
 20
140.594524
 30
0.0
  0
SPLINE
  5
1bb
100
AcDbEntity
  8
open-0
 62
7
100
AcDbSpline
 70
8
 71
3
 72
8
 73
4
 74
0
 40
0
 40
0
 40
0
 40
0
 40
1
 40
1
 40
1
 40
1
 10
147.735452
 20
140.594524
 30
0.0
 10
148.287731
 20
140.594537
 30
0.0
 10
148.735439
 20
141.042245
 30
0.0
 10
148.735452
 20
141.594524
 30
0.0
  0
SPLINE
  5
1bc
100
AcDbEntity
  8
open-0
 62
7
100
AcDbSpline
 70
8
 71
3
 72
8
 73
4
 74
0
 40
0
 40
0
 40
0
 40
0
 40
1
 40
1
 40
1
 40
1
 10
148.735452
 20
141.594524
 30
0.0
 10
148.735439
 20
142.146803
 30
0.0
 10
148.287731
 20
142.594511
 30
0.0
 10
147.735452
 20
142.594524
 30
0.0
  0
LWPOLYLINE
  5
1bd
100
AcDbEntity
  8
open-0
 62
7
100
AcDbPolyline
 90
1
 70
1
 10
259.323450
 20
137.961524
 30
0.0
  0
SPLINE
  5
1be
100
AcDbEntity
  8
open-0
 62
7
100
AcDbSpline
 70
8
 71
3
 72
8
 73
4
 74
0
 40
0
 40
0
 40
0
 40
0
 40
1
 40
1
 40
1
 40
1
 10
134.698530
 20
141.594501
 30
0.0
 10
134.698530
 20
141.329277
 30
0.0
 10
134.593170
 20
141.074916
 30
0.0
 10
134.405628
 20
140.887375
 30
0.0
  0
SPLINE
  5
1bf
100
AcDbEntity
  8
open-0
 62
7
100
AcDbSpline
 70
8
 71
3
 72
8
 73
4
 74
0
 40
0
 40
0
 40
0
 40
0
 40
1
 40
1
 40
1
 40
1
 10
134.405628
 20
140.887375
 30
0.0
 10
134.218086
 20
140.699834
 30
0.0
 10
133.963724
 20
140.594475
 30
0.0
 10
133.698500
 20
140.594477
 30
0.0
  0
SPLINE
  5
1c0
100
AcDbEntity
  8
open-0
 62
7
100
AcDbSpline
 70
8
 71
3
 72
8
 73
4
 74
0
 40
0
 40
0
 40
0
 40
0
 40
1
 40
1
 40
1
 40
1
 10
133.698500
 20
140.594477
 30
0.0
 10
133.146203
 20
140.594479
 30
0.0
 10
132.698480
 20
141.042205
 30
0.0
 10
132.698480
 20
141.594501
 30
0.0
  0
SPLINE
  5
1c1
100
AcDbEntity
  8
open-0
 62
7
100
AcDbSpline
 70
8
 71
3
 72
8
 73
4
 74
0
 40
0
 40
0
 40
0
 40
0
 40
1
 40
1
 40
1
 40
1
 10
132.698480
 20
141.594501
 30
0.0
 10
132.698480
 20
142.146797
 30
0.0
 10
133.146203
 20
142.594523
 30
0.0
 10
133.698500
 20
142.594525
 30
0.0
  0
SPLINE
  5
1c2
100
AcDbEntity
  8
open-0
 62
7
100
AcDbSpline
 70
8
 71
3
 72
8
 73
4
 74
0
 40
0
 40
0
 40
0
 40
0
 40
1
 40
1
 40
1
 40
1
 10
133.698500
 20
142.594525
 30
0.0
 10
133.963724
 20
142.594527
 30
0.0
 10
134.218086
 20
142.489168
 30
0.0
 10
134.405628
 20
142.301627
 30
0.0
  0
SPLINE
  5
1c3
100
AcDbEntity
  8
open-0
 62
7
100
AcDbSpline
 70
8
 71
3
 72
8
 73
4
 74
0
 40
0
 40
0
 40
0
 40
0
 40
1
 40
1
 40
1
 40
1
 10
134.405628
 20
142.301627
 30
0.0
 10
134.593170
 20
142.114086
 30
0.0
 10
134.698530
 20
141.859725
 30
0.0
 10
134.698530
 20
141.594501
 30
0.0
  0
LWPOLYLINE
  5
1c4
100
AcDbEntity
  8
open-0
 62
7
100
AcDbPolyline
 90
1
 70
1
 10
147.735452
 20
142.594524
 30
0.0
  0
SPLINE
  5
1c5
100
AcDbEntity
  8
open-0
 62
7
100
AcDbSpline
 70
8
 71
3
 72
8
 73
4
 74
0
 40
0
 40
0
 40
0
 40
0
 40
1
 40
1
 40
1
 40
1
 10
22.906524
 20
136.961500
 30
0.0
 10
22.906524
 20
136.696277
 30
0.0
 10
22.801165
 20
136.441917
 30
0.0
 10
22.613624
 20
136.254376
 30
0.0
  0
SPLINE
  5
1c6
100
AcDbEntity
  8
open-0
 62
7
100
AcDbSpline
 70
8
 71
3
 72
8
 73
4
 74
0
 40
0
 40
0
 40
0
 40
0
 40
1
 40
1
 40
1
 40
1
 10
22.613624
 20
136.254376
 30
0.0
 10
22.426083
 20
136.066835
 30
0.0
 10
22.171723
 20
135.961476
 30
0.0
 10
21.906500
 20
135.961476
 30
0.0
  0
SPLINE
  5
1c7
100
AcDbEntity
  8
open-0
 62
7
100
AcDbSpline
 70
8
 71
3
 72
8
 73
4
 74
0
 40
0
 40
0
 40
0
 40
0
 40
1
 40
1
 40
1
 40
1
 10
21.906500
 20
135.961476
 30
0.0
 10
21.641277
 20
135.961476
 30
0.0
 10
21.386917
 20
136.066835
 30
0.0
 10
21.199376
 20
136.254376
 30
0.0
  0
SPLINE
  5
1c8
100
AcDbEntity
  8
open-0
 62
7
100
AcDbSpline
 70
8
 71
3
 72
8
 73
4
 74
0
 40
0
 40
0
 40
0
 40
0
 40
1
 40
1
 40
1
 40
1
 10
21.199376
 20
136.254376
 30
0.0
 10
21.011835
 20
136.441917
 30
0.0
 10
20.906476
 20
136.696277
 30
0.0
 10
20.906476
 20
136.961500
 30
0.0
  0
SPLINE
  5
1c9
100
AcDbEntity
  8
open-0
 62
7
100
AcDbSpline
 70
8
 71
3
 72
8
 73
4
 74
0
 40
0
 40
0
 40
0
 40
0
 40
1
 40
1
 40
1
 40
1
 10
20.906476
 20
136.961500
 30
0.0
 10
20.906476
 20
137.226723
 30
0.0
 10
21.011835
 20
137.481083
 30
0.0
 10
21.199376
 20
137.668624
 30
0.0
  0
SPLINE
  5
1ca
100
AcDbEntity
  8
open-0
 62
7
100
AcDbSpline
 70
8
 71
3
 72
8
 73
4
 74
0
 40
0
 40
0
 40
0
 40
0
 40
1
 40
1
 40
1
 40
1
 10
21.199376
 20
137.668624
 30
0.0
 10
21.386917
 20
137.856165
 30
0.0
 10
21.641277
 20
137.961524
 30
0.0
 10
21.906500
 20
137.961524
 30
0.0
  0
SPLINE
  5
1cb
100
AcDbEntity
  8
open-0
 62
7
100
AcDbSpline
 70
8
 71
3
 72
8
 73
4
 74
0
 40
0
 40
0
 40
0
 40
0
 40
1
 40
1
 40
1
 40
1
 10
21.906500
 20
137.961524
 30
0.0
 10
22.171723
 20
137.961524
 30
0.0
 10
22.426083
 20
137.856165
 30
0.0
 10
22.613624
 20
137.668624
 30
0.0
  0
SPLINE
  5
1cc
100
AcDbEntity
  8
open-0
 62
7
100
AcDbSpline
 70
8
 71
3
 72
8
 73
4
 74
0
 40
0
 40
0
 40
0
 40
0
 40
1
 40
1
 40
1
 40
1
 10
22.613624
 20
137.668624
 30
0.0
 10
22.801165
 20
137.481083
 30
0.0
 10
22.906524
 20
137.226723
 30
0.0
 10
22.906524
 20
136.961500
 30
0.0
  0
LWPOLYLINE
  5
1cd
100
AcDbEntity
  8
open-0
 62
7
100
AcDbPolyline
 90
1
 70
1
 10
134.698530
 20
141.594501
 30
0.0
  0
SPLINE
  5
1ce
100
AcDbEntity
  8
open-0
 62
7
100
AcDbSpline
 70
8
 71
3
 72
8
 73
4
 74
0
 40
0
 40
0
 40
0
 40
0
 40
1
 40
1
 40
1
 40
1
 10
258.823890
 20
119.961525
 30
0.0
 10
258.271611
 20
119.961512
 30
0.0
 10
257.823903
 20
119.513804
 30
0.0
 10
257.823890
 20
118.961525
 30
0.0
  0
SPLINE
  5
1cf
100
AcDbEntity
  8
open-0
 62
7
100
AcDbSpline
 70
8
 71
3
 72
8
 73
4
 74
0
 40
0
 40
0
 40
0
 40
0
 40
1
 40
1
 40
1
 40
1
 10
257.823890
 20
118.961525
 30
0.0
 10
257.823903
 20
118.409246
 30
0.0
 10
258.271611
 20
117.961538
 30
0.0
 10
258.823890
 20
117.961525
 30
0.0
  0
SPLINE
  5
1d0
100
AcDbEntity
  8
open-0
 62
7
100
AcDbSpline
 70
8
 71
3
 72
8
 73
4
 74
0
 40
0
 40
0
 40
0
 40
0
 40
1
 40
1
 40
1
 40
1
 10
258.823890
 20
117.961525
 30
0.0
 10
259.376169
 20
117.961538
 30
0.0
 10
259.823877
 20
118.409246
 30
0.0
 10
259.823890
 20
118.961525
 30
0.0
  0
SPLINE
  5
1d1
100
AcDbEntity
  8
open-0
 62
7
100
AcDbSpline
 70
8
 71
3
 72
8
 73
4
 74
0
 40
0
 40
0
 40
0
 40
0
 40
1
 40
1
 40
1
 40
1
 10
259.823890
 20
118.961525
 30
0.0
 10
259.823877
 20
119.513804
 30
0.0
 10
259.376169
 20
119.961512
 30
0.0
 10
258.823890
 20
119.961525
 30
0.0
  0
LWPOLYLINE
  5
1d2
100
AcDbEntity
  8
open-0
 62
7
100
AcDbPolyline
 90
1
 70
1
 10
22.906524
 20
136.961500
 30
0.0
  0
SPLINE
  5
1d3
100
AcDbEntity
  8
open-0
 62
7
100
AcDbSpline
 70
8
 71
3
 72
8
 73
4
 74
0
 40
0
 40
0
 40
0
 40
0
 40
1
 40
1
 40
1
 40
1
 10
147.235885
 20
124.594525
 30
0.0
 10
146.683606
 20
124.594512
 30
0.0
 10
146.235899
 20
124.146804
 30
0.0
 10
146.235885
 20
123.594525
 30
0.0
  0
SPLINE
  5
1d4
100
AcDbEntity
  8
open-0
 62
7
100
AcDbSpline
 70
8
 71
3
 72
8
 73
4
 74
0
 40
0
 40
0
 40
0
 40
0
 40
1
 40
1
 40
1
 40
1
 10
146.235885
 20
123.594525
 30
0.0
 10
146.235899
 20
123.042246
 30
0.0
 10
146.683606
 20
122.594538
 30
0.0
 10
147.235885
 20
122.594525
 30
0.0
  0
SPLINE
  5
1d5
100
AcDbEntity
  8
open-0
 62
7
100
AcDbSpline
 70
8
 71
3
 72
8
 73
4
 74
0
 40
0
 40
0
 40
0
 40
0
 40
1
 40
1
 40
1
 40
1
 10
147.235885
 20
122.594525
 30
0.0
 10
147.788165
 20
122.594538
 30
0.0
 10
148.235872
 20
123.042246
 30
0.0
 10
148.235885
 20
123.594525
 30
0.0
  0
SPLINE
  5
1d6
100
AcDbEntity
  8
open-0
 62
7
100
AcDbSpline
 70
8
 71
3
 72
8
 73
4
 74
0
 40
0
 40
0
 40
0
 40
0
 40
1
 40
1
 40
1
 40
1
 10
148.235885
 20
123.594525
 30
0.0
 10
148.235872
 20
124.146804
 30
0.0
 10
147.788165
 20
124.594512
 30
0.0
 10
147.235885
 20
124.594525
 30
0.0
  0
LWPOLYLINE
  5
1d7
100
AcDbEntity
  8
open-0
 62
7
100
AcDbPolyline
 90
1
 70
1
 10
258.823890
 20
119.961525
 30
0.0
  0
SPLINE
  5
1d8
100
AcDbEntity
  8
open-0
 62
7
100
AcDbSpline
 70
8
 71
3
 72
8
 73
4
 74
0
 40
0
 40
0
 40
0
 40
0
 40
1
 40
1
 40
1
 40
1
 10
134.200130
 20
123.594499
 30
0.0
 10
134.200130
 20
123.329275
 30
0.0
 10
134.094770
 20
123.074915
 30
0.0
 10
133.907227
 20
122.887374
 30
0.0
  0
SPLINE
  5
1d9
100
AcDbEntity
  8
open-0
 62
7
100
AcDbSpline
 70
8
 71
3
 72
8
 73
4
 74
0
 40
0
 40
0
 40
0
 40
0
 40
1
 40
1
 40
1
 40
1
 10
133.907227
 20
122.887374
 30
0.0
 10
133.719685
 20
122.699833
 30
0.0
 10
133.465324
 20
122.594474
 30
0.0
 10
133.200100
 20
122.594476
 30
0.0
  0
SPLINE
  5
1da
100
AcDbEntity
  8
open-0
 62
7
100
AcDbSpline
 70
8
 71
3
 72
8
 73
4
 74
0
 40
0
 40
0
 40
0
 40
0
 40
1
 40
1
 40
1
 40
1
 10
133.200100
 20
122.594476
 30
0.0
 10
132.647804
 20
122.594478
 30
0.0
 10
132.200080
 20
123.042203
 30
0.0
 10
132.200080
 20
123.594499
 30
0.0
  0
SPLINE
  5
1db
100
AcDbEntity
  8
open-0
 62
7
100
AcDbSpline
 70
8
 71
3
 72
8
 73
4
 74
0
 40
0
 40
0
 40
0
 40
0
 40
1
 40
1
 40
1
 40
1
 10
132.200080
 20
123.594499
 30
0.0
 10
132.200080
 20
124.146795
 30
0.0
 10
132.647803
 20
124.594521
 30
0.0
 10
133.200100
 20
124.594523
 30
0.0
  0
SPLINE
  5
1dc
100
AcDbEntity
  8
open-0
 62
7
100
AcDbSpline
 70
8
 71
3
 72
8
 73
4
 74
0
 40
0
 40
0
 40
0
 40
0
 40
1
 40
1
 40
1
 40
1
 10
133.200100
 20
124.594523
 30
0.0
 10
133.465324
 20
124.594525
 30
0.0
 10
133.719686
 20
124.489166
 30
0.0
 10
133.907228
 20
124.301625
 30
0.0
  0
SPLINE
  5
1dd
100
AcDbEntity
  8
open-0
 62
7
100
AcDbSpline
 70
8
 71
3
 72
8
 73
4
 74
0
 40
0
 40
0
 40
0
 40
0
 40
1
 40
1
 40
1
 40
1
 10
133.907228
 20
124.301625
 30
0.0
 10
134.094770
 20
124.114084
 30
0.0
 10
134.200130
 20
123.859723
 30
0.0
 10
134.200130
 20
123.594499
 30
0.0
  0
LWPOLYLINE
  5
1de
100
AcDbEntity
  8
open-0
 62
7
100
AcDbPolyline
 90
1
 70
1
 10
147.235885
 20
124.594525
 30
0.0
  0
SPLINE
  5
1df
100
AcDbEntity
  8
open-0
 62
7
100
AcDbSpline
 70
8
 71
3
 72
8
 73
4
 74
0
 40
0
 40
0
 40
0
 40
0
 40
1
 40
1
 40
1
 40
1
 10
22.408126
 20
118.961500
 30
0.0
 10
22.408126
 20
118.696277
 30
0.0
 10
22.302767
 20
118.441917
 30
0.0
 10
22.115226
 20
118.254376
 30
0.0
  0
SPLINE
  5
1e0
100
AcDbEntity
  8
open-0
 62
7
100
AcDbSpline
 70
8
 71
3
 72
8
 73
4
 74
0
 40
0
 40
0
 40
0
 40
0
 40
1
 40
1
 40
1
 40
1
 10
22.115226
 20
118.254376
 30
0.0
 10
21.927685
 20
118.066835
 30
0.0
 10
21.673325
 20
117.961476
 30
0.0
 10
21.408102
 20
117.961476
 30
0.0
  0
SPLINE
  5
1e1
100
AcDbEntity
  8
open-0
 62
7
100
AcDbSpline
 70
8
 71
3
 72
8
 73
4
 74
0
 40
0
 40
0
 40
0
 40
0
 40
1
 40
1
 40
1
 40
1
 10
21.408102
 20
117.961476
 30
0.0
 10
21.142879
 20
117.961476
 30
0.0
 10
20.888519
 20
118.066835
 30
0.0
 10
20.700978
 20
118.254376
 30
0.0
  0
SPLINE
  5
1e2
100
AcDbEntity
  8
open-0
 62
7
100
AcDbSpline
 70
8
 71
3
 72
8
 73
4
 74
0
 40
0
 40
0
 40
0
 40
0
 40
1
 40
1
 40
1
 40
1
 10
20.700978
 20
118.254376
 30
0.0
 10
20.513437
 20
118.441917
 30
0.0
 10
20.408078
 20
118.696277
 30
0.0
 10
20.408078
 20
118.961500
 30
0.0
  0
SPLINE
  5
1e3
100
AcDbEntity
  8
open-0
 62
7
100
AcDbSpline
 70
8
 71
3
 72
8
 73
4
 74
0
 40
0
 40
0
 40
0
 40
0
 40
1
 40
1
 40
1
 40
1
 10
20.408078
 20
118.961500
 30
0.0
 10
20.408078
 20
119.226723
 30
0.0
 10
20.513437
 20
119.481083
 30
0.0
 10
20.700978
 20
119.668624
 30
0.0
  0
SPLINE
  5
1e4
100
AcDbEntity
  8
open-0
 62
7
100
AcDbSpline
 70
8
 71
3
 72
8
 73
4
 74
0
 40
0
 40
0
 40
0
 40
0
 40
1
 40
1
 40
1
 40
1
 10
20.700978
 20
119.668624
 30
0.0
 10
20.888519
 20
119.856165
 30
0.0
 10
21.142879
 20
119.961524
 30
0.0
 10
21.408102
 20
119.961524
 30
0.0
  0
SPLINE
  5
1e5
100
AcDbEntity
  8
open-0
 62
7
100
AcDbSpline
 70
8
 71
3
 72
8
 73
4
 74
0
 40
0
 40
0
 40
0
 40
0
 40
1
 40
1
 40
1
 40
1
 10
21.408102
 20
119.961524
 30
0.0
 10
21.673325
 20
119.961524
 30
0.0
 10
21.927685
 20
119.856165
 30
0.0
 10
22.115226
 20
119.668624
 30
0.0
  0
SPLINE
  5
1e6
100
AcDbEntity
  8
open-0
 62
7
100
AcDbSpline
 70
8
 71
3
 72
8
 73
4
 74
0
 40
0
 40
0
 40
0
 40
0
 40
1
 40
1
 40
1
 40
1
 10
22.115226
 20
119.668624
 30
0.0
 10
22.302767
 20
119.481083
 30
0.0
 10
22.408126
 20
119.226723
 30
0.0
 10
22.408126
 20
118.961500
 30
0.0
  0
LWPOLYLINE
  5
1e7
100
AcDbEntity
  8
open-0
 62
7
100
AcDbPolyline
 90
1
 70
1
 10
134.200130
 20
123.594499
 30
0.0
  0
SPLINE
  5
1e8
100
AcDbEntity
  8
open-0
 62
7
100
AcDbSpline
 70
8
 71
3
 72
8
 73
4
 74
0
 40
0
 40
0
 40
0
 40
0
 40
1
 40
1
 40
1
 40
1
 10
258.324210
 20
99.961498
 30
0.0
 10
257.771931
 20
99.961485
 30
0.0
 10
257.324223
 20
99.513777
 30
0.0
 10
257.324210
 20
98.961498
 30
0.0
  0
SPLINE
  5
1e9
100
AcDbEntity
  8
open-0
 62
7
100
AcDbSpline
 70
8
 71
3
 72
8
 73
4
 74
0
 40
0
 40
0
 40
0
 40
0
 40
1
 40
1
 40
1
 40
1
 10
257.324210
 20
98.961498
 30
0.0
 10
257.324223
 20
98.409219
 30
0.0
 10
257.771931
 20
97.961511
 30
0.0
 10
258.324210
 20
97.961498
 30
0.0
  0
SPLINE
  5
1ea
100
AcDbEntity
  8
open-0
 62
7
100
AcDbSpline
 70
8
 71
3
 72
8
 73
4
 74
0
 40
0
 40
0
 40
0
 40
0
 40
1
 40
1
 40
1
 40
1
 10
258.324210
 20
97.961498
 30
0.0
 10
258.876489
 20
97.961511
 30
0.0
 10
259.324197
 20
98.409219
 30
0.0
 10
259.324210
 20
98.961498
 30
0.0
  0
SPLINE
  5
1eb
100
AcDbEntity
  8
open-0
 62
7
100
AcDbSpline
 70
8
 71
3
 72
8
 73
4
 74
0
 40
0
 40
0
 40
0
 40
0
 40
1
 40
1
 40
1
 40
1
 10
259.324210
 20
98.961498
 30
0.0
 10
259.324197
 20
99.513777
 30
0.0
 10
258.876489
 20
99.961485
 30
0.0
 10
258.324210
 20
99.961498
 30
0.0
  0
LWPOLYLINE
  5
1ec
100
AcDbEntity
  8
open-0
 62
7
100
AcDbPolyline
 90
1
 70
1
 10
22.408126
 20
118.961500
 30
0.0
  0
SPLINE
  5
1ed
100
AcDbEntity
  8
open-0
 62
7
100
AcDbSpline
 70
8
 71
3
 72
8
 73
4
 74
0
 40
0
 40
0
 40
0
 40
0
 40
1
 40
1
 40
1
 40
1
 10
146.736199
 20
104.594498
 30
0.0
 10
146.183920
 20
104.594485
 30
0.0
 10
145.736212
 20
104.146777
 30
0.0
 10
145.736199
 20
103.594498
 30
0.0
  0
SPLINE
  5
1ee
100
AcDbEntity
  8
open-0
 62
7
100
AcDbSpline
 70
8
 71
3
 72
8
 73
4
 74
0
 40
0
 40
0
 40
0
 40
0
 40
1
 40
1
 40
1
 40
1
 10
145.736199
 20
103.594498
 30
0.0
 10
145.736212
 20
103.042219
 30
0.0
 10
146.183920
 20
102.594511
 30
0.0
 10
146.736199
 20
102.594498
 30
0.0
  0
SPLINE
  5
1ef
100
AcDbEntity
  8
open-0
 62
7
100
AcDbSpline
 70
8
 71
3
 72
8
 73
4
 74
0
 40
0
 40
0
 40
0
 40
0
 40
1
 40
1
 40
1
 40
1
 10
146.736199
 20
102.594498
 30
0.0
 10
147.288478
 20
102.594511
 30
0.0
 10
147.736186
 20
103.042219
 30
0.0
 10
147.736199
 20
103.594498
 30
0.0
  0
SPLINE
  5
1f0
100
AcDbEntity
  8
open-0
 62
7
100
AcDbSpline
 70
8
 71
3
 72
8
 73
4
 74
0
 40
0
 40
0
 40
0
 40
0
 40
1
 40
1
 40
1
 40
1
 10
147.736199
 20
103.594498
 30
0.0
 10
147.736186
 20
104.146777
 30
0.0
 10
147.288478
 20
104.594485
 30
0.0
 10
146.736199
 20
104.594498
 30
0.0
  0
LWPOLYLINE
  5
1f1
100
AcDbEntity
  8
open-0
 62
7
100
AcDbPolyline
 90
1
 70
1
 10
258.324210
 20
99.961498
 30
0.0
  0
SPLINE
  5
1f2
100
AcDbEntity
  8
open-0
 62
7
100
AcDbSpline
 70
8
 71
3
 72
8
 73
4
 74
0
 40
0
 40
0
 40
0
 40
0
 40
1
 40
1
 40
1
 40
1
 10
133.700430
 20
103.594446
 30
0.0
 10
133.700430
 20
103.042150
 30
0.0
 10
133.252707
 20
102.594424
 30
0.0
 10
132.700410
 20
102.594422
 30
0.0
  0
SPLINE
  5
1f3
100
AcDbEntity
  8
open-0
 62
7
100
AcDbSpline
 70
8
 71
3
 72
8
 73
4
 74
0
 40
0
 40
0
 40
0
 40
0
 40
1
 40
1
 40
1
 40
1
 10
132.700410
 20
102.594422
 30
0.0
 10
132.435186
 20
102.594420
 30
0.0
 10
132.180824
 20
102.699779
 30
0.0
 10
131.993282
 20
102.887320
 30
0.0
  0
SPLINE
  5
1f4
100
AcDbEntity
  8
open-0
 62
7
100
AcDbSpline
 70
8
 71
3
 72
8
 73
4
 74
0
 40
0
 40
0
 40
0
 40
0
 40
1
 40
1
 40
1
 40
1
 10
131.993282
 20
102.887320
 30
0.0
 10
131.805740
 20
103.074861
 30
0.0
 10
131.700380
 20
103.329222
 30
0.0
 10
131.700380
 20
103.594446
 30
0.0
  0
SPLINE
  5
1f5
100
AcDbEntity
  8
open-0
 62
7
100
AcDbSpline
 70
8
 71
3
 72
8
 73
4
 74
0
 40
0
 40
0
 40
0
 40
0
 40
1
 40
1
 40
1
 40
1
 10
131.700380
 20
103.594446
 30
0.0
 10
131.700380
 20
103.859670
 30
0.0
 10
131.805740
 20
104.114031
 30
0.0
 10
131.993282
 20
104.301572
 30
0.0
  0
SPLINE
  5
1f6
100
AcDbEntity
  8
open-0
 62
7
100
AcDbSpline
 70
8
 71
3
 72
8
 73
4
 74
0
 40
0
 40
0
 40
0
 40
0
 40
1
 40
1
 40
1
 40
1
 10
131.993282
 20
104.301572
 30
0.0
 10
132.180824
 20
104.489113
 30
0.0
 10
132.435186
 20
104.594472
 30
0.0
 10
132.700410
 20
104.594470
 30
0.0
  0
SPLINE
  5
1f7
100
AcDbEntity
  8
open-0
 62
7
100
AcDbSpline
 70
8
 71
3
 72
8
 73
4
 74
0
 40
0
 40
0
 40
0
 40
0
 40
1
 40
1
 40
1
 40
1
 10
132.700410
 20
104.594470
 30
0.0
 10
133.252707
 20
104.594468
 30
0.0
 10
133.700430
 20
104.146742
 30
0.0
 10
133.700430
 20
103.594446
 30
0.0
  0
LWPOLYLINE
  5
1f8
100
AcDbEntity
  8
open-0
 62
7
100
AcDbPolyline
 90
1
 70
1
 10
146.736199
 20
104.594498
 30
0.0
  0
SPLINE
  5
1f9
100
AcDbEntity
  8
open-0
 62
7
100
AcDbSpline
 70
8
 71
3
 72
8
 73
4
 74
0
 40
0
 40
0
 40
0
 40
0
 40
1
 40
1
 40
1
 40
1
 10
21.908431
 20
98.961450
 30
0.0
 10
21.908431
 20
98.409152
 30
0.0
 10
21.460705
 20
97.961427
 30
0.0
 10
20.908407
 20
97.961427
 30
0.0
  0
SPLINE
  5
1fa
100
AcDbEntity
  8
open-0
 62
7
100
AcDbSpline
 70
8
 71
3
 72
8
 73
4
 74
0
 40
0
 40
0
 40
0
 40
0
 40
1
 40
1
 40
1
 40
1
 10
20.908407
 20
97.961427
 30
0.0
 10
20.356109
 20
97.961427
 30
0.0
 10
19.908383
 20
98.409152
 30
0.0
 10
19.908383
 20
98.961450
 30
0.0
  0
SPLINE
  5
1fb
100
AcDbEntity
  8
open-0
 62
7
100
AcDbSpline
 70
8
 71
3
 72
8
 73
4
 74
0
 40
0
 40
0
 40
0
 40
0
 40
1
 40
1
 40
1
 40
1
 10
19.908383
 20
98.961450
 30
0.0
 10
19.908383
 20
99.226673
 30
0.0
 10
20.013742
 20
99.481033
 30
0.0
 10
20.201283
 20
99.668574
 30
0.0
  0
SPLINE
  5
1fc
100
AcDbEntity
  8
open-0
 62
7
100
AcDbSpline
 70
8
 71
3
 72
8
 73
4
 74
0
 40
0
 40
0
 40
0
 40
0
 40
1
 40
1
 40
1
 40
1
 10
20.201283
 20
99.668574
 30
0.0
 10
20.388824
 20
99.856115
 30
0.0
 10
20.643184
 20
99.961474
 30
0.0
 10
20.908407
 20
99.961474
 30
0.0
  0
SPLINE
  5
1fd
100
AcDbEntity
  8
open-0
 62
7
100
AcDbSpline
 70
8
 71
3
 72
8
 73
4
 74
0
 40
0
 40
0
 40
0
 40
0
 40
1
 40
1
 40
1
 40
1
 10
20.908407
 20
99.961474
 30
0.0
 10
21.173630
 20
99.961474
 30
0.0
 10
21.427990
 20
99.856115
 30
0.0
 10
21.615531
 20
99.668574
 30
0.0
  0
SPLINE
  5
1fe
100
AcDbEntity
  8
open-0
 62
7
100
AcDbSpline
 70
8
 71
3
 72
8
 73
4
 74
0
 40
0
 40
0
 40
0
 40
0
 40
1
 40
1
 40
1
 40
1
 10
21.615531
 20
99.668574
 30
0.0
 10
21.803072
 20
99.481033
 30
0.0
 10
21.908431
 20
99.226673
 30
0.0
 10
21.908431
 20
98.961450
 30
0.0
  0
LWPOLYLINE
  5
1ff
100
AcDbEntity
  8
open-0
 62
7
100
AcDbPolyline
 90
1
 70
1
 10
133.700430
 20
103.594446
 30
0.0
  0
LWPOLYLINE
  5
200
100
AcDbEntity
  8
open-0
 62
7
100
AcDbPolyline
 90
1
 70
1
 10
21.908431
 20
98.961450
 30
0.0
  0
ENDSEC
  0
SECTION
  2
OBJECTS
  0
DICTIONARY
  5
C
330
0
100
AcDbDictionary
  3
ACAD_GROUP
350
D
  3
ACAD_MLINESTYLE
350
17
  0
DICTIONARY
  5
D
330
C
100
AcDbDictionary
  0
DICTIONARY
  5
1A
330
C
100
AcDbDictionary
  0
DICTIONARY
  5
17
330
C
100
AcDbDictionary
  3
STANDARD
350
18
  0
DICTIONARY
  5
19
330
C
100
AcDbDictionary
  0
ENDSEC
  0
EOF
