<?xml version="1.0" encoding="UTF-8" standalone="no"?>
<!-- Generated by SVGo -->

<svg
   width="302.077mm"
   height="160.260mm"
   viewBox="0.000 0.000 302.077 160.260"
   version="1.1"
   id="svg28"
   sodipodi:docname="open-0.svg"
   inkscape:version="1.2 (dc2aedaf03, 2022-05-15)"
   xmlns:inkscape="http://www.inkscape.org/namespaces/inkscape"
   xmlns:sodipodi="http://sodipodi.sourceforge.net/DTD/sodipodi-0.dtd"
   xmlns="http://www.w3.org/2000/svg"
   xmlns:svg="http://www.w3.org/2000/svg"
   xmlns:rdf="http://www.w3.org/1999/02/22-rdf-syntax-ns#"
   xmlns:cc="http://creativecommons.org/ns#"
   xmlns:dc="http://purl.org/dc/elements/1.1/">
  <title
     id="title946">Eliza</title>
  <defs
     id="defs32">
    <inkscape:path-effect
       effect="offset"
       id="path-effect2555"
       is_visible="true"
       lpeversion="1"
       linejoin_type="miter"
       unit="mm"
       offset="-11"
       miter_limit="4"
       attempt_force_join="false"
       update_on_knot_move="true" />
    <inkscape:path-effect
       effect="offset"
       id="path-effect2513"
       is_visible="true"
       lpeversion="1"
       linejoin_type="miter"
       unit="mm"
       offset="0"
       miter_limit="4"
       attempt_force_join="false"
       update_on_knot_move="true" />
    <inkscape:path-effect
       effect="offset"
       id="path-effect2409"
       is_visible="true"
       lpeversion="1"
       linejoin_type="miter"
       unit="mm"
       offset="-11"
       miter_limit="4"
       attempt_force_join="false"
       update_on_knot_move="true" />
    <inkscape:path-effect
       effect="offset"
       id="path-effect2269"
       is_visible="true"
       lpeversion="1"
       linejoin_type="miter"
       unit="mm"
       offset="-11"
       miter_limit="4"
       attempt_force_join="false"
       update_on_knot_move="true" />
    <inkscape:path-effect
       effect="offset"
       id="path-effect2038"
       is_visible="true"
       lpeversion="1"
       linejoin_type="miter"
       unit="mm"
       offset="-1"
       miter_limit="4"
       attempt_force_join="false"
       update_on_knot_move="true" />
    <inkscape:path-effect
       effect="offset"
       id="path-effect1994"
       is_visible="true"
       lpeversion="1"
       linejoin_type="miter"
       unit="mm"
       offset="2"
       miter_limit="4"
       attempt_force_join="false"
       update_on_knot_move="true" />
    <inkscape:path-effect
       effect="offset"
       id="path-effect1795"
       is_visible="true"
       lpeversion="1"
       linejoin_type="miter"
       unit="mm"
       offset="-1"
       miter_limit="4"
       attempt_force_join="false"
       update_on_knot_move="true" />
    <inkscape:path-effect
       effect="offset"
       id="path-effect1793"
       is_visible="true"
       lpeversion="1"
       linejoin_type="miter"
       unit="mm"
       offset="1"
       miter_limit="4"
       attempt_force_join="false"
       update_on_knot_move="true" />
    <inkscape:path-effect
       effect="offset"
       id="path-effect1789"
       is_visible="true"
       lpeversion="1"
       linejoin_type="miter"
       unit="mm"
       offset="1"
       miter_limit="4"
       attempt_force_join="false"
       update_on_knot_move="true" />
    <inkscape:path-effect
       effect="offset"
       id="path-effect1739"
       is_visible="true"
       lpeversion="1"
       linejoin_type="miter"
       unit="mm"
       offset="-1"
       miter_limit="4"
       attempt_force_join="false"
       update_on_knot_move="true" />
    <inkscape:path-effect
       effect="offset"
       id="path-effect1737"
       is_visible="true"
       lpeversion="1"
       linejoin_type="miter"
       unit="mm"
       offset="1"
       miter_limit="4"
       attempt_force_join="false"
       update_on_knot_move="true" />
    <inkscape:path-effect
       effect="offset"
       id="path-effect1733"
       is_visible="true"
       lpeversion="1"
       linejoin_type="miter"
       unit="mm"
       offset="1"
       miter_limit="4"
       attempt_force_join="false"
       update_on_knot_move="true" />
    <inkscape:path-effect
       effect="offset"
       id="path-effect1683"
       is_visible="true"
       lpeversion="1"
       linejoin_type="miter"
       unit="mm"
       offset="3"
       miter_limit="4"
       attempt_force_join="false"
       update_on_knot_move="true" />
    <inkscape:path-effect
       effect="offset"
       id="path-effect968"
       is_visible="true"
       lpeversion="1"
       linejoin_type="miter"
       unit="mm"
       offset="-3"
       miter_limit="4"
       attempt_force_join="false"
       update_on_knot_move="true" />
    <inkscape:path-effect
       effect="offset"
       id="path-effect948"
       is_visible="true"
       lpeversion="1"
       linejoin_type="miter"
       unit="mm"
       offset="-3"
       miter_limit="4"
       attempt_force_join="false"
       update_on_knot_move="true" />
    <inkscape:path-effect
       effect="offset"
       id="path-effect1032"
       is_visible="true"
       lpeversion="1"
       linejoin_type="miter"
       unit="mm"
       offset="-2"
       miter_limit="4"
       attempt_force_join="false"
       update_on_knot_move="true" />
    <inkscape:path-effect
       effect="offset"
       id="path-effect988"
       is_visible="true"
       lpeversion="1"
       linejoin_type="miter"
       unit="mm"
       offset="-1"
       miter_limit="4"
       attempt_force_join="false"
       update_on_knot_move="true" />
    <inkscape:path-effect
       effect="offset"
       id="path-effect8589"
       is_visible="true"
       lpeversion="1"
       linejoin_type="miter"
       unit="mm"
       offset="-11"
       miter_limit="4"
       attempt_force_join="false"
       update_on_knot_move="true" />
    <inkscape:path-effect
       effect="offset"
       id="path-effect7616"
       is_visible="true"
       lpeversion="1"
       linejoin_type="miter"
       unit="mm"
       offset="-11"
       miter_limit="4"
       attempt_force_join="false"
       update_on_knot_move="true" />
    <inkscape:path-effect
       effect="offset"
       id="path-effect6560"
       is_visible="true"
       lpeversion="1"
       linejoin_type="miter"
       unit="mm"
       offset="-11"
       miter_limit="4"
       attempt_force_join="false"
       update_on_knot_move="true" />
    <inkscape:path-effect
       effect="offset"
       id="path-effect6518"
       is_visible="true"
       lpeversion="1"
       linejoin_type="miter"
       unit="mm"
       offset="0"
       miter_limit="4"
       attempt_force_join="false"
       update_on_knot_move="true" />
    <inkscape:path-effect
       effect="offset"
       id="path-effect2519"
       is_visible="true"
       lpeversion="1"
       linejoin_type="miter"
       unit="mm"
       offset="1"
       miter_limit="4"
       attempt_force_join="false"
       update_on_knot_move="true" />
    <inkscape:path-effect
       effect="offset"
       id="path-effect2517"
       is_visible="true"
       lpeversion="1"
       linejoin_type="miter"
       unit="mm"
       offset="1"
       miter_limit="4"
       attempt_force_join="false"
       update_on_knot_move="true" />
    <inkscape:path-effect
       effect="offset"
       id="path-effect2672"
       is_visible="true"
       lpeversion="1"
       linejoin_type="miter"
       unit="mm"
       offset="-11"
       miter_limit="4"
       attempt_force_join="false"
       update_on_knot_move="true" />
    <inkscape:path-effect
       effect="offset"
       id="path-effect2630"
       is_visible="true"
       lpeversion="1"
       linejoin_type="miter"
       unit="mm"
       offset="-11"
       miter_limit="4"
       attempt_force_join="false"
       update_on_knot_move="true" />
    <inkscape:path-effect
       effect="offset"
       id="path-effect1591"
       is_visible="true"
       lpeversion="1"
       linejoin_type="miter"
       unit="mm"
       offset="-11"
       miter_limit="4"
       attempt_force_join="false"
       update_on_knot_move="true" />
    <inkscape:path-effect
       effect="offset"
       id="path-effect1468"
       is_visible="true"
       lpeversion="1"
       linejoin_type="miter"
       unit="mm"
       offset="0"
       miter_limit="4"
       attempt_force_join="false"
       update_on_knot_move="true" />
    <inkscape:path-effect
       effect="offset"
       id="path-effect1326"
       is_visible="true"
       lpeversion="1"
       linejoin_type="miter"
       unit="mm"
       offset="0.5"
       miter_limit="4"
       attempt_force_join="false"
       update_on_knot_move="true" />
    <inkscape:path-effect
       effect="offset"
       id="path-effect1324"
       is_visible="true"
       lpeversion="1"
       linejoin_type="miter"
       unit="mm"
       offset="0.5"
       miter_limit="4"
       attempt_force_join="false"
       update_on_knot_move="true" />
    <inkscape:path-effect
       effect="offset"
       id="path-effect2952"
       is_visible="true"
       lpeversion="1"
       linejoin_type="miter"
       unit="mm"
       offset="-0.5"
       miter_limit="4"
       attempt_force_join="false"
       update_on_knot_move="true" />
    <inkscape:path-effect
       effect="offset"
       id="path-effect2952-3"
       is_visible="true"
       lpeversion="1"
       linejoin_type="miter"
       unit="mm"
       offset="-0.5"
       miter_limit="4"
       attempt_force_join="false"
       update_on_knot_move="true" />
    <inkscape:path-effect
       effect="offset"
       id="path-effect2952-6"
       is_visible="true"
       lpeversion="1"
       linejoin_type="miter"
       unit="mm"
       offset="-0.5"
       miter_limit="4"
       attempt_force_join="false"
       update_on_knot_move="true" />
    <inkscape:path-effect
       effect="offset"
       id="path-effect2952-7"
       is_visible="true"
       lpeversion="1"
       linejoin_type="miter"
       unit="mm"
       offset="-0.5"
       miter_limit="4"
       attempt_force_join="false"
       update_on_knot_move="true" />
  </defs>
  <sodipodi:namedview
     id="namedview30"
     pagecolor="#505050"
     bordercolor="#eeeeee"
     borderopacity="1"
     inkscape:pageshadow="0"
     inkscape:pageopacity="0"
     inkscape:pagecheckerboard="0"
     inkscape:document-units="mm"
     showgrid="false"
     showguides="false"
     inkscape:zoom="0.9"
     inkscape:cx="528.88889"
     inkscape:cy="316.66667"
     inkscape:window-width="2560"
     inkscape:window-height="1440"
     inkscape:window-x="0"
     inkscape:window-y="0"
     inkscape:window-maximized="1"
     inkscape:current-layer="g2668"
     inkscape:showpageshadow="0"
     inkscape:deskcolor="#505050" />
  <g
     inkscape:groupmode="layer"
     id="g2668"
     inkscape:label="open-0"
     style="display:inline"
     sodipodi:insensitive="true">
    <path
       id="rect980-3-2-3"
       d="m 147.11753,54.099635 c -1.10844,-0.007 -2.20869,0.47131 -2.95597,1.2905 -0.70358,0.75521 -1.08743,1.79051 -1.06161,2.82112 0.001,0.93385 -0.003,1.86775 0.002,2.80156 0.028,1.13961 0.573,2.25249 1.45658,2.97283 0.74074,0.61677 1.70969,0.94188 2.67181,0.91477 36.6308,-2.2e-4 73.26159,4.4e-4 109.89239,-3.3e-4 1.13367,-0.006 2.2512,-0.52327 2.98853,-1.3847 0.65583,-0.74988 1.0055,-1.75101 0.97693,-2.7454 -10e-4,-0.92758 0.003,-1.85521 -0.002,-2.78275 -0.028,-1.13961 -0.573,-2.25249 -1.45658,-2.97283 -0.74074,-0.61677 -1.70969,-0.94188 -2.67181,-0.91477 -36.61343,0 -73.22685,0 -109.84027,0 z"
       style="display:inline;fill:#000000;fill-opacity:0.0014062;stroke:#000000;stroke-width:0.197438" />
    <path
       id="rect980-3-6-9-29"
       d="m 22.119481,54.099635 c -1.11586,-0.007 -2.223137,0.47778 -2.971312,1.30611 -0.695092,0.75354 -1.07393,1.78181 -1.048218,2.80551 0.0013,0.93384 -0.0026,1.86773 0.002,2.80154 0.02811,1.13981 0.573914,2.25251 1.457733,2.9727 0.741084,0.61672 1.710216,0.94202 2.672613,0.91492 36.630793,-2.2e-4 73.261591,4.4e-4 109.892393,-3.3e-4 1.13367,-0.006 2.2512,-0.52327 2.98853,-1.3847 0.65583,-0.74988 1.0055,-1.75101 0.97693,-2.7454 -0.001,-0.92758 0.003,-1.85521 -0.002,-2.78275 -0.028,-1.13961 -0.573,-2.25249 -1.45658,-2.97283 -0.74074,-0.61677 -1.70969,-0.94188 -2.67182,-0.91477 -36.613425,0 -73.226847,0 -109.840269,0 z"
       style="display:inline;fill:#000000;fill-opacity:0.0014062;stroke:#000000;stroke-width:0.197438" />
    <path
       id="rect980-3"
       style="display:inline;fill-opacity:0.0014062;stroke:#000000;stroke-width:0.197438"
       d="m 148.11729,15.098719 h 109.95256 c 2.78029,0 5.01857,2.238281 5.01857,5.018569 v 2.765423 c 0,2.780288 -2.23828,5.018569 -5.01857,5.018569 H 148.11729 c -2.78028,0 -5.01857,-2.238281 -5.01857,-5.018569 v -2.765423 c 0,-2.780288 2.23829,-5.018569 5.01857,-5.018569 z" />
    <path
       id="rect980-3-6"
       style="display:inline;fill-opacity:0.0014062;stroke:#000000;stroke-width:0.197438"
       d="M 23.117288,15.098719 H 133.06984 c 2.78029,0 5.01857,2.238281 5.01857,5.018569 v 2.765423 c 0,2.780288 -2.23828,5.018569 -5.01857,5.018569 H 23.117288 c -2.780288,0 -5.018569,-2.238281 -5.018569,-5.018569 v -2.765423 c 0,-2.780288 2.238281,-5.018569 5.018569,-5.018569 z" />
    <path
       id="rect980-3-1-9"
       d="m 147.61719,33.599609 c -1.21477,-0.0076 -2.42131,0.503035 -3.25902,1.383226 -0.82317,0.847759 -1.28278,2.029666 -1.25856,3.210281 10e-4,0.945268 -0.003,1.890596 0.002,2.835824 0.0313,1.254078 0.61821,2.480058 1.57586,3.290413 0.83745,0.723226 1.94854,1.110278 3.05332,1.081038 36.62285,-6.1e-5 73.2457,1.23e-4 109.86855,-9.2e-5 1.23905,2.72e-4 2.46541,-0.539868 3.29946,-1.456543 0.7856,-0.845876 1.21645,-2.002852 1.1888,-3.155854 -0.001,-0.93894 0.003,-1.877941 -0.002,-2.816842 -0.0313,-1.254078 -0.61821,-2.480058 -1.57586,-3.290413 -0.83745,-0.723226 -1.94854,-1.110278 -3.05332,-1.081038 -36.61308,0 -73.22615,0 -109.83923,0 z"
       style="display:inline;fill:#000000;fill-opacity:0.0014062;stroke:#000000;stroke-width:0.197438" />
    <path
       id="rect980-3-6-2-3"
       d="m 22.619176,33.599608 c -1.215093,-0.0076 -2.421867,0.50317 -3.26008,1.383275 -0.823513,0.847559 -1.283854,2.02943 -1.259451,3.210233 0.0014,0.945262 -0.0029,1.890585 0.0023,2.835809 0.03138,1.254292 0.619031,2.480159 1.576984,3.290348 0.837816,0.723151 1.949098,1.11034 3.054145,1.081117 36.622849,-6.1e-5 73.245697,1.23e-4 109.868546,-9.2e-5 1.23905,2.72e-4 2.46541,-0.539868 3.29946,-1.456543 0.7856,-0.845876 1.21645,-2.002853 1.1888,-3.155856 -0.001,-0.93894 0.003,-1.87794 -0.002,-2.816841 -0.0313,-1.254078 -0.61821,-2.480057 -1.57586,-3.290412 -0.83745,-0.723227 -1.94854,-1.110278 -3.05332,-1.081038 -36.613078,0 -73.226154,0 -109.83923,0 z"
       style="display:inline;fill:#000000;fill-opacity:0.0014062;stroke:#000000;stroke-width:0.197438" />
    <path
       id="rect6305-4-4-3-79-3"
       style="display:inline;fill:none;fill-opacity:0.0014062;stroke:#000000;stroke-width:0.189"
       d="M 150.11429,0.0945 H 260.0945 c 11.08,0 20,8.92 20,20 v 66.89925 c 0,11.08 -9.12643,17.87114 -20,20 0,0 -110.13305,23.80077 -120.0945,23.8125 -9.91768,0.0117 -119.9055,-23.8125 -119.9055,-23.8125 -10.867762,-2.15827 -20,-8.92 -20,-20 V 20.0945 c 0,-11.08 8.92,-20 20,-20 v 0 h 110.02 l -1e-5,10.99925 H 20.093777 20.09375 v 0 c -2.515315,-0.01741 -5.011569,1.082993 -6.68771,2.959893 -1.539683,1.687897 -2.374163,3.981172 -2.31229,6.262397 10e-4,22.276079 -0.0021,44.552186 0.0016,66.828245 0.01875,1.750581 0.783839,3.442031 1.97708,4.706628 1.662007,1.778606 3.922642,2.862553 6.209143,3.600532 1.894406,0.613561 3.866026,0.917342 5.811,1.320879 38.303786,7.607146 76.607577,15.214286 114.911367,22.821426 39.40226,-7.81387 78.80511,-15.62487 118.20703,-23.440527 2.63296,-0.554762 5.26379,-1.42495 7.46028,-3.020822 1.5489,-1.123262 2.83771,-2.721816 3.2552,-4.62062 0.24537,-1.029724 0.14687,-2.092579 0.16735,-3.140358 V 19.976937 c -0.0138,-2.575955 -1.20484,-5.114395 -3.18278,-6.765756 -1.67393,-1.428671 -3.88708,-2.182305 -6.08326,-2.117431 H 150.11431 Z"
       sodipodi:nodetypes="cssscscssscccccscccccccccccccccc" />
    <path
       id="path1418-65-9-6-2-1"
       style="display:inline;fill-opacity:0.0014062;stroke:#000000;stroke-width:0.189"
       d="m 124.34811,6.1650934 a 1.75,1.75 0 0 1 -1.75,1.75 1.75,1.75 0 0 1 -1.75,-1.75 1.75,1.75 0 0 1 1.75,-1.75 1.75,1.75 0 0 1 1.75,1.75 z" />
    <path
       id="path1418-6-9-6-3-0-7-0-9"
       style="display:inline;fill-opacity:0.0014062;stroke:#000000;stroke-width:0.189"
       d="m 7.6236677,48.08614 a 1.75,1.75 0 0 1 -1.75,1.75 1.75,1.75 0 0 1 -1.75,-1.75 1.75,1.75 0 0 1 1.75,-1.75 1.75,1.75 0 0 1 1.75,1.75 z" />
    <path
       id="path1418-6-9-6-7-7-91-5-2-4"
       style="display:inline;fill-opacity:0.0014062;stroke:#000000;stroke-width:0.189"
       d="m 276.06534,48.08614 a 1.75,1.75 0 0 1 -1.75,1.75 1.75,1.75 0 0 1 -1.75,-1.75 1.75,1.75 0 0 1 1.75,-1.75 1.75,1.75 0 0 1 1.75,1.75 z" />
    <path
       id="path1418-6-5-5-7-3-3-7"
       style="display:inline;fill-opacity:0.0014062;stroke:#000000;stroke-width:0.189"
       d="m 12.556443,10.798423 a 1.75,1.75 0 0 1 -1.75,1.75 1.75,1.75 0 0 1 -1.7499998,-1.75 1.75,1.75 0 0 1 1.7499998,-1.7500002 1.75,1.75 0 0 1 1.75,1.7500002 z" />
    <path
       id="path1418-6-5-6-2-71-5-7-8"
       style="display:inline;fill-opacity:0.0014062;stroke:#000000;stroke-width:0.189"
       d="m 271.17313,10.798652 a 1.75,1.75 0 0 1 -1.75,1.75 1.75,1.75 0 0 1 -1.75,-1.75 1.75,1.75 0 0 1 1.75,-1.7500003 1.75,1.75 0 0 1 1.75,1.7500003 z" />
    <path
       id="path1418-6-5-5-0-1-6-5-4"
       style="display:inline;fill-opacity:0.0014062;stroke:#000000;stroke-width:0.189"
       d="m 12.556664,95.097878 a 1.75,1.75 0 0 1 -1.75,1.75 1.75,1.75 0 0 1 -1.7499995,-1.75 1.75,1.75 0 0 1 1.7499995,-1.75 1.75,1.75 0 0 1 1.75,1.75 z" />
    <path
       id="path1418-6-5-6-2-7-5-2-9-5"
       style="display:inline;fill-opacity:0.0014062;stroke:#000000;stroke-width:0.189"
       d="m 271.17334,95.09803 a 1.75,1.75 0 0 1 -1.75,1.75 1.75,1.75 0 0 1 -1.75,-1.75 1.75,1.75 0 0 1 1.75,-1.75 1.75,1.75 0 0 1 1.75,1.75 z" />
    <path
       id="path1418-3-4-9-9-2-0"
       style="display:inline;fill-opacity:0.0014062;stroke:#000000;stroke-width:0.189"
       d="m 159.5858,6.1650934 a 1.75,1.75 0 0 1 -1.75,1.75 1.75,1.75 0 0 1 -1.75,-1.75 1.75,1.75 0 0 1 1.75,-1.75 1.75,1.75 0 0 1 1.75,1.75 z" />
    <path
       id="path1418-65-8-7-1-2-3"
       style="display:inline;fill-opacity:0.0014062;stroke:#000000;stroke-width:0.189"
       d="m 104.34851,116.64563 a 1.75,1.75 0 0 1 -1.75,1.75 1.75,1.75 0 0 1 -1.75,-1.75 1.75,1.75 0 0 1 1.75,-1.75 1.75,1.75 0 0 1 1.75,1.75 z" />
    <path
       id="path1418-3-4-6-76-2-89-6"
       style="display:inline;fill-opacity:0.0014062;stroke:#000000;stroke-width:0.189"
       d="m 179.5865,116.64563 a 1.75,1.75 0 0 1 -1.75,1.75 1.75,1.75 0 0 1 -1.75,-1.75 1.75,1.75 0 0 1 1.75,-1.75 1.75,1.75 0 0 1 1.75,1.75 z" />
    <path
       id="path1418-65-9-3-6-7-5-3-3"
       style="display:inline;fill-opacity:0.0014062;stroke:#000000;stroke-width:0.188952"
       transform="translate(106.30587,-0.8870711)"
       d="m 153.01758,23.185547 a 1.000024,1.0000238 0 0 0 -1,1 1.000024,1.0000238 0 0 0 1,1 1.000024,1.0000238 0 0 0 1,-1 1.000024,1.0000238 0 0 0 -1,-1 z" />
    <path
       id="path1418-65-9-3-6-7-5-3-3-3"
       style="display:inline;fill-opacity:0.0014062;stroke:#000000;stroke-width:0.188952"
       transform="translate(-5.282128,-5.5200711)"
       d="m 153.01758,23.185547 a 1.000024,1.0000238 0 0 0 -1,1 1.000024,1.0000238 0 0 0 1,1 1.000024,1.0000238 0 0 0 1,-1 1.000024,1.0000238 0 0 0 -1,-1 z" />
    <path
       id="path1418-65-9-3-6-7-5-3-3-5"
       style="display:inline;fill-opacity:0.0014062;stroke:#000000;stroke-width:0.188952"
       d="m 134.69853,18.665499 a 1.000024,1.0000238 0 0 1 -1.00003,1.000024 1.000024,1.0000238 0 0 1 -1.00002,-1.000024 1.000024,1.0000238 0 0 1 1.00002,-1.000024 1.000024,1.0000238 0 0 1 1.00003,1.000024 z" />
    <path
       id="path1418-65-9-3-6-7-5-3-3-7"
       style="display:inline;fill-opacity:0.0014062;stroke:#000000;stroke-width:0.188952"
       d="M 22.906524,23.2985 A 1.000024,1.0000238 0 0 1 21.9065,24.298524 1.000024,1.0000238 0 0 1 20.906476,23.2985 1.000024,1.0000238 0 0 1 21.9065,22.298476 1.000024,1.0000238 0 0 1 22.906524,23.2985 Z" />
    <path
       id="path1418-65-9-3-6-7-5-3-3-0"
       style="display:inline;fill-opacity:0.0014062;stroke:#000000;stroke-width:0.188952"
       transform="translate(105.80631,17.112928)"
       d="m 153.01758,23.185547 a 1.000024,1.0000238 0 0 0 -1,1 1.000024,1.0000238 0 0 0 1,1 1.000024,1.0000238 0 0 0 1,-1 1.000024,1.0000238 0 0 0 -1,-1 z" />
    <path
       id="path1418-65-9-3-6-7-5-3-3-3-6"
       style="display:inline;fill-opacity:0.0014062;stroke:#000000;stroke-width:0.188952"
       transform="translate(-5.7816946,12.479928)"
       d="m 153.01758,23.185547 a 1.000024,1.0000238 0 0 0 -1,1 1.000024,1.0000238 0 0 0 1,1 1.000024,1.0000238 0 0 0 1,-1 1.000024,1.0000238 0 0 0 -1,-1 z" />
    <path
       id="path1418-65-9-3-6-7-5-3-3-5-2"
       style="display:inline;fill-opacity:0.0014062;stroke:#000000;stroke-width:0.188952"
       d="m 134.20013,36.665501 a 1.000024,1.0000238 0 0 1 -1.00003,1.000023 1.000024,1.0000238 0 0 1 -1.00002,-1.000023 1.000024,1.0000238 0 0 1 1.00002,-1.000024 1.000024,1.0000238 0 0 1 1.00003,1.000024 z" />
    <path
       id="path1418-65-9-3-6-7-5-3-3-7-6"
       style="display:inline;fill-opacity:0.0014062;stroke:#000000;stroke-width:0.188952"
       d="M 22.408126,41.2985 A 1.000024,1.0000238 0 0 1 21.408102,42.298524 1.000024,1.0000238 0 0 1 20.408078,41.2985 1.000024,1.0000238 0 0 1 21.408102,40.298476 1.000024,1.0000238 0 0 1 22.408126,41.2985 Z" />
    <path
       id="path1418-65-9-3-6-7-5-3-3-59"
       style="display:inline;fill-opacity:0.0014062;stroke:#000000;stroke-width:0.188952"
       transform="translate(105.30663,37.112955)"
       d="m 153.01758,23.185547 a 1.000024,1.0000238 0 0 0 -1,1 1.000024,1.0000238 0 0 0 1,1 1.000024,1.0000238 0 0 0 1,-1 1.000024,1.0000238 0 0 0 -1,-1 z" />
    <path
       id="path1418-65-9-3-6-7-5-3-3-3-2"
       style="display:inline;fill-opacity:0.0014062;stroke:#000000;stroke-width:0.188952"
       transform="translate(-6.281381,32.479955)"
       d="m 153.01758,23.185547 a 1.000024,1.0000238 0 0 0 -1,1 1.000024,1.0000238 0 0 0 1,1 1.000024,1.0000238 0 0 0 1,-1 1.000024,1.0000238 0 0 0 -1,-1 z" />
    <path
       id="path1418-65-9-3-6-7-5-3-3-5-28"
       style="display:inline;fill-opacity:0.0014062;stroke:#000000;stroke-width:0.188952"
       d="m 133.70043,56.665554 a 1.000024,1.0000238 0 0 1 -1.00002,1.000024 1.000024,1.0000238 0 0 1 -1.00003,-1.000024 1.000024,1.0000238 0 0 1 1.00003,-1.000024 1.000024,1.0000238 0 0 1 1.00002,1.000024 z" />
    <path
       id="path1418-65-9-3-6-7-5-3-3-7-9"
       style="display:inline;fill-opacity:0.0014062;stroke:#000000;stroke-width:0.188952"
       d="m 21.908431,61.29855 a 1.000024,1.0000238 0 0 1 -1.000024,1.000023 1.000024,1.0000238 0 0 1 -1.000024,-1.000023 1.000024,1.0000238 0 0 1 1.000024,-1.000024 1.000024,1.0000238 0 0 1 1.000024,1.000024 z" />
  </g>
  <metadata
     id="metadata944">
    <rdf:RDF>
      <cc:Work
         rdf:about="">
        <dc:title>Eliza</dc:title>
        <dc:creator>
          <cc:Agent>
            <dc:title>Cody Bloemhard</dc:title>
          </cc:Agent>
        </dc:creator>
        <dc:rights>
          <cc:Agent>
            <dc:title>GPL v3</dc:title>
          </cc:Agent>
        </dc:rights>
      </cc:Work>
    </rdf:RDF>
  </metadata>
</svg>
