  0
SECTION
  2
HEADER
  9
$ACADVER
  1
AC1014
  9
$HANDSEED
  5
FFFF
  9
$MEASUREMENT
 70
     1
  0
ENDSEC
  0
SECTION
  2
TABLES
  0
TABLE
  2
VPORT
  5
8
330
0
100
AcDbSymbolTable
 70
     4
  0
VPORT
  5
2E
330
8
100
AcDbSymbolTableRecord
100
AcDbViewportTableRecord
  2
*ACTIVE
 70
     0
 10
0.0
 20
0.0
 11
1.0
 21
1.0
 12
210.0
 22
148.5
 13
0.0
 23
0.0
 14
10.0
 24
10.0
 15
10.0
 25
10.0
 16
0.0
 26
0.0
 36
1.0
 17
0.0
 27
0.0
 37
0.0
 40
341.0
 41
1.24
 42
50.0
 43
0.0
 44
0.0
 50
0.0
 51
0.0
 71
     0
 72
   100
 73
     1
 74
     3
 75
     0
 76
     0
 77
     0
 78
     0
  0
ENDTAB
  0
TABLE
  2
LTYPE
  5
5
330
0
100
AcDbSymbolTable
 70
     1
  0
LTYPE
  5
14
330
5
100
AcDbSymbolTableRecord
100
AcDbLinetypeTableRecord
  2
BYBLOCK
 70
     0
  3

 72
    65
 73
     0
 40
0.0
  0
LTYPE
  5
15
330
5
100
AcDbSymbolTableRecord
100
AcDbLinetypeTableRecord
  2
BYLAYER
 70
     0
  3

 72
    65
 73
     0
 40
0.0
  0
LTYPE
  5
16
330
5
100
AcDbSymbolTableRecord
100
AcDbLinetypeTableRecord
  2
CONTINUOUS
 70
     0
  3
Solid line
 72
    65
 73
     0
 40
0.0
  0
ENDTAB
  0
TABLE
  2
LAYER
  5
2
100
AcDbSymbolTable
 70
2
  0
LAYER
  5
50
100
AcDbSymbolTableRecord
100
AcDbLayerTableRecord
  2
0
 70
0
  6
CONTINUOUS
  0
LAYER
  5
51
100
AcDbSymbolTableRecord
100
AcDbLayerTableRecord
  2
open-2
 70
0
  6
CONTINUOUS
  0
ENDTAB
  0
TABLE
  2
STYLE
  5
3
330
0
100
AcDbSymbolTable
 70
     1
  0
STYLE
  5
11
330
3
100
AcDbSymbolTableRecord
100
AcDbTextStyleTableRecord
  2
STANDARD
 70
     0
 40
0.0
 41
1.0
 50
0.0
 71
     0
 42
2.5
  3
txt
  4

  0
ENDTAB
  0
TABLE
  2
VIEW
  5
6
330
0
100
AcDbSymbolTable
 70
     0
  0
ENDTAB
  0
TABLE
  2
UCS
  5
7
330
0
100
AcDbSymbolTable
 70
     0
  0
ENDTAB
  0
TABLE
  2
APPID
  5
9
330
0
100
AcDbSymbolTable
 70
     2
  0
APPID
  5
12
330
9
100
AcDbSymbolTableRecord
100
AcDbRegAppTableRecord
  2
ACAD
 70
     0
  0
ENDTAB
  0
TABLE
  2
DIMSTYLE
  5
A
330
0
100
AcDbSymbolTable
 70
     1
  0
DIMSTYLE
105
27
330
A
100
AcDbSymbolTableRecord
100
AcDbDimStyleTableRecord
  2
ISO-25
 70
     0
  3

  4

  5

  6

  7

 40
1.0
 41
2.5
 42
0.625
 43
3.75
 44
1.25
 45
0.0
 46
0.0
 47
0.0
 48
0.0
140
2.5
141
2.5
142
0.0
143
0.03937007874016
144
1.0
145
0.0
146
1.0
147
0.625
 71
     0
 72
     0
 73
     0
 74
     0
 75
     0
 76
     0
 77
     1
 78
     8
170
     0
171
     3
172
     1
173
     0
174
     0
175
     0
176
     0
177
     0
178
     0
270
     2
271
     2
272
     2
273
     2
274
     3
340
11
275
     0
280
     0
281
     0
282
     0
283
     0
284
     8
285
     0
286
     0
287
     3
288
     0
  0
ENDTAB
  0
TABLE
  2
BLOCK_RECORD
  5
1
330
0
100
AcDbSymbolTable
 70
     1
  0
BLOCK_RECORD
  5
1F
330
1
100
AcDbSymbolTableRecord
100
AcDbBlockTableRecord
  2
*MODEL_SPACE
  0
BLOCK_RECORD
  5
1B
330
1
100
AcDbSymbolTableRecord
100
AcDbBlockTableRecord
  2
*PAPER_SPACE
  0
ENDTAB
  0
ENDSEC
  0
SECTION
  2
BLOCKS
  0
BLOCK
  5
20
330
1F
100
AcDbEntity
  8
0
100
AcDbBlockBegin
  2
*MODEL_SPACE
 70
     0
 10
0.0
 20
0.0
 30
0.0
  3
*MODEL_SPACE
  1

  0
ENDBLK
  5
21
330
1F
100
AcDbEntity
  8
0
100
AcDbBlockEnd
  0
BLOCK
  5
1C
330
1B
100
AcDbEntity
 67
     1
  8
0
100
AcDbBlockBegin
  2
*PAPER_SPACE
  1

  0
ENDBLK
  5
1D
330
1B
100
AcDbEntity
 67
     1
  8
0
100
AcDbBlockEnd
  0
ENDSEC
  0
SECTION
  2
ENTITIES
  0
SPLINE
  5
100
100
AcDbEntity
  8
open-2
 62
7
100
AcDbSpline
 70
8
 71
3
 72
8
 73
4
 74
0
 40
0
 40
0
 40
0
 40
0
 40
1
 40
1
 40
1
 40
1
 10
1.414206
 20
64.864409
 30
0.0
 10
1.405166
 20
64.867809
 30
0.0
 10
1.407496
 20
64.846259
 30
0.0
 10
1.414206
 20
64.864409
 30
0.0
  0
LWPOLYLINE
  5
101
100
AcDbEntity
  8
open-2
 62
7
100
AcDbPolyline
 90
1
 70
1
 10
1.414206
 20
64.864409
 30
0.0
  0
SPLINE
  5
102
100
AcDbEntity
  8
open-2
 62
7
100
AcDbSpline
 70
8
 71
3
 72
8
 73
4
 74
0
 40
0
 40
0
 40
0
 40
0
 40
1
 40
1
 40
1
 40
1
 10
277.336110
 20
70.018664
 30
0.0
 10
277.336110
 20
70.012664
 30
0.0
 10
277.342110
 20
70.019764
 30
0.0
 10
277.336110
 20
70.018664
 30
0.0
  0
LWPOLYLINE
  5
103
100
AcDbEntity
  8
open-2
 62
7
100
AcDbPolyline
 90
4
 70
1
 10
277.330100
 20
69.999133
 30
0.0
 10
277.309200
 20
69.918483
 30
0.0
 10
277.331900
 20
69.999133
 30
0.0
 10
277.328900
 20
69.999133
 30
0.0
  0
SPLINE
  5
104
100
AcDbEntity
  8
open-2
 62
7
100
AcDbSpline
 70
8
 71
3
 72
8
 73
4
 74
0
 40
0
 40
0
 40
0
 40
0
 40
1
 40
1
 40
1
 40
1
 10
277.334100
 20
70.020664
 30
0.0
 10
277.326100
 20
70.017564
 30
0.0
 10
277.342100
 20
70.017564
 30
0.0
 10
277.334100
 20
70.020664
 30
0.0
  0
LWPOLYLINE
  5
105
100
AcDbEntity
  8
open-2
 62
7
100
AcDbPolyline
 90
1
 70
1
 10
277.336110
 20
70.018664
 30
0.0
  0
SPLINE
  5
106
100
AcDbEntity
  8
open-2
 62
7
100
AcDbSpline
 70
8
 71
3
 72
8
 73
4
 74
0
 40
0
 40
0
 40
0
 40
0
 40
1
 40
1
 40
1
 40
1
 10
277.351690
 20
70.067533
 30
0.0
 10
277.341590
 20
70.058433
 30
0.0
 10
277.340790
 20
70.019603
 30
0.0
 10
277.351690
 20
70.067533
 30
0.0
  0
LWPOLYLINE
  5
107
100
AcDbEntity
  8
open-2
 62
7
100
AcDbPolyline
 90
1
 70
1
 10
277.334100
 20
70.020664
 30
0.0
  0
SPLINE
  5
108
100
AcDbEntity
  8
open-2
 62
7
100
AcDbSpline
 70
8
 71
3
 72
8
 73
4
 74
0
 40
0
 40
0
 40
0
 40
0
 40
1
 40
1
 40
1
 40
1
 10
148.116280
 20
160.163172
 30
0.0
 10
184.648430
 20
160.162992
 30
0.0
 10
221.180570
 20
160.162922
 30
0.0
 10
257.712690
 20
160.164212
 30
0.0
  0
SPLINE
  5
109
100
AcDbEntity
  8
open-2
 62
7
100
AcDbSpline
 70
8
 71
3
 72
8
 73
4
 74
0
 40
0
 40
0
 40
0
 40
0
 40
1
 40
1
 40
1
 40
1
 10
257.712690
 20
160.164212
 30
0.0
 10
259.872880
 20
160.188174
 30
0.0
 10
262.044070
 20
159.878762
 30
0.0
 10
264.081970
 20
159.149820
 30
0.0
  0
SPLINE
  5
10a
100
AcDbEntity
  8
open-2
 62
7
100
AcDbSpline
 70
8
 71
3
 72
8
 73
4
 74
0
 40
0
 40
0
 40
0
 40
0
 40
1
 40
1
 40
1
 40
1
 10
264.081970
 20
159.149820
 30
0.0
 10
268.032410
 20
157.768052
 30
0.0
 10
271.479060
 20
154.968573
 30
0.0
 10
273.588370
 20
151.348824
 30
0.0
  0
SPLINE
  5
10b
100
AcDbEntity
  8
open-2
 62
7
100
AcDbSpline
 70
8
 71
3
 72
8
 73
4
 74
0
 40
0
 40
0
 40
0
 40
0
 40
1
 40
1
 40
1
 40
1
 10
273.588370
 20
151.348824
 30
0.0
 10
275.129890
 20
148.745851
 30
0.0
 10
276.008920
 20
145.751096
 30
0.0
 10
276.088820
 20
142.725360
 30
0.0
  0
SPLINE
  5
10c
100
AcDbEntity
  8
open-2
 62
7
100
AcDbSpline
 70
8
 71
3
 72
8
 73
4
 74
0
 40
0
 40
0
 40
0
 40
0
 40
1
 40
1
 40
1
 40
1
 10
276.088820
 20
142.725360
 30
0.0
 10
276.104820
 20
120.624052
 30
0.0
 10
276.091820
 20
98.522520
 30
0.0
 10
276.095820
 20
76.421123
 30
0.0
  0
SPLINE
  5
10d
100
AcDbEntity
  8
open-2
 62
7
100
AcDbSpline
 70
8
 71
3
 72
8
 73
4
 74
0
 40
0
 40
0
 40
0
 40
0
 40
1
 40
1
 40
1
 40
1
 10
276.095820
 20
76.421123
 30
0.0
 10
276.140120
 20
74.578250
 30
0.0
 10
276.026920
 20
72.714647
 30
0.0
 10
275.518980
 20
70.934011
 30
0.0
  0
SPLINE
  5
10e
100
AcDbEntity
  8
open-2
 62
7
100
AcDbSpline
 70
8
 71
3
 72
8
 73
4
 74
0
 40
0
 40
0
 40
0
 40
0
 40
1
 40
1
 40
1
 40
1
 10
275.518980
 20
70.934011
 30
0.0
 10
275.193960
 20
69.814559
 30
0.0
 10
274.803440
 20
68.692980
 30
0.0
 10
274.170850
 20
67.706592
 30
0.0
  0
SPLINE
  5
10f
100
AcDbEntity
  8
open-2
 62
7
100
AcDbSpline
 70
8
 71
3
 72
8
 73
4
 74
0
 40
0
 40
0
 40
0
 40
0
 40
1
 40
1
 40
1
 40
1
 10
274.170850
 20
67.706592
 30
0.0
 10
273.268830
 20
66.063331
 30
0.0
 10
272.129850
 20
64.542795
 30
0.0
 10
270.728330
 20
63.291540
 30
0.0
  0
SPLINE
  5
110
100
AcDbEntity
  8
open-2
 62
7
100
AcDbSpline
 70
8
 71
3
 72
8
 73
4
 74
0
 40
0
 40
0
 40
0
 40
0
 40
1
 40
1
 40
1
 40
1
 10
270.728330
 20
63.291540
 30
0.0
 10
267.502740
 20
60.366530
 30
0.0
 10
263.404240
 20
58.565350
 30
0.0
 10
259.205810
 20
57.549130
 30
0.0
  0
SPLINE
  5
111
100
AcDbEntity
  8
open-2
 62
7
100
AcDbSpline
 70
8
 71
3
 72
8
 73
4
 74
0
 40
0
 40
0
 40
0
 40
0
 40
1
 40
1
 40
1
 40
1
 10
259.205810
 20
57.549130
 30
0.0
 10
249.935280
 20
55.540460
 30
0.0
 10
240.661950
 20
53.538760
 30
0.0
 10
231.388140
 20
51.542990
 30
0.0
  0
SPLINE
  5
112
100
AcDbEntity
  8
open-2
 62
7
100
AcDbSpline
 70
8
 71
3
 72
8
 73
4
 74
0
 40
0
 40
0
 40
0
 40
0
 40
1
 40
1
 40
1
 40
1
 10
231.388140
 20
51.542990
 30
0.0
 10
226.571180
 20
50.487610
 30
0.0
 10
221.738250
 20
49.507880
 30
0.0
 10
216.904970
 20
48.530710
 30
0.0
  0
SPLINE
  5
113
100
AcDbEntity
  8
open-2
 62
7
100
AcDbSpline
 70
8
 71
3
 72
8
 73
4
 74
0
 40
0
 40
0
 40
0
 40
0
 40
1
 40
1
 40
1
 40
1
 10
216.904970
 20
48.530710
 30
0.0
 10
200.832490
 20
45.213360
 30
0.0
 10
184.768660
 20
41.851600
 30
0.0
 10
168.662210
 20
38.701710
 30
0.0
  0
SPLINE
  5
114
100
AcDbEntity
  8
open-2
 62
7
100
AcDbSpline
 70
8
 71
3
 72
8
 73
4
 74
0
 40
0
 40
0
 40
0
 40
0
 40
1
 40
1
 40
1
 40
1
 10
168.662210
 20
38.701710
 30
0.0
 10
161.096220
 20
37.235020
 30
0.0
 10
153.531760
 20
35.751300
 30
0.0
 10
145.927940
 20
34.491030
 30
0.0
  0
SPLINE
  5
115
100
AcDbEntity
  8
open-2
 62
7
100
AcDbSpline
 70
8
 71
3
 72
8
 73
4
 74
0
 40
0
 40
0
 40
0
 40
0
 40
1
 40
1
 40
1
 40
1
 10
145.927940
 20
34.491030
 30
0.0
 10
143.636840
 20
34.123750
 30
0.0
 10
141.346290
 20
33.734110
 30
0.0
 10
139.035290
 20
33.512710
 30
0.0
  0
SPLINE
  5
116
100
AcDbEntity
  8
open-2
 62
7
100
AcDbSpline
 70
8
 71
3
 72
8
 73
4
 74
0
 40
0
 40
0
 40
0
 40
0
 40
1
 40
1
 40
1
 40
1
 10
139.035290
 20
33.512710
 30
0.0
 10
137.899850
 20
33.373430
 30
0.0
 10
136.758290
 20
33.519710
 30
0.0
 10
135.629690
 20
33.651980
 30
0.0
  0
SPLINE
  5
117
100
AcDbEntity
  8
open-2
 62
7
100
AcDbSpline
 70
8
 71
3
 72
8
 73
4
 74
0
 40
0
 40
0
 40
0
 40
0
 40
1
 40
1
 40
1
 40
1
 10
135.629690
 20
33.651980
 30
0.0
 10
131.015660
 20
34.266360
 30
0.0
 10
126.433250
 20
35.095030
 30
0.0
 10
121.855010
 20
35.930710
 30
0.0
  0
SPLINE
  5
118
100
AcDbEntity
  8
open-2
 62
7
100
AcDbSpline
 70
8
 71
3
 72
8
 73
4
 74
0
 40
0
 40
0
 40
0
 40
0
 40
1
 40
1
 40
1
 40
1
 10
121.855010
 20
35.930710
 30
0.0
 10
106.498490
 20
38.777980
 30
0.0
 10
91.196987
 20
41.912420
 30
0.0
 10
75.901864
 20
45.070190
 30
0.0
  0
SPLINE
  5
119
100
AcDbEntity
  8
open-2
 62
7
100
AcDbSpline
 70
8
 71
3
 72
8
 73
4
 74
0
 40
0
 40
0
 40
0
 40
0
 40
1
 40
1
 40
1
 40
1
 10
75.901864
 20
45.070190
 30
0.0
 10
68.161489
 20
46.680240
 30
0.0
 10
60.421194
 20
48.290800
 30
0.0
 10
52.672432
 20
49.860150
 30
0.0
  0
SPLINE
  5
11a
100
AcDbEntity
  8
open-2
 62
7
100
AcDbSpline
 70
8
 71
3
 72
8
 73
4
 74
0
 40
0
 40
0
 40
0
 40
0
 40
1
 40
1
 40
1
 40
1
 10
52.672432
 20
49.860150
 30
0.0
 10
43.368629
 20
51.810020
 30
0.0
 10
34.084633
 20
53.853270
 30
0.0
 10
24.793503
 20
55.862480
 30
0.0
  0
SPLINE
  5
11b
100
AcDbEntity
  8
open-2
 62
7
100
AcDbSpline
 70
8
 71
3
 72
8
 73
4
 74
0
 40
0
 40
0
 40
0
 40
0
 40
1
 40
1
 40
1
 40
1
 10
24.793503
 20
55.862480
 30
0.0
 10
22.207371
 20
56.431900
 30
0.0
 10
19.613881
 20
56.968430
 30
0.0
 10
17.029994
 20
57.546220
 30
0.0
  0
SPLINE
  5
11c
100
AcDbEntity
  8
open-2
 62
7
100
AcDbSpline
 70
8
 71
3
 72
8
 73
4
 74
0
 40
0
 40
0
 40
0
 40
0
 40
1
 40
1
 40
1
 40
1
 10
17.029994
 20
57.546220
 30
0.0
 10
15.989150
 20
57.777390
 30
0.0
 10
14.982027
 20
58.125690
 30
0.0
 10
13.974618
 20
58.469130
 30
0.0
  0
SPLINE
  5
11d
100
AcDbEntity
  8
open-2
 62
7
100
AcDbSpline
 70
8
 71
3
 72
8
 73
4
 74
0
 40
0
 40
0
 40
0
 40
0
 40
1
 40
1
 40
1
 40
1
 10
13.974618
 20
58.469130
 30
0.0
 10
11.853714
 20
59.103620
 30
0.0
 10
9.920416
 20
60.210980
 30
0.0
 10
8.026674
 20
61.332710
 30
0.0
  0
SPLINE
  5
11e
100
AcDbEntity
  8
open-2
 62
7
100
AcDbSpline
 70
8
 71
3
 72
8
 73
4
 74
0
 40
0
 40
0
 40
0
 40
0
 40
1
 40
1
 40
1
 40
1
 10
8.026674
 20
61.332710
 30
0.0
 10
6.963664
 20
62.026240
 30
0.0
 10
5.938938
 20
62.803810
 30
0.0
 10
5.059184
 20
63.725440
 30
0.0
  0
SPLINE
  5
11f
100
AcDbEntity
  8
open-2
 62
7
100
AcDbSpline
 70
8
 71
3
 72
8
 73
4
 74
0
 40
0
 40
0
 40
0
 40
0
 40
1
 40
1
 40
1
 40
1
 10
5.059184
 20
63.725440
 30
0.0
 10
4.547748
 20
64.319126
 30
0.0
 10
4.001508
 20
64.881348
 30
0.0
 10
3.476548
 20
65.463180
 30
0.0
  0
SPLINE
  5
120
100
AcDbEntity
  8
open-2
 62
7
100
AcDbSpline
 70
8
 71
3
 72
8
 73
4
 74
0
 40
0
 40
0
 40
0
 40
0
 40
1
 40
1
 40
1
 40
1
 10
3.476548
 20
65.463180
 30
0.0
 10
1.369592
 20
68.056935
 30
0.0
 10
0.197705
 20
71.373675
 30
0.0
 10
0.103098
 20
74.707237
 30
0.0
  0
SPLINE
  5
121
100
AcDbEntity
  8
open-2
 62
7
100
AcDbSpline
 70
8
 71
3
 72
8
 73
4
 74
0
 40
0
 40
0
 40
0
 40
0
 40
1
 40
1
 40
1
 40
1
 10
0.103098
 20
74.707237
 30
0.0
 10
0.086878
 20
95.024628
 30
0.0
 10
0.100148
 20
115.342244
 30
0.0
 10
0.096018
 20
135.659719
 30
0.0
  0
SPLINE
  5
122
100
AcDbEntity
  8
open-2
 62
7
100
AcDbSpline
 70
8
 71
3
 72
8
 73
4
 74
0
 40
0
 40
0
 40
0
 40
0
 40
1
 40
1
 40
1
 40
1
 10
0.096018
 20
135.659719
 30
0.0
 10
0.108978
 20
138.017210
 30
0.0
 10
0.076797
 20
140.375157
 30
0.0
 10
0.110428
 20
142.732404
 30
0.0
  0
SPLINE
  5
123
100
AcDbEntity
  8
open-2
 62
7
100
AcDbSpline
 70
8
 71
3
 72
8
 73
4
 74
0
 40
0
 40
0
 40
0
 40
0
 40
1
 40
1
 40
1
 40
1
 10
0.110428
 20
142.732404
 30
0.0
 10
0.217466
 20
147.447494
 30
0.0
 10
2.310197
 20
152.068739
 30
0.0
 10
5.751738
 20
155.288773
 30
0.0
  0
SPLINE
  5
124
100
AcDbEntity
  8
open-2
 62
7
100
AcDbSpline
 70
8
 71
3
 72
8
 73
4
 74
0
 40
0
 40
0
 40
0
 40
0
 40
1
 40
1
 40
1
 40
1
 10
5.751738
 20
155.288773
 30
0.0
 10
5.965739
 20
155.497260
 30
0.0
 10
6.441048
 20
155.903776
 30
0.0
 10
6.515769
 20
155.965970
 30
0.0
  0
SPLINE
  5
125
100
AcDbEntity
  8
open-2
 62
7
100
AcDbSpline
 70
8
 71
3
 72
8
 73
4
 74
0
 40
0
 40
0
 40
0
 40
0
 40
1
 40
1
 40
1
 40
1
 10
6.515769
 20
155.965970
 30
0.0
 10
9.722377
 20
158.673838
 30
0.0
 10
13.909988
 20
160.184055
 30
0.0
 10
18.105613
 20
160.163235
 30
0.0
  0
LWPOLYLINE
  5
126
100
AcDbEntity
  8
open-2
 62
7
100
AcDbPolyline
 90
1
 70
1
 10
277.351690
 20
70.067533
 30
0.0
  0
SPLINE
  5
127
100
AcDbEntity
  8
open-2
 62
7
100
AcDbSpline
 70
8
 71
3
 72
8
 73
4
 74
0
 40
0
 40
0
 40
0
 40
0
 40
1
 40
1
 40
1
 40
1
 10
63.420690
 20
160.163235
 30
0.0
 10
84.985952
 20
160.163452
 30
0.0
 10
106.551220
 20
160.163380
 30
0.0
 10
128.116490
 20
160.163271
 30
0.0
  0
LWPOLYLINE
  5
128
100
AcDbEntity
  8
open-2
 62
7
100
AcDbPolyline
 90
3
 70
0
 10
18.105613
 20
160.163235
 30
0.0
 10
18.105894
 20
160.163235
 30
0.0
 10
63.420690
 20
160.163235
 30
0.0
  0
SPLINE
  5
129
100
AcDbEntity
  8
open-2
 62
7
100
AcDbSpline
 70
8
 71
3
 72
8
 73
4
 74
0
 40
0
 40
0
 40
0
 40
0
 40
1
 40
1
 40
1
 40
1
 10
18.095811
 20
151.162616
 30
0.0
 10
15.580497
 20
151.180026
 30
0.0
 10
13.084243
 20
150.079623
 30
0.0
 10
11.408102
 20
148.202723
 30
0.0
  0
SPLINE
  5
12a
100
AcDbEntity
  8
open-2
 62
7
100
AcDbSpline
 70
8
 71
3
 72
8
 73
4
 74
0
 40
0
 40
0
 40
0
 40
0
 40
1
 40
1
 40
1
 40
1
 10
11.408102
 20
148.202723
 30
0.0
 10
9.868419
 20
146.514826
 30
0.0
 10
9.033939
 20
144.221551
 30
0.0
 10
9.095812
 20
141.940326
 30
0.0
  0
SPLINE
  5
12b
100
AcDbEntity
  8
open-2
 62
7
100
AcDbSpline
 70
8
 71
3
 72
8
 73
4
 74
0
 40
0
 40
0
 40
0
 40
0
 40
1
 40
1
 40
1
 40
1
 10
9.095812
 20
141.940326
 30
0.0
 10
9.096812
 20
119.664247
 30
0.0
 10
9.093712
 20
97.388140
 30
0.0
 10
9.097412
 20
75.112081
 30
0.0
  0
SPLINE
  5
12c
100
AcDbEntity
  8
open-2
 62
7
100
AcDbSpline
 70
8
 71
3
 72
8
 73
4
 74
0
 40
0
 40
0
 40
0
 40
0
 40
1
 40
1
 40
1
 40
1
 10
9.097412
 20
75.112081
 30
0.0
 10
9.116162
 20
73.361500
 30
0.0
 10
9.881252
 20
71.670051
 30
0.0
 10
11.074493
 20
70.405453
 30
0.0
  0
SPLINE
  5
12d
100
AcDbEntity
  8
open-2
 62
7
100
AcDbSpline
 70
8
 71
3
 72
8
 73
4
 74
0
 40
0
 40
0
 40
0
 40
0
 40
1
 40
1
 40
1
 40
1
 10
11.074493
 20
70.405453
 30
0.0
 10
12.736500
 20
68.626847
 30
0.0
 10
14.997135
 20
67.542900
 30
0.0
 10
17.283635
 20
66.804921
 30
0.0
  0
SPLINE
  5
12e
100
AcDbEntity
  8
open-2
 62
7
100
AcDbSpline
 70
8
 71
3
 72
8
 73
4
 74
0
 40
0
 40
0
 40
0
 40
0
 40
1
 40
1
 40
1
 40
1
 10
17.283635
 20
66.804921
 30
0.0
 10
19.178041
 20
66.191361
 30
0.0
 10
21.149661
 20
65.887579
 30
0.0
 10
23.094635
 20
65.484042
 30
0.0
  0
SPLINE
  5
12f
100
AcDbEntity
  8
open-2
 62
7
100
AcDbSpline
 70
8
 71
3
 72
8
 73
4
 74
0
 40
0
 40
0
 40
0
 40
0
 40
1
 40
1
 40
1
 40
1
 10
23.094635
 20
65.484042
 30
0.0
 10
61.398408
 20
57.876900
 30
0.0
 10
99.702200
 20
50.269760
 30
0.0
 10
138.005990
 20
42.662620
 30
0.0
  0
SPLINE
  5
130
100
AcDbEntity
  8
open-2
 62
7
100
AcDbSpline
 70
8
 71
3
 72
8
 73
4
 74
0
 40
0
 40
0
 40
0
 40
0
 40
1
 40
1
 40
1
 40
1
 10
138.005990
 20
42.662620
 30
0.0
 10
177.408260
 20
50.476490
 30
0.0
 10
216.811110
 20
58.287490
 30
0.0
 10
256.213030
 20
66.103143
 30
0.0
  0
SPLINE
  5
131
100
AcDbEntity
  8
open-2
 62
7
100
AcDbSpline
 70
8
 71
3
 72
8
 73
4
 74
0
 40
0
 40
0
 40
0
 40
0
 40
1
 40
1
 40
1
 40
1
 10
256.213030
 20
66.103143
 30
0.0
 10
258.845990
 20
66.657906
 30
0.0
 10
261.476820
 20
67.528094
 30
0.0
 10
263.673310
 20
69.123965
 30
0.0
  0
SPLINE
  5
132
100
AcDbEntity
  8
open-2
 62
7
100
AcDbSpline
 70
8
 71
3
 72
8
 73
4
 74
0
 40
0
 40
0
 40
0
 40
0
 40
1
 40
1
 40
1
 40
1
 10
263.673310
 20
69.123965
 30
0.0
 10
265.222210
 20
70.247227
 30
0.0
 10
266.511020
 20
71.845782
 30
0.0
 10
266.928500
 20
73.744585
 30
0.0
  0
SPLINE
  5
133
100
AcDbEntity
  8
open-2
 62
7
100
AcDbSpline
 70
8
 71
3
 72
8
 73
4
 74
0
 40
0
 40
0
 40
0
 40
0
 40
1
 40
1
 40
1
 40
1
 10
266.928500
 20
73.744585
 30
0.0
 10
267.173880
 20
74.774309
 30
0.0
 10
267.075380
 20
75.837164
 30
0.0
 10
267.095850
 20
76.884943
 30
0.0
  0
LWPOLYLINE
  5
134
100
AcDbEntity
  8
open-2
 62
7
100
AcDbPolyline
 90
5
 70
0
 10
128.116490
 20
160.163271
 30
0.0
 10
128.116550
 20
151.162616
 30
0.0
 10
18.095838
 20
151.162616
 30
0.0
 10
18.095811
 20
151.162616
 30
0.0
 10
18.095811
 20
151.162616
 30
0.0
  0
SPLINE
  5
135
100
AcDbEntity
  8
open-2
 62
7
100
AcDbSpline
 70
8
 71
3
 72
8
 73
4
 74
0
 40
0
 40
0
 40
0
 40
0
 40
1
 40
1
 40
1
 40
1
 10
267.095850
 20
142.279429
 30
0.0
 10
267.082050
 20
144.855384
 30
0.0
 10
265.891020
 20
147.393824
 30
0.0
 10
263.913080
 20
149.045185
 30
0.0
  0
SPLINE
  5
136
100
AcDbEntity
  8
open-2
 62
7
100
AcDbSpline
 70
8
 71
3
 72
8
 73
4
 74
0
 40
0
 40
0
 40
0
 40
0
 40
1
 40
1
 40
1
 40
1
 10
263.913080
 20
149.045185
 30
0.0
 10
262.239150
 20
150.473856
 30
0.0
 10
260.025990
 20
151.227490
 30
0.0
 10
257.829820
 20
151.162616
 30
0.0
  0
LWPOLYLINE
  5
137
100
AcDbEntity
  8
open-2
 62
7
100
AcDbPolyline
 90
2
 70
0
 10
267.095850
 20
76.884943
 30
0.0
 10
267.095850
 20
142.279429
 30
0.0
  0
SPLINE
  5
138
100
AcDbEntity
  8
open-2
 62
7
100
AcDbSpline
 70
8
 71
3
 72
8
 73
4
 74
0
 40
0
 40
0
 40
0
 40
0
 40
1
 40
1
 40
1
 40
1
 10
122.350210
 20
156.091894
 30
0.0
 10
122.350210
 20
155.627766
 30
0.0
 10
122.165836
 20
155.182646
 30
0.0
 10
121.837647
 20
154.854458
 30
0.0
  0
SPLINE
  5
139
100
AcDbEntity
  8
open-2
 62
7
100
AcDbSpline
 70
8
 71
3
 72
8
 73
4
 74
0
 40
0
 40
0
 40
0
 40
0
 40
1
 40
1
 40
1
 40
1
 10
121.837647
 20
154.854458
 30
0.0
 10
121.509458
 20
154.526269
 30
0.0
 10
121.064339
 20
154.341894
 30
0.0
 10
120.600210
 20
154.341894
 30
0.0
  0
SPLINE
  5
13a
100
AcDbEntity
  8
open-2
 62
7
100
AcDbSpline
 70
8
 71
3
 72
8
 73
4
 74
0
 40
0
 40
0
 40
0
 40
0
 40
1
 40
1
 40
1
 40
1
 10
120.600210
 20
154.341894
 30
0.0
 10
120.136081
 20
154.341894
 30
0.0
 10
119.690962
 20
154.526269
 30
0.0
 10
119.362773
 20
154.854458
 30
0.0
  0
SPLINE
  5
13b
100
AcDbEntity
  8
open-2
 62
7
100
AcDbSpline
 70
8
 71
3
 72
8
 73
4
 74
0
 40
0
 40
0
 40
0
 40
0
 40
1
 40
1
 40
1
 40
1
 10
119.362773
 20
154.854458
 30
0.0
 10
119.034584
 20
155.182646
 30
0.0
 10
118.850210
 20
155.627766
 30
0.0
 10
118.850210
 20
156.091894
 30
0.0
  0
SPLINE
  5
13c
100
AcDbEntity
  8
open-2
 62
7
100
AcDbSpline
 70
8
 71
3
 72
8
 73
4
 74
0
 40
0
 40
0
 40
0
 40
0
 40
1
 40
1
 40
1
 40
1
 10
118.850210
 20
156.091894
 30
0.0
 10
118.850210
 20
156.556023
 30
0.0
 10
119.034584
 20
157.001143
 30
0.0
 10
119.362773
 20
157.329331
 30
0.0
  0
SPLINE
  5
13d
100
AcDbEntity
  8
open-2
 62
7
100
AcDbSpline
 70
8
 71
3
 72
8
 73
4
 74
0
 40
0
 40
0
 40
0
 40
0
 40
1
 40
1
 40
1
 40
1
 10
119.362773
 20
157.329331
 30
0.0
 10
119.690962
 20
157.657520
 30
0.0
 10
120.136081
 20
157.841894
 30
0.0
 10
120.600210
 20
157.841894
 30
0.0
  0
SPLINE
  5
13e
100
AcDbEntity
  8
open-2
 62
7
100
AcDbSpline
 70
8
 71
3
 72
8
 73
4
 74
0
 40
0
 40
0
 40
0
 40
0
 40
1
 40
1
 40
1
 40
1
 10
120.600210
 20
157.841894
 30
0.0
 10
121.064339
 20
157.841894
 30
0.0
 10
121.509458
 20
157.657520
 30
0.0
 10
121.837647
 20
157.329331
 30
0.0
  0
SPLINE
  5
13f
100
AcDbEntity
  8
open-2
 62
7
100
AcDbSpline
 70
8
 71
3
 72
8
 73
4
 74
0
 40
0
 40
0
 40
0
 40
0
 40
1
 40
1
 40
1
 40
1
 10
121.837647
 20
157.329331
 30
0.0
 10
122.165836
 20
157.001143
 30
0.0
 10
122.350210
 20
156.556023
 30
0.0
 10
122.350210
 20
156.091894
 30
0.0
  0
LWPOLYLINE
  5
140
100
AcDbEntity
  8
open-2
 62
7
100
AcDbPolyline
 90
3
 70
0
 10
257.829820
 20
151.162616
 30
0.0
 10
148.116370
 20
151.162616
 30
0.0
 10
148.116280
 20
160.163172
 30
0.0
  0
SPLINE
  5
141
100
AcDbEntity
  8
open-2
 62
7
100
AcDbSpline
 70
8
 71
3
 72
8
 73
4
 74
0
 40
0
 40
0
 40
0
 40
0
 40
1
 40
1
 40
1
 40
1
 10
5.625764
 20
114.170847
 30
0.0
 10
5.625764
 20
113.706718
 30
0.0
 10
5.441389
 20
113.261599
 30
0.0
 10
5.113201
 20
112.933410
 30
0.0
  0
SPLINE
  5
142
100
AcDbEntity
  8
open-2
 62
7
100
AcDbSpline
 70
8
 71
3
 72
8
 73
4
 74
0
 40
0
 40
0
 40
0
 40
0
 40
1
 40
1
 40
1
 40
1
 10
5.113201
 20
112.933410
 30
0.0
 10
4.785012
 20
112.605221
 30
0.0
 10
4.339893
 20
112.420847
 30
0.0
 10
3.875764
 20
112.420847
 30
0.0
  0
SPLINE
  5
143
100
AcDbEntity
  8
open-2
 62
7
100
AcDbSpline
 70
8
 71
3
 72
8
 73
4
 74
0
 40
0
 40
0
 40
0
 40
0
 40
1
 40
1
 40
1
 40
1
 10
3.875764
 20
112.420847
 30
0.0
 10
3.411635
 20
112.420847
 30
0.0
 10
2.966516
 20
112.605221
 30
0.0
 10
2.638327
 20
112.933410
 30
0.0
  0
SPLINE
  5
144
100
AcDbEntity
  8
open-2
 62
7
100
AcDbSpline
 70
8
 71
3
 72
8
 73
4
 74
0
 40
0
 40
0
 40
0
 40
0
 40
1
 40
1
 40
1
 40
1
 10
2.638327
 20
112.933410
 30
0.0
 10
2.310138
 20
113.261599
 30
0.0
 10
2.125764
 20
113.706718
 30
0.0
 10
2.125764
 20
114.170847
 30
0.0
  0
SPLINE
  5
145
100
AcDbEntity
  8
open-2
 62
7
100
AcDbSpline
 70
8
 71
3
 72
8
 73
4
 74
0
 40
0
 40
0
 40
0
 40
0
 40
1
 40
1
 40
1
 40
1
 10
2.125764
 20
114.170847
 30
0.0
 10
2.125764
 20
114.634976
 30
0.0
 10
2.310138
 20
115.080095
 30
0.0
 10
2.638327
 20
115.408284
 30
0.0
  0
SPLINE
  5
146
100
AcDbEntity
  8
open-2
 62
7
100
AcDbSpline
 70
8
 71
3
 72
8
 73
4
 74
0
 40
0
 40
0
 40
0
 40
0
 40
1
 40
1
 40
1
 40
1
 10
2.638327
 20
115.408284
 30
0.0
 10
2.966516
 20
115.736473
 30
0.0
 10
3.411635
 20
115.920847
 30
0.0
 10
3.875764
 20
115.920847
 30
0.0
  0
SPLINE
  5
147
100
AcDbEntity
  8
open-2
 62
7
100
AcDbSpline
 70
8
 71
3
 72
8
 73
4
 74
0
 40
0
 40
0
 40
0
 40
0
 40
1
 40
1
 40
1
 40
1
 10
3.875764
 20
115.920847
 30
0.0
 10
4.339893
 20
115.920847
 30
0.0
 10
4.785012
 20
115.736473
 30
0.0
 10
5.113201
 20
115.408284
 30
0.0
  0
SPLINE
  5
148
100
AcDbEntity
  8
open-2
 62
7
100
AcDbSpline
 70
8
 71
3
 72
8
 73
4
 74
0
 40
0
 40
0
 40
0
 40
0
 40
1
 40
1
 40
1
 40
1
 10
5.113201
 20
115.408284
 30
0.0
 10
5.441389
 20
115.080095
 30
0.0
 10
5.625764
 20
114.634976
 30
0.0
 10
5.625764
 20
114.170847
 30
0.0
  0
LWPOLYLINE
  5
149
100
AcDbEntity
  8
open-2
 62
7
100
AcDbPolyline
 90
1
 70
1
 10
122.350210
 20
156.091894
 30
0.0
  0
SPLINE
  5
14a
100
AcDbEntity
  8
open-2
 62
7
100
AcDbSpline
 70
8
 71
3
 72
8
 73
4
 74
0
 40
0
 40
0
 40
0
 40
0
 40
1
 40
1
 40
1
 40
1
 10
274.067440
 20
114.170847
 30
0.0
 10
274.067440
 20
113.706718
 30
0.0
 10
273.883066
 20
113.261599
 30
0.0
 10
273.554877
 20
112.933410
 30
0.0
  0
SPLINE
  5
14b
100
AcDbEntity
  8
open-2
 62
7
100
AcDbSpline
 70
8
 71
3
 72
8
 73
4
 74
0
 40
0
 40
0
 40
0
 40
0
 40
1
 40
1
 40
1
 40
1
 10
273.554877
 20
112.933410
 30
0.0
 10
273.226688
 20
112.605221
 30
0.0
 10
272.781569
 20
112.420847
 30
0.0
 10
272.317440
 20
112.420847
 30
0.0
  0
SPLINE
  5
14c
100
AcDbEntity
  8
open-2
 62
7
100
AcDbSpline
 70
8
 71
3
 72
8
 73
4
 74
0
 40
0
 40
0
 40
0
 40
0
 40
1
 40
1
 40
1
 40
1
 10
272.317440
 20
112.420847
 30
0.0
 10
271.853311
 20
112.420847
 30
0.0
 10
271.408192
 20
112.605221
 30
0.0
 10
271.080003
 20
112.933410
 30
0.0
  0
SPLINE
  5
14d
100
AcDbEntity
  8
open-2
 62
7
100
AcDbSpline
 70
8
 71
3
 72
8
 73
4
 74
0
 40
0
 40
0
 40
0
 40
0
 40
1
 40
1
 40
1
 40
1
 10
271.080003
 20
112.933410
 30
0.0
 10
270.751814
 20
113.261599
 30
0.0
 10
270.567440
 20
113.706718
 30
0.0
 10
270.567440
 20
114.170847
 30
0.0
  0
SPLINE
  5
14e
100
AcDbEntity
  8
open-2
 62
7
100
AcDbSpline
 70
8
 71
3
 72
8
 73
4
 74
0
 40
0
 40
0
 40
0
 40
0
 40
1
 40
1
 40
1
 40
1
 10
270.567440
 20
114.170847
 30
0.0
 10
270.567440
 20
114.634976
 30
0.0
 10
270.751814
 20
115.080095
 30
0.0
 10
271.080003
 20
115.408284
 30
0.0
  0
SPLINE
  5
14f
100
AcDbEntity
  8
open-2
 62
7
100
AcDbSpline
 70
8
 71
3
 72
8
 73
4
 74
0
 40
0
 40
0
 40
0
 40
0
 40
1
 40
1
 40
1
 40
1
 10
271.080003
 20
115.408284
 30
0.0
 10
271.408192
 20
115.736473
 30
0.0
 10
271.853311
 20
115.920847
 30
0.0
 10
272.317440
 20
115.920847
 30
0.0
  0
SPLINE
  5
150
100
AcDbEntity
  8
open-2
 62
7
100
AcDbSpline
 70
8
 71
3
 72
8
 73
4
 74
0
 40
0
 40
0
 40
0
 40
0
 40
1
 40
1
 40
1
 40
1
 10
272.317440
 20
115.920847
 30
0.0
 10
272.781569
 20
115.920847
 30
0.0
 10
273.226688
 20
115.736473
 30
0.0
 10
273.554877
 20
115.408284
 30
0.0
  0
SPLINE
  5
151
100
AcDbEntity
  8
open-2
 62
7
100
AcDbSpline
 70
8
 71
3
 72
8
 73
4
 74
0
 40
0
 40
0
 40
0
 40
0
 40
1
 40
1
 40
1
 40
1
 10
273.554877
 20
115.408284
 30
0.0
 10
273.883066
 20
115.080095
 30
0.0
 10
274.067440
 20
114.634976
 30
0.0
 10
274.067440
 20
114.170847
 30
0.0
  0
LWPOLYLINE
  5
152
100
AcDbEntity
  8
open-2
 62
7
100
AcDbPolyline
 90
1
 70
1
 10
5.625764
 20
114.170847
 30
0.0
  0
SPLINE
  5
153
100
AcDbEntity
  8
open-2
 62
7
100
AcDbSpline
 70
8
 71
3
 72
8
 73
4
 74
0
 40
0
 40
0
 40
0
 40
0
 40
1
 40
1
 40
1
 40
1
 10
10.558539
 20
151.458562
 30
0.0
 10
10.558539
 20
150.492064
 30
0.0
 10
9.775037
 20
149.708562
 30
0.0
 10
8.808539
 20
149.708562
 30
0.0
  0
SPLINE
  5
154
100
AcDbEntity
  8
open-2
 62
7
100
AcDbSpline
 70
8
 71
3
 72
8
 73
4
 74
0
 40
0
 40
0
 40
0
 40
0
 40
1
 40
1
 40
1
 40
1
 10
8.808539
 20
149.708562
 30
0.0
 10
7.842041
 20
149.708562
 30
0.0
 10
7.058540
 20
150.492064
 30
0.0
 10
7.058539
 20
151.458562
 30
0.0
  0
SPLINE
  5
155
100
AcDbEntity
  8
open-2
 62
7
100
AcDbSpline
 70
8
 71
3
 72
8
 73
4
 74
0
 40
0
 40
0
 40
0
 40
0
 40
1
 40
1
 40
1
 40
1
 10
7.058539
 20
151.458562
 30
0.0
 10
7.058539
 20
151.922691
 30
0.0
 10
7.242914
 20
152.367810
 30
0.0
 10
7.571103
 20
152.695999
 30
0.0
  0
SPLINE
  5
156
100
AcDbEntity
  8
open-2
 62
7
100
AcDbSpline
 70
8
 71
3
 72
8
 73
4
 74
0
 40
0
 40
0
 40
0
 40
0
 40
1
 40
1
 40
1
 40
1
 10
7.571103
 20
152.695999
 30
0.0
 10
7.899291
 20
153.024187
 30
0.0
 10
8.344411
 20
153.208562
 30
0.0
 10
8.808539
 20
153.208562
 30
0.0
  0
SPLINE
  5
157
100
AcDbEntity
  8
open-2
 62
7
100
AcDbSpline
 70
8
 71
3
 72
8
 73
4
 74
0
 40
0
 40
0
 40
0
 40
0
 40
1
 40
1
 40
1
 40
1
 10
8.808539
 20
153.208562
 30
0.0
 10
9.775038
 20
153.208561
 30
0.0
 10
10.558539
 20
152.425060
 30
0.0
 10
10.558539
 20
151.458562
 30
0.0
  0
LWPOLYLINE
  5
158
100
AcDbEntity
  8
open-2
 62
7
100
AcDbPolyline
 90
1
 70
1
 10
274.067440
 20
114.170847
 30
0.0
  0
SPLINE
  5
159
100
AcDbEntity
  8
open-2
 62
7
100
AcDbSpline
 70
8
 71
3
 72
8
 73
4
 74
0
 40
0
 40
0
 40
0
 40
0
 40
1
 40
1
 40
1
 40
1
 10
269.175230
 20
151.458333
 30
0.0
 10
269.175230
 20
150.491835
 30
0.0
 10
268.391728
 20
149.708333
 30
0.0
 10
267.425230
 20
149.708333
 30
0.0
  0
SPLINE
  5
15a
100
AcDbEntity
  8
open-2
 62
7
100
AcDbSpline
 70
8
 71
3
 72
8
 73
4
 74
0
 40
0
 40
0
 40
0
 40
0
 40
1
 40
1
 40
1
 40
1
 10
267.425230
 20
149.708333
 30
0.0
 10
266.458732
 20
149.708333
 30
0.0
 10
265.675230
 20
150.491835
 30
0.0
 10
265.675230
 20
151.458333
 30
0.0
  0
SPLINE
  5
15b
100
AcDbEntity
  8
open-2
 62
7
100
AcDbSpline
 70
8
 71
3
 72
8
 73
4
 74
0
 40
0
 40
0
 40
0
 40
0
 40
1
 40
1
 40
1
 40
1
 10
265.675230
 20
151.458333
 30
0.0
 10
265.675230
 20
151.922462
 30
0.0
 10
265.859604
 20
152.367581
 30
0.0
 10
266.187793
 20
152.695770
 30
0.0
  0
SPLINE
  5
15c
100
AcDbEntity
  8
open-2
 62
7
100
AcDbSpline
 70
8
 71
3
 72
8
 73
4
 74
0
 40
0
 40
0
 40
0
 40
0
 40
1
 40
1
 40
1
 40
1
 10
266.187793
 20
152.695770
 30
0.0
 10
266.515982
 20
153.023958
 30
0.0
 10
266.961101
 20
153.208333
 30
0.0
 10
267.425230
 20
153.208333
 30
0.0
  0
SPLINE
  5
15d
100
AcDbEntity
  8
open-2
 62
7
100
AcDbSpline
 70
8
 71
3
 72
8
 73
4
 74
0
 40
0
 40
0
 40
0
 40
0
 40
1
 40
1
 40
1
 40
1
 10
267.425230
 20
153.208333
 30
0.0
 10
267.889359
 20
153.208333
 30
0.0
 10
268.334478
 20
153.023958
 30
0.0
 10
268.662667
 20
152.695770
 30
0.0
  0
SPLINE
  5
15e
100
AcDbEntity
  8
open-2
 62
7
100
AcDbSpline
 70
8
 71
3
 72
8
 73
4
 74
0
 40
0
 40
0
 40
0
 40
0
 40
1
 40
1
 40
1
 40
1
 10
268.662667
 20
152.695770
 30
0.0
 10
268.990856
 20
152.367581
 30
0.0
 10
269.175230
 20
151.922462
 30
0.0
 10
269.175230
 20
151.458333
 30
0.0
  0
LWPOLYLINE
  5
15f
100
AcDbEntity
  8
open-2
 62
7
100
AcDbPolyline
 90
1
 70
1
 10
10.558539
 20
151.458562
 30
0.0
  0
SPLINE
  5
160
100
AcDbEntity
  8
open-2
 62
7
100
AcDbSpline
 70
8
 71
3
 72
8
 73
4
 74
0
 40
0
 40
0
 40
0
 40
0
 40
1
 40
1
 40
1
 40
1
 10
10.558761
 20
67.159109
 30
0.0
 10
10.558761
 20
66.694980
 30
0.0
 10
10.374386
 20
66.249861
 30
0.0
 10
10.046198
 20
65.921672
 30
0.0
  0
SPLINE
  5
161
100
AcDbEntity
  8
open-2
 62
7
100
AcDbSpline
 70
8
 71
3
 72
8
 73
4
 74
0
 40
0
 40
0
 40
0
 40
0
 40
1
 40
1
 40
1
 40
1
 10
10.046198
 20
65.921672
 30
0.0
 10
9.718009
 20
65.593483
 30
0.0
 10
9.272890
 20
65.409109
 30
0.0
 10
8.808761
 20
65.409109
 30
0.0
  0
SPLINE
  5
162
100
AcDbEntity
  8
open-2
 62
7
100
AcDbSpline
 70
8
 71
3
 72
8
 73
4
 74
0
 40
0
 40
0
 40
0
 40
0
 40
1
 40
1
 40
1
 40
1
 10
8.808761
 20
65.409109
 30
0.0
 10
7.842262
 20
65.409109
 30
0.0
 10
7.058761
 20
66.192611
 30
0.0
 10
7.058761
 20
67.159109
 30
0.0
  0
SPLINE
  5
163
100
AcDbEntity
  8
open-2
 62
7
100
AcDbSpline
 70
8
 71
3
 72
8
 73
4
 74
0
 40
0
 40
0
 40
0
 40
0
 40
1
 40
1
 40
1
 40
1
 10
7.058761
 20
67.159109
 30
0.0
 10
7.058761
 20
67.623238
 30
0.0
 10
7.243135
 20
68.068357
 30
0.0
 10
7.571324
 20
68.396546
 30
0.0
  0
SPLINE
  5
164
100
AcDbEntity
  8
open-2
 62
7
100
AcDbSpline
 70
8
 71
3
 72
8
 73
4
 74
0
 40
0
 40
0
 40
0
 40
0
 40
1
 40
1
 40
1
 40
1
 10
7.571324
 20
68.396546
 30
0.0
 10
7.899512
 20
68.724735
 30
0.0
 10
8.344632
 20
68.909109
 30
0.0
 10
8.808761
 20
68.909109
 30
0.0
  0
SPLINE
  5
165
100
AcDbEntity
  8
open-2
 62
7
100
AcDbSpline
 70
8
 71
3
 72
8
 73
4
 74
0
 40
0
 40
0
 40
0
 40
0
 40
1
 40
1
 40
1
 40
1
 10
8.808761
 20
68.909109
 30
0.0
 10
9.272890
 20
68.909109
 30
0.0
 10
9.718009
 20
68.724735
 30
0.0
 10
10.046198
 20
68.396546
 30
0.0
  0
SPLINE
  5
166
100
AcDbEntity
  8
open-2
 62
7
100
AcDbSpline
 70
8
 71
3
 72
8
 73
4
 74
0
 40
0
 40
0
 40
0
 40
0
 40
1
 40
1
 40
1
 40
1
 10
10.046198
 20
68.396546
 30
0.0
 10
10.374386
 20
68.068357
 30
0.0
 10
10.558761
 20
67.623238
 30
0.0
 10
10.558761
 20
67.159109
 30
0.0
  0
LWPOLYLINE
  5
167
100
AcDbEntity
  8
open-2
 62
7
100
AcDbPolyline
 90
1
 70
1
 10
269.175230
 20
151.458333
 30
0.0
  0
SPLINE
  5
168
100
AcDbEntity
  8
open-2
 62
7
100
AcDbSpline
 70
8
 71
3
 72
8
 73
4
 74
0
 40
0
 40
0
 40
0
 40
0
 40
1
 40
1
 40
1
 40
1
 10
269.175450
 20
67.158956
 30
0.0
 10
269.175450
 20
66.694827
 30
0.0
 10
268.991076
 20
66.249708
 30
0.0
 10
268.662887
 20
65.921519
 30
0.0
  0
SPLINE
  5
169
100
AcDbEntity
  8
open-2
 62
7
100
AcDbSpline
 70
8
 71
3
 72
8
 73
4
 74
0
 40
0
 40
0
 40
0
 40
0
 40
1
 40
1
 40
1
 40
1
 10
268.662887
 20
65.921519
 30
0.0
 10
268.334698
 20
65.593330
 30
0.0
 10
267.889579
 20
65.408956
 30
0.0
 10
267.425450
 20
65.408956
 30
0.0
  0
SPLINE
  5
16a
100
AcDbEntity
  8
open-2
 62
7
100
AcDbSpline
 70
8
 71
3
 72
8
 73
4
 74
0
 40
0
 40
0
 40
0
 40
0
 40
1
 40
1
 40
1
 40
1
 10
267.425450
 20
65.408956
 30
0.0
 10
266.961321
 20
65.408956
 30
0.0
 10
266.516202
 20
65.593330
 30
0.0
 10
266.188013
 20
65.921519
 30
0.0
  0
SPLINE
  5
16b
100
AcDbEntity
  8
open-2
 62
7
100
AcDbSpline
 70
8
 71
3
 72
8
 73
4
 74
0
 40
0
 40
0
 40
0
 40
0
 40
1
 40
1
 40
1
 40
1
 10
266.188013
 20
65.921519
 30
0.0
 10
265.859824
 20
66.249708
 30
0.0
 10
265.675450
 20
66.694827
 30
0.0
 10
265.675450
 20
67.158956
 30
0.0
  0
SPLINE
  5
16c
100
AcDbEntity
  8
open-2
 62
7
100
AcDbSpline
 70
8
 71
3
 72
8
 73
4
 74
0
 40
0
 40
0
 40
0
 40
0
 40
1
 40
1
 40
1
 40
1
 10
265.675450
 20
67.158956
 30
0.0
 10
265.675450
 20
67.623085
 30
0.0
 10
265.859824
 20
68.068204
 30
0.0
 10
266.188013
 20
68.396393
 30
0.0
  0
SPLINE
  5
16d
100
AcDbEntity
  8
open-2
 62
7
100
AcDbSpline
 70
8
 71
3
 72
8
 73
4
 74
0
 40
0
 40
0
 40
0
 40
0
 40
1
 40
1
 40
1
 40
1
 10
266.188013
 20
68.396393
 30
0.0
 10
266.516202
 20
68.724582
 30
0.0
 10
266.961321
 20
68.908956
 30
0.0
 10
267.425450
 20
68.908956
 30
0.0
  0
SPLINE
  5
16e
100
AcDbEntity
  8
open-2
 62
7
100
AcDbSpline
 70
8
 71
3
 72
8
 73
4
 74
0
 40
0
 40
0
 40
0
 40
0
 40
1
 40
1
 40
1
 40
1
 10
267.425450
 20
68.908956
 30
0.0
 10
267.889579
 20
68.908956
 30
0.0
 10
268.334698
 20
68.724582
 30
0.0
 10
268.662887
 20
68.396393
 30
0.0
  0
SPLINE
  5
16f
100
AcDbEntity
  8
open-2
 62
7
100
AcDbSpline
 70
8
 71
3
 72
8
 73
4
 74
0
 40
0
 40
0
 40
0
 40
0
 40
1
 40
1
 40
1
 40
1
 10
268.662887
 20
68.396393
 30
0.0
 10
268.991076
 20
68.068204
 30
0.0
 10
269.175450
 20
67.623085
 30
0.0
 10
269.175450
 20
67.158956
 30
0.0
  0
LWPOLYLINE
  5
170
100
AcDbEntity
  8
open-2
 62
7
100
AcDbPolyline
 90
1
 70
1
 10
10.558761
 20
67.159109
 30
0.0
  0
SPLINE
  5
171
100
AcDbEntity
  8
open-2
 62
7
100
AcDbSpline
 70
8
 71
3
 72
8
 73
4
 74
0
 40
0
 40
0
 40
0
 40
0
 40
1
 40
1
 40
1
 40
1
 10
157.587890
 20
156.091894
 30
0.0
 10
157.587890
 20
155.627766
 30
0.0
 10
157.403516
 20
155.182646
 30
0.0
 10
157.075327
 20
154.854458
 30
0.0
  0
SPLINE
  5
172
100
AcDbEntity
  8
open-2
 62
7
100
AcDbSpline
 70
8
 71
3
 72
8
 73
4
 74
0
 40
0
 40
0
 40
0
 40
0
 40
1
 40
1
 40
1
 40
1
 10
157.075327
 20
154.854458
 30
0.0
 10
156.747138
 20
154.526269
 30
0.0
 10
156.302019
 20
154.341894
 30
0.0
 10
155.837890
 20
154.341894
 30
0.0
  0
SPLINE
  5
173
100
AcDbEntity
  8
open-2
 62
7
100
AcDbSpline
 70
8
 71
3
 72
8
 73
4
 74
0
 40
0
 40
0
 40
0
 40
0
 40
1
 40
1
 40
1
 40
1
 10
155.837890
 20
154.341894
 30
0.0
 10
154.871392
 20
154.341894
 30
0.0
 10
154.087890
 20
155.125396
 30
0.0
 10
154.087890
 20
156.091894
 30
0.0
  0
SPLINE
  5
174
100
AcDbEntity
  8
open-2
 62
7
100
AcDbSpline
 70
8
 71
3
 72
8
 73
4
 74
0
 40
0
 40
0
 40
0
 40
0
 40
1
 40
1
 40
1
 40
1
 10
154.087890
 20
156.091894
 30
0.0
 10
154.087890
 20
156.556023
 30
0.0
 10
154.272264
 20
157.001143
 30
0.0
 10
154.600453
 20
157.329331
 30
0.0
  0
SPLINE
  5
175
100
AcDbEntity
  8
open-2
 62
7
100
AcDbSpline
 70
8
 71
3
 72
8
 73
4
 74
0
 40
0
 40
0
 40
0
 40
0
 40
1
 40
1
 40
1
 40
1
 10
154.600453
 20
157.329331
 30
0.0
 10
154.928642
 20
157.657520
 30
0.0
 10
155.373761
 20
157.841894
 30
0.0
 10
155.837890
 20
157.841894
 30
0.0
  0
SPLINE
  5
176
100
AcDbEntity
  8
open-2
 62
7
100
AcDbSpline
 70
8
 71
3
 72
8
 73
4
 74
0
 40
0
 40
0
 40
0
 40
0
 40
1
 40
1
 40
1
 40
1
 10
155.837890
 20
157.841894
 30
0.0
 10
156.302019
 20
157.841894
 30
0.0
 10
156.747138
 20
157.657520
 30
0.0
 10
157.075327
 20
157.329331
 30
0.0
  0
SPLINE
  5
177
100
AcDbEntity
  8
open-2
 62
7
100
AcDbSpline
 70
8
 71
3
 72
8
 73
4
 74
0
 40
0
 40
0
 40
0
 40
0
 40
1
 40
1
 40
1
 40
1
 10
157.075327
 20
157.329331
 30
0.0
 10
157.403516
 20
157.001143
 30
0.0
 10
157.587890
 20
156.556023
 30
0.0
 10
157.587890
 20
156.091894
 30
0.0
  0
LWPOLYLINE
  5
178
100
AcDbEntity
  8
open-2
 62
7
100
AcDbPolyline
 90
1
 70
1
 10
269.175450
 20
67.158956
 30
0.0
  0
SPLINE
  5
179
100
AcDbEntity
  8
open-2
 62
7
100
AcDbSpline
 70
8
 71
3
 72
8
 73
4
 74
0
 40
0
 40
0
 40
0
 40
0
 40
1
 40
1
 40
1
 40
1
 10
102.350600
 20
45.611350
 30
0.0
 10
102.350600
 20
45.147221
 30
0.0
 10
102.166226
 20
44.702102
 30
0.0
 10
101.838037
 20
44.373913
 30
0.0
  0
SPLINE
  5
17a
100
AcDbEntity
  8
open-2
 62
7
100
AcDbSpline
 70
8
 71
3
 72
8
 73
4
 74
0
 40
0
 40
0
 40
0
 40
0
 40
1
 40
1
 40
1
 40
1
 10
101.838037
 20
44.373913
 30
0.0
 10
101.509848
 20
44.045724
 30
0.0
 10
101.064729
 20
43.861350
 30
0.0
 10
100.600600
 20
43.861350
 30
0.0
  0
SPLINE
  5
17b
100
AcDbEntity
  8
open-2
 62
7
100
AcDbSpline
 70
8
 71
3
 72
8
 73
4
 74
0
 40
0
 40
0
 40
0
 40
0
 40
1
 40
1
 40
1
 40
1
 10
100.600600
 20
43.861350
 30
0.0
 10
99.634102
 20
43.861351
 30
0.0
 10
98.850601
 20
44.644852
 30
0.0
 10
98.850601
 20
45.611350
 30
0.0
  0
SPLINE
  5
17c
100
AcDbEntity
  8
open-2
 62
7
100
AcDbSpline
 70
8
 71
3
 72
8
 73
4
 74
0
 40
0
 40
0
 40
0
 40
0
 40
1
 40
1
 40
1
 40
1
 10
98.850601
 20
45.611350
 30
0.0
 10
98.850601
 20
46.577848
 30
0.0
 10
99.634102
 20
47.361349
 30
0.0
 10
100.600600
 20
47.361350
 30
0.0
  0
SPLINE
  5
17d
100
AcDbEntity
  8
open-2
 62
7
100
AcDbSpline
 70
8
 71
3
 72
8
 73
4
 74
0
 40
0
 40
0
 40
0
 40
0
 40
1
 40
1
 40
1
 40
1
 10
100.600600
 20
47.361350
 30
0.0
 10
101.064729
 20
47.361350
 30
0.0
 10
101.509848
 20
47.176976
 30
0.0
 10
101.838037
 20
46.848787
 30
0.0
  0
SPLINE
  5
17e
100
AcDbEntity
  8
open-2
 62
7
100
AcDbSpline
 70
8
 71
3
 72
8
 73
4
 74
0
 40
0
 40
0
 40
0
 40
0
 40
1
 40
1
 40
1
 40
1
 10
101.838037
 20
46.848787
 30
0.0
 10
102.166226
 20
46.520598
 30
0.0
 10
102.350600
 20
46.075479
 30
0.0
 10
102.350600
 20
45.611350
 30
0.0
  0
LWPOLYLINE
  5
17f
100
AcDbEntity
  8
open-2
 62
7
100
AcDbPolyline
 90
1
 70
1
 10
157.587890
 20
156.091894
 30
0.0
  0
SPLINE
  5
180
100
AcDbEntity
  8
open-2
 62
7
100
AcDbSpline
 70
8
 71
3
 72
8
 73
4
 74
0
 40
0
 40
0
 40
0
 40
0
 40
1
 40
1
 40
1
 40
1
 10
177.588590
 20
45.611350
 30
0.0
 10
177.588590
 20
45.147221
 30
0.0
 10
177.404216
 20
44.702102
 30
0.0
 10
177.076027
 20
44.373913
 30
0.0
  0
SPLINE
  5
181
100
AcDbEntity
  8
open-2
 62
7
100
AcDbSpline
 70
8
 71
3
 72
8
 73
4
 74
0
 40
0
 40
0
 40
0
 40
0
 40
1
 40
1
 40
1
 40
1
 10
177.076027
 20
44.373913
 30
0.0
 10
176.747838
 20
44.045724
 30
0.0
 10
176.302719
 20
43.861350
 30
0.0
 10
175.838590
 20
43.861350
 30
0.0
  0
SPLINE
  5
182
100
AcDbEntity
  8
open-2
 62
7
100
AcDbSpline
 70
8
 71
3
 72
8
 73
4
 74
0
 40
0
 40
0
 40
0
 40
0
 40
1
 40
1
 40
1
 40
1
 10
175.838590
 20
43.861350
 30
0.0
 10
175.374461
 20
43.861350
 30
0.0
 10
174.929342
 20
44.045724
 30
0.0
 10
174.601153
 20
44.373913
 30
0.0
  0
SPLINE
  5
183
100
AcDbEntity
  8
open-2
 62
7
100
AcDbSpline
 70
8
 71
3
 72
8
 73
4
 74
0
 40
0
 40
0
 40
0
 40
0
 40
1
 40
1
 40
1
 40
1
 10
174.601153
 20
44.373913
 30
0.0
 10
174.272964
 20
44.702102
 30
0.0
 10
174.088590
 20
45.147221
 30
0.0
 10
174.088590
 20
45.611350
 30
0.0
  0
SPLINE
  5
184
100
AcDbEntity
  8
open-2
 62
7
100
AcDbSpline
 70
8
 71
3
 72
8
 73
4
 74
0
 40
0
 40
0
 40
0
 40
0
 40
1
 40
1
 40
1
 40
1
 10
174.088590
 20
45.611350
 30
0.0
 10
174.088590
 20
46.075479
 30
0.0
 10
174.272964
 20
46.520598
 30
0.0
 10
174.601153
 20
46.848787
 30
0.0
  0
SPLINE
  5
185
100
AcDbEntity
  8
open-2
 62
7
100
AcDbSpline
 70
8
 71
3
 72
8
 73
4
 74
0
 40
0
 40
0
 40
0
 40
0
 40
1
 40
1
 40
1
 40
1
 10
174.601153
 20
46.848787
 30
0.0
 10
174.929342
 20
47.176976
 30
0.0
 10
175.374461
 20
47.361350
 30
0.0
 10
175.838590
 20
47.361350
 30
0.0
  0
SPLINE
  5
186
100
AcDbEntity
  8
open-2
 62
7
100
AcDbSpline
 70
8
 71
3
 72
8
 73
4
 74
0
 40
0
 40
0
 40
0
 40
0
 40
1
 40
1
 40
1
 40
1
 10
175.838590
 20
47.361350
 30
0.0
 10
176.302719
 20
47.361350
 30
0.0
 10
176.747838
 20
47.176976
 30
0.0
 10
177.076027
 20
46.848787
 30
0.0
  0
SPLINE
  5
187
100
AcDbEntity
  8
open-2
 62
7
100
AcDbSpline
 70
8
 71
3
 72
8
 73
4
 74
0
 40
0
 40
0
 40
0
 40
0
 40
1
 40
1
 40
1
 40
1
 10
177.076027
 20
46.848787
 30
0.0
 10
177.404216
 20
46.520598
 30
0.0
 10
177.588590
 20
46.075479
 30
0.0
 10
177.588590
 20
45.611350
 30
0.0
  0
LWPOLYLINE
  5
188
100
AcDbEntity
  8
open-2
 62
7
100
AcDbPolyline
 90
1
 70
1
 10
102.350600
 20
45.611350
 30
0.0
  0
SPLINE
  5
189
100
AcDbEntity
  8
open-2
 62
7
100
AcDbSpline
 70
8
 71
3
 72
8
 73
4
 74
0
 40
0
 40
0
 40
0
 40
0
 40
1
 40
1
 40
1
 40
1
 10
128.116550
 20
151.162616
 30
0.0
 10
148.116370
 20
151.162616
 30
0.0
 10
148.116370
 20
151.162616
 30
0.0
 10
148.116370
 20
151.162616
 30
0.0
  0
LWPOLYLINE
  5
18a
100
AcDbEntity
  8
open-2
 62
7
100
AcDbPolyline
 90
1
 70
1
 10
177.588590
 20
45.611350
 30
0.0
  0
ENDSEC
  0
SECTION
  2
OBJECTS
  0
DICTIONARY
  5
C
330
0
100
AcDbDictionary
  3
ACAD_GROUP
350
D
  3
ACAD_MLINESTYLE
350
17
  0
DICTIONARY
  5
D
330
C
100
AcDbDictionary
  0
DICTIONARY
  5
1A
330
C
100
AcDbDictionary
  0
DICTIONARY
  5
17
330
C
100
AcDbDictionary
  3
STANDARD
350
18
  0
DICTIONARY
  5
19
330
C
100
AcDbDictionary
  0
ENDSEC
  0
EOF
