  0
SECTION
  2
HEADER
  9
$ACADVER
  1
AC1014
  9
$HANDSEED
  5
FFFF
  9
$MEASUREMENT
 70
     1
  0
ENDSEC
  0
SECTION
  2
TABLES
  0
TABLE
  2
VPORT
  5
8
330
0
100
AcDbSymbolTable
 70
     4
  0
VPORT
  5
2E
330
8
100
AcDbSymbolTableRecord
100
AcDbViewportTableRecord
  2
*ACTIVE
 70
     0
 10
0.0
 20
0.0
 11
1.0
 21
1.0
 12
210.0
 22
148.5
 13
0.0
 23
0.0
 14
10.0
 24
10.0
 15
10.0
 25
10.0
 16
0.0
 26
0.0
 36
1.0
 17
0.0
 27
0.0
 37
0.0
 40
341.0
 41
1.24
 42
50.0
 43
0.0
 44
0.0
 50
0.0
 51
0.0
 71
     0
 72
   100
 73
     1
 74
     3
 75
     0
 76
     0
 77
     0
 78
     0
  0
ENDTAB
  0
TABLE
  2
LTYPE
  5
5
330
0
100
AcDbSymbolTable
 70
     1
  0
LTYPE
  5
14
330
5
100
AcDbSymbolTableRecord
100
AcDbLinetypeTableRecord
  2
BYBLOCK
 70
     0
  3

 72
    65
 73
     0
 40
0.0
  0
LTYPE
  5
15
330
5
100
AcDbSymbolTableRecord
100
AcDbLinetypeTableRecord
  2
BYLAYER
 70
     0
  3

 72
    65
 73
     0
 40
0.0
  0
LTYPE
  5
16
330
5
100
AcDbSymbolTableRecord
100
AcDbLinetypeTableRecord
  2
CONTINUOUS
 70
     0
  3
Solid line
 72
    65
 73
     0
 40
0.0
  0
ENDTAB
  0
TABLE
  2
LAYER
  5
2
100
AcDbSymbolTable
 70
2
  0
LAYER
  5
50
100
AcDbSymbolTableRecord
100
AcDbLayerTableRecord
  2
0
 70
0
  6
CONTINUOUS
  0
LAYER
  5
51
100
AcDbSymbolTableRecord
100
AcDbLayerTableRecord
  2
open-1
 70
0
  6
CONTINUOUS
  0
ENDTAB
  0
TABLE
  2
STYLE
  5
3
330
0
100
AcDbSymbolTable
 70
     1
  0
STYLE
  5
11
330
3
100
AcDbSymbolTableRecord
100
AcDbTextStyleTableRecord
  2
STANDARD
 70
     0
 40
0.0
 41
1.0
 50
0.0
 71
     0
 42
2.5
  3
txt
  4

  0
ENDTAB
  0
TABLE
  2
VIEW
  5
6
330
0
100
AcDbSymbolTable
 70
     0
  0
ENDTAB
  0
TABLE
  2
UCS
  5
7
330
0
100
AcDbSymbolTable
 70
     0
  0
ENDTAB
  0
TABLE
  2
APPID
  5
9
330
0
100
AcDbSymbolTable
 70
     2
  0
APPID
  5
12
330
9
100
AcDbSymbolTableRecord
100
AcDbRegAppTableRecord
  2
ACAD
 70
     0
  0
ENDTAB
  0
TABLE
  2
DIMSTYLE
  5
A
330
0
100
AcDbSymbolTable
 70
     1
  0
DIMSTYLE
105
27
330
A
100
AcDbSymbolTableRecord
100
AcDbDimStyleTableRecord
  2
ISO-25
 70
     0
  3

  4

  5

  6

  7

 40
1.0
 41
2.5
 42
0.625
 43
3.75
 44
1.25
 45
0.0
 46
0.0
 47
0.0
 48
0.0
140
2.5
141
2.5
142
0.0
143
0.03937007874016
144
1.0
145
0.0
146
1.0
147
0.625
 71
     0
 72
     0
 73
     0
 74
     0
 75
     0
 76
     0
 77
     1
 78
     8
170
     0
171
     3
172
     1
173
     0
174
     0
175
     0
176
     0
177
     0
178
     0
270
     2
271
     2
272
     2
273
     2
274
     3
340
11
275
     0
280
     0
281
     0
282
     0
283
     0
284
     8
285
     0
286
     0
287
     3
288
     0
  0
ENDTAB
  0
TABLE
  2
BLOCK_RECORD
  5
1
330
0
100
AcDbSymbolTable
 70
     1
  0
BLOCK_RECORD
  5
1F
330
1
100
AcDbSymbolTableRecord
100
AcDbBlockTableRecord
  2
*MODEL_SPACE
  0
BLOCK_RECORD
  5
1B
330
1
100
AcDbSymbolTableRecord
100
AcDbBlockTableRecord
  2
*PAPER_SPACE
  0
ENDTAB
  0
ENDSEC
  0
SECTION
  2
BLOCKS
  0
BLOCK
  5
20
330
1F
100
AcDbEntity
  8
0
100
AcDbBlockBegin
  2
*MODEL_SPACE
 70
     0
 10
0.0
 20
0.0
 30
0.0
  3
*MODEL_SPACE
  1

  0
ENDBLK
  5
21
330
1F
100
AcDbEntity
  8
0
100
AcDbBlockEnd
  0
BLOCK
  5
1C
330
1B
100
AcDbEntity
 67
     1
  8
0
100
AcDbBlockBegin
  2
*PAPER_SPACE
  1

  0
ENDBLK
  5
1D
330
1B
100
AcDbEntity
 67
     1
  8
0
100
AcDbBlockEnd
  0
ENDSEC
  0
SECTION
  2
ENTITIES
  0
SPLINE
  5
100
100
AcDbEntity
  8
open-1
 62
7
100
AcDbSpline
 70
8
 71
3
 72
8
 73
4
 74
0
 40
0
 40
0
 40
0
 40
0
 40
1
 40
1
 40
1
 40
1
 10
0.265521
 20
143.713090
 30
0.0
 10
0.265891
 20
143.715790
 30
0.0
 10
0.265148
 20
143.718290
 30
0.0
 10
0.265521
 20
143.720890
 30
0.0
  0
SPLINE
  5
101
100
AcDbEntity
  8
open-1
 62
7
100
AcDbSpline
 70
8
 71
3
 72
8
 73
4
 74
0
 40
0
 40
0
 40
0
 40
0
 40
1
 40
1
 40
1
 40
1
 10
0.261611
 20
143.697450
 30
0.0
 10
0.262296
 20
143.702750
 30
0.0
 10
0.264831
 20
143.707740
 30
0.0
 10
0.265521
 20
143.713080
 30
0.0
  0
LWPOLYLINE
  5
102
100
AcDbEntity
  8
open-1
 62
7
100
AcDbPolyline
 90
2
 70
0
 10
0.265521
 20
143.720890
 30
0.0
 10
0.261611
 20
143.697450
 30
0.0
  0
SPLINE
  5
103
100
AcDbEntity
  8
open-1
 62
7
100
AcDbSpline
 70
8
 71
3
 72
8
 73
4
 74
0
 40
0
 40
0
 40
0
 40
0
 40
1
 40
1
 40
1
 40
1
 10
3.208880
 20
64.466998
 30
0.0
 10
3.201300
 20
64.477898
 30
0.0
 10
3.192973
 20
64.481418
 30
0.0
 10
3.185443
 20
64.492398
 30
0.0
  0
LWPOLYLINE
  5
104
100
AcDbEntity
  8
open-1
 62
7
100
AcDbPolyline
 90
2
 70
1
 10
0.265521
 20
143.713080
 30
0.0
 10
0.265521
 20
143.713090
 30
0.0
  0
SPLINE
  5
105
100
AcDbEntity
  8
open-1
 62
7
100
AcDbSpline
 70
8
 71
3
 72
8
 73
4
 74
0
 40
0
 40
0
 40
0
 40
0
 40
1
 40
1
 40
1
 40
1
 10
3.216693
 20
64.449428
 30
0.0
 10
3.212903
 20
64.454628
 30
0.0
 10
3.212663
 20
64.461788
 30
0.0
 10
3.208883
 20
64.466998
 30
0.0
  0
LWPOLYLINE
  5
106
100
AcDbEntity
  8
open-1
 62
7
100
AcDbPolyline
 90
2
 70
0
 10
3.185443
 20
64.492398
 30
0.0
 10
3.216693
 20
64.449428
 30
0.0
  0
LWPOLYLINE
  5
107
100
AcDbEntity
  8
open-1
 62
7
100
AcDbPolyline
 90
2
 70
1
 10
3.208883
 20
64.466998
 30
0.0
 10
3.208880
 20
64.466998
 30
0.0
  0
SPLINE
  5
108
100
AcDbEntity
  8
open-1
 62
7
100
AcDbSpline
 70
8
 71
3
 72
8
 73
4
 74
0
 40
0
 40
0
 40
0
 40
0
 40
1
 40
1
 40
1
 40
1
 10
277.388700
 20
69.334190
 30
0.0
 10
277.388700
 20
69.330490
 30
0.0
 10
277.383700
 20
69.328090
 30
0.0
 10
277.382700
 20
69.324390
 30
0.0
  0
LWPOLYLINE
  5
109
100
AcDbEntity
  8
open-1
 62
7
100
AcDbPolyline
 90
3
 70
0
 10
277.382700
 20
69.324420
 30
0.0
 10
277.382700
 20
69.316620
 30
0.0
 10
277.388700
 20
69.334190
 30
0.0
  0
SPLINE
  5
10a
100
AcDbEntity
  8
open-1
 62
7
100
AcDbSpline
 70
8
 71
3
 72
8
 73
4
 74
0
 40
0
 40
0
 40
0
 40
0
 40
1
 40
1
 40
1
 40
1
 10
123.349950
 20
155.092921
 30
0.0
 10
123.349950
 20
154.628792
 30
0.0
 10
123.165576
 20
154.183673
 30
0.0
 10
122.837387
 20
153.855484
 30
0.0
  0
SPLINE
  5
10b
100
AcDbEntity
  8
open-1
 62
7
100
AcDbSpline
 70
8
 71
3
 72
8
 73
4
 74
0
 40
0
 40
0
 40
0
 40
0
 40
1
 40
1
 40
1
 40
1
 10
122.837387
 20
153.855484
 30
0.0
 10
122.509198
 20
153.527295
 30
0.0
 10
122.064079
 20
153.342921
 30
0.0
 10
121.599950
 20
153.342921
 30
0.0
  0
SPLINE
  5
10c
100
AcDbEntity
  8
open-1
 62
7
100
AcDbSpline
 70
8
 71
3
 72
8
 73
4
 74
0
 40
0
 40
0
 40
0
 40
0
 40
1
 40
1
 40
1
 40
1
 10
121.599950
 20
153.342921
 30
0.0
 10
121.135821
 20
153.342921
 30
0.0
 10
120.690702
 20
153.527295
 30
0.0
 10
120.362513
 20
153.855484
 30
0.0
  0
SPLINE
  5
10d
100
AcDbEntity
  8
open-1
 62
7
100
AcDbSpline
 70
8
 71
3
 72
8
 73
4
 74
0
 40
0
 40
0
 40
0
 40
0
 40
1
 40
1
 40
1
 40
1
 10
120.362513
 20
153.855484
 30
0.0
 10
120.034324
 20
154.183673
 30
0.0
 10
119.849950
 20
154.628792
 30
0.0
 10
119.849950
 20
155.092921
 30
0.0
  0
SPLINE
  5
10e
100
AcDbEntity
  8
open-1
 62
7
100
AcDbSpline
 70
8
 71
3
 72
8
 73
4
 74
0
 40
0
 40
0
 40
0
 40
0
 40
1
 40
1
 40
1
 40
1
 10
119.849950
 20
155.092921
 30
0.0
 10
119.849950
 20
155.557050
 30
0.0
 10
120.034324
 20
156.002169
 30
0.0
 10
120.362513
 20
156.330358
 30
0.0
  0
SPLINE
  5
10f
100
AcDbEntity
  8
open-1
 62
7
100
AcDbSpline
 70
8
 71
3
 72
8
 73
4
 74
0
 40
0
 40
0
 40
0
 40
0
 40
1
 40
1
 40
1
 40
1
 10
120.362513
 20
156.330358
 30
0.0
 10
120.690702
 20
156.658547
 30
0.0
 10
121.135821
 20
156.842921
 30
0.0
 10
121.599950
 20
156.842921
 30
0.0
  0
SPLINE
  5
110
100
AcDbEntity
  8
open-1
 62
7
100
AcDbSpline
 70
8
 71
3
 72
8
 73
4
 74
0
 40
0
 40
0
 40
0
 40
0
 40
1
 40
1
 40
1
 40
1
 10
121.599950
 20
156.842921
 30
0.0
 10
122.064079
 20
156.842921
 30
0.0
 10
122.509198
 20
156.658547
 30
0.0
 10
122.837387
 20
156.330358
 30
0.0
  0
SPLINE
  5
111
100
AcDbEntity
  8
open-1
 62
7
100
AcDbSpline
 70
8
 71
3
 72
8
 73
4
 74
0
 40
0
 40
0
 40
0
 40
0
 40
1
 40
1
 40
1
 40
1
 10
122.837387
 20
156.330358
 30
0.0
 10
123.165576
 20
156.002169
 30
0.0
 10
123.349950
 20
155.557050
 30
0.0
 10
123.349950
 20
155.092921
 30
0.0
  0
LWPOLYLINE
  5
112
100
AcDbEntity
  8
open-1
 62
7
100
AcDbPolyline
 90
2
 70
1
 10
277.382700
 20
69.324390
 30
0.0
 10
277.382700
 20
69.324411
 30
0.0
  0
SPLINE
  5
113
100
AcDbEntity
  8
open-1
 62
7
100
AcDbSpline
 70
8
 71
3
 72
8
 73
4
 74
0
 40
0
 40
0
 40
0
 40
0
 40
1
 40
1
 40
1
 40
1
 10
6.625516
 20
113.171873
 30
0.0
 10
6.625516
 20
112.707744
 30
0.0
 10
6.441141
 20
112.262625
 30
0.0
 10
6.112953
 20
111.934436
 30
0.0
  0
SPLINE
  5
114
100
AcDbEntity
  8
open-1
 62
7
100
AcDbSpline
 70
8
 71
3
 72
8
 73
4
 74
0
 40
0
 40
0
 40
0
 40
0
 40
1
 40
1
 40
1
 40
1
 10
6.112953
 20
111.934436
 30
0.0
 10
5.784764
 20
111.606247
 30
0.0
 10
5.339645
 20
111.421873
 30
0.0
 10
4.875516
 20
111.421873
 30
0.0
  0
SPLINE
  5
115
100
AcDbEntity
  8
open-1
 62
7
100
AcDbSpline
 70
8
 71
3
 72
8
 73
4
 74
0
 40
0
 40
0
 40
0
 40
0
 40
1
 40
1
 40
1
 40
1
 10
4.875516
 20
111.421873
 30
0.0
 10
4.411387
 20
111.421873
 30
0.0
 10
3.966268
 20
111.606247
 30
0.0
 10
3.638079
 20
111.934436
 30
0.0
  0
SPLINE
  5
116
100
AcDbEntity
  8
open-1
 62
7
100
AcDbSpline
 70
8
 71
3
 72
8
 73
4
 74
0
 40
0
 40
0
 40
0
 40
0
 40
1
 40
1
 40
1
 40
1
 10
3.638079
 20
111.934436
 30
0.0
 10
3.309890
 20
112.262625
 30
0.0
 10
3.125516
 20
112.707744
 30
0.0
 10
3.125516
 20
113.171873
 30
0.0
  0
SPLINE
  5
117
100
AcDbEntity
  8
open-1
 62
7
100
AcDbSpline
 70
8
 71
3
 72
8
 73
4
 74
0
 40
0
 40
0
 40
0
 40
0
 40
1
 40
1
 40
1
 40
1
 10
3.125516
 20
113.171873
 30
0.0
 10
3.125516
 20
113.636002
 30
0.0
 10
3.309890
 20
114.081121
 30
0.0
 10
3.638079
 20
114.409310
 30
0.0
  0
SPLINE
  5
118
100
AcDbEntity
  8
open-1
 62
7
100
AcDbSpline
 70
8
 71
3
 72
8
 73
4
 74
0
 40
0
 40
0
 40
0
 40
0
 40
1
 40
1
 40
1
 40
1
 10
3.638079
 20
114.409310
 30
0.0
 10
3.966268
 20
114.737499
 30
0.0
 10
4.411387
 20
114.921873
 30
0.0
 10
4.875516
 20
114.921873
 30
0.0
  0
SPLINE
  5
119
100
AcDbEntity
  8
open-1
 62
7
100
AcDbSpline
 70
8
 71
3
 72
8
 73
4
 74
0
 40
0
 40
0
 40
0
 40
0
 40
1
 40
1
 40
1
 40
1
 10
4.875516
 20
114.921873
 30
0.0
 10
5.339645
 20
114.921873
 30
0.0
 10
5.784764
 20
114.737499
 30
0.0
 10
6.112953
 20
114.409310
 30
0.0
  0
SPLINE
  5
11a
100
AcDbEntity
  8
open-1
 62
7
100
AcDbSpline
 70
8
 71
3
 72
8
 73
4
 74
0
 40
0
 40
0
 40
0
 40
0
 40
1
 40
1
 40
1
 40
1
 10
6.112953
 20
114.409310
 30
0.0
 10
6.441141
 20
114.081121
 30
0.0
 10
6.625516
 20
113.636002
 30
0.0
 10
6.625516
 20
113.171873
 30
0.0
  0
LWPOLYLINE
  5
11b
100
AcDbEntity
  8
open-1
 62
7
100
AcDbPolyline
 90
1
 70
1
 10
123.349950
 20
155.092921
 30
0.0
  0
SPLINE
  5
11c
100
AcDbEntity
  8
open-1
 62
7
100
AcDbSpline
 70
8
 71
3
 72
8
 73
4
 74
0
 40
0
 40
0
 40
0
 40
0
 40
1
 40
1
 40
1
 40
1
 10
275.067200
 20
113.171873
 30
0.0
 10
275.067200
 20
112.707744
 30
0.0
 10
274.882826
 20
112.262625
 30
0.0
 10
274.554637
 20
111.934436
 30
0.0
  0
SPLINE
  5
11d
100
AcDbEntity
  8
open-1
 62
7
100
AcDbSpline
 70
8
 71
3
 72
8
 73
4
 74
0
 40
0
 40
0
 40
0
 40
0
 40
1
 40
1
 40
1
 40
1
 10
274.554637
 20
111.934436
 30
0.0
 10
274.226448
 20
111.606247
 30
0.0
 10
273.781329
 20
111.421873
 30
0.0
 10
273.317200
 20
111.421873
 30
0.0
  0
SPLINE
  5
11e
100
AcDbEntity
  8
open-1
 62
7
100
AcDbSpline
 70
8
 71
3
 72
8
 73
4
 74
0
 40
0
 40
0
 40
0
 40
0
 40
1
 40
1
 40
1
 40
1
 10
273.317200
 20
111.421873
 30
0.0
 10
272.350702
 20
111.421873
 30
0.0
 10
271.567200
 20
112.205375
 30
0.0
 10
271.567200
 20
113.171873
 30
0.0
  0
SPLINE
  5
11f
100
AcDbEntity
  8
open-1
 62
7
100
AcDbSpline
 70
8
 71
3
 72
8
 73
4
 74
0
 40
0
 40
0
 40
0
 40
0
 40
1
 40
1
 40
1
 40
1
 10
271.567200
 20
113.171873
 30
0.0
 10
271.567200
 20
113.636002
 30
0.0
 10
271.751574
 20
114.081121
 30
0.0
 10
272.079763
 20
114.409310
 30
0.0
  0
SPLINE
  5
120
100
AcDbEntity
  8
open-1
 62
7
100
AcDbSpline
 70
8
 71
3
 72
8
 73
4
 74
0
 40
0
 40
0
 40
0
 40
0
 40
1
 40
1
 40
1
 40
1
 10
272.079763
 20
114.409310
 30
0.0
 10
272.407952
 20
114.737499
 30
0.0
 10
272.853071
 20
114.921873
 30
0.0
 10
273.317200
 20
114.921873
 30
0.0
  0
SPLINE
  5
121
100
AcDbEntity
  8
open-1
 62
7
100
AcDbSpline
 70
8
 71
3
 72
8
 73
4
 74
0
 40
0
 40
0
 40
0
 40
0
 40
1
 40
1
 40
1
 40
1
 10
273.317200
 20
114.921873
 30
0.0
 10
273.781329
 20
114.921873
 30
0.0
 10
274.226448
 20
114.737499
 30
0.0
 10
274.554637
 20
114.409310
 30
0.0
  0
SPLINE
  5
122
100
AcDbEntity
  8
open-1
 62
7
100
AcDbSpline
 70
8
 71
3
 72
8
 73
4
 74
0
 40
0
 40
0
 40
0
 40
0
 40
1
 40
1
 40
1
 40
1
 10
274.554637
 20
114.409310
 30
0.0
 10
274.882826
 20
114.081121
 30
0.0
 10
275.067200
 20
113.636002
 30
0.0
 10
275.067200
 20
113.171873
 30
0.0
  0
LWPOLYLINE
  5
123
100
AcDbEntity
  8
open-1
 62
7
100
AcDbPolyline
 90
1
 70
1
 10
6.625516
 20
113.171873
 30
0.0
  0
SPLINE
  5
124
100
AcDbEntity
  8
open-1
 62
7
100
AcDbSpline
 70
8
 71
3
 72
8
 73
4
 74
0
 40
0
 40
0
 40
0
 40
0
 40
1
 40
1
 40
1
 40
1
 10
11.558291
 20
150.459589
 30
0.0
 10
11.558291
 20
149.493091
 30
0.0
 10
10.774789
 20
148.709589
 30
0.0
 10
9.808291
 20
148.709589
 30
0.0
  0
SPLINE
  5
125
100
AcDbEntity
  8
open-1
 62
7
100
AcDbSpline
 70
8
 71
3
 72
8
 73
4
 74
0
 40
0
 40
0
 40
0
 40
0
 40
1
 40
1
 40
1
 40
1
 10
9.808291
 20
148.709589
 30
0.0
 10
8.841793
 20
148.709589
 30
0.0
 10
8.058292
 20
149.493091
 30
0.0
 10
8.058291
 20
150.459589
 30
0.0
  0
SPLINE
  5
126
100
AcDbEntity
  8
open-1
 62
7
100
AcDbSpline
 70
8
 71
3
 72
8
 73
4
 74
0
 40
0
 40
0
 40
0
 40
0
 40
1
 40
1
 40
1
 40
1
 10
8.058291
 20
150.459589
 30
0.0
 10
8.058291
 20
151.426087
 30
0.0
 10
8.841793
 20
152.209589
 30
0.0
 10
9.808291
 20
152.209589
 30
0.0
  0
SPLINE
  5
127
100
AcDbEntity
  8
open-1
 62
7
100
AcDbSpline
 70
8
 71
3
 72
8
 73
4
 74
0
 40
0
 40
0
 40
0
 40
0
 40
1
 40
1
 40
1
 40
1
 10
9.808291
 20
152.209589
 30
0.0
 10
10.774790
 20
152.209589
 30
0.0
 10
11.558291
 20
151.426087
 30
0.0
 10
11.558291
 20
150.459589
 30
0.0
  0
LWPOLYLINE
  5
128
100
AcDbEntity
  8
open-1
 62
7
100
AcDbPolyline
 90
1
 70
1
 10
275.067200
 20
113.171873
 30
0.0
  0
SPLINE
  5
129
100
AcDbEntity
  8
open-1
 62
7
100
AcDbSpline
 70
8
 71
3
 72
8
 73
4
 74
0
 40
0
 40
0
 40
0
 40
0
 40
1
 40
1
 40
1
 40
1
 10
270.174990
 20
150.459360
 30
0.0
 10
270.174990
 20
149.492862
 30
0.0
 10
269.391488
 20
148.709360
 30
0.0
 10
268.424990
 20
148.709360
 30
0.0
  0
SPLINE
  5
12a
100
AcDbEntity
  8
open-1
 62
7
100
AcDbSpline
 70
8
 71
3
 72
8
 73
4
 74
0
 40
0
 40
0
 40
0
 40
0
 40
1
 40
1
 40
1
 40
1
 10
268.424990
 20
148.709360
 30
0.0
 10
267.458492
 20
148.709360
 30
0.0
 10
266.674990
 20
149.492862
 30
0.0
 10
266.674990
 20
150.459360
 30
0.0
  0
SPLINE
  5
12b
100
AcDbEntity
  8
open-1
 62
7
100
AcDbSpline
 70
8
 71
3
 72
8
 73
4
 74
0
 40
0
 40
0
 40
0
 40
0
 40
1
 40
1
 40
1
 40
1
 10
266.674990
 20
150.459360
 30
0.0
 10
266.674990
 20
150.923489
 30
0.0
 10
266.859364
 20
151.368608
 30
0.0
 10
267.187553
 20
151.696797
 30
0.0
  0
SPLINE
  5
12c
100
AcDbEntity
  8
open-1
 62
7
100
AcDbSpline
 70
8
 71
3
 72
8
 73
4
 74
0
 40
0
 40
0
 40
0
 40
0
 40
1
 40
1
 40
1
 40
1
 10
267.187553
 20
151.696797
 30
0.0
 10
267.515742
 20
152.024985
 30
0.0
 10
267.960861
 20
152.209360
 30
0.0
 10
268.424990
 20
152.209360
 30
0.0
  0
SPLINE
  5
12d
100
AcDbEntity
  8
open-1
 62
7
100
AcDbSpline
 70
8
 71
3
 72
8
 73
4
 74
0
 40
0
 40
0
 40
0
 40
0
 40
1
 40
1
 40
1
 40
1
 10
268.424990
 20
152.209360
 30
0.0
 10
268.889119
 20
152.209360
 30
0.0
 10
269.334238
 20
152.024985
 30
0.0
 10
269.662427
 20
151.696797
 30
0.0
  0
SPLINE
  5
12e
100
AcDbEntity
  8
open-1
 62
7
100
AcDbSpline
 70
8
 71
3
 72
8
 73
4
 74
0
 40
0
 40
0
 40
0
 40
0
 40
1
 40
1
 40
1
 40
1
 10
269.662427
 20
151.696797
 30
0.0
 10
269.990616
 20
151.368608
 30
0.0
 10
270.174990
 20
150.923489
 30
0.0
 10
270.174990
 20
150.459360
 30
0.0
  0
LWPOLYLINE
  5
12f
100
AcDbEntity
  8
open-1
 62
7
100
AcDbPolyline
 90
1
 70
1
 10
11.558291
 20
150.459589
 30
0.0
  0
SPLINE
  5
130
100
AcDbEntity
  8
open-1
 62
7
100
AcDbSpline
 70
8
 71
3
 72
8
 73
4
 74
0
 40
0
 40
0
 40
0
 40
0
 40
1
 40
1
 40
1
 40
1
 10
11.558513
 20
66.160139
 30
0.0
 10
11.558513
 20
65.696010
 30
0.0
 10
11.374138
 20
65.250891
 30
0.0
 10
11.045950
 20
64.922702
 30
0.0
  0
SPLINE
  5
131
100
AcDbEntity
  8
open-1
 62
7
100
AcDbSpline
 70
8
 71
3
 72
8
 73
4
 74
0
 40
0
 40
0
 40
0
 40
0
 40
1
 40
1
 40
1
 40
1
 10
11.045950
 20
64.922702
 30
0.0
 10
10.717761
 20
64.594513
 30
0.0
 10
10.272642
 20
64.410139
 30
0.0
 10
9.808513
 20
64.410139
 30
0.0
  0
SPLINE
  5
132
100
AcDbEntity
  8
open-1
 62
7
100
AcDbSpline
 70
8
 71
3
 72
8
 73
4
 74
0
 40
0
 40
0
 40
0
 40
0
 40
1
 40
1
 40
1
 40
1
 10
9.808513
 20
64.410139
 30
0.0
 10
9.344384
 20
64.410139
 30
0.0
 10
8.899264
 20
64.594513
 30
0.0
 10
8.571076
 20
64.922702
 30
0.0
  0
SPLINE
  5
133
100
AcDbEntity
  8
open-1
 62
7
100
AcDbSpline
 70
8
 71
3
 72
8
 73
4
 74
0
 40
0
 40
0
 40
0
 40
0
 40
1
 40
1
 40
1
 40
1
 10
8.571076
 20
64.922702
 30
0.0
 10
8.242887
 20
65.250891
 30
0.0
 10
8.058513
 20
65.696010
 30
0.0
 10
8.058513
 20
66.160139
 30
0.0
  0
SPLINE
  5
134
100
AcDbEntity
  8
open-1
 62
7
100
AcDbSpline
 70
8
 71
3
 72
8
 73
4
 74
0
 40
0
 40
0
 40
0
 40
0
 40
1
 40
1
 40
1
 40
1
 10
8.058513
 20
66.160139
 30
0.0
 10
8.058513
 20
66.624268
 30
0.0
 10
8.242887
 20
67.069387
 30
0.0
 10
8.571076
 20
67.397576
 30
0.0
  0
SPLINE
  5
135
100
AcDbEntity
  8
open-1
 62
7
100
AcDbSpline
 70
8
 71
3
 72
8
 73
4
 74
0
 40
0
 40
0
 40
0
 40
0
 40
1
 40
1
 40
1
 40
1
 10
8.571076
 20
67.397576
 30
0.0
 10
8.899264
 20
67.725765
 30
0.0
 10
9.344384
 20
67.910139
 30
0.0
 10
9.808513
 20
67.910139
 30
0.0
  0
SPLINE
  5
136
100
AcDbEntity
  8
open-1
 62
7
100
AcDbSpline
 70
8
 71
3
 72
8
 73
4
 74
0
 40
0
 40
0
 40
0
 40
0
 40
1
 40
1
 40
1
 40
1
 10
9.808513
 20
67.910139
 30
0.0
 10
10.272642
 20
67.910139
 30
0.0
 10
10.717761
 20
67.725765
 30
0.0
 10
11.045950
 20
67.397576
 30
0.0
  0
SPLINE
  5
137
100
AcDbEntity
  8
open-1
 62
7
100
AcDbSpline
 70
8
 71
3
 72
8
 73
4
 74
0
 40
0
 40
0
 40
0
 40
0
 40
1
 40
1
 40
1
 40
1
 10
11.045950
 20
67.397576
 30
0.0
 10
11.374138
 20
67.069387
 30
0.0
 10
11.558513
 20
66.624268
 30
0.0
 10
11.558513
 20
66.160139
 30
0.0
  0
LWPOLYLINE
  5
138
100
AcDbEntity
  8
open-1
 62
7
100
AcDbPolyline
 90
1
 70
1
 10
270.174990
 20
150.459360
 30
0.0
  0
SPLINE
  5
139
100
AcDbEntity
  8
open-1
 62
7
100
AcDbSpline
 70
8
 71
3
 72
8
 73
4
 74
0
 40
0
 40
0
 40
0
 40
0
 40
1
 40
1
 40
1
 40
1
 10
270.175200
 20
66.159986
 30
0.0
 10
270.175200
 20
65.695857
 30
0.0
 10
269.990826
 20
65.250738
 30
0.0
 10
269.662637
 20
64.922549
 30
0.0
  0
SPLINE
  5
13a
100
AcDbEntity
  8
open-1
 62
7
100
AcDbSpline
 70
8
 71
3
 72
8
 73
4
 74
0
 40
0
 40
0
 40
0
 40
0
 40
1
 40
1
 40
1
 40
1
 10
269.662637
 20
64.922549
 30
0.0
 10
269.334448
 20
64.594360
 30
0.0
 10
268.889329
 20
64.409986
 30
0.0
 10
268.425200
 20
64.409986
 30
0.0
  0
SPLINE
  5
13b
100
AcDbEntity
  8
open-1
 62
7
100
AcDbSpline
 70
8
 71
3
 72
8
 73
4
 74
0
 40
0
 40
0
 40
0
 40
0
 40
1
 40
1
 40
1
 40
1
 10
268.425200
 20
64.409986
 30
0.0
 10
267.458702
 20
64.409986
 30
0.0
 10
266.675200
 20
65.193488
 30
0.0
 10
266.675200
 20
66.159986
 30
0.0
  0
SPLINE
  5
13c
100
AcDbEntity
  8
open-1
 62
7
100
AcDbSpline
 70
8
 71
3
 72
8
 73
4
 74
0
 40
0
 40
0
 40
0
 40
0
 40
1
 40
1
 40
1
 40
1
 10
266.675200
 20
66.159986
 30
0.0
 10
266.675200
 20
66.624115
 30
0.0
 10
266.859574
 20
67.069234
 30
0.0
 10
267.187763
 20
67.397423
 30
0.0
  0
SPLINE
  5
13d
100
AcDbEntity
  8
open-1
 62
7
100
AcDbSpline
 70
8
 71
3
 72
8
 73
4
 74
0
 40
0
 40
0
 40
0
 40
0
 40
1
 40
1
 40
1
 40
1
 10
267.187763
 20
67.397423
 30
0.0
 10
267.515952
 20
67.725612
 30
0.0
 10
267.961071
 20
67.909986
 30
0.0
 10
268.425200
 20
67.909986
 30
0.0
  0
SPLINE
  5
13e
100
AcDbEntity
  8
open-1
 62
7
100
AcDbSpline
 70
8
 71
3
 72
8
 73
4
 74
0
 40
0
 40
0
 40
0
 40
0
 40
1
 40
1
 40
1
 40
1
 10
268.425200
 20
67.909986
 30
0.0
 10
268.889329
 20
67.909986
 30
0.0
 10
269.334448
 20
67.725612
 30
0.0
 10
269.662637
 20
67.397423
 30
0.0
  0
SPLINE
  5
13f
100
AcDbEntity
  8
open-1
 62
7
100
AcDbSpline
 70
8
 71
3
 72
8
 73
4
 74
0
 40
0
 40
0
 40
0
 40
0
 40
1
 40
1
 40
1
 40
1
 10
269.662637
 20
67.397423
 30
0.0
 10
269.990826
 20
67.069234
 30
0.0
 10
270.175200
 20
66.624115
 30
0.0
 10
270.175200
 20
66.159986
 30
0.0
  0
LWPOLYLINE
  5
140
100
AcDbEntity
  8
open-1
 62
7
100
AcDbPolyline
 90
1
 70
1
 10
11.558513
 20
66.160139
 30
0.0
  0
SPLINE
  5
141
100
AcDbEntity
  8
open-1
 62
7
100
AcDbSpline
 70
8
 71
3
 72
8
 73
4
 74
0
 40
0
 40
0
 40
0
 40
0
 40
1
 40
1
 40
1
 40
1
 10
158.587650
 20
155.092921
 30
0.0
 10
158.587650
 20
154.628792
 30
0.0
 10
158.403276
 20
154.183673
 30
0.0
 10
158.075087
 20
153.855484
 30
0.0
  0
SPLINE
  5
142
100
AcDbEntity
  8
open-1
 62
7
100
AcDbSpline
 70
8
 71
3
 72
8
 73
4
 74
0
 40
0
 40
0
 40
0
 40
0
 40
1
 40
1
 40
1
 40
1
 10
158.075087
 20
153.855484
 30
0.0
 10
157.746898
 20
153.527295
 30
0.0
 10
157.301779
 20
153.342921
 30
0.0
 10
156.837650
 20
153.342921
 30
0.0
  0
SPLINE
  5
143
100
AcDbEntity
  8
open-1
 62
7
100
AcDbSpline
 70
8
 71
3
 72
8
 73
4
 74
0
 40
0
 40
0
 40
0
 40
0
 40
1
 40
1
 40
1
 40
1
 10
156.837650
 20
153.342921
 30
0.0
 10
156.373521
 20
153.342921
 30
0.0
 10
155.928402
 20
153.527295
 30
0.0
 10
155.600213
 20
153.855484
 30
0.0
  0
SPLINE
  5
144
100
AcDbEntity
  8
open-1
 62
7
100
AcDbSpline
 70
8
 71
3
 72
8
 73
4
 74
0
 40
0
 40
0
 40
0
 40
0
 40
1
 40
1
 40
1
 40
1
 10
155.600213
 20
153.855484
 30
0.0
 10
155.272024
 20
154.183673
 30
0.0
 10
155.087650
 20
154.628792
 30
0.0
 10
155.087650
 20
155.092921
 30
0.0
  0
SPLINE
  5
145
100
AcDbEntity
  8
open-1
 62
7
100
AcDbSpline
 70
8
 71
3
 72
8
 73
4
 74
0
 40
0
 40
0
 40
0
 40
0
 40
1
 40
1
 40
1
 40
1
 10
155.087650
 20
155.092921
 30
0.0
 10
155.087650
 20
155.557050
 30
0.0
 10
155.272024
 20
156.002169
 30
0.0
 10
155.600213
 20
156.330358
 30
0.0
  0
SPLINE
  5
146
100
AcDbEntity
  8
open-1
 62
7
100
AcDbSpline
 70
8
 71
3
 72
8
 73
4
 74
0
 40
0
 40
0
 40
0
 40
0
 40
1
 40
1
 40
1
 40
1
 10
155.600213
 20
156.330358
 30
0.0
 10
155.928402
 20
156.658547
 30
0.0
 10
156.373521
 20
156.842921
 30
0.0
 10
156.837650
 20
156.842921
 30
0.0
  0
SPLINE
  5
147
100
AcDbEntity
  8
open-1
 62
7
100
AcDbSpline
 70
8
 71
3
 72
8
 73
4
 74
0
 40
0
 40
0
 40
0
 40
0
 40
1
 40
1
 40
1
 40
1
 10
156.837650
 20
156.842921
 30
0.0
 10
157.301779
 20
156.842921
 30
0.0
 10
157.746898
 20
156.658547
 30
0.0
 10
158.075087
 20
156.330358
 30
0.0
  0
SPLINE
  5
148
100
AcDbEntity
  8
open-1
 62
7
100
AcDbSpline
 70
8
 71
3
 72
8
 73
4
 74
0
 40
0
 40
0
 40
0
 40
0
 40
1
 40
1
 40
1
 40
1
 10
158.075087
 20
156.330358
 30
0.0
 10
158.403276
 20
156.002169
 30
0.0
 10
158.587650
 20
155.557050
 30
0.0
 10
158.587650
 20
155.092921
 30
0.0
  0
LWPOLYLINE
  5
149
100
AcDbEntity
  8
open-1
 62
7
100
AcDbPolyline
 90
1
 70
1
 10
270.175200
 20
66.159986
 30
0.0
  0
SPLINE
  5
14a
100
AcDbEntity
  8
open-1
 62
7
100
AcDbSpline
 70
8
 71
3
 72
8
 73
4
 74
0
 40
0
 40
0
 40
0
 40
0
 40
1
 40
1
 40
1
 40
1
 10
103.350350
 20
44.612390
 30
0.0
 10
103.350350
 20
44.148261
 30
0.0
 10
103.165976
 20
43.703142
 30
0.0
 10
102.837787
 20
43.374953
 30
0.0
  0
SPLINE
  5
14b
100
AcDbEntity
  8
open-1
 62
7
100
AcDbSpline
 70
8
 71
3
 72
8
 73
4
 74
0
 40
0
 40
0
 40
0
 40
0
 40
1
 40
1
 40
1
 40
1
 10
102.837787
 20
43.374953
 30
0.0
 10
102.509598
 20
43.046764
 30
0.0
 10
102.064479
 20
42.862390
 30
0.0
 10
101.600350
 20
42.862390
 30
0.0
  0
SPLINE
  5
14c
100
AcDbEntity
  8
open-1
 62
7
100
AcDbSpline
 70
8
 71
3
 72
8
 73
4
 74
0
 40
0
 40
0
 40
0
 40
0
 40
1
 40
1
 40
1
 40
1
 10
101.600350
 20
42.862390
 30
0.0
 10
101.136221
 20
42.862390
 30
0.0
 10
100.691101
 20
43.046764
 30
0.0
 10
100.362912
 20
43.374953
 30
0.0
  0
SPLINE
  5
14d
100
AcDbEntity
  8
open-1
 62
7
100
AcDbSpline
 70
8
 71
3
 72
8
 73
4
 74
0
 40
0
 40
0
 40
0
 40
0
 40
1
 40
1
 40
1
 40
1
 10
100.362912
 20
43.374953
 30
0.0
 10
100.034724
 20
43.703141
 30
0.0
 10
99.850349
 20
44.148261
 30
0.0
 10
99.850349
 20
44.612390
 30
0.0
  0
SPLINE
  5
14e
100
AcDbEntity
  8
open-1
 62
7
100
AcDbSpline
 70
8
 71
3
 72
8
 73
4
 74
0
 40
0
 40
0
 40
0
 40
0
 40
1
 40
1
 40
1
 40
1
 10
99.850349
 20
44.612390
 30
0.0
 10
99.850349
 20
45.076519
 30
0.0
 10
100.034724
 20
45.521639
 30
0.0
 10
100.362912
 20
45.849827
 30
0.0
  0
SPLINE
  5
14f
100
AcDbEntity
  8
open-1
 62
7
100
AcDbSpline
 70
8
 71
3
 72
8
 73
4
 74
0
 40
0
 40
0
 40
0
 40
0
 40
1
 40
1
 40
1
 40
1
 10
100.362912
 20
45.849827
 30
0.0
 10
100.691101
 20
46.178016
 30
0.0
 10
101.136221
 20
46.362390
 30
0.0
 10
101.600350
 20
46.362390
 30
0.0
  0
SPLINE
  5
150
100
AcDbEntity
  8
open-1
 62
7
100
AcDbSpline
 70
8
 71
3
 72
8
 73
4
 74
0
 40
0
 40
0
 40
0
 40
0
 40
1
 40
1
 40
1
 40
1
 10
101.600350
 20
46.362390
 30
0.0
 10
102.064479
 20
46.362390
 30
0.0
 10
102.509598
 20
46.178016
 30
0.0
 10
102.837787
 20
45.849827
 30
0.0
  0
SPLINE
  5
151
100
AcDbEntity
  8
open-1
 62
7
100
AcDbSpline
 70
8
 71
3
 72
8
 73
4
 74
0
 40
0
 40
0
 40
0
 40
0
 40
1
 40
1
 40
1
 40
1
 10
102.837787
 20
45.849827
 30
0.0
 10
103.165976
 20
45.521638
 30
0.0
 10
103.350350
 20
45.076519
 30
0.0
 10
103.350350
 20
44.612390
 30
0.0
  0
LWPOLYLINE
  5
152
100
AcDbEntity
  8
open-1
 62
7
100
AcDbPolyline
 90
1
 70
1
 10
158.587650
 20
155.092921
 30
0.0
  0
SPLINE
  5
153
100
AcDbEntity
  8
open-1
 62
7
100
AcDbSpline
 70
8
 71
3
 72
8
 73
4
 74
0
 40
0
 40
0
 40
0
 40
0
 40
1
 40
1
 40
1
 40
1
 10
178.588350
 20
44.612390
 30
0.0
 10
178.588350
 20
44.148261
 30
0.0
 10
178.403976
 20
43.703142
 30
0.0
 10
178.075787
 20
43.374953
 30
0.0
  0
SPLINE
  5
154
100
AcDbEntity
  8
open-1
 62
7
100
AcDbSpline
 70
8
 71
3
 72
8
 73
4
 74
0
 40
0
 40
0
 40
0
 40
0
 40
1
 40
1
 40
1
 40
1
 10
178.075787
 20
43.374953
 30
0.0
 10
177.747598
 20
43.046764
 30
0.0
 10
177.302479
 20
42.862390
 30
0.0
 10
176.838350
 20
42.862390
 30
0.0
  0
SPLINE
  5
155
100
AcDbEntity
  8
open-1
 62
7
100
AcDbSpline
 70
8
 71
3
 72
8
 73
4
 74
0
 40
0
 40
0
 40
0
 40
0
 40
1
 40
1
 40
1
 40
1
 10
176.838350
 20
42.862390
 30
0.0
 10
176.374221
 20
42.862390
 30
0.0
 10
175.929102
 20
43.046764
 30
0.0
 10
175.600913
 20
43.374953
 30
0.0
  0
SPLINE
  5
156
100
AcDbEntity
  8
open-1
 62
7
100
AcDbSpline
 70
8
 71
3
 72
8
 73
4
 74
0
 40
0
 40
0
 40
0
 40
0
 40
1
 40
1
 40
1
 40
1
 10
175.600913
 20
43.374953
 30
0.0
 10
175.272724
 20
43.703142
 30
0.0
 10
175.088350
 20
44.148261
 30
0.0
 10
175.088350
 20
44.612390
 30
0.0
  0
SPLINE
  5
157
100
AcDbEntity
  8
open-1
 62
7
100
AcDbSpline
 70
8
 71
3
 72
8
 73
4
 74
0
 40
0
 40
0
 40
0
 40
0
 40
1
 40
1
 40
1
 40
1
 10
175.088350
 20
44.612390
 30
0.0
 10
175.088350
 20
45.076519
 30
0.0
 10
175.272724
 20
45.521638
 30
0.0
 10
175.600913
 20
45.849827
 30
0.0
  0
SPLINE
  5
158
100
AcDbEntity
  8
open-1
 62
7
100
AcDbSpline
 70
8
 71
3
 72
8
 73
4
 74
0
 40
0
 40
0
 40
0
 40
0
 40
1
 40
1
 40
1
 40
1
 10
175.600913
 20
45.849827
 30
0.0
 10
175.929102
 20
46.178016
 30
0.0
 10
176.374221
 20
46.362390
 30
0.0
 10
176.838350
 20
46.362390
 30
0.0
  0
SPLINE
  5
159
100
AcDbEntity
  8
open-1
 62
7
100
AcDbSpline
 70
8
 71
3
 72
8
 73
4
 74
0
 40
0
 40
0
 40
0
 40
0
 40
1
 40
1
 40
1
 40
1
 10
176.838350
 20
46.362390
 30
0.0
 10
177.302479
 20
46.362390
 30
0.0
 10
177.747598
 20
46.178016
 30
0.0
 10
178.075787
 20
45.849827
 30
0.0
  0
SPLINE
  5
15a
100
AcDbEntity
  8
open-1
 62
7
100
AcDbSpline
 70
8
 71
3
 72
8
 73
4
 74
0
 40
0
 40
0
 40
0
 40
0
 40
1
 40
1
 40
1
 40
1
 10
178.075787
 20
45.849827
 30
0.0
 10
178.403976
 20
45.521638
 30
0.0
 10
178.588350
 20
45.076519
 30
0.0
 10
178.588350
 20
44.612390
 30
0.0
  0
LWPOLYLINE
  5
15b
100
AcDbEntity
  8
open-1
 62
7
100
AcDbPolyline
 90
1
 70
1
 10
103.350350
 20
44.612390
 30
0.0
  0
LWPOLYLINE
  5
15c
100
AcDbEntity
  8
open-1
 62
7
100
AcDbPolyline
 90
1
 70
1
 10
178.588350
 20
44.612390
 30
0.0
  0
SPLINE
  5
15d
100
AcDbEntity
  8
open-1
 62
7
100
AcDbSpline
 70
8
 71
3
 72
8
 73
4
 74
0
 40
0
 40
0
 40
0
 40
0
 40
1
 40
1
 40
1
 40
1
 10
256.609270
 20
160.164262
 30
0.0
 10
258.056570
 20
160.147195
 30
0.0
 10
259.687180
 20
160.221462
 30
0.0
 10
261.279190
 20
160.039262
 30
0.0
  0
SPLINE
  5
15e
100
AcDbEntity
  8
open-1
 62
7
100
AcDbSpline
 70
8
 71
3
 72
8
 73
4
 74
0
 40
0
 40
0
 40
0
 40
0
 40
1
 40
1
 40
1
 40
1
 10
261.279190
 20
160.039262
 30
0.0
 10
265.967680
 20
159.525367
 30
0.0
 10
270.402280
 20
157.181208
 30
0.0
 10
273.473040
 20
153.609003
 30
0.0
  0
LWPOLYLINE
  5
15f
100
AcDbEntity
  8
open-1
 62
7
100
AcDbPolyline
 90
3
 70
0
 10
149.116160
 20
160.164262
 30
0.0
 10
256.597570
 20
160.164262
 30
0.0
 10
256.609270
 20
160.164262
 30
0.0
  0
SPLINE
  5
160
100
AcDbEntity
  8
open-1
 62
7
100
AcDbSpline
 70
8
 71
3
 72
8
 73
4
 74
0
 40
0
 40
0
 40
0
 40
0
 40
1
 40
1
 40
1
 40
1
 10
273.476040
 20
153.607043
 30
0.0
 10
276.388660
 20
150.258037
 30
0.0
 10
278.050930
 20
145.866837
 30
0.0
 10
278.093230
 20
141.431261
 30
0.0
  0
LWPOLYLINE
  5
161
100
AcDbEntity
  8
open-1
 62
7
100
AcDbPolyline
 90
2
 70
0
 10
273.473040
 20
153.609003
 30
0.0
 10
273.476040
 20
153.607043
 30
0.0
  0
SPLINE
  5
162
100
AcDbEntity
  8
open-1
 62
7
100
AcDbSpline
 70
8
 71
3
 72
8
 73
4
 74
0
 40
0
 40
0
 40
0
 40
0
 40
1
 40
1
 40
1
 40
1
 10
278.093230
 20
141.411661
 30
0.0
 10
278.098230
 20
119.241492
 30
0.0
 10
278.096230
 20
97.071745
 30
0.0
 10
278.096230
 20
74.901895
 30
0.0
  0
SPLINE
  5
163
100
AcDbEntity
  8
open-1
 62
7
100
AcDbSpline
 70
8
 71
3
 72
8
 73
4
 74
0
 40
0
 40
0
 40
0
 40
0
 40
1
 40
1
 40
1
 40
1
 10
278.096230
 20
74.901895
 30
0.0
 10
278.134230
 20
73.074220
 30
0.0
 10
277.946420
 20
71.168894
 30
0.0
 10
277.383340
 20
69.323769
 30
0.0
  0
SPLINE
  5
164
100
AcDbEntity
  8
open-1
 62
7
100
AcDbSpline
 70
8
 71
3
 72
8
 73
4
 74
0
 40
0
 40
0
 40
0
 40
0
 40
1
 40
1
 40
1
 40
1
 10
277.383340
 20
69.323769
 30
0.0
 10
276.392790
 20
65.975859
 30
0.0
 10
274.286870
 20
63.076210
 30
0.0
 10
271.686060
 20
60.931190
 30
0.0
  0
SPLINE
  5
165
100
AcDbEntity
  8
open-1
 62
7
100
AcDbSpline
 70
8
 71
3
 72
8
 73
4
 74
0
 40
0
 40
0
 40
0
 40
0
 40
1
 40
1
 40
1
 40
1
 10
271.686060
 20
60.931190
 30
0.0
 10
268.339640
 20
58.159750
 30
0.0
 10
264.286360
 20
56.485950
 30
0.0
 10
260.244670
 20
55.530800
 30
0.0
  0
LWPOLYLINE
  5
166
100
AcDbEntity
  8
open-1
 62
7
100
AcDbPolyline
 90
3
 70
0
 10
278.093230
 20
141.431261
 30
0.0
 10
278.093230
 20
141.421461
 30
0.0
 10
278.093230
 20
141.411661
 30
0.0
  0
SPLINE
  5
167
100
AcDbEntity
  8
open-1
 62
7
100
AcDbSpline
 70
8
 71
3
 72
8
 73
4
 74
0
 40
0
 40
0
 40
0
 40
0
 40
1
 40
1
 40
1
 40
1
 10
260.205670
 20
55.522800
 30
0.0
 10
250.268070
 20
53.380320
 30
0.0
 10
240.329770
 20
51.224470
 30
0.0
 10
230.387330
 20
49.091160
 30
0.0
  0
SPLINE
  5
168
100
AcDbEntity
  8
open-1
 62
7
100
AcDbSpline
 70
8
 71
3
 72
8
 73
4
 74
0
 40
0
 40
0
 40
0
 40
0
 40
1
 40
1
 40
1
 40
1
 10
230.387330
 20
49.091160
 30
0.0
 10
225.406760
 20
48.005790
 30
0.0
 10
220.397430
 20
47.031210
 30
0.0
 10
215.422480
 20
46.001320
 30
0.0
  0
SPLINE
  5
169
100
AcDbEntity
  8
open-1
 62
7
100
AcDbSpline
 70
8
 71
3
 72
8
 73
4
 74
0
 40
0
 40
0
 40
0
 40
0
 40
1
 40
1
 40
1
 40
1
 10
215.422480
 20
46.001320
 30
0.0
 10
198.389250
 20
42.468870
 30
0.0
 10
181.342010
 20
38.925530
 30
0.0
 10
164.244750
 20
35.630230
 30
0.0
  0
SPLINE
  5
16a
100
AcDbEntity
  8
open-1
 62
7
100
AcDbSpline
 70
8
 71
3
 72
8
 73
4
 74
0
 40
0
 40
0
 40
0
 40
0
 40
1
 40
1
 40
1
 40
1
 10
164.244750
 20
35.630230
 30
0.0
 10
157.720610
 20
34.385660
 30
0.0
 10
151.166450
 20
33.132260
 30
0.0
 10
144.574830
 20
32.098980
 30
0.0
  0
LWPOLYLINE
  5
16b
100
AcDbEntity
  8
open-1
 62
7
100
AcDbPolyline
 90
3
 70
0
 10
260.244670
 20
55.530800
 30
0.0
 10
260.225170
 20
55.526800
 30
0.0
 10
260.205670
 20
55.522800
 30
0.0
  0
SPLINE
  5
16c
100
AcDbEntity
  8
open-1
 62
7
100
AcDbSpline
 70
8
 71
3
 72
8
 73
4
 74
0
 40
0
 40
0
 40
0
 40
0
 40
1
 40
1
 40
1
 40
1
 10
144.551430
 20
32.096980
 30
0.0
 10
142.842620
 20
31.849450
 30
0.0
 10
140.990340
 20
31.540250
 30
0.0
 10
139.168620
 20
31.452450
 30
0.0
  0
LWPOLYLINE
  5
16d
100
AcDbEntity
  8
open-1
 62
7
100
AcDbPolyline
 90
3
 70
0
 10
144.574830
 20
32.098980
 30
0.0
 10
144.563130
 20
32.096980
 30
0.0
 10
144.551430
 20
32.096980
 30
0.0
  0
SPLINE
  5
16e
100
AcDbEntity
  8
open-1
 62
7
100
AcDbSpline
 70
8
 71
3
 72
8
 73
4
 74
0
 40
0
 40
0
 40
0
 40
0
 40
1
 40
1
 40
1
 40
1
 10
139.026020
 20
31.450450
 30
0.0
 10
137.456330
 20
31.487650
 30
0.0
 10
135.849860
 20
31.752520
 30
0.0
 10
134.412740
 20
31.948500
 30
0.0
  0
LWPOLYLINE
  5
16f
100
AcDbEntity
  8
open-1
 62
7
100
AcDbPolyline
 90
3
 70
0
 10
139.168620
 20
31.452450
 30
0.0
 10
139.098320
 20
31.448450
 30
0.0
 10
139.026020
 20
31.450450
 30
0.0
  0
SPLINE
  5
170
100
AcDbEntity
  8
open-1
 62
7
100
AcDbSpline
 70
8
 71
3
 72
8
 73
4
 74
0
 40
0
 40
0
 40
0
 40
0
 40
1
 40
1
 40
1
 40
1
 10
134.383440
 20
31.952500
 30
0.0
 10
128.451800
 20
32.846140
 30
0.0
 10
122.556380
 20
33.962810
 30
0.0
 10
116.699850
 20
35.065780
 30
0.0
  0
SPLINE
  5
171
100
AcDbEntity
  8
open-1
 62
7
100
AcDbSpline
 70
8
 71
3
 72
8
 73
4
 74
0
 40
0
 40
0
 40
0
 40
0
 40
1
 40
1
 40
1
 40
1
 10
116.699850
 20
35.065780
 30
0.0
 10
101.492720
 20
37.972210
 30
0.0
 10
86.337514
 20
41.089150
 30
0.0
 10
71.197895
 20
44.231800
 30
0.0
  0
SPLINE
  5
172
100
AcDbEntity
  8
open-1
 62
7
100
AcDbSpline
 70
8
 71
3
 72
8
 73
4
 74
0
 40
0
 40
0
 40
0
 40
0
 40
1
 40
1
 40
1
 40
1
 10
71.197895
 20
44.231800
 30
0.0
 10
65.053844
 20
45.521660
 30
0.0
 10
58.906192
 20
46.773740
 30
0.0
 10
52.752584
 20
48.026720
 30
0.0
  0
LWPOLYLINE
  5
173
100
AcDbEntity
  8
open-1
 62
7
100
AcDbPolyline
 90
3
 70
0
 10
134.412740
 20
31.948500
 30
0.0
 10
134.399040
 20
31.950500
 30
0.0
 10
134.383440
 20
31.952500
 30
0.0
  0
SPLINE
  5
174
100
AcDbEntity
  8
open-1
 62
7
100
AcDbSpline
 70
8
 71
3
 72
8
 73
4
 74
0
 40
0
 40
0
 40
0
 40
0
 40
1
 40
1
 40
1
 40
1
 10
52.736984
 20
48.028720
 30
0.0
 10
41.593065
 20
50.387640
 30
0.0
 10
30.467773
 20
52.836120
 30
0.0
 10
19.340502
 20
55.233790
 30
0.0
  0
SPLINE
  5
175
100
AcDbEntity
  8
open-1
 62
7
100
AcDbSpline
 70
8
 71
3
 72
8
 73
4
 74
0
 40
0
 40
0
 40
0
 40
0
 40
1
 40
1
 40
1
 40
1
 10
19.340502
 20
55.233790
 30
0.0
 10
15.462604
 20
56.007180
 30
0.0
 10
11.565555
 20
57.383590
 30
0.0
 10
8.166673
 20
59.696690
 30
0.0
  0
LWPOLYLINE
  5
176
100
AcDbEntity
  8
open-1
 62
7
100
AcDbPolyline
 90
3
 70
0
 10
52.752584
 20
48.026720
 30
0.0
 10
52.744784
 20
48.026720
 30
0.0
 10
52.736984
 20
48.028720
 30
0.0
  0
SPLINE
  5
177
100
AcDbEntity
  8
open-1
 62
7
100
AcDbSpline
 70
8
 71
3
 72
8
 73
4
 74
0
 40
0
 40
0
 40
0
 40
0
 40
1
 40
1
 40
1
 40
1
 10
8.141283
 20
59.714690
 30
0.0
 10
7.160614
 20
60.404020
 30
0.0
 10
6.049202
 20
61.221220
 30
0.0
 10
5.110033
 20
62.281100
 30
0.0
  0
LWPOLYLINE
  5
178
100
AcDbEntity
  8
open-1
 62
7
100
AcDbPolyline
 90
3
 70
0
 10
8.166673
 20
59.696690
 30
0.0
 10
8.153003
 20
59.706690
 30
0.0
 10
8.141283
 20
59.714690
 30
0.0
  0
SPLINE
  5
179
100
AcDbEntity
  8
open-1
 62
7
100
AcDbSpline
 70
8
 71
3
 72
8
 73
4
 74
0
 40
0
 40
0
 40
0
 40
0
 40
1
 40
1
 40
1
 40
1
 10
5.041674
 20
62.361200
 30
0.0
 10
4.576441
 20
62.944310
 30
0.0
 10
3.821029
 20
63.586684
 30
0.0
 10
3.208877
 20
64.467006
 30
0.0
  0
SPLINE
  5
17a
100
AcDbEntity
  8
open-1
 62
7
100
AcDbSpline
 70
8
 71
3
 72
8
 73
4
 74
0
 40
0
 40
0
 40
0
 40
0
 40
1
 40
1
 40
1
 40
1
 10
3.208877
 20
64.467006
 30
0.0
 10
1.205946
 20
67.230388
 30
0.0
 10
0.124752
 20
70.620558
 30
0.0
 10
0.097549
 20
74.006071
 30
0.0
  0
LWPOLYLINE
  5
17b
100
AcDbEntity
  8
open-1
 62
7
100
AcDbPolyline
 90
3
 70
0
 10
5.110033
 20
62.281100
 30
0.0
 10
5.074877
 20
62.320200
 30
0.0
 10
5.041674
 20
62.361200
 30
0.0
  0
SPLINE
  5
17c
100
AcDbEntity
  8
open-1
 62
7
100
AcDbSpline
 70
8
 71
3
 72
8
 73
4
 74
0
 40
0
 40
0
 40
0
 40
0
 40
1
 40
1
 40
1
 40
1
 10
0.097549
 20
74.021671
 30
0.0
 10
0.093400
 20
95.582434
 30
0.0
 10
0.096779
 20
117.142927
 30
0.0
 10
0.095599
 20
138.703320
 30
0.0
  0
LWPOLYLINE
  5
17d
100
AcDbEntity
  8
open-1
 62
7
100
AcDbPolyline
 90
3
 70
0
 10
0.097549
 20
74.006071
 30
0.0
 10
0.097549
 20
74.013871
 30
0.0
 10
0.097549
 20
74.021671
 30
0.0
  0
SPLINE
  5
17e
100
AcDbEntity
  8
open-1
 62
7
100
AcDbSpline
 70
8
 71
3
 72
8
 73
4
 74
0
 40
0
 40
0
 40
0
 40
0
 40
1
 40
1
 40
1
 40
1
 10
0.095599
 20
138.726760
 30
0.0
 10
0.113554
 20
140.259615
 30
0.0
 10
0.028170
 20
142.016052
 30
0.0
 10
0.265521
 20
143.713088
 30
0.0
  0
SPLINE
  5
17f
100
AcDbEntity
  8
open-1
 62
7
100
AcDbSpline
 70
8
 71
3
 72
8
 73
4
 74
0
 40
0
 40
0
 40
0
 40
0
 40
1
 40
1
 40
1
 40
1
 10
0.265521
 20
143.713088
 30
0.0
 10
0.866699
 20
148.362298
 30
0.0
 10
3.272232
 20
152.726945
 30
0.0
 10
6.867079
 20
155.726756
 30
0.0
  0
SPLINE
  5
180
100
AcDbEntity
  8
open-1
 62
7
100
AcDbSpline
 70
8
 71
3
 72
8
 73
4
 74
0
 40
0
 40
0
 40
0
 40
0
 40
1
 40
1
 40
1
 40
1
 10
6.867079
 20
155.726756
 30
0.0
 10
6.868509
 20
155.727946
 30
0.0
 10
6.869569
 20
155.729476
 30
0.0
 10
6.870989
 20
155.730666
 30
0.0
  0
SPLINE
  5
181
100
AcDbEntity
  8
open-1
 62
7
100
AcDbSpline
 70
8
 71
3
 72
8
 73
4
 74
0
 40
0
 40
0
 40
0
 40
0
 40
1
 40
1
 40
1
 40
1
 10
6.870989
 20
155.730666
 30
0.0
 10
10.261571
 20
158.592241
 30
0.0
 10
14.673838
 20
160.184860
 30
0.0
 10
19.105365
 20
160.164262
 30
0.0
  0
LWPOLYLINE
  5
182
100
AcDbEntity
  8
open-1
 62
7
100
AcDbPolyline
 90
3
 70
0
 10
0.095599
 20
138.703320
 30
0.0
 10
0.095599
 20
138.715040
 30
0.0
 10
0.095599
 20
138.726760
 30
0.0
  0
SPLINE
  5
183
100
AcDbEntity
  8
open-1
 62
7
100
AcDbSpline
 70
8
 71
3
 72
8
 73
4
 74
0
 40
0
 40
0
 40
0
 40
0
 40
1
 40
1
 40
1
 40
1
 10
19.095598
 20
150.164262
 30
0.0
 10
16.580284
 20
150.181672
 30
0.0
 10
14.084030
 20
149.081269
 30
0.0
 10
12.407889
 20
147.204369
 30
0.0
  0
SPLINE
  5
184
100
AcDbEntity
  8
open-1
 62
7
100
AcDbSpline
 70
8
 71
3
 72
8
 73
4
 74
0
 40
0
 40
0
 40
0
 40
0
 40
1
 40
1
 40
1
 40
1
 10
12.407889
 20
147.204369
 30
0.0
 10
10.868205
 20
145.516472
 30
0.0
 10
10.033726
 20
143.223197
 30
0.0
 10
10.095599
 20
140.941972
 30
0.0
  0
SPLINE
  5
185
100
AcDbEntity
  8
open-1
 62
7
100
AcDbSpline
 70
8
 71
3
 72
8
 73
4
 74
0
 40
0
 40
0
 40
0
 40
0
 40
1
 40
1
 40
1
 40
1
 10
10.095599
 20
140.941972
 30
0.0
 10
10.096599
 20
118.665893
 30
0.0
 10
10.093499
 20
96.389786
 30
0.0
 10
10.097199
 20
74.113727
 30
0.0
  0
SPLINE
  5
186
100
AcDbEntity
  8
open-1
 62
7
100
AcDbSpline
 70
8
 71
3
 72
8
 73
4
 74
0
 40
0
 40
0
 40
0
 40
0
 40
1
 40
1
 40
1
 40
1
 10
10.097199
 20
74.113727
 30
0.0
 10
10.115949
 20
72.363146
 30
0.0
 10
10.881039
 20
70.671697
 30
0.0
 10
12.074280
 20
69.407099
 30
0.0
  0
SPLINE
  5
187
100
AcDbEntity
  8
open-1
 62
7
100
AcDbSpline
 70
8
 71
3
 72
8
 73
4
 74
0
 40
0
 40
0
 40
0
 40
0
 40
1
 40
1
 40
1
 40
1
 10
12.074280
 20
69.407099
 30
0.0
 10
13.736287
 20
67.628493
 30
0.0
 10
15.996922
 20
66.544546
 30
0.0
 10
18.283422
 20
65.806567
 30
0.0
  0
SPLINE
  5
188
100
AcDbEntity
  8
open-1
 62
7
100
AcDbSpline
 70
8
 71
3
 72
8
 73
4
 74
0
 40
0
 40
0
 40
0
 40
0
 40
1
 40
1
 40
1
 40
1
 10
18.283422
 20
65.806567
 30
0.0
 10
20.177828
 20
65.193007
 30
0.0
 10
22.149448
 20
64.889225
 30
0.0
 10
24.094422
 20
64.485688
 30
0.0
  0
SPLINE
  5
189
100
AcDbEntity
  8
open-1
 62
7
100
AcDbSpline
 70
8
 71
3
 72
8
 73
4
 74
0
 40
0
 40
0
 40
0
 40
0
 40
1
 40
1
 40
1
 40
1
 10
24.094422
 20
64.485688
 30
0.0
 10
62.398208
 20
56.878540
 30
0.0
 10
100.701990
 20
49.271400
 30
0.0
 10
139.005780
 20
41.664260
 30
0.0
  0
SPLINE
  5
18a
100
AcDbEntity
  8
open-1
 62
7
100
AcDbSpline
 70
8
 71
3
 72
8
 73
4
 74
0
 40
0
 40
0
 40
0
 40
0
 40
1
 40
1
 40
1
 40
1
 10
139.005780
 20
41.664260
 30
0.0
 10
178.408050
 20
49.478130
 30
0.0
 10
217.810900
 20
57.289130
 30
0.0
 10
257.212820
 20
65.104789
 30
0.0
  0
SPLINE
  5
18b
100
AcDbEntity
  8
open-1
 62
7
100
AcDbSpline
 70
8
 71
3
 72
8
 73
4
 74
0
 40
0
 40
0
 40
0
 40
0
 40
1
 40
1
 40
1
 40
1
 10
257.212820
 20
65.104789
 30
0.0
 10
259.845780
 20
65.659552
 30
0.0
 10
262.476610
 20
66.529740
 30
0.0
 10
264.673100
 20
68.125611
 30
0.0
  0
SPLINE
  5
18c
100
AcDbEntity
  8
open-1
 62
7
100
AcDbSpline
 70
8
 71
3
 72
8
 73
4
 74
0
 40
0
 40
0
 40
0
 40
0
 40
1
 40
1
 40
1
 40
1
 10
264.673100
 20
68.125611
 30
0.0
 10
266.222000
 20
69.248873
 30
0.0
 10
267.510810
 20
70.847428
 30
0.0
 10
267.928300
 20
72.746231
 30
0.0
  0
SPLINE
  5
18d
100
AcDbEntity
  8
open-1
 62
7
100
AcDbSpline
 70
8
 71
3
 72
8
 73
4
 74
0
 40
0
 40
0
 40
0
 40
0
 40
1
 40
1
 40
1
 40
1
 10
267.928300
 20
72.746231
 30
0.0
 10
268.173670
 20
73.775955
 30
0.0
 10
268.075170
 20
74.838810
 30
0.0
 10
268.095650
 20
75.886589
 30
0.0
  0
LWPOLYLINE
  5
18e
100
AcDbEntity
  8
open-1
 62
7
100
AcDbPolyline
 90
6
 70
0
 10
19.105365
 20
160.164262
 30
0.0
 10
129.116320
 20
160.164262
 30
0.0
 10
129.116340
 20
150.164262
 30
0.0
 10
19.095625
 20
150.164262
 30
0.0
 10
19.095598
 20
150.164262
 30
0.0
 10
19.095598
 20
150.164262
 30
0.0
  0
SPLINE
  5
18f
100
AcDbEntity
  8
open-1
 62
7
100
AcDbSpline
 70
8
 71
3
 72
8
 73
4
 74
0
 40
0
 40
0
 40
0
 40
0
 40
1
 40
1
 40
1
 40
1
 10
268.095650
 20
141.281075
 30
0.0
 10
268.081850
 20
143.857030
 30
0.0
 10
266.890810
 20
146.395470
 30
0.0
 10
264.912870
 20
148.046831
 30
0.0
  0
SPLINE
  5
190
100
AcDbEntity
  8
open-1
 62
7
100
AcDbSpline
 70
8
 71
3
 72
8
 73
4
 74
0
 40
0
 40
0
 40
0
 40
0
 40
1
 40
1
 40
1
 40
1
 10
264.912870
 20
148.046831
 30
0.0
 10
263.238940
 20
149.475502
 30
0.0
 10
261.025780
 20
150.229136
 30
0.0
 10
258.829610
 20
150.164262
 30
0.0
  0
LWPOLYLINE
  5
191
100
AcDbEntity
  8
open-1
 62
7
100
AcDbPolyline
 90
2
 70
0
 10
268.095650
 20
75.886589
 30
0.0
 10
268.095650
 20
141.281075
 30
0.0
  0
LWPOLYLINE
  5
192
100
AcDbEntity
  8
open-1
 62
7
100
AcDbPolyline
 90
3
 70
0
 10
258.829610
 20
150.164262
 30
0.0
 10
149.116150
 20
150.164262
 30
0.0
 10
149.116160
 20
160.164262
 30
0.0
  0
LWPOLYLINE
  5
193
100
AcDbEntity
  8
open-1
 62
7
100
AcDbPolyline
 90
3
 70
0
 10
129.116340
 20
150.164262
 30
0.0
 10
149.116150
 20
150.164262
 30
0.0
 10
149.116150
 20
150.164262
 30
0.0
  0
ENDSEC
  0
SECTION
  2
OBJECTS
  0
DICTIONARY
  5
C
330
0
100
AcDbDictionary
  3
ACAD_GROUP
350
D
  3
ACAD_MLINESTYLE
350
17
  0
DICTIONARY
  5
D
330
C
100
AcDbDictionary
  0
DICTIONARY
  5
1A
330
C
100
AcDbDictionary
  0
DICTIONARY
  5
17
330
C
100
AcDbDictionary
  3
STANDARD
350
18
  0
DICTIONARY
  5
19
330
C
100
AcDbDictionary
  0
ENDSEC
  0
EOF
