  0
SECTION
  2
HEADER
  9
$ACADVER
  1
AC1014
  9
$HANDSEED
  5
FFFF
  9
$MEASUREMENT
 70
     1
  0
ENDSEC
  0
SECTION
  2
TABLES
  0
TABLE
  2
VPORT
  5
8
330
0
100
AcDbSymbolTable
 70
     4
  0
VPORT
  5
2E
330
8
100
AcDbSymbolTableRecord
100
AcDbViewportTableRecord
  2
*ACTIVE
 70
     0
 10
0.0
 20
0.0
 11
1.0
 21
1.0
 12
210.0
 22
148.5
 13
0.0
 23
0.0
 14
10.0
 24
10.0
 15
10.0
 25
10.0
 16
0.0
 26
0.0
 36
1.0
 17
0.0
 27
0.0
 37
0.0
 40
341.0
 41
1.24
 42
50.0
 43
0.0
 44
0.0
 50
0.0
 51
0.0
 71
     0
 72
   100
 73
     1
 74
     3
 75
     0
 76
     0
 77
     0
 78
     0
  0
ENDTAB
  0
TABLE
  2
LTYPE
  5
5
330
0
100
AcDbSymbolTable
 70
     1
  0
LTYPE
  5
14
330
5
100
AcDbSymbolTableRecord
100
AcDbLinetypeTableRecord
  2
BYBLOCK
 70
     0
  3

 72
    65
 73
     0
 40
0.0
  0
LTYPE
  5
15
330
5
100
AcDbSymbolTableRecord
100
AcDbLinetypeTableRecord
  2
BYLAYER
 70
     0
  3

 72
    65
 73
     0
 40
0.0
  0
LTYPE
  5
16
330
5
100
AcDbSymbolTableRecord
100
AcDbLinetypeTableRecord
  2
CONTINUOUS
 70
     0
  3
Solid line
 72
    65
 73
     0
 40
0.0
  0
ENDTAB
  0
TABLE
  2
LAYER
  5
2
100
AcDbSymbolTable
 70
2
  0
LAYER
  5
50
100
AcDbSymbolTableRecord
100
AcDbLayerTableRecord
  2
0
 70
0
  6
CONTINUOUS
  0
LAYER
  5
51
100
AcDbSymbolTableRecord
100
AcDbLayerTableRecord
  2
open-2
 70
0
  6
CONTINUOUS
  0
ENDTAB
  0
TABLE
  2
STYLE
  5
3
330
0
100
AcDbSymbolTable
 70
     1
  0
STYLE
  5
11
330
3
100
AcDbSymbolTableRecord
100
AcDbTextStyleTableRecord
  2
STANDARD
 70
     0
 40
0.0
 41
1.0
 50
0.0
 71
     0
 42
2.5
  3
txt
  4

  0
ENDTAB
  0
TABLE
  2
VIEW
  5
6
330
0
100
AcDbSymbolTable
 70
     0
  0
ENDTAB
  0
TABLE
  2
UCS
  5
7
330
0
100
AcDbSymbolTable
 70
     0
  0
ENDTAB
  0
TABLE
  2
APPID
  5
9
330
0
100
AcDbSymbolTable
 70
     2
  0
APPID
  5
12
330
9
100
AcDbSymbolTableRecord
100
AcDbRegAppTableRecord
  2
ACAD
 70
     0
  0
ENDTAB
  0
TABLE
  2
DIMSTYLE
  5
A
330
0
100
AcDbSymbolTable
 70
     1
  0
DIMSTYLE
105
27
330
A
100
AcDbSymbolTableRecord
100
AcDbDimStyleTableRecord
  2
ISO-25
 70
     0
  3

  4

  5

  6

  7

 40
1.0
 41
2.5
 42
0.625
 43
3.75
 44
1.25
 45
0.0
 46
0.0
 47
0.0
 48
0.0
140
2.5
141
2.5
142
0.0
143
0.03937007874016
144
1.0
145
0.0
146
1.0
147
0.625
 71
     0
 72
     0
 73
     0
 74
     0
 75
     0
 76
     0
 77
     1
 78
     8
170
     0
171
     3
172
     1
173
     0
174
     0
175
     0
176
     0
177
     0
178
     0
270
     2
271
     2
272
     2
273
     2
274
     3
340
11
275
     0
280
     0
281
     0
282
     0
283
     0
284
     8
285
     0
286
     0
287
     3
288
     0
  0
ENDTAB
  0
TABLE
  2
BLOCK_RECORD
  5
1
330
0
100
AcDbSymbolTable
 70
     1
  0
BLOCK_RECORD
  5
1F
330
1
100
AcDbSymbolTableRecord
100
AcDbBlockTableRecord
  2
*MODEL_SPACE
  0
BLOCK_RECORD
  5
1B
330
1
100
AcDbSymbolTableRecord
100
AcDbBlockTableRecord
  2
*PAPER_SPACE
  0
ENDTAB
  0
ENDSEC
  0
SECTION
  2
BLOCKS
  0
BLOCK
  5
20
330
1F
100
AcDbEntity
  8
0
100
AcDbBlockBegin
  2
*MODEL_SPACE
 70
     0
 10
0.0
 20
0.0
 30
0.0
  3
*MODEL_SPACE
  1

  0
ENDBLK
  5
21
330
1F
100
AcDbEntity
  8
0
100
AcDbBlockEnd
  0
BLOCK
  5
1C
330
1B
100
AcDbEntity
 67
     1
  8
0
100
AcDbBlockBegin
  2
*PAPER_SPACE
  1

  0
ENDBLK
  5
1D
330
1B
100
AcDbEntity
 67
     1
  8
0
100
AcDbBlockEnd
  0
ENDSEC
  0
SECTION
  2
ENTITIES
  0
SPLINE
  5
100
100
AcDbEntity
  8
open-2
 62
7
100
AcDbSpline
 70
8
 71
3
 72
8
 73
4
 74
0
 40
0
 40
0
 40
0
 40
0
 40
1
 40
1
 40
1
 40
1
 10
5.412206
 20
60.867409
 30
0.0
 10
5.403166
 20
60.870809
 30
0.0
 10
5.405496
 20
60.849259
 30
0.0
 10
5.412206
 20
60.867409
 30
0.0
  0
LWPOLYLINE
  5
101
100
AcDbEntity
  8
open-2
 62
7
100
AcDbPolyline
 90
1
 70
1
 10
5.412206
 20
60.867409
 30
0.0
  0
SPLINE
  5
102
100
AcDbEntity
  8
open-2
 62
7
100
AcDbSpline
 70
8
 71
3
 72
8
 73
4
 74
0
 40
0
 40
0
 40
0
 40
0
 40
1
 40
1
 40
1
 40
1
 10
281.334110
 20
66.021664
 30
0.0
 10
281.334110
 20
66.015664
 30
0.0
 10
281.340110
 20
66.022764
 30
0.0
 10
281.334110
 20
66.021664
 30
0.0
  0
LWPOLYLINE
  5
103
100
AcDbEntity
  8
open-2
 62
7
100
AcDbPolyline
 90
4
 70
1
 10
281.328100
 20
66.002133
 30
0.0
 10
281.307200
 20
65.921483
 30
0.0
 10
281.329900
 20
66.002133
 30
0.0
 10
281.326900
 20
66.002133
 30
0.0
  0
SPLINE
  5
104
100
AcDbEntity
  8
open-2
 62
7
100
AcDbSpline
 70
8
 71
3
 72
8
 73
4
 74
0
 40
0
 40
0
 40
0
 40
0
 40
1
 40
1
 40
1
 40
1
 10
281.332100
 20
66.023664
 30
0.0
 10
281.324100
 20
66.020564
 30
0.0
 10
281.340100
 20
66.020564
 30
0.0
 10
281.332100
 20
66.023664
 30
0.0
  0
LWPOLYLINE
  5
105
100
AcDbEntity
  8
open-2
 62
7
100
AcDbPolyline
 90
1
 70
1
 10
281.334110
 20
66.021664
 30
0.0
  0
SPLINE
  5
106
100
AcDbEntity
  8
open-2
 62
7
100
AcDbSpline
 70
8
 71
3
 72
8
 73
4
 74
0
 40
0
 40
0
 40
0
 40
0
 40
1
 40
1
 40
1
 40
1
 10
281.349690
 20
66.070533
 30
0.0
 10
281.339590
 20
66.061433
 30
0.0
 10
281.338790
 20
66.022603
 30
0.0
 10
281.349690
 20
66.070533
 30
0.0
  0
LWPOLYLINE
  5
107
100
AcDbEntity
  8
open-2
 62
7
100
AcDbPolyline
 90
1
 70
1
 10
281.332100
 20
66.023664
 30
0.0
  0
SPLINE
  5
108
100
AcDbEntity
  8
open-2
 62
7
100
AcDbSpline
 70
8
 71
3
 72
8
 73
4
 74
0
 40
0
 40
0
 40
0
 40
0
 40
1
 40
1
 40
1
 40
1
 10
152.114280
 20
156.166172
 30
0.0
 10
188.646430
 20
156.165992
 30
0.0
 10
225.178570
 20
156.165922
 30
0.0
 10
261.710690
 20
156.167212
 30
0.0
  0
SPLINE
  5
109
100
AcDbEntity
  8
open-2
 62
7
100
AcDbSpline
 70
8
 71
3
 72
8
 73
4
 74
0
 40
0
 40
0
 40
0
 40
0
 40
1
 40
1
 40
1
 40
1
 10
261.710690
 20
156.167212
 30
0.0
 10
263.870880
 20
156.191174
 30
0.0
 10
266.042070
 20
155.881762
 30
0.0
 10
268.079970
 20
155.152820
 30
0.0
  0
SPLINE
  5
10a
100
AcDbEntity
  8
open-2
 62
7
100
AcDbSpline
 70
8
 71
3
 72
8
 73
4
 74
0
 40
0
 40
0
 40
0
 40
0
 40
1
 40
1
 40
1
 40
1
 10
268.079970
 20
155.152820
 30
0.0
 10
272.030410
 20
153.771052
 30
0.0
 10
275.477060
 20
150.971573
 30
0.0
 10
277.586370
 20
147.351824
 30
0.0
  0
SPLINE
  5
10b
100
AcDbEntity
  8
open-2
 62
7
100
AcDbSpline
 70
8
 71
3
 72
8
 73
4
 74
0
 40
0
 40
0
 40
0
 40
0
 40
1
 40
1
 40
1
 40
1
 10
277.586370
 20
147.351824
 30
0.0
 10
279.127890
 20
144.748851
 30
0.0
 10
280.006920
 20
141.754096
 30
0.0
 10
280.086820
 20
138.728360
 30
0.0
  0
SPLINE
  5
10c
100
AcDbEntity
  8
open-2
 62
7
100
AcDbSpline
 70
8
 71
3
 72
8
 73
4
 74
0
 40
0
 40
0
 40
0
 40
0
 40
1
 40
1
 40
1
 40
1
 10
280.086820
 20
138.728360
 30
0.0
 10
280.102820
 20
116.627052
 30
0.0
 10
280.089820
 20
94.525520
 30
0.0
 10
280.093820
 20
72.424123
 30
0.0
  0
SPLINE
  5
10d
100
AcDbEntity
  8
open-2
 62
7
100
AcDbSpline
 70
8
 71
3
 72
8
 73
4
 74
0
 40
0
 40
0
 40
0
 40
0
 40
1
 40
1
 40
1
 40
1
 10
280.093820
 20
72.424123
 30
0.0
 10
280.138120
 20
70.581250
 30
0.0
 10
280.024920
 20
68.717647
 30
0.0
 10
279.516980
 20
66.937011
 30
0.0
  0
SPLINE
  5
10e
100
AcDbEntity
  8
open-2
 62
7
100
AcDbSpline
 70
8
 71
3
 72
8
 73
4
 74
0
 40
0
 40
0
 40
0
 40
0
 40
1
 40
1
 40
1
 40
1
 10
279.516980
 20
66.937011
 30
0.0
 10
279.191960
 20
65.817559
 30
0.0
 10
278.801440
 20
64.695980
 30
0.0
 10
278.168850
 20
63.709592
 30
0.0
  0
SPLINE
  5
10f
100
AcDbEntity
  8
open-2
 62
7
100
AcDbSpline
 70
8
 71
3
 72
8
 73
4
 74
0
 40
0
 40
0
 40
0
 40
0
 40
1
 40
1
 40
1
 40
1
 10
278.168850
 20
63.709592
 30
0.0
 10
277.266830
 20
62.066331
 30
0.0
 10
276.127850
 20
60.545795
 30
0.0
 10
274.726330
 20
59.294540
 30
0.0
  0
SPLINE
  5
110
100
AcDbEntity
  8
open-2
 62
7
100
AcDbSpline
 70
8
 71
3
 72
8
 73
4
 74
0
 40
0
 40
0
 40
0
 40
0
 40
1
 40
1
 40
1
 40
1
 10
274.726330
 20
59.294540
 30
0.0
 10
271.500740
 20
56.369530
 30
0.0
 10
267.402240
 20
54.568350
 30
0.0
 10
263.203810
 20
53.552130
 30
0.0
  0
SPLINE
  5
111
100
AcDbEntity
  8
open-2
 62
7
100
AcDbSpline
 70
8
 71
3
 72
8
 73
4
 74
0
 40
0
 40
0
 40
0
 40
0
 40
1
 40
1
 40
1
 40
1
 10
263.203810
 20
53.552130
 30
0.0
 10
253.933280
 20
51.543460
 30
0.0
 10
244.659950
 20
49.541760
 30
0.0
 10
235.386140
 20
47.545990
 30
0.0
  0
SPLINE
  5
112
100
AcDbEntity
  8
open-2
 62
7
100
AcDbSpline
 70
8
 71
3
 72
8
 73
4
 74
0
 40
0
 40
0
 40
0
 40
0
 40
1
 40
1
 40
1
 40
1
 10
235.386140
 20
47.545990
 30
0.0
 10
230.569180
 20
46.490610
 30
0.0
 10
225.736250
 20
45.510880
 30
0.0
 10
220.902970
 20
44.533710
 30
0.0
  0
SPLINE
  5
113
100
AcDbEntity
  8
open-2
 62
7
100
AcDbSpline
 70
8
 71
3
 72
8
 73
4
 74
0
 40
0
 40
0
 40
0
 40
0
 40
1
 40
1
 40
1
 40
1
 10
220.902970
 20
44.533710
 30
0.0
 10
204.830490
 20
41.216360
 30
0.0
 10
188.766660
 20
37.854600
 30
0.0
 10
172.660210
 20
34.704710
 30
0.0
  0
SPLINE
  5
114
100
AcDbEntity
  8
open-2
 62
7
100
AcDbSpline
 70
8
 71
3
 72
8
 73
4
 74
0
 40
0
 40
0
 40
0
 40
0
 40
1
 40
1
 40
1
 40
1
 10
172.660210
 20
34.704710
 30
0.0
 10
165.094220
 20
33.238020
 30
0.0
 10
157.529760
 20
31.754300
 30
0.0
 10
149.925940
 20
30.494030
 30
0.0
  0
SPLINE
  5
115
100
AcDbEntity
  8
open-2
 62
7
100
AcDbSpline
 70
8
 71
3
 72
8
 73
4
 74
0
 40
0
 40
0
 40
0
 40
0
 40
1
 40
1
 40
1
 40
1
 10
149.925940
 20
30.494030
 30
0.0
 10
147.634840
 20
30.126750
 30
0.0
 10
145.344290
 20
29.737110
 30
0.0
 10
143.033290
 20
29.515710
 30
0.0
  0
SPLINE
  5
116
100
AcDbEntity
  8
open-2
 62
7
100
AcDbSpline
 70
8
 71
3
 72
8
 73
4
 74
0
 40
0
 40
0
 40
0
 40
0
 40
1
 40
1
 40
1
 40
1
 10
143.033290
 20
29.515710
 30
0.0
 10
141.897850
 20
29.376430
 30
0.0
 10
140.756290
 20
29.522710
 30
0.0
 10
139.627690
 20
29.654980
 30
0.0
  0
SPLINE
  5
117
100
AcDbEntity
  8
open-2
 62
7
100
AcDbSpline
 70
8
 71
3
 72
8
 73
4
 74
0
 40
0
 40
0
 40
0
 40
0
 40
1
 40
1
 40
1
 40
1
 10
139.627690
 20
29.654980
 30
0.0
 10
135.013660
 20
30.269360
 30
0.0
 10
130.431250
 20
31.098030
 30
0.0
 10
125.853010
 20
31.933710
 30
0.0
  0
SPLINE
  5
118
100
AcDbEntity
  8
open-2
 62
7
100
AcDbSpline
 70
8
 71
3
 72
8
 73
4
 74
0
 40
0
 40
0
 40
0
 40
0
 40
1
 40
1
 40
1
 40
1
 10
125.853010
 20
31.933710
 30
0.0
 10
110.496490
 20
34.780980
 30
0.0
 10
95.194987
 20
37.915420
 30
0.0
 10
79.899864
 20
41.073190
 30
0.0
  0
SPLINE
  5
119
100
AcDbEntity
  8
open-2
 62
7
100
AcDbSpline
 70
8
 71
3
 72
8
 73
4
 74
0
 40
0
 40
0
 40
0
 40
0
 40
1
 40
1
 40
1
 40
1
 10
79.899864
 20
41.073190
 30
0.0
 10
72.159489
 20
42.683240
 30
0.0
 10
64.419194
 20
44.293800
 30
0.0
 10
56.670432
 20
45.863150
 30
0.0
  0
SPLINE
  5
11a
100
AcDbEntity
  8
open-2
 62
7
100
AcDbSpline
 70
8
 71
3
 72
8
 73
4
 74
0
 40
0
 40
0
 40
0
 40
0
 40
1
 40
1
 40
1
 40
1
 10
56.670432
 20
45.863150
 30
0.0
 10
47.366629
 20
47.813020
 30
0.0
 10
38.082633
 20
49.856270
 30
0.0
 10
28.791503
 20
51.865480
 30
0.0
  0
SPLINE
  5
11b
100
AcDbEntity
  8
open-2
 62
7
100
AcDbSpline
 70
8
 71
3
 72
8
 73
4
 74
0
 40
0
 40
0
 40
0
 40
0
 40
1
 40
1
 40
1
 40
1
 10
28.791503
 20
51.865480
 30
0.0
 10
26.205371
 20
52.434900
 30
0.0
 10
23.611881
 20
52.971430
 30
0.0
 10
21.027994
 20
53.549220
 30
0.0
  0
SPLINE
  5
11c
100
AcDbEntity
  8
open-2
 62
7
100
AcDbSpline
 70
8
 71
3
 72
8
 73
4
 74
0
 40
0
 40
0
 40
0
 40
0
 40
1
 40
1
 40
1
 40
1
 10
21.027994
 20
53.549220
 30
0.0
 10
19.987150
 20
53.780390
 30
0.0
 10
18.980027
 20
54.128690
 30
0.0
 10
17.972618
 20
54.472130
 30
0.0
  0
SPLINE
  5
11d
100
AcDbEntity
  8
open-2
 62
7
100
AcDbSpline
 70
8
 71
3
 72
8
 73
4
 74
0
 40
0
 40
0
 40
0
 40
0
 40
1
 40
1
 40
1
 40
1
 10
17.972618
 20
54.472130
 30
0.0
 10
15.851714
 20
55.106620
 30
0.0
 10
13.918416
 20
56.213980
 30
0.0
 10
12.024674
 20
57.335710
 30
0.0
  0
SPLINE
  5
11e
100
AcDbEntity
  8
open-2
 62
7
100
AcDbSpline
 70
8
 71
3
 72
8
 73
4
 74
0
 40
0
 40
0
 40
0
 40
0
 40
1
 40
1
 40
1
 40
1
 10
12.024674
 20
57.335710
 30
0.0
 10
10.961664
 20
58.029240
 30
0.0
 10
9.936938
 20
58.806810
 30
0.0
 10
9.057184
 20
59.728440
 30
0.0
  0
SPLINE
  5
11f
100
AcDbEntity
  8
open-2
 62
7
100
AcDbSpline
 70
8
 71
3
 72
8
 73
4
 74
0
 40
0
 40
0
 40
0
 40
0
 40
1
 40
1
 40
1
 40
1
 10
9.057184
 20
59.728440
 30
0.0
 10
8.545748
 20
60.322126
 30
0.0
 10
7.999508
 20
60.884348
 30
0.0
 10
7.474548
 20
61.466180
 30
0.0
  0
SPLINE
  5
120
100
AcDbEntity
  8
open-2
 62
7
100
AcDbSpline
 70
8
 71
3
 72
8
 73
4
 74
0
 40
0
 40
0
 40
0
 40
0
 40
1
 40
1
 40
1
 40
1
 10
7.474548
 20
61.466180
 30
0.0
 10
5.367591
 20
64.059935
 30
0.0
 10
4.195705
 20
67.376675
 30
0.0
 10
4.101098
 20
70.710237
 30
0.0
  0
SPLINE
  5
121
100
AcDbEntity
  8
open-2
 62
7
100
AcDbSpline
 70
8
 71
3
 72
8
 73
4
 74
0
 40
0
 40
0
 40
0
 40
0
 40
1
 40
1
 40
1
 40
1
 10
4.101098
 20
70.710237
 30
0.0
 10
4.084878
 20
91.027628
 30
0.0
 10
4.098148
 20
111.345244
 30
0.0
 10
4.094018
 20
131.662719
 30
0.0
  0
SPLINE
  5
122
100
AcDbEntity
  8
open-2
 62
7
100
AcDbSpline
 70
8
 71
3
 72
8
 73
4
 74
0
 40
0
 40
0
 40
0
 40
0
 40
1
 40
1
 40
1
 40
1
 10
4.094018
 20
131.662719
 30
0.0
 10
4.106978
 20
134.020210
 30
0.0
 10
4.074797
 20
136.378157
 30
0.0
 10
4.108428
 20
138.735404
 30
0.0
  0
SPLINE
  5
123
100
AcDbEntity
  8
open-2
 62
7
100
AcDbSpline
 70
8
 71
3
 72
8
 73
4
 74
0
 40
0
 40
0
 40
0
 40
0
 40
1
 40
1
 40
1
 40
1
 10
4.108428
 20
138.735404
 30
0.0
 10
4.215466
 20
143.450494
 30
0.0
 10
6.308197
 20
148.071739
 30
0.0
 10
9.749738
 20
151.291773
 30
0.0
  0
SPLINE
  5
124
100
AcDbEntity
  8
open-2
 62
7
100
AcDbSpline
 70
8
 71
3
 72
8
 73
4
 74
0
 40
0
 40
0
 40
0
 40
0
 40
1
 40
1
 40
1
 40
1
 10
9.749738
 20
151.291773
 30
0.0
 10
9.963739
 20
151.500260
 30
0.0
 10
10.439048
 20
151.906776
 30
0.0
 10
10.513769
 20
151.968970
 30
0.0
  0
SPLINE
  5
125
100
AcDbEntity
  8
open-2
 62
7
100
AcDbSpline
 70
8
 71
3
 72
8
 73
4
 74
0
 40
0
 40
0
 40
0
 40
0
 40
1
 40
1
 40
1
 40
1
 10
10.513769
 20
151.968970
 30
0.0
 10
13.720377
 20
154.676838
 30
0.0
 10
17.907988
 20
156.187055
 30
0.0
 10
22.103613
 20
156.166235
 30
0.0
  0
LWPOLYLINE
  5
126
100
AcDbEntity
  8
open-2
 62
7
100
AcDbPolyline
 90
1
 70
1
 10
281.349690
 20
66.070533
 30
0.0
  0
SPLINE
  5
127
100
AcDbEntity
  8
open-2
 62
7
100
AcDbSpline
 70
8
 71
3
 72
8
 73
4
 74
0
 40
0
 40
0
 40
0
 40
0
 40
1
 40
1
 40
1
 40
1
 10
67.418690
 20
156.166235
 30
0.0
 10
88.983952
 20
156.166452
 30
0.0
 10
110.549220
 20
156.166380
 30
0.0
 10
132.114490
 20
156.166271
 30
0.0
  0
LWPOLYLINE
  5
128
100
AcDbEntity
  8
open-2
 62
7
100
AcDbPolyline
 90
3
 70
0
 10
22.103613
 20
156.166235
 30
0.0
 10
22.103894
 20
156.166235
 30
0.0
 10
67.418690
 20
156.166235
 30
0.0
  0
SPLINE
  5
129
100
AcDbEntity
  8
open-2
 62
7
100
AcDbSpline
 70
8
 71
3
 72
8
 73
4
 74
0
 40
0
 40
0
 40
0
 40
0
 40
1
 40
1
 40
1
 40
1
 10
22.093811
 20
147.165616
 30
0.0
 10
19.578497
 20
147.183026
 30
0.0
 10
17.082243
 20
146.082623
 30
0.0
 10
15.406102
 20
144.205723
 30
0.0
  0
SPLINE
  5
12a
100
AcDbEntity
  8
open-2
 62
7
100
AcDbSpline
 70
8
 71
3
 72
8
 73
4
 74
0
 40
0
 40
0
 40
0
 40
0
 40
1
 40
1
 40
1
 40
1
 10
15.406102
 20
144.205723
 30
0.0
 10
13.866419
 20
142.517826
 30
0.0
 10
13.031939
 20
140.224551
 30
0.0
 10
13.093812
 20
137.943326
 30
0.0
  0
SPLINE
  5
12b
100
AcDbEntity
  8
open-2
 62
7
100
AcDbSpline
 70
8
 71
3
 72
8
 73
4
 74
0
 40
0
 40
0
 40
0
 40
0
 40
1
 40
1
 40
1
 40
1
 10
13.093812
 20
137.943326
 30
0.0
 10
13.094812
 20
115.667247
 30
0.0
 10
13.091712
 20
93.391140
 30
0.0
 10
13.095412
 20
71.115081
 30
0.0
  0
SPLINE
  5
12c
100
AcDbEntity
  8
open-2
 62
7
100
AcDbSpline
 70
8
 71
3
 72
8
 73
4
 74
0
 40
0
 40
0
 40
0
 40
0
 40
1
 40
1
 40
1
 40
1
 10
13.095412
 20
71.115081
 30
0.0
 10
13.114162
 20
69.364500
 30
0.0
 10
13.879252
 20
67.673051
 30
0.0
 10
15.072493
 20
66.408453
 30
0.0
  0
SPLINE
  5
12d
100
AcDbEntity
  8
open-2
 62
7
100
AcDbSpline
 70
8
 71
3
 72
8
 73
4
 74
0
 40
0
 40
0
 40
0
 40
0
 40
1
 40
1
 40
1
 40
1
 10
15.072493
 20
66.408453
 30
0.0
 10
16.734500
 20
64.629847
 30
0.0
 10
18.995135
 20
63.545900
 30
0.0
 10
21.281635
 20
62.807921
 30
0.0
  0
SPLINE
  5
12e
100
AcDbEntity
  8
open-2
 62
7
100
AcDbSpline
 70
8
 71
3
 72
8
 73
4
 74
0
 40
0
 40
0
 40
0
 40
0
 40
1
 40
1
 40
1
 40
1
 10
21.281635
 20
62.807921
 30
0.0
 10
23.176041
 20
62.194361
 30
0.0
 10
25.147661
 20
61.890579
 30
0.0
 10
27.092635
 20
61.487042
 30
0.0
  0
SPLINE
  5
12f
100
AcDbEntity
  8
open-2
 62
7
100
AcDbSpline
 70
8
 71
3
 72
8
 73
4
 74
0
 40
0
 40
0
 40
0
 40
0
 40
1
 40
1
 40
1
 40
1
 10
27.092635
 20
61.487042
 30
0.0
 10
65.396408
 20
53.879900
 30
0.0
 10
103.700200
 20
46.272760
 30
0.0
 10
142.003990
 20
38.665620
 30
0.0
  0
SPLINE
  5
130
100
AcDbEntity
  8
open-2
 62
7
100
AcDbSpline
 70
8
 71
3
 72
8
 73
4
 74
0
 40
0
 40
0
 40
0
 40
0
 40
1
 40
1
 40
1
 40
1
 10
142.003990
 20
38.665620
 30
0.0
 10
181.406260
 20
46.479490
 30
0.0
 10
220.809110
 20
54.290490
 30
0.0
 10
260.211030
 20
62.106143
 30
0.0
  0
SPLINE
  5
131
100
AcDbEntity
  8
open-2
 62
7
100
AcDbSpline
 70
8
 71
3
 72
8
 73
4
 74
0
 40
0
 40
0
 40
0
 40
0
 40
1
 40
1
 40
1
 40
1
 10
260.211030
 20
62.106143
 30
0.0
 10
262.843990
 20
62.660906
 30
0.0
 10
265.474820
 20
63.531094
 30
0.0
 10
267.671310
 20
65.126965
 30
0.0
  0
SPLINE
  5
132
100
AcDbEntity
  8
open-2
 62
7
100
AcDbSpline
 70
8
 71
3
 72
8
 73
4
 74
0
 40
0
 40
0
 40
0
 40
0
 40
1
 40
1
 40
1
 40
1
 10
267.671310
 20
65.126965
 30
0.0
 10
269.220210
 20
66.250227
 30
0.0
 10
270.509020
 20
67.848782
 30
0.0
 10
270.926500
 20
69.747585
 30
0.0
  0
SPLINE
  5
133
100
AcDbEntity
  8
open-2
 62
7
100
AcDbSpline
 70
8
 71
3
 72
8
 73
4
 74
0
 40
0
 40
0
 40
0
 40
0
 40
1
 40
1
 40
1
 40
1
 10
270.926500
 20
69.747585
 30
0.0
 10
271.171880
 20
70.777309
 30
0.0
 10
271.073380
 20
71.840164
 30
0.0
 10
271.093850
 20
72.887943
 30
0.0
  0
LWPOLYLINE
  5
134
100
AcDbEntity
  8
open-2
 62
7
100
AcDbPolyline
 90
5
 70
0
 10
132.114490
 20
156.166271
 30
0.0
 10
132.114550
 20
147.165616
 30
0.0
 10
22.093838
 20
147.165616
 30
0.0
 10
22.093811
 20
147.165616
 30
0.0
 10
22.093811
 20
147.165616
 30
0.0
  0
SPLINE
  5
135
100
AcDbEntity
  8
open-2
 62
7
100
AcDbSpline
 70
8
 71
3
 72
8
 73
4
 74
0
 40
0
 40
0
 40
0
 40
0
 40
1
 40
1
 40
1
 40
1
 10
271.093850
 20
138.282429
 30
0.0
 10
271.080050
 20
140.858384
 30
0.0
 10
269.889020
 20
143.396824
 30
0.0
 10
267.911080
 20
145.048185
 30
0.0
  0
SPLINE
  5
136
100
AcDbEntity
  8
open-2
 62
7
100
AcDbSpline
 70
8
 71
3
 72
8
 73
4
 74
0
 40
0
 40
0
 40
0
 40
0
 40
1
 40
1
 40
1
 40
1
 10
267.911080
 20
145.048185
 30
0.0
 10
266.237150
 20
146.476856
 30
0.0
 10
264.023990
 20
147.230490
 30
0.0
 10
261.827820
 20
147.165616
 30
0.0
  0
LWPOLYLINE
  5
137
100
AcDbEntity
  8
open-2
 62
7
100
AcDbPolyline
 90
2
 70
0
 10
271.093850
 20
72.887943
 30
0.0
 10
271.093850
 20
138.282429
 30
0.0
  0
SPLINE
  5
138
100
AcDbEntity
  8
open-2
 62
7
100
AcDbSpline
 70
8
 71
3
 72
8
 73
4
 74
0
 40
0
 40
0
 40
0
 40
0
 40
1
 40
1
 40
1
 40
1
 10
470.922369
 20
136.013931
 30
0.0
 10
468.247185
 20
136.013931
 30
0.0
 10
465.835418
 20
134.402439
 30
0.0
 10
464.811669
 20
131.930892
 30
0.0
  0
SPLINE
  5
139
100
AcDbEntity
  8
open-2
 62
7
100
AcDbSpline
 70
8
 71
3
 72
8
 73
4
 74
0
 40
0
 40
0
 40
0
 40
0
 40
1
 40
1
 40
1
 40
1
 10
464.811669
 20
131.930892
 30
0.0
 10
463.787921
 20
129.459345
 30
0.0
 10
464.353801
 20
126.614471
 30
0.0
 10
466.245442
 20
124.722831
 30
0.0
  0
SPLINE
  5
13a
100
AcDbEntity
  8
open-2
 62
7
100
AcDbSpline
 70
8
 71
3
 72
8
 73
4
 74
0
 40
0
 40
0
 40
0
 40
0
 40
1
 40
1
 40
1
 40
1
 10
466.245442
 20
124.722831
 30
0.0
 10
468.137082
 20
122.831191
 30
0.0
 10
470.981956
 20
122.265310
 30
0.0
 10
473.453503
 20
123.289058
 30
0.0
  0
SPLINE
  5
13b
100
AcDbEntity
  8
open-2
 62
7
100
AcDbSpline
 70
8
 71
3
 72
8
 73
4
 74
0
 40
0
 40
0
 40
0
 40
0
 40
1
 40
1
 40
1
 40
1
 10
473.453503
 20
123.289058
 30
0.0
 10
475.925050
 20
124.312807
 30
0.0
 10
477.536542
 20
126.724574
 30
0.0
 10
477.536542
 20
129.399758
 30
0.0
  0
SPLINE
  5
13c
100
AcDbEntity
  8
open-2
 62
7
100
AcDbSpline
 70
8
 71
3
 72
8
 73
4
 74
0
 40
0
 40
0
 40
0
 40
0
 40
1
 40
1
 40
1
 40
1
 10
477.536542
 20
129.399758
 30
0.0
 10
477.536542
 20
131.153945
 30
0.0
 10
476.839693
 20
132.836286
 30
0.0
 10
475.599295
 20
134.076684
 30
0.0
  0
SPLINE
  5
13d
100
AcDbEntity
  8
open-2
 62
7
100
AcDbSpline
 70
8
 71
3
 72
8
 73
4
 74
0
 40
0
 40
0
 40
0
 40
0
 40
1
 40
1
 40
1
 40
1
 10
475.599295
 20
134.076684
 30
0.0
 10
474.358897
 20
135.317082
 30
0.0
 10
472.676556
 20
136.013931
 30
0.0
 10
470.922369
 20
136.013931
 30
0.0
  0
LWPOLYLINE
  5
13e
100
AcDbEntity
  8
open-2
 62
7
100
AcDbPolyline
 90
3
 70
0
 10
261.827820
 20
147.165616
 30
0.0
 10
152.114370
 20
147.165616
 30
0.0
 10
152.114280
 20
156.166172
 30
0.0
  0
SPLINE
  5
13f
100
AcDbEntity
  8
open-2
 62
7
100
AcDbSpline
 70
8
 71
3
 72
8
 73
4
 74
0
 40
0
 40
0
 40
0
 40
0
 40
1
 40
1
 40
1
 40
1
 10
29.759108
 20
-22.427830
 30
0.0
 10
27.083925
 20
-22.427830
 30
0.0
 10
24.672157
 20
-24.039321
 30
0.0
 10
23.648409
 20
-26.510869
 30
0.0
  0
SPLINE
  5
140
100
AcDbEntity
  8
open-2
 62
7
100
AcDbSpline
 70
8
 71
3
 72
8
 73
4
 74
0
 40
0
 40
0
 40
0
 40
0
 40
1
 40
1
 40
1
 40
1
 10
23.648409
 20
-26.510869
 30
0.0
 10
22.624660
 20
-28.982416
 30
0.0
 10
23.190541
 20
-31.827290
 30
0.0
 10
25.082181
 20
-33.718930
 30
0.0
  0
SPLINE
  5
141
100
AcDbEntity
  8
open-2
 62
7
100
AcDbSpline
 70
8
 71
3
 72
8
 73
4
 74
0
 40
0
 40
0
 40
0
 40
0
 40
1
 40
1
 40
1
 40
1
 10
25.082181
 20
-33.718930
 30
0.0
 10
26.973822
 20
-35.610570
 30
0.0
 10
29.818695
 20
-36.176451
 30
0.0
 10
32.290243
 20
-35.152702
 30
0.0
  0
SPLINE
  5
142
100
AcDbEntity
  8
open-2
 62
7
100
AcDbSpline
 70
8
 71
3
 72
8
 73
4
 74
0
 40
0
 40
0
 40
0
 40
0
 40
1
 40
1
 40
1
 40
1
 10
32.290243
 20
-35.152702
 30
0.0
 10
34.761790
 20
-34.128954
 30
0.0
 10
36.373281
 20
-31.717187
 30
0.0
 10
36.373281
 20
-29.042003
 30
0.0
  0
SPLINE
  5
143
100
AcDbEntity
  8
open-2
 62
7
100
AcDbSpline
 70
8
 71
3
 72
8
 73
4
 74
0
 40
0
 40
0
 40
0
 40
0
 40
1
 40
1
 40
1
 40
1
 10
36.373281
 20
-29.042003
 30
0.0
 10
36.373281
 20
-27.287815
 30
0.0
 10
35.676433
 20
-25.605475
 30
0.0
 10
34.436035
 20
-24.365076
 30
0.0
  0
SPLINE
  5
144
100
AcDbEntity
  8
open-2
 62
7
100
AcDbSpline
 70
8
 71
3
 72
8
 73
4
 74
0
 40
0
 40
0
 40
0
 40
0
 40
1
 40
1
 40
1
 40
1
 10
34.436035
 20
-24.365076
 30
0.0
 10
33.195637
 20
-23.124678
 30
0.0
 10
31.513296
 20
-22.427830
 30
0.0
 10
29.759108
 20
-22.427830
 30
0.0
  0
LWPOLYLINE
  5
145
100
AcDbEntity
  8
open-2
 62
7
100
AcDbPolyline
 90
1
 70
1
 10
470.922369
 20
136.013931
 30
0.0
  0
SPLINE
  5
146
100
AcDbEntity
  8
open-2
 62
7
100
AcDbSpline
 70
8
 71
3
 72
8
 73
4
 74
0
 40
0
 40
0
 40
0
 40
0
 40
1
 40
1
 40
1
 40
1
 10
1044.341783
 20
-22.427830
 30
0.0
 10
1041.666599
 20
-22.427830
 30
0.0
 10
1039.254832
 20
-24.039321
 30
0.0
 10
1038.231083
 20
-26.510869
 30
0.0
  0
SPLINE
  5
147
100
AcDbEntity
  8
open-2
 62
7
100
AcDbSpline
 70
8
 71
3
 72
8
 73
4
 74
0
 40
0
 40
0
 40
0
 40
0
 40
1
 40
1
 40
1
 40
1
 10
1038.231083
 20
-26.510869
 30
0.0
 10
1037.207335
 20
-28.982416
 30
0.0
 10
1037.773216
 20
-31.827290
 30
0.0
 10
1039.664856
 20
-33.718930
 30
0.0
  0
SPLINE
  5
148
100
AcDbEntity
  8
open-2
 62
7
100
AcDbSpline
 70
8
 71
3
 72
8
 73
4
 74
0
 40
0
 40
0
 40
0
 40
0
 40
1
 40
1
 40
1
 40
1
 10
1039.664856
 20
-33.718930
 30
0.0
 10
1041.556496
 20
-35.610570
 30
0.0
 10
1044.401370
 20
-36.176451
 30
0.0
 10
1046.872917
 20
-35.152702
 30
0.0
  0
SPLINE
  5
149
100
AcDbEntity
  8
open-2
 62
7
100
AcDbSpline
 70
8
 71
3
 72
8
 73
4
 74
0
 40
0
 40
0
 40
0
 40
0
 40
1
 40
1
 40
1
 40
1
 10
1046.872917
 20
-35.152702
 30
0.0
 10
1049.344464
 20
-34.128954
 30
0.0
 10
1050.955956
 20
-31.717187
 30
0.0
 10
1050.955956
 20
-29.042003
 30
0.0
  0
SPLINE
  5
14a
100
AcDbEntity
  8
open-2
 62
7
100
AcDbSpline
 70
8
 71
3
 72
8
 73
4
 74
0
 40
0
 40
0
 40
0
 40
0
 40
1
 40
1
 40
1
 40
1
 10
1050.955956
 20
-29.042003
 30
0.0
 10
1050.955956
 20
-27.287815
 30
0.0
 10
1050.259108
 20
-25.605475
 30
0.0
 10
1049.018709
 20
-24.365076
 30
0.0
  0
SPLINE
  5
14b
100
AcDbEntity
  8
open-2
 62
7
100
AcDbSpline
 70
8
 71
3
 72
8
 73
4
 74
0
 40
0
 40
0
 40
0
 40
0
 40
1
 40
1
 40
1
 40
1
 10
1049.018709
 20
-24.365076
 30
0.0
 10
1047.778311
 20
-23.124678
 30
0.0
 10
1046.095970
 20
-22.427830
 30
0.0
 10
1044.341783
 20
-22.427830
 30
0.0
  0
LWPOLYLINE
  5
14c
100
AcDbEntity
  8
open-2
 62
7
100
AcDbPolyline
 90
1
 70
1
 10
29.759108
 20
-22.427830
 30
0.0
  0
SPLINE
  5
14d
100
AcDbEntity
  8
open-2
 62
7
100
AcDbSpline
 70
8
 71
3
 72
8
 73
4
 74
0
 40
0
 40
0
 40
0
 40
0
 40
1
 40
1
 40
1
 40
1
 10
48.402671
 20
118.502124
 30
0.0
 10
44.749764
 20
118.502124
 30
0.0
 10
41.788498
 20
115.540858
 30
0.0
 10
41.788498
 20
111.887951
 30
0.0
  0
SPLINE
  5
14e
100
AcDbEntity
  8
open-2
 62
7
100
AcDbSpline
 70
8
 71
3
 72
8
 73
4
 74
0
 40
0
 40
0
 40
0
 40
0
 40
1
 40
1
 40
1
 40
1
 10
41.788498
 20
111.887951
 30
0.0
 10
41.788498
 20
108.235044
 30
0.0
 10
44.749764
 20
105.273778
 30
0.0
 10
48.402671
 20
105.273778
 30
0.0
  0
SPLINE
  5
14f
100
AcDbEntity
  8
open-2
 62
7
100
AcDbSpline
 70
8
 71
3
 72
8
 73
4
 74
0
 40
0
 40
0
 40
0
 40
0
 40
1
 40
1
 40
1
 40
1
 10
48.402671
 20
105.273778
 30
0.0
 10
52.055578
 20
105.273778
 30
0.0
 10
55.016844
 20
108.235044
 30
0.0
 10
55.016844
 20
111.887951
 30
0.0
  0
SPLINE
  5
150
100
AcDbEntity
  8
open-2
 62
7
100
AcDbSpline
 70
8
 71
3
 72
8
 73
4
 74
0
 40
0
 40
0
 40
0
 40
0
 40
1
 40
1
 40
1
 40
1
 10
55.016844
 20
111.887951
 30
0.0
 10
55.016844
 20
113.642139
 30
0.0
 10
54.319996
 20
115.324480
 30
0.0
 10
53.079598
 20
116.564878
 30
0.0
  0
SPLINE
  5
151
100
AcDbEntity
  8
open-2
 62
7
100
AcDbSpline
 70
8
 71
3
 72
8
 73
4
 74
0
 40
0
 40
0
 40
0
 40
0
 40
1
 40
1
 40
1
 40
1
 10
53.079598
 20
116.564878
 30
0.0
 10
51.839200
 20
117.805276
 30
0.0
 10
50.156859
 20
118.502124
 30
0.0
 10
48.402671
 20
118.502124
 30
0.0
  0
LWPOLYLINE
  5
152
100
AcDbEntity
  8
open-2
 62
7
100
AcDbPolyline
 90
1
 70
1
 10
1044.341783
 20
-22.427830
 30
0.0
  0
SPLINE
  5
153
100
AcDbEntity
  8
open-2
 62
7
100
AcDbSpline
 70
8
 71
3
 72
8
 73
4
 74
0
 40
0
 40
0
 40
0
 40
0
 40
1
 40
1
 40
1
 40
1
 10
1025.851540
 20
118.501259
 30
0.0
 10
1023.176357
 20
118.501259
 30
0.0
 10
1020.764589
 20
116.889767
 30
0.0
 10
1019.740841
 20
114.418220
 30
0.0
  0
SPLINE
  5
154
100
AcDbEntity
  8
open-2
 62
7
100
AcDbSpline
 70
8
 71
3
 72
8
 73
4
 74
0
 40
0
 40
0
 40
0
 40
0
 40
1
 40
1
 40
1
 40
1
 10
1019.740841
 20
114.418220
 30
0.0
 10
1018.717093
 20
111.946673
 30
0.0
 10
1019.282973
 20
109.101799
 30
0.0
 10
1021.174613
 20
107.210159
 30
0.0
  0
SPLINE
  5
155
100
AcDbEntity
  8
open-2
 62
7
100
AcDbSpline
 70
8
 71
3
 72
8
 73
4
 74
0
 40
0
 40
0
 40
0
 40
0
 40
1
 40
1
 40
1
 40
1
 10
1021.174613
 20
107.210159
 30
0.0
 10
1023.066254
 20
105.318518
 30
0.0
 10
1025.911128
 20
104.752638
 30
0.0
 10
1028.382675
 20
105.776386
 30
0.0
  0
SPLINE
  5
156
100
AcDbEntity
  8
open-2
 62
7
100
AcDbSpline
 70
8
 71
3
 72
8
 73
4
 74
0
 40
0
 40
0
 40
0
 40
0
 40
1
 40
1
 40
1
 40
1
 10
1028.382675
 20
105.776386
 30
0.0
 10
1030.854222
 20
106.800134
 30
0.0
 10
1032.465713
 20
109.211902
 30
0.0
 10
1032.465713
 20
111.887085
 30
0.0
  0
SPLINE
  5
157
100
AcDbEntity
  8
open-2
 62
7
100
AcDbSpline
 70
8
 71
3
 72
8
 73
4
 74
0
 40
0
 40
0
 40
0
 40
0
 40
1
 40
1
 40
1
 40
1
 10
1032.465713
 20
111.887085
 30
0.0
 10
1032.465713
 20
113.641273
 30
0.0
 10
1031.768865
 20
115.323614
 30
0.0
 10
1030.528467
 20
116.564012
 30
0.0
  0
SPLINE
  5
158
100
AcDbEntity
  8
open-2
 62
7
100
AcDbSpline
 70
8
 71
3
 72
8
 73
4
 74
0
 40
0
 40
0
 40
0
 40
0
 40
1
 40
1
 40
1
 40
1
 10
1030.528467
 20
116.564012
 30
0.0
 10
1029.288069
 20
117.804410
 30
0.0
 10
1027.605728
 20
118.501259
 30
0.0
 10
1025.851540
 20
118.501259
 30
0.0
  0
LWPOLYLINE
  5
159
100
AcDbEntity
  8
open-2
 62
7
100
AcDbPolyline
 90
1
 70
1
 10
48.402671
 20
118.502124
 30
0.0
  0
SPLINE
  5
15a
100
AcDbEntity
  8
open-2
 62
7
100
AcDbSpline
 70
8
 71
3
 72
8
 73
4
 74
0
 40
0
 40
0
 40
0
 40
0
 40
1
 40
1
 40
1
 40
1
 10
48.403506
 20
-200.109989
 30
0.0
 10
45.728323
 20
-200.109989
 30
0.0
 10
43.316555
 20
-201.721481
 30
0.0
 10
42.292807
 20
-204.193028
 30
0.0
  0
SPLINE
  5
15b
100
AcDbEntity
  8
open-2
 62
7
100
AcDbSpline
 70
8
 71
3
 72
8
 73
4
 74
0
 40
0
 40
0
 40
0
 40
0
 40
1
 40
1
 40
1
 40
1
 10
42.292807
 20
-204.193028
 30
0.0
 10
41.269059
 20
-206.664575
 30
0.0
 10
41.834939
 20
-209.509449
 30
0.0
 10
43.726579
 20
-211.401089
 30
0.0
  0
SPLINE
  5
15c
100
AcDbEntity
  8
open-2
 62
7
100
AcDbSpline
 70
8
 71
3
 72
8
 73
4
 74
0
 40
0
 40
0
 40
0
 40
0
 40
1
 40
1
 40
1
 40
1
 10
43.726579
 20
-211.401089
 30
0.0
 10
45.618220
 20
-213.292730
 30
0.0
 10
48.463094
 20
-213.858610
 30
0.0
 10
50.934641
 20
-212.834862
 30
0.0
  0
SPLINE
  5
15d
100
AcDbEntity
  8
open-2
 62
7
100
AcDbSpline
 70
8
 71
3
 72
8
 73
4
 74
0
 40
0
 40
0
 40
0
 40
0
 40
1
 40
1
 40
1
 40
1
 10
50.934641
 20
-212.834862
 30
0.0
 10
53.406188
 20
-211.811113
 30
0.0
 10
55.017679
 20
-209.399346
 30
0.0
 10
55.017679
 20
-206.724163
 30
0.0
  0
SPLINE
  5
15e
100
AcDbEntity
  8
open-2
 62
7
100
AcDbSpline
 70
8
 71
3
 72
8
 73
4
 74
0
 40
0
 40
0
 40
0
 40
0
 40
1
 40
1
 40
1
 40
1
 10
55.017679
 20
-206.724163
 30
0.0
 10
55.017679
 20
-204.969975
 30
0.0
 10
54.320831
 20
-203.287634
 30
0.0
 10
53.080433
 20
-202.047236
 30
0.0
  0
SPLINE
  5
15f
100
AcDbEntity
  8
open-2
 62
7
100
AcDbSpline
 70
8
 71
3
 72
8
 73
4
 74
0
 40
0
 40
0
 40
0
 40
0
 40
1
 40
1
 40
1
 40
1
 10
53.080433
 20
-202.047236
 30
0.0
 10
51.840035
 20
-200.806838
 30
0.0
 10
50.157694
 20
-200.109989
 30
0.0
 10
48.403506
 20
-200.109989
 30
0.0
  0
LWPOLYLINE
  5
160
100
AcDbEntity
  8
open-2
 62
7
100
AcDbPolyline
 90
1
 70
1
 10
1025.851540
 20
118.501259
 30
0.0
  0
SPLINE
  5
161
100
AcDbEntity
  8
open-2
 62
7
100
AcDbSpline
 70
8
 71
3
 72
8
 73
4
 74
0
 40
0
 40
0
 40
0
 40
0
 40
1
 40
1
 40
1
 40
1
 10
1025.852334
 20
-200.110564
 30
0.0
 10
1022.199427
 20
-200.110564
 30
0.0
 10
1019.238161
 20
-203.071830
 30
0.0
 10
1019.238161
 20
-206.724737
 30
0.0
  0
SPLINE
  5
162
100
AcDbEntity
  8
open-2
 62
7
100
AcDbSpline
 70
8
 71
3
 72
8
 73
4
 74
0
 40
0
 40
0
 40
0
 40
0
 40
1
 40
1
 40
1
 40
1
 10
1019.238161
 20
-206.724737
 30
0.0
 10
1019.238161
 20
-210.377644
 30
0.0
 10
1022.199427
 20
-213.338910
 30
0.0
 10
1025.852334
 20
-213.338910
 30
0.0
  0
SPLINE
  5
163
100
AcDbEntity
  8
open-2
 62
7
100
AcDbSpline
 70
8
 71
3
 72
8
 73
4
 74
0
 40
0
 40
0
 40
0
 40
0
 40
1
 40
1
 40
1
 40
1
 10
1025.852334
 20
-213.338910
 30
0.0
 10
1029.505241
 20
-213.338910
 30
0.0
 10
1032.466507
 20
-210.377644
 30
0.0
 10
1032.466507
 20
-206.724737
 30
0.0
  0
SPLINE
  5
164
100
AcDbEntity
  8
open-2
 62
7
100
AcDbSpline
 70
8
 71
3
 72
8
 73
4
 74
0
 40
0
 40
0
 40
0
 40
0
 40
1
 40
1
 40
1
 40
1
 10
1032.466507
 20
-206.724737
 30
0.0
 10
1032.466507
 20
-204.970549
 30
0.0
 10
1031.769659
 20
-203.288208
 30
0.0
 10
1030.529261
 20
-202.047810
 30
0.0
  0
SPLINE
  5
165
100
AcDbEntity
  8
open-2
 62
7
100
AcDbSpline
 70
8
 71
3
 72
8
 73
4
 74
0
 40
0
 40
0
 40
0
 40
0
 40
1
 40
1
 40
1
 40
1
 10
1030.529261
 20
-202.047810
 30
0.0
 10
1029.288863
 20
-200.807412
 30
0.0
 10
1027.606522
 20
-200.110564
 30
0.0
 10
1025.852334
 20
-200.110564
 30
0.0
  0
LWPOLYLINE
  5
166
100
AcDbEntity
  8
open-2
 62
7
100
AcDbPolyline
 90
1
 70
1
 10
48.403506
 20
-200.109989
 30
0.0
  0
SPLINE
  5
167
100
AcDbEntity
  8
open-2
 62
7
100
AcDbSpline
 70
8
 71
3
 72
8
 73
4
 74
0
 40
0
 40
0
 40
0
 40
0
 40
1
 40
1
 40
1
 40
1
 10
604.104151
 20
136.013931
 30
0.0
 10
601.428968
 20
136.013931
 30
0.0
 10
599.017200
 20
134.402439
 30
0.0
 10
597.993452
 20
131.930892
 30
0.0
  0
SPLINE
  5
168
100
AcDbEntity
  8
open-2
 62
7
100
AcDbSpline
 70
8
 71
3
 72
8
 73
4
 74
0
 40
0
 40
0
 40
0
 40
0
 40
1
 40
1
 40
1
 40
1
 10
597.993452
 20
131.930892
 30
0.0
 10
596.969704
 20
129.459345
 30
0.0
 10
597.535584
 20
126.614471
 30
0.0
 10
599.427224
 20
124.722831
 30
0.0
  0
SPLINE
  5
169
100
AcDbEntity
  8
open-2
 62
7
100
AcDbSpline
 70
8
 71
3
 72
8
 73
4
 74
0
 40
0
 40
0
 40
0
 40
0
 40
1
 40
1
 40
1
 40
1
 10
599.427224
 20
124.722831
 30
0.0
 10
601.318865
 20
122.831191
 30
0.0
 10
604.163739
 20
122.265310
 30
0.0
 10
606.635286
 20
123.289058
 30
0.0
  0
SPLINE
  5
16a
100
AcDbEntity
  8
open-2
 62
7
100
AcDbSpline
 70
8
 71
3
 72
8
 73
4
 74
0
 40
0
 40
0
 40
0
 40
0
 40
1
 40
1
 40
1
 40
1
 10
606.635286
 20
123.289058
 30
0.0
 10
609.106833
 20
124.312807
 30
0.0
 10
610.718324
 20
126.724574
 30
0.0
 10
610.718324
 20
129.399758
 30
0.0
  0
SPLINE
  5
16b
100
AcDbEntity
  8
open-2
 62
7
100
AcDbSpline
 70
8
 71
3
 72
8
 73
4
 74
0
 40
0
 40
0
 40
0
 40
0
 40
1
 40
1
 40
1
 40
1
 10
610.718324
 20
129.399758
 30
0.0
 10
610.718324
 20
131.153945
 30
0.0
 10
610.021476
 20
132.836286
 30
0.0
 10
608.781078
 20
134.076684
 30
0.0
  0
SPLINE
  5
16c
100
AcDbEntity
  8
open-2
 62
7
100
AcDbSpline
 70
8
 71
3
 72
8
 73
4
 74
0
 40
0
 40
0
 40
0
 40
0
 40
1
 40
1
 40
1
 40
1
 10
608.781078
 20
134.076684
 30
0.0
 10
607.540680
 20
135.317082
 30
0.0
 10
605.858339
 20
136.013931
 30
0.0
 10
604.104151
 20
136.013931
 30
0.0
  0
LWPOLYLINE
  5
16d
100
AcDbEntity
  8
open-2
 62
7
100
AcDbPolyline
 90
1
 70
1
 10
1025.852334
 20
-200.110564
 30
0.0
  0
SPLINE
  5
16e
100
AcDbEntity
  8
open-2
 62
7
100
AcDbSpline
 70
8
 71
3
 72
8
 73
4
 74
0
 40
0
 40
0
 40
0
 40
0
 40
1
 40
1
 40
1
 40
1
 10
395.333291
 20
-281.550331
 30
0.0
 10
392.658108
 20
-281.550331
 30
0.0
 10
390.246340
 20
-283.161822
 30
0.0
 10
389.222592
 20
-285.633369
 30
0.0
  0
SPLINE
  5
16f
100
AcDbEntity
  8
open-2
 62
7
100
AcDbSpline
 70
8
 71
3
 72
8
 73
4
 74
0
 40
0
 40
0
 40
0
 40
0
 40
1
 40
1
 40
1
 40
1
 10
389.222592
 20
-285.633369
 30
0.0
 10
388.198844
 20
-288.104917
 30
0.0
 10
388.764724
 20
-290.949790
 30
0.0
 10
390.656365
 20
-292.841431
 30
0.0
  0
SPLINE
  5
170
100
AcDbEntity
  8
open-2
 62
7
100
AcDbSpline
 70
8
 71
3
 72
8
 73
4
 74
0
 40
0
 40
0
 40
0
 40
0
 40
1
 40
1
 40
1
 40
1
 10
390.656365
 20
-292.841431
 30
0.0
 10
392.548005
 20
-294.733071
 30
0.0
 10
395.392879
 20
-295.298952
 30
0.0
 10
397.864426
 20
-294.275203
 30
0.0
  0
SPLINE
  5
171
100
AcDbEntity
  8
open-2
 62
7
100
AcDbSpline
 70
8
 71
3
 72
8
 73
4
 74
0
 40
0
 40
0
 40
0
 40
0
 40
1
 40
1
 40
1
 40
1
 10
397.864426
 20
-294.275203
 30
0.0
 10
400.335973
 20
-293.251455
 30
0.0
 10
401.947465
 20
-290.839687
 30
0.0
 10
401.947465
 20
-288.164504
 30
0.0
  0
SPLINE
  5
172
100
AcDbEntity
  8
open-2
 62
7
100
AcDbSpline
 70
8
 71
3
 72
8
 73
4
 74
0
 40
0
 40
0
 40
0
 40
0
 40
1
 40
1
 40
1
 40
1
 10
401.947465
 20
-288.164504
 30
0.0
 10
401.947465
 20
-284.511597
 30
0.0
 10
398.986198
 20
-281.550331
 30
0.0
 10
395.333291
 20
-281.550331
 30
0.0
  0
LWPOLYLINE
  5
173
100
AcDbEntity
  8
open-2
 62
7
100
AcDbPolyline
 90
1
 70
1
 10
604.104151
 20
136.013931
 30
0.0
  0
SPLINE
  5
174
100
AcDbEntity
  8
open-2
 62
7
100
AcDbSpline
 70
8
 71
3
 72
8
 73
4
 74
0
 40
0
 40
0
 40
0
 40
0
 40
1
 40
1
 40
1
 40
1
 10
679.697348
 20
-281.550331
 30
0.0
 10
677.022165
 20
-281.550331
 30
0.0
 10
674.610397
 20
-283.161822
 30
0.0
 10
673.586649
 20
-285.633369
 30
0.0
  0
SPLINE
  5
175
100
AcDbEntity
  8
open-2
 62
7
100
AcDbSpline
 70
8
 71
3
 72
8
 73
4
 74
0
 40
0
 40
0
 40
0
 40
0
 40
1
 40
1
 40
1
 40
1
 10
673.586649
 20
-285.633369
 30
0.0
 10
672.562900
 20
-288.104917
 30
0.0
 10
673.128781
 20
-290.949790
 30
0.0
 10
675.020421
 20
-292.841431
 30
0.0
  0
SPLINE
  5
176
100
AcDbEntity
  8
open-2
 62
7
100
AcDbSpline
 70
8
 71
3
 72
8
 73
4
 74
0
 40
0
 40
0
 40
0
 40
0
 40
1
 40
1
 40
1
 40
1
 10
675.020421
 20
-292.841431
 30
0.0
 10
676.912062
 20
-294.733071
 30
0.0
 10
679.756935
 20
-295.298952
 30
0.0
 10
682.228483
 20
-294.275203
 30
0.0
  0
SPLINE
  5
177
100
AcDbEntity
  8
open-2
 62
7
100
AcDbSpline
 70
8
 71
3
 72
8
 73
4
 74
0
 40
0
 40
0
 40
0
 40
0
 40
1
 40
1
 40
1
 40
1
 10
682.228483
 20
-294.275203
 30
0.0
 10
684.700030
 20
-293.251455
 30
0.0
 10
686.311521
 20
-290.839687
 30
0.0
 10
686.311521
 20
-288.164504
 30
0.0
  0
SPLINE
  5
178
100
AcDbEntity
  8
open-2
 62
7
100
AcDbSpline
 70
8
 71
3
 72
8
 73
4
 74
0
 40
0
 40
0
 40
0
 40
0
 40
1
 40
1
 40
1
 40
1
 10
686.311521
 20
-288.164504
 30
0.0
 10
686.311521
 20
-286.410316
 30
0.0
 10
685.614673
 20
-284.727975
 30
0.0
 10
684.374275
 20
-283.487577
 30
0.0
  0
SPLINE
  5
179
100
AcDbEntity
  8
open-2
 62
7
100
AcDbSpline
 70
8
 71
3
 72
8
 73
4
 74
0
 40
0
 40
0
 40
0
 40
0
 40
1
 40
1
 40
1
 40
1
 10
684.374275
 20
-283.487577
 30
0.0
 10
683.133877
 20
-282.247179
 30
0.0
 10
681.451536
 20
-281.550331
 30
0.0
 10
679.697348
 20
-281.550331
 30
0.0
  0
LWPOLYLINE
  5
17a
100
AcDbEntity
  8
open-2
 62
7
100
AcDbPolyline
 90
1
 70
1
 10
395.333291
 20
-281.550331
 30
0.0
  0
SPLINE
  5
17b
100
AcDbEntity
  8
open-2
 62
7
100
AcDbSpline
 70
8
 71
3
 72
8
 73
4
 74
0
 40
0
 40
0
 40
0
 40
0
 40
1
 40
1
 40
1
 40
1
 10
132.114550
 20
147.165616
 30
0.0
 10
152.114370
 20
147.165616
 30
0.0
 10
152.114370
 20
147.165616
 30
0.0
 10
152.114370
 20
147.165616
 30
0.0
  0
LWPOLYLINE
  5
17c
100
AcDbEntity
  8
open-2
 62
7
100
AcDbPolyline
 90
1
 70
1
 10
679.697348
 20
-281.550331
 30
0.0
  0
ENDSEC
  0
SECTION
  2
OBJECTS
  0
DICTIONARY
  5
C
330
0
100
AcDbDictionary
  3
ACAD_GROUP
350
D
  3
ACAD_MLINESTYLE
350
17
  0
DICTIONARY
  5
D
330
C
100
AcDbDictionary
  0
DICTIONARY
  5
1A
330
C
100
AcDbDictionary
  0
DICTIONARY
  5
17
330
C
100
AcDbDictionary
  3
STANDARD
350
18
  0
DICTIONARY
  5
19
330
C
100
AcDbDictionary
  0
ENDSEC
  0
EOF
