<?xml version="1.0" encoding="UTF-8" standalone="no"?>
<!-- Generated by SVGo -->

<svg
   width="302.077mm"
   height="160.260mm"
   viewBox="0.000 0.000 302.077 160.260"
   version="1.1"
   id="svg28"
   sodipodi:docname="open-1.svg"
   inkscape:version="1.2 (dc2aedaf03, 2022-05-15)"
   xmlns:inkscape="http://www.inkscape.org/namespaces/inkscape"
   xmlns:sodipodi="http://sodipodi.sourceforge.net/DTD/sodipodi-0.dtd"
   xmlns="http://www.w3.org/2000/svg"
   xmlns:svg="http://www.w3.org/2000/svg"
   xmlns:rdf="http://www.w3.org/1999/02/22-rdf-syntax-ns#"
   xmlns:cc="http://creativecommons.org/ns#"
   xmlns:dc="http://purl.org/dc/elements/1.1/">
  <title
     id="title946">Eliza</title>
  <defs
     id="defs32">
    <inkscape:path-effect
       effect="offset"
       id="path-effect2555"
       is_visible="true"
       lpeversion="1"
       linejoin_type="miter"
       unit="mm"
       offset="-11"
       miter_limit="4"
       attempt_force_join="false"
       update_on_knot_move="true" />
    <inkscape:path-effect
       effect="offset"
       id="path-effect2513"
       is_visible="true"
       lpeversion="1"
       linejoin_type="miter"
       unit="mm"
       offset="0"
       miter_limit="4"
       attempt_force_join="false"
       update_on_knot_move="true" />
    <inkscape:path-effect
       effect="offset"
       id="path-effect2409"
       is_visible="true"
       lpeversion="1"
       linejoin_type="miter"
       unit="mm"
       offset="-11"
       miter_limit="4"
       attempt_force_join="false"
       update_on_knot_move="true" />
    <inkscape:path-effect
       effect="offset"
       id="path-effect2269"
       is_visible="true"
       lpeversion="1"
       linejoin_type="miter"
       unit="mm"
       offset="-11"
       miter_limit="4"
       attempt_force_join="false"
       update_on_knot_move="true" />
    <inkscape:path-effect
       effect="offset"
       id="path-effect2038"
       is_visible="true"
       lpeversion="1"
       linejoin_type="miter"
       unit="mm"
       offset="-1"
       miter_limit="4"
       attempt_force_join="false"
       update_on_knot_move="true" />
    <inkscape:path-effect
       effect="offset"
       id="path-effect1994"
       is_visible="true"
       lpeversion="1"
       linejoin_type="miter"
       unit="mm"
       offset="2"
       miter_limit="4"
       attempt_force_join="false"
       update_on_knot_move="true" />
    <inkscape:path-effect
       effect="offset"
       id="path-effect1795"
       is_visible="true"
       lpeversion="1"
       linejoin_type="miter"
       unit="mm"
       offset="-1"
       miter_limit="4"
       attempt_force_join="false"
       update_on_knot_move="true" />
    <inkscape:path-effect
       effect="offset"
       id="path-effect1793"
       is_visible="true"
       lpeversion="1"
       linejoin_type="miter"
       unit="mm"
       offset="1"
       miter_limit="4"
       attempt_force_join="false"
       update_on_knot_move="true" />
    <inkscape:path-effect
       effect="offset"
       id="path-effect1789"
       is_visible="true"
       lpeversion="1"
       linejoin_type="miter"
       unit="mm"
       offset="1"
       miter_limit="4"
       attempt_force_join="false"
       update_on_knot_move="true" />
    <inkscape:path-effect
       effect="offset"
       id="path-effect1739"
       is_visible="true"
       lpeversion="1"
       linejoin_type="miter"
       unit="mm"
       offset="-1"
       miter_limit="4"
       attempt_force_join="false"
       update_on_knot_move="true" />
    <inkscape:path-effect
       effect="offset"
       id="path-effect1737"
       is_visible="true"
       lpeversion="1"
       linejoin_type="miter"
       unit="mm"
       offset="1"
       miter_limit="4"
       attempt_force_join="false"
       update_on_knot_move="true" />
    <inkscape:path-effect
       effect="offset"
       id="path-effect1733"
       is_visible="true"
       lpeversion="1"
       linejoin_type="miter"
       unit="mm"
       offset="1"
       miter_limit="4"
       attempt_force_join="false"
       update_on_knot_move="true" />
    <inkscape:path-effect
       effect="offset"
       id="path-effect1683"
       is_visible="true"
       lpeversion="1"
       linejoin_type="miter"
       unit="mm"
       offset="3"
       miter_limit="4"
       attempt_force_join="false"
       update_on_knot_move="true" />
    <inkscape:path-effect
       effect="offset"
       id="path-effect968"
       is_visible="true"
       lpeversion="1"
       linejoin_type="miter"
       unit="mm"
       offset="-3"
       miter_limit="4"
       attempt_force_join="false"
       update_on_knot_move="true" />
    <inkscape:path-effect
       effect="offset"
       id="path-effect948"
       is_visible="true"
       lpeversion="1"
       linejoin_type="miter"
       unit="mm"
       offset="-3"
       miter_limit="4"
       attempt_force_join="false"
       update_on_knot_move="true" />
    <inkscape:path-effect
       effect="offset"
       id="path-effect1032"
       is_visible="true"
       lpeversion="1"
       linejoin_type="miter"
       unit="mm"
       offset="-2"
       miter_limit="4"
       attempt_force_join="false"
       update_on_knot_move="true" />
    <inkscape:path-effect
       effect="offset"
       id="path-effect988"
       is_visible="true"
       lpeversion="1"
       linejoin_type="miter"
       unit="mm"
       offset="-1"
       miter_limit="4"
       attempt_force_join="false"
       update_on_knot_move="true" />
    <inkscape:path-effect
       effect="offset"
       id="path-effect8589"
       is_visible="true"
       lpeversion="1"
       linejoin_type="miter"
       unit="mm"
       offset="-11"
       miter_limit="4"
       attempt_force_join="false"
       update_on_knot_move="true" />
    <inkscape:path-effect
       effect="offset"
       id="path-effect7616"
       is_visible="true"
       lpeversion="1"
       linejoin_type="miter"
       unit="mm"
       offset="-11"
       miter_limit="4"
       attempt_force_join="false"
       update_on_knot_move="true" />
    <inkscape:path-effect
       effect="offset"
       id="path-effect6560"
       is_visible="true"
       lpeversion="1"
       linejoin_type="miter"
       unit="mm"
       offset="-11"
       miter_limit="4"
       attempt_force_join="false"
       update_on_knot_move="true" />
    <inkscape:path-effect
       effect="offset"
       id="path-effect6518"
       is_visible="true"
       lpeversion="1"
       linejoin_type="miter"
       unit="mm"
       offset="0"
       miter_limit="4"
       attempt_force_join="false"
       update_on_knot_move="true" />
    <inkscape:path-effect
       effect="offset"
       id="path-effect2519"
       is_visible="true"
       lpeversion="1"
       linejoin_type="miter"
       unit="mm"
       offset="1"
       miter_limit="4"
       attempt_force_join="false"
       update_on_knot_move="true" />
    <inkscape:path-effect
       effect="offset"
       id="path-effect2517"
       is_visible="true"
       lpeversion="1"
       linejoin_type="miter"
       unit="mm"
       offset="1"
       miter_limit="4"
       attempt_force_join="false"
       update_on_knot_move="true" />
    <inkscape:path-effect
       effect="offset"
       id="path-effect2672"
       is_visible="true"
       lpeversion="1"
       linejoin_type="miter"
       unit="mm"
       offset="-11"
       miter_limit="4"
       attempt_force_join="false"
       update_on_knot_move="true" />
    <inkscape:path-effect
       effect="offset"
       id="path-effect2630"
       is_visible="true"
       lpeversion="1"
       linejoin_type="miter"
       unit="mm"
       offset="-11"
       miter_limit="4"
       attempt_force_join="false"
       update_on_knot_move="true" />
    <inkscape:path-effect
       effect="offset"
       id="path-effect1591"
       is_visible="true"
       lpeversion="1"
       linejoin_type="miter"
       unit="mm"
       offset="-11"
       miter_limit="4"
       attempt_force_join="false"
       update_on_knot_move="true" />
    <inkscape:path-effect
       effect="offset"
       id="path-effect1468"
       is_visible="true"
       lpeversion="1"
       linejoin_type="miter"
       unit="mm"
       offset="0"
       miter_limit="4"
       attempt_force_join="false"
       update_on_knot_move="true" />
    <inkscape:path-effect
       effect="offset"
       id="path-effect1326"
       is_visible="true"
       lpeversion="1"
       linejoin_type="miter"
       unit="mm"
       offset="0.5"
       miter_limit="4"
       attempt_force_join="false"
       update_on_knot_move="true" />
    <inkscape:path-effect
       effect="offset"
       id="path-effect1324"
       is_visible="true"
       lpeversion="1"
       linejoin_type="miter"
       unit="mm"
       offset="0.5"
       miter_limit="4"
       attempt_force_join="false"
       update_on_knot_move="true" />
    <inkscape:path-effect
       effect="offset"
       id="path-effect2952"
       is_visible="true"
       lpeversion="1"
       linejoin_type="miter"
       unit="mm"
       offset="-0.5"
       miter_limit="4"
       attempt_force_join="false"
       update_on_knot_move="true" />
    <inkscape:path-effect
       effect="offset"
       id="path-effect2952-3"
       is_visible="true"
       lpeversion="1"
       linejoin_type="miter"
       unit="mm"
       offset="-0.5"
       miter_limit="4"
       attempt_force_join="false"
       update_on_knot_move="true" />
    <inkscape:path-effect
       effect="offset"
       id="path-effect2952-6"
       is_visible="true"
       lpeversion="1"
       linejoin_type="miter"
       unit="mm"
       offset="-0.5"
       miter_limit="4"
       attempt_force_join="false"
       update_on_knot_move="true" />
    <inkscape:path-effect
       effect="offset"
       id="path-effect2952-7"
       is_visible="true"
       lpeversion="1"
       linejoin_type="miter"
       unit="mm"
       offset="-0.5"
       miter_limit="4"
       attempt_force_join="false"
       update_on_knot_move="true" />
  </defs>
  <sodipodi:namedview
     id="namedview30"
     pagecolor="#505050"
     bordercolor="#eeeeee"
     borderopacity="1"
     inkscape:pageshadow="0"
     inkscape:pageopacity="0"
     inkscape:pagecheckerboard="0"
     inkscape:document-units="mm"
     showgrid="false"
     showguides="true"
     inkscape:zoom="0.9"
     inkscape:cx="528.88889"
     inkscape:cy="316.66667"
     inkscape:window-width="2560"
     inkscape:window-height="1440"
     inkscape:window-x="0"
     inkscape:window-y="0"
     inkscape:window-maximized="1"
     inkscape:current-layer="g1992"
     inkscape:showpageshadow="0"
     inkscape:deskcolor="#505050" />
  <g
     inkscape:groupmode="layer"
     id="g1992"
     inkscape:label="open-1"
     style="display:inline"
     sodipodi:insensitive="true">
    <path
       id="path1970"
       style="display:inline;fill:none;fill-opacity:0.0014062;stroke:#000000;stroke-width:0.189"
       d="m 0.26552066,16.54691 c 3.704e-4,-0.0027 -3.731e-4,-0.0052 0,-0.0078 l -0.00391,0.02344 c 6.853e-4,-0.0053 0.00322,-0.01029 0.00391,-0.01563 v -10e-6 0" />
    <path
       id="path2940"
       style="display:inline;fill:none;fill-opacity:0.0014062;stroke:#000000;stroke-width:0.189"
       d="m 3.2088799,95.793002 c -0.00758,-0.0109 -0.015907,-0.01442 -0.023437,-0.0254 l 0.03125,0.04297 c -0.00379,-0.0052 -0.00403,-0.01236 -0.00781,-0.01757 h -3.2e-6 v 0" />
    <path
       id="path2938"
       style="display:inline;fill:none;fill-opacity:0.0014062;stroke:#000000;stroke-width:0.189"
       d="m 277.3827,90.93558 c 0,0.0024 0,0.0053 0,0.0078 l 0.006,-0.01757 c 0,0.0037 -0.005,0.0061 -0.006,0.0098 v -2.1e-5 0" />
    <path
       id="circle1972"
       style="display:inline;fill-opacity:0.0014062;stroke:#000000;stroke-width:0.189"
       d="m 123.34995,5.167079 a 1.75,1.75 0 0 1 -1.75,1.75 1.75,1.75 0 0 1 -1.75,-1.75 1.75,1.75 0 0 1 1.75,-1.75 1.75,1.75 0 0 1 1.75,1.75 z" />
    <path
       id="circle1974"
       style="display:inline;fill-opacity:0.0014062;stroke:#000000;stroke-width:0.189"
       d="m 6.6255159,47.088127 a 1.75,1.75 0 0 1 -1.75,1.75 1.75,1.75 0 0 1 -1.75,-1.75 1.75,1.75 0 0 1 1.75,-1.75 1.75,1.75 0 0 1 1.75,1.75 z" />
    <path
       id="circle1976"
       style="display:inline;fill-opacity:0.0014062;stroke:#000000;stroke-width:0.189"
       d="m 275.0672,47.088127 a 1.75,1.75 0 0 1 -1.75,1.75 1.75,1.75 0 0 1 -1.75,-1.75 1.75,1.75 0 0 1 1.75,-1.75 1.75,1.75 0 0 1 1.75,1.75 z" />
    <path
       id="circle1978"
       style="display:inline;fill-opacity:0.0014062;stroke:#000000;stroke-width:0.189"
       d="m 11.558291,9.8004112 a 1.75,1.75 0 0 1 -1.7499996,1.7499998 1.75,1.75 0 0 1 -1.75,-1.7499998 1.75,1.75 0 0 1 1.75,-1.75 1.75,1.75 0 0 1 1.7499996,1.75 z" />
    <path
       id="circle1980"
       style="display:inline;fill-opacity:0.0014062;stroke:#000000;stroke-width:0.189"
       d="m 270.17499,9.8006401 a 1.75,1.75 0 0 1 -1.75,1.7499999 1.75,1.75 0 0 1 -1.75,-1.7499999 1.75,1.75 0 0 1 1.75,-1.75 1.75,1.75 0 0 1 1.75,1.75 z" />
    <path
       id="circle1982"
       style="display:inline;fill-opacity:0.0014062;stroke:#000000;stroke-width:0.189"
       d="m 11.558513,94.099861 a 1.75,1.75 0 0 1 -1.7500003,1.75 1.75,1.75 0 0 1 -1.75,-1.75 1.75,1.75 0 0 1 1.75,-1.75 1.75,1.75 0 0 1 1.7500003,1.75 z" />
    <path
       id="circle1984"
       style="display:inline;fill-opacity:0.0014062;stroke:#000000;stroke-width:0.189"
       d="m 270.1752,94.100014 a 1.75,1.75 0 0 1 -1.75,1.75 1.75,1.75 0 0 1 -1.75,-1.75 1.75,1.75 0 0 1 1.75,-1.75 1.75,1.75 0 0 1 1.75,1.75 z" />
    <path
       id="circle1986"
       style="display:inline;fill-opacity:0.0014062;stroke:#000000;stroke-width:0.189"
       d="m 158.58765,5.167079 a 1.75,1.75 0 0 1 -1.75,1.75 1.75,1.75 0 0 1 -1.75,-1.75 1.75,1.75 0 0 1 1.75,-1.75 1.75,1.75 0 0 1 1.75,1.75 z" />
    <path
       id="circle1988"
       style="display:inline;fill-opacity:0.0014062;stroke:#000000;stroke-width:0.189"
       d="m 103.35035,115.64761 a 1.75,1.75 0 0 1 -1.75,1.75 1.75,1.75 0 0 1 -1.750001,-1.75 1.75,1.75 0 0 1 1.750001,-1.75 1.75,1.75 0 0 1 1.75,1.75 z" />
    <path
       id="circle1990"
       style="display:inline;fill-opacity:0.0014062;stroke:#000000;stroke-width:0.189"
       d="m 178.58835,115.64761 a 1.75,1.75 0 0 1 -1.75,1.75 1.75,1.75 0 0 1 -1.75,-1.75 1.75,1.75 0 0 1 1.75,-1.75 1.75,1.75 0 0 1 1.75,1.75 z" />
    <path
       id="rect6305-4-4-5"
       style="display:inline;fill:none;fill-opacity:0.0014062;stroke:#000000;stroke-width:0.189"
       d="m 149.11616,0.09573775 107.48141,1e-7 h 0.0117 c 1.4473,0.017067 3.07791,-0.0572 4.66992,0.125 4.68849,0.513895 9.12309,2.85805415 12.19385,6.43025955 l 0.003,0.00196 c 2.91262,3.3490056 4.57489,7.7402056 4.61719,12.1757816 v 0.0098 0.0098 c 0.005,22.170169 0.003,44.339916 0.003,66.509766 0.038,1.827675 -0.14981,3.733001 -0.71289,5.578126 -0.99055,3.34791 -3.09647,6.247559 -5.69728,8.392579 -3.34642,2.77144 -7.3997,4.44524 -11.44139,5.40039 l -0.0195,0.004 -0.0195,0.004 c -9.9376,2.14248 -19.8759,4.29833 -29.81834,6.43164 -4.98057,1.08537 -9.9899,2.05995 -14.96485,3.08984 -17.03323,3.53245 -34.08047,7.07579 -51.17773,10.37109 -6.52414,1.24457 -13.0783,2.49797 -19.66992,3.53125 l -0.0117,0.002 h -0.0117 c -1.70881,0.24753 -3.56109,0.55673 -5.38281,0.64453 l -0.0703,0.004 -0.0723,-0.002 c -1.56969,-0.0372 -3.17616,-0.30207 -4.61328,-0.49805 l -0.0137,-0.002 -0.0156,-0.002 c -5.93164,-0.89364 -11.82706,-2.01031 -17.68359,-3.11328 -15.20713,-2.90643 -30.362336,-6.02337 -45.501955,-9.16602 -6.144051,-1.28986 -12.291703,-2.54194 -18.445311,-3.79492 h -0.0078 l -0.0078,-0.002 c -11.143919,-2.35892 -22.269211,-4.8074 -33.396482,-7.20507 -3.877898,-0.77339 -7.774947,-2.1498 -11.1738289,-4.4629 l -0.01367,-0.01 -0.01172,-0.008 C 7.1606141,99.85598 6.0492023,99.03878 5.1100331,97.9789 l -0.035156,-0.0391 -0.033203,-0.041 C 4.5764407,97.31569 3.8210286,96.673316 3.2088769,95.792994 1.2059456,93.029612 0.12475176,89.639442 0.09754876,86.253929 v -0.0078 -0.0078 c -0.0041487,-21.560763 -7.7e-4,-43.121256 -0.00195,-64.681649 v -0.01172 -0.01172 c 0.017955,-1.532855 -0.067429,-3.289292 0.1699219,-4.986328 0.6011784,-4.64921 3.00671184,-9.013857 6.60155814,-12.013668 0.00143,-0.00119 0.00249,-0.00272 0.00391,-0.00391 C 10.261571,1.6677593 14.673838,0.07513965 19.105365,0.09573785 H 129.11632 l 2e-5,10.00000015 h -110.020715 -2.7e-5 v 0 c -2.515314,-0.01741 -5.011568,1.082993 -6.687709,2.959893 -1.539684,1.687897 -2.374163,3.981172 -2.31229,6.262397 10e-4,22.276079 -0.0021,44.552186 0.0016,66.828245 0.01875,1.750581 0.78384,3.44203 1.977081,4.706628 1.662007,1.778606 3.922642,2.862553 6.209142,3.600532 1.894406,0.61356 3.866026,0.917342 5.811,1.320879 38.303786,7.607148 76.607568,15.214288 114.911358,22.821428 39.40227,-7.81387 78.80512,-15.62487 118.20704,-23.440529 2.63296,-0.554763 5.26379,-1.424951 7.46028,-3.020822 1.5489,-1.123262 2.83771,-2.721817 3.2552,-4.62062 0.24537,-1.029724 0.14687,-2.092579 0.16735,-3.140358 V 18.978925 c -0.0138,-2.575955 -1.20484,-5.114395 -3.18278,-6.765756 -1.67393,-1.428671 -3.88709,-2.182305 -6.08326,-2.117431 H 149.11615 Z"
       sodipodi:nodetypes="ccccccccscccccccccccccccccccccccccccccccccssccccccccccscccccccccccccccc" />
    <path
       style="fill:none;stroke:#000000;stroke-width:0.264583px;stroke-linecap:butt;stroke-linejoin:miter;stroke-opacity:1"
       d="m 129.11634,10.095738 h 19.99981 v 0"
       id="path1592" />
  </g>
  <metadata
     id="metadata944">
    <rdf:RDF>
      <cc:Work
         rdf:about="">
        <dc:title>Eliza</dc:title>
        <dc:creator>
          <cc:Agent>
            <dc:title>Cody Bloemhard</dc:title>
          </cc:Agent>
        </dc:creator>
        <dc:rights>
          <cc:Agent>
            <dc:title>GPL v3</dc:title>
          </cc:Agent>
        </dc:rights>
      </cc:Work>
    </rdf:RDF>
  </metadata>
</svg>
