  0
SECTION
  2
HEADER
  9
$ACADVER
  1
AC1014
  9
$HANDSEED
  5
FFFF
  9
$MEASUREMENT
 70
     1
  0
ENDSEC
  0
SECTION
  2
TABLES
  0
TABLE
  2
VPORT
  5
8
330
0
100
AcDbSymbolTable
 70
     4
  0
VPORT
  5
2E
330
8
100
AcDbSymbolTableRecord
100
AcDbViewportTableRecord
  2
*ACTIVE
 70
     0
 10
0.0
 20
0.0
 11
1.0
 21
1.0
 12
210.0
 22
148.5
 13
0.0
 23
0.0
 14
10.0
 24
10.0
 15
10.0
 25
10.0
 16
0.0
 26
0.0
 36
1.0
 17
0.0
 27
0.0
 37
0.0
 40
341.0
 41
1.24
 42
50.0
 43
0.0
 44
0.0
 50
0.0
 51
0.0
 71
     0
 72
   100
 73
     1
 74
     3
 75
     0
 76
     0
 77
     0
 78
     0
  0
ENDTAB
  0
TABLE
  2
LTYPE
  5
5
330
0
100
AcDbSymbolTable
 70
     1
  0
LTYPE
  5
14
330
5
100
AcDbSymbolTableRecord
100
AcDbLinetypeTableRecord
  2
BYBLOCK
 70
     0
  3

 72
    65
 73
     0
 40
0.0
  0
LTYPE
  5
15
330
5
100
AcDbSymbolTableRecord
100
AcDbLinetypeTableRecord
  2
BYLAYER
 70
     0
  3

 72
    65
 73
     0
 40
0.0
  0
LTYPE
  5
16
330
5
100
AcDbSymbolTableRecord
100
AcDbLinetypeTableRecord
  2
CONTINUOUS
 70
     0
  3
Solid line
 72
    65
 73
     0
 40
0.0
  0
ENDTAB
  0
TABLE
  2
LAYER
  5
2
100
AcDbSymbolTable
 70
2
  0
LAYER
  5
50
100
AcDbSymbolTableRecord
100
AcDbLayerTableRecord
  2
0
 70
0
  6
CONTINUOUS
  0
LAYER
  5
51
100
AcDbSymbolTableRecord
100
AcDbLayerTableRecord
  2
open-1
 70
0
  6
CONTINUOUS
  0
ENDTAB
  0
TABLE
  2
STYLE
  5
3
330
0
100
AcDbSymbolTable
 70
     1
  0
STYLE
  5
11
330
3
100
AcDbSymbolTableRecord
100
AcDbTextStyleTableRecord
  2
STANDARD
 70
     0
 40
0.0
 41
1.0
 50
0.0
 71
     0
 42
2.5
  3
txt
  4

  0
ENDTAB
  0
TABLE
  2
VIEW
  5
6
330
0
100
AcDbSymbolTable
 70
     0
  0
ENDTAB
  0
TABLE
  2
UCS
  5
7
330
0
100
AcDbSymbolTable
 70
     0
  0
ENDTAB
  0
TABLE
  2
APPID
  5
9
330
0
100
AcDbSymbolTable
 70
     2
  0
APPID
  5
12
330
9
100
AcDbSymbolTableRecord
100
AcDbRegAppTableRecord
  2
ACAD
 70
     0
  0
ENDTAB
  0
TABLE
  2
DIMSTYLE
  5
A
330
0
100
AcDbSymbolTable
 70
     1
  0
DIMSTYLE
105
27
330
A
100
AcDbSymbolTableRecord
100
AcDbDimStyleTableRecord
  2
ISO-25
 70
     0
  3

  4

  5

  6

  7

 40
1.0
 41
2.5
 42
0.625
 43
3.75
 44
1.25
 45
0.0
 46
0.0
 47
0.0
 48
0.0
140
2.5
141
2.5
142
0.0
143
0.03937007874016
144
1.0
145
0.0
146
1.0
147
0.625
 71
     0
 72
     0
 73
     0
 74
     0
 75
     0
 76
     0
 77
     1
 78
     8
170
     0
171
     3
172
     1
173
     0
174
     0
175
     0
176
     0
177
     0
178
     0
270
     2
271
     2
272
     2
273
     2
274
     3
340
11
275
     0
280
     0
281
     0
282
     0
283
     0
284
     8
285
     0
286
     0
287
     3
288
     0
  0
ENDTAB
  0
TABLE
  2
BLOCK_RECORD
  5
1
330
0
100
AcDbSymbolTable
 70
     1
  0
BLOCK_RECORD
  5
1F
330
1
100
AcDbSymbolTableRecord
100
AcDbBlockTableRecord
  2
*MODEL_SPACE
  0
BLOCK_RECORD
  5
1B
330
1
100
AcDbSymbolTableRecord
100
AcDbBlockTableRecord
  2
*PAPER_SPACE
  0
ENDTAB
  0
ENDSEC
  0
SECTION
  2
BLOCKS
  0
BLOCK
  5
20
330
1F
100
AcDbEntity
  8
0
100
AcDbBlockBegin
  2
*MODEL_SPACE
 70
     0
 10
0.0
 20
0.0
 30
0.0
  3
*MODEL_SPACE
  1

  0
ENDBLK
  5
21
330
1F
100
AcDbEntity
  8
0
100
AcDbBlockEnd
  0
BLOCK
  5
1C
330
1B
100
AcDbEntity
 67
     1
  8
0
100
AcDbBlockBegin
  2
*PAPER_SPACE
  1

  0
ENDBLK
  5
1D
330
1B
100
AcDbEntity
 67
     1
  8
0
100
AcDbBlockEnd
  0
ENDSEC
  0
SECTION
  2
ENTITIES
  0
SPLINE
  5
100
100
AcDbEntity
  8
open-1
 62
7
100
AcDbSpline
 70
8
 71
3
 72
8
 73
4
 74
0
 40
0
 40
0
 40
0
 40
0
 40
1
 40
1
 40
1
 40
1
 10
3.263521
 20
140.715090
 30
0.0
 10
3.263891
 20
140.717790
 30
0.0
 10
3.263148
 20
140.720290
 30
0.0
 10
3.263521
 20
140.722890
 30
0.0
  0
SPLINE
  5
101
100
AcDbEntity
  8
open-1
 62
7
100
AcDbSpline
 70
8
 71
3
 72
8
 73
4
 74
0
 40
0
 40
0
 40
0
 40
0
 40
1
 40
1
 40
1
 40
1
 10
3.259611
 20
140.699450
 30
0.0
 10
3.260296
 20
140.704750
 30
0.0
 10
3.262831
 20
140.709740
 30
0.0
 10
3.263521
 20
140.715080
 30
0.0
  0
LWPOLYLINE
  5
102
100
AcDbEntity
  8
open-1
 62
7
100
AcDbPolyline
 90
2
 70
0
 10
3.263521
 20
140.722890
 30
0.0
 10
3.259611
 20
140.699450
 30
0.0
  0
SPLINE
  5
103
100
AcDbEntity
  8
open-1
 62
7
100
AcDbSpline
 70
8
 71
3
 72
8
 73
4
 74
0
 40
0
 40
0
 40
0
 40
0
 40
1
 40
1
 40
1
 40
1
 10
6.206880
 20
61.468998
 30
0.0
 10
6.199300
 20
61.479898
 30
0.0
 10
6.190973
 20
61.483418
 30
0.0
 10
6.183443
 20
61.494398
 30
0.0
  0
LWPOLYLINE
  5
104
100
AcDbEntity
  8
open-1
 62
7
100
AcDbPolyline
 90
2
 70
1
 10
3.263521
 20
140.715080
 30
0.0
 10
3.263521
 20
140.715090
 30
0.0
  0
SPLINE
  5
105
100
AcDbEntity
  8
open-1
 62
7
100
AcDbSpline
 70
8
 71
3
 72
8
 73
4
 74
0
 40
0
 40
0
 40
0
 40
0
 40
1
 40
1
 40
1
 40
1
 10
6.214693
 20
61.451428
 30
0.0
 10
6.210903
 20
61.456628
 30
0.0
 10
6.210663
 20
61.463788
 30
0.0
 10
6.206883
 20
61.468998
 30
0.0
  0
LWPOLYLINE
  5
106
100
AcDbEntity
  8
open-1
 62
7
100
AcDbPolyline
 90
2
 70
0
 10
6.183443
 20
61.494398
 30
0.0
 10
6.214693
 20
61.451428
 30
0.0
  0
LWPOLYLINE
  5
107
100
AcDbEntity
  8
open-1
 62
7
100
AcDbPolyline
 90
2
 70
1
 10
6.206883
 20
61.468998
 30
0.0
 10
6.206880
 20
61.468998
 30
0.0
  0
SPLINE
  5
108
100
AcDbEntity
  8
open-1
 62
7
100
AcDbSpline
 70
8
 71
3
 72
8
 73
4
 74
0
 40
0
 40
0
 40
0
 40
0
 40
1
 40
1
 40
1
 40
1
 10
280.386700
 20
66.336190
 30
0.0
 10
280.386700
 20
66.332490
 30
0.0
 10
280.381700
 20
66.330090
 30
0.0
 10
280.380700
 20
66.326390
 30
0.0
  0
LWPOLYLINE
  5
109
100
AcDbEntity
  8
open-1
 62
7
100
AcDbPolyline
 90
3
 70
0
 10
280.380700
 20
66.326420
 30
0.0
 10
280.380700
 20
66.318620
 30
0.0
 10
280.386700
 20
66.336190
 30
0.0
  0
SPLINE
  5
10a
100
AcDbEntity
  8
open-1
 62
7
100
AcDbSpline
 70
8
 71
3
 72
8
 73
4
 74
0
 40
0
 40
0
 40
0
 40
0
 40
1
 40
1
 40
1
 40
1
 10
470.921386
 20
136.014032
 30
0.0
 10
468.246202
 20
136.014032
 30
0.0
 10
465.834435
 20
134.402540
 30
0.0
 10
464.810687
 20
131.930993
 30
0.0
  0
SPLINE
  5
10b
100
AcDbEntity
  8
open-1
 62
7
100
AcDbSpline
 70
8
 71
3
 72
8
 73
4
 74
0
 40
0
 40
0
 40
0
 40
0
 40
1
 40
1
 40
1
 40
1
 10
464.810687
 20
131.930993
 30
0.0
 10
463.786938
 20
129.459446
 30
0.0
 10
464.352819
 20
126.614572
 30
0.0
 10
466.244459
 20
124.722932
 30
0.0
  0
SPLINE
  5
10c
100
AcDbEntity
  8
open-1
 62
7
100
AcDbSpline
 70
8
 71
3
 72
8
 73
4
 74
0
 40
0
 40
0
 40
0
 40
0
 40
1
 40
1
 40
1
 40
1
 10
466.244459
 20
124.722932
 30
0.0
 10
468.136099
 20
122.831291
 30
0.0
 10
470.980973
 20
122.265411
 30
0.0
 10
473.452520
 20
123.289159
 30
0.0
  0
SPLINE
  5
10d
100
AcDbEntity
  8
open-1
 62
7
100
AcDbSpline
 70
8
 71
3
 72
8
 73
4
 74
0
 40
0
 40
0
 40
0
 40
0
 40
1
 40
1
 40
1
 40
1
 10
473.452520
 20
123.289159
 30
0.0
 10
475.924067
 20
124.312908
 30
0.0
 10
477.535559
 20
126.724675
 30
0.0
 10
477.535559
 20
129.399859
 30
0.0
  0
SPLINE
  5
10e
100
AcDbEntity
  8
open-1
 62
7
100
AcDbSpline
 70
8
 71
3
 72
8
 73
4
 74
0
 40
0
 40
0
 40
0
 40
0
 40
1
 40
1
 40
1
 40
1
 10
477.535559
 20
129.399859
 30
0.0
 10
477.535559
 20
131.154046
 30
0.0
 10
476.838711
 20
132.836387
 30
0.0
 10
475.598313
 20
134.076785
 30
0.0
  0
SPLINE
  5
10f
100
AcDbEntity
  8
open-1
 62
7
100
AcDbSpline
 70
8
 71
3
 72
8
 73
4
 74
0
 40
0
 40
0
 40
0
 40
0
 40
1
 40
1
 40
1
 40
1
 10
475.598313
 20
134.076785
 30
0.0
 10
474.357914
 20
135.317183
 30
0.0
 10
472.675574
 20
136.014032
 30
0.0
 10
470.921386
 20
136.014032
 30
0.0
  0
LWPOLYLINE
  5
110
100
AcDbEntity
  8
open-1
 62
7
100
AcDbPolyline
 90
2
 70
1
 10
280.380700
 20
66.326390
 30
0.0
 10
280.380700
 20
66.326411
 30
0.0
  0
SPLINE
  5
111
100
AcDbEntity
  8
open-1
 62
7
100
AcDbSpline
 70
8
 71
3
 72
8
 73
4
 74
0
 40
0
 40
0
 40
0
 40
0
 40
1
 40
1
 40
1
 40
1
 10
29.758171
 20
-22.427728
 30
0.0
 10
27.082988
 20
-22.427728
 30
0.0
 10
24.671220
 20
-24.039219
 30
0.0
 10
23.647472
 20
-26.510767
 30
0.0
  0
SPLINE
  5
112
100
AcDbEntity
  8
open-1
 62
7
100
AcDbSpline
 70
8
 71
3
 72
8
 73
4
 74
0
 40
0
 40
0
 40
0
 40
0
 40
1
 40
1
 40
1
 40
1
 10
23.647472
 20
-26.510767
 30
0.0
 10
22.623723
 20
-28.982314
 30
0.0
 10
23.189604
 20
-31.827188
 30
0.0
 10
25.081244
 20
-33.718828
 30
0.0
  0
SPLINE
  5
113
100
AcDbEntity
  8
open-1
 62
7
100
AcDbSpline
 70
8
 71
3
 72
8
 73
4
 74
0
 40
0
 40
0
 40
0
 40
0
 40
1
 40
1
 40
1
 40
1
 10
25.081244
 20
-33.718828
 30
0.0
 10
26.972885
 20
-35.610468
 30
0.0
 10
29.817758
 20
-36.176349
 30
0.0
 10
32.289306
 20
-35.152600
 30
0.0
  0
SPLINE
  5
114
100
AcDbEntity
  8
open-1
 62
7
100
AcDbSpline
 70
8
 71
3
 72
8
 73
4
 74
0
 40
0
 40
0
 40
0
 40
0
 40
1
 40
1
 40
1
 40
1
 10
32.289306
 20
-35.152600
 30
0.0
 10
34.760853
 20
-34.128852
 30
0.0
 10
36.372344
 20
-31.717084
 30
0.0
 10
36.372344
 20
-29.041901
 30
0.0
  0
SPLINE
  5
115
100
AcDbEntity
  8
open-1
 62
7
100
AcDbSpline
 70
8
 71
3
 72
8
 73
4
 74
0
 40
0
 40
0
 40
0
 40
0
 40
1
 40
1
 40
1
 40
1
 10
36.372344
 20
-29.041901
 30
0.0
 10
36.372344
 20
-27.287713
 30
0.0
 10
35.675496
 20
-25.605372
 30
0.0
 10
34.435098
 20
-24.364974
 30
0.0
  0
SPLINE
  5
116
100
AcDbEntity
  8
open-1
 62
7
100
AcDbSpline
 70
8
 71
3
 72
8
 73
4
 74
0
 40
0
 40
0
 40
0
 40
0
 40
1
 40
1
 40
1
 40
1
 10
34.435098
 20
-24.364974
 30
0.0
 10
33.194700
 20
-23.124576
 30
0.0
 10
31.512359
 20
-22.427728
 30
0.0
 10
29.758171
 20
-22.427728
 30
0.0
  0
LWPOLYLINE
  5
117
100
AcDbEntity
  8
open-1
 62
7
100
AcDbPolyline
 90
1
 70
1
 10
470.921386
 20
136.014032
 30
0.0
  0
SPLINE
  5
118
100
AcDbEntity
  8
open-1
 62
7
100
AcDbSpline
 70
8
 71
3
 72
8
 73
4
 74
0
 40
0
 40
0
 40
0
 40
0
 40
1
 40
1
 40
1
 40
1
 10
1044.340876
 20
-22.427728
 30
0.0
 10
1040.687969
 20
-22.427728
 30
0.0
 10
1037.726702
 20
-25.388994
 30
0.0
 10
1037.726702
 20
-29.041901
 30
0.0
  0
SPLINE
  5
119
100
AcDbEntity
  8
open-1
 62
7
100
AcDbSpline
 70
8
 71
3
 72
8
 73
4
 74
0
 40
0
 40
0
 40
0
 40
0
 40
1
 40
1
 40
1
 40
1
 10
1037.726702
 20
-29.041901
 30
0.0
 10
1037.726702
 20
-32.694808
 30
0.0
 10
1040.687969
 20
-35.656074
 30
0.0
 10
1044.340876
 20
-35.656074
 30
0.0
  0
SPLINE
  5
11a
100
AcDbEntity
  8
open-1
 62
7
100
AcDbSpline
 70
8
 71
3
 72
8
 73
4
 74
0
 40
0
 40
0
 40
0
 40
0
 40
1
 40
1
 40
1
 40
1
 10
1044.340876
 20
-35.656074
 30
0.0
 10
1047.993783
 20
-35.656074
 30
0.0
 10
1050.955049
 20
-32.694808
 30
0.0
 10
1050.955049
 20
-29.041901
 30
0.0
  0
SPLINE
  5
11b
100
AcDbEntity
  8
open-1
 62
7
100
AcDbSpline
 70
8
 71
3
 72
8
 73
4
 74
0
 40
0
 40
0
 40
0
 40
0
 40
1
 40
1
 40
1
 40
1
 10
1050.955049
 20
-29.041901
 30
0.0
 10
1050.955049
 20
-27.287713
 30
0.0
 10
1050.258200
 20
-25.605372
 30
0.0
 10
1049.017802
 20
-24.364974
 30
0.0
  0
SPLINE
  5
11c
100
AcDbEntity
  8
open-1
 62
7
100
AcDbSpline
 70
8
 71
3
 72
8
 73
4
 74
0
 40
0
 40
0
 40
0
 40
0
 40
1
 40
1
 40
1
 40
1
 10
1049.017802
 20
-24.364974
 30
0.0
 10
1047.777404
 20
-23.124576
 30
0.0
 10
1046.095063
 20
-22.427728
 30
0.0
 10
1044.340876
 20
-22.427728
 30
0.0
  0
LWPOLYLINE
  5
11d
100
AcDbEntity
  8
open-1
 62
7
100
AcDbPolyline
 90
1
 70
1
 10
29.758171
 20
-22.427728
 30
0.0
  0
SPLINE
  5
11e
100
AcDbEntity
  8
open-1
 62
7
100
AcDbSpline
 70
8
 71
3
 72
8
 73
4
 74
0
 40
0
 40
0
 40
0
 40
0
 40
1
 40
1
 40
1
 40
1
 10
48.401734
 20
118.502226
 30
0.0
 10
45.726550
 20
118.502226
 30
0.0
 10
43.314783
 20
116.890735
 30
0.0
 10
42.291034
 20
114.419187
 30
0.0
  0
SPLINE
  5
11f
100
AcDbEntity
  8
open-1
 62
7
100
AcDbSpline
 70
8
 71
3
 72
8
 73
4
 74
0
 40
0
 40
0
 40
0
 40
0
 40
1
 40
1
 40
1
 40
1
 10
42.291034
 20
114.419187
 30
0.0
 10
41.267286
 20
111.947640
 30
0.0
 10
41.833167
 20
109.102766
 30
0.0
 10
43.724807
 20
107.211126
 30
0.0
  0
SPLINE
  5
120
100
AcDbEntity
  8
open-1
 62
7
100
AcDbSpline
 70
8
 71
3
 72
8
 73
4
 74
0
 40
0
 40
0
 40
0
 40
0
 40
1
 40
1
 40
1
 40
1
 10
43.724807
 20
107.211126
 30
0.0
 10
45.616447
 20
105.319486
 30
0.0
 10
48.461321
 20
104.753605
 30
0.0
 10
50.932868
 20
105.777354
 30
0.0
  0
SPLINE
  5
121
100
AcDbEntity
  8
open-1
 62
7
100
AcDbSpline
 70
8
 71
3
 72
8
 73
4
 74
0
 40
0
 40
0
 40
0
 40
0
 40
1
 40
1
 40
1
 40
1
 10
50.932868
 20
105.777354
 30
0.0
 10
53.404415
 20
106.801102
 30
0.0
 10
55.015907
 20
109.212870
 30
0.0
 10
55.015907
 20
111.888053
 30
0.0
  0
SPLINE
  5
122
100
AcDbEntity
  8
open-1
 62
7
100
AcDbSpline
 70
8
 71
3
 72
8
 73
4
 74
0
 40
0
 40
0
 40
0
 40
0
 40
1
 40
1
 40
1
 40
1
 10
55.015907
 20
111.888053
 30
0.0
 10
55.015907
 20
113.642241
 30
0.0
 10
54.319058
 20
115.324582
 30
0.0
 10
53.078660
 20
116.564980
 30
0.0
  0
SPLINE
  5
123
100
AcDbEntity
  8
open-1
 62
7
100
AcDbSpline
 70
8
 71
3
 72
8
 73
4
 74
0
 40
0
 40
0
 40
0
 40
0
 40
1
 40
1
 40
1
 40
1
 10
53.078660
 20
116.564980
 30
0.0
 10
51.838262
 20
117.805378
 30
0.0
 10
50.155921
 20
118.502226
 30
0.0
 10
48.401734
 20
118.502226
 30
0.0
  0
LWPOLYLINE
  5
124
100
AcDbEntity
  8
open-1
 62
7
100
AcDbPolyline
 90
1
 70
1
 10
1044.340876
 20
-22.427728
 30
0.0
  0
SPLINE
  5
125
100
AcDbEntity
  8
open-1
 62
7
100
AcDbSpline
 70
8
 71
3
 72
8
 73
4
 74
0
 40
0
 40
0
 40
0
 40
0
 40
1
 40
1
 40
1
 40
1
 10
1025.850595
 20
118.501361
 30
0.0
 10
1022.197688
 20
118.501361
 30
0.0
 10
1019.236422
 20
115.540094
 30
0.0
 10
1019.236422
 20
111.887187
 30
0.0
  0
SPLINE
  5
126
100
AcDbEntity
  8
open-1
 62
7
100
AcDbSpline
 70
8
 71
3
 72
8
 73
4
 74
0
 40
0
 40
0
 40
0
 40
0
 40
1
 40
1
 40
1
 40
1
 10
1019.236422
 20
111.887187
 30
0.0
 10
1019.236422
 20
108.234280
 30
0.0
 10
1022.197688
 20
105.273014
 30
0.0
 10
1025.850595
 20
105.273014
 30
0.0
  0
SPLINE
  5
127
100
AcDbEntity
  8
open-1
 62
7
100
AcDbSpline
 70
8
 71
3
 72
8
 73
4
 74
0
 40
0
 40
0
 40
0
 40
0
 40
1
 40
1
 40
1
 40
1
 10
1025.850595
 20
105.273014
 30
0.0
 10
1029.503502
 20
105.273014
 30
0.0
 10
1032.464769
 20
108.234280
 30
0.0
 10
1032.464769
 20
111.887187
 30
0.0
  0
SPLINE
  5
128
100
AcDbEntity
  8
open-1
 62
7
100
AcDbSpline
 70
8
 71
3
 72
8
 73
4
 74
0
 40
0
 40
0
 40
0
 40
0
 40
1
 40
1
 40
1
 40
1
 10
1032.464769
 20
111.887187
 30
0.0
 10
1032.464769
 20
113.641375
 30
0.0
 10
1031.767920
 20
115.323716
 30
0.0
 10
1030.527522
 20
116.564114
 30
0.0
  0
SPLINE
  5
129
100
AcDbEntity
  8
open-1
 62
7
100
AcDbSpline
 70
8
 71
3
 72
8
 73
4
 74
0
 40
0
 40
0
 40
0
 40
0
 40
1
 40
1
 40
1
 40
1
 10
1030.527522
 20
116.564114
 30
0.0
 10
1029.287124
 20
117.804512
 30
0.0
 10
1027.604783
 20
118.501361
 30
0.0
 10
1025.850595
 20
118.501361
 30
0.0
  0
LWPOLYLINE
  5
12a
100
AcDbEntity
  8
open-1
 62
7
100
AcDbPolyline
 90
1
 70
1
 10
48.401734
 20
118.502226
 30
0.0
  0
SPLINE
  5
12b
100
AcDbEntity
  8
open-1
 62
7
100
AcDbSpline
 70
8
 71
3
 72
8
 73
4
 74
0
 40
0
 40
0
 40
0
 40
0
 40
1
 40
1
 40
1
 40
1
 10
48.402569
 20
-200.109872
 30
0.0
 10
44.749662
 20
-200.109872
 30
0.0
 10
41.788396
 20
-203.071138
 30
0.0
 10
41.788396
 20
-206.724045
 30
0.0
  0
SPLINE
  5
12c
100
AcDbEntity
  8
open-1
 62
7
100
AcDbSpline
 70
8
 71
3
 72
8
 73
4
 74
0
 40
0
 40
0
 40
0
 40
0
 40
1
 40
1
 40
1
 40
1
 10
41.788396
 20
-206.724045
 30
0.0
 10
41.788396
 20
-210.376952
 30
0.0
 10
44.749662
 20
-213.338219
 30
0.0
 10
48.402569
 20
-213.338219
 30
0.0
  0
SPLINE
  5
12d
100
AcDbEntity
  8
open-1
 62
7
100
AcDbSpline
 70
8
 71
3
 72
8
 73
4
 74
0
 40
0
 40
0
 40
0
 40
0
 40
1
 40
1
 40
1
 40
1
 10
48.402569
 20
-213.338219
 30
0.0
 10
52.055476
 20
-213.338219
 30
0.0
 10
55.016742
 20
-210.376952
 30
0.0
 10
55.016742
 20
-206.724045
 30
0.0
  0
SPLINE
  5
12e
100
AcDbEntity
  8
open-1
 62
7
100
AcDbSpline
 70
8
 71
3
 72
8
 73
4
 74
0
 40
0
 40
0
 40
0
 40
0
 40
1
 40
1
 40
1
 40
1
 10
55.016742
 20
-206.724045
 30
0.0
 10
55.016742
 20
-204.969858
 30
0.0
 10
54.319894
 20
-203.287517
 30
0.0
 10
53.079496
 20
-202.047119
 30
0.0
  0
SPLINE
  5
12f
100
AcDbEntity
  8
open-1
 62
7
100
AcDbSpline
 70
8
 71
3
 72
8
 73
4
 74
0
 40
0
 40
0
 40
0
 40
0
 40
1
 40
1
 40
1
 40
1
 10
53.079496
 20
-202.047119
 30
0.0
 10
51.839097
 20
-200.806721
 30
0.0
 10
50.156757
 20
-200.109872
 30
0.0
 10
48.402569
 20
-200.109872
 30
0.0
  0
LWPOLYLINE
  5
130
100
AcDbEntity
  8
open-1
 62
7
100
AcDbPolyline
 90
1
 70
1
 10
1025.850595
 20
118.501361
 30
0.0
  0
SPLINE
  5
131
100
AcDbEntity
  8
open-1
 62
7
100
AcDbSpline
 70
8
 71
3
 72
8
 73
4
 74
0
 40
0
 40
0
 40
0
 40
0
 40
1
 40
1
 40
1
 40
1
 10
1025.851427
 20
-200.110450
 30
0.0
 10
1023.176243
 20
-200.110450
 30
0.0
 10
1020.764476
 20
-201.721942
 30
0.0
 10
1019.740728
 20
-204.193489
 30
0.0
  0
SPLINE
  5
132
100
AcDbEntity
  8
open-1
 62
7
100
AcDbSpline
 70
8
 71
3
 72
8
 73
4
 74
0
 40
0
 40
0
 40
0
 40
0
 40
1
 40
1
 40
1
 40
1
 10
1019.740728
 20
-204.193489
 30
0.0
 10
1018.716979
 20
-206.665036
 30
0.0
 10
1019.282860
 20
-209.509910
 30
0.0
 10
1021.174500
 20
-211.401550
 30
0.0
  0
SPLINE
  5
133
100
AcDbEntity
  8
open-1
 62
7
100
AcDbSpline
 70
8
 71
3
 72
8
 73
4
 74
0
 40
0
 40
0
 40
0
 40
0
 40
1
 40
1
 40
1
 40
1
 10
1021.174500
 20
-211.401550
 30
0.0
 10
1023.066140
 20
-213.293191
 30
0.0
 10
1025.911014
 20
-213.859071
 30
0.0
 10
1028.382561
 20
-212.835323
 30
0.0
  0
SPLINE
  5
134
100
AcDbEntity
  8
open-1
 62
7
100
AcDbSpline
 70
8
 71
3
 72
8
 73
4
 74
0
 40
0
 40
0
 40
0
 40
0
 40
1
 40
1
 40
1
 40
1
 10
1028.382561
 20
-212.835323
 30
0.0
 10
1030.854108
 20
-211.811575
 30
0.0
 10
1032.465600
 20
-209.399807
 30
0.0
 10
1032.465600
 20
-206.724624
 30
0.0
  0
SPLINE
  5
135
100
AcDbEntity
  8
open-1
 62
7
100
AcDbSpline
 70
8
 71
3
 72
8
 73
4
 74
0
 40
0
 40
0
 40
0
 40
0
 40
1
 40
1
 40
1
 40
1
 10
1032.465600
 20
-206.724624
 30
0.0
 10
1032.465600
 20
-204.970436
 30
0.0
 10
1031.768752
 20
-203.288095
 30
0.0
 10
1030.528354
 20
-202.047697
 30
0.0
  0
SPLINE
  5
136
100
AcDbEntity
  8
open-1
 62
7
100
AcDbSpline
 70
8
 71
3
 72
8
 73
4
 74
0
 40
0
 40
0
 40
0
 40
0
 40
1
 40
1
 40
1
 40
1
 10
1030.528354
 20
-202.047697
 30
0.0
 10
1029.287955
 20
-200.807299
 30
0.0
 10
1027.605615
 20
-200.110450
 30
0.0
 10
1025.851427
 20
-200.110450
 30
0.0
  0
LWPOLYLINE
  5
137
100
AcDbEntity
  8
open-1
 62
7
100
AcDbPolyline
 90
1
 70
1
 10
48.402569
 20
-200.109872
 30
0.0
  0
SPLINE
  5
138
100
AcDbEntity
  8
open-1
 62
7
100
AcDbSpline
 70
8
 71
3
 72
8
 73
4
 74
0
 40
0
 40
0
 40
0
 40
0
 40
1
 40
1
 40
1
 40
1
 10
604.103244
 20
136.014032
 30
0.0
 10
601.428061
 20
136.014032
 30
0.0
 10
599.016293
 20
134.402540
 30
0.0
 10
597.992545
 20
131.930993
 30
0.0
  0
SPLINE
  5
139
100
AcDbEntity
  8
open-1
 62
7
100
AcDbSpline
 70
8
 71
3
 72
8
 73
4
 74
0
 40
0
 40
0
 40
0
 40
0
 40
1
 40
1
 40
1
 40
1
 10
597.992545
 20
131.930993
 30
0.0
 10
596.968796
 20
129.459446
 30
0.0
 10
597.534677
 20
126.614572
 30
0.0
 10
599.426317
 20
124.722932
 30
0.0
  0
SPLINE
  5
13a
100
AcDbEntity
  8
open-1
 62
7
100
AcDbSpline
 70
8
 71
3
 72
8
 73
4
 74
0
 40
0
 40
0
 40
0
 40
0
 40
1
 40
1
 40
1
 40
1
 10
599.426317
 20
124.722932
 30
0.0
 10
601.317958
 20
122.831291
 30
0.0
 10
604.162831
 20
122.265411
 30
0.0
 10
606.634379
 20
123.289159
 30
0.0
  0
SPLINE
  5
13b
100
AcDbEntity
  8
open-1
 62
7
100
AcDbSpline
 70
8
 71
3
 72
8
 73
4
 74
0
 40
0
 40
0
 40
0
 40
0
 40
1
 40
1
 40
1
 40
1
 10
606.634379
 20
123.289159
 30
0.0
 10
609.105926
 20
124.312908
 30
0.0
 10
610.717417
 20
126.724675
 30
0.0
 10
610.717417
 20
129.399859
 30
0.0
  0
SPLINE
  5
13c
100
AcDbEntity
  8
open-1
 62
7
100
AcDbSpline
 70
8
 71
3
 72
8
 73
4
 74
0
 40
0
 40
0
 40
0
 40
0
 40
1
 40
1
 40
1
 40
1
 10
610.717417
 20
129.399859
 30
0.0
 10
610.717417
 20
131.154046
 30
0.0
 10
610.020569
 20
132.836387
 30
0.0
 10
608.780171
 20
134.076785
 30
0.0
  0
SPLINE
  5
13d
100
AcDbEntity
  8
open-1
 62
7
100
AcDbSpline
 70
8
 71
3
 72
8
 73
4
 74
0
 40
0
 40
0
 40
0
 40
0
 40
1
 40
1
 40
1
 40
1
 10
608.780171
 20
134.076785
 30
0.0
 10
607.539773
 20
135.317183
 30
0.0
 10
605.857432
 20
136.014032
 30
0.0
 10
604.103244
 20
136.014032
 30
0.0
  0
LWPOLYLINE
  5
13e
100
AcDbEntity
  8
open-1
 62
7
100
AcDbPolyline
 90
1
 70
1
 10
1025.851427
 20
-200.110450
 30
0.0
  0
SPLINE
  5
13f
100
AcDbEntity
  8
open-1
 62
7
100
AcDbSpline
 70
8
 71
3
 72
8
 73
4
 74
0
 40
0
 40
0
 40
0
 40
0
 40
1
 40
1
 40
1
 40
1
 10
395.332346
 20
-281.550180
 30
0.0
 10
392.657163
 20
-281.550180
 30
0.0
 10
390.245396
 20
-283.161671
 30
0.0
 10
389.221647
 20
-285.633218
 30
0.0
  0
SPLINE
  5
140
100
AcDbEntity
  8
open-1
 62
7
100
AcDbSpline
 70
8
 71
3
 72
8
 73
4
 74
0
 40
0
 40
0
 40
0
 40
0
 40
1
 40
1
 40
1
 40
1
 10
389.221647
 20
-285.633218
 30
0.0
 10
388.197899
 20
-288.104765
 30
0.0
 10
388.763779
 20
-290.949639
 30
0.0
 10
390.655420
 20
-292.841279
 30
0.0
  0
SPLINE
  5
141
100
AcDbEntity
  8
open-1
 62
7
100
AcDbSpline
 70
8
 71
3
 72
8
 73
4
 74
0
 40
0
 40
0
 40
0
 40
0
 40
1
 40
1
 40
1
 40
1
 10
390.655420
 20
-292.841279
 30
0.0
 10
392.547060
 20
-294.732920
 30
0.0
 10
395.391934
 20
-295.298800
 30
0.0
 10
397.863481
 20
-294.275052
 30
0.0
  0
SPLINE
  5
142
100
AcDbEntity
  8
open-1
 62
7
100
AcDbSpline
 70
8
 71
3
 72
8
 73
4
 74
0
 40
0
 40
0
 40
0
 40
0
 40
1
 40
1
 40
1
 40
1
 10
397.863481
 20
-294.275052
 30
0.0
 10
400.335028
 20
-293.251304
 30
0.0
 10
401.946520
 20
-290.839536
 30
0.0
 10
401.946520
 20
-288.164353
 30
0.0
  0
SPLINE
  5
143
100
AcDbEntity
  8
open-1
 62
7
100
AcDbSpline
 70
8
 71
3
 72
8
 73
4
 74
0
 40
0
 40
0
 40
0
 40
0
 40
1
 40
1
 40
1
 40
1
 10
401.946520
 20
-288.164353
 30
0.0
 10
401.946520
 20
-286.410165
 30
0.0
 10
401.249671
 20
-284.727824
 30
0.0
 10
400.009273
 20
-283.487426
 30
0.0
  0
SPLINE
  5
144
100
AcDbEntity
  8
open-1
 62
7
100
AcDbSpline
 70
8
 71
3
 72
8
 73
4
 74
0
 40
0
 40
0
 40
0
 40
0
 40
1
 40
1
 40
1
 40
1
 10
400.009273
 20
-283.487426
 30
0.0
 10
398.768875
 20
-282.247028
 30
0.0
 10
397.086534
 20
-281.550180
 30
0.0
 10
395.332346
 20
-281.550180
 30
0.0
  0
LWPOLYLINE
  5
145
100
AcDbEntity
  8
open-1
 62
7
100
AcDbPolyline
 90
1
 70
1
 10
604.103244
 20
136.014032
 30
0.0
  0
SPLINE
  5
146
100
AcDbEntity
  8
open-1
 62
7
100
AcDbSpline
 70
8
 71
3
 72
8
 73
4
 74
0
 40
0
 40
0
 40
0
 40
0
 40
1
 40
1
 40
1
 40
1
 10
679.696441
 20
-281.550180
 30
0.0
 10
677.021258
 20
-281.550180
 30
0.0
 10
674.609490
 20
-283.161671
 30
0.0
 10
673.585742
 20
-285.633218
 30
0.0
  0
SPLINE
  5
147
100
AcDbEntity
  8
open-1
 62
7
100
AcDbSpline
 70
8
 71
3
 72
8
 73
4
 74
0
 40
0
 40
0
 40
0
 40
0
 40
1
 40
1
 40
1
 40
1
 10
673.585742
 20
-285.633218
 30
0.0
 10
672.561993
 20
-288.104765
 30
0.0
 10
673.127874
 20
-290.949639
 30
0.0
 10
675.019514
 20
-292.841279
 30
0.0
  0
SPLINE
  5
148
100
AcDbEntity
  8
open-1
 62
7
100
AcDbSpline
 70
8
 71
3
 72
8
 73
4
 74
0
 40
0
 40
0
 40
0
 40
0
 40
1
 40
1
 40
1
 40
1
 10
675.019514
 20
-292.841279
 30
0.0
 10
676.911154
 20
-294.732920
 30
0.0
 10
679.756028
 20
-295.298800
 30
0.0
 10
682.227575
 20
-294.275052
 30
0.0
  0
SPLINE
  5
149
100
AcDbEntity
  8
open-1
 62
7
100
AcDbSpline
 70
8
 71
3
 72
8
 73
4
 74
0
 40
0
 40
0
 40
0
 40
0
 40
1
 40
1
 40
1
 40
1
 10
682.227575
 20
-294.275052
 30
0.0
 10
684.699123
 20
-293.251304
 30
0.0
 10
686.310614
 20
-290.839536
 30
0.0
 10
686.310614
 20
-288.164353
 30
0.0
  0
SPLINE
  5
14a
100
AcDbEntity
  8
open-1
 62
7
100
AcDbSpline
 70
8
 71
3
 72
8
 73
4
 74
0
 40
0
 40
0
 40
0
 40
0
 40
1
 40
1
 40
1
 40
1
 10
686.310614
 20
-288.164353
 30
0.0
 10
686.310614
 20
-286.410165
 30
0.0
 10
685.613766
 20
-284.727824
 30
0.0
 10
684.373368
 20
-283.487426
 30
0.0
  0
SPLINE
  5
14b
100
AcDbEntity
  8
open-1
 62
7
100
AcDbSpline
 70
8
 71
3
 72
8
 73
4
 74
0
 40
0
 40
0
 40
0
 40
0
 40
1
 40
1
 40
1
 40
1
 10
684.373368
 20
-283.487426
 30
0.0
 10
683.132970
 20
-282.247028
 30
0.0
 10
681.450629
 20
-281.550180
 30
0.0
 10
679.696441
 20
-281.550180
 30
0.0
  0
LWPOLYLINE
  5
14c
100
AcDbEntity
  8
open-1
 62
7
100
AcDbPolyline
 90
1
 70
1
 10
395.332346
 20
-281.550180
 30
0.0
  0
LWPOLYLINE
  5
14d
100
AcDbEntity
  8
open-1
 62
7
100
AcDbPolyline
 90
1
 70
1
 10
679.696441
 20
-281.550180
 30
0.0
  0
SPLINE
  5
14e
100
AcDbEntity
  8
open-1
 62
7
100
AcDbSpline
 70
8
 71
3
 72
8
 73
4
 74
0
 40
0
 40
0
 40
0
 40
0
 40
1
 40
1
 40
1
 40
1
 10
259.607270
 20
157.166262
 30
0.0
 10
261.054570
 20
157.149195
 30
0.0
 10
262.685180
 20
157.223462
 30
0.0
 10
264.277190
 20
157.041262
 30
0.0
  0
SPLINE
  5
14f
100
AcDbEntity
  8
open-1
 62
7
100
AcDbSpline
 70
8
 71
3
 72
8
 73
4
 74
0
 40
0
 40
0
 40
0
 40
0
 40
1
 40
1
 40
1
 40
1
 10
264.277190
 20
157.041262
 30
0.0
 10
268.965680
 20
156.527367
 30
0.0
 10
273.400280
 20
154.183208
 30
0.0
 10
276.471040
 20
150.611003
 30
0.0
  0
LWPOLYLINE
  5
150
100
AcDbEntity
  8
open-1
 62
7
100
AcDbPolyline
 90
3
 70
0
 10
152.114160
 20
157.166262
 30
0.0
 10
259.595570
 20
157.166262
 30
0.0
 10
259.607270
 20
157.166262
 30
0.0
  0
SPLINE
  5
151
100
AcDbEntity
  8
open-1
 62
7
100
AcDbSpline
 70
8
 71
3
 72
8
 73
4
 74
0
 40
0
 40
0
 40
0
 40
0
 40
1
 40
1
 40
1
 40
1
 10
276.474040
 20
150.609043
 30
0.0
 10
279.386660
 20
147.260037
 30
0.0
 10
281.048930
 20
142.868837
 30
0.0
 10
281.091230
 20
138.433261
 30
0.0
  0
LWPOLYLINE
  5
152
100
AcDbEntity
  8
open-1
 62
7
100
AcDbPolyline
 90
2
 70
0
 10
276.471040
 20
150.611003
 30
0.0
 10
276.474040
 20
150.609043
 30
0.0
  0
SPLINE
  5
153
100
AcDbEntity
  8
open-1
 62
7
100
AcDbSpline
 70
8
 71
3
 72
8
 73
4
 74
0
 40
0
 40
0
 40
0
 40
0
 40
1
 40
1
 40
1
 40
1
 10
281.091230
 20
138.413661
 30
0.0
 10
281.096230
 20
116.243492
 30
0.0
 10
281.094230
 20
94.073745
 30
0.0
 10
281.094230
 20
71.903895
 30
0.0
  0
SPLINE
  5
154
100
AcDbEntity
  8
open-1
 62
7
100
AcDbSpline
 70
8
 71
3
 72
8
 73
4
 74
0
 40
0
 40
0
 40
0
 40
0
 40
1
 40
1
 40
1
 40
1
 10
281.094230
 20
71.903895
 30
0.0
 10
281.132230
 20
70.076220
 30
0.0
 10
280.944420
 20
68.170894
 30
0.0
 10
280.381340
 20
66.325769
 30
0.0
  0
SPLINE
  5
155
100
AcDbEntity
  8
open-1
 62
7
100
AcDbSpline
 70
8
 71
3
 72
8
 73
4
 74
0
 40
0
 40
0
 40
0
 40
0
 40
1
 40
1
 40
1
 40
1
 10
280.381340
 20
66.325769
 30
0.0
 10
279.390790
 20
62.977859
 30
0.0
 10
277.284870
 20
60.078210
 30
0.0
 10
274.684060
 20
57.933190
 30
0.0
  0
SPLINE
  5
156
100
AcDbEntity
  8
open-1
 62
7
100
AcDbSpline
 70
8
 71
3
 72
8
 73
4
 74
0
 40
0
 40
0
 40
0
 40
0
 40
1
 40
1
 40
1
 40
1
 10
274.684060
 20
57.933190
 30
0.0
 10
271.337640
 20
55.161750
 30
0.0
 10
267.284360
 20
53.487950
 30
0.0
 10
263.242670
 20
52.532800
 30
0.0
  0
LWPOLYLINE
  5
157
100
AcDbEntity
  8
open-1
 62
7
100
AcDbPolyline
 90
3
 70
0
 10
281.091230
 20
138.433261
 30
0.0
 10
281.091230
 20
138.423461
 30
0.0
 10
281.091230
 20
138.413661
 30
0.0
  0
SPLINE
  5
158
100
AcDbEntity
  8
open-1
 62
7
100
AcDbSpline
 70
8
 71
3
 72
8
 73
4
 74
0
 40
0
 40
0
 40
0
 40
0
 40
1
 40
1
 40
1
 40
1
 10
263.203670
 20
52.524800
 30
0.0
 10
253.266070
 20
50.382320
 30
0.0
 10
243.327770
 20
48.226470
 30
0.0
 10
233.385330
 20
46.093160
 30
0.0
  0
SPLINE
  5
159
100
AcDbEntity
  8
open-1
 62
7
100
AcDbSpline
 70
8
 71
3
 72
8
 73
4
 74
0
 40
0
 40
0
 40
0
 40
0
 40
1
 40
1
 40
1
 40
1
 10
233.385330
 20
46.093160
 30
0.0
 10
228.404760
 20
45.007790
 30
0.0
 10
223.395430
 20
44.033210
 30
0.0
 10
218.420480
 20
43.003320
 30
0.0
  0
SPLINE
  5
15a
100
AcDbEntity
  8
open-1
 62
7
100
AcDbSpline
 70
8
 71
3
 72
8
 73
4
 74
0
 40
0
 40
0
 40
0
 40
0
 40
1
 40
1
 40
1
 40
1
 10
218.420480
 20
43.003320
 30
0.0
 10
201.387250
 20
39.470870
 30
0.0
 10
184.340010
 20
35.927530
 30
0.0
 10
167.242750
 20
32.632230
 30
0.0
  0
SPLINE
  5
15b
100
AcDbEntity
  8
open-1
 62
7
100
AcDbSpline
 70
8
 71
3
 72
8
 73
4
 74
0
 40
0
 40
0
 40
0
 40
0
 40
1
 40
1
 40
1
 40
1
 10
167.242750
 20
32.632230
 30
0.0
 10
160.718610
 20
31.387660
 30
0.0
 10
154.164450
 20
30.134260
 30
0.0
 10
147.572830
 20
29.100980
 30
0.0
  0
LWPOLYLINE
  5
15c
100
AcDbEntity
  8
open-1
 62
7
100
AcDbPolyline
 90
3
 70
0
 10
263.242670
 20
52.532800
 30
0.0
 10
263.223170
 20
52.528800
 30
0.0
 10
263.203670
 20
52.524800
 30
0.0
  0
SPLINE
  5
15d
100
AcDbEntity
  8
open-1
 62
7
100
AcDbSpline
 70
8
 71
3
 72
8
 73
4
 74
0
 40
0
 40
0
 40
0
 40
0
 40
1
 40
1
 40
1
 40
1
 10
147.549430
 20
29.098980
 30
0.0
 10
145.840620
 20
28.851450
 30
0.0
 10
143.988340
 20
28.542250
 30
0.0
 10
142.166620
 20
28.454450
 30
0.0
  0
LWPOLYLINE
  5
15e
100
AcDbEntity
  8
open-1
 62
7
100
AcDbPolyline
 90
3
 70
0
 10
147.572830
 20
29.100980
 30
0.0
 10
147.561130
 20
29.098980
 30
0.0
 10
147.549430
 20
29.098980
 30
0.0
  0
SPLINE
  5
15f
100
AcDbEntity
  8
open-1
 62
7
100
AcDbSpline
 70
8
 71
3
 72
8
 73
4
 74
0
 40
0
 40
0
 40
0
 40
0
 40
1
 40
1
 40
1
 40
1
 10
142.024020
 20
28.452450
 30
0.0
 10
140.454330
 20
28.489650
 30
0.0
 10
138.847860
 20
28.754520
 30
0.0
 10
137.410740
 20
28.950500
 30
0.0
  0
LWPOLYLINE
  5
160
100
AcDbEntity
  8
open-1
 62
7
100
AcDbPolyline
 90
3
 70
0
 10
142.166620
 20
28.454450
 30
0.0
 10
142.096320
 20
28.450450
 30
0.0
 10
142.024020
 20
28.452450
 30
0.0
  0
SPLINE
  5
161
100
AcDbEntity
  8
open-1
 62
7
100
AcDbSpline
 70
8
 71
3
 72
8
 73
4
 74
0
 40
0
 40
0
 40
0
 40
0
 40
1
 40
1
 40
1
 40
1
 10
137.381440
 20
28.954500
 30
0.0
 10
131.449800
 20
29.848140
 30
0.0
 10
125.554380
 20
30.964810
 30
0.0
 10
119.697850
 20
32.067780
 30
0.0
  0
SPLINE
  5
162
100
AcDbEntity
  8
open-1
 62
7
100
AcDbSpline
 70
8
 71
3
 72
8
 73
4
 74
0
 40
0
 40
0
 40
0
 40
0
 40
1
 40
1
 40
1
 40
1
 10
119.697850
 20
32.067780
 30
0.0
 10
104.490720
 20
34.974210
 30
0.0
 10
89.335514
 20
38.091150
 30
0.0
 10
74.195895
 20
41.233800
 30
0.0
  0
SPLINE
  5
163
100
AcDbEntity
  8
open-1
 62
7
100
AcDbSpline
 70
8
 71
3
 72
8
 73
4
 74
0
 40
0
 40
0
 40
0
 40
0
 40
1
 40
1
 40
1
 40
1
 10
74.195895
 20
41.233800
 30
0.0
 10
68.051844
 20
42.523660
 30
0.0
 10
61.904192
 20
43.775740
 30
0.0
 10
55.750584
 20
45.028720
 30
0.0
  0
LWPOLYLINE
  5
164
100
AcDbEntity
  8
open-1
 62
7
100
AcDbPolyline
 90
3
 70
0
 10
137.410740
 20
28.950500
 30
0.0
 10
137.397040
 20
28.952500
 30
0.0
 10
137.381440
 20
28.954500
 30
0.0
  0
SPLINE
  5
165
100
AcDbEntity
  8
open-1
 62
7
100
AcDbSpline
 70
8
 71
3
 72
8
 73
4
 74
0
 40
0
 40
0
 40
0
 40
0
 40
1
 40
1
 40
1
 40
1
 10
55.734984
 20
45.030720
 30
0.0
 10
44.591065
 20
47.389640
 30
0.0
 10
33.465773
 20
49.838120
 30
0.0
 10
22.338502
 20
52.235790
 30
0.0
  0
SPLINE
  5
166
100
AcDbEntity
  8
open-1
 62
7
100
AcDbSpline
 70
8
 71
3
 72
8
 73
4
 74
0
 40
0
 40
0
 40
0
 40
0
 40
1
 40
1
 40
1
 40
1
 10
22.338502
 20
52.235790
 30
0.0
 10
18.460604
 20
53.009180
 30
0.0
 10
14.563555
 20
54.385590
 30
0.0
 10
11.164673
 20
56.698690
 30
0.0
  0
LWPOLYLINE
  5
167
100
AcDbEntity
  8
open-1
 62
7
100
AcDbPolyline
 90
3
 70
0
 10
55.750584
 20
45.028720
 30
0.0
 10
55.742784
 20
45.028720
 30
0.0
 10
55.734984
 20
45.030720
 30
0.0
  0
SPLINE
  5
168
100
AcDbEntity
  8
open-1
 62
7
100
AcDbSpline
 70
8
 71
3
 72
8
 73
4
 74
0
 40
0
 40
0
 40
0
 40
0
 40
1
 40
1
 40
1
 40
1
 10
11.139283
 20
56.716690
 30
0.0
 10
10.158614
 20
57.406020
 30
0.0
 10
9.047202
 20
58.223220
 30
0.0
 10
8.108033
 20
59.283100
 30
0.0
  0
LWPOLYLINE
  5
169
100
AcDbEntity
  8
open-1
 62
7
100
AcDbPolyline
 90
3
 70
0
 10
11.164673
 20
56.698690
 30
0.0
 10
11.151003
 20
56.708690
 30
0.0
 10
11.139283
 20
56.716690
 30
0.0
  0
SPLINE
  5
16a
100
AcDbEntity
  8
open-1
 62
7
100
AcDbSpline
 70
8
 71
3
 72
8
 73
4
 74
0
 40
0
 40
0
 40
0
 40
0
 40
1
 40
1
 40
1
 40
1
 10
8.039674
 20
59.363200
 30
0.0
 10
7.574441
 20
59.946310
 30
0.0
 10
6.819028
 20
60.588684
 30
0.0
 10
6.206877
 20
61.469006
 30
0.0
  0
SPLINE
  5
16b
100
AcDbEntity
  8
open-1
 62
7
100
AcDbSpline
 70
8
 71
3
 72
8
 73
4
 74
0
 40
0
 40
0
 40
0
 40
0
 40
1
 40
1
 40
1
 40
1
 10
6.206877
 20
61.469006
 30
0.0
 10
4.203945
 20
64.232388
 30
0.0
 10
3.122752
 20
67.622558
 30
0.0
 10
3.095549
 20
71.008071
 30
0.0
  0
LWPOLYLINE
  5
16c
100
AcDbEntity
  8
open-1
 62
7
100
AcDbPolyline
 90
3
 70
0
 10
8.108033
 20
59.283100
 30
0.0
 10
8.072877
 20
59.322200
 30
0.0
 10
8.039674
 20
59.363200
 30
0.0
  0
SPLINE
  5
16d
100
AcDbEntity
  8
open-1
 62
7
100
AcDbSpline
 70
8
 71
3
 72
8
 73
4
 74
0
 40
0
 40
0
 40
0
 40
0
 40
1
 40
1
 40
1
 40
1
 10
3.095549
 20
71.023671
 30
0.0
 10
3.091400
 20
92.584434
 30
0.0
 10
3.094779
 20
114.144927
 30
0.0
 10
3.093599
 20
135.705320
 30
0.0
  0
LWPOLYLINE
  5
16e
100
AcDbEntity
  8
open-1
 62
7
100
AcDbPolyline
 90
3
 70
0
 10
3.095549
 20
71.008071
 30
0.0
 10
3.095549
 20
71.015871
 30
0.0
 10
3.095549
 20
71.023671
 30
0.0
  0
SPLINE
  5
16f
100
AcDbEntity
  8
open-1
 62
7
100
AcDbSpline
 70
8
 71
3
 72
8
 73
4
 74
0
 40
0
 40
0
 40
0
 40
0
 40
1
 40
1
 40
1
 40
1
 10
3.093599
 20
135.728760
 30
0.0
 10
3.111554
 20
137.261615
 30
0.0
 10
3.026170
 20
139.018052
 30
0.0
 10
3.263521
 20
140.715088
 30
0.0
  0
SPLINE
  5
170
100
AcDbEntity
  8
open-1
 62
7
100
AcDbSpline
 70
8
 71
3
 72
8
 73
4
 74
0
 40
0
 40
0
 40
0
 40
0
 40
1
 40
1
 40
1
 40
1
 10
3.263521
 20
140.715088
 30
0.0
 10
3.864699
 20
145.364298
 30
0.0
 10
6.270232
 20
149.728945
 30
0.0
 10
9.865079
 20
152.728756
 30
0.0
  0
SPLINE
  5
171
100
AcDbEntity
  8
open-1
 62
7
100
AcDbSpline
 70
8
 71
3
 72
8
 73
4
 74
0
 40
0
 40
0
 40
0
 40
0
 40
1
 40
1
 40
1
 40
1
 10
9.865079
 20
152.728756
 30
0.0
 10
9.866509
 20
152.729946
 30
0.0
 10
9.867569
 20
152.731476
 30
0.0
 10
9.868989
 20
152.732666
 30
0.0
  0
SPLINE
  5
172
100
AcDbEntity
  8
open-1
 62
7
100
AcDbSpline
 70
8
 71
3
 72
8
 73
4
 74
0
 40
0
 40
0
 40
0
 40
0
 40
1
 40
1
 40
1
 40
1
 10
9.868989
 20
152.732666
 30
0.0
 10
13.259571
 20
155.594241
 30
0.0
 10
17.671838
 20
157.186860
 30
0.0
 10
22.103365
 20
157.166262
 30
0.0
  0
LWPOLYLINE
  5
173
100
AcDbEntity
  8
open-1
 62
7
100
AcDbPolyline
 90
3
 70
0
 10
3.093599
 20
135.705320
 30
0.0
 10
3.093599
 20
135.717040
 30
0.0
 10
3.093599
 20
135.728760
 30
0.0
  0
SPLINE
  5
174
100
AcDbEntity
  8
open-1
 62
7
100
AcDbSpline
 70
8
 71
3
 72
8
 73
4
 74
0
 40
0
 40
0
 40
0
 40
0
 40
1
 40
1
 40
1
 40
1
 10
22.093598
 20
147.166262
 30
0.0
 10
19.578284
 20
147.183672
 30
0.0
 10
17.082030
 20
146.083269
 30
0.0
 10
15.405889
 20
144.206369
 30
0.0
  0
SPLINE
  5
175
100
AcDbEntity
  8
open-1
 62
7
100
AcDbSpline
 70
8
 71
3
 72
8
 73
4
 74
0
 40
0
 40
0
 40
0
 40
0
 40
1
 40
1
 40
1
 40
1
 10
15.405889
 20
144.206369
 30
0.0
 10
13.866205
 20
142.518472
 30
0.0
 10
13.031726
 20
140.225197
 30
0.0
 10
13.093599
 20
137.943972
 30
0.0
  0
SPLINE
  5
176
100
AcDbEntity
  8
open-1
 62
7
100
AcDbSpline
 70
8
 71
3
 72
8
 73
4
 74
0
 40
0
 40
0
 40
0
 40
0
 40
1
 40
1
 40
1
 40
1
 10
13.093599
 20
137.943972
 30
0.0
 10
13.094599
 20
115.667893
 30
0.0
 10
13.091499
 20
93.391786
 30
0.0
 10
13.095199
 20
71.115727
 30
0.0
  0
SPLINE
  5
177
100
AcDbEntity
  8
open-1
 62
7
100
AcDbSpline
 70
8
 71
3
 72
8
 73
4
 74
0
 40
0
 40
0
 40
0
 40
0
 40
1
 40
1
 40
1
 40
1
 10
13.095199
 20
71.115727
 30
0.0
 10
13.113949
 20
69.365146
 30
0.0
 10
13.879039
 20
67.673697
 30
0.0
 10
15.072280
 20
66.409099
 30
0.0
  0
SPLINE
  5
178
100
AcDbEntity
  8
open-1
 62
7
100
AcDbSpline
 70
8
 71
3
 72
8
 73
4
 74
0
 40
0
 40
0
 40
0
 40
0
 40
1
 40
1
 40
1
 40
1
 10
15.072280
 20
66.409099
 30
0.0
 10
16.734287
 20
64.630493
 30
0.0
 10
18.994922
 20
63.546546
 30
0.0
 10
21.281422
 20
62.808567
 30
0.0
  0
SPLINE
  5
179
100
AcDbEntity
  8
open-1
 62
7
100
AcDbSpline
 70
8
 71
3
 72
8
 73
4
 74
0
 40
0
 40
0
 40
0
 40
0
 40
1
 40
1
 40
1
 40
1
 10
21.281422
 20
62.808567
 30
0.0
 10
23.175828
 20
62.195007
 30
0.0
 10
25.147448
 20
61.891225
 30
0.0
 10
27.092422
 20
61.487688
 30
0.0
  0
SPLINE
  5
17a
100
AcDbEntity
  8
open-1
 62
7
100
AcDbSpline
 70
8
 71
3
 72
8
 73
4
 74
0
 40
0
 40
0
 40
0
 40
0
 40
1
 40
1
 40
1
 40
1
 10
27.092422
 20
61.487688
 30
0.0
 10
65.396208
 20
53.880540
 30
0.0
 10
103.699990
 20
46.273400
 30
0.0
 10
142.003780
 20
38.666260
 30
0.0
  0
SPLINE
  5
17b
100
AcDbEntity
  8
open-1
 62
7
100
AcDbSpline
 70
8
 71
3
 72
8
 73
4
 74
0
 40
0
 40
0
 40
0
 40
0
 40
1
 40
1
 40
1
 40
1
 10
142.003780
 20
38.666260
 30
0.0
 10
181.406050
 20
46.480130
 30
0.0
 10
220.808900
 20
54.291130
 30
0.0
 10
260.210820
 20
62.106789
 30
0.0
  0
SPLINE
  5
17c
100
AcDbEntity
  8
open-1
 62
7
100
AcDbSpline
 70
8
 71
3
 72
8
 73
4
 74
0
 40
0
 40
0
 40
0
 40
0
 40
1
 40
1
 40
1
 40
1
 10
260.210820
 20
62.106789
 30
0.0
 10
262.843780
 20
62.661552
 30
0.0
 10
265.474610
 20
63.531740
 30
0.0
 10
267.671100
 20
65.127611
 30
0.0
  0
SPLINE
  5
17d
100
AcDbEntity
  8
open-1
 62
7
100
AcDbSpline
 70
8
 71
3
 72
8
 73
4
 74
0
 40
0
 40
0
 40
0
 40
0
 40
1
 40
1
 40
1
 40
1
 10
267.671100
 20
65.127611
 30
0.0
 10
269.220000
 20
66.250873
 30
0.0
 10
270.508810
 20
67.849428
 30
0.0
 10
270.926300
 20
69.748231
 30
0.0
  0
SPLINE
  5
17e
100
AcDbEntity
  8
open-1
 62
7
100
AcDbSpline
 70
8
 71
3
 72
8
 73
4
 74
0
 40
0
 40
0
 40
0
 40
0
 40
1
 40
1
 40
1
 40
1
 10
270.926300
 20
69.748231
 30
0.0
 10
271.171670
 20
70.777955
 30
0.0
 10
271.073170
 20
71.840810
 30
0.0
 10
271.093650
 20
72.888589
 30
0.0
  0
LWPOLYLINE
  5
17f
100
AcDbEntity
  8
open-1
 62
7
100
AcDbPolyline
 90
6
 70
0
 10
22.103365
 20
157.166262
 30
0.0
 10
132.114320
 20
157.166262
 30
0.0
 10
132.114340
 20
147.166262
 30
0.0
 10
22.093625
 20
147.166262
 30
0.0
 10
22.093598
 20
147.166262
 30
0.0
 10
22.093598
 20
147.166262
 30
0.0
  0
SPLINE
  5
180
100
AcDbEntity
  8
open-1
 62
7
100
AcDbSpline
 70
8
 71
3
 72
8
 73
4
 74
0
 40
0
 40
0
 40
0
 40
0
 40
1
 40
1
 40
1
 40
1
 10
271.093650
 20
138.283075
 30
0.0
 10
271.079850
 20
140.859030
 30
0.0
 10
269.888810
 20
143.397470
 30
0.0
 10
267.910870
 20
145.048831
 30
0.0
  0
SPLINE
  5
181
100
AcDbEntity
  8
open-1
 62
7
100
AcDbSpline
 70
8
 71
3
 72
8
 73
4
 74
0
 40
0
 40
0
 40
0
 40
0
 40
1
 40
1
 40
1
 40
1
 10
267.910870
 20
145.048831
 30
0.0
 10
266.236940
 20
146.477502
 30
0.0
 10
264.023780
 20
147.231136
 30
0.0
 10
261.827610
 20
147.166262
 30
0.0
  0
LWPOLYLINE
  5
182
100
AcDbEntity
  8
open-1
 62
7
100
AcDbPolyline
 90
2
 70
0
 10
271.093650
 20
72.888589
 30
0.0
 10
271.093650
 20
138.283075
 30
0.0
  0
LWPOLYLINE
  5
183
100
AcDbEntity
  8
open-1
 62
7
100
AcDbPolyline
 90
3
 70
0
 10
261.827610
 20
147.166262
 30
0.0
 10
152.114150
 20
147.166262
 30
0.0
 10
152.114160
 20
157.166262
 30
0.0
  0
LWPOLYLINE
  5
184
100
AcDbEntity
  8
open-1
 62
7
100
AcDbPolyline
 90
3
 70
0
 10
132.114340
 20
147.166262
 30
0.0
 10
152.114150
 20
147.166262
 30
0.0
 10
152.114150
 20
147.166262
 30
0.0
  0
ENDSEC
  0
SECTION
  2
OBJECTS
  0
DICTIONARY
  5
C
330
0
100
AcDbDictionary
  3
ACAD_GROUP
350
D
  3
ACAD_MLINESTYLE
350
17
  0
DICTIONARY
  5
D
330
C
100
AcDbDictionary
  0
DICTIONARY
  5
1A
330
C
100
AcDbDictionary
  0
DICTIONARY
  5
17
330
C
100
AcDbDictionary
  3
STANDARD
350
18
  0
DICTIONARY
  5
19
330
C
100
AcDbDictionary
  0
ENDSEC
  0
EOF
