<?xml version="1.0" encoding="UTF-8" standalone="no"?>
<!-- Generated by SVGo -->

<svg
   width="302.077mm"
   height="160.260mm"
   viewBox="0.000 0.000 302.077 160.260"
   version="1.1"
   id="svg28"
   sodipodi:docname="plate-laserboost.svg"
   inkscape:version="1.1.2 (0a00cf5339, 2022-02-04, custom)"
   xmlns:inkscape="http://www.inkscape.org/namespaces/inkscape"
   xmlns:sodipodi="http://sodipodi.sourceforge.net/DTD/sodipodi-0.dtd"
   xmlns="http://www.w3.org/2000/svg"
   xmlns:svg="http://www.w3.org/2000/svg"
   xmlns:rdf="http://www.w3.org/1999/02/22-rdf-syntax-ns#"
   xmlns:cc="http://creativecommons.org/ns#"
   xmlns:dc="http://purl.org/dc/elements/1.1/">
  <title
     id="title946">Eliza</title>
  <defs
     id="defs32">
    <inkscape:path-effect
       effect="offset"
       id="path-effect2976"
       is_visible="true"
       lpeversion="1"
       linejoin_type="miter"
       unit="mm"
       offset="-1"
       miter_limit="4"
       attempt_force_join="false"
       update_on_knot_move="true" />
    <inkscape:path-effect
       effect="offset"
       id="path-effect2952"
       is_visible="true"
       lpeversion="1"
       linejoin_type="miter"
       unit="mm"
       offset="-0.5"
       miter_limit="4"
       attempt_force_join="false"
       update_on_knot_move="true" />
    <inkscape:path-effect
       effect="offset"
       id="path-effect2762"
       is_visible="true"
       lpeversion="1"
       linejoin_type="miter"
       unit="mm"
       offset="-1"
       miter_limit="4"
       attempt_force_join="false"
       update_on_knot_move="true" />
    <inkscape:path-effect
       effect="offset"
       id="path-effect2719"
       is_visible="true"
       lpeversion="1"
       linejoin_type="miter"
       unit="mm"
       offset="-0.5"
       miter_limit="4"
       attempt_force_join="false"
       update_on_knot_move="true" />
    <inkscape:path-effect
       effect="offset"
       id="path-effect2312"
       is_visible="true"
       lpeversion="1"
       linejoin_type="miter"
       unit="mm"
       offset="-1"
       miter_limit="4"
       attempt_force_join="false"
       update_on_knot_move="true" />
    <inkscape:path-effect
       effect="offset"
       id="path-effect1979"
       is_visible="true"
       lpeversion="1"
       linejoin_type="miter"
       unit="mm"
       offset="-0.5"
       miter_limit="4"
       attempt_force_join="false"
       update_on_knot_move="true" />
    <inkscape:path-effect
       effect="offset"
       id="path-effect1936"
       is_visible="true"
       lpeversion="1"
       linejoin_type="miter"
       unit="mm"
       offset="-0.5"
       miter_limit="4"
       attempt_force_join="false"
       update_on_knot_move="true" />
    <inkscape:path-effect
       effect="offset"
       id="path-effect2896"
       is_visible="true"
       lpeversion="1"
       linejoin_type="miter"
       unit="mm"
       offset="-1"
       miter_limit="4"
       attempt_force_join="false"
       update_on_knot_move="true" />
    <inkscape:path-effect
       effect="offset"
       id="path-effect2853"
       is_visible="true"
       lpeversion="1"
       linejoin_type="miter"
       unit="mm"
       offset="-0.5"
       miter_limit="4"
       attempt_force_join="false"
       update_on_knot_move="true" />
    <inkscape:path-effect
       effect="offset"
       id="path-effect1032"
       is_visible="true"
       lpeversion="1"
       linejoin_type="miter"
       unit="mm"
       offset="-2"
       miter_limit="4"
       attempt_force_join="false"
       update_on_knot_move="true" />
    <inkscape:path-effect
       effect="offset"
       id="path-effect988"
       is_visible="true"
       lpeversion="1"
       linejoin_type="miter"
       unit="mm"
       offset="-1"
       miter_limit="4"
       attempt_force_join="false"
       update_on_knot_move="true" />
    <inkscape:path-effect
       effect="offset"
       id="path-effect8589"
       is_visible="true"
       lpeversion="1"
       linejoin_type="miter"
       unit="mm"
       offset="-11"
       miter_limit="4"
       attempt_force_join="false"
       update_on_knot_move="true" />
    <inkscape:path-effect
       effect="offset"
       id="path-effect7616"
       is_visible="true"
       lpeversion="1"
       linejoin_type="miter"
       unit="mm"
       offset="-11"
       miter_limit="4"
       attempt_force_join="false"
       update_on_knot_move="true" />
    <inkscape:path-effect
       effect="offset"
       id="path-effect6560"
       is_visible="true"
       lpeversion="1"
       linejoin_type="miter"
       unit="mm"
       offset="-11"
       miter_limit="4"
       attempt_force_join="false"
       update_on_knot_move="true" />
    <inkscape:path-effect
       effect="offset"
       id="path-effect6518"
       is_visible="true"
       lpeversion="1"
       linejoin_type="miter"
       unit="mm"
       offset="0"
       miter_limit="4"
       attempt_force_join="false"
       update_on_knot_move="true" />
    <inkscape:path-effect
       effect="offset"
       id="path-effect2519"
       is_visible="true"
       lpeversion="1"
       linejoin_type="miter"
       unit="mm"
       offset="1"
       miter_limit="4"
       attempt_force_join="false"
       update_on_knot_move="true" />
    <inkscape:path-effect
       effect="offset"
       id="path-effect2517"
       is_visible="true"
       lpeversion="1"
       linejoin_type="miter"
       unit="mm"
       offset="1"
       miter_limit="4"
       attempt_force_join="false"
       update_on_knot_move="true" />
    <inkscape:path-effect
       effect="offset"
       id="path-effect2672"
       is_visible="true"
       lpeversion="1"
       linejoin_type="miter"
       unit="mm"
       offset="-11"
       miter_limit="4"
       attempt_force_join="false"
       update_on_knot_move="true" />
    <inkscape:path-effect
       effect="offset"
       id="path-effect2630"
       is_visible="true"
       lpeversion="1"
       linejoin_type="miter"
       unit="mm"
       offset="-11"
       miter_limit="4"
       attempt_force_join="false"
       update_on_knot_move="true" />
    <inkscape:path-effect
       effect="offset"
       id="path-effect1591"
       is_visible="true"
       lpeversion="1"
       linejoin_type="miter"
       unit="mm"
       offset="-11"
       miter_limit="4"
       attempt_force_join="false"
       update_on_knot_move="true" />
    <inkscape:path-effect
       effect="offset"
       id="path-effect1468"
       is_visible="true"
       lpeversion="1"
       linejoin_type="miter"
       unit="mm"
       offset="0"
       miter_limit="4"
       attempt_force_join="false"
       update_on_knot_move="true" />
    <inkscape:path-effect
       effect="offset"
       id="path-effect1326"
       is_visible="true"
       lpeversion="1"
       linejoin_type="miter"
       unit="mm"
       offset="0.5"
       miter_limit="4"
       attempt_force_join="false"
       update_on_knot_move="true" />
    <inkscape:path-effect
       effect="offset"
       id="path-effect1324"
       is_visible="true"
       lpeversion="1"
       linejoin_type="miter"
       unit="mm"
       offset="0.5"
       miter_limit="4"
       attempt_force_join="false"
       update_on_knot_move="true" />
  </defs>
  <sodipodi:namedview
     id="namedview30"
     pagecolor="#505050"
     bordercolor="#eeeeee"
     borderopacity="1"
     inkscape:pageshadow="0"
     inkscape:pageopacity="0"
     inkscape:pagecheckerboard="0"
     inkscape:document-units="mm"
     showgrid="false"
     showguides="false"
     inkscape:zoom="4.0000001"
     inkscape:cx="586.74998"
     inkscape:cy="195.37499"
     inkscape:window-width="2560"
     inkscape:window-height="1440"
     inkscape:window-x="0"
     inkscape:window-y="0"
     inkscape:window-maximized="1"
     inkscape:current-layer="layer5" />
  <g
     inkscape:groupmode="layer"
     id="layer5"
     inkscape:label="plate"
     style="display:inline"
     sodipodi:insensitive="true">
    <path
       id="rect6305-4-4-3-7"
       style="display:inline;fill-opacity:0.0014062;stroke:#000000;stroke-width:0.189;stroke-miterlimit:4;stroke-dasharray:none"
       d="M 20.094499,0.09450016 H 260.0945 c 11.08,0 20,8.92000074 20,19.99999884 v 66.899254 c 0,11.07999 -9.12645,17.871137 -20,19.999997 0,0 -110.13306,23.80077 -120.0945,23.8125 -9.91768,0.0117 -119.905501,-23.8125 -119.905501,-23.8125 C 9.226738,104.83548 0.09450016,98.073743 0.09450016,86.993753 V 20.094499 c 0,-11.0799981 8.91999994,-19.99999884 19.99999884,-19.99999884 z"
       sodipodi:nodetypes="ssssssssss" />
    <polygon
       points="120.011,106.978 119.435,109.872 120.22,110.028 120.025,111.009 133.608,113.711 133.804,112.73 134.588,112.886 135.164,109.993 134.379,109.837 135.54,104.001 136.324,104.157 136.9,101.264 136.115,101.108 136.31,100.127 122.727,97.425 122.531,98.406 121.747,98.25 121.171,101.143 121.956,101.299 120.795,107.135 "
       style="fill:none;stroke:#000000;stroke-width:0.05mm"
       id="polygon4"
       transform="translate(-3.4055116,0.03615503)" />
    <polygon
       points="152.442,109.935 153.018,112.829 153.802,112.673 153.997,113.653 167.581,110.951 167.386,109.971 168.171,109.815 167.595,106.921 166.811,107.077 165.65,101.242 166.434,101.086 165.859,98.192 165.074,98.348 164.879,97.367 151.295,100.069 151.49,101.05 150.706,101.206 151.281,104.1 152.066,103.944 153.227,109.779 "
       style="fill:none;stroke:#000000;stroke-width:0.05mm"
       id="polygon6"
       transform="translate(-3.9346783,0.03615503)" />
    <polygon
       points="96.656,102.333 96.08,105.226 96.865,105.382 96.67,106.363 110.253,109.065 110.449,108.084 111.233,108.24 111.809,105.347 111.024,105.191 112.185,99.355 112.97,99.511 113.545,96.618 112.76,96.462 112.955,95.481 99.372,92.779 99.177,93.76 98.392,93.604 97.816,96.497 98.601,96.653 97.44,102.489 "
       style="fill:none;stroke:#000000;stroke-width:0.05mm"
       id="polygon8"
       transform="translate(-3.4055116,0.03615503)" />
    <polygon
       points="175.797,105.29 176.373,108.183 177.157,108.027 177.352,109.008 190.936,106.306 190.741,105.325 191.526,105.169 190.95,102.276 190.166,102.432 189.005,96.596 189.789,96.44 189.214,93.547 188.429,93.703 188.234,92.722 174.65,95.424 174.845,96.405 174.061,96.561 174.636,99.454 175.421,99.298 176.582,105.134 "
       style="fill:none;stroke:#000000;stroke-width:0.189;stroke-miterlimit:4;stroke-dasharray:none"
       id="polygon10"
       transform="translate(-3.9346783,0.03615503)" />
    <polygon
       points="26.591,88.396 26.015,91.289 26.8,91.446 26.605,92.426 40.189,95.128 40.384,94.148 41.168,94.304 41.744,91.41 40.959,91.254 42.12,85.419 42.905,85.575 43.48,82.681 42.696,82.525 42.891,81.544 29.307,78.842 29.112,79.823 28.327,79.667 27.752,82.56 28.536,82.717 27.375,88.552 "
       style="fill:none;stroke:#000000;stroke-width:0.05mm"
       id="polygon12-1"
       transform="translate(-3.4055116,0.03615503)" />
    <polygon
       points="245.862,91.353 246.437,94.246 247.222,94.09 247.417,95.071 261,92.369 260.805,91.388 261.591,91.232 261.015,88.339 260.23,88.495 259.07,82.659 259.853,82.503 259.279,79.61 258.494,79.766 258.298,78.785 244.715,81.487 244.91,82.468 244.126,82.624 244.701,85.517 245.486,85.361 246.646,91.197 "
       style="fill:none;stroke:#000000;stroke-width:0.05mm"
       id="polygon14-2"
       transform="translate(-3.9346783,0.03615503)" />
    <polygon
       points="119.056,87.365 118.481,90.259 119.265,90.415 119.07,91.396 132.654,94.098 132.849,93.117 133.634,93.273 134.209,90.38 133.425,90.223 134.585,84.388 135.37,84.544 135.945,81.651 135.161,81.494 135.356,80.514 121.772,77.812 121.577,78.792 120.792,78.636 120.217,81.53 121.001,81.686 119.841,87.521 "
       style="fill:none;stroke:#000000;stroke-width:0.05mm"
       id="polygon16-9"
       transform="translate(-3.4055116,0.03615503)" />
    <polygon
       points="153.397,90.322 153.972,93.216 154.757,93.06 154.952,94.04 168.536,91.338 168.341,90.358 169.125,90.201 168.55,87.308 167.765,87.464 166.604,81.629 167.389,81.472 166.813,78.579 166.029,78.735 165.834,77.754 152.25,80.456 152.445,81.437 151.66,81.593 152.236,84.487 153.02,84.331 154.181,90.166 "
       style="fill:none;stroke:#000000;stroke-width:0.05mm"
       id="polygon18-3"
       transform="translate(-3.9346783,0.03615503)" />
    <polygon
       points="100.372,83.649 99.797,86.542 100.581,86.698 100.386,87.679 113.97,90.381 114.165,89.4 114.95,89.556 115.525,86.663 114.741,86.507 115.901,80.671 116.686,80.827 117.262,77.934 116.477,77.778 116.672,76.797 103.088,74.095 102.893,75.076 102.108,74.92 101.533,77.813 102.317,77.969 101.157,83.805 "
       style="fill:none;stroke:#000000;stroke-width:0.05mm"
       id="polygon20-1"
       transform="translate(-3.4055116,0.03615503)" />
    <polygon
       points="172.081,86.606 172.656,89.499 173.441,89.343 173.636,90.324 187.22,87.622 187.025,86.641 187.809,86.485 187.234,83.592 186.449,83.748 185.288,77.912 186.073,77.756 185.497,74.863 184.713,75.019 184.518,74.038 170.934,76.74 171.129,77.721 170.344,77.877 170.92,80.77 171.704,80.614 172.865,86.45 "
       style="fill:none;stroke:#000000;stroke-width:0.05mm"
       id="polygon22-9"
       transform="translate(-3.9346783,0.03615503)" />
    <polygon
       points="81.688,79.932 81.113,82.826 81.897,82.982 81.702,83.963 95.286,86.665 95.481,85.684 96.266,85.84 96.841,82.947 96.057,82.791 97.217,76.955 98.002,77.111 98.578,74.218 97.793,74.062 97.988,73.081 84.404,70.379 84.209,71.36 83.424,71.203 82.849,74.097 83.634,74.253 82.473,80.089 "
       style="fill:none;stroke:#000000;stroke-width:0.05mm"
       id="polygon24-4"
       transform="translate(-3.4055116,0.03615503)" />
    <polygon
       points="190.765,82.889 191.34,85.783 192.125,85.627 192.32,86.607 205.904,83.905 205.709,82.925 206.493,82.768 205.918,79.875 205.133,80.031 203.972,74.196 204.757,74.04 204.181,71.146 203.397,71.302 203.202,70.321 189.618,73.023 189.813,74.004 189.028,74.16 189.604,77.054 190.388,76.898 191.549,82.733 "
       style="fill:none;stroke:#000000;stroke-width:0.05mm"
       id="polygon26-7"
       transform="translate(-3.9346783,0.03615503)" />
    <polygon
       points="63.004,76.216 62.429,79.109 63.213,79.265 63.018,80.246 76.602,82.948 76.797,81.967 77.582,82.123 78.157,79.23 77.373,79.074 78.533,73.238 79.318,73.394 79.894,70.501 79.109,70.345 79.304,69.364 65.72,66.662 65.525,67.643 64.739,67.487 64.165,70.38 64.95,70.536 63.789,76.372 "
       style="fill:none;stroke:#000000;stroke-width:0.05mm"
       id="polygon28-8"
       transform="translate(-3.4055116,0.03615503)" />
    <polygon
       points="209.448,79.173 210.024,82.066 210.809,81.91 211.004,82.891 224.588,80.189 224.392,79.208 225.177,79.052 224.602,76.159 223.817,76.315 222.656,70.479 223.441,70.323 222.865,67.43 222.081,67.586 221.886,66.605 208.302,69.307 208.497,70.288 207.712,70.444 208.288,73.337 209.072,73.181 210.233,79.017 "
       style="fill:none;stroke:#000000;stroke-width:0.05mm"
       id="polygon30-4"
       transform="translate(-3.9346783,0.03615503)" />
    <polygon
       points="44.32,72.5 43.745,75.393 44.529,75.549 44.334,76.53 57.918,79.232 58.113,78.251 58.898,78.407 59.473,75.514 58.689,75.358 59.849,69.522 60.634,69.678 61.21,66.785 60.425,66.629 60.62,65.648 47.036,62.946 46.841,63.927 46.056,63.771 45.481,66.664 46.266,66.82 45.105,72.656 "
       style="fill:none;stroke:#000000;stroke-width:0.05mm"
       id="polygon32-5"
       transform="translate(-3.4055116,0.03615503)" />
    <polygon
       points="228.132,75.456 228.708,78.35 229.493,78.194 229.688,79.174 243.272,76.472 243.076,75.492 243.861,75.336 243.286,72.442 242.501,72.598 241.34,66.763 242.125,66.607 241.549,63.713 240.765,63.869 240.57,62.889 226.986,65.591 227.181,66.571 226.396,66.727 226.972,69.621 227.756,69.465 228.917,75.3 "
       style="fill:none;stroke:#000000;stroke-width:0.05mm"
       id="polygon34-0"
       transform="translate(-3.9346783,0.03615503)" />
    <polygon
       points="246.816,71.74 247.392,74.633 248.177,74.477 248.372,75.458 261.954,72.756 261.76,71.775 262.545,71.619 261.97,68.726 261.185,68.882 260.024,63.046 260.809,62.89 260.233,59.997 259.449,60.153 259.253,59.172 245.67,61.874 245.865,62.855 245.08,63.011 245.656,65.904 246.44,65.748 247.601,71.584 "
       style="fill:none;stroke:#000000;stroke-width:0.05mm"
       id="polygon36-3"
       transform="translate(-3.9346783,0.03615503)" />
    <polygon
       points="23.301,68.319 22.725,71.212 23.51,71.368 23.315,72.349 36.899,75.051 37.094,74.07 37.878,74.226 38.454,71.333 37.669,71.177 38.83,65.34 39.615,65.497 40.19,62.604 39.406,62.448 39.601,61.467 26.017,58.765 25.822,59.746 25.037,59.59 24.462,62.483 25.246,62.639 24.085,68.475 "
       style="fill:none;stroke:#000000;stroke-width:0.05mm"
       id="polygon38-6"
       transform="translate(-3.4055116,0.03615503)" />
    <polygon
       points="113.431,66.823 112.855,69.717 113.64,69.873 113.445,70.853 127.028,73.555 127.224,72.575 128.008,72.731 128.584,69.837 127.799,69.681 128.96,63.846 129.744,64.001 130.32,61.108 129.535,60.952 129.729,59.972 116.147,57.27 115.951,58.25 115.167,58.094 114.591,60.988 115.376,61.144 114.215,66.979 "
       style="fill:none;stroke:#000000;stroke-width:0.05mm"
       id="polygon40-1"
       transform="translate(-3.4055116,0.03615503)" />
    <polygon
       points="159.022,69.78 159.598,72.673 160.382,72.517 160.577,73.498 174.161,70.796 173.966,69.815 174.751,69.659 174.175,66.766 173.391,66.922 172.23,61.086 173.014,60.93 172.439,58.037 171.654,58.193 171.459,57.212 157.875,59.914 158.07,60.895 157.286,61.051 157.861,63.944 158.646,63.788 159.807,69.624 "
       style="fill:none;stroke:#000000;stroke-width:0.05mm"
       id="polygon42-0"
       transform="translate(-3.9346783,0.03615503)" />
    <polygon
       points="94.747,63.107 94.171,66 94.956,66.156 94.761,67.137 108.344,69.839 108.54,68.858 109.324,69.014 109.9,66.121 109.115,65.965 110.276,60.129 111.06,60.285 111.636,57.392 110.851,57.236 111.046,56.255 97.463,53.553 97.267,54.534 96.483,54.378 95.907,57.271 96.692,57.427 95.531,63.263 "
       style="fill:none;stroke:#000000;stroke-width:0.05mm"
       id="polygon44-6"
       transform="translate(-3.4055116,0.03615503)" />
    <polygon
       points="177.706,66.064 178.282,68.957 179.066,68.801 179.261,69.782 192.845,67.08 192.65,66.099 193.435,65.943 192.859,63.049 192.075,63.206 190.914,57.37 191.698,57.214 191.123,54.32 190.338,54.477 190.143,53.496 176.559,56.198 176.754,57.179 175.97,57.335 176.545,60.228 177.33,60.072 178.491,65.908 "
       style="fill:none;stroke:#000000;stroke-width:0.05mm"
       id="polygon46-3"
       transform="translate(-3.9346783,0.03615503)" />
    <polygon
       points="76.063,59.39 75.487,62.284 76.272,62.44 76.077,63.42 89.66,66.122 89.856,65.141 90.64,65.298 91.216,62.404 90.431,62.248 91.592,56.413 92.377,56.569 92.952,53.675 92.167,53.519 92.362,52.539 78.779,49.837 78.584,50.817 77.799,50.661 77.223,53.555 78.008,53.711 76.847,59.546 "
       style="fill:none;stroke:#000000;stroke-width:0.05mm"
       id="polygon48-2"
       transform="translate(-3.4055116,0.03615503)" />
    <polygon
       points="196.39,62.347 196.966,65.239 197.75,65.084 197.945,66.065 211.529,63.363 211.334,62.382 212.119,62.226 211.543,59.333 210.759,59.489 209.598,53.653 210.382,53.497 209.807,50.604 209.022,50.76 208.827,49.779 195.243,52.481 195.438,53.462 194.654,53.618 195.229,56.511 196.014,56.355 197.175,62.191 "
       style="fill:none;stroke:#000000;stroke-width:0.05mm"
       id="polygon50-0"
       transform="translate(-3.9346783,0.03615503)" />
    <polygon
       points="57.379,55.674 56.803,58.567 57.588,58.723 57.393,59.704 70.977,62.406 71.172,61.425 71.956,61.581 72.532,58.688 71.747,58.532 72.908,52.696 73.693,52.852 74.268,49.959 73.483,49.803 73.679,48.822 60.095,46.12 59.9,47.101 59.115,46.945 58.539,49.838 59.324,49.994 58.163,55.83 "
       style="fill:none;stroke:#000000;stroke-width:0.05mm"
       id="polygon52-6"
       transform="translate(-3.4055116,0.03615503)" />
    <polygon
       points="215.074,58.631 215.649,61.524 216.434,61.368 216.629,62.349 230.213,59.647 230.018,58.666 230.803,58.51 230.227,55.617 229.442,55.773 228.282,49.937 229.066,49.781 228.491,46.888 227.706,47.044 227.511,46.063 213.927,48.765 214.122,49.746 213.338,49.902 213.913,52.795 214.698,52.639 215.859,58.475 "
       style="fill:none;stroke:#000000;stroke-width:0.05mm"
       id="polygon54-1"
       transform="translate(-3.9346783,0.03615503)" />
    <polygon
       points="38.695,51.957 38.119,54.851 38.904,55.007 38.709,55.988 52.293,58.69 52.488,57.709 53.272,57.865 53.848,54.971 53.063,54.815 54.224,48.98 55.009,49.136 55.584,46.242 54.799,46.086 54.995,45.106 41.411,42.404 41.216,43.384 40.431,43.228 39.855,46.122 40.64,46.278 39.479,52.113 "
       style="fill:none;stroke:#000000;stroke-width:0.05mm"
       id="polygon56"
       transform="translate(-3.4055116,0.03615503)" />
    <polygon
       points="233.758,54.914 234.333,57.808 235.118,57.651 235.313,58.632 248.897,55.93 248.702,54.949 249.487,54.793 248.911,51.9 248.126,52.056 246.966,46.22 247.75,46.064 247.175,43.171 246.39,43.327 246.195,42.346 232.611,45.048 232.806,46.029 232.022,46.185 232.597,49.079 233.382,48.922 234.543,54.758 "
       style="fill:none;stroke:#000000;stroke-width:0.05mm"
       id="polygon58"
       transform="translate(-3.9346783,0.03615503)" />
    <polygon
       points="150.635,52.025 151.21,54.919 151.995,54.762 152.19,55.743 165.774,53.041 165.579,52.06 166.363,51.904 165.788,49.011 165.003,49.167 163.842,43.331 164.627,43.175 164.051,40.282 163.267,40.438 163.072,39.457 149.488,42.159 149.683,43.14 148.898,43.296 149.474,46.19 150.258,46.033 151.419,51.869 "
       style="fill:none;stroke:#000000;stroke-width:0.189;stroke-miterlimit:4;stroke-dasharray:none"
       id="polygon60-5"
       transform="translate(-3.9346783,0.03615503)" />
    <polygon
       points="20.011,48.241 19.435,51.134 20.22,51.29 20.025,52.271 33.609,54.973 33.804,53.992 34.588,54.148 35.164,51.255 34.379,51.099 35.54,45.263 36.325,45.419 36.9,42.526 36.116,42.37 36.311,41.389 22.727,38.687 22.532,39.668 21.747,39.512 21.172,42.405 21.956,42.561 20.795,48.397 "
       style="fill:none;stroke:#000000;stroke-width:0.05mm"
       id="polygon62-5"
       transform="translate(-3.4055116,0.03615503)" />
    <polygon
       points="252.442,51.198 253.017,54.091 253.802,53.935 253.997,54.916 267.581,52.214 267.386,51.233 268.171,51.077 267.595,48.184 266.81,48.34 265.65,42.504 266.434,42.348 265.859,39.455 265.074,39.611 264.879,38.63 251.295,41.332 251.49,42.313 250.706,42.469 251.281,45.362 252.066,45.206 253.227,51.042 "
       style="fill:none;stroke:#000000;stroke-width:0.05mm"
       id="polygon64-4"
       transform="translate(-3.9346783,0.03615503)" />
    <polygon
       points="112.476,47.21 111.9,50.103 112.685,50.26 112.49,51.24 126.074,53.942 126.269,52.962 127.054,53.118 127.629,50.224 126.845,50.068 128.005,44.233 128.788,44.389 129.365,41.495 128.58,41.339 128.776,40.358 115.192,37.656 114.997,38.637 114.212,38.481 113.637,41.374 114.421,41.531 113.261,47.366 "
       style="fill:none;stroke:#000000;stroke-width:0.05mm"
       id="polygon66-7"
       transform="translate(-3.4055116,0.03615503)" />
    <polygon
       points="169.319,48.309 169.894,51.202 170.679,51.046 170.874,52.027 184.458,49.325 184.263,48.344 185.047,48.188 184.472,45.295 183.687,45.451 182.526,39.615 183.311,39.459 182.735,36.566 181.951,36.722 181.756,35.741 168.172,38.443 168.367,39.424 167.582,39.58 168.158,42.473 168.942,42.317 170.103,48.153 "
       style="fill:none;stroke:#000000;stroke-width:0.189;stroke-miterlimit:4;stroke-dasharray:none"
       id="polygon68-6"
       transform="translate(-3.9346783,0.03615503)" />
    <polygon
       points="93.792,43.494 93.217,46.387 94.001,46.543 93.806,47.524 107.39,50.226 107.585,49.245 108.37,49.401 108.945,46.508 108.161,46.352 109.321,40.516 110.106,40.672 110.681,37.779 109.897,37.623 110.092,36.642 96.508,33.94 96.313,34.921 95.528,34.765 94.953,37.658 95.737,37.814 94.577,43.65 "
       style="fill:none;stroke:#000000;stroke-width:0.05mm"
       id="polygon70-5"
       transform="translate(-3.4055116,0.03615503)" />
    <polygon
       points="188.003,44.592 188.578,47.486 189.363,47.33 189.558,48.31 203.142,45.608 202.947,44.628 203.731,44.471 203.156,41.578 202.371,41.734 201.21,35.899 201.995,35.742 201.419,32.849 200.635,33.005 200.44,32.024 186.856,34.726 187.051,35.707 186.266,35.863 186.842,38.757 187.626,38.601 188.787,44.436 "
       style="fill:none;stroke:#000000;stroke-width:0.05mm"
       id="polygon72-6"
       transform="translate(-3.9346783,0.03615503)" />
    <polygon
       points="75.108,39.777 74.533,42.671 75.317,42.827 75.122,43.807 88.706,46.509 88.901,45.529 89.686,45.685 90.261,42.791 89.477,42.635 90.637,36.8 91.422,36.956 91.998,34.062 91.213,33.906 91.408,32.925 77.824,30.223 77.629,31.204 76.844,31.048 76.269,33.942 77.053,34.098 75.893,39.933 "
       style="fill:none;stroke:#000000;stroke-width:0.05mm"
       id="polygon74-9"
       transform="translate(-3.4055116,0.03615503)" />
    <polygon
       points="206.687,40.876 207.262,43.769 208.047,43.613 208.242,44.594 221.826,41.892 221.631,40.911 222.415,40.755 221.84,37.862 221.055,38.018 219.894,32.182 220.679,32.026 220.103,29.133 219.319,29.289 219.124,28.308 205.54,31.01 205.735,31.991 204.95,32.147 205.526,35.04 206.31,34.884 207.471,40.72 "
       style="fill:none;stroke:#000000;stroke-width:0.05mm"
       id="polygon76-3"
       transform="translate(-3.9346783,0.03615503)" />
    <polygon
       points="56.424,36.061 55.849,38.954 56.633,39.11 56.438,40.091 70.022,42.793 70.217,41.812 71.002,41.968 71.577,39.075 70.793,38.919 71.953,33.083 72.738,33.239 73.314,30.346 72.529,30.19 72.724,29.209 59.14,26.507 58.945,27.488 58.16,27.332 57.585,30.225 58.37,30.381 57.209,36.217 "
       style="fill:none;stroke:#000000;stroke-width:0.05mm"
       id="polygon78-7"
       transform="translate(-3.4055116,0.03615503)" />
    <polygon
       points="225.37,37.159 225.946,40.053 226.731,39.897 226.926,40.877 240.51,38.175 240.314,37.195 241.099,37.039 240.524,34.145 239.739,34.301 238.578,28.466 239.363,28.31 238.787,25.416 238.003,25.572 237.808,24.591 224.224,27.293 224.419,28.274 223.634,28.43 224.21,31.324 224.994,31.168 226.155,37.003 "
       style="fill:none;stroke:#000000;stroke-width:0.05mm"
       id="polygon80-4"
       transform="translate(-3.9346783,0.03615503)" />
    <polygon
       points="37.74,32.344 37.165,35.238 37.949,35.394 37.754,36.374 51.338,39.076 51.533,38.096 52.318,38.252 52.893,35.358 52.109,35.202 53.269,29.367 54.054,29.523 54.63,26.629 53.845,26.473 54.04,25.493 40.456,22.791 40.261,23.771 39.476,23.615 38.901,26.509 39.686,26.665 38.525,32.5 "
       style="fill:none;stroke:#000000;stroke-width:0.05mm"
       id="polygon82-5"
       transform="translate(-3.4055116,0.03615503)" />
    <polygon
       points="248.725,32.514 249.301,35.407 250.086,35.251 250.281,36.232 263.865,33.53 263.669,32.549 264.454,32.393 263.879,29.5 263.094,29.656 261.933,23.82 262.718,23.664 262.142,20.771 261.358,20.927 261.163,19.946 247.579,22.648 247.774,23.629 246.989,23.785 247.565,26.678 248.349,26.522 249.51,32.357 "
       style="fill:none;stroke:#000000;stroke-width:0.05mm"
       id="polygon84-2"
       transform="translate(-3.9346783,0.03615503)" />
    <polygon
       points="19.056,28.628 18.481,31.521 19.265,31.677 19.07,32.658 32.654,35.36 32.849,34.379 33.634,34.535 34.209,31.642 33.425,31.486 34.585,25.65 35.37,25.806 35.946,22.913 35.161,22.757 35.356,21.776 21.772,19.074 21.577,20.055 20.793,19.899 20.217,22.792 21.002,22.948 19.841,28.784 "
       style="fill:none;stroke:#000000;stroke-width:0.05mm"
       id="polygon86-5"
       transform="translate(-3.4055116,0.03615503)" />
    <circle
       style="display:inline;fill:#000000;fill-opacity:0.0014062;stroke:#000000;stroke-width:0.188952;stroke-miterlimit:4;stroke-dasharray:none"
       id="path1418-65-9-3-6-7-5"
       cx="124.99999"
       cy="31.0945"
       r="1.0000238" />
    <ellipse
       style="display:inline;fill:#000000;fill-opacity:0.0014062;stroke:#000000;stroke-width:0.188952;stroke-miterlimit:4;stroke-dasharray:none"
       id="path1418-65-9-3-6-7-5-3"
       cx="124.99999"
       cy="16.0945"
       rx="1.000024"
       ry="1.0000238" />
    <ellipse
       style="display:inline;fill:#000000;fill-opacity:0.0014062;stroke:#000000;stroke-width:0.188952;stroke-miterlimit:4;stroke-dasharray:none"
       id="path1418-65-9-3-6-7-5-3-5"
       cx="155"
       cy="16.0945"
       rx="1.000024"
       ry="1.0000238" />
    <ellipse
       style="display:inline;fill:#000000;fill-opacity:0.0014062;stroke:#000000;stroke-width:0.188952;stroke-miterlimit:4;stroke-dasharray:none"
       id="path1418-65-9-3-6-7-5-3-5-6"
       cx="155"
       cy="31.0945"
       rx="1.000024"
       ry="1.0000238" />
    <ellipse
       style="display:inline;fill:#000000;fill-opacity:0.0014062;stroke:#000000;stroke-width:0.189"
       id="path1418-65-9-6-0"
       cx="122.59811"
       cy="6.1650901"
       rx="1.75"
       ry="1.7499999" />
    <ellipse
       style="display:inline;fill:#000000;fill-opacity:0.0014062;stroke:#000000;stroke-width:0.189"
       id="path1418-6-9-6-3-0-7-9"
       cx="5.8736677"
       cy="48.08614"
       rx="1.75"
       ry="1.7499999" />
    <ellipse
       style="display:inline;fill:#000000;fill-opacity:0.0014062;stroke:#000000;stroke-width:0.189"
       id="path1418-6-9-6-7-7-91-5-3"
       cx="274.31534"
       cy="48.08614"
       rx="1.75"
       ry="1.7499999" />
    <ellipse
       style="display:inline;fill:#000000;fill-opacity:0.0014062;stroke:#000000;stroke-width:0.189"
       id="path1418-6-5-5-7-3-6"
       cx="10.806441"
       cy="10.798426"
       rx="1.75"
       ry="1.7499999" />
    <ellipse
       style="display:inline;fill:#000000;fill-opacity:0.0014062;stroke:#000000;stroke-width:0.189"
       id="path1418-6-5-6-2-71-5-0"
       cx="269.42313"
       cy="10.798655"
       rx="1.75"
       ry="1.7499999" />
    <ellipse
       style="display:inline;fill:#000000;fill-opacity:0.0014062;stroke:#000000;stroke-width:0.189"
       id="path1418-6-5-5-0-1-6-6"
       cx="10.806663"
       cy="95.09787"
       rx="1.75"
       ry="1.7499999" />
    <ellipse
       style="display:inline;fill:#000000;fill-opacity:0.0014062;stroke:#000000;stroke-width:0.189"
       id="path1418-6-5-6-2-7-5-2-2"
       cx="269.42334"
       cy="95.098022"
       rx="1.75"
       ry="1.7499999" />
    <ellipse
       style="display:inline;fill:#000000;fill-opacity:0.0014062;stroke:#000000;stroke-width:0.189"
       id="path1418-3-4-9-9-6"
       cx="157.8358"
       cy="6.1650901"
       rx="1.75"
       ry="1.7499999" />
    <ellipse
       style="display:inline;fill:#000000;fill-opacity:0.0014062;stroke:#000000;stroke-width:0.189"
       id="path1418-65-8-7-1-1"
       cx="102.59851"
       cy="116.64563"
       rx="1.75"
       ry="1.7499999" />
    <ellipse
       style="display:inline;fill:#000000;fill-opacity:0.0014062;stroke:#000000;stroke-width:0.189"
       id="path1418-3-4-6-76-2-8"
       cx="177.8365"
       cy="116.64563"
       rx="1.75"
       ry="1.7499999" />
  </g>
  <metadata
     id="metadata944">
    <rdf:RDF>
      <cc:Work
         rdf:about="">
        <dc:title>Eliza</dc:title>
        <dc:creator>
          <cc:Agent>
            <dc:title>Cody Bloemhard</dc:title>
          </cc:Agent>
        </dc:creator>
        <dc:rights>
          <cc:Agent>
            <dc:title>GPL v3</dc:title>
          </cc:Agent>
        </dc:rights>
      </cc:Work>
    </rdf:RDF>
  </metadata>
</svg>
