<?xml version="1.0" encoding="UTF-8" standalone="no"?>
<!-- Generated by SVGo -->

<svg
   width="302.077mm"
   height="160.260mm"
   viewBox="0.000 0.000 302.077 160.260"
   version="1.1"
   id="svg28"
   sodipodi:docname="plate-engrave.svg"
   inkscape:version="1.1.2 (0a00cf5339, 2022-02-04, custom)"
   xmlns:inkscape="http://www.inkscape.org/namespaces/inkscape"
   xmlns:sodipodi="http://sodipodi.sourceforge.net/DTD/sodipodi-0.dtd"
   xmlns="http://www.w3.org/2000/svg"
   xmlns:svg="http://www.w3.org/2000/svg"
   xmlns:rdf="http://www.w3.org/1999/02/22-rdf-syntax-ns#"
   xmlns:cc="http://creativecommons.org/ns#"
   xmlns:dc="http://purl.org/dc/elements/1.1/">
  <sodipodi:namedview
     id="namedview67"
     pagecolor="#505050"
     bordercolor="#eeeeee"
     borderopacity="1"
     inkscape:pageshadow="0"
     inkscape:pageopacity="0"
     inkscape:pagecheckerboard="0"
     inkscape:document-units="mm"
     showgrid="false"
     inkscape:zoom="1.0665221"
     inkscape:cx="571.01489"
     inkscape:cy="302.38473"
     inkscape:window-width="2560"
     inkscape:window-height="1440"
     inkscape:window-x="0"
     inkscape:window-y="0"
     inkscape:window-maximized="1"
     inkscape:current-layer="svg28" />
  <title
     id="title946">Eliza</title>
  <defs
     id="defs32" />
  <metadata
     id="metadata944">
    <rdf:RDF>
      <cc:Work
         rdf:about="">
        <dc:title>Eliza</dc:title>
        <dc:creator>
          <cc:Agent>
            <dc:title>Cody Bloemhard</dc:title>
          </cc:Agent>
        </dc:creator>
        <dc:rights>
          <cc:Agent>
            <dc:title>GPL v3</dc:title>
          </cc:Agent>
        </dc:rights>
      </cc:Work>
    </rdf:RDF>
  </metadata>
  <path
     style="display:inline;fill:none;stroke:#000000;stroke-width:0.189;stroke-linecap:butt;stroke-linejoin:miter;stroke-miterlimit:4;stroke-dasharray:none;stroke-opacity:1"
     d="m 197.755,105.6777 c -0.0443,-0.10114 -0.0802,-0.20782 -0.11911,-0.30946 -0.0604,-0.15772 -0.12763,-0.30345 -0.18587,-0.46167 -0.0875,-0.23774 -0.0624,-0.51862 -0.15358,-0.7549 -0.0717,-0.18572 -0.24979,-0.82773 -0.2335,-1.00711 0.003,-0.0385 -0.0211,-0.11749 -0.0162,-0.15584 0.0125,-0.0982 0.006,-0.17394 -5.5e-4,-0.27323 -0.008,-0.11541 -0.0109,-0.2374 -0.0148,-0.34884 -0.008,-0.22172 -0.0956,-0.46972 -0.13983,-0.6873 -0.0343,-0.14537 -0.10272,-0.50977 -0.18054,-1.16724 -0.0212,-0.19234 -0.0942,-0.37887 -0.1162,-0.571133 -0.0467,-0.408713 -0.13062,-0.809477 -0.18706,-1.217192 -0.0516,-0.372758 -0.0599,-0.755322 -0.085,-1.127424 -0.003,-0.0827 -0.0435,-0.160314 -0.0494,-0.242647 -0.0306,-0.09629 0.0198,-0.190286 0.0144,-0.285379 -0.007,-0.127442 -0.04,-0.25594 -0.0495,-0.383286 -0.0237,-0.31482 0.0365,-0.656299 0.0698,-0.968407 0.0212,-0.198612 -0.004,-0.415171 0.0461,-0.6101 0.0492,-0.189651 0.0662,-0.369171 0.0868,-0.565203 0.0227,-0.215112 0.10023,-0.423029 0.13298,-0.63667 0.0138,-0.09023 -8e-4,-0.1837 0.0164,-0.27337 0.0276,-0.144756 0.0933,-0.288155 0.11654,-0.436332 0.0609,-0.389128 0.14734,-0.80268 0.29393,-1.170871 0.19984,-0.501904 0.38678,-0.749422 0.84796,-1.032341 0.19457,-0.119364 0.37117,-0.26693 0.57848,-0.360828 0.2737,-0.123968 0.71488,-0.200263 1.01241,-0.274638 0.12179,-0.03044 0.24815,-0.04126 0.36904,-0.07508 0.39106,-0.06173 0.57989,-0.06925 1.04383,0.01117 0.26529,0.07395 1.27786,0.549095 1.46883,0.744218 0.0402,0.04103 0.0587,0.100298 0.0996,0.140499 0.13571,0.133085 0.30111,0.226898 0.43025,0.376533 0.35071,0.406371 0.7048,0.835065 1.13357,1.162214 0.084,0.06413 0.18704,0.0999 0.27295,0.161521 0.0598,0.04287 0.0987,0.112202 0.16165,0.15019 0.0452,0.02724 0.10334,0.02241 0.15316,0.03969 0.14076,0.04884 0.28359,0.118173 0.43309,0.14469 0.56522,0.100255 1.21128,-0.03728 1.76258,-0.149445 0.16019,-0.03259 0.32933,-0.03574 0.48057,-0.09777 0.0932,-0.03825 0.19657,-0.09289 0.28785,-0.135597 0.49719,-0.232604 0.0715,-0.01662 0.4714,-0.193516 0.37176,-0.164457 1.43163,-0.883946 1.65404,-1.201851 0.20456,-0.292394 0.23682,-0.684879 0.38311,-1.00421 0.16912,-0.369176 0.38111,-0.73855 0.60981,-1.066591 0.0737,-0.105786 0.0782,-0.180441 0.18473,-0.277379 0.44228,-0.40251 1.49989,-0.982138 2.03257,-1.205126 0.11552,-0.04836 0.24401,-0.06029 0.35997,-0.107583 0.51111,-0.20846 0.0473,-0.09939 0.4829,-0.224057 0.14483,-0.04145 0.38788,-0.115094 0.53626,-0.109103 0.0767,0.0031 0.14755,0.04409 0.22339,0.05604 0.16726,0.02635 0.33992,0.0059 0.50677,0.03466 0.44674,0.07704 1.0871,0.306313 1.46847,0.556133 0.0564,0.03693 0.097,0.09458 0.15272,0.132535 0.0422,0.02873 0.0987,0.03342 0.13823,0.06571 0.0555,0.04536 0.0899,0.112115 0.14093,0.162425 0.3189,0.314243 0.63126,0.666943 0.96785,0.962041 0.0466,0.0409 0.11206,0.05832 0.15495,0.103164 0.10602,0.110865 0.17471,0.276085 0.2928,0.381235 0.36944,0.328983 0.90818,0.529894 1.37952,0.630621 0.33424,0.07143 0.6342,0.06535 0.97876,0.03177 0.14029,-0.01368 0.28589,0.01699 0.42597,0.0058 0.21217,-0.01696 0.42738,-0.07198 0.63519,-0.07267 0.14532,-5.29e-4 0.31747,-0.06459 0.45933,-0.09345 0.30555,-0.06217 0.61111,-0.124333 0.91666,-0.186497 0.14779,-0.03007 1.17776,-0.201501 1.24219,-0.252727 0.0205,-0.0163 0.31034,-0.09456 0.33264,-0.108209 0.11263,-0.0688 0.89386,-0.198284 1.07771,-0.235932 0.10672,-0.02185 0.61955,-0.178831 0.80314,-0.127209 0.0281,0.0079 0.12883,-0.0095 0.15583,0.0016 0.14109,0.05785 0.57133,-0.02193 0.7312,0.0062 0.17688,0.03113 0.3622,0.04314 0.54221,0.0425 0.1242,-5.3e-4 0.0702,0.02625 0.18858,0.05967 0.0943,0.02663 0.18368,5.29e-4 0.27536,1.32e-4 0.01,-4.8e-5 0.12346,0.03575 0.12755,0.03657 0.15891,0.03197 0.32502,0.02072 0.48305,0.04332 0.11028,0.01579 0.21388,0.07307 0.32507,0.08963 0.0733,0.01093 0.14886,-2.65e-4 0.22213,0.01095 0.32083,0.04939 0.63578,0.196958 0.95254,0.275971 0.32512,0.0811 0.70344,0.130124 1.00882,0.271036 0.10784,0.04976 0.20222,0.127685 0.31336,0.169558 0.0584,0.02201 0.12633,0.0016 0.18641,0.01873 0.22024,0.0625 0.4339,0.221856 0.64422,0.314545 0.14632,0.06448 0.33174,0.110384 0.46947,0.186912 0.27306,0.15172 0.60941,0.564724 0.82509,0.789127 0.14229,0.148051 0.32595,0.25622 0.4528,0.417701 0.0733,0.09337 0.12469,0.202279 0.19336,0.299132 0.44077,0.621652 0.96792,1.170599 1.2999,1.859521 0.0932,0.193461 0.24462,0.364667 0.32562,0.564277 0.13871,0.341834 0.28184,0.700524 0.37776,1.057614 0.10665,0.397012 0.11895,0.925994 0.26403,1.297712 0.0682,0.174773 0.12991,0.337331 0.18982,0.513937 0.0935,0.275768 0.0835,0.586426 0.17552,0.862743 0.0904,0.271423 0.14065,0.553321 0.1981,0.835684"
     id="path16814" />
  <path
     style="display:inline;fill:none;stroke:#000000;stroke-width:0.189;stroke-linecap:butt;stroke-linejoin:miter;stroke-miterlimit:4;stroke-dasharray:none;stroke-opacity:1"
     d="m 198.55963,92.958255 c 0.11711,0.949319 0.55749,1.737241 1.6401,1.515776 0.0767,-0.01569 0.32915,-0.0241 0.38119,-0.07798 0.36024,-0.372832 0.39529,-1.001619 0.47982,-1.457258"
     id="path18458" />
  <path
     style="display:inline;fill:none;stroke:#000000;stroke-width:0.189;stroke-linecap:butt;stroke-linejoin:miter;stroke-miterlimit:4;stroke-dasharray:none;stroke-opacity:1"
     d="m 212.73765,90.03512 c -0.15285,1.885296 2.58912,1.916744 2.20059,0.01744"
     id="path18460" />
  <path
     style="display:inline;fill:none;stroke:#000000;stroke-width:0.189;stroke-linecap:butt;stroke-linejoin:miter;stroke-miterlimit:4;stroke-dasharray:none;stroke-opacity:1"
     d="m 205.55067,96.485619 c -0.16928,0.213664 -0.47389,0.604271 -0.29279,0.905325 0.32584,0.541689 1.28618,0.826759 1.87348,0.706617 0.31629,-0.0647 0.76182,-0.560485 0.84227,-0.888143 0.0306,-0.124661 0.0742,-0.308768 0.0483,-0.435702 -0.005,-0.02545 -0.0209,-0.09784 -0.004,-0.07777 0.18317,0.22316 0.34908,0.508704 0.56513,0.701403 0.32313,0.288192 1.34107,0.41122 1.73132,0.238355 0.59388,-0.263068 0.36555,-1.3178 -0.0581,-1.599407"
     id="path18480" />
</svg>
