  0
SECTION
  2
HEADER
  9
$ACADVER
  1
AC1014
  9
$HANDSEED
  5
FFFF
  9
$MEASUREMENT
 70
     1
  0
ENDSEC
  0
SECTION
  2
TABLES
  0
TABLE
  2
VPORT
  5
8
330
0
100
AcDbSymbolTable
 70
     4
  0
VPORT
  5
2E
330
8
100
AcDbSymbolTableRecord
100
AcDbViewportTableRecord
  2
*ACTIVE
 70
     0
 10
0.0
 20
0.0
 11
1.0
 21
1.0
 12
210.0
 22
148.5
 13
0.0
 23
0.0
 14
10.0
 24
10.0
 15
10.0
 25
10.0
 16
0.0
 26
0.0
 36
1.0
 17
0.0
 27
0.0
 37
0.0
 40
341.0
 41
1.24
 42
50.0
 43
0.0
 44
0.0
 50
0.0
 51
0.0
 71
     0
 72
   100
 73
     1
 74
     3
 75
     0
 76
     0
 77
     0
 78
     0
  0
ENDTAB
  0
TABLE
  2
LTYPE
  5
5
330
0
100
AcDbSymbolTable
 70
     1
  0
LTYPE
  5
14
330
5
100
AcDbSymbolTableRecord
100
AcDbLinetypeTableRecord
  2
BYBLOCK
 70
     0
  3

 72
    65
 73
     0
 40
0.0
  0
LTYPE
  5
15
330
5
100
AcDbSymbolTableRecord
100
AcDbLinetypeTableRecord
  2
BYLAYER
 70
     0
  3

 72
    65
 73
     0
 40
0.0
  0
LTYPE
  5
16
330
5
100
AcDbSymbolTableRecord
100
AcDbLinetypeTableRecord
  2
CONTINUOUS
 70
     0
  3
Solid line
 72
    65
 73
     0
 40
0.0
  0
ENDTAB
  0
TABLE
  2
LAYER
  5
2
100
AcDbSymbolTable
 70
2
  0
LAYER
  5
50
100
AcDbSymbolTableRecord
100
AcDbLayerTableRecord
  2
0
 70
0
  6
CONTINUOUS
  0
LAYER
  5
51
100
AcDbSymbolTableRecord
100
AcDbLayerTableRecord
  2
top-0
 70
0
  6
CONTINUOUS
  0
ENDTAB
  0
TABLE
  2
STYLE
  5
3
330
0
100
AcDbSymbolTable
 70
     1
  0
STYLE
  5
11
330
3
100
AcDbSymbolTableRecord
100
AcDbTextStyleTableRecord
  2
STANDARD
 70
     0
 40
0.0
 41
1.0
 50
0.0
 71
     0
 42
2.5
  3
txt
  4

  0
ENDTAB
  0
TABLE
  2
VIEW
  5
6
330
0
100
AcDbSymbolTable
 70
     0
  0
ENDTAB
  0
TABLE
  2
UCS
  5
7
330
0
100
AcDbSymbolTable
 70
     0
  0
ENDTAB
  0
TABLE
  2
APPID
  5
9
330
0
100
AcDbSymbolTable
 70
     2
  0
APPID
  5
12
330
9
100
AcDbSymbolTableRecord
100
AcDbRegAppTableRecord
  2
ACAD
 70
     0
  0
ENDTAB
  0
TABLE
  2
DIMSTYLE
  5
A
330
0
100
AcDbSymbolTable
 70
     1
  0
DIMSTYLE
105
27
330
A
100
AcDbSymbolTableRecord
100
AcDbDimStyleTableRecord
  2
ISO-25
 70
     0
  3

  4

  5

  6

  7

 40
1.0
 41
2.5
 42
0.625
 43
3.75
 44
1.25
 45
0.0
 46
0.0
 47
0.0
 48
0.0
140
2.5
141
2.5
142
0.0
143
0.03937007874016
144
1.0
145
0.0
146
1.0
147
0.625
 71
     0
 72
     0
 73
     0
 74
     0
 75
     0
 76
     0
 77
     1
 78
     8
170
     0
171
     3
172
     1
173
     0
174
     0
175
     0
176
     0
177
     0
178
     0
270
     2
271
     2
272
     2
273
     2
274
     3
340
11
275
     0
280
     0
281
     0
282
     0
283
     0
284
     8
285
     0
286
     0
287
     3
288
     0
  0
ENDTAB
  0
TABLE
  2
BLOCK_RECORD
  5
1
330
0
100
AcDbSymbolTable
 70
     1
  0
BLOCK_RECORD
  5
1F
330
1
100
AcDbSymbolTableRecord
100
AcDbBlockTableRecord
  2
*MODEL_SPACE
  0
BLOCK_RECORD
  5
1B
330
1
100
AcDbSymbolTableRecord
100
AcDbBlockTableRecord
  2
*PAPER_SPACE
  0
ENDTAB
  0
ENDSEC
  0
SECTION
  2
BLOCKS
  0
BLOCK
  5
20
330
1F
100
AcDbEntity
  8
0
100
AcDbBlockBegin
  2
*MODEL_SPACE
 70
     0
 10
0.0
 20
0.0
 30
0.0
  3
*MODEL_SPACE
  1

  0
ENDBLK
  5
21
330
1F
100
AcDbEntity
  8
0
100
AcDbBlockEnd
  0
BLOCK
  5
1C
330
1B
100
AcDbEntity
 67
     1
  8
0
100
AcDbBlockBegin
  2
*PAPER_SPACE
  1

  0
ENDBLK
  5
1D
330
1B
100
AcDbEntity
 67
     1
  8
0
100
AcDbBlockEnd
  0
ENDSEC
  0
SECTION
  2
ENTITIES
  0
SPLINE
  5
100
100
AcDbEntity
  8
top-0
 62
7
100
AcDbSpline
 70
8
 71
3
 72
8
 73
4
 74
0
 40
0
 40
0
 40
0
 40
0
 40
1
 40
1
 40
1
 40
1
 10
262.094500
 20
158.165500
 30
0.0
 10
273.174500
 20
158.165500
 30
0.0
 10
282.094500
 20
149.245500
 30
0.0
 10
282.094500
 20
138.165500
 30
0.0
  0
LWPOLYLINE
  5
101
100
AcDbEntity
  8
top-0
 62
7
100
AcDbPolyline
 90
2
 70
0
 10
22.094500
 20
158.165500
 30
0.0
 10
262.094500
 20
158.165500
 30
0.0
  0
SPLINE
  5
102
100
AcDbEntity
  8
top-0
 62
7
100
AcDbSpline
 70
8
 71
3
 72
8
 73
4
 74
0
 40
0
 40
0
 40
0
 40
0
 40
1
 40
1
 40
1
 40
1
 10
282.094500
 20
71.266250
 30
0.0
 10
282.094500
 20
60.186250
 30
0.0
 10
272.968060
 20
53.395110
 30
0.0
 10
262.094500
 20
51.266250
 30
0.0
  0
SPLINE
  5
103
100
AcDbEntity
  8
top-0
 62
7
100
AcDbSpline
 70
8
 71
3
 72
8
 73
4
 74
0
 40
0
 40
0
 40
0
 40
0
 40
1
 40
1
 40
1
 40
1
 10
262.094500
 20
51.266250
 30
0.0
 10
262.094500
 20
51.266250
 30
0.0
 10
151.961450
 20
27.465480
 30
0.0
 10
142.000000
 20
27.453750
 30
0.0
  0
SPLINE
  5
104
100
AcDbEntity
  8
top-0
 62
7
100
AcDbSpline
 70
8
 71
3
 72
8
 73
4
 74
0
 40
0
 40
0
 40
0
 40
0
 40
1
 40
1
 40
1
 40
1
 10
142.000000
 20
27.453750
 30
0.0
 10
132.082320
 20
27.442050
 30
0.0
 10
22.094500
 20
51.266250
 30
0.0
 10
22.094500
 20
51.266250
 30
0.0
  0
SPLINE
  5
105
100
AcDbEntity
  8
top-0
 62
7
100
AcDbSpline
 70
8
 71
3
 72
8
 73
4
 74
0
 40
0
 40
0
 40
0
 40
0
 40
1
 40
1
 40
1
 40
1
 10
22.094500
 20
51.266250
 30
0.0
 10
11.226738
 20
53.424520
 30
0.0
 10
2.094500
 20
60.186250
 30
0.0
 10
2.094500
 20
71.266250
 30
0.0
  0
LWPOLYLINE
  5
106
100
AcDbEntity
  8
top-0
 62
7
100
AcDbPolyline
 90
2
 70
0
 10
282.094500
 20
138.165500
 30
0.0
 10
282.094500
 20
71.266250
 30
0.0
  0
SPLINE
  5
107
100
AcDbEntity
  8
top-0
 62
7
100
AcDbSpline
 70
8
 71
3
 72
8
 73
4
 74
0
 40
0
 40
0
 40
0
 40
0
 40
1
 40
1
 40
1
 40
1
 10
2.094500
 20
138.165500
 30
0.0
 10
2.094500
 20
149.245500
 30
0.0
 10
11.014500
 20
158.165500
 30
0.0
 10
22.094500
 20
158.165500
 30
0.0
  0
LWPOLYLINE
  5
108
100
AcDbEntity
  8
top-0
 62
7
100
AcDbPolyline
 90
2
 70
0
 10
2.094500
 20
71.266250
 30
0.0
 10
2.094500
 20
138.165500
 30
0.0
  0
SPLINE
  5
109
100
AcDbEntity
  8
top-0
 62
7
100
AcDbSpline
 70
8
 71
3
 72
8
 73
4
 74
0
 40
0
 40
0
 40
0
 40
0
 40
1
 40
1
 40
1
 40
1
 10
479.998110
 20
101.320247
 30
0.0
 10
476.176383
 20
101.320247
 30
0.0
 10
472.730967
 20
99.018094
 30
0.0
 10
471.268456
 20
95.487279
 30
0.0
  0
SPLINE
  5
10a
100
AcDbEntity
  8
top-0
 62
7
100
AcDbSpline
 70
8
 71
3
 72
8
 73
4
 74
0
 40
0
 40
0
 40
0
 40
0
 40
1
 40
1
 40
1
 40
1
 10
471.268456
 20
95.487279
 30
0.0
 10
469.805944
 20
91.956464
 30
0.0
 10
470.614353
 20
87.892320
 30
0.0
 10
473.316722
 20
85.189952
 30
0.0
  0
SPLINE
  5
10b
100
AcDbEntity
  8
top-0
 62
7
100
AcDbSpline
 70
8
 71
3
 72
8
 73
4
 74
0
 40
0
 40
0
 40
0
 40
0
 40
1
 40
1
 40
1
 40
1
 10
473.316722
 20
85.189952
 30
0.0
 10
476.019091
 20
82.487583
 30
0.0
 10
480.083236
 20
81.679174
 30
0.0
 10
483.614052
 20
83.141686
 30
0.0
  0
SPLINE
  5
10c
100
AcDbEntity
  8
top-0
 62
7
100
AcDbSpline
 70
8
 71
3
 72
8
 73
4
 74
0
 40
0
 40
0
 40
0
 40
0
 40
1
 40
1
 40
1
 40
1
 10
483.614052
 20
83.141686
 30
0.0
 10
487.144867
 20
84.604197
 30
0.0
 10
489.447020
 20
88.049612
 30
0.0
 10
489.447020
 20
91.871339
 30
0.0
  0
SPLINE
  5
10d
100
AcDbEntity
  8
top-0
 62
7
100
AcDbSpline
 70
8
 71
3
 72
8
 73
4
 74
0
 40
0
 40
0
 40
0
 40
0
 40
1
 40
1
 40
1
 40
1
 10
489.447020
 20
91.871339
 30
0.0
 10
489.447020
 20
94.377345
 30
0.0
 10
488.451513
 20
96.780712
 30
0.0
 10
486.679499
 20
98.552726
 30
0.0
  0
SPLINE
  5
10e
100
AcDbEntity
  8
top-0
 62
7
100
AcDbSpline
 70
8
 71
3
 72
8
 73
4
 74
0
 40
0
 40
0
 40
0
 40
0
 40
1
 40
1
 40
1
 40
1
 10
486.679499
 20
98.552726
 30
0.0
 10
484.907484
 20
100.324740
 30
0.0
 10
482.504117
 20
101.320247
 30
0.0
 10
479.998110
 20
101.320247
 30
0.0
  0
LWPOLYLINE
  5
10f
100
AcDbEntity
  8
top-0
 62
7
100
AcDbPolyline
 90
1
 70
1
 10
22.094500
 20
158.165500
 30
0.0
  0
SPLINE
  5
110
100
AcDbEntity
  8
top-0
 62
7
100
AcDbSpline
 70
8
 71
3
 72
8
 73
4
 74
0
 40
0
 40
0
 40
0
 40
0
 40
1
 40
1
 40
1
 40
1
 10
479.998110
 20
44.627330
 30
0.0
 10
476.176384
 20
44.627330
 30
0.0
 10
472.730969
 20
42.325177
 30
0.0
 10
471.268457
 20
38.794362
 30
0.0
  0
SPLINE
  5
111
100
AcDbEntity
  8
top-0
 62
7
100
AcDbSpline
 70
8
 71
3
 72
8
 73
4
 74
0
 40
0
 40
0
 40
0
 40
0
 40
1
 40
1
 40
1
 40
1
 10
471.268457
 20
38.794362
 30
0.0
 10
469.805946
 20
35.263547
 30
0.0
 10
470.614354
 20
31.199403
 30
0.0
 10
473.316723
 20
28.497034
 30
0.0
  0
SPLINE
  5
112
100
AcDbEntity
  8
top-0
 62
7
100
AcDbSpline
 70
8
 71
3
 72
8
 73
4
 74
0
 40
0
 40
0
 40
0
 40
0
 40
1
 40
1
 40
1
 40
1
 10
473.316723
 20
28.497034
 30
0.0
 10
476.019092
 20
25.794666
 30
0.0
 10
480.083236
 20
24.986257
 30
0.0
 10
483.614051
 20
26.448769
 30
0.0
  0
SPLINE
  5
113
100
AcDbEntity
  8
top-0
 62
7
100
AcDbSpline
 70
8
 71
3
 72
8
 73
4
 74
0
 40
0
 40
0
 40
0
 40
0
 40
1
 40
1
 40
1
 40
1
 10
483.614051
 20
26.448769
 30
0.0
 10
487.144866
 20
27.911280
 30
0.0
 10
489.447018
 20
31.356695
 30
0.0
 10
489.447018
 20
35.178421
 30
0.0
  0
SPLINE
  5
114
100
AcDbEntity
  8
top-0
 62
7
100
AcDbSpline
 70
8
 71
3
 72
8
 73
4
 74
0
 40
0
 40
0
 40
0
 40
0
 40
1
 40
1
 40
1
 40
1
 10
489.447018
 20
35.178421
 30
0.0
 10
489.447018
 20
37.684428
 30
0.0
 10
488.451511
 20
40.087794
 30
0.0
 10
486.679497
 20
41.859808
 30
0.0
  0
SPLINE
  5
115
100
AcDbEntity
  8
top-0
 62
7
100
AcDbSpline
 70
8
 71
3
 72
8
 73
4
 74
0
 40
0
 40
0
 40
0
 40
0
 40
1
 40
1
 40
1
 40
1
 10
486.679497
 20
41.859808
 30
0.0
 10
484.907483
 20
43.631822
 30
0.0
 10
482.504116
 20
44.627330
 30
0.0
 10
479.998110
 20
44.627330
 30
0.0
  0
LWPOLYLINE
  5
116
100
AcDbEntity
  8
top-0
 62
7
100
AcDbPolyline
 90
1
 70
1
 10
479.998110
 20
101.320247
 30
0.0
  0
SPLINE
  5
117
100
AcDbEntity
  8
top-0
 62
7
100
AcDbSpline
 70
8
 71
3
 72
8
 73
4
 74
0
 40
0
 40
0
 40
0
 40
0
 40
1
 40
1
 40
1
 40
1
 10
593.383937
 20
44.627330
 30
0.0
 10
589.562210
 20
44.627330
 30
0.0
 10
586.116794
 20
42.325177
 30
0.0
 10
584.654282
 20
38.794362
 30
0.0
  0
SPLINE
  5
118
100
AcDbEntity
  8
top-0
 62
7
100
AcDbSpline
 70
8
 71
3
 72
8
 73
4
 74
0
 40
0
 40
0
 40
0
 40
0
 40
1
 40
1
 40
1
 40
1
 10
584.654282
 20
38.794362
 30
0.0
 10
583.191771
 20
35.263547
 30
0.0
 10
584.000179
 20
31.199403
 30
0.0
 10
586.702549
 20
28.497034
 30
0.0
  0
SPLINE
  5
119
100
AcDbEntity
  8
top-0
 62
7
100
AcDbSpline
 70
8
 71
3
 72
8
 73
4
 74
0
 40
0
 40
0
 40
0
 40
0
 40
1
 40
1
 40
1
 40
1
 10
586.702549
 20
28.497034
 30
0.0
 10
589.404918
 20
25.794666
 30
0.0
 10
593.469063
 20
24.986257
 30
0.0
 10
596.999878
 20
26.448769
 30
0.0
  0
SPLINE
  5
11a
100
AcDbEntity
  8
top-0
 62
7
100
AcDbSpline
 70
8
 71
3
 72
8
 73
4
 74
0
 40
0
 40
0
 40
0
 40
0
 40
1
 40
1
 40
1
 40
1
 10
596.999878
 20
26.448769
 30
0.0
 10
600.530694
 20
27.911280
 30
0.0
 10
602.832847
 20
31.356695
 30
0.0
 10
602.832847
 20
35.178421
 30
0.0
  0
SPLINE
  5
11b
100
AcDbEntity
  8
top-0
 62
7
100
AcDbSpline
 70
8
 71
3
 72
8
 73
4
 74
0
 40
0
 40
0
 40
0
 40
0
 40
1
 40
1
 40
1
 40
1
 10
602.832847
 20
35.178421
 30
0.0
 10
602.832847
 20
37.684428
 30
0.0
 10
601.837340
 20
40.087794
 30
0.0
 10
600.065325
 20
41.859808
 30
0.0
  0
SPLINE
  5
11c
100
AcDbEntity
  8
top-0
 62
7
100
AcDbSpline
 70
8
 71
3
 72
8
 73
4
 74
0
 40
0
 40
0
 40
0
 40
0
 40
1
 40
1
 40
1
 40
1
 10
600.065325
 20
41.859808
 30
0.0
 10
598.293311
 20
43.631822
 30
0.0
 10
595.889944
 20
44.627330
 30
0.0
 10
593.383937
 20
44.627330
 30
0.0
  0
LWPOLYLINE
  5
11d
100
AcDbEntity
  8
top-0
 62
7
100
AcDbPolyline
 90
1
 70
1
 10
479.998110
 20
44.627330
 30
0.0
  0
SPLINE
  5
11e
100
AcDbEntity
  8
top-0
 62
7
100
AcDbSpline
 70
8
 71
3
 72
8
 73
4
 74
0
 40
0
 40
0
 40
0
 40
0
 40
1
 40
1
 40
1
 40
1
 10
593.383937
 20
101.320247
 30
0.0
 10
589.562210
 20
101.320247
 30
0.0
 10
586.116794
 20
99.018094
 30
0.0
 10
584.654282
 20
95.487279
 30
0.0
  0
SPLINE
  5
11f
100
AcDbEntity
  8
top-0
 62
7
100
AcDbSpline
 70
8
 71
3
 72
8
 73
4
 74
0
 40
0
 40
0
 40
0
 40
0
 40
1
 40
1
 40
1
 40
1
 10
584.654282
 20
95.487279
 30
0.0
 10
583.191771
 20
91.956464
 30
0.0
 10
584.000179
 20
87.892320
 30
0.0
 10
586.702549
 20
85.189952
 30
0.0
  0
SPLINE
  5
120
100
AcDbEntity
  8
top-0
 62
7
100
AcDbSpline
 70
8
 71
3
 72
8
 73
4
 74
0
 40
0
 40
0
 40
0
 40
0
 40
1
 40
1
 40
1
 40
1
 10
586.702549
 20
85.189952
 30
0.0
 10
589.404918
 20
82.487583
 30
0.0
 10
593.469063
 20
81.679174
 30
0.0
 10
596.999878
 20
83.141686
 30
0.0
  0
SPLINE
  5
121
100
AcDbEntity
  8
top-0
 62
7
100
AcDbSpline
 70
8
 71
3
 72
8
 73
4
 74
0
 40
0
 40
0
 40
0
 40
0
 40
1
 40
1
 40
1
 40
1
 10
596.999878
 20
83.141686
 30
0.0
 10
600.530694
 20
84.604197
 30
0.0
 10
602.832847
 20
88.049612
 30
0.0
 10
602.832847
 20
91.871339
 30
0.0
  0
SPLINE
  5
122
100
AcDbEntity
  8
top-0
 62
7
100
AcDbSpline
 70
8
 71
3
 72
8
 73
4
 74
0
 40
0
 40
0
 40
0
 40
0
 40
1
 40
1
 40
1
 40
1
 10
602.832847
 20
91.871339
 30
0.0
 10
602.832847
 20
94.377345
 30
0.0
 10
601.837340
 20
96.780712
 30
0.0
 10
600.065325
 20
98.552726
 30
0.0
  0
SPLINE
  5
123
100
AcDbEntity
  8
top-0
 62
7
100
AcDbSpline
 70
8
 71
3
 72
8
 73
4
 74
0
 40
0
 40
0
 40
0
 40
0
 40
1
 40
1
 40
1
 40
1
 10
600.065325
 20
98.552726
 30
0.0
 10
598.293311
 20
100.324740
 30
0.0
 10
595.889944
 20
101.320247
 30
0.0
 10
593.383937
 20
101.320247
 30
0.0
  0
LWPOLYLINE
  5
124
100
AcDbEntity
  8
top-0
 62
7
100
AcDbPolyline
 90
1
 70
1
 10
593.383937
 20
44.627330
 30
0.0
  0
LWPOLYLINE
  5
125
100
AcDbEntity
  8
top-0
 62
7
100
AcDbPolyline
 90
1
 70
1
 10
593.383937
 20
101.320247
 30
0.0
  0
LWPOLYLINE
  5
126
100
AcDbEntity
  8
top-0
 62
7
100
AcDbPolyline
 90
23
 70
1
 10
17.539062
 20
143.385000
 30
0.0
 10
13.431641
 20
122.736562
 30
0.0
 10
18.101562
 20
121.806875
 30
0.0
 10
14.384766
 20
103.123281
 30
0.0
 10
19.056641
 20
102.195547
 30
0.0
 10
15.339844
 20
83.510000
 30
0.0
 10
24.681641
 20
81.652578
 30
0.0
 10
20.964844
 20
62.968984
 30
0.0
 10
41.611328
 20
58.861560
 30
0.0
 10
45.328125
 20
77.545156
 30
0.0
 10
77.044922
 20
71.236562
 30
0.0
 10
90.076172
 20
68.644766
 30
0.0
 10
86.359375
 20
49.961170
 30
0.0
 10
116.562500
 20
43.951410
 30
0.0
 10
116.562500
 20
43.953410
 30
0.0
 10
135.031250
 20
40.279580
 30
0.0
 10
139.138670
 20
60.926066
 30
0.0
 10
134.468750
 20
61.855753
 30
0.0
 10
138.183590
 20
80.539347
 30
0.0
 10
128.841800
 20
82.396769
 30
0.0
 10
132.558590
 20
101.080362
 30
0.0
 10
127.886720
 20
102.010050
 30
0.0
 10
131.603520
 20
120.693644
 30
0.0
  0
SPLINE
  5
127
100
AcDbEntity
  8
top-0
 62
7
100
AcDbSpline
 70
8
 71
3
 72
8
 73
4
 74
0
 40
0
 40
0
 40
0
 40
0
 40
1
 40
1
 40
1
 40
1
 10
470.921991
 20
136.013992
 30
0.0
 10
468.246807
 20
136.013992
 30
0.0
 10
465.835040
 20
134.402500
 30
0.0
 10
464.811291
 20
131.930953
 30
0.0
  0
SPLINE
  5
128
100
AcDbEntity
  8
top-0
 62
7
100
AcDbSpline
 70
8
 71
3
 72
8
 73
4
 74
0
 40
0
 40
0
 40
0
 40
0
 40
1
 40
1
 40
1
 40
1
 10
464.811291
 20
131.930953
 30
0.0
 10
463.787543
 20
129.459406
 30
0.0
 10
464.353424
 20
126.614532
 30
0.0
 10
466.245064
 20
124.722892
 30
0.0
  0
SPLINE
  5
129
100
AcDbEntity
  8
top-0
 62
7
100
AcDbSpline
 70
8
 71
3
 72
8
 73
4
 74
0
 40
0
 40
0
 40
0
 40
0
 40
1
 40
1
 40
1
 40
1
 10
466.245064
 20
124.722892
 30
0.0
 10
468.136704
 20
122.831252
 30
0.0
 10
470.981578
 20
122.265371
 30
0.0
 10
473.453125
 20
123.289120
 30
0.0
  0
SPLINE
  5
12a
100
AcDbEntity
  8
top-0
 62
7
100
AcDbSpline
 70
8
 71
3
 72
8
 73
4
 74
0
 40
0
 40
0
 40
0
 40
0
 40
1
 40
1
 40
1
 40
1
 10
473.453125
 20
123.289120
 30
0.0
 10
475.924672
 20
124.312868
 30
0.0
 10
477.536164
 20
126.724635
 30
0.0
 10
477.536164
 20
129.399819
 30
0.0
  0
SPLINE
  5
12b
100
AcDbEntity
  8
top-0
 62
7
100
AcDbSpline
 70
8
 71
3
 72
8
 73
4
 74
0
 40
0
 40
0
 40
0
 40
0
 40
1
 40
1
 40
1
 40
1
 10
477.536164
 20
129.399819
 30
0.0
 10
477.536164
 20
131.154007
 30
0.0
 10
476.839315
 20
132.836347
 30
0.0
 10
475.598917
 20
134.076746
 30
0.0
  0
SPLINE
  5
12c
100
AcDbEntity
  8
top-0
 62
7
100
AcDbSpline
 70
8
 71
3
 72
8
 73
4
 74
0
 40
0
 40
0
 40
0
 40
0
 40
1
 40
1
 40
1
 40
1
 10
475.598917
 20
134.076746
 30
0.0
 10
474.358519
 20
135.317144
 30
0.0
 10
472.676178
 20
136.013992
 30
0.0
 10
470.921991
 20
136.013992
 30
0.0
  0
LWPOLYLINE
  5
12d
100
AcDbEntity
  8
top-0
 62
7
100
AcDbPolyline
 90
23
 70
1
 10
266.726560
 20
143.441641
 30
0.0
 10
181.669920
 20
126.521719
 30
0.0
 10
143.318360
 20
118.892812
 30
0.0
 10
147.425780
 20
98.246328
 30
0.0
 10
152.097660
 20
99.176016
 30
0.0
 10
155.423830
 20
82.453359
 30
0.0
 10
146.080080
 20
80.595938
 30
0.0
 10
149.796880
 20
61.912344
 30
0.0
 10
145.126950
 20
60.982656
 30
0.0
 10
149.234380
 20
40.336170
 30
0.0
 10
197.906250
 20
50.017810
 30
0.0
 10
194.189450
 20
68.703359
 30
0.0
 10
224.708980
 20
74.773672
 30
0.0
 10
224.708980
 20
74.771672
 30
0.0
 10
238.937500
 20
77.603703
 30
0.0
 10
242.654300
 20
58.918150
 30
0.0
 10
263.300780
 20
63.025578
 30
0.0
 10
259.583980
 20
81.709172
 30
0.0
 10
264.255860
 20
82.638859
 30
0.0
 10
260.539060
 20
101.324406
 30
0.0
 10
269.880860
 20
103.181828
 30
0.0
 10
266.164060
 20
121.865422
 30
0.0
 10
270.835940
 20
122.795109
 30
0.0
  0
SPLINE
  5
12e
100
AcDbEntity
  8
top-0
 62
7
100
AcDbSpline
 70
8
 71
3
 72
8
 73
4
 74
0
 40
0
 40
0
 40
0
 40
0
 40
1
 40
1
 40
1
 40
1
 10
29.758741
 20
-22.427773
 30
0.0
 10
27.083557
 20
-22.427773
 30
0.0
 10
24.671790
 20
-24.039265
 30
0.0
 10
23.648041
 20
-26.510812
 30
0.0
  0
SPLINE
  5
12f
100
AcDbEntity
  8
top-0
 62
7
100
AcDbSpline
 70
8
 71
3
 72
8
 73
4
 74
0
 40
0
 40
0
 40
0
 40
0
 40
1
 40
1
 40
1
 40
1
 10
23.648041
 20
-26.510812
 30
0.0
 10
22.624293
 20
-28.982359
 30
0.0
 10
23.190174
 20
-31.827233
 30
0.0
 10
25.081814
 20
-33.718873
 30
0.0
  0
SPLINE
  5
130
100
AcDbEntity
  8
top-0
 62
7
100
AcDbSpline
 70
8
 71
3
 72
8
 73
4
 74
0
 40
0
 40
0
 40
0
 40
0
 40
1
 40
1
 40
1
 40
1
 10
25.081814
 20
-33.718873
 30
0.0
 10
26.973454
 20
-35.610513
 30
0.0
 10
29.818328
 20
-36.176394
 30
0.0
 10
32.289875
 20
-35.152646
 30
0.0
  0
SPLINE
  5
131
100
AcDbEntity
  8
top-0
 62
7
100
AcDbSpline
 70
8
 71
3
 72
8
 73
4
 74
0
 40
0
 40
0
 40
0
 40
0
 40
1
 40
1
 40
1
 40
1
 10
32.289875
 20
-35.152646
 30
0.0
 10
34.761422
 20
-34.128897
 30
0.0
 10
36.372914
 20
-31.717130
 30
0.0
 10
36.372914
 20
-29.041946
 30
0.0
  0
SPLINE
  5
132
100
AcDbEntity
  8
top-0
 62
7
100
AcDbSpline
 70
8
 71
3
 72
8
 73
4
 74
0
 40
0
 40
0
 40
0
 40
0
 40
1
 40
1
 40
1
 40
1
 10
36.372914
 20
-29.041946
 30
0.0
 10
36.372914
 20
-27.287759
 30
0.0
 10
35.676065
 20
-25.605418
 30
0.0
 10
34.435667
 20
-24.365020
 30
0.0
  0
SPLINE
  5
133
100
AcDbEntity
  8
top-0
 62
7
100
AcDbSpline
 70
8
 71
3
 72
8
 73
4
 74
0
 40
0
 40
0
 40
0
 40
0
 40
1
 40
1
 40
1
 40
1
 10
34.435667
 20
-24.365020
 30
0.0
 10
33.195269
 20
-23.124622
 30
0.0
 10
31.512928
 20
-22.427773
 30
0.0
 10
29.758741
 20
-22.427773
 30
0.0
  0
LWPOLYLINE
  5
134
100
AcDbEntity
  8
top-0
 62
7
100
AcDbPolyline
 90
1
 70
1
 10
470.921991
 20
136.013992
 30
0.0
  0
SPLINE
  5
135
100
AcDbEntity
  8
top-0
 62
7
100
AcDbSpline
 70
8
 71
3
 72
8
 73
4
 74
0
 40
0
 40
0
 40
0
 40
0
 40
1
 40
1
 40
1
 40
1
 10
1044.341443
 20
-22.427773
 30
0.0
 10
1041.666259
 20
-22.427773
 30
0.0
 10
1039.254492
 20
-24.039265
 30
0.0
 10
1038.230743
 20
-26.510812
 30
0.0
  0
SPLINE
  5
136
100
AcDbEntity
  8
top-0
 62
7
100
AcDbSpline
 70
8
 71
3
 72
8
 73
4
 74
0
 40
0
 40
0
 40
0
 40
0
 40
1
 40
1
 40
1
 40
1
 10
1038.230743
 20
-26.510812
 30
0.0
 10
1037.206995
 20
-28.982359
 30
0.0
 10
1037.772875
 20
-31.827233
 30
0.0
 10
1039.664516
 20
-33.718873
 30
0.0
  0
SPLINE
  5
137
100
AcDbEntity
  8
top-0
 62
7
100
AcDbSpline
 70
8
 71
3
 72
8
 73
4
 74
0
 40
0
 40
0
 40
0
 40
0
 40
1
 40
1
 40
1
 40
1
 10
1039.664516
 20
-33.718873
 30
0.0
 10
1041.556156
 20
-35.610513
 30
0.0
 10
1044.401030
 20
-36.176394
 30
0.0
 10
1046.872577
 20
-35.152646
 30
0.0
  0
SPLINE
  5
138
100
AcDbEntity
  8
top-0
 62
7
100
AcDbSpline
 70
8
 71
3
 72
8
 73
4
 74
0
 40
0
 40
0
 40
0
 40
0
 40
1
 40
1
 40
1
 40
1
 10
1046.872577
 20
-35.152646
 30
0.0
 10
1049.344124
 20
-34.128897
 30
0.0
 10
1050.955616
 20
-31.717130
 30
0.0
 10
1050.955616
 20
-29.041946
 30
0.0
  0
SPLINE
  5
139
100
AcDbEntity
  8
top-0
 62
7
100
AcDbSpline
 70
8
 71
3
 72
8
 73
4
 74
0
 40
0
 40
0
 40
0
 40
0
 40
1
 40
1
 40
1
 40
1
 10
1050.955616
 20
-29.041946
 30
0.0
 10
1050.955616
 20
-27.287759
 30
0.0
 10
1050.258767
 20
-25.605418
 30
0.0
 10
1049.018369
 20
-24.365020
 30
0.0
  0
SPLINE
  5
13a
100
AcDbEntity
  8
top-0
 62
7
100
AcDbSpline
 70
8
 71
3
 72
8
 73
4
 74
0
 40
0
 40
0
 40
0
 40
0
 40
1
 40
1
 40
1
 40
1
 10
1049.018369
 20
-24.365020
 30
0.0
 10
1047.777971
 20
-23.124622
 30
0.0
 10
1046.095630
 20
-22.427773
 30
0.0
 10
1044.341443
 20
-22.427773
 30
0.0
  0
LWPOLYLINE
  5
13b
100
AcDbEntity
  8
top-0
 62
7
100
AcDbPolyline
 90
1
 70
1
 10
29.758741
 20
-22.427773
 30
0.0
  0
SPLINE
  5
13c
100
AcDbEntity
  8
top-0
 62
7
100
AcDbSpline
 70
8
 71
3
 72
8
 73
4
 74
0
 40
0
 40
0
 40
0
 40
0
 40
1
 40
1
 40
1
 40
1
 10
48.402308
 20
118.502177
 30
0.0
 10
45.727125
 20
118.502177
 30
0.0
 10
43.315357
 20
116.890685
 30
0.0
 10
42.291609
 20
114.419138
 30
0.0
  0
SPLINE
  5
13d
100
AcDbEntity
  8
top-0
 62
7
100
AcDbSpline
 70
8
 71
3
 72
8
 73
4
 74
0
 40
0
 40
0
 40
0
 40
0
 40
1
 40
1
 40
1
 40
1
 10
42.291609
 20
114.419138
 30
0.0
 10
41.267860
 20
111.947591
 30
0.0
 10
41.833741
 20
109.102717
 30
0.0
 10
43.725381
 20
107.211077
 30
0.0
  0
SPLINE
  5
13e
100
AcDbEntity
  8
top-0
 62
7
100
AcDbSpline
 70
8
 71
3
 72
8
 73
4
 74
0
 40
0
 40
0
 40
0
 40
0
 40
1
 40
1
 40
1
 40
1
 10
43.725381
 20
107.211077
 30
0.0
 10
45.617022
 20
105.319437
 30
0.0
 10
48.461895
 20
104.753556
 30
0.0
 10
50.933443
 20
105.777305
 30
0.0
  0
SPLINE
  5
13f
100
AcDbEntity
  8
top-0
 62
7
100
AcDbSpline
 70
8
 71
3
 72
8
 73
4
 74
0
 40
0
 40
0
 40
0
 40
0
 40
1
 40
1
 40
1
 40
1
 10
50.933443
 20
105.777305
 30
0.0
 10
53.404990
 20
106.801053
 30
0.0
 10
55.016481
 20
109.212820
 30
0.0
 10
55.016481
 20
111.888004
 30
0.0
  0
SPLINE
  5
140
100
AcDbEntity
  8
top-0
 62
7
100
AcDbSpline
 70
8
 71
3
 72
8
 73
4
 74
0
 40
0
 40
0
 40
0
 40
0
 40
1
 40
1
 40
1
 40
1
 10
55.016481
 20
111.888004
 30
0.0
 10
55.016481
 20
113.642192
 30
0.0
 10
54.319633
 20
115.324532
 30
0.0
 10
53.079235
 20
116.564931
 30
0.0
  0
SPLINE
  5
141
100
AcDbEntity
  8
top-0
 62
7
100
AcDbSpline
 70
8
 71
3
 72
8
 73
4
 74
0
 40
0
 40
0
 40
0
 40
0
 40
1
 40
1
 40
1
 40
1
 10
53.079235
 20
116.564931
 30
0.0
 10
51.838837
 20
117.805329
 30
0.0
 10
50.156496
 20
118.502177
 30
0.0
 10
48.402308
 20
118.502177
 30
0.0
  0
LWPOLYLINE
  5
142
100
AcDbEntity
  8
top-0
 62
7
100
AcDbPolyline
 90
1
 70
1
 10
1044.341443
 20
-22.427773
 30
0.0
  0
SPLINE
  5
143
100
AcDbEntity
  8
top-0
 62
7
100
AcDbSpline
 70
8
 71
3
 72
8
 73
4
 74
0
 40
0
 40
0
 40
0
 40
0
 40
1
 40
1
 40
1
 40
1
 10
1025.851200
 20
118.501308
 30
0.0
 10
1023.176017
 20
118.501308
 30
0.0
 10
1020.764249
 20
116.889816
 30
0.0
 10
1019.740501
 20
114.418269
 30
0.0
  0
SPLINE
  5
144
100
AcDbEntity
  8
top-0
 62
7
100
AcDbSpline
 70
8
 71
3
 72
8
 73
4
 74
0
 40
0
 40
0
 40
0
 40
0
 40
1
 40
1
 40
1
 40
1
 10
1019.740501
 20
114.418269
 30
0.0
 10
1018.716752
 20
111.946722
 30
0.0
 10
1019.282633
 20
109.101848
 30
0.0
 10
1021.174273
 20
107.210208
 30
0.0
  0
SPLINE
  5
145
100
AcDbEntity
  8
top-0
 62
7
100
AcDbSpline
 70
8
 71
3
 72
8
 73
4
 74
0
 40
0
 40
0
 40
0
 40
0
 40
1
 40
1
 40
1
 40
1
 10
1021.174273
 20
107.210208
 30
0.0
 10
1023.065914
 20
105.318567
 30
0.0
 10
1025.910787
 20
104.752687
 30
0.0
 10
1028.382335
 20
105.776435
 30
0.0
  0
SPLINE
  5
146
100
AcDbEntity
  8
top-0
 62
7
100
AcDbSpline
 70
8
 71
3
 72
8
 73
4
 74
0
 40
0
 40
0
 40
0
 40
0
 40
1
 40
1
 40
1
 40
1
 10
1028.382335
 20
105.776435
 30
0.0
 10
1030.853882
 20
106.800184
 30
0.0
 10
1032.465373
 20
109.211951
 30
0.0
 10
1032.465373
 20
111.887134
 30
0.0
  0
SPLINE
  5
147
100
AcDbEntity
  8
top-0
 62
7
100
AcDbSpline
 70
8
 71
3
 72
8
 73
4
 74
0
 40
0
 40
0
 40
0
 40
0
 40
1
 40
1
 40
1
 40
1
 10
1032.465373
 20
111.887134
 30
0.0
 10
1032.465373
 20
113.641322
 30
0.0
 10
1031.768525
 20
115.323663
 30
0.0
 10
1030.528127
 20
116.564061
 30
0.0
  0
SPLINE
  5
148
100
AcDbEntity
  8
top-0
 62
7
100
AcDbSpline
 70
8
 71
3
 72
8
 73
4
 74
0
 40
0
 40
0
 40
0
 40
0
 40
1
 40
1
 40
1
 40
1
 10
1030.528127
 20
116.564061
 30
0.0
 10
1029.287729
 20
117.804459
 30
0.0
 10
1027.605388
 20
118.501308
 30
0.0
 10
1025.851200
 20
118.501308
 30
0.0
  0
LWPOLYLINE
  5
149
100
AcDbEntity
  8
top-0
 62
7
100
AcDbPolyline
 90
1
 70
1
 10
48.402308
 20
118.502177
 30
0.0
  0
SPLINE
  5
14a
100
AcDbEntity
  8
top-0
 62
7
100
AcDbSpline
 70
8
 71
3
 72
8
 73
4
 74
0
 40
0
 40
0
 40
0
 40
0
 40
1
 40
1
 40
1
 40
1
 10
48.403143
 20
-200.109933
 30
0.0
 10
44.750236
 20
-200.109933
 30
0.0
 10
41.788970
 20
-203.071199
 30
0.0
 10
41.788970
 20
-206.724106
 30
0.0
  0
SPLINE
  5
14b
100
AcDbEntity
  8
top-0
 62
7
100
AcDbSpline
 70
8
 71
3
 72
8
 73
4
 74
0
 40
0
 40
0
 40
0
 40
0
 40
1
 40
1
 40
1
 40
1
 10
41.788970
 20
-206.724106
 30
0.0
 10
41.788970
 20
-210.377013
 30
0.0
 10
44.750236
 20
-213.338279
 30
0.0
 10
48.403143
 20
-213.338279
 30
0.0
  0
SPLINE
  5
14c
100
AcDbEntity
  8
top-0
 62
7
100
AcDbSpline
 70
8
 71
3
 72
8
 73
4
 74
0
 40
0
 40
0
 40
0
 40
0
 40
1
 40
1
 40
1
 40
1
 10
48.403143
 20
-213.338279
 30
0.0
 10
52.056050
 20
-213.338279
 30
0.0
 10
55.017317
 20
-210.377013
 30
0.0
 10
55.017317
 20
-206.724106
 30
0.0
  0
SPLINE
  5
14d
100
AcDbEntity
  8
top-0
 62
7
100
AcDbSpline
 70
8
 71
3
 72
8
 73
4
 74
0
 40
0
 40
0
 40
0
 40
0
 40
1
 40
1
 40
1
 40
1
 10
55.017317
 20
-206.724106
 30
0.0
 10
55.017317
 20
-204.969918
 30
0.0
 10
54.320468
 20
-203.287577
 30
0.0
 10
53.080070
 20
-202.047179
 30
0.0
  0
SPLINE
  5
14e
100
AcDbEntity
  8
top-0
 62
7
100
AcDbSpline
 70
8
 71
3
 72
8
 73
4
 74
0
 40
0
 40
0
 40
0
 40
0
 40
1
 40
1
 40
1
 40
1
 10
53.080070
 20
-202.047179
 30
0.0
 10
51.839672
 20
-200.806781
 30
0.0
 10
50.157331
 20
-200.109933
 30
0.0
 10
48.403143
 20
-200.109933
 30
0.0
  0
LWPOLYLINE
  5
14f
100
AcDbEntity
  8
top-0
 62
7
100
AcDbPolyline
 90
1
 70
1
 10
1025.851200
 20
118.501308
 30
0.0
  0
SPLINE
  5
150
100
AcDbEntity
  8
top-0
 62
7
100
AcDbSpline
 70
8
 71
3
 72
8
 73
4
 74
0
 40
0
 40
0
 40
0
 40
0
 40
1
 40
1
 40
1
 40
1
 10
1025.851994
 20
-200.110507
 30
0.0
 10
1022.199087
 20
-200.110507
 30
0.0
 10
1019.237820
 20
-203.071773
 30
0.0
 10
1019.237820
 20
-206.724680
 30
0.0
  0
SPLINE
  5
151
100
AcDbEntity
  8
top-0
 62
7
100
AcDbSpline
 70
8
 71
3
 72
8
 73
4
 74
0
 40
0
 40
0
 40
0
 40
0
 40
1
 40
1
 40
1
 40
1
 10
1019.237820
 20
-206.724680
 30
0.0
 10
1019.237820
 20
-210.377587
 30
0.0
 10
1022.199087
 20
-213.338854
 30
0.0
 10
1025.851994
 20
-213.338854
 30
0.0
  0
SPLINE
  5
152
100
AcDbEntity
  8
top-0
 62
7
100
AcDbSpline
 70
8
 71
3
 72
8
 73
4
 74
0
 40
0
 40
0
 40
0
 40
0
 40
1
 40
1
 40
1
 40
1
 10
1025.851994
 20
-213.338854
 30
0.0
 10
1029.504901
 20
-213.338854
 30
0.0
 10
1032.466167
 20
-210.377587
 30
0.0
 10
1032.466167
 20
-206.724680
 30
0.0
  0
SPLINE
  5
153
100
AcDbEntity
  8
top-0
 62
7
100
AcDbSpline
 70
8
 71
3
 72
8
 73
4
 74
0
 40
0
 40
0
 40
0
 40
0
 40
1
 40
1
 40
1
 40
1
 10
1032.466167
 20
-206.724680
 30
0.0
 10
1032.466167
 20
-204.970493
 30
0.0
 10
1031.769319
 20
-203.288152
 30
0.0
 10
1030.528920
 20
-202.047754
 30
0.0
  0
SPLINE
  5
154
100
AcDbEntity
  8
top-0
 62
7
100
AcDbSpline
 70
8
 71
3
 72
8
 73
4
 74
0
 40
0
 40
0
 40
0
 40
0
 40
1
 40
1
 40
1
 40
1
 10
1030.528920
 20
-202.047754
 30
0.0
 10
1029.288522
 20
-200.807355
 30
0.0
 10
1027.606182
 20
-200.110507
 30
0.0
 10
1025.851994
 20
-200.110507
 30
0.0
  0
LWPOLYLINE
  5
155
100
AcDbEntity
  8
top-0
 62
7
100
AcDbPolyline
 90
1
 70
1
 10
48.403143
 20
-200.109933
 30
0.0
  0
SPLINE
  5
156
100
AcDbEntity
  8
top-0
 62
7
100
AcDbSpline
 70
8
 71
3
 72
8
 73
4
 74
0
 40
0
 40
0
 40
0
 40
0
 40
1
 40
1
 40
1
 40
1
 10
604.103811
 20
136.013992
 30
0.0
 10
601.428628
 20
136.013992
 30
0.0
 10
599.016860
 20
134.402500
 30
0.0
 10
597.993112
 20
131.930953
 30
0.0
  0
SPLINE
  5
157
100
AcDbEntity
  8
top-0
 62
7
100
AcDbSpline
 70
8
 71
3
 72
8
 73
4
 74
0
 40
0
 40
0
 40
0
 40
0
 40
1
 40
1
 40
1
 40
1
 10
597.993112
 20
131.930953
 30
0.0
 10
596.969363
 20
129.459406
 30
0.0
 10
597.535244
 20
126.614532
 30
0.0
 10
599.426884
 20
124.722892
 30
0.0
  0
SPLINE
  5
158
100
AcDbEntity
  8
top-0
 62
7
100
AcDbSpline
 70
8
 71
3
 72
8
 73
4
 74
0
 40
0
 40
0
 40
0
 40
0
 40
1
 40
1
 40
1
 40
1
 10
599.426884
 20
124.722892
 30
0.0
 10
601.318525
 20
122.831252
 30
0.0
 10
604.163398
 20
122.265371
 30
0.0
 10
606.634946
 20
123.289120
 30
0.0
  0
SPLINE
  5
159
100
AcDbEntity
  8
top-0
 62
7
100
AcDbSpline
 70
8
 71
3
 72
8
 73
4
 74
0
 40
0
 40
0
 40
0
 40
0
 40
1
 40
1
 40
1
 40
1
 10
606.634946
 20
123.289120
 30
0.0
 10
609.106493
 20
124.312868
 30
0.0
 10
610.717984
 20
126.724635
 30
0.0
 10
610.717984
 20
129.399819
 30
0.0
  0
SPLINE
  5
15a
100
AcDbEntity
  8
top-0
 62
7
100
AcDbSpline
 70
8
 71
3
 72
8
 73
4
 74
0
 40
0
 40
0
 40
0
 40
0
 40
1
 40
1
 40
1
 40
1
 10
610.717984
 20
129.399819
 30
0.0
 10
610.717984
 20
133.052726
 30
0.0
 10
607.756718
 20
136.013992
 30
0.0
 10
604.103811
 20
136.013992
 30
0.0
  0
LWPOLYLINE
  5
15b
100
AcDbEntity
  8
top-0
 62
7
100
AcDbPolyline
 90
1
 70
1
 10
1025.851994
 20
-200.110507
 30
0.0
  0
SPLINE
  5
15c
100
AcDbEntity
  8
top-0
 62
7
100
AcDbSpline
 70
8
 71
3
 72
8
 73
4
 74
0
 40
0
 40
0
 40
0
 40
0
 40
1
 40
1
 40
1
 40
1
 10
395.332913
 20
-281.550255
 30
0.0
 10
392.657730
 20
-281.550255
 30
0.0
 10
390.245962
 20
-283.161747
 30
0.0
 10
389.222214
 20
-285.633294
 30
0.0
  0
SPLINE
  5
15d
100
AcDbEntity
  8
top-0
 62
7
100
AcDbSpline
 70
8
 71
3
 72
8
 73
4
 74
0
 40
0
 40
0
 40
0
 40
0
 40
1
 40
1
 40
1
 40
1
 10
389.222214
 20
-285.633294
 30
0.0
 10
388.198466
 20
-288.104841
 30
0.0
 10
388.764346
 20
-290.949715
 30
0.0
 10
390.655987
 20
-292.841355
 30
0.0
  0
SPLINE
  5
15e
100
AcDbEntity
  8
top-0
 62
7
100
AcDbSpline
 70
8
 71
3
 72
8
 73
4
 74
0
 40
0
 40
0
 40
0
 40
0
 40
1
 40
1
 40
1
 40
1
 10
390.655987
 20
-292.841355
 30
0.0
 10
392.547627
 20
-294.732995
 30
0.0
 10
395.392501
 20
-295.298876
 30
0.0
 10
397.864048
 20
-294.275128
 30
0.0
  0
SPLINE
  5
15f
100
AcDbEntity
  8
top-0
 62
7
100
AcDbSpline
 70
8
 71
3
 72
8
 73
4
 74
0
 40
0
 40
0
 40
0
 40
0
 40
1
 40
1
 40
1
 40
1
 10
397.864048
 20
-294.275128
 30
0.0
 10
400.335595
 20
-293.251379
 30
0.0
 10
401.947087
 20
-290.839612
 30
0.0
 10
401.947087
 20
-288.164428
 30
0.0
  0
SPLINE
  5
160
100
AcDbEntity
  8
top-0
 62
7
100
AcDbSpline
 70
8
 71
3
 72
8
 73
4
 74
0
 40
0
 40
0
 40
0
 40
0
 40
1
 40
1
 40
1
 40
1
 10
401.947087
 20
-288.164428
 30
0.0
 10
401.947087
 20
-284.511521
 30
0.0
 10
398.985820
 20
-281.550255
 30
0.0
 10
395.332913
 20
-281.550255
 30
0.0
  0
LWPOLYLINE
  5
161
100
AcDbEntity
  8
top-0
 62
7
100
AcDbPolyline
 90
1
 70
1
 10
604.103811
 20
136.013992
 30
0.0
  0
SPLINE
  5
162
100
AcDbEntity
  8
top-0
 62
7
100
AcDbSpline
 70
8
 71
3
 72
8
 73
4
 74
0
 40
0
 40
0
 40
0
 40
0
 40
1
 40
1
 40
1
 40
1
 10
679.697008
 20
-281.550255
 30
0.0
 10
677.021825
 20
-281.550255
 30
0.0
 10
674.610057
 20
-283.161747
 30
0.0
 10
673.586309
 20
-285.633294
 30
0.0
  0
SPLINE
  5
163
100
AcDbEntity
  8
top-0
 62
7
100
AcDbSpline
 70
8
 71
3
 72
8
 73
4
 74
0
 40
0
 40
0
 40
0
 40
0
 40
1
 40
1
 40
1
 40
1
 10
673.586309
 20
-285.633294
 30
0.0
 10
672.562560
 20
-288.104841
 30
0.0
 10
673.128441
 20
-290.949715
 30
0.0
 10
675.020081
 20
-292.841355
 30
0.0
  0
SPLINE
  5
164
100
AcDbEntity
  8
top-0
 62
7
100
AcDbSpline
 70
8
 71
3
 72
8
 73
4
 74
0
 40
0
 40
0
 40
0
 40
0
 40
1
 40
1
 40
1
 40
1
 10
675.020081
 20
-292.841355
 30
0.0
 10
676.911721
 20
-294.732995
 30
0.0
 10
679.756595
 20
-295.298876
 30
0.0
 10
682.228142
 20
-294.275128
 30
0.0
  0
SPLINE
  5
165
100
AcDbEntity
  8
top-0
 62
7
100
AcDbSpline
 70
8
 71
3
 72
8
 73
4
 74
0
 40
0
 40
0
 40
0
 40
0
 40
1
 40
1
 40
1
 40
1
 10
682.228142
 20
-294.275128
 30
0.0
 10
684.699690
 20
-293.251379
 30
0.0
 10
686.311181
 20
-290.839612
 30
0.0
 10
686.311181
 20
-288.164428
 30
0.0
  0
SPLINE
  5
166
100
AcDbEntity
  8
top-0
 62
7
100
AcDbSpline
 70
8
 71
3
 72
8
 73
4
 74
0
 40
0
 40
0
 40
0
 40
0
 40
1
 40
1
 40
1
 40
1
 10
686.311181
 20
-288.164428
 30
0.0
 10
686.311181
 20
-286.410241
 30
0.0
 10
685.614333
 20
-284.727900
 30
0.0
 10
684.373935
 20
-283.487502
 30
0.0
  0
SPLINE
  5
167
100
AcDbEntity
  8
top-0
 62
7
100
AcDbSpline
 70
8
 71
3
 72
8
 73
4
 74
0
 40
0
 40
0
 40
0
 40
0
 40
1
 40
1
 40
1
 40
1
 10
684.373935
 20
-283.487502
 30
0.0
 10
683.133537
 20
-282.247104
 30
0.0
 10
681.451196
 20
-281.550255
 30
0.0
 10
679.697008
 20
-281.550255
 30
0.0
  0
LWPOLYLINE
  5
168
100
AcDbEntity
  8
top-0
 62
7
100
AcDbPolyline
 90
1
 70
1
 10
395.332913
 20
-281.550255
 30
0.0
  0
LWPOLYLINE
  5
169
100
AcDbEntity
  8
top-0
 62
7
100
AcDbPolyline
 90
1
 70
1
 10
679.697008
 20
-281.550255
 30
0.0
  0
ENDSEC
  0
SECTION
  2
OBJECTS
  0
DICTIONARY
  5
C
330
0
100
AcDbDictionary
  3
ACAD_GROUP
350
D
  3
ACAD_MLINESTYLE
350
17
  0
DICTIONARY
  5
D
330
C
100
AcDbDictionary
  0
DICTIONARY
  5
1A
330
C
100
AcDbDictionary
  0
DICTIONARY
  5
17
330
C
100
AcDbDictionary
  3
STANDARD
350
18
  0
DICTIONARY
  5
19
330
C
100
AcDbDictionary
  0
ENDSEC
  0
EOF
