  0
SECTION
  2
HEADER
  9
$ACADVER
  1
AC1014
  9
$HANDSEED
  5
FFFF
  9
$MEASUREMENT
 70
     1
  0
ENDSEC
  0
SECTION
  2
TABLES
  0
TABLE
  2
VPORT
  5
8
330
0
100
AcDbSymbolTable
 70
     4
  0
VPORT
  5
2E
330
8
100
AcDbSymbolTableRecord
100
AcDbViewportTableRecord
  2
*ACTIVE
 70
     0
 10
0.0
 20
0.0
 11
1.0
 21
1.0
 12
210.0
 22
148.5
 13
0.0
 23
0.0
 14
10.0
 24
10.0
 15
10.0
 25
10.0
 16
0.0
 26
0.0
 36
1.0
 17
0.0
 27
0.0
 37
0.0
 40
341.0
 41
1.24
 42
50.0
 43
0.0
 44
0.0
 50
0.0
 51
0.0
 71
     0
 72
   100
 73
     1
 74
     3
 75
     0
 76
     0
 77
     0
 78
     0
  0
ENDTAB
  0
TABLE
  2
LTYPE
  5
5
330
0
100
AcDbSymbolTable
 70
     1
  0
LTYPE
  5
14
330
5
100
AcDbSymbolTableRecord
100
AcDbLinetypeTableRecord
  2
BYBLOCK
 70
     0
  3

 72
    65
 73
     0
 40
0.0
  0
LTYPE
  5
15
330
5
100
AcDbSymbolTableRecord
100
AcDbLinetypeTableRecord
  2
BYLAYER
 70
     0
  3

 72
    65
 73
     0
 40
0.0
  0
LTYPE
  5
16
330
5
100
AcDbSymbolTableRecord
100
AcDbLinetypeTableRecord
  2
CONTINUOUS
 70
     0
  3
Solid line
 72
    65
 73
     0
 40
0.0
  0
ENDTAB
  0
TABLE
  2
LAYER
  5
2
100
AcDbSymbolTable
 70
2
  0
LAYER
  5
50
100
AcDbSymbolTableRecord
100
AcDbLayerTableRecord
  2
0
 70
0
  6
CONTINUOUS
  0
LAYER
  5
51
100
AcDbSymbolTableRecord
100
AcDbLayerTableRecord
  2
top-1
 70
0
  6
CONTINUOUS
  0
ENDTAB
  0
TABLE
  2
STYLE
  5
3
330
0
100
AcDbSymbolTable
 70
     1
  0
STYLE
  5
11
330
3
100
AcDbSymbolTableRecord
100
AcDbTextStyleTableRecord
  2
STANDARD
 70
     0
 40
0.0
 41
1.0
 50
0.0
 71
     0
 42
2.5
  3
txt
  4

  0
ENDTAB
  0
TABLE
  2
VIEW
  5
6
330
0
100
AcDbSymbolTable
 70
     0
  0
ENDTAB
  0
TABLE
  2
UCS
  5
7
330
0
100
AcDbSymbolTable
 70
     0
  0
ENDTAB
  0
TABLE
  2
APPID
  5
9
330
0
100
AcDbSymbolTable
 70
     2
  0
APPID
  5
12
330
9
100
AcDbSymbolTableRecord
100
AcDbRegAppTableRecord
  2
ACAD
 70
     0
  0
ENDTAB
  0
TABLE
  2
DIMSTYLE
  5
A
330
0
100
AcDbSymbolTable
 70
     1
  0
DIMSTYLE
105
27
330
A
100
AcDbSymbolTableRecord
100
AcDbDimStyleTableRecord
  2
ISO-25
 70
     0
  3

  4

  5

  6

  7

 40
1.0
 41
2.5
 42
0.625
 43
3.75
 44
1.25
 45
0.0
 46
0.0
 47
0.0
 48
0.0
140
2.5
141
2.5
142
0.0
143
0.03937007874016
144
1.0
145
0.0
146
1.0
147
0.625
 71
     0
 72
     0
 73
     0
 74
     0
 75
     0
 76
     0
 77
     1
 78
     8
170
     0
171
     3
172
     1
173
     0
174
     0
175
     0
176
     0
177
     0
178
     0
270
     2
271
     2
272
     2
273
     2
274
     3
340
11
275
     0
280
     0
281
     0
282
     0
283
     0
284
     8
285
     0
286
     0
287
     3
288
     0
  0
ENDTAB
  0
TABLE
  2
BLOCK_RECORD
  5
1
330
0
100
AcDbSymbolTable
 70
     1
  0
BLOCK_RECORD
  5
1F
330
1
100
AcDbSymbolTableRecord
100
AcDbBlockTableRecord
  2
*MODEL_SPACE
  0
BLOCK_RECORD
  5
1B
330
1
100
AcDbSymbolTableRecord
100
AcDbBlockTableRecord
  2
*PAPER_SPACE
  0
ENDTAB
  0
ENDSEC
  0
SECTION
  2
BLOCKS
  0
BLOCK
  5
20
330
1F
100
AcDbEntity
  8
0
100
AcDbBlockBegin
  2
*MODEL_SPACE
 70
     0
 10
0.0
 20
0.0
 30
0.0
  3
*MODEL_SPACE
  1

  0
ENDBLK
  5
21
330
1F
100
AcDbEntity
  8
0
100
AcDbBlockEnd
  0
BLOCK
  5
1C
330
1B
100
AcDbEntity
 67
     1
  8
0
100
AcDbBlockBegin
  2
*PAPER_SPACE
  1

  0
ENDBLK
  5
1D
330
1B
100
AcDbEntity
 67
     1
  8
0
100
AcDbBlockEnd
  0
ENDSEC
  0
SECTION
  2
ENTITIES
  0
SPLINE
  5
100
100
AcDbEntity
  8
top-1
 62
7
100
AcDbSpline
 70
8
 71
3
 72
8
 73
4
 74
0
 40
0
 40
0
 40
0
 40
0
 40
1
 40
1
 40
1
 40
1
 10
19.097361
 20
160.163031
 30
0.0
 10
14.525859
 20
160.184797
 30
0.0
 10
9.972120
 20
158.482871
 30
0.0
 10
6.547846
 20
155.451710
 30
0.0
  0
SPLINE
  5
101
100
AcDbEntity
  8
top-1
 62
7
100
AcDbSpline
 70
8
 71
3
 72
8
 73
4
 74
0
 40
0
 40
0
 40
0
 40
0
 40
1
 40
1
 40
1
 40
1
 10
6.547846
 20
155.451710
 30
0.0
 10
3.001579
 20
152.360006
 30
0.0
 10
0.686514
 20
147.903979
 30
0.0
 10
0.206703
 20
143.222751
 30
0.0
  0
SPLINE
  5
102
100
AcDbEntity
  8
top-1
 62
7
100
AcDbSpline
 70
8
 71
3
 72
8
 73
4
 74
0
 40
0
 40
0
 40
0
 40
0
 40
1
 40
1
 40
1
 40
1
 10
0.206703
 20
143.222751
 30
0.0
 10
0.037707
 20
141.674367
 30
0.0
 10
0.115152
 20
140.115239
 30
0.0
 10
0.097361
 20
138.561145
 30
0.0
  0
SPLINE
  5
103
100
AcDbEntity
  8
top-1
 62
7
100
AcDbSpline
 70
8
 71
3
 72
8
 73
4
 74
0
 40
0
 40
0
 40
0
 40
0
 40
1
 40
1
 40
1
 40
1
 10
0.097361
 20
138.561145
 30
0.0
 10
0.098167
 20
117.056982
 30
0.0
 10
0.095751
 20
95.552807
 30
0.0
 10
0.098571
 20
74.048651
 30
0.0
  0
SPLINE
  5
104
100
AcDbEntity
  8
top-1
 62
7
100
AcDbSpline
 70
8
 71
3
 72
8
 73
4
 74
0
 40
0
 40
0
 40
0
 40
0
 40
1
 40
1
 40
1
 40
1
 10
0.098571
 20
74.048651
 30
0.0
 10
0.118508
 20
70.834798
 30
0.0
 10
1.055693
 20
67.620720
 30
0.0
 10
2.858422
 20
64.951191
 30
0.0
  0
SPLINE
  5
105
100
AcDbEntity
  8
top-1
 62
7
100
AcDbSpline
 70
8
 71
3
 72
8
 73
4
 74
0
 40
0
 40
0
 40
0
 40
0
 40
1
 40
1
 40
1
 40
1
 10
2.858422
 20
64.951191
 30
0.0
 10
3.811393
 20
63.542437
 30
0.0
 10
4.947042
 20
62.243890
 30
0.0
 10
6.271461
 20
61.172900
 30
0.0
  0
SPLINE
  5
106
100
AcDbEntity
  8
top-1
 62
7
100
AcDbSpline
 70
8
 71
3
 72
8
 73
4
 74
0
 40
0
 40
0
 40
0
 40
0
 40
1
 40
1
 40
1
 40
1
 10
6.271461
 20
61.172900
 30
0.0
 10
6.944298
 20
60.677340
 30
0.0
 10
7.617667
 20
60.182840
 30
0.0
 10
8.261675
 20
59.649860
 30
0.0
  0
SPLINE
  5
107
100
AcDbEntity
  8
top-1
 62
7
100
AcDbSpline
 70
8
 71
3
 72
8
 73
4
 74
0
 40
0
 40
0
 40
0
 40
0
 40
1
 40
1
 40
1
 40
1
 10
8.261675
 20
59.649860
 30
0.0
 10
9.948216
 20
58.482180
 30
0.0
 10
11.807499
 20
57.576660
 30
0.0
 10
13.717809
 20
56.836870
 30
0.0
  0
SPLINE
  5
108
100
AcDbEntity
  8
top-1
 62
7
100
AcDbSpline
 70
8
 71
3
 72
8
 73
4
 74
0
 40
0
 40
0
 40
0
 40
0
 40
1
 40
1
 40
1
 40
1
 10
13.717809
 20
56.836870
 30
0.0
 10
15.698738
 20
56.069030
 30
0.0
 10
17.761767
 20
55.537720
 30
0.0
 10
19.842871
 20
55.123410
 30
0.0
  0
SPLINE
  5
109
100
AcDbEntity
  8
top-1
 62
7
100
AcDbSpline
 70
8
 71
3
 72
8
 73
4
 74
0
 40
0
 40
0
 40
0
 40
0
 40
1
 40
1
 40
1
 40
1
 10
19.842871
 20
55.123410
 30
0.0
 10
27.950234
 20
53.358610
 30
0.0
 10
36.069000
 20
51.646880
 30
0.0
 10
44.183390
 20
49.914810
 30
0.0
  0
SPLINE
  5
10a
100
AcDbEntity
  8
top-1
 62
7
100
AcDbSpline
 70
8
 71
3
 72
8
 73
4
 74
0
 40
0
 40
0
 40
0
 40
0
 40
1
 40
1
 40
1
 40
1
 10
44.183390
 20
49.914810
 30
0.0
 10
64.709368
 20
45.564600
 30
0.0
 10
85.245183
 20
41.257270
 30
0.0
 10
105.827040
 20
37.178240
 30
0.0
  0
SPLINE
  5
10b
100
AcDbEntity
  8
top-1
 62
7
100
AcDbSpline
 70
8
 71
3
 72
8
 73
4
 74
0
 40
0
 40
0
 40
0
 40
0
 40
1
 40
1
 40
1
 40
1
 10
105.827040
 20
37.178240
 30
0.0
 10
114.109430
 20
35.551570
 30
0.0
 10
122.394360
 20
33.929440
 30
0.0
 10
130.719250
 20
32.532690
 30
0.0
  0
SPLINE
  5
10c
100
AcDbEntity
  8
top-1
 62
7
100
AcDbSpline
 70
8
 71
3
 72
8
 73
4
 74
0
 40
0
 40
0
 40
0
 40
0
 40
1
 40
1
 40
1
 40
1
 10
130.719250
 20
32.532690
 30
0.0
 10
133.244470
 20
32.127590
 30
0.0
 10
135.769930
 20
31.695560
 30
0.0
 10
138.319920
 20
31.478120
 30
0.0
  0
SPLINE
  5
10d
100
AcDbEntity
  8
top-1
 62
7
100
AcDbSpline
 70
8
 71
3
 72
8
 73
4
 74
0
 40
0
 40
0
 40
0
 40
0
 40
1
 40
1
 40
1
 40
1
 10
138.319920
 20
31.478120
 30
0.0
 10
139.681910
 20
31.380920
 30
0.0
 10
141.037550
 20
31.619130
 30
0.0
 10
142.385700
 20
31.780430
 30
0.0
  0
SPLINE
  5
10e
100
AcDbEntity
  8
top-1
 62
7
100
AcDbSpline
 70
8
 71
3
 72
8
 73
4
 74
0
 40
0
 40
0
 40
0
 40
0
 40
1
 40
1
 40
1
 40
1
 10
142.385700
 20
31.780430
 30
0.0
 10
147.447470
 20
32.492230
 30
0.0
 10
152.474660
 20
33.426170
 30
0.0
 10
157.500890
 20
34.350810
 30
0.0
  0
SPLINE
  5
10f
100
AcDbEntity
  8
top-1
 62
7
100
AcDbSpline
 70
8
 71
3
 72
8
 73
4
 74
0
 40
0
 40
0
 40
0
 40
0
 40
1
 40
1
 40
1
 40
1
 10
157.500890
 20
34.350810
 30
0.0
 10
171.545690
 20
36.980830
 30
0.0
 10
185.547140
 20
39.835700
 30
0.0
 10
199.543100
 20
42.712480
 30
0.0
  0
SPLINE
  5
110
100
AcDbEntity
  8
top-1
 62
7
100
AcDbSpline
 70
8
 71
3
 72
8
 73
4
 74
0
 40
0
 40
0
 40
0
 40
0
 40
1
 40
1
 40
1
 40
1
 10
199.543100
 20
42.712480
 30
0.0
 10
217.375770
 20
46.388030
 30
0.0
 10
235.187650
 20
50.163610
 30
0.0
 10
252.993580
 20
53.966300
 30
0.0
  0
SPLINE
  5
111
100
AcDbEntity
  8
top-1
 62
7
100
AcDbSpline
 70
8
 71
3
 72
8
 73
4
 74
0
 40
0
 40
0
 40
0
 40
0
 40
1
 40
1
 40
1
 40
1
 10
252.993580
 20
53.966300
 30
0.0
 10
255.433450
 20
54.497620
 30
0.0
 10
257.876740
 20
55.013250
 30
0.0
 10
260.315230
 20
55.548180
 30
0.0
  0
SPLINE
  5
112
100
AcDbEntity
  8
top-1
 62
7
100
AcDbSpline
 70
8
 71
3
 72
8
 73
4
 74
0
 40
0
 40
0
 40
0
 40
0
 40
1
 40
1
 40
1
 40
1
 10
260.315230
 20
55.548180
 30
0.0
 10
264.496490
 20
56.546460
 30
0.0
 10
268.570360
 20
58.298230
 30
0.0
 10
271.874170
 20
61.090700
 30
0.0
  0
SPLINE
  5
113
100
AcDbEntity
  8
top-1
 62
7
100
AcDbSpline
 70
8
 71
3
 72
8
 73
4
 74
0
 40
0
 40
0
 40
0
 40
0
 40
1
 40
1
 40
1
 40
1
 10
271.874170
 20
61.090700
 30
0.0
 10
274.421810
 20
63.234490
 30
0.0
 10
276.430210
 20
66.068404
 30
0.0
 10
277.381630
 20
69.275615
 30
0.0
  0
SPLINE
  5
114
100
AcDbEntity
  8
top-1
 62
7
100
AcDbSpline
 70
8
 71
3
 72
8
 73
4
 74
0
 40
0
 40
0
 40
0
 40
0
 40
1
 40
1
 40
1
 40
1
 10
277.381630
 20
69.275615
 30
0.0
 10
277.938690
 20
71.091874
 30
0.0
 10
278.135400
 20
73.000307
 30
0.0
 10
278.097360
 20
74.894874
 30
0.0
  0
SPLINE
  5
115
100
AcDbEntity
  8
top-1
 62
7
100
AcDbSpline
 70
8
 71
3
 72
8
 73
4
 74
0
 40
0
 40
0
 40
0
 40
0
 40
1
 40
1
 40
1
 40
1
 10
278.097360
 20
74.894874
 30
0.0
 10
278.096360
 20
97.066370
 30
0.0
 10
278.099360
 20
119.237882
 30
0.0
 10
278.095360
 20
141.409367
 30
0.0
  0
SPLINE
  5
116
100
AcDbEntity
  8
top-1
 62
7
100
AcDbSpline
 70
8
 71
3
 72
8
 73
4
 74
0
 40
0
 40
0
 40
0
 40
0
 40
1
 40
1
 40
1
 40
1
 10
278.095360
 20
141.409367
 30
0.0
 10
278.059360
 20
146.005630
 30
0.0
 10
276.277460
 20
150.560446
 30
0.0
 10
273.172650
 20
153.951345
 30
0.0
  0
SPLINE
  5
117
100
AcDbEntity
  8
top-1
 62
7
100
AcDbSpline
 70
8
 71
3
 72
8
 73
4
 74
0
 40
0
 40
0
 40
0
 40
0
 40
1
 40
1
 40
1
 40
1
 10
273.172650
 20
153.951345
 30
0.0
 10
270.014330
 20
157.454105
 30
0.0
 10
265.505110
 20
159.694490
 30
0.0
 10
260.804450
 20
160.088056
 30
0.0
  0
SPLINE
  5
118
100
AcDbEntity
  8
top-1
 62
7
100
AcDbSpline
 70
8
 71
3
 72
8
 73
4
 74
0
 40
0
 40
0
 40
0
 40
0
 40
1
 40
1
 40
1
 40
1
 10
260.804450
 20
160.088056
 30
0.0
 10
259.314250
 20
160.208436
 30
0.0
 10
257.818190
 20
160.148413
 30
0.0
 10
256.324810
 20
160.163031
 30
0.0
  0
SPLINE
  5
119
100
AcDbEntity
  8
top-1
 62
7
100
AcDbSpline
 70
8
 71
3
 72
8
 73
4
 74
0
 40
0
 40
0
 40
0
 40
0
 40
1
 40
1
 40
1
 40
1
 10
256.324810
 20
160.163031
 30
0.0
 10
177.248840
 20
160.163031
 30
0.0
 10
98.172880
 20
160.163031
 30
0.0
 10
19.096911
 20
160.163031
 30
0.0
  0
LWPOLYLINE
  5
11a
100
AcDbEntity
  8
top-1
 62
7
100
AcDbPolyline
 90
2
 70
0
 10
19.096911
 20
160.163031
 30
0.0
 10
19.097361
 20
160.163031
 30
0.0
  0
LWPOLYLINE
  5
11b
100
AcDbEntity
  8
top-1
 62
7
100
AcDbPolyline
 90
23
 70
1
 10
14.541109
 20
146.382000
 30
0.0
 10
10.433688
 20
125.733562
 30
0.0
 10
15.105562
 20
124.803875
 30
0.0
 10
11.388766
 20
106.120281
 30
0.0
 10
16.060641
 20
105.190594
 30
0.0
 10
12.343844
 20
86.507000
 30
0.0
 10
21.685641
 20
84.649578
 30
0.0
 10
17.968844
 20
65.965984
 30
0.0
 10
38.615328
 20
61.858560
 30
0.0
 10
42.332125
 20
80.542156
 30
0.0
 10
74.048922
 20
74.233562
 30
0.0
 10
87.080172
 20
71.641766
 30
0.0
 10
83.361422
 20
52.958170
 30
0.0
 10
113.566500
 20
46.948410
 30
0.0
 10
113.566500
 20
46.950410
 30
0.0
 10
132.035250
 20
43.276580
 30
0.0
 10
136.142670
 20
63.923066
 30
0.0
 10
131.472750
 20
64.852753
 30
0.0
 10
135.187590
 20
83.536347
 30
0.0
 10
125.845800
 20
85.393769
 30
0.0
 10
129.562590
 20
104.077362
 30
0.0
 10
124.890720
 20
105.007050
 30
0.0
 10
128.607520
 20
123.690644
 30
0.0
  0
SPLINE
  5
11c
100
AcDbEntity
  8
top-1
 62
7
100
AcDbSpline
 70
8
 71
3
 72
8
 73
4
 74
0
 40
0
 40
0
 40
0
 40
0
 40
1
 40
1
 40
1
 40
1
 10
123.351720
 20
155.091692
 30
0.0
 10
123.351720
 20
154.627563
 30
0.0
 10
123.167346
 20
154.182444
 30
0.0
 10
122.839157
 20
153.854255
 30
0.0
  0
SPLINE
  5
11d
100
AcDbEntity
  8
top-1
 62
7
100
AcDbSpline
 70
8
 71
3
 72
8
 73
4
 74
0
 40
0
 40
0
 40
0
 40
0
 40
1
 40
1
 40
1
 40
1
 10
122.839157
 20
153.854255
 30
0.0
 10
122.510968
 20
153.526066
 30
0.0
 10
122.065849
 20
153.341692
 30
0.0
 10
121.601720
 20
153.341692
 30
0.0
  0
SPLINE
  5
11e
100
AcDbEntity
  8
top-1
 62
7
100
AcDbSpline
 70
8
 71
3
 72
8
 73
4
 74
0
 40
0
 40
0
 40
0
 40
0
 40
1
 40
1
 40
1
 40
1
 10
121.601720
 20
153.341692
 30
0.0
 10
121.137591
 20
153.341692
 30
0.0
 10
120.692472
 20
153.526066
 30
0.0
 10
120.364283
 20
153.854255
 30
0.0
  0
SPLINE
  5
11f
100
AcDbEntity
  8
top-1
 62
7
100
AcDbSpline
 70
8
 71
3
 72
8
 73
4
 74
0
 40
0
 40
0
 40
0
 40
0
 40
1
 40
1
 40
1
 40
1
 10
120.364283
 20
153.854255
 30
0.0
 10
120.036094
 20
154.182444
 30
0.0
 10
119.851720
 20
154.627563
 30
0.0
 10
119.851720
 20
155.091692
 30
0.0
  0
SPLINE
  5
120
100
AcDbEntity
  8
top-1
 62
7
100
AcDbSpline
 70
8
 71
3
 72
8
 73
4
 74
0
 40
0
 40
0
 40
0
 40
0
 40
1
 40
1
 40
1
 40
1
 10
119.851720
 20
155.091692
 30
0.0
 10
119.851720
 20
155.555821
 30
0.0
 10
120.036094
 20
156.000940
 30
0.0
 10
120.364283
 20
156.329129
 30
0.0
  0
SPLINE
  5
121
100
AcDbEntity
  8
top-1
 62
7
100
AcDbSpline
 70
8
 71
3
 72
8
 73
4
 74
0
 40
0
 40
0
 40
0
 40
0
 40
1
 40
1
 40
1
 40
1
 10
120.364283
 20
156.329129
 30
0.0
 10
120.692472
 20
156.657318
 30
0.0
 10
121.137591
 20
156.841692
 30
0.0
 10
121.601720
 20
156.841692
 30
0.0
  0
SPLINE
  5
122
100
AcDbEntity
  8
top-1
 62
7
100
AcDbSpline
 70
8
 71
3
 72
8
 73
4
 74
0
 40
0
 40
0
 40
0
 40
0
 40
1
 40
1
 40
1
 40
1
 10
121.601720
 20
156.841692
 30
0.0
 10
122.065849
 20
156.841692
 30
0.0
 10
122.510968
 20
156.657318
 30
0.0
 10
122.839157
 20
156.329129
 30
0.0
  0
SPLINE
  5
123
100
AcDbEntity
  8
top-1
 62
7
100
AcDbSpline
 70
8
 71
3
 72
8
 73
4
 74
0
 40
0
 40
0
 40
0
 40
0
 40
1
 40
1
 40
1
 40
1
 10
122.839157
 20
156.329129
 30
0.0
 10
123.167346
 20
156.000940
 30
0.0
 10
123.351720
 20
155.555821
 30
0.0
 10
123.351720
 20
155.091692
 30
0.0
  0
LWPOLYLINE
  5
124
100
AcDbEntity
  8
top-1
 62
7
100
AcDbPolyline
 90
23
 70
1
 10
263.730560
 20
146.438641
 30
0.0
 10
178.671970
 20
129.518719
 30
0.0
 10
140.322360
 20
121.889812
 30
0.0
 10
144.429780
 20
101.243328
 30
0.0
 10
149.101660
 20
102.171062
 30
0.0
 10
152.427830
 20
85.450359
 30
0.0
 10
143.084080
 20
83.592938
 30
0.0
 10
146.800880
 20
64.909344
 30
0.0
 10
142.130950
 20
63.979656
 30
0.0
 10
146.238380
 20
43.333170
 30
0.0
 10
194.910250
 20
53.014810
 30
0.0
 10
191.193450
 20
71.700359
 30
0.0
 10
221.712980
 20
77.770672
 30
0.0
 10
221.712980
 20
77.768672
 30
0.0
 10
235.941500
 20
80.600703
 30
0.0
 10
239.658300
 20
61.915150
 30
0.0
 10
260.302830
 20
66.022578
 30
0.0
 10
256.587980
 20
84.706172
 30
0.0
 10
261.257910
 20
85.635859
 30
0.0
 10
257.541110
 20
104.319453
 30
0.0
 10
266.882910
 20
106.178828
 30
0.0
 10
263.168060
 20
124.862422
 30
0.0
 10
267.837980
 20
125.792109
 30
0.0
  0
SPLINE
  5
125
100
AcDbEntity
  8
top-1
 62
7
100
AcDbSpline
 70
8
 71
3
 72
8
 73
4
 74
0
 40
0
 40
0
 40
0
 40
0
 40
1
 40
1
 40
1
 40
1
 10
6.627277
 20
113.170643
 30
0.0
 10
6.627277
 20
112.706514
 30
0.0
 10
6.442903
 20
112.261395
 30
0.0
 10
6.114714
 20
111.933206
 30
0.0
  0
SPLINE
  5
126
100
AcDbEntity
  8
top-1
 62
7
100
AcDbSpline
 70
8
 71
3
 72
8
 73
4
 74
0
 40
0
 40
0
 40
0
 40
0
 40
1
 40
1
 40
1
 40
1
 10
6.114714
 20
111.933206
 30
0.0
 10
5.786526
 20
111.605017
 30
0.0
 10
5.341406
 20
111.420643
 30
0.0
 10
4.877277
 20
111.420643
 30
0.0
  0
SPLINE
  5
127
100
AcDbEntity
  8
top-1
 62
7
100
AcDbSpline
 70
8
 71
3
 72
8
 73
4
 74
0
 40
0
 40
0
 40
0
 40
0
 40
1
 40
1
 40
1
 40
1
 10
4.877277
 20
111.420643
 30
0.0
 10
3.910779
 20
111.420643
 30
0.0
 10
3.127277
 20
112.204145
 30
0.0
 10
3.127277
 20
113.170643
 30
0.0
  0
SPLINE
  5
128
100
AcDbEntity
  8
top-1
 62
7
100
AcDbSpline
 70
8
 71
3
 72
8
 73
4
 74
0
 40
0
 40
0
 40
0
 40
0
 40
1
 40
1
 40
1
 40
1
 10
3.127277
 20
113.170643
 30
0.0
 10
3.127277
 20
113.634772
 30
0.0
 10
3.311652
 20
114.079891
 30
0.0
 10
3.639841
 20
114.408080
 30
0.0
  0
SPLINE
  5
129
100
AcDbEntity
  8
top-1
 62
7
100
AcDbSpline
 70
8
 71
3
 72
8
 73
4
 74
0
 40
0
 40
0
 40
0
 40
0
 40
1
 40
1
 40
1
 40
1
 10
3.639841
 20
114.408080
 30
0.0
 10
3.968029
 20
114.736269
 30
0.0
 10
4.413149
 20
114.920643
 30
0.0
 10
4.877277
 20
114.920643
 30
0.0
  0
SPLINE
  5
12a
100
AcDbEntity
  8
top-1
 62
7
100
AcDbSpline
 70
8
 71
3
 72
8
 73
4
 74
0
 40
0
 40
0
 40
0
 40
0
 40
1
 40
1
 40
1
 40
1
 10
4.877277
 20
114.920643
 30
0.0
 10
5.341406
 20
114.920643
 30
0.0
 10
5.786526
 20
114.736269
 30
0.0
 10
6.114714
 20
114.408080
 30
0.0
  0
SPLINE
  5
12b
100
AcDbEntity
  8
top-1
 62
7
100
AcDbSpline
 70
8
 71
3
 72
8
 73
4
 74
0
 40
0
 40
0
 40
0
 40
0
 40
1
 40
1
 40
1
 40
1
 10
6.114714
 20
114.408080
 30
0.0
 10
6.442903
 20
114.079891
 30
0.0
 10
6.627277
 20
113.634772
 30
0.0
 10
6.627277
 20
113.170643
 30
0.0
  0
LWPOLYLINE
  5
12c
100
AcDbEntity
  8
top-1
 62
7
100
AcDbPolyline
 90
1
 70
1
 10
123.351720
 20
155.091692
 30
0.0
  0
SPLINE
  5
12d
100
AcDbEntity
  8
top-1
 62
7
100
AcDbSpline
 70
8
 71
3
 72
8
 73
4
 74
0
 40
0
 40
0
 40
0
 40
0
 40
1
 40
1
 40
1
 40
1
 10
275.068940
 20
113.170643
 30
0.0
 10
275.068940
 20
112.706514
 30
0.0
 10
274.884566
 20
112.261395
 30
0.0
 10
274.556377
 20
111.933206
 30
0.0
  0
SPLINE
  5
12e
100
AcDbEntity
  8
top-1
 62
7
100
AcDbSpline
 70
8
 71
3
 72
8
 73
4
 74
0
 40
0
 40
0
 40
0
 40
0
 40
1
 40
1
 40
1
 40
1
 10
274.556377
 20
111.933206
 30
0.0
 10
274.228188
 20
111.605017
 30
0.0
 10
273.783069
 20
111.420643
 30
0.0
 10
273.318940
 20
111.420643
 30
0.0
  0
SPLINE
  5
12f
100
AcDbEntity
  8
top-1
 62
7
100
AcDbSpline
 70
8
 71
3
 72
8
 73
4
 74
0
 40
0
 40
0
 40
0
 40
0
 40
1
 40
1
 40
1
 40
1
 10
273.318940
 20
111.420643
 30
0.0
 10
272.854811
 20
111.420643
 30
0.0
 10
272.409692
 20
111.605017
 30
0.0
 10
272.081503
 20
111.933206
 30
0.0
  0
SPLINE
  5
130
100
AcDbEntity
  8
top-1
 62
7
100
AcDbSpline
 70
8
 71
3
 72
8
 73
4
 74
0
 40
0
 40
0
 40
0
 40
0
 40
1
 40
1
 40
1
 40
1
 10
272.081503
 20
111.933206
 30
0.0
 10
271.753314
 20
112.261395
 30
0.0
 10
271.568940
 20
112.706514
 30
0.0
 10
271.568940
 20
113.170643
 30
0.0
  0
SPLINE
  5
131
100
AcDbEntity
  8
top-1
 62
7
100
AcDbSpline
 70
8
 71
3
 72
8
 73
4
 74
0
 40
0
 40
0
 40
0
 40
0
 40
1
 40
1
 40
1
 40
1
 10
271.568940
 20
113.170643
 30
0.0
 10
271.568940
 20
113.634772
 30
0.0
 10
271.753314
 20
114.079891
 30
0.0
 10
272.081503
 20
114.408080
 30
0.0
  0
SPLINE
  5
132
100
AcDbEntity
  8
top-1
 62
7
100
AcDbSpline
 70
8
 71
3
 72
8
 73
4
 74
0
 40
0
 40
0
 40
0
 40
0
 40
1
 40
1
 40
1
 40
1
 10
272.081503
 20
114.408080
 30
0.0
 10
272.409692
 20
114.736269
 30
0.0
 10
272.854811
 20
114.920643
 30
0.0
 10
273.318940
 20
114.920643
 30
0.0
  0
SPLINE
  5
133
100
AcDbEntity
  8
top-1
 62
7
100
AcDbSpline
 70
8
 71
3
 72
8
 73
4
 74
0
 40
0
 40
0
 40
0
 40
0
 40
1
 40
1
 40
1
 40
1
 10
273.318940
 20
114.920643
 30
0.0
 10
273.783069
 20
114.920643
 30
0.0
 10
274.228188
 20
114.736269
 30
0.0
 10
274.556377
 20
114.408080
 30
0.0
  0
SPLINE
  5
134
100
AcDbEntity
  8
top-1
 62
7
100
AcDbSpline
 70
8
 71
3
 72
8
 73
4
 74
0
 40
0
 40
0
 40
0
 40
0
 40
1
 40
1
 40
1
 40
1
 10
274.556377
 20
114.408080
 30
0.0
 10
274.884566
 20
114.079891
 30
0.0
 10
275.068940
 20
113.634772
 30
0.0
 10
275.068940
 20
113.170643
 30
0.0
  0
LWPOLYLINE
  5
135
100
AcDbEntity
  8
top-1
 62
7
100
AcDbPolyline
 90
1
 70
1
 10
6.627277
 20
113.170643
 30
0.0
  0
SPLINE
  5
136
100
AcDbEntity
  8
top-1
 62
7
100
AcDbSpline
 70
8
 71
3
 72
8
 73
4
 74
0
 40
0
 40
0
 40
0
 40
0
 40
1
 40
1
 40
1
 40
1
 10
11.560055
 20
150.458358
 30
0.0
 10
11.560055
 20
149.994229
 30
0.0
 10
11.375681
 20
149.549110
 30
0.0
 10
11.047492
 20
149.220921
 30
0.0
  0
SPLINE
  5
137
100
AcDbEntity
  8
top-1
 62
7
100
AcDbSpline
 70
8
 71
3
 72
8
 73
4
 74
0
 40
0
 40
0
 40
0
 40
0
 40
1
 40
1
 40
1
 40
1
 10
11.047492
 20
149.220921
 30
0.0
 10
10.719303
 20
148.892732
 30
0.0
 10
10.274184
 20
148.708358
 30
0.0
 10
9.810055
 20
148.708358
 30
0.0
  0
SPLINE
  5
138
100
AcDbEntity
  8
top-1
 62
7
100
AcDbSpline
 70
8
 71
3
 72
8
 73
4
 74
0
 40
0
 40
0
 40
0
 40
0
 40
1
 40
1
 40
1
 40
1
 10
9.810055
 20
148.708358
 30
0.0
 10
9.345926
 20
148.708358
 30
0.0
 10
8.900807
 20
148.892732
 30
0.0
 10
8.572618
 20
149.220921
 30
0.0
  0
SPLINE
  5
139
100
AcDbEntity
  8
top-1
 62
7
100
AcDbSpline
 70
8
 71
3
 72
8
 73
4
 74
0
 40
0
 40
0
 40
0
 40
0
 40
1
 40
1
 40
1
 40
1
 10
8.572618
 20
149.220921
 30
0.0
 10
8.244429
 20
149.549110
 30
0.0
 10
8.060055
 20
149.994229
 30
0.0
 10
8.060055
 20
150.458358
 30
0.0
  0
SPLINE
  5
13a
100
AcDbEntity
  8
top-1
 62
7
100
AcDbSpline
 70
8
 71
3
 72
8
 73
4
 74
0
 40
0
 40
0
 40
0
 40
0
 40
1
 40
1
 40
1
 40
1
 10
8.060055
 20
150.458358
 30
0.0
 10
8.060055
 20
150.922487
 30
0.0
 10
8.244429
 20
151.367606
 30
0.0
 10
8.572618
 20
151.695795
 30
0.0
  0
SPLINE
  5
13b
100
AcDbEntity
  8
top-1
 62
7
100
AcDbSpline
 70
8
 71
3
 72
8
 73
4
 74
0
 40
0
 40
0
 40
0
 40
0
 40
1
 40
1
 40
1
 40
1
 10
8.572618
 20
151.695795
 30
0.0
 10
8.900807
 20
152.023984
 30
0.0
 10
9.345926
 20
152.208358
 30
0.0
 10
9.810055
 20
152.208358
 30
0.0
  0
SPLINE
  5
13c
100
AcDbEntity
  8
top-1
 62
7
100
AcDbSpline
 70
8
 71
3
 72
8
 73
4
 74
0
 40
0
 40
0
 40
0
 40
0
 40
1
 40
1
 40
1
 40
1
 10
9.810055
 20
152.208358
 30
0.0
 10
10.274184
 20
152.208358
 30
0.0
 10
10.719303
 20
152.023984
 30
0.0
 10
11.047492
 20
151.695795
 30
0.0
  0
SPLINE
  5
13d
100
AcDbEntity
  8
top-1
 62
7
100
AcDbSpline
 70
8
 71
3
 72
8
 73
4
 74
0
 40
0
 40
0
 40
0
 40
0
 40
1
 40
1
 40
1
 40
1
 10
11.047492
 20
151.695795
 30
0.0
 10
11.375681
 20
151.367606
 30
0.0
 10
11.560055
 20
150.922487
 30
0.0
 10
11.560055
 20
150.458358
 30
0.0
  0
LWPOLYLINE
  5
13e
100
AcDbEntity
  8
top-1
 62
7
100
AcDbPolyline
 90
1
 70
1
 10
275.068940
 20
113.170643
 30
0.0
  0
SPLINE
  5
13f
100
AcDbEntity
  8
top-1
 62
7
100
AcDbSpline
 70
8
 71
3
 72
8
 73
4
 74
0
 40
0
 40
0
 40
0
 40
0
 40
1
 40
1
 40
1
 40
1
 10
270.176730
 20
150.458128
 30
0.0
 10
270.176730
 20
149.993999
 30
0.0
 10
269.992356
 20
149.548880
 30
0.0
 10
269.664167
 20
149.220691
 30
0.0
  0
SPLINE
  5
140
100
AcDbEntity
  8
top-1
 62
7
100
AcDbSpline
 70
8
 71
3
 72
8
 73
4
 74
0
 40
0
 40
0
 40
0
 40
0
 40
1
 40
1
 40
1
 40
1
 10
269.664167
 20
149.220691
 30
0.0
 10
269.335978
 20
148.892502
 30
0.0
 10
268.890859
 20
148.708128
 30
0.0
 10
268.426730
 20
148.708128
 30
0.0
  0
SPLINE
  5
141
100
AcDbEntity
  8
top-1
 62
7
100
AcDbSpline
 70
8
 71
3
 72
8
 73
4
 74
0
 40
0
 40
0
 40
0
 40
0
 40
1
 40
1
 40
1
 40
1
 10
268.426730
 20
148.708128
 30
0.0
 10
267.962601
 20
148.708128
 30
0.0
 10
267.517482
 20
148.892502
 30
0.0
 10
267.189293
 20
149.220691
 30
0.0
  0
SPLINE
  5
142
100
AcDbEntity
  8
top-1
 62
7
100
AcDbSpline
 70
8
 71
3
 72
8
 73
4
 74
0
 40
0
 40
0
 40
0
 40
0
 40
1
 40
1
 40
1
 40
1
 10
267.189293
 20
149.220691
 30
0.0
 10
266.861104
 20
149.548880
 30
0.0
 10
266.676730
 20
149.993999
 30
0.0
 10
266.676730
 20
150.458128
 30
0.0
  0
SPLINE
  5
143
100
AcDbEntity
  8
top-1
 62
7
100
AcDbSpline
 70
8
 71
3
 72
8
 73
4
 74
0
 40
0
 40
0
 40
0
 40
0
 40
1
 40
1
 40
1
 40
1
 10
266.676730
 20
150.458128
 30
0.0
 10
266.676730
 20
150.922257
 30
0.0
 10
266.861104
 20
151.367376
 30
0.0
 10
267.189293
 20
151.695565
 30
0.0
  0
SPLINE
  5
144
100
AcDbEntity
  8
top-1
 62
7
100
AcDbSpline
 70
8
 71
3
 72
8
 73
4
 74
0
 40
0
 40
0
 40
0
 40
0
 40
1
 40
1
 40
1
 40
1
 10
267.189293
 20
151.695565
 30
0.0
 10
267.517482
 20
152.023754
 30
0.0
 10
267.962601
 20
152.208128
 30
0.0
 10
268.426730
 20
152.208128
 30
0.0
  0
SPLINE
  5
145
100
AcDbEntity
  8
top-1
 62
7
100
AcDbSpline
 70
8
 71
3
 72
8
 73
4
 74
0
 40
0
 40
0
 40
0
 40
0
 40
1
 40
1
 40
1
 40
1
 10
268.426730
 20
152.208128
 30
0.0
 10
268.890859
 20
152.208128
 30
0.0
 10
269.335978
 20
152.023754
 30
0.0
 10
269.664167
 20
151.695565
 30
0.0
  0
SPLINE
  5
146
100
AcDbEntity
  8
top-1
 62
7
100
AcDbSpline
 70
8
 71
3
 72
8
 73
4
 74
0
 40
0
 40
0
 40
0
 40
0
 40
1
 40
1
 40
1
 40
1
 10
269.664167
 20
151.695565
 30
0.0
 10
269.992356
 20
151.367376
 30
0.0
 10
270.176730
 20
150.922257
 30
0.0
 10
270.176730
 20
150.458128
 30
0.0
  0
LWPOLYLINE
  5
147
100
AcDbEntity
  8
top-1
 62
7
100
AcDbPolyline
 90
1
 70
1
 10
11.560055
 20
150.458358
 30
0.0
  0
SPLINE
  5
148
100
AcDbEntity
  8
top-1
 62
7
100
AcDbSpline
 70
8
 71
3
 72
8
 73
4
 74
0
 40
0
 40
0
 40
0
 40
0
 40
1
 40
1
 40
1
 40
1
 10
11.560276
 20
66.158901
 30
0.0
 10
11.560276
 20
65.694772
 30
0.0
 10
11.375902
 20
65.249653
 30
0.0
 10
11.047713
 20
64.921464
 30
0.0
  0
SPLINE
  5
149
100
AcDbEntity
  8
top-1
 62
7
100
AcDbSpline
 70
8
 71
3
 72
8
 73
4
 74
0
 40
0
 40
0
 40
0
 40
0
 40
1
 40
1
 40
1
 40
1
 10
11.047713
 20
64.921464
 30
0.0
 10
10.719524
 20
64.593275
 30
0.0
 10
10.274405
 20
64.408901
 30
0.0
 10
9.810276
 20
64.408901
 30
0.0
  0
SPLINE
  5
14a
100
AcDbEntity
  8
top-1
 62
7
100
AcDbSpline
 70
8
 71
3
 72
8
 73
4
 74
0
 40
0
 40
0
 40
0
 40
0
 40
1
 40
1
 40
1
 40
1
 10
9.810276
 20
64.408901
 30
0.0
 10
9.346147
 20
64.408901
 30
0.0
 10
8.901028
 20
64.593275
 30
0.0
 10
8.572839
 20
64.921464
 30
0.0
  0
SPLINE
  5
14b
100
AcDbEntity
  8
top-1
 62
7
100
AcDbSpline
 70
8
 71
3
 72
8
 73
4
 74
0
 40
0
 40
0
 40
0
 40
0
 40
1
 40
1
 40
1
 40
1
 10
8.572839
 20
64.921464
 30
0.0
 10
8.244650
 20
65.249653
 30
0.0
 10
8.060276
 20
65.694772
 30
0.0
 10
8.060276
 20
66.158901
 30
0.0
  0
SPLINE
  5
14c
100
AcDbEntity
  8
top-1
 62
7
100
AcDbSpline
 70
8
 71
3
 72
8
 73
4
 74
0
 40
0
 40
0
 40
0
 40
0
 40
1
 40
1
 40
1
 40
1
 10
8.060276
 20
66.158901
 30
0.0
 10
8.060276
 20
66.623030
 30
0.0
 10
8.244650
 20
67.068149
 30
0.0
 10
8.572839
 20
67.396338
 30
0.0
  0
SPLINE
  5
14d
100
AcDbEntity
  8
top-1
 62
7
100
AcDbSpline
 70
8
 71
3
 72
8
 73
4
 74
0
 40
0
 40
0
 40
0
 40
0
 40
1
 40
1
 40
1
 40
1
 10
8.572839
 20
67.396338
 30
0.0
 10
8.901028
 20
67.724527
 30
0.0
 10
9.346147
 20
67.908901
 30
0.0
 10
9.810276
 20
67.908901
 30
0.0
  0
SPLINE
  5
14e
100
AcDbEntity
  8
top-1
 62
7
100
AcDbSpline
 70
8
 71
3
 72
8
 73
4
 74
0
 40
0
 40
0
 40
0
 40
0
 40
1
 40
1
 40
1
 40
1
 10
9.810276
 20
67.908901
 30
0.0
 10
10.274405
 20
67.908901
 30
0.0
 10
10.719524
 20
67.724527
 30
0.0
 10
11.047713
 20
67.396338
 30
0.0
  0
SPLINE
  5
14f
100
AcDbEntity
  8
top-1
 62
7
100
AcDbSpline
 70
8
 71
3
 72
8
 73
4
 74
0
 40
0
 40
0
 40
0
 40
0
 40
1
 40
1
 40
1
 40
1
 10
11.047713
 20
67.396338
 30
0.0
 10
11.375902
 20
67.068149
 30
0.0
 10
11.560276
 20
66.623030
 30
0.0
 10
11.560276
 20
66.158901
 30
0.0
  0
LWPOLYLINE
  5
150
100
AcDbEntity
  8
top-1
 62
7
100
AcDbPolyline
 90
1
 70
1
 10
270.176730
 20
150.458128
 30
0.0
  0
SPLINE
  5
151
100
AcDbEntity
  8
top-1
 62
7
100
AcDbSpline
 70
8
 71
3
 72
8
 73
4
 74
0
 40
0
 40
0
 40
0
 40
0
 40
1
 40
1
 40
1
 40
1
 10
270.176940
 20
66.158749
 30
0.0
 10
270.176940
 20
65.694620
 30
0.0
 10
269.992566
 20
65.249501
 30
0.0
 10
269.664377
 20
64.921312
 30
0.0
  0
SPLINE
  5
152
100
AcDbEntity
  8
top-1
 62
7
100
AcDbSpline
 70
8
 71
3
 72
8
 73
4
 74
0
 40
0
 40
0
 40
0
 40
0
 40
1
 40
1
 40
1
 40
1
 10
269.664377
 20
64.921312
 30
0.0
 10
269.336188
 20
64.593123
 30
0.0
 10
268.891069
 20
64.408749
 30
0.0
 10
268.426940
 20
64.408749
 30
0.0
  0
SPLINE
  5
153
100
AcDbEntity
  8
top-1
 62
7
100
AcDbSpline
 70
8
 71
3
 72
8
 73
4
 74
0
 40
0
 40
0
 40
0
 40
0
 40
1
 40
1
 40
1
 40
1
 10
268.426940
 20
64.408749
 30
0.0
 10
267.962811
 20
64.408749
 30
0.0
 10
267.517692
 20
64.593123
 30
0.0
 10
267.189503
 20
64.921312
 30
0.0
  0
SPLINE
  5
154
100
AcDbEntity
  8
top-1
 62
7
100
AcDbSpline
 70
8
 71
3
 72
8
 73
4
 74
0
 40
0
 40
0
 40
0
 40
0
 40
1
 40
1
 40
1
 40
1
 10
267.189503
 20
64.921312
 30
0.0
 10
266.861314
 20
65.249501
 30
0.0
 10
266.676940
 20
65.694620
 30
0.0
 10
266.676940
 20
66.158749
 30
0.0
  0
SPLINE
  5
155
100
AcDbEntity
  8
top-1
 62
7
100
AcDbSpline
 70
8
 71
3
 72
8
 73
4
 74
0
 40
0
 40
0
 40
0
 40
0
 40
1
 40
1
 40
1
 40
1
 10
266.676940
 20
66.158749
 30
0.0
 10
266.676940
 20
66.622878
 30
0.0
 10
266.861314
 20
67.067997
 30
0.0
 10
267.189503
 20
67.396186
 30
0.0
  0
SPLINE
  5
156
100
AcDbEntity
  8
top-1
 62
7
100
AcDbSpline
 70
8
 71
3
 72
8
 73
4
 74
0
 40
0
 40
0
 40
0
 40
0
 40
1
 40
1
 40
1
 40
1
 10
267.189503
 20
67.396186
 30
0.0
 10
267.517692
 20
67.724375
 30
0.0
 10
267.962811
 20
67.908749
 30
0.0
 10
268.426940
 20
67.908749
 30
0.0
  0
SPLINE
  5
157
100
AcDbEntity
  8
top-1
 62
7
100
AcDbSpline
 70
8
 71
3
 72
8
 73
4
 74
0
 40
0
 40
0
 40
0
 40
0
 40
1
 40
1
 40
1
 40
1
 10
268.426940
 20
67.908749
 30
0.0
 10
268.891069
 20
67.908749
 30
0.0
 10
269.336188
 20
67.724375
 30
0.0
 10
269.664377
 20
67.396186
 30
0.0
  0
SPLINE
  5
158
100
AcDbEntity
  8
top-1
 62
7
100
AcDbSpline
 70
8
 71
3
 72
8
 73
4
 74
0
 40
0
 40
0
 40
0
 40
0
 40
1
 40
1
 40
1
 40
1
 10
269.664377
 20
67.396186
 30
0.0
 10
269.992566
 20
67.067997
 30
0.0
 10
270.176940
 20
66.622878
 30
0.0
 10
270.176940
 20
66.158749
 30
0.0
  0
LWPOLYLINE
  5
159
100
AcDbEntity
  8
top-1
 62
7
100
AcDbPolyline
 90
1
 70
1
 10
11.560276
 20
66.158901
 30
0.0
  0
SPLINE
  5
15a
100
AcDbEntity
  8
top-1
 62
7
100
AcDbSpline
 70
8
 71
3
 72
8
 73
4
 74
0
 40
0
 40
0
 40
0
 40
0
 40
1
 40
1
 40
1
 40
1
 10
158.589420
 20
155.091692
 30
0.0
 10
158.589420
 20
154.627563
 30
0.0
 10
158.405046
 20
154.182444
 30
0.0
 10
158.076857
 20
153.854255
 30
0.0
  0
SPLINE
  5
15b
100
AcDbEntity
  8
top-1
 62
7
100
AcDbSpline
 70
8
 71
3
 72
8
 73
4
 74
0
 40
0
 40
0
 40
0
 40
0
 40
1
 40
1
 40
1
 40
1
 10
158.076857
 20
153.854255
 30
0.0
 10
157.748668
 20
153.526066
 30
0.0
 10
157.303549
 20
153.341692
 30
0.0
 10
156.839420
 20
153.341692
 30
0.0
  0
SPLINE
  5
15c
100
AcDbEntity
  8
top-1
 62
7
100
AcDbSpline
 70
8
 71
3
 72
8
 73
4
 74
0
 40
0
 40
0
 40
0
 40
0
 40
1
 40
1
 40
1
 40
1
 10
156.839420
 20
153.341692
 30
0.0
 10
155.872922
 20
153.341692
 30
0.0
 10
155.089420
 20
154.125194
 30
0.0
 10
155.089420
 20
155.091692
 30
0.0
  0
SPLINE
  5
15d
100
AcDbEntity
  8
top-1
 62
7
100
AcDbSpline
 70
8
 71
3
 72
8
 73
4
 74
0
 40
0
 40
0
 40
0
 40
0
 40
1
 40
1
 40
1
 40
1
 10
155.089420
 20
155.091692
 30
0.0
 10
155.089420
 20
155.555821
 30
0.0
 10
155.273794
 20
156.000940
 30
0.0
 10
155.601983
 20
156.329129
 30
0.0
  0
SPLINE
  5
15e
100
AcDbEntity
  8
top-1
 62
7
100
AcDbSpline
 70
8
 71
3
 72
8
 73
4
 74
0
 40
0
 40
0
 40
0
 40
0
 40
1
 40
1
 40
1
 40
1
 10
155.601983
 20
156.329129
 30
0.0
 10
155.930172
 20
156.657318
 30
0.0
 10
156.375291
 20
156.841692
 30
0.0
 10
156.839420
 20
156.841692
 30
0.0
  0
SPLINE
  5
15f
100
AcDbEntity
  8
top-1
 62
7
100
AcDbSpline
 70
8
 71
3
 72
8
 73
4
 74
0
 40
0
 40
0
 40
0
 40
0
 40
1
 40
1
 40
1
 40
1
 10
156.839420
 20
156.841692
 30
0.0
 10
157.303549
 20
156.841692
 30
0.0
 10
157.748668
 20
156.657318
 30
0.0
 10
158.076857
 20
156.329129
 30
0.0
  0
SPLINE
  5
160
100
AcDbEntity
  8
top-1
 62
7
100
AcDbSpline
 70
8
 71
3
 72
8
 73
4
 74
0
 40
0
 40
0
 40
0
 40
0
 40
1
 40
1
 40
1
 40
1
 10
158.076857
 20
156.329129
 30
0.0
 10
158.405046
 20
156.000940
 30
0.0
 10
158.589420
 20
155.555821
 30
0.0
 10
158.589420
 20
155.091692
 30
0.0
  0
LWPOLYLINE
  5
161
100
AcDbEntity
  8
top-1
 62
7
100
AcDbPolyline
 90
1
 70
1
 10
270.176940
 20
66.158749
 30
0.0
  0
SPLINE
  5
162
100
AcDbEntity
  8
top-1
 62
7
100
AcDbSpline
 70
8
 71
3
 72
8
 73
4
 74
0
 40
0
 40
0
 40
0
 40
0
 40
1
 40
1
 40
1
 40
1
 10
103.352110
 20
44.611150
 30
0.0
 10
103.352110
 20
44.147021
 30
0.0
 10
103.167736
 20
43.701902
 30
0.0
 10
102.839547
 20
43.373713
 30
0.0
  0
SPLINE
  5
163
100
AcDbEntity
  8
top-1
 62
7
100
AcDbSpline
 70
8
 71
3
 72
8
 73
4
 74
0
 40
0
 40
0
 40
0
 40
0
 40
1
 40
1
 40
1
 40
1
 10
102.839547
 20
43.373713
 30
0.0
 10
102.511358
 20
43.045524
 30
0.0
 10
102.066239
 20
42.861150
 30
0.0
 10
101.602110
 20
42.861150
 30
0.0
  0
SPLINE
  5
164
100
AcDbEntity
  8
top-1
 62
7
100
AcDbSpline
 70
8
 71
3
 72
8
 73
4
 74
0
 40
0
 40
0
 40
0
 40
0
 40
1
 40
1
 40
1
 40
1
 10
101.602110
 20
42.861150
 30
0.0
 10
101.137981
 20
42.861150
 30
0.0
 10
100.692862
 20
43.045524
 30
0.0
 10
100.364673
 20
43.373713
 30
0.0
  0
SPLINE
  5
165
100
AcDbEntity
  8
top-1
 62
7
100
AcDbSpline
 70
8
 71
3
 72
8
 73
4
 74
0
 40
0
 40
0
 40
0
 40
0
 40
1
 40
1
 40
1
 40
1
 10
100.364673
 20
43.373713
 30
0.0
 10
100.036484
 20
43.701902
 30
0.0
 10
99.852110
 20
44.147021
 30
0.0
 10
99.852110
 20
44.611150
 30
0.0
  0
SPLINE
  5
166
100
AcDbEntity
  8
top-1
 62
7
100
AcDbSpline
 70
8
 71
3
 72
8
 73
4
 74
0
 40
0
 40
0
 40
0
 40
0
 40
1
 40
1
 40
1
 40
1
 10
99.852110
 20
44.611150
 30
0.0
 10
99.852110
 20
45.075279
 30
0.0
 10
100.036484
 20
45.520398
 30
0.0
 10
100.364673
 20
45.848587
 30
0.0
  0
SPLINE
  5
167
100
AcDbEntity
  8
top-1
 62
7
100
AcDbSpline
 70
8
 71
3
 72
8
 73
4
 74
0
 40
0
 40
0
 40
0
 40
0
 40
1
 40
1
 40
1
 40
1
 10
100.364673
 20
45.848587
 30
0.0
 10
100.692862
 20
46.176776
 30
0.0
 10
101.137981
 20
46.361150
 30
0.0
 10
101.602110
 20
46.361150
 30
0.0
  0
SPLINE
  5
168
100
AcDbEntity
  8
top-1
 62
7
100
AcDbSpline
 70
8
 71
3
 72
8
 73
4
 74
0
 40
0
 40
0
 40
0
 40
0
 40
1
 40
1
 40
1
 40
1
 10
101.602110
 20
46.361150
 30
0.0
 10
102.066239
 20
46.361150
 30
0.0
 10
102.511358
 20
46.176776
 30
0.0
 10
102.839547
 20
45.848587
 30
0.0
  0
SPLINE
  5
169
100
AcDbEntity
  8
top-1
 62
7
100
AcDbSpline
 70
8
 71
3
 72
8
 73
4
 74
0
 40
0
 40
0
 40
0
 40
0
 40
1
 40
1
 40
1
 40
1
 10
102.839547
 20
45.848587
 30
0.0
 10
103.167736
 20
45.520398
 30
0.0
 10
103.352110
 20
45.075279
 30
0.0
 10
103.352110
 20
44.611150
 30
0.0
  0
LWPOLYLINE
  5
16a
100
AcDbEntity
  8
top-1
 62
7
100
AcDbPolyline
 90
1
 70
1
 10
158.589420
 20
155.091692
 30
0.0
  0
SPLINE
  5
16b
100
AcDbEntity
  8
top-1
 62
7
100
AcDbSpline
 70
8
 71
3
 72
8
 73
4
 74
0
 40
0
 40
0
 40
0
 40
0
 40
1
 40
1
 40
1
 40
1
 10
178.590120
 20
44.611150
 30
0.0
 10
178.590120
 20
44.147021
 30
0.0
 10
178.405746
 20
43.701902
 30
0.0
 10
178.077557
 20
43.373713
 30
0.0
  0
SPLINE
  5
16c
100
AcDbEntity
  8
top-1
 62
7
100
AcDbSpline
 70
8
 71
3
 72
8
 73
4
 74
0
 40
0
 40
0
 40
0
 40
0
 40
1
 40
1
 40
1
 40
1
 10
178.077557
 20
43.373713
 30
0.0
 10
177.749368
 20
43.045524
 30
0.0
 10
177.304249
 20
42.861150
 30
0.0
 10
176.840120
 20
42.861150
 30
0.0
  0
SPLINE
  5
16d
100
AcDbEntity
  8
top-1
 62
7
100
AcDbSpline
 70
8
 71
3
 72
8
 73
4
 74
0
 40
0
 40
0
 40
0
 40
0
 40
1
 40
1
 40
1
 40
1
 10
176.840120
 20
42.861150
 30
0.0
 10
176.375991
 20
42.861150
 30
0.0
 10
175.930872
 20
43.045524
 30
0.0
 10
175.602683
 20
43.373713
 30
0.0
  0
SPLINE
  5
16e
100
AcDbEntity
  8
top-1
 62
7
100
AcDbSpline
 70
8
 71
3
 72
8
 73
4
 74
0
 40
0
 40
0
 40
0
 40
0
 40
1
 40
1
 40
1
 40
1
 10
175.602683
 20
43.373713
 30
0.0
 10
175.274494
 20
43.701902
 30
0.0
 10
175.090120
 20
44.147021
 30
0.0
 10
175.090120
 20
44.611150
 30
0.0
  0
SPLINE
  5
16f
100
AcDbEntity
  8
top-1
 62
7
100
AcDbSpline
 70
8
 71
3
 72
8
 73
4
 74
0
 40
0
 40
0
 40
0
 40
0
 40
1
 40
1
 40
1
 40
1
 10
175.090120
 20
44.611150
 30
0.0
 10
175.090120
 20
45.075279
 30
0.0
 10
175.274494
 20
45.520398
 30
0.0
 10
175.602683
 20
45.848587
 30
0.0
  0
SPLINE
  5
170
100
AcDbEntity
  8
top-1
 62
7
100
AcDbSpline
 70
8
 71
3
 72
8
 73
4
 74
0
 40
0
 40
0
 40
0
 40
0
 40
1
 40
1
 40
1
 40
1
 10
175.602683
 20
45.848587
 30
0.0
 10
175.930872
 20
46.176776
 30
0.0
 10
176.375991
 20
46.361150
 30
0.0
 10
176.840120
 20
46.361150
 30
0.0
  0
SPLINE
  5
171
100
AcDbEntity
  8
top-1
 62
7
100
AcDbSpline
 70
8
 71
3
 72
8
 73
4
 74
0
 40
0
 40
0
 40
0
 40
0
 40
1
 40
1
 40
1
 40
1
 10
176.840120
 20
46.361150
 30
0.0
 10
177.304249
 20
46.361150
 30
0.0
 10
177.749368
 20
46.176776
 30
0.0
 10
178.077557
 20
45.848587
 30
0.0
  0
SPLINE
  5
172
100
AcDbEntity
  8
top-1
 62
7
100
AcDbSpline
 70
8
 71
3
 72
8
 73
4
 74
0
 40
0
 40
0
 40
0
 40
0
 40
1
 40
1
 40
1
 40
1
 10
178.077557
 20
45.848587
 30
0.0
 10
178.405746
 20
45.520398
 30
0.0
 10
178.590120
 20
45.075279
 30
0.0
 10
178.590120
 20
44.611150
 30
0.0
  0
LWPOLYLINE
  5
173
100
AcDbEntity
  8
top-1
 62
7
100
AcDbPolyline
 90
1
 70
1
 10
103.352110
 20
44.611150
 30
0.0
  0
LWPOLYLINE
  5
174
100
AcDbEntity
  8
top-1
 62
7
100
AcDbPolyline
 90
1
 70
1
 10
178.590120
 20
44.611150
 30
0.0
  0
ENDSEC
  0
SECTION
  2
OBJECTS
  0
DICTIONARY
  5
C
330
0
100
AcDbDictionary
  3
ACAD_GROUP
350
D
  3
ACAD_MLINESTYLE
350
17
  0
DICTIONARY
  5
D
330
C
100
AcDbDictionary
  0
DICTIONARY
  5
1A
330
C
100
AcDbDictionary
  0
DICTIONARY
  5
17
330
C
100
AcDbDictionary
  3
STANDARD
350
18
  0
DICTIONARY
  5
19
330
C
100
AcDbDictionary
  0
ENDSEC
  0
EOF
