  0
SECTION
  2
HEADER
  9
$ACADVER
  1
AC1014
  9
$HANDSEED
  5
FFFF
  9
$MEASUREMENT
 70
     1
  0
ENDSEC
  0
SECTION
  2
TABLES
  0
TABLE
  2
VPORT
  5
8
330
0
100
AcDbSymbolTable
 70
     4
  0
VPORT
  5
2E
330
8
100
AcDbSymbolTableRecord
100
AcDbViewportTableRecord
  2
*ACTIVE
 70
     0
 10
0.0
 20
0.0
 11
1.0
 21
1.0
 12
210.0
 22
148.5
 13
0.0
 23
0.0
 14
10.0
 24
10.0
 15
10.0
 25
10.0
 16
0.0
 26
0.0
 36
1.0
 17
0.0
 27
0.0
 37
0.0
 40
341.0
 41
1.24
 42
50.0
 43
0.0
 44
0.0
 50
0.0
 51
0.0
 71
     0
 72
   100
 73
     1
 74
     3
 75
     0
 76
     0
 77
     0
 78
     0
  0
ENDTAB
  0
TABLE
  2
LTYPE
  5
5
330
0
100
AcDbSymbolTable
 70
     1
  0
LTYPE
  5
14
330
5
100
AcDbSymbolTableRecord
100
AcDbLinetypeTableRecord
  2
BYBLOCK
 70
     0
  3

 72
    65
 73
     0
 40
0.0
  0
LTYPE
  5
15
330
5
100
AcDbSymbolTableRecord
100
AcDbLinetypeTableRecord
  2
BYLAYER
 70
     0
  3

 72
    65
 73
     0
 40
0.0
  0
LTYPE
  5
16
330
5
100
AcDbSymbolTableRecord
100
AcDbLinetypeTableRecord
  2
CONTINUOUS
 70
     0
  3
Solid line
 72
    65
 73
     0
 40
0.0
  0
ENDTAB
  0
TABLE
  2
LAYER
  5
2
100
AcDbSymbolTable
 70
2
  0
LAYER
  5
50
100
AcDbSymbolTableRecord
100
AcDbLayerTableRecord
  2
0
 70
0
  6
CONTINUOUS
  0
LAYER
  5
51
100
AcDbSymbolTableRecord
100
AcDbLayerTableRecord
  2
top-1
 70
0
  6
CONTINUOUS
  0
ENDTAB
  0
TABLE
  2
STYLE
  5
3
330
0
100
AcDbSymbolTable
 70
     1
  0
STYLE
  5
11
330
3
100
AcDbSymbolTableRecord
100
AcDbTextStyleTableRecord
  2
STANDARD
 70
     0
 40
0.0
 41
1.0
 50
0.0
 71
     0
 42
2.5
  3
txt
  4

  0
ENDTAB
  0
TABLE
  2
VIEW
  5
6
330
0
100
AcDbSymbolTable
 70
     0
  0
ENDTAB
  0
TABLE
  2
UCS
  5
7
330
0
100
AcDbSymbolTable
 70
     0
  0
ENDTAB
  0
TABLE
  2
APPID
  5
9
330
0
100
AcDbSymbolTable
 70
     2
  0
APPID
  5
12
330
9
100
AcDbSymbolTableRecord
100
AcDbRegAppTableRecord
  2
ACAD
 70
     0
  0
ENDTAB
  0
TABLE
  2
DIMSTYLE
  5
A
330
0
100
AcDbSymbolTable
 70
     1
  0
DIMSTYLE
105
27
330
A
100
AcDbSymbolTableRecord
100
AcDbDimStyleTableRecord
  2
ISO-25
 70
     0
  3

  4

  5

  6

  7

 40
1.0
 41
2.5
 42
0.625
 43
3.75
 44
1.25
 45
0.0
 46
0.0
 47
0.0
 48
0.0
140
2.5
141
2.5
142
0.0
143
0.03937007874016
144
1.0
145
0.0
146
1.0
147
0.625
 71
     0
 72
     0
 73
     0
 74
     0
 75
     0
 76
     0
 77
     1
 78
     8
170
     0
171
     3
172
     1
173
     0
174
     0
175
     0
176
     0
177
     0
178
     0
270
     2
271
     2
272
     2
273
     2
274
     3
340
11
275
     0
280
     0
281
     0
282
     0
283
     0
284
     8
285
     0
286
     0
287
     3
288
     0
  0
ENDTAB
  0
TABLE
  2
BLOCK_RECORD
  5
1
330
0
100
AcDbSymbolTable
 70
     1
  0
BLOCK_RECORD
  5
1F
330
1
100
AcDbSymbolTableRecord
100
AcDbBlockTableRecord
  2
*MODEL_SPACE
  0
BLOCK_RECORD
  5
1B
330
1
100
AcDbSymbolTableRecord
100
AcDbBlockTableRecord
  2
*PAPER_SPACE
  0
ENDTAB
  0
ENDSEC
  0
SECTION
  2
BLOCKS
  0
BLOCK
  5
20
330
1F
100
AcDbEntity
  8
0
100
AcDbBlockBegin
  2
*MODEL_SPACE
 70
     0
 10
0.0
 20
0.0
 30
0.0
  3
*MODEL_SPACE
  1

  0
ENDBLK
  5
21
330
1F
100
AcDbEntity
  8
0
100
AcDbBlockEnd
  0
BLOCK
  5
1C
330
1B
100
AcDbEntity
 67
     1
  8
0
100
AcDbBlockBegin
  2
*PAPER_SPACE
  1

  0
ENDBLK
  5
1D
330
1B
100
AcDbEntity
 67
     1
  8
0
100
AcDbBlockEnd
  0
ENDSEC
  0
SECTION
  2
ENTITIES
  0
SPLINE
  5
100
100
AcDbEntity
  8
top-1
 62
7
100
AcDbSpline
 70
8
 71
3
 72
8
 73
4
 74
0
 40
0
 40
0
 40
0
 40
0
 40
1
 40
1
 40
1
 40
1
 10
22.093361
 20
157.166031
 30
0.0
 10
17.521859
 20
157.187797
 30
0.0
 10
12.968120
 20
155.485871
 30
0.0
 10
9.543846
 20
152.454710
 30
0.0
  0
SPLINE
  5
101
100
AcDbEntity
  8
top-1
 62
7
100
AcDbSpline
 70
8
 71
3
 72
8
 73
4
 74
0
 40
0
 40
0
 40
0
 40
0
 40
1
 40
1
 40
1
 40
1
 10
9.543846
 20
152.454710
 30
0.0
 10
5.997579
 20
149.363006
 30
0.0
 10
3.682514
 20
144.906979
 30
0.0
 10
3.202703
 20
140.225751
 30
0.0
  0
SPLINE
  5
102
100
AcDbEntity
  8
top-1
 62
7
100
AcDbSpline
 70
8
 71
3
 72
8
 73
4
 74
0
 40
0
 40
0
 40
0
 40
0
 40
1
 40
1
 40
1
 40
1
 10
3.202703
 20
140.225751
 30
0.0
 10
3.033707
 20
138.677367
 30
0.0
 10
3.111152
 20
137.118239
 30
0.0
 10
3.093361
 20
135.564145
 30
0.0
  0
SPLINE
  5
103
100
AcDbEntity
  8
top-1
 62
7
100
AcDbSpline
 70
8
 71
3
 72
8
 73
4
 74
0
 40
0
 40
0
 40
0
 40
0
 40
1
 40
1
 40
1
 40
1
 10
3.093361
 20
135.564145
 30
0.0
 10
3.094167
 20
114.059982
 30
0.0
 10
3.091751
 20
92.555807
 30
0.0
 10
3.094571
 20
71.051651
 30
0.0
  0
SPLINE
  5
104
100
AcDbEntity
  8
top-1
 62
7
100
AcDbSpline
 70
8
 71
3
 72
8
 73
4
 74
0
 40
0
 40
0
 40
0
 40
0
 40
1
 40
1
 40
1
 40
1
 10
3.094571
 20
71.051651
 30
0.0
 10
3.114508
 20
67.837798
 30
0.0
 10
4.051694
 20
64.623720
 30
0.0
 10
5.854422
 20
61.954191
 30
0.0
  0
SPLINE
  5
105
100
AcDbEntity
  8
top-1
 62
7
100
AcDbSpline
 70
8
 71
3
 72
8
 73
4
 74
0
 40
0
 40
0
 40
0
 40
0
 40
1
 40
1
 40
1
 40
1
 10
5.854422
 20
61.954191
 30
0.0
 10
6.807393
 20
60.545437
 30
0.0
 10
7.943042
 20
59.246890
 30
0.0
 10
9.267461
 20
58.175900
 30
0.0
  0
SPLINE
  5
106
100
AcDbEntity
  8
top-1
 62
7
100
AcDbSpline
 70
8
 71
3
 72
8
 73
4
 74
0
 40
0
 40
0
 40
0
 40
0
 40
1
 40
1
 40
1
 40
1
 10
9.267461
 20
58.175900
 30
0.0
 10
9.940298
 20
57.680340
 30
0.0
 10
10.613667
 20
57.185840
 30
0.0
 10
11.257675
 20
56.652860
 30
0.0
  0
SPLINE
  5
107
100
AcDbEntity
  8
top-1
 62
7
100
AcDbSpline
 70
8
 71
3
 72
8
 73
4
 74
0
 40
0
 40
0
 40
0
 40
0
 40
1
 40
1
 40
1
 40
1
 10
11.257675
 20
56.652860
 30
0.0
 10
12.944216
 20
55.485180
 30
0.0
 10
14.803499
 20
54.579660
 30
0.0
 10
16.713809
 20
53.839870
 30
0.0
  0
SPLINE
  5
108
100
AcDbEntity
  8
top-1
 62
7
100
AcDbSpline
 70
8
 71
3
 72
8
 73
4
 74
0
 40
0
 40
0
 40
0
 40
0
 40
1
 40
1
 40
1
 40
1
 10
16.713809
 20
53.839870
 30
0.0
 10
18.694738
 20
53.072030
 30
0.0
 10
20.757767
 20
52.540720
 30
0.0
 10
22.838871
 20
52.126410
 30
0.0
  0
SPLINE
  5
109
100
AcDbEntity
  8
top-1
 62
7
100
AcDbSpline
 70
8
 71
3
 72
8
 73
4
 74
0
 40
0
 40
0
 40
0
 40
0
 40
1
 40
1
 40
1
 40
1
 10
22.838871
 20
52.126410
 30
0.0
 10
30.946234
 20
50.361610
 30
0.0
 10
39.065000
 20
48.649880
 30
0.0
 10
47.179390
 20
46.917810
 30
0.0
  0
SPLINE
  5
10a
100
AcDbEntity
  8
top-1
 62
7
100
AcDbSpline
 70
8
 71
3
 72
8
 73
4
 74
0
 40
0
 40
0
 40
0
 40
0
 40
1
 40
1
 40
1
 40
1
 10
47.179390
 20
46.917810
 30
0.0
 10
67.705368
 20
42.567600
 30
0.0
 10
88.241183
 20
38.260270
 30
0.0
 10
108.823040
 20
34.181240
 30
0.0
  0
SPLINE
  5
10b
100
AcDbEntity
  8
top-1
 62
7
100
AcDbSpline
 70
8
 71
3
 72
8
 73
4
 74
0
 40
0
 40
0
 40
0
 40
0
 40
1
 40
1
 40
1
 40
1
 10
108.823040
 20
34.181240
 30
0.0
 10
117.105430
 20
32.554570
 30
0.0
 10
125.390360
 20
30.932440
 30
0.0
 10
133.715250
 20
29.535690
 30
0.0
  0
SPLINE
  5
10c
100
AcDbEntity
  8
top-1
 62
7
100
AcDbSpline
 70
8
 71
3
 72
8
 73
4
 74
0
 40
0
 40
0
 40
0
 40
0
 40
1
 40
1
 40
1
 40
1
 10
133.715250
 20
29.535690
 30
0.0
 10
136.240470
 20
29.130590
 30
0.0
 10
138.765930
 20
28.698560
 30
0.0
 10
141.315920
 20
28.481120
 30
0.0
  0
SPLINE
  5
10d
100
AcDbEntity
  8
top-1
 62
7
100
AcDbSpline
 70
8
 71
3
 72
8
 73
4
 74
0
 40
0
 40
0
 40
0
 40
0
 40
1
 40
1
 40
1
 40
1
 10
141.315920
 20
28.481120
 30
0.0
 10
142.677910
 20
28.383920
 30
0.0
 10
144.033550
 20
28.622130
 30
0.0
 10
145.381700
 20
28.783430
 30
0.0
  0
SPLINE
  5
10e
100
AcDbEntity
  8
top-1
 62
7
100
AcDbSpline
 70
8
 71
3
 72
8
 73
4
 74
0
 40
0
 40
0
 40
0
 40
0
 40
1
 40
1
 40
1
 40
1
 10
145.381700
 20
28.783430
 30
0.0
 10
150.443470
 20
29.495230
 30
0.0
 10
155.470660
 20
30.429170
 30
0.0
 10
160.496890
 20
31.353810
 30
0.0
  0
SPLINE
  5
10f
100
AcDbEntity
  8
top-1
 62
7
100
AcDbSpline
 70
8
 71
3
 72
8
 73
4
 74
0
 40
0
 40
0
 40
0
 40
0
 40
1
 40
1
 40
1
 40
1
 10
160.496890
 20
31.353810
 30
0.0
 10
174.541690
 20
33.983830
 30
0.0
 10
188.543140
 20
36.838700
 30
0.0
 10
202.539100
 20
39.715480
 30
0.0
  0
SPLINE
  5
110
100
AcDbEntity
  8
top-1
 62
7
100
AcDbSpline
 70
8
 71
3
 72
8
 73
4
 74
0
 40
0
 40
0
 40
0
 40
0
 40
1
 40
1
 40
1
 40
1
 10
202.539100
 20
39.715480
 30
0.0
 10
220.371770
 20
43.391030
 30
0.0
 10
238.183650
 20
47.166610
 30
0.0
 10
255.989580
 20
50.969300
 30
0.0
  0
SPLINE
  5
111
100
AcDbEntity
  8
top-1
 62
7
100
AcDbSpline
 70
8
 71
3
 72
8
 73
4
 74
0
 40
0
 40
0
 40
0
 40
0
 40
1
 40
1
 40
1
 40
1
 10
255.989580
 20
50.969300
 30
0.0
 10
258.429450
 20
51.500620
 30
0.0
 10
260.872740
 20
52.016250
 30
0.0
 10
263.311230
 20
52.551180
 30
0.0
  0
SPLINE
  5
112
100
AcDbEntity
  8
top-1
 62
7
100
AcDbSpline
 70
8
 71
3
 72
8
 73
4
 74
0
 40
0
 40
0
 40
0
 40
0
 40
1
 40
1
 40
1
 40
1
 10
263.311230
 20
52.551180
 30
0.0
 10
267.492490
 20
53.549460
 30
0.0
 10
271.566360
 20
55.301230
 30
0.0
 10
274.870170
 20
58.093700
 30
0.0
  0
SPLINE
  5
113
100
AcDbEntity
  8
top-1
 62
7
100
AcDbSpline
 70
8
 71
3
 72
8
 73
4
 74
0
 40
0
 40
0
 40
0
 40
0
 40
1
 40
1
 40
1
 40
1
 10
274.870170
 20
58.093700
 30
0.0
 10
277.417810
 20
60.237490
 30
0.0
 10
279.426210
 20
63.071404
 30
0.0
 10
280.377630
 20
66.278615
 30
0.0
  0
SPLINE
  5
114
100
AcDbEntity
  8
top-1
 62
7
100
AcDbSpline
 70
8
 71
3
 72
8
 73
4
 74
0
 40
0
 40
0
 40
0
 40
0
 40
1
 40
1
 40
1
 40
1
 10
280.377630
 20
66.278615
 30
0.0
 10
280.934690
 20
68.094874
 30
0.0
 10
281.131400
 20
70.003307
 30
0.0
 10
281.093360
 20
71.897874
 30
0.0
  0
SPLINE
  5
115
100
AcDbEntity
  8
top-1
 62
7
100
AcDbSpline
 70
8
 71
3
 72
8
 73
4
 74
0
 40
0
 40
0
 40
0
 40
0
 40
1
 40
1
 40
1
 40
1
 10
281.093360
 20
71.897874
 30
0.0
 10
281.092360
 20
94.069370
 30
0.0
 10
281.095360
 20
116.240882
 30
0.0
 10
281.091360
 20
138.412367
 30
0.0
  0
SPLINE
  5
116
100
AcDbEntity
  8
top-1
 62
7
100
AcDbSpline
 70
8
 71
3
 72
8
 73
4
 74
0
 40
0
 40
0
 40
0
 40
0
 40
1
 40
1
 40
1
 40
1
 10
281.091360
 20
138.412367
 30
0.0
 10
281.055360
 20
143.008630
 30
0.0
 10
279.273460
 20
147.563446
 30
0.0
 10
276.168650
 20
150.954345
 30
0.0
  0
SPLINE
  5
117
100
AcDbEntity
  8
top-1
 62
7
100
AcDbSpline
 70
8
 71
3
 72
8
 73
4
 74
0
 40
0
 40
0
 40
0
 40
0
 40
1
 40
1
 40
1
 40
1
 10
276.168650
 20
150.954345
 30
0.0
 10
273.010330
 20
154.457105
 30
0.0
 10
268.501110
 20
156.697490
 30
0.0
 10
263.800450
 20
157.091056
 30
0.0
  0
SPLINE
  5
118
100
AcDbEntity
  8
top-1
 62
7
100
AcDbSpline
 70
8
 71
3
 72
8
 73
4
 74
0
 40
0
 40
0
 40
0
 40
0
 40
1
 40
1
 40
1
 40
1
 10
263.800450
 20
157.091056
 30
0.0
 10
262.310250
 20
157.211436
 30
0.0
 10
260.814190
 20
157.151413
 30
0.0
 10
259.320810
 20
157.166031
 30
0.0
  0
SPLINE
  5
119
100
AcDbEntity
  8
top-1
 62
7
100
AcDbSpline
 70
8
 71
3
 72
8
 73
4
 74
0
 40
0
 40
0
 40
0
 40
0
 40
1
 40
1
 40
1
 40
1
 10
259.320810
 20
157.166031
 30
0.0
 10
180.244840
 20
157.166031
 30
0.0
 10
101.168880
 20
157.166031
 30
0.0
 10
22.092911
 20
157.166031
 30
0.0
  0
LWPOLYLINE
  5
11a
100
AcDbEntity
  8
top-1
 62
7
100
AcDbPolyline
 90
2
 70
0
 10
22.092911
 20
157.166031
 30
0.0
 10
22.093361
 20
157.166031
 30
0.0
  0
LWPOLYLINE
  5
11b
100
AcDbEntity
  8
top-1
 62
7
100
AcDbPolyline
 90
23
 70
1
 10
17.537109
 20
143.385000
 30
0.0
 10
13.429688
 20
122.736562
 30
0.0
 10
18.101562
 20
121.806875
 30
0.0
 10
14.384766
 20
103.123281
 30
0.0
 10
19.056641
 20
102.193594
 30
0.0
 10
15.339844
 20
83.510000
 30
0.0
 10
24.681641
 20
81.652578
 30
0.0
 10
20.964844
 20
62.968984
 30
0.0
 10
41.611328
 20
58.861560
 30
0.0
 10
45.328125
 20
77.545156
 30
0.0
 10
77.044922
 20
71.236562
 30
0.0
 10
90.076172
 20
68.644766
 30
0.0
 10
86.357422
 20
49.961170
 30
0.0
 10
116.562500
 20
43.951410
 30
0.0
 10
116.562500
 20
43.953410
 30
0.0
 10
135.031250
 20
40.279580
 30
0.0
 10
139.138670
 20
60.926066
 30
0.0
 10
134.468750
 20
61.855753
 30
0.0
 10
138.183590
 20
80.539347
 30
0.0
 10
128.841800
 20
82.396769
 30
0.0
 10
132.558590
 20
101.080362
 30
0.0
 10
127.886720
 20
102.010050
 30
0.0
 10
131.603520
 20
120.693644
 30
0.0
  0
SPLINE
  5
11c
100
AcDbEntity
  8
top-1
 62
7
100
AcDbSpline
 70
8
 71
3
 72
8
 73
4
 74
0
 40
0
 40
0
 40
0
 40
0
 40
1
 40
1
 40
1
 40
1
 10
470.920517
 20
136.013167
 30
0.0
 10
468.245333
 20
136.013167
 30
0.0
 10
465.833566
 20
134.401675
 30
0.0
 10
464.809817
 20
131.930128
 30
0.0
  0
SPLINE
  5
11d
100
AcDbEntity
  8
top-1
 62
7
100
AcDbSpline
 70
8
 71
3
 72
8
 73
4
 74
0
 40
0
 40
0
 40
0
 40
0
 40
1
 40
1
 40
1
 40
1
 10
464.809817
 20
131.930128
 30
0.0
 10
463.786069
 20
129.458581
 30
0.0
 10
464.351950
 20
126.613707
 30
0.0
 10
466.243590
 20
124.722067
 30
0.0
  0
SPLINE
  5
11e
100
AcDbEntity
  8
top-1
 62
7
100
AcDbSpline
 70
8
 71
3
 72
8
 73
4
 74
0
 40
0
 40
0
 40
0
 40
0
 40
1
 40
1
 40
1
 40
1
 10
466.243590
 20
124.722067
 30
0.0
 10
468.135230
 20
122.830426
 30
0.0
 10
470.980104
 20
122.264546
 30
0.0
 10
473.451651
 20
123.288294
 30
0.0
  0
SPLINE
  5
11f
100
AcDbEntity
  8
top-1
 62
7
100
AcDbSpline
 70
8
 71
3
 72
8
 73
4
 74
0
 40
0
 40
0
 40
0
 40
0
 40
1
 40
1
 40
1
 40
1
 10
473.451651
 20
123.288294
 30
0.0
 10
475.923198
 20
124.312042
 30
0.0
 10
477.534690
 20
126.723810
 30
0.0
 10
477.534690
 20
129.398993
 30
0.0
  0
SPLINE
  5
120
100
AcDbEntity
  8
top-1
 62
7
100
AcDbSpline
 70
8
 71
3
 72
8
 73
4
 74
0
 40
0
 40
0
 40
0
 40
0
 40
1
 40
1
 40
1
 40
1
 10
477.534690
 20
129.398993
 30
0.0
 10
477.534690
 20
131.153181
 30
0.0
 10
476.837841
 20
132.835522
 30
0.0
 10
475.597443
 20
134.075920
 30
0.0
  0
SPLINE
  5
121
100
AcDbEntity
  8
top-1
 62
7
100
AcDbSpline
 70
8
 71
3
 72
8
 73
4
 74
0
 40
0
 40
0
 40
0
 40
0
 40
1
 40
1
 40
1
 40
1
 10
475.597443
 20
134.075920
 30
0.0
 10
474.357045
 20
135.316318
 30
0.0
 10
472.674704
 20
136.013167
 30
0.0
 10
470.920517
 20
136.013167
 30
0.0
  0
LWPOLYLINE
  5
122
100
AcDbEntity
  8
top-1
 62
7
100
AcDbPolyline
 90
23
 70
1
 10
266.726560
 20
143.441641
 30
0.0
 10
181.667970
 20
126.521719
 30
0.0
 10
143.318360
 20
118.892812
 30
0.0
 10
147.425780
 20
98.246328
 30
0.0
 10
152.097660
 20
99.174062
 30
0.0
 10
155.423830
 20
82.453359
 30
0.0
 10
146.080080
 20
80.595938
 30
0.0
 10
149.796880
 20
61.912344
 30
0.0
 10
145.126950
 20
60.982656
 30
0.0
 10
149.234380
 20
40.336170
 30
0.0
 10
197.906250
 20
50.017810
 30
0.0
 10
194.189450
 20
68.703359
 30
0.0
 10
224.708980
 20
74.773672
 30
0.0
 10
224.708980
 20
74.771672
 30
0.0
 10
238.937500
 20
77.603703
 30
0.0
 10
242.654300
 20
58.918150
 30
0.0
 10
263.298830
 20
63.025578
 30
0.0
 10
259.583980
 20
81.709172
 30
0.0
 10
264.253910
 20
82.638859
 30
0.0
 10
260.537110
 20
101.322453
 30
0.0
 10
269.878910
 20
103.181828
 30
0.0
 10
266.164060
 20
121.865422
 30
0.0
 10
270.833980
 20
122.795109
 30
0.0
  0
SPLINE
  5
123
100
AcDbEntity
  8
top-1
 62
7
100
AcDbSpline
 70
8
 71
3
 72
8
 73
4
 74
0
 40
0
 40
0
 40
0
 40
0
 40
1
 40
1
 40
1
 40
1
 10
29.757270
 20
-22.428593
 30
0.0
 10
27.082087
 20
-22.428593
 30
0.0
 10
24.670319
 20
-24.040085
 30
0.0
 10
23.646571
 20
-26.511632
 30
0.0
  0
SPLINE
  5
124
100
AcDbEntity
  8
top-1
 62
7
100
AcDbSpline
 70
8
 71
3
 72
8
 73
4
 74
0
 40
0
 40
0
 40
0
 40
0
 40
1
 40
1
 40
1
 40
1
 10
23.646571
 20
-26.511632
 30
0.0
 10
22.622822
 20
-28.983179
 30
0.0
 10
23.188703
 20
-31.828053
 30
0.0
 10
25.080343
 20
-33.719693
 30
0.0
  0
SPLINE
  5
125
100
AcDbEntity
  8
top-1
 62
7
100
AcDbSpline
 70
8
 71
3
 72
8
 73
4
 74
0
 40
0
 40
0
 40
0
 40
0
 40
1
 40
1
 40
1
 40
1
 10
25.080343
 20
-33.719693
 30
0.0
 10
26.971984
 20
-35.611334
 30
0.0
 10
29.816857
 20
-36.177214
 30
0.0
 10
32.288405
 20
-35.153466
 30
0.0
  0
SPLINE
  5
126
100
AcDbEntity
  8
top-1
 62
7
100
AcDbSpline
 70
8
 71
3
 72
8
 73
4
 74
0
 40
0
 40
0
 40
0
 40
0
 40
1
 40
1
 40
1
 40
1
 10
32.288405
 20
-35.153466
 30
0.0
 10
34.759952
 20
-34.129718
 30
0.0
 10
36.371443
 20
-31.717950
 30
0.0
 10
36.371443
 20
-29.042767
 30
0.0
  0
SPLINE
  5
127
100
AcDbEntity
  8
top-1
 62
7
100
AcDbSpline
 70
8
 71
3
 72
8
 73
4
 74
0
 40
0
 40
0
 40
0
 40
0
 40
1
 40
1
 40
1
 40
1
 10
36.371443
 20
-29.042767
 30
0.0
 10
36.371443
 20
-27.288579
 30
0.0
 10
35.674595
 20
-25.606238
 30
0.0
 10
34.434197
 20
-24.365840
 30
0.0
  0
SPLINE
  5
128
100
AcDbEntity
  8
top-1
 62
7
100
AcDbSpline
 70
8
 71
3
 72
8
 73
4
 74
0
 40
0
 40
0
 40
0
 40
0
 40
1
 40
1
 40
1
 40
1
 10
34.434197
 20
-24.365840
 30
0.0
 10
33.193799
 20
-23.125442
 30
0.0
 10
31.511458
 20
-22.428593
 30
0.0
 10
29.757270
 20
-22.428593
 30
0.0
  0
LWPOLYLINE
  5
129
100
AcDbEntity
  8
top-1
 62
7
100
AcDbPolyline
 90
1
 70
1
 10
470.920517
 20
136.013167
 30
0.0
  0
SPLINE
  5
12a
100
AcDbEntity
  8
top-1
 62
7
100
AcDbSpline
 70
8
 71
3
 72
8
 73
4
 74
0
 40
0
 40
0
 40
0
 40
0
 40
1
 40
1
 40
1
 40
1
 10
1044.339931
 20
-22.428593
 30
0.0
 10
1041.664747
 20
-22.428593
 30
0.0
 10
1039.252980
 20
-24.040085
 30
0.0
 10
1038.229231
 20
-26.511632
 30
0.0
  0
SPLINE
  5
12b
100
AcDbEntity
  8
top-1
 62
7
100
AcDbSpline
 70
8
 71
3
 72
8
 73
4
 74
0
 40
0
 40
0
 40
0
 40
0
 40
1
 40
1
 40
1
 40
1
 10
1038.229231
 20
-26.511632
 30
0.0
 10
1037.205483
 20
-28.983179
 30
0.0
 10
1037.771364
 20
-31.828053
 30
0.0
 10
1039.663004
 20
-33.719693
 30
0.0
  0
SPLINE
  5
12c
100
AcDbEntity
  8
top-1
 62
7
100
AcDbSpline
 70
8
 71
3
 72
8
 73
4
 74
0
 40
0
 40
0
 40
0
 40
0
 40
1
 40
1
 40
1
 40
1
 10
1039.663004
 20
-33.719693
 30
0.0
 10
1041.554644
 20
-35.611334
 30
0.0
 10
1044.399518
 20
-36.177214
 30
0.0
 10
1046.871065
 20
-35.153466
 30
0.0
  0
SPLINE
  5
12d
100
AcDbEntity
  8
top-1
 62
7
100
AcDbSpline
 70
8
 71
3
 72
8
 73
4
 74
0
 40
0
 40
0
 40
0
 40
0
 40
1
 40
1
 40
1
 40
1
 10
1046.871065
 20
-35.153466
 30
0.0
 10
1049.342612
 20
-34.129718
 30
0.0
 10
1050.954104
 20
-31.717950
 30
0.0
 10
1050.954104
 20
-29.042767
 30
0.0
  0
SPLINE
  5
12e
100
AcDbEntity
  8
top-1
 62
7
100
AcDbSpline
 70
8
 71
3
 72
8
 73
4
 74
0
 40
0
 40
0
 40
0
 40
0
 40
1
 40
1
 40
1
 40
1
 10
1050.954104
 20
-29.042767
 30
0.0
 10
1050.954104
 20
-27.288579
 30
0.0
 10
1050.257256
 20
-25.606238
 30
0.0
 10
1049.016857
 20
-24.365840
 30
0.0
  0
SPLINE
  5
12f
100
AcDbEntity
  8
top-1
 62
7
100
AcDbSpline
 70
8
 71
3
 72
8
 73
4
 74
0
 40
0
 40
0
 40
0
 40
0
 40
1
 40
1
 40
1
 40
1
 10
1049.016857
 20
-24.365840
 30
0.0
 10
1047.776459
 20
-23.125442
 30
0.0
 10
1046.094119
 20
-22.428593
 30
0.0
 10
1044.339931
 20
-22.428593
 30
0.0
  0
LWPOLYLINE
  5
130
100
AcDbEntity
  8
top-1
 62
7
100
AcDbPolyline
 90
1
 70
1
 10
29.757270
 20
-22.428593
 30
0.0
  0
SPLINE
  5
131
100
AcDbEntity
  8
top-1
 62
7
100
AcDbSpline
 70
8
 71
3
 72
8
 73
4
 74
0
 40
0
 40
0
 40
0
 40
0
 40
1
 40
1
 40
1
 40
1
 10
48.400838
 20
118.501353
 30
0.0
 10
45.725654
 20
118.501353
 30
0.0
 10
43.313887
 20
116.889861
 30
0.0
 10
42.290139
 20
114.418314
 30
0.0
  0
SPLINE
  5
132
100
AcDbEntity
  8
top-1
 62
7
100
AcDbSpline
 70
8
 71
3
 72
8
 73
4
 74
0
 40
0
 40
0
 40
0
 40
0
 40
1
 40
1
 40
1
 40
1
 10
42.290139
 20
114.418314
 30
0.0
 10
41.266390
 20
111.946767
 30
0.0
 10
41.832271
 20
109.101893
 30
0.0
 10
43.723911
 20
107.210253
 30
0.0
  0
SPLINE
  5
133
100
AcDbEntity
  8
top-1
 62
7
100
AcDbSpline
 70
8
 71
3
 72
8
 73
4
 74
0
 40
0
 40
0
 40
0
 40
0
 40
1
 40
1
 40
1
 40
1
 10
43.723911
 20
107.210253
 30
0.0
 10
45.615551
 20
105.318613
 30
0.0
 10
48.460425
 20
104.752732
 30
0.0
 10
50.931972
 20
105.776481
 30
0.0
  0
SPLINE
  5
134
100
AcDbEntity
  8
top-1
 62
7
100
AcDbSpline
 70
8
 71
3
 72
8
 73
4
 74
0
 40
0
 40
0
 40
0
 40
0
 40
1
 40
1
 40
1
 40
1
 10
50.931972
 20
105.776481
 30
0.0
 10
53.403519
 20
106.800229
 30
0.0
 10
55.015011
 20
109.211996
 30
0.0
 10
55.015011
 20
111.887180
 30
0.0
  0
SPLINE
  5
135
100
AcDbEntity
  8
top-1
 62
7
100
AcDbSpline
 70
8
 71
3
 72
8
 73
4
 74
0
 40
0
 40
0
 40
0
 40
0
 40
1
 40
1
 40
1
 40
1
 10
55.015011
 20
111.887180
 30
0.0
 10
55.015011
 20
113.641368
 30
0.0
 10
54.318163
 20
115.323708
 30
0.0
 10
53.077765
 20
116.564107
 30
0.0
  0
SPLINE
  5
136
100
AcDbEntity
  8
top-1
 62
7
100
AcDbSpline
 70
8
 71
3
 72
8
 73
4
 74
0
 40
0
 40
0
 40
0
 40
0
 40
1
 40
1
 40
1
 40
1
 10
53.077765
 20
116.564107
 30
0.0
 10
51.837366
 20
117.804505
 30
0.0
 10
50.155026
 20
118.501353
 30
0.0
 10
48.400838
 20
118.501353
 30
0.0
  0
LWPOLYLINE
  5
137
100
AcDbEntity
  8
top-1
 62
7
100
AcDbPolyline
 90
1
 70
1
 10
1044.339931
 20
-22.428593
 30
0.0
  0
SPLINE
  5
138
100
AcDbEntity
  8
top-1
 62
7
100
AcDbSpline
 70
8
 71
3
 72
8
 73
4
 74
0
 40
0
 40
0
 40
0
 40
0
 40
1
 40
1
 40
1
 40
1
 10
1025.849688
 20
118.500484
 30
0.0
 10
1023.174505
 20
118.500484
 30
0.0
 10
1020.762737
 20
116.888992
 30
0.0
 10
1019.738989
 20
114.417445
 30
0.0
  0
SPLINE
  5
139
100
AcDbEntity
  8
top-1
 62
7
100
AcDbSpline
 70
8
 71
3
 72
8
 73
4
 74
0
 40
0
 40
0
 40
0
 40
0
 40
1
 40
1
 40
1
 40
1
 10
1019.738989
 20
114.417445
 30
0.0
 10
1018.715241
 20
111.945898
 30
0.0
 10
1019.281121
 20
109.101024
 30
0.0
 10
1021.172761
 20
107.209384
 30
0.0
  0
SPLINE
  5
13a
100
AcDbEntity
  8
top-1
 62
7
100
AcDbSpline
 70
8
 71
3
 72
8
 73
4
 74
0
 40
0
 40
0
 40
0
 40
0
 40
1
 40
1
 40
1
 40
1
 10
1021.172761
 20
107.209384
 30
0.0
 10
1023.064402
 20
105.317744
 30
0.0
 10
1025.909276
 20
104.751863
 30
0.0
 10
1028.380823
 20
105.775611
 30
0.0
  0
SPLINE
  5
13b
100
AcDbEntity
  8
top-1
 62
7
100
AcDbSpline
 70
8
 71
3
 72
8
 73
4
 74
0
 40
0
 40
0
 40
0
 40
0
 40
1
 40
1
 40
1
 40
1
 10
1028.380823
 20
105.775611
 30
0.0
 10
1030.852370
 20
106.799360
 30
0.0
 10
1032.463861
 20
109.211127
 30
0.0
 10
1032.463861
 20
111.886311
 30
0.0
  0
SPLINE
  5
13c
100
AcDbEntity
  8
top-1
 62
7
100
AcDbSpline
 70
8
 71
3
 72
8
 73
4
 74
0
 40
0
 40
0
 40
0
 40
0
 40
1
 40
1
 40
1
 40
1
 10
1032.463861
 20
111.886311
 30
0.0
 10
1032.463861
 20
113.640498
 30
0.0
 10
1031.767013
 20
115.322839
 30
0.0
 10
1030.526615
 20
116.563237
 30
0.0
  0
SPLINE
  5
13d
100
AcDbEntity
  8
top-1
 62
7
100
AcDbSpline
 70
8
 71
3
 72
8
 73
4
 74
0
 40
0
 40
0
 40
0
 40
0
 40
1
 40
1
 40
1
 40
1
 10
1030.526615
 20
116.563237
 30
0.0
 10
1029.286217
 20
117.803635
 30
0.0
 10
1027.603876
 20
118.500484
 30
0.0
 10
1025.849688
 20
118.500484
 30
0.0
  0
LWPOLYLINE
  5
13e
100
AcDbEntity
  8
top-1
 62
7
100
AcDbPolyline
 90
1
 70
1
 10
48.400838
 20
118.501353
 30
0.0
  0
SPLINE
  5
13f
100
AcDbEntity
  8
top-1
 62
7
100
AcDbSpline
 70
8
 71
3
 72
8
 73
4
 74
0
 40
0
 40
0
 40
0
 40
0
 40
1
 40
1
 40
1
 40
1
 10
48.401673
 20
-200.110768
 30
0.0
 10
45.726490
 20
-200.110768
 30
0.0
 10
43.314722
 20
-201.722259
 30
0.0
 10
42.290974
 20
-204.193807
 30
0.0
  0
SPLINE
  5
140
100
AcDbEntity
  8
top-1
 62
7
100
AcDbSpline
 70
8
 71
3
 72
8
 73
4
 74
0
 40
0
 40
0
 40
0
 40
0
 40
1
 40
1
 40
1
 40
1
 10
42.290974
 20
-204.193807
 30
0.0
 10
41.267225
 20
-206.665354
 30
0.0
 10
41.833106
 20
-209.510228
 30
0.0
 10
43.724746
 20
-211.401868
 30
0.0
  0
SPLINE
  5
141
100
AcDbEntity
  8
top-1
 62
7
100
AcDbSpline
 70
8
 71
3
 72
8
 73
4
 74
0
 40
0
 40
0
 40
0
 40
0
 40
1
 40
1
 40
1
 40
1
 10
43.724746
 20
-211.401868
 30
0.0
 10
45.616387
 20
-213.293508
 30
0.0
 10
48.461260
 20
-213.859389
 30
0.0
 10
50.932808
 20
-212.835640
 30
0.0
  0
SPLINE
  5
142
100
AcDbEntity
  8
top-1
 62
7
100
AcDbSpline
 70
8
 71
3
 72
8
 73
4
 74
0
 40
0
 40
0
 40
0
 40
0
 40
1
 40
1
 40
1
 40
1
 10
50.932808
 20
-212.835640
 30
0.0
 10
53.404355
 20
-211.811892
 30
0.0
 10
55.015846
 20
-209.400124
 30
0.0
 10
55.015846
 20
-206.724941
 30
0.0
  0
SPLINE
  5
143
100
AcDbEntity
  8
top-1
 62
7
100
AcDbSpline
 70
8
 71
3
 72
8
 73
4
 74
0
 40
0
 40
0
 40
0
 40
0
 40
1
 40
1
 40
1
 40
1
 10
55.015846
 20
-206.724941
 30
0.0
 10
55.015846
 20
-204.970753
 30
0.0
 10
54.318998
 20
-203.288412
 30
0.0
 10
53.078600
 20
-202.048014
 30
0.0
  0
SPLINE
  5
144
100
AcDbEntity
  8
top-1
 62
7
100
AcDbSpline
 70
8
 71
3
 72
8
 73
4
 74
0
 40
0
 40
0
 40
0
 40
0
 40
1
 40
1
 40
1
 40
1
 10
53.078600
 20
-202.048014
 30
0.0
 10
51.838202
 20
-200.807616
 30
0.0
 10
50.155861
 20
-200.110768
 30
0.0
 10
48.401673
 20
-200.110768
 30
0.0
  0
LWPOLYLINE
  5
145
100
AcDbEntity
  8
top-1
 62
7
100
AcDbPolyline
 90
1
 70
1
 10
1025.849688
 20
118.500484
 30
0.0
  0
SPLINE
  5
146
100
AcDbEntity
  8
top-1
 62
7
100
AcDbSpline
 70
8
 71
3
 72
8
 73
4
 74
0
 40
0
 40
0
 40
0
 40
0
 40
1
 40
1
 40
1
 40
1
 10
1025.850482
 20
-200.111342
 30
0.0
 10
1023.175299
 20
-200.111342
 30
0.0
 10
1020.763531
 20
-201.722834
 30
0.0
 10
1019.739783
 20
-204.194381
 30
0.0
  0
SPLINE
  5
147
100
AcDbEntity
  8
top-1
 62
7
100
AcDbSpline
 70
8
 71
3
 72
8
 73
4
 74
0
 40
0
 40
0
 40
0
 40
0
 40
1
 40
1
 40
1
 40
1
 10
1019.739783
 20
-204.194381
 30
0.0
 10
1018.716034
 20
-206.665928
 30
0.0
 10
1019.281915
 20
-209.510802
 30
0.0
 10
1021.173555
 20
-211.402442
 30
0.0
  0
SPLINE
  5
148
100
AcDbEntity
  8
top-1
 62
7
100
AcDbSpline
 70
8
 71
3
 72
8
 73
4
 74
0
 40
0
 40
0
 40
0
 40
0
 40
1
 40
1
 40
1
 40
1
 10
1021.173555
 20
-211.402442
 30
0.0
 10
1023.065195
 20
-213.294083
 30
0.0
 10
1025.910069
 20
-213.859963
 30
0.0
 10
1028.381616
 20
-212.836215
 30
0.0
  0
SPLINE
  5
149
100
AcDbEntity
  8
top-1
 62
7
100
AcDbSpline
 70
8
 71
3
 72
8
 73
4
 74
0
 40
0
 40
0
 40
0
 40
0
 40
1
 40
1
 40
1
 40
1
 10
1028.381616
 20
-212.836215
 30
0.0
 10
1030.853164
 20
-211.812467
 30
0.0
 10
1032.464655
 20
-209.400699
 30
0.0
 10
1032.464655
 20
-206.725516
 30
0.0
  0
SPLINE
  5
14a
100
AcDbEntity
  8
top-1
 62
7
100
AcDbSpline
 70
8
 71
3
 72
8
 73
4
 74
0
 40
0
 40
0
 40
0
 40
0
 40
1
 40
1
 40
1
 40
1
 10
1032.464655
 20
-206.725516
 30
0.0
 10
1032.464655
 20
-204.971328
 30
0.0
 10
1031.767807
 20
-203.288987
 30
0.0
 10
1030.527409
 20
-202.048589
 30
0.0
  0
SPLINE
  5
14b
100
AcDbEntity
  8
top-1
 62
7
100
AcDbSpline
 70
8
 71
3
 72
8
 73
4
 74
0
 40
0
 40
0
 40
0
 40
0
 40
1
 40
1
 40
1
 40
1
 10
1030.527409
 20
-202.048589
 30
0.0
 10
1029.287011
 20
-200.808191
 30
0.0
 10
1027.604670
 20
-200.111342
 30
0.0
 10
1025.850482
 20
-200.111342
 30
0.0
  0
LWPOLYLINE
  5
14c
100
AcDbEntity
  8
top-1
 62
7
100
AcDbPolyline
 90
1
 70
1
 10
48.401673
 20
-200.110768
 30
0.0
  0
SPLINE
  5
14d
100
AcDbEntity
  8
top-1
 62
7
100
AcDbSpline
 70
8
 71
3
 72
8
 73
4
 74
0
 40
0
 40
0
 40
0
 40
0
 40
1
 40
1
 40
1
 40
1
 10
604.102375
 20
136.013167
 30
0.0
 10
601.427191
 20
136.013167
 30
0.0
 10
599.015424
 20
134.401675
 30
0.0
 10
597.991676
 20
131.930128
 30
0.0
  0
SPLINE
  5
14e
100
AcDbEntity
  8
top-1
 62
7
100
AcDbSpline
 70
8
 71
3
 72
8
 73
4
 74
0
 40
0
 40
0
 40
0
 40
0
 40
1
 40
1
 40
1
 40
1
 10
597.991676
 20
131.930128
 30
0.0
 10
596.967927
 20
129.458581
 30
0.0
 10
597.533808
 20
126.613707
 30
0.0
 10
599.425448
 20
124.722067
 30
0.0
  0
SPLINE
  5
14f
100
AcDbEntity
  8
top-1
 62
7
100
AcDbSpline
 70
8
 71
3
 72
8
 73
4
 74
0
 40
0
 40
0
 40
0
 40
0
 40
1
 40
1
 40
1
 40
1
 10
599.425448
 20
124.722067
 30
0.0
 10
601.317088
 20
122.830426
 30
0.0
 10
604.161962
 20
122.264546
 30
0.0
 10
606.633509
 20
123.288294
 30
0.0
  0
SPLINE
  5
150
100
AcDbEntity
  8
top-1
 62
7
100
AcDbSpline
 70
8
 71
3
 72
8
 73
4
 74
0
 40
0
 40
0
 40
0
 40
0
 40
1
 40
1
 40
1
 40
1
 10
606.633509
 20
123.288294
 30
0.0
 10
609.105056
 20
124.312042
 30
0.0
 10
610.716548
 20
126.723810
 30
0.0
 10
610.716548
 20
129.398993
 30
0.0
  0
SPLINE
  5
151
100
AcDbEntity
  8
top-1
 62
7
100
AcDbSpline
 70
8
 71
3
 72
8
 73
4
 74
0
 40
0
 40
0
 40
0
 40
0
 40
1
 40
1
 40
1
 40
1
 10
610.716548
 20
129.398993
 30
0.0
 10
610.716548
 20
131.153181
 30
0.0
 10
610.019700
 20
132.835522
 30
0.0
 10
608.779302
 20
134.075920
 30
0.0
  0
SPLINE
  5
152
100
AcDbEntity
  8
top-1
 62
7
100
AcDbSpline
 70
8
 71
3
 72
8
 73
4
 74
0
 40
0
 40
0
 40
0
 40
0
 40
1
 40
1
 40
1
 40
1
 10
608.779302
 20
134.075920
 30
0.0
 10
607.538903
 20
135.316318
 30
0.0
 10
605.856563
 20
136.013167
 30
0.0
 10
604.102375
 20
136.013167
 30
0.0
  0
LWPOLYLINE
  5
153
100
AcDbEntity
  8
top-1
 62
7
100
AcDbPolyline
 90
1
 70
1
 10
1025.850482
 20
-200.111342
 30
0.0
  0
SPLINE
  5
154
100
AcDbEntity
  8
top-1
 62
7
100
AcDbSpline
 70
8
 71
3
 72
8
 73
4
 74
0
 40
0
 40
0
 40
0
 40
0
 40
1
 40
1
 40
1
 40
1
 10
395.331439
 20
-281.551087
 30
0.0
 10
392.656256
 20
-281.551087
 30
0.0
 10
390.244488
 20
-283.162578
 30
0.0
 10
389.220740
 20
-285.634125
 30
0.0
  0
SPLINE
  5
155
100
AcDbEntity
  8
top-1
 62
7
100
AcDbSpline
 70
8
 71
3
 72
8
 73
4
 74
0
 40
0
 40
0
 40
0
 40
0
 40
1
 40
1
 40
1
 40
1
 10
389.220740
 20
-285.634125
 30
0.0
 10
388.196992
 20
-288.105672
 30
0.0
 10
388.762872
 20
-290.950546
 30
0.0
 10
390.654513
 20
-292.842187
 30
0.0
  0
SPLINE
  5
156
100
AcDbEntity
  8
top-1
 62
7
100
AcDbSpline
 70
8
 71
3
 72
8
 73
4
 74
0
 40
0
 40
0
 40
0
 40
0
 40
1
 40
1
 40
1
 40
1
 10
390.654513
 20
-292.842187
 30
0.0
 10
392.546153
 20
-294.733827
 30
0.0
 10
395.391027
 20
-295.299707
 30
0.0
 10
397.862574
 20
-294.275959
 30
0.0
  0
SPLINE
  5
157
100
AcDbEntity
  8
top-1
 62
7
100
AcDbSpline
 70
8
 71
3
 72
8
 73
4
 74
0
 40
0
 40
0
 40
0
 40
0
 40
1
 40
1
 40
1
 40
1
 10
397.862574
 20
-294.275959
 30
0.0
 10
400.334121
 20
-293.252211
 30
0.0
 10
401.945613
 20
-290.840443
 30
0.0
 10
401.945613
 20
-288.165260
 30
0.0
  0
SPLINE
  5
158
100
AcDbEntity
  8
top-1
 62
7
100
AcDbSpline
 70
8
 71
3
 72
8
 73
4
 74
0
 40
0
 40
0
 40
0
 40
0
 40
1
 40
1
 40
1
 40
1
 10
401.945613
 20
-288.165260
 30
0.0
 10
401.945613
 20
-286.411072
 30
0.0
 10
401.248764
 20
-284.728731
 30
0.0
 10
400.008366
 20
-283.488333
 30
0.0
  0
SPLINE
  5
159
100
AcDbEntity
  8
top-1
 62
7
100
AcDbSpline
 70
8
 71
3
 72
8
 73
4
 74
0
 40
0
 40
0
 40
0
 40
0
 40
1
 40
1
 40
1
 40
1
 10
400.008366
 20
-283.488333
 30
0.0
 10
398.767968
 20
-282.247935
 30
0.0
 10
397.085627
 20
-281.551087
 30
0.0
 10
395.331439
 20
-281.551087
 30
0.0
  0
LWPOLYLINE
  5
15a
100
AcDbEntity
  8
top-1
 62
7
100
AcDbPolyline
 90
1
 70
1
 10
604.102375
 20
136.013167
 30
0.0
  0
SPLINE
  5
15b
100
AcDbEntity
  8
top-1
 62
7
100
AcDbSpline
 70
8
 71
3
 72
8
 73
4
 74
0
 40
0
 40
0
 40
0
 40
0
 40
1
 40
1
 40
1
 40
1
 10
679.695572
 20
-281.551087
 30
0.0
 10
677.020388
 20
-281.551087
 30
0.0
 10
674.608621
 20
-283.162578
 30
0.0
 10
673.584872
 20
-285.634125
 30
0.0
  0
SPLINE
  5
15c
100
AcDbEntity
  8
top-1
 62
7
100
AcDbSpline
 70
8
 71
3
 72
8
 73
4
 74
0
 40
0
 40
0
 40
0
 40
0
 40
1
 40
1
 40
1
 40
1
 10
673.584872
 20
-285.634125
 30
0.0
 10
672.561124
 20
-288.105672
 30
0.0
 10
673.127005
 20
-290.950546
 30
0.0
 10
675.018645
 20
-292.842187
 30
0.0
  0
SPLINE
  5
15d
100
AcDbEntity
  8
top-1
 62
7
100
AcDbSpline
 70
8
 71
3
 72
8
 73
4
 74
0
 40
0
 40
0
 40
0
 40
0
 40
1
 40
1
 40
1
 40
1
 10
675.018645
 20
-292.842187
 30
0.0
 10
676.910285
 20
-294.733827
 30
0.0
 10
679.755159
 20
-295.299707
 30
0.0
 10
682.226706
 20
-294.275959
 30
0.0
  0
SPLINE
  5
15e
100
AcDbEntity
  8
top-1
 62
7
100
AcDbSpline
 70
8
 71
3
 72
8
 73
4
 74
0
 40
0
 40
0
 40
0
 40
0
 40
1
 40
1
 40
1
 40
1
 10
682.226706
 20
-294.275959
 30
0.0
 10
684.698253
 20
-293.252211
 30
0.0
 10
686.309745
 20
-290.840443
 30
0.0
 10
686.309745
 20
-288.165260
 30
0.0
  0
SPLINE
  5
15f
100
AcDbEntity
  8
top-1
 62
7
100
AcDbSpline
 70
8
 71
3
 72
8
 73
4
 74
0
 40
0
 40
0
 40
0
 40
0
 40
1
 40
1
 40
1
 40
1
 10
686.309745
 20
-288.165260
 30
0.0
 10
686.309745
 20
-284.512353
 30
0.0
 10
683.348479
 20
-281.551087
 30
0.0
 10
679.695572
 20
-281.551087
 30
0.0
  0
LWPOLYLINE
  5
160
100
AcDbEntity
  8
top-1
 62
7
100
AcDbPolyline
 90
1
 70
1
 10
395.331439
 20
-281.551087
 30
0.0
  0
LWPOLYLINE
  5
161
100
AcDbEntity
  8
top-1
 62
7
100
AcDbPolyline
 90
1
 70
1
 10
679.695572
 20
-281.551087
 30
0.0
  0
ENDSEC
  0
SECTION
  2
OBJECTS
  0
DICTIONARY
  5
C
330
0
100
AcDbDictionary
  3
ACAD_GROUP
350
D
  3
ACAD_MLINESTYLE
350
17
  0
DICTIONARY
  5
D
330
C
100
AcDbDictionary
  0
DICTIONARY
  5
1A
330
C
100
AcDbDictionary
  0
DICTIONARY
  5
17
330
C
100
AcDbDictionary
  3
STANDARD
350
18
  0
DICTIONARY
  5
19
330
C
100
AcDbDictionary
  0
ENDSEC
  0
EOF
