  0
SECTION
  2
HEADER
  9
$ACADVER
  1
AC1014
  9
$HANDSEED
  5
FFFF
  9
$MEASUREMENT
 70
     1
  0
ENDSEC
  0
SECTION
  2
TABLES
  0
TABLE
  2
VPORT
  5
8
330
0
100
AcDbSymbolTable
 70
     4
  0
VPORT
  5
2E
330
8
100
AcDbSymbolTableRecord
100
AcDbViewportTableRecord
  2
*ACTIVE
 70
     0
 10
0.0
 20
0.0
 11
1.0
 21
1.0
 12
210.0
 22
148.5
 13
0.0
 23
0.0
 14
10.0
 24
10.0
 15
10.0
 25
10.0
 16
0.0
 26
0.0
 36
1.0
 17
0.0
 27
0.0
 37
0.0
 40
341.0
 41
1.24
 42
50.0
 43
0.0
 44
0.0
 50
0.0
 51
0.0
 71
     0
 72
   100
 73
     1
 74
     3
 75
     0
 76
     0
 77
     0
 78
     0
  0
ENDTAB
  0
TABLE
  2
LTYPE
  5
5
330
0
100
AcDbSymbolTable
 70
     1
  0
LTYPE
  5
14
330
5
100
AcDbSymbolTableRecord
100
AcDbLinetypeTableRecord
  2
BYBLOCK
 70
     0
  3

 72
    65
 73
     0
 40
0.0
  0
LTYPE
  5
15
330
5
100
AcDbSymbolTableRecord
100
AcDbLinetypeTableRecord
  2
BYLAYER
 70
     0
  3

 72
    65
 73
     0
 40
0.0
  0
LTYPE
  5
16
330
5
100
AcDbSymbolTableRecord
100
AcDbLinetypeTableRecord
  2
CONTINUOUS
 70
     0
  3
Solid line
 72
    65
 73
     0
 40
0.0
  0
ENDTAB
  0
TABLE
  2
LAYER
  5
2
100
AcDbSymbolTable
 70
2
  0
LAYER
  5
50
100
AcDbSymbolTableRecord
100
AcDbLayerTableRecord
  2
0
 70
0
  6
CONTINUOUS
  0
LAYER
  5
51
100
AcDbSymbolTableRecord
100
AcDbLayerTableRecord
  2
top-2
 70
0
  6
CONTINUOUS
  0
ENDTAB
  0
TABLE
  2
STYLE
  5
3
330
0
100
AcDbSymbolTable
 70
     1
  0
STYLE
  5
11
330
3
100
AcDbSymbolTableRecord
100
AcDbTextStyleTableRecord
  2
STANDARD
 70
     0
 40
0.0
 41
1.0
 50
0.0
 71
     0
 42
2.5
  3
txt
  4

  0
ENDTAB
  0
TABLE
  2
VIEW
  5
6
330
0
100
AcDbSymbolTable
 70
     0
  0
ENDTAB
  0
TABLE
  2
UCS
  5
7
330
0
100
AcDbSymbolTable
 70
     0
  0
ENDTAB
  0
TABLE
  2
APPID
  5
9
330
0
100
AcDbSymbolTable
 70
     2
  0
APPID
  5
12
330
9
100
AcDbSymbolTableRecord
100
AcDbRegAppTableRecord
  2
ACAD
 70
     0
  0
ENDTAB
  0
TABLE
  2
DIMSTYLE
  5
A
330
0
100
AcDbSymbolTable
 70
     1
  0
DIMSTYLE
105
27
330
A
100
AcDbSymbolTableRecord
100
AcDbDimStyleTableRecord
  2
ISO-25
 70
     0
  3

  4

  5

  6

  7

 40
1.0
 41
2.5
 42
0.625
 43
3.75
 44
1.25
 45
0.0
 46
0.0
 47
0.0
 48
0.0
140
2.5
141
2.5
142
0.0
143
0.03937007874016
144
1.0
145
0.0
146
1.0
147
0.625
 71
     0
 72
     0
 73
     0
 74
     0
 75
     0
 76
     0
 77
     1
 78
     8
170
     0
171
     3
172
     1
173
     0
174
     0
175
     0
176
     0
177
     0
178
     0
270
     2
271
     2
272
     2
273
     2
274
     3
340
11
275
     0
280
     0
281
     0
282
     0
283
     0
284
     8
285
     0
286
     0
287
     3
288
     0
  0
ENDTAB
  0
TABLE
  2
BLOCK_RECORD
  5
1
330
0
100
AcDbSymbolTable
 70
     1
  0
BLOCK_RECORD
  5
1F
330
1
100
AcDbSymbolTableRecord
100
AcDbBlockTableRecord
  2
*MODEL_SPACE
  0
BLOCK_RECORD
  5
1B
330
1
100
AcDbSymbolTableRecord
100
AcDbBlockTableRecord
  2
*PAPER_SPACE
  0
ENDTAB
  0
ENDSEC
  0
SECTION
  2
BLOCKS
  0
BLOCK
  5
20
330
1F
100
AcDbEntity
  8
0
100
AcDbBlockBegin
  2
*MODEL_SPACE
 70
     0
 10
0.0
 20
0.0
 30
0.0
  3
*MODEL_SPACE
  1

  0
ENDBLK
  5
21
330
1F
100
AcDbEntity
  8
0
100
AcDbBlockEnd
  0
BLOCK
  5
1C
330
1B
100
AcDbEntity
 67
     1
  8
0
100
AcDbBlockBegin
  2
*PAPER_SPACE
  1

  0
ENDBLK
  5
1D
330
1B
100
AcDbEntity
 67
     1
  8
0
100
AcDbBlockEnd
  0
ENDSEC
  0
SECTION
  2
ENTITIES
  0
SPLINE
  5
100
100
AcDbEntity
  8
top-2
 62
7
100
AcDbSpline
 70
8
 71
3
 72
8
 73
4
 74
0
 40
0
 40
0
 40
0
 40
0
 40
1
 40
1
 40
1
 40
1
 10
22.093904
 20
156.166013
 30
0.0
 10
17.415043
 20
156.195018
 30
0.0
 10
12.761128
 20
154.294056
 30
0.0
 10
9.441021
 20
150.996853
 30
0.0
  0
SPLINE
  5
101
100
AcDbEntity
  8
top-2
 62
7
100
AcDbSpline
 70
8
 71
3
 72
8
 73
4
 74
0
 40
0
 40
0
 40
0
 40
0
 40
1
 40
1
 40
1
 40
1
 10
9.441021
 20
150.996853
 30
0.0
 10
6.198591
 20
147.804306
 30
0.0
 10
4.222858
 20
143.345082
 30
0.0
 10
4.106704
 20
138.789811
 30
0.0
  0
SPLINE
  5
102
100
AcDbEntity
  8
top-2
 62
7
100
AcDbSpline
 70
8
 71
3
 72
8
 73
4
 74
0
 40
0
 40
0
 40
0
 40
0
 40
1
 40
1
 40
1
 40
1
 10
4.106704
 20
138.789811
 30
0.0
 10
4.070759
 20
136.871266
 30
0.0
 10
4.112374
 20
134.951971
 30
0.0
 10
4.093988
 20
133.033161
 30
0.0
  0
SPLINE
  5
103
100
AcDbEntity
  8
top-2
 62
7
100
AcDbSpline
 70
8
 71
3
 72
8
 73
4
 74
0
 40
0
 40
0
 40
0
 40
0
 40
1
 40
1
 40
1
 40
1
 10
4.093988
 20
133.033161
 30
0.0
 10
4.097428
 20
112.277912
 30
0.0
 10
4.087468
 20
91.522566
 30
0.0
 10
4.100138
 20
70.767377
 30
0.0
  0
SPLINE
  5
104
100
AcDbEntity
  8
top-2
 62
7
100
AcDbSpline
 70
8
 71
3
 72
8
 73
4
 74
0
 40
0
 40
0
 40
0
 40
0
 40
1
 40
1
 40
1
 40
1
 10
4.100138
 20
70.767377
 30
0.0
 10
4.171637
 20
67.468341
 30
0.0
 10
5.300696
 20
64.190476
 30
0.0
 10
7.347958
 20
61.594401
 30
0.0
  0
SPLINE
  5
105
100
AcDbEntity
  8
top-2
 62
7
100
AcDbSpline
 70
8
 71
3
 72
8
 73
4
 74
0
 40
0
 40
0
 40
0
 40
0
 40
1
 40
1
 40
1
 40
1
 10
7.347958
 20
61.594401
 30
0.0
 10
8.290975
 20
60.361891
 30
0.0
 10
9.403921
 20
59.255020
 30
0.0
 10
10.681401
 20
58.370240
 30
0.0
  0
SPLINE
  5
106
100
AcDbEntity
  8
top-2
 62
7
100
AcDbSpline
 70
8
 71
3
 72
8
 73
4
 74
0
 40
0
 40
0
 40
0
 40
0
 40
1
 40
1
 40
1
 40
1
 10
10.681401
 20
58.370240
 30
0.0
 10
11.385771
 20
57.840210
 30
0.0
 10
12.053280
 20
57.259170
 30
0.0
 10
12.825822
 20
56.826340
 30
0.0
  0
SPLINE
  5
107
100
AcDbEntity
  8
top-2
 62
7
100
AcDbSpline
 70
8
 71
3
 72
8
 73
4
 74
0
 40
0
 40
0
 40
0
 40
0
 40
1
 40
1
 40
1
 40
1
 10
12.825822
 20
56.826340
 30
0.0
 10
15.852427
 20
55.001190
 30
0.0
 10
19.246953
 20
53.868210
 30
0.0
 10
22.700035
 20
53.175240
 30
0.0
  0
SPLINE
  5
108
100
AcDbEntity
  8
top-2
 62
7
100
AcDbSpline
 70
8
 71
3
 72
8
 73
4
 74
0
 40
0
 40
0
 40
0
 40
0
 40
1
 40
1
 40
1
 40
1
 10
22.700035
 20
53.175240
 30
0.0
 10
34.130097
 20
50.707010
 30
0.0
 10
45.569434
 20
48.281130
 30
0.0
 10
57.009907
 20
45.861420
 30
0.0
  0
SPLINE
  5
109
100
AcDbEntity
  8
top-2
 62
7
100
AcDbSpline
 70
8
 71
3
 72
8
 73
4
 74
0
 40
0
 40
0
 40
0
 40
0
 40
1
 40
1
 40
1
 40
1
 10
57.009907
 20
45.861420
 30
0.0
 10
77.230954
 20
41.601660
 30
0.0
 10
97.461743
 20
37.382100
 30
0.0
 10
117.751200
 20
33.458770
 30
0.0
  0
SPLINE
  5
10a
100
AcDbEntity
  8
top-2
 62
7
100
AcDbSpline
 70
8
 71
3
 72
8
 73
4
 74
0
 40
0
 40
0
 40
0
 40
0
 40
1
 40
1
 40
1
 40
1
 10
117.751200
 20
33.458770
 30
0.0
 10
124.248490
 20
32.216630
 30
0.0
 10
130.750380
 20
30.986690
 30
0.0
 10
137.289370
 20
29.981860
 30
0.0
  0
SPLINE
  5
10b
100
AcDbEntity
  8
top-2
 62
7
100
AcDbSpline
 70
8
 71
3
 72
8
 73
4
 74
0
 40
0
 40
0
 40
0
 40
0
 40
1
 40
1
 40
1
 40
1
 10
137.289370
 20
29.981860
 30
0.0
 10
138.682560
 20
29.777180
 30
0.0
 10
140.079170
 20
29.578900
 30
0.0
 10
141.483930
 20
29.476660
 30
0.0
  0
SPLINE
  5
10c
100
AcDbEntity
  8
top-2
 62
7
100
AcDbSpline
 70
8
 71
3
 72
8
 73
4
 74
0
 40
0
 40
0
 40
0
 40
0
 40
1
 40
1
 40
1
 40
1
 10
141.483930
 20
29.476660
 30
0.0
 10
142.403540
 20
29.475800
 30
0.0
 10
143.323380
 20
29.526560
 30
0.0
 10
144.235570
 20
29.649540
 30
0.0
  0
SPLINE
  5
10d
100
AcDbEntity
  8
top-2
 62
7
100
AcDbSpline
 70
8
 71
3
 72
8
 73
4
 74
0
 40
0
 40
0
 40
0
 40
0
 40
1
 40
1
 40
1
 40
1
 10
144.235570
 20
29.649540
 30
0.0
 10
147.315360
 20
30.031060
 30
0.0
 10
150.375040
 20
30.558510
 30
0.0
 10
153.432260
 20
31.087860
 30
0.0
  0
SPLINE
  5
10e
100
AcDbEntity
  8
top-2
 62
7
100
AcDbSpline
 70
8
 71
3
 72
8
 73
4
 74
0
 40
0
 40
0
 40
0
 40
0
 40
1
 40
1
 40
1
 40
1
 10
153.432260
 20
31.087860
 30
0.0
 10
164.680530
 20
33.087520
 30
0.0
 10
175.885320
 20
35.323100
 30
0.0
 10
187.084430
 20
37.579300
 30
0.0
  0
SPLINE
  5
10f
100
AcDbEntity
  8
top-2
 62
7
100
AcDbSpline
 70
8
 71
3
 72
8
 73
4
 74
0
 40
0
 40
0
 40
0
 40
0
 40
1
 40
1
 40
1
 40
1
 10
187.084430
 20
37.579300
 30
0.0
 10
210.794840
 20
42.382480
 30
0.0
 10
234.464630
 20
47.383880
 30
0.0
 10
258.119560
 20
52.452430
 30
0.0
  0
SPLINE
  5
110
100
AcDbEntity
  8
top-2
 62
7
100
AcDbSpline
 70
8
 71
3
 72
8
 73
4
 74
0
 40
0
 40
0
 40
0
 40
0
 40
1
 40
1
 40
1
 40
1
 10
258.119560
 20
52.452430
 30
0.0
 10
259.952180
 20
52.855200
 30
0.0
 10
261.793490
 20
53.220720
 30
0.0
 10
263.618630
 20
53.656230
 30
0.0
  0
SPLINE
  5
111
100
AcDbEntity
  8
top-2
 62
7
100
AcDbSpline
 70
8
 71
3
 72
8
 73
4
 74
0
 40
0
 40
0
 40
0
 40
0
 40
1
 40
1
 40
1
 40
1
 10
263.618630
 20
53.656230
 30
0.0
 10
267.739930
 20
54.709680
 30
0.0
 10
271.742440
 20
56.538960
 30
0.0
 10
274.890680
 20
59.446310
 30
0.0
  0
SPLINE
  5
112
100
AcDbEntity
  8
top-2
 62
7
100
AcDbSpline
 70
8
 71
3
 72
8
 73
4
 74
0
 40
0
 40
0
 40
0
 40
0
 40
1
 40
1
 40
1
 40
1
 10
274.890680
 20
59.446310
 30
0.0
 10
277.304700
 20
61.676294
 30
0.0
 10
279.097080
 20
64.621649
 30
0.0
 10
279.750960
 20
67.858530
 30
0.0
  0
SPLINE
  5
113
100
AcDbEntity
  8
top-2
 62
7
100
AcDbSpline
 70
8
 71
3
 72
8
 73
4
 74
0
 40
0
 40
0
 40
0
 40
0
 40
1
 40
1
 40
1
 40
1
 10
279.750960
 20
67.858530
 30
0.0
 10
280.093380
 20
69.440706
 30
0.0
 10
280.119800
 20
71.066236
 30
0.0
 10
280.093870
 20
72.677903
 30
0.0
  0
SPLINE
  5
114
100
AcDbEntity
  8
top-2
 62
7
100
AcDbSpline
 70
8
 71
3
 72
8
 73
4
 74
0
 40
0
 40
0
 40
0
 40
0
 40
1
 40
1
 40
1
 40
1
 10
280.093870
 20
72.677903
 30
0.0
 10
280.089870
 20
94.691074
 30
0.0
 10
280.102870
 20
116.704371
 30
0.0
 10
280.086870
 20
138.717463
 30
0.0
  0
SPLINE
  5
115
100
AcDbEntity
  8
top-2
 62
7
100
AcDbSpline
 70
8
 71
3
 72
8
 73
4
 74
0
 40
0
 40
0
 40
0
 40
0
 40
1
 40
1
 40
1
 40
1
 10
280.086870
 20
138.717463
 30
0.0
 10
279.972350
 20
143.277445
 30
0.0
 10
278.034570
 20
147.762015
 30
0.0
 10
274.782040
 20
150.961729
 30
0.0
  0
SPLINE
  5
116
100
AcDbEntity
  8
top-2
 62
7
100
AcDbSpline
 70
8
 71
3
 72
8
 73
4
 74
0
 40
0
 40
0
 40
0
 40
0
 40
1
 40
1
 40
1
 40
1
 10
274.782040
 20
150.961729
 30
0.0
 10
271.520250
 20
154.211955
 30
0.0
 10
266.967160
 20
156.133948
 30
0.0
 10
262.358020
 20
156.160826
 30
0.0
  0
SPLINE
  5
117
100
AcDbEntity
  8
top-2
 62
7
100
AcDbSpline
 70
8
 71
3
 72
8
 73
4
 74
0
 40
0
 40
0
 40
0
 40
0
 40
1
 40
1
 40
1
 40
1
 10
262.358020
 20
156.160826
 30
0.0
 10
259.268340
 20
156.171318
 30
0.0
 10
256.178440
 20
156.163556
 30
0.0
 10
253.088650
 20
156.166016
 30
0.0
  0
SPLINE
  5
118
100
AcDbEntity
  8
top-2
 62
7
100
AcDbSpline
 70
8
 71
3
 72
8
 73
4
 74
0
 40
0
 40
0
 40
0
 40
0
 40
1
 40
1
 40
1
 40
1
 10
253.088650
 20
156.166016
 30
0.0
 10
176.090410
 20
156.166016
 30
0.0
 10
99.092182
 20
156.166016
 30
0.0
 10
22.093950
 20
156.166016
 30
0.0
  0
LWPOLYLINE
  5
119
100
AcDbEntity
  8
top-2
 62
7
100
AcDbPolyline
 90
1
 70
1
 10
22.093950
 20
156.166016
 30
0.0
  0
LWPOLYLINE
  5
11a
100
AcDbEntity
  8
top-2
 62
7
100
AcDbPolyline
 90
23
 70
1
 10
17.539062
 20
143.385000
 30
0.0
 10
13.431641
 20
122.736562
 30
0.0
 10
18.101562
 20
121.806875
 30
0.0
 10
14.384766
 20
103.123281
 30
0.0
 10
19.056641
 20
102.193594
 30
0.0
 10
15.339844
 20
83.510000
 30
0.0
 10
24.681641
 20
81.652578
 30
0.0
 10
20.964844
 20
62.968984
 30
0.0
 10
41.611328
 20
58.861560
 30
0.0
 10
45.328125
 20
77.545156
 30
0.0
 10
77.044922
 20
71.236562
 30
0.0
 10
90.076172
 20
68.644766
 30
0.0
 10
86.359375
 20
49.961170
 30
0.0
 10
116.562500
 20
43.951410
 30
0.0
 10
116.562500
 20
43.953410
 30
0.0
 10
135.031250
 20
40.279580
 30
0.0
 10
139.138670
 20
60.926066
 30
0.0
 10
134.468750
 20
61.855753
 30
0.0
 10
138.183590
 20
80.539347
 30
0.0
 10
128.841800
 20
82.396769
 30
0.0
 10
132.558590
 20
101.080362
 30
0.0
 10
127.886720
 20
102.010050
 30
0.0
 10
131.603520
 20
120.693644
 30
0.0
  0
SPLINE
  5
11b
100
AcDbEntity
  8
top-2
 62
7
100
AcDbSpline
 70
8
 71
3
 72
8
 73
4
 74
0
 40
0
 40
0
 40
0
 40
0
 40
1
 40
1
 40
1
 40
1
 10
470.922557
 20
136.013094
 30
0.0
 10
468.247374
 20
136.013094
 30
0.0
 10
465.835607
 20
134.401603
 30
0.0
 10
464.811858
 20
131.930056
 30
0.0
  0
SPLINE
  5
11c
100
AcDbEntity
  8
top-2
 62
7
100
AcDbSpline
 70
8
 71
3
 72
8
 73
4
 74
0
 40
0
 40
0
 40
0
 40
0
 40
1
 40
1
 40
1
 40
1
 10
464.811858
 20
131.930056
 30
0.0
 10
463.788110
 20
129.458509
 30
0.0
 10
464.353990
 20
126.613635
 30
0.0
 10
466.245631
 20
124.721994
 30
0.0
  0
SPLINE
  5
11d
100
AcDbEntity
  8
top-2
 62
7
100
AcDbSpline
 70
8
 71
3
 72
8
 73
4
 74
0
 40
0
 40
0
 40
0
 40
0
 40
1
 40
1
 40
1
 40
1
 10
466.245631
 20
124.721994
 30
0.0
 10
468.137271
 20
122.830354
 30
0.0
 10
470.982145
 20
122.264474
 30
0.0
 10
473.453692
 20
123.288222
 30
0.0
  0
SPLINE
  5
11e
100
AcDbEntity
  8
top-2
 62
7
100
AcDbSpline
 70
8
 71
3
 72
8
 73
4
 74
0
 40
0
 40
0
 40
0
 40
0
 40
1
 40
1
 40
1
 40
1
 10
473.453692
 20
123.288222
 30
0.0
 10
475.925239
 20
124.311970
 30
0.0
 10
477.536731
 20
126.723738
 30
0.0
 10
477.536731
 20
129.398921
 30
0.0
  0
SPLINE
  5
11f
100
AcDbEntity
  8
top-2
 62
7
100
AcDbSpline
 70
8
 71
3
 72
8
 73
4
 74
0
 40
0
 40
0
 40
0
 40
0
 40
1
 40
1
 40
1
 40
1
 10
477.536731
 20
129.398921
 30
0.0
 10
477.536731
 20
131.153109
 30
0.0
 10
476.839882
 20
132.835450
 30
0.0
 10
475.599484
 20
134.075848
 30
0.0
  0
SPLINE
  5
120
100
AcDbEntity
  8
top-2
 62
7
100
AcDbSpline
 70
8
 71
3
 72
8
 73
4
 74
0
 40
0
 40
0
 40
0
 40
0
 40
1
 40
1
 40
1
 40
1
 10
475.599484
 20
134.075848
 30
0.0
 10
474.359086
 20
135.316246
 30
0.0
 10
472.676745
 20
136.013094
 30
0.0
 10
470.922557
 20
136.013094
 30
0.0
  0
LWPOLYLINE
  5
121
100
AcDbEntity
  8
top-2
 62
7
100
AcDbPolyline
 90
23
 70
1
 10
266.728520
 20
143.441641
 30
0.0
 10
181.669920
 20
126.521719
 30
0.0
 10
143.318360
 20
118.892812
 30
0.0
 10
147.425780
 20
98.246328
 30
0.0
 10
152.097660
 20
99.174062
 30
0.0
 10
155.423830
 20
82.453359
 30
0.0
 10
146.080080
 20
80.595938
 30
0.0
 10
149.796880
 20
61.912344
 30
0.0
 10
145.126950
 20
60.982656
 30
0.0
 10
149.234380
 20
40.336170
 30
0.0
 10
197.908200
 20
50.017810
 30
0.0
 10
194.189450
 20
68.703359
 30
0.0
 10
224.708980
 20
74.773672
 30
0.0
 10
224.708980
 20
74.771672
 30
0.0
 10
238.937500
 20
77.603703
 30
0.0
 10
242.654300
 20
58.918150
 30
0.0
 10
263.300780
 20
63.025578
 30
0.0
 10
259.583980
 20
81.709172
 30
0.0
 10
264.255860
 20
82.638859
 30
0.0
 10
260.539060
 20
101.322453
 30
0.0
 10
269.880860
 20
103.181828
 30
0.0
 10
266.164060
 20
121.865422
 30
0.0
 10
270.835940
 20
122.795109
 30
0.0
  0
SPLINE
  5
122
100
AcDbEntity
  8
top-2
 62
7
100
AcDbSpline
 70
8
 71
3
 72
8
 73
4
 74
0
 40
0
 40
0
 40
0
 40
0
 40
1
 40
1
 40
1
 40
1
 10
29.759321
 20
-22.428665
 30
0.0
 10
27.084137
 20
-22.428665
 30
0.0
 10
24.672370
 20
-24.040157
 30
0.0
 10
23.648622
 20
-26.511704
 30
0.0
  0
SPLINE
  5
123
100
AcDbEntity
  8
top-2
 62
7
100
AcDbSpline
 70
8
 71
3
 72
8
 73
4
 74
0
 40
0
 40
0
 40
0
 40
0
 40
1
 40
1
 40
1
 40
1
 10
23.648622
 20
-26.511704
 30
0.0
 10
22.624873
 20
-28.983251
 30
0.0
 10
23.190754
 20
-31.828125
 30
0.0
 10
25.082394
 20
-33.719765
 30
0.0
  0
SPLINE
  5
124
100
AcDbEntity
  8
top-2
 62
7
100
AcDbSpline
 70
8
 71
3
 72
8
 73
4
 74
0
 40
0
 40
0
 40
0
 40
0
 40
1
 40
1
 40
1
 40
1
 10
25.082394
 20
-33.719765
 30
0.0
 10
26.974034
 20
-35.611405
 30
0.0
 10
29.818908
 20
-36.177286
 30
0.0
 10
32.290455
 20
-35.153538
 30
0.0
  0
SPLINE
  5
125
100
AcDbEntity
  8
top-2
 62
7
100
AcDbSpline
 70
8
 71
3
 72
8
 73
4
 74
0
 40
0
 40
0
 40
0
 40
0
 40
1
 40
1
 40
1
 40
1
 10
32.290455
 20
-35.153538
 30
0.0
 10
34.762002
 20
-34.129789
 30
0.0
 10
36.373494
 20
-31.718022
 30
0.0
 10
36.373494
 20
-29.042838
 30
0.0
  0
SPLINE
  5
126
100
AcDbEntity
  8
top-2
 62
7
100
AcDbSpline
 70
8
 71
3
 72
8
 73
4
 74
0
 40
0
 40
0
 40
0
 40
0
 40
1
 40
1
 40
1
 40
1
 10
36.373494
 20
-29.042838
 30
0.0
 10
36.373494
 20
-27.288651
 30
0.0
 10
35.676646
 20
-25.606310
 30
0.0
 10
34.436248
 20
-24.365912
 30
0.0
  0
SPLINE
  5
127
100
AcDbEntity
  8
top-2
 62
7
100
AcDbSpline
 70
8
 71
3
 72
8
 73
4
 74
0
 40
0
 40
0
 40
0
 40
0
 40
1
 40
1
 40
1
 40
1
 10
34.436248
 20
-24.365912
 30
0.0
 10
33.195849
 20
-23.125514
 30
0.0
 10
31.513509
 20
-22.428665
 30
0.0
 10
29.759321
 20
-22.428665
 30
0.0
  0
LWPOLYLINE
  5
128
100
AcDbEntity
  8
top-2
 62
7
100
AcDbPolyline
 90
1
 70
1
 10
470.922557
 20
136.013094
 30
0.0
  0
SPLINE
  5
129
100
AcDbEntity
  8
top-2
 62
7
100
AcDbSpline
 70
8
 71
3
 72
8
 73
4
 74
0
 40
0
 40
0
 40
0
 40
0
 40
1
 40
1
 40
1
 40
1
 10
1044.342009
 20
-22.428665
 30
0.0
 10
1041.666826
 20
-22.428665
 30
0.0
 10
1039.255059
 20
-24.040157
 30
0.0
 10
1038.231310
 20
-26.511704
 30
0.0
  0
SPLINE
  5
12a
100
AcDbEntity
  8
top-2
 62
7
100
AcDbSpline
 70
8
 71
3
 72
8
 73
4
 74
0
 40
0
 40
0
 40
0
 40
0
 40
1
 40
1
 40
1
 40
1
 10
1038.231310
 20
-26.511704
 30
0.0
 10
1037.207562
 20
-28.983251
 30
0.0
 10
1037.773442
 20
-31.828125
 30
0.0
 10
1039.665083
 20
-33.719765
 30
0.0
  0
SPLINE
  5
12b
100
AcDbEntity
  8
top-2
 62
7
100
AcDbSpline
 70
8
 71
3
 72
8
 73
4
 74
0
 40
0
 40
0
 40
0
 40
0
 40
1
 40
1
 40
1
 40
1
 10
1039.665083
 20
-33.719765
 30
0.0
 10
1041.556723
 20
-35.611405
 30
0.0
 10
1044.401597
 20
-36.177286
 30
0.0
 10
1046.873144
 20
-35.153538
 30
0.0
  0
SPLINE
  5
12c
100
AcDbEntity
  8
top-2
 62
7
100
AcDbSpline
 70
8
 71
3
 72
8
 73
4
 74
0
 40
0
 40
0
 40
0
 40
0
 40
1
 40
1
 40
1
 40
1
 10
1046.873144
 20
-35.153538
 30
0.0
 10
1049.344691
 20
-34.129789
 30
0.0
 10
1050.956183
 20
-31.718022
 30
0.0
 10
1050.956183
 20
-29.042838
 30
0.0
  0
SPLINE
  5
12d
100
AcDbEntity
  8
top-2
 62
7
100
AcDbSpline
 70
8
 71
3
 72
8
 73
4
 74
0
 40
0
 40
0
 40
0
 40
0
 40
1
 40
1
 40
1
 40
1
 10
1050.956183
 20
-29.042838
 30
0.0
 10
1050.956183
 20
-27.288651
 30
0.0
 10
1050.259334
 20
-25.606310
 30
0.0
 10
1049.018936
 20
-24.365912
 30
0.0
  0
SPLINE
  5
12e
100
AcDbEntity
  8
top-2
 62
7
100
AcDbSpline
 70
8
 71
3
 72
8
 73
4
 74
0
 40
0
 40
0
 40
0
 40
0
 40
1
 40
1
 40
1
 40
1
 10
1049.018936
 20
-24.365912
 30
0.0
 10
1047.778538
 20
-23.125514
 30
0.0
 10
1046.096197
 20
-22.428665
 30
0.0
 10
1044.342009
 20
-22.428665
 30
0.0
  0
LWPOLYLINE
  5
12f
100
AcDbEntity
  8
top-2
 62
7
100
AcDbPolyline
 90
1
 70
1
 10
29.759321
 20
-22.428665
 30
0.0
  0
SPLINE
  5
130
100
AcDbEntity
  8
top-2
 62
7
100
AcDbSpline
 70
8
 71
3
 72
8
 73
4
 74
0
 40
0
 40
0
 40
0
 40
0
 40
1
 40
1
 40
1
 40
1
 10
48.402890
 20
118.501281
 30
0.0
 10
44.749983
 20
118.501281
 30
0.0
 10
41.788717
 20
115.540015
 30
0.0
 10
41.788717
 20
111.887108
 30
0.0
  0
SPLINE
  5
131
100
AcDbEntity
  8
top-2
 62
7
100
AcDbSpline
 70
8
 71
3
 72
8
 73
4
 74
0
 40
0
 40
0
 40
0
 40
0
 40
1
 40
1
 40
1
 40
1
 10
41.788717
 20
111.887108
 30
0.0
 10
41.788717
 20
108.234201
 30
0.0
 10
44.749983
 20
105.272935
 30
0.0
 10
48.402890
 20
105.272935
 30
0.0
  0
SPLINE
  5
132
100
AcDbEntity
  8
top-2
 62
7
100
AcDbSpline
 70
8
 71
3
 72
8
 73
4
 74
0
 40
0
 40
0
 40
0
 40
0
 40
1
 40
1
 40
1
 40
1
 10
48.402890
 20
105.272935
 30
0.0
 10
52.055797
 20
105.272935
 30
0.0
 10
55.017063
 20
108.234201
 30
0.0
 10
55.017063
 20
111.887108
 30
0.0
  0
SPLINE
  5
133
100
AcDbEntity
  8
top-2
 62
7
100
AcDbSpline
 70
8
 71
3
 72
8
 73
4
 74
0
 40
0
 40
0
 40
0
 40
0
 40
1
 40
1
 40
1
 40
1
 10
55.017063
 20
111.887108
 30
0.0
 10
55.017063
 20
113.641296
 30
0.0
 10
54.320215
 20
115.323637
 30
0.0
 10
53.079817
 20
116.564035
 30
0.0
  0
SPLINE
  5
134
100
AcDbEntity
  8
top-2
 62
7
100
AcDbSpline
 70
8
 71
3
 72
8
 73
4
 74
0
 40
0
 40
0
 40
0
 40
0
 40
1
 40
1
 40
1
 40
1
 10
53.079817
 20
116.564035
 30
0.0
 10
51.839419
 20
117.804433
 30
0.0
 10
50.157078
 20
118.501281
 30
0.0
 10
48.402890
 20
118.501281
 30
0.0
  0
LWPOLYLINE
  5
135
100
AcDbEntity
  8
top-2
 62
7
100
AcDbPolyline
 90
1
 70
1
 10
1044.342009
 20
-22.428665
 30
0.0
  0
SPLINE
  5
136
100
AcDbEntity
  8
top-2
 62
7
100
AcDbSpline
 70
8
 71
3
 72
8
 73
4
 74
0
 40
0
 40
0
 40
0
 40
0
 40
1
 40
1
 40
1
 40
1
 10
1025.851767
 20
118.500412
 30
0.0
 10
1023.176584
 20
118.500412
 30
0.0
 10
1020.764816
 20
116.888920
 30
0.0
 10
1019.741068
 20
114.417373
 30
0.0
  0
SPLINE
  5
137
100
AcDbEntity
  8
top-2
 62
7
100
AcDbSpline
 70
8
 71
3
 72
8
 73
4
 74
0
 40
0
 40
0
 40
0
 40
0
 40
1
 40
1
 40
1
 40
1
 10
1019.741068
 20
114.417373
 30
0.0
 10
1018.717319
 20
111.945826
 30
0.0
 10
1019.283200
 20
109.100952
 30
0.0
 10
1021.174840
 20
107.209312
 30
0.0
  0
SPLINE
  5
138
100
AcDbEntity
  8
top-2
 62
7
100
AcDbSpline
 70
8
 71
3
 72
8
 73
4
 74
0
 40
0
 40
0
 40
0
 40
0
 40
1
 40
1
 40
1
 40
1
 10
1021.174840
 20
107.209312
 30
0.0
 10
1023.066480
 20
105.317672
 30
0.0
 10
1025.911354
 20
104.751791
 30
0.0
 10
1028.382901
 20
105.775539
 30
0.0
  0
SPLINE
  5
139
100
AcDbEntity
  8
top-2
 62
7
100
AcDbSpline
 70
8
 71
3
 72
8
 73
4
 74
0
 40
0
 40
0
 40
0
 40
0
 40
1
 40
1
 40
1
 40
1
 10
1028.382901
 20
105.775539
 30
0.0
 10
1030.854449
 20
106.799288
 30
0.0
 10
1032.465940
 20
109.211055
 30
0.0
 10
1032.465940
 20
111.886239
 30
0.0
  0
SPLINE
  5
13a
100
AcDbEntity
  8
top-2
 62
7
100
AcDbSpline
 70
8
 71
3
 72
8
 73
4
 74
0
 40
0
 40
0
 40
0
 40
0
 40
1
 40
1
 40
1
 40
1
 10
1032.465940
 20
111.886239
 30
0.0
 10
1032.465940
 20
113.640427
 30
0.0
 10
1031.769092
 20
115.322767
 30
0.0
 10
1030.528694
 20
116.563165
 30
0.0
  0
SPLINE
  5
13b
100
AcDbEntity
  8
top-2
 62
7
100
AcDbSpline
 70
8
 71
3
 72
8
 73
4
 74
0
 40
0
 40
0
 40
0
 40
0
 40
1
 40
1
 40
1
 40
1
 10
1030.528694
 20
116.563165
 30
0.0
 10
1029.288296
 20
117.803564
 30
0.0
 10
1027.605955
 20
118.500412
 30
0.0
 10
1025.851767
 20
118.500412
 30
0.0
  0
LWPOLYLINE
  5
13c
100
AcDbEntity
  8
top-2
 62
7
100
AcDbPolyline
 90
1
 70
1
 10
48.402890
 20
118.501281
 30
0.0
  0
SPLINE
  5
13d
100
AcDbEntity
  8
top-2
 62
7
100
AcDbSpline
 70
8
 71
3
 72
8
 73
4
 74
0
 40
0
 40
0
 40
0
 40
0
 40
1
 40
1
 40
1
 40
1
 10
48.403725
 20
-200.110825
 30
0.0
 10
44.750818
 20
-200.110825
 30
0.0
 10
41.789552
 20
-203.072091
 30
0.0
 10
41.789552
 20
-206.724998
 30
0.0
  0
SPLINE
  5
13e
100
AcDbEntity
  8
top-2
 62
7
100
AcDbSpline
 70
8
 71
3
 72
8
 73
4
 74
0
 40
0
 40
0
 40
0
 40
0
 40
1
 40
1
 40
1
 40
1
 10
41.789552
 20
-206.724998
 30
0.0
 10
41.789552
 20
-210.377905
 30
0.0
 10
44.750818
 20
-213.339171
 30
0.0
 10
48.403725
 20
-213.339171
 30
0.0
  0
SPLINE
  5
13f
100
AcDbEntity
  8
top-2
 62
7
100
AcDbSpline
 70
8
 71
3
 72
8
 73
4
 74
0
 40
0
 40
0
 40
0
 40
0
 40
1
 40
1
 40
1
 40
1
 10
48.403725
 20
-213.339171
 30
0.0
 10
52.056632
 20
-213.339171
 30
0.0
 10
55.017899
 20
-210.377905
 30
0.0
 10
55.017899
 20
-206.724998
 30
0.0
  0
SPLINE
  5
140
100
AcDbEntity
  8
top-2
 62
7
100
AcDbSpline
 70
8
 71
3
 72
8
 73
4
 74
0
 40
0
 40
0
 40
0
 40
0
 40
1
 40
1
 40
1
 40
1
 10
55.017899
 20
-206.724998
 30
0.0
 10
55.017899
 20
-204.970810
 30
0.0
 10
54.321050
 20
-203.288469
 30
0.0
 10
53.080652
 20
-202.048071
 30
0.0
  0
SPLINE
  5
141
100
AcDbEntity
  8
top-2
 62
7
100
AcDbSpline
 70
8
 71
3
 72
8
 73
4
 74
0
 40
0
 40
0
 40
0
 40
0
 40
1
 40
1
 40
1
 40
1
 10
53.080652
 20
-202.048071
 30
0.0
 10
51.840254
 20
-200.807673
 30
0.0
 10
50.157913
 20
-200.110825
 30
0.0
 10
48.403725
 20
-200.110825
 30
0.0
  0
LWPOLYLINE
  5
142
100
AcDbEntity
  8
top-2
 62
7
100
AcDbPolyline
 90
1
 70
1
 10
1025.851767
 20
118.500412
 30
0.0
  0
SPLINE
  5
143
100
AcDbEntity
  8
top-2
 62
7
100
AcDbSpline
 70
8
 71
3
 72
8
 73
4
 74
0
 40
0
 40
0
 40
0
 40
0
 40
1
 40
1
 40
1
 40
1
 10
1025.852561
 20
-200.111403
 30
0.0
 10
1023.177377
 20
-200.111403
 30
0.0
 10
1020.765610
 20
-201.722894
 30
0.0
 10
1019.741861
 20
-204.194442
 30
0.0
  0
SPLINE
  5
144
100
AcDbEntity
  8
top-2
 62
7
100
AcDbSpline
 70
8
 71
3
 72
8
 73
4
 74
0
 40
0
 40
0
 40
0
 40
0
 40
1
 40
1
 40
1
 40
1
 10
1019.741861
 20
-204.194442
 30
0.0
 10
1018.718113
 20
-206.665989
 30
0.0
 10
1019.283994
 20
-209.510863
 30
0.0
 10
1021.175634
 20
-211.402503
 30
0.0
  0
SPLINE
  5
145
100
AcDbEntity
  8
top-2
 62
7
100
AcDbSpline
 70
8
 71
3
 72
8
 73
4
 74
0
 40
0
 40
0
 40
0
 40
0
 40
1
 40
1
 40
1
 40
1
 10
1021.175634
 20
-211.402503
 30
0.0
 10
1023.067274
 20
-213.294143
 30
0.0
 10
1025.912148
 20
-213.860024
 30
0.0
 10
1028.383695
 20
-212.836275
 30
0.0
  0
SPLINE
  5
146
100
AcDbEntity
  8
top-2
 62
7
100
AcDbSpline
 70
8
 71
3
 72
8
 73
4
 74
0
 40
0
 40
0
 40
0
 40
0
 40
1
 40
1
 40
1
 40
1
 10
1028.383695
 20
-212.836275
 30
0.0
 10
1030.855242
 20
-211.812527
 30
0.0
 10
1032.466734
 20
-209.400759
 30
0.0
 10
1032.466734
 20
-206.725576
 30
0.0
  0
SPLINE
  5
147
100
AcDbEntity
  8
top-2
 62
7
100
AcDbSpline
 70
8
 71
3
 72
8
 73
4
 74
0
 40
0
 40
0
 40
0
 40
0
 40
1
 40
1
 40
1
 40
1
 10
1032.466734
 20
-206.725576
 30
0.0
 10
1032.466734
 20
-204.971388
 30
0.0
 10
1031.769885
 20
-203.289047
 30
0.0
 10
1030.529487
 20
-202.048649
 30
0.0
  0
SPLINE
  5
148
100
AcDbEntity
  8
top-2
 62
7
100
AcDbSpline
 70
8
 71
3
 72
8
 73
4
 74
0
 40
0
 40
0
 40
0
 40
0
 40
1
 40
1
 40
1
 40
1
 10
1030.529487
 20
-202.048649
 30
0.0
 10
1029.289089
 20
-200.808251
 30
0.0
 10
1027.606748
 20
-200.111403
 30
0.0
 10
1025.852561
 20
-200.111403
 30
0.0
  0
LWPOLYLINE
  5
149
100
AcDbEntity
  8
top-2
 62
7
100
AcDbPolyline
 90
1
 70
1
 10
48.403725
 20
-200.110825
 30
0.0
  0
SPLINE
  5
14a
100
AcDbEntity
  8
top-2
 62
7
100
AcDbSpline
 70
8
 71
3
 72
8
 73
4
 74
0
 40
0
 40
0
 40
0
 40
0
 40
1
 40
1
 40
1
 40
1
 10
604.104378
 20
136.013094
 30
0.0
 10
601.429195
 20
136.013094
 30
0.0
 10
599.017427
 20
134.401603
 30
0.0
 10
597.993679
 20
131.930056
 30
0.0
  0
SPLINE
  5
14b
100
AcDbEntity
  8
top-2
 62
7
100
AcDbSpline
 70
8
 71
3
 72
8
 73
4
 74
0
 40
0
 40
0
 40
0
 40
0
 40
1
 40
1
 40
1
 40
1
 10
597.993679
 20
131.930056
 30
0.0
 10
596.969930
 20
129.458509
 30
0.0
 10
597.535811
 20
126.613635
 30
0.0
 10
599.427451
 20
124.721994
 30
0.0
  0
SPLINE
  5
14c
100
AcDbEntity
  8
top-2
 62
7
100
AcDbSpline
 70
8
 71
3
 72
8
 73
4
 74
0
 40
0
 40
0
 40
0
 40
0
 40
1
 40
1
 40
1
 40
1
 10
599.427451
 20
124.721994
 30
0.0
 10
601.319091
 20
122.830354
 30
0.0
 10
604.163965
 20
122.264474
 30
0.0
 10
606.635512
 20
123.288222
 30
0.0
  0
SPLINE
  5
14d
100
AcDbEntity
  8
top-2
 62
7
100
AcDbSpline
 70
8
 71
3
 72
8
 73
4
 74
0
 40
0
 40
0
 40
0
 40
0
 40
1
 40
1
 40
1
 40
1
 10
606.635512
 20
123.288222
 30
0.0
 10
609.107060
 20
124.311970
 30
0.0
 10
610.718551
 20
126.723738
 30
0.0
 10
610.718551
 20
129.398921
 30
0.0
  0
SPLINE
  5
14e
100
AcDbEntity
  8
top-2
 62
7
100
AcDbSpline
 70
8
 71
3
 72
8
 73
4
 74
0
 40
0
 40
0
 40
0
 40
0
 40
1
 40
1
 40
1
 40
1
 10
610.718551
 20
129.398921
 30
0.0
 10
610.718551
 20
131.153109
 30
0.0
 10
610.021703
 20
132.835450
 30
0.0
 10
608.781305
 20
134.075848
 30
0.0
  0
SPLINE
  5
14f
100
AcDbEntity
  8
top-2
 62
7
100
AcDbSpline
 70
8
 71
3
 72
8
 73
4
 74
0
 40
0
 40
0
 40
0
 40
0
 40
1
 40
1
 40
1
 40
1
 10
608.781305
 20
134.075848
 30
0.0
 10
607.540907
 20
135.316246
 30
0.0
 10
605.858566
 20
136.013094
 30
0.0
 10
604.104378
 20
136.013094
 30
0.0
  0
LWPOLYLINE
  5
150
100
AcDbEntity
  8
top-2
 62
7
100
AcDbPolyline
 90
1
 70
1
 10
1025.852561
 20
-200.111403
 30
0.0
  0
SPLINE
  5
151
100
AcDbEntity
  8
top-2
 62
7
100
AcDbSpline
 70
8
 71
3
 72
8
 73
4
 74
0
 40
0
 40
0
 40
0
 40
0
 40
1
 40
1
 40
1
 40
1
 10
395.333518
 20
-281.551162
 30
0.0
 10
392.658335
 20
-281.551162
 30
0.0
 10
390.246567
 20
-283.162654
 30
0.0
 10
389.222819
 20
-285.634201
 30
0.0
  0
SPLINE
  5
152
100
AcDbEntity
  8
top-2
 62
7
100
AcDbSpline
 70
8
 71
3
 72
8
 73
4
 74
0
 40
0
 40
0
 40
0
 40
0
 40
1
 40
1
 40
1
 40
1
 10
389.222819
 20
-285.634201
 30
0.0
 10
388.199070
 20
-288.105748
 30
0.0
 10
388.764951
 20
-290.950622
 30
0.0
 10
390.656591
 20
-292.842262
 30
0.0
  0
SPLINE
  5
153
100
AcDbEntity
  8
top-2
 62
7
100
AcDbSpline
 70
8
 71
3
 72
8
 73
4
 74
0
 40
0
 40
0
 40
0
 40
0
 40
1
 40
1
 40
1
 40
1
 10
390.656591
 20
-292.842262
 30
0.0
 10
392.548232
 20
-294.733902
 30
0.0
 10
395.393105
 20
-295.299783
 30
0.0
 10
397.864653
 20
-294.276035
 30
0.0
  0
SPLINE
  5
154
100
AcDbEntity
  8
top-2
 62
7
100
AcDbSpline
 70
8
 71
3
 72
8
 73
4
 74
0
 40
0
 40
0
 40
0
 40
0
 40
1
 40
1
 40
1
 40
1
 10
397.864653
 20
-294.276035
 30
0.0
 10
400.336200
 20
-293.252286
 30
0.0
 10
401.947691
 20
-290.840519
 30
0.0
 10
401.947691
 20
-288.165335
 30
0.0
  0
SPLINE
  5
155
100
AcDbEntity
  8
top-2
 62
7
100
AcDbSpline
 70
8
 71
3
 72
8
 73
4
 74
0
 40
0
 40
0
 40
0
 40
0
 40
1
 40
1
 40
1
 40
1
 10
401.947691
 20
-288.165335
 30
0.0
 10
401.947691
 20
-284.512428
 30
0.0
 10
398.986425
 20
-281.551162
 30
0.0
 10
395.333518
 20
-281.551162
 30
0.0
  0
LWPOLYLINE
  5
156
100
AcDbEntity
  8
top-2
 62
7
100
AcDbPolyline
 90
1
 70
1
 10
604.104378
 20
136.013094
 30
0.0
  0
SPLINE
  5
157
100
AcDbEntity
  8
top-2
 62
7
100
AcDbSpline
 70
8
 71
3
 72
8
 73
4
 74
0
 40
0
 40
0
 40
0
 40
0
 40
1
 40
1
 40
1
 40
1
 10
679.697575
 20
-281.551162
 30
0.0
 10
677.022391
 20
-281.551162
 30
0.0
 10
674.610624
 20
-283.162654
 30
0.0
 10
673.586876
 20
-285.634201
 30
0.0
  0
SPLINE
  5
158
100
AcDbEntity
  8
top-2
 62
7
100
AcDbSpline
 70
8
 71
3
 72
8
 73
4
 74
0
 40
0
 40
0
 40
0
 40
0
 40
1
 40
1
 40
1
 40
1
 10
673.586876
 20
-285.634201
 30
0.0
 10
672.563127
 20
-288.105748
 30
0.0
 10
673.129008
 20
-290.950622
 30
0.0
 10
675.020648
 20
-292.842262
 30
0.0
  0
SPLINE
  5
159
100
AcDbEntity
  8
top-2
 62
7
100
AcDbSpline
 70
8
 71
3
 72
8
 73
4
 74
0
 40
0
 40
0
 40
0
 40
0
 40
1
 40
1
 40
1
 40
1
 10
675.020648
 20
-292.842262
 30
0.0
 10
676.912288
 20
-294.733902
 30
0.0
 10
679.757162
 20
-295.299783
 30
0.0
 10
682.228709
 20
-294.276035
 30
0.0
  0
SPLINE
  5
15a
100
AcDbEntity
  8
top-2
 62
7
100
AcDbSpline
 70
8
 71
3
 72
8
 73
4
 74
0
 40
0
 40
0
 40
0
 40
0
 40
1
 40
1
 40
1
 40
1
 10
682.228709
 20
-294.276035
 30
0.0
 10
684.700256
 20
-293.252286
 30
0.0
 10
686.311748
 20
-290.840519
 30
0.0
 10
686.311748
 20
-288.165335
 30
0.0
  0
SPLINE
  5
15b
100
AcDbEntity
  8
top-2
 62
7
100
AcDbSpline
 70
8
 71
3
 72
8
 73
4
 74
0
 40
0
 40
0
 40
0
 40
0
 40
1
 40
1
 40
1
 40
1
 10
686.311748
 20
-288.165335
 30
0.0
 10
686.311748
 20
-286.411148
 30
0.0
 10
685.614900
 20
-284.728807
 30
0.0
 10
684.374502
 20
-283.488409
 30
0.0
  0
SPLINE
  5
15c
100
AcDbEntity
  8
top-2
 62
7
100
AcDbSpline
 70
8
 71
3
 72
8
 73
4
 74
0
 40
0
 40
0
 40
0
 40
0
 40
1
 40
1
 40
1
 40
1
 10
684.374502
 20
-283.488409
 30
0.0
 10
683.134103
 20
-282.248011
 30
0.0
 10
681.451763
 20
-281.551162
 30
0.0
 10
679.697575
 20
-281.551162
 30
0.0
  0
LWPOLYLINE
  5
15d
100
AcDbEntity
  8
top-2
 62
7
100
AcDbPolyline
 90
1
 70
1
 10
395.333518
 20
-281.551162
 30
0.0
  0
LWPOLYLINE
  5
15e
100
AcDbEntity
  8
top-2
 62
7
100
AcDbPolyline
 90
1
 70
1
 10
679.697575
 20
-281.551162
 30
0.0
  0
ENDSEC
  0
SECTION
  2
OBJECTS
  0
DICTIONARY
  5
C
330
0
100
AcDbDictionary
  3
ACAD_GROUP
350
D
  3
ACAD_MLINESTYLE
350
17
  0
DICTIONARY
  5
D
330
C
100
AcDbDictionary
  0
DICTIONARY
  5
1A
330
C
100
AcDbDictionary
  0
DICTIONARY
  5
17
330
C
100
AcDbDictionary
  3
STANDARD
350
18
  0
DICTIONARY
  5
19
330
C
100
AcDbDictionary
  0
ENDSEC
  0
EOF
