<?xml version="1.0" encoding="UTF-8" standalone="no"?>
<!-- Generated by SVGo -->

<svg
   width="302.077mm"
   height="160.260mm"
   viewBox="0.000 0.000 302.077 160.260"
   version="1.1"
   id="svg28"
   sodipodi:docname="top-0.svg"
   inkscape:version="1.2 (dc2aedaf03, 2022-05-15)"
   xmlns:inkscape="http://www.inkscape.org/namespaces/inkscape"
   xmlns:sodipodi="http://sodipodi.sourceforge.net/DTD/sodipodi-0.dtd"
   xmlns="http://www.w3.org/2000/svg"
   xmlns:svg="http://www.w3.org/2000/svg"
   xmlns:rdf="http://www.w3.org/1999/02/22-rdf-syntax-ns#"
   xmlns:cc="http://creativecommons.org/ns#"
   xmlns:dc="http://purl.org/dc/elements/1.1/">
  <title
     id="title946">Eliza</title>
  <defs
     id="defs32">
    <inkscape:path-effect
       effect="offset"
       id="path-effect1072"
       is_visible="true"
       lpeversion="1"
       linejoin_type="miter"
       unit="mm"
       offset="1"
       miter_limit="4"
       attempt_force_join="false"
       update_on_knot_move="true" />
    <inkscape:path-effect
       effect="offset"
       id="path-effect1068"
       is_visible="true"
       lpeversion="1"
       linejoin_type="miter"
       unit="mm"
       offset="1"
       miter_limit="4"
       attempt_force_join="false"
       update_on_knot_move="true" />
    <inkscape:path-effect
       effect="offset"
       id="path-effect2555"
       is_visible="true"
       lpeversion="1"
       linejoin_type="miter"
       unit="mm"
       offset="-11"
       miter_limit="4"
       attempt_force_join="false"
       update_on_knot_move="true" />
    <inkscape:path-effect
       effect="offset"
       id="path-effect2513"
       is_visible="true"
       lpeversion="1"
       linejoin_type="miter"
       unit="mm"
       offset="0"
       miter_limit="4"
       attempt_force_join="false"
       update_on_knot_move="true" />
    <inkscape:path-effect
       effect="offset"
       id="path-effect2409"
       is_visible="true"
       lpeversion="1"
       linejoin_type="miter"
       unit="mm"
       offset="-11"
       miter_limit="4"
       attempt_force_join="false"
       update_on_knot_move="true" />
    <inkscape:path-effect
       effect="offset"
       id="path-effect2269"
       is_visible="true"
       lpeversion="1"
       linejoin_type="miter"
       unit="mm"
       offset="-11"
       miter_limit="4"
       attempt_force_join="false"
       update_on_knot_move="true" />
    <inkscape:path-effect
       effect="offset"
       id="path-effect2038"
       is_visible="true"
       lpeversion="1"
       linejoin_type="miter"
       unit="mm"
       offset="-1"
       miter_limit="4"
       attempt_force_join="false"
       update_on_knot_move="true" />
    <inkscape:path-effect
       effect="offset"
       id="path-effect1994"
       is_visible="true"
       lpeversion="1"
       linejoin_type="miter"
       unit="mm"
       offset="2"
       miter_limit="4"
       attempt_force_join="false"
       update_on_knot_move="true" />
    <inkscape:path-effect
       effect="offset"
       id="path-effect1795"
       is_visible="true"
       lpeversion="1"
       linejoin_type="miter"
       unit="mm"
       offset="-1"
       miter_limit="4"
       attempt_force_join="false"
       update_on_knot_move="true" />
    <inkscape:path-effect
       effect="offset"
       id="path-effect1793"
       is_visible="true"
       lpeversion="1"
       linejoin_type="miter"
       unit="mm"
       offset="1"
       miter_limit="4"
       attempt_force_join="false"
       update_on_knot_move="true" />
    <inkscape:path-effect
       effect="offset"
       id="path-effect1789"
       is_visible="true"
       lpeversion="1"
       linejoin_type="miter"
       unit="mm"
       offset="1"
       miter_limit="4"
       attempt_force_join="false"
       update_on_knot_move="true" />
    <inkscape:path-effect
       effect="offset"
       id="path-effect1739"
       is_visible="true"
       lpeversion="1"
       linejoin_type="miter"
       unit="mm"
       offset="-1"
       miter_limit="4"
       attempt_force_join="false"
       update_on_knot_move="true" />
    <inkscape:path-effect
       effect="offset"
       id="path-effect1737"
       is_visible="true"
       lpeversion="1"
       linejoin_type="miter"
       unit="mm"
       offset="1"
       miter_limit="4"
       attempt_force_join="false"
       update_on_knot_move="true" />
    <inkscape:path-effect
       effect="offset"
       id="path-effect1733"
       is_visible="true"
       lpeversion="1"
       linejoin_type="miter"
       unit="mm"
       offset="1"
       miter_limit="4"
       attempt_force_join="false"
       update_on_knot_move="true" />
    <inkscape:path-effect
       effect="offset"
       id="path-effect1683"
       is_visible="true"
       lpeversion="1"
       linejoin_type="miter"
       unit="mm"
       offset="3"
       miter_limit="4"
       attempt_force_join="false"
       update_on_knot_move="true" />
    <inkscape:path-effect
       effect="offset"
       id="path-effect968"
       is_visible="true"
       lpeversion="1"
       linejoin_type="miter"
       unit="mm"
       offset="-3"
       miter_limit="4"
       attempt_force_join="false"
       update_on_knot_move="true" />
    <inkscape:path-effect
       effect="offset"
       id="path-effect948"
       is_visible="true"
       lpeversion="1"
       linejoin_type="miter"
       unit="mm"
       offset="-3"
       miter_limit="4"
       attempt_force_join="false"
       update_on_knot_move="true" />
    <inkscape:path-effect
       effect="offset"
       id="path-effect1032"
       is_visible="true"
       lpeversion="1"
       linejoin_type="miter"
       unit="mm"
       offset="-2"
       miter_limit="4"
       attempt_force_join="false"
       update_on_knot_move="true" />
    <inkscape:path-effect
       effect="offset"
       id="path-effect988"
       is_visible="true"
       lpeversion="1"
       linejoin_type="miter"
       unit="mm"
       offset="-1"
       miter_limit="4"
       attempt_force_join="false"
       update_on_knot_move="true" />
    <inkscape:path-effect
       effect="offset"
       id="path-effect8589"
       is_visible="true"
       lpeversion="1"
       linejoin_type="miter"
       unit="mm"
       offset="-11"
       miter_limit="4"
       attempt_force_join="false"
       update_on_knot_move="true" />
    <inkscape:path-effect
       effect="offset"
       id="path-effect7616"
       is_visible="true"
       lpeversion="1"
       linejoin_type="miter"
       unit="mm"
       offset="-11"
       miter_limit="4"
       attempt_force_join="false"
       update_on_knot_move="true" />
    <inkscape:path-effect
       effect="offset"
       id="path-effect6560"
       is_visible="true"
       lpeversion="1"
       linejoin_type="miter"
       unit="mm"
       offset="-11"
       miter_limit="4"
       attempt_force_join="false"
       update_on_knot_move="true" />
    <inkscape:path-effect
       effect="offset"
       id="path-effect6518"
       is_visible="true"
       lpeversion="1"
       linejoin_type="miter"
       unit="mm"
       offset="0"
       miter_limit="4"
       attempt_force_join="false"
       update_on_knot_move="true" />
    <inkscape:path-effect
       effect="offset"
       id="path-effect2519"
       is_visible="true"
       lpeversion="1"
       linejoin_type="miter"
       unit="mm"
       offset="1"
       miter_limit="4"
       attempt_force_join="false"
       update_on_knot_move="true" />
    <inkscape:path-effect
       effect="offset"
       id="path-effect2517"
       is_visible="true"
       lpeversion="1"
       linejoin_type="miter"
       unit="mm"
       offset="1"
       miter_limit="4"
       attempt_force_join="false"
       update_on_knot_move="true" />
    <inkscape:path-effect
       effect="offset"
       id="path-effect2672"
       is_visible="true"
       lpeversion="1"
       linejoin_type="miter"
       unit="mm"
       offset="-11"
       miter_limit="4"
       attempt_force_join="false"
       update_on_knot_move="true" />
    <inkscape:path-effect
       effect="offset"
       id="path-effect2630"
       is_visible="true"
       lpeversion="1"
       linejoin_type="miter"
       unit="mm"
       offset="-11"
       miter_limit="4"
       attempt_force_join="false"
       update_on_knot_move="true" />
    <inkscape:path-effect
       effect="offset"
       id="path-effect1591"
       is_visible="true"
       lpeversion="1"
       linejoin_type="miter"
       unit="mm"
       offset="-11"
       miter_limit="4"
       attempt_force_join="false"
       update_on_knot_move="true" />
    <inkscape:path-effect
       effect="offset"
       id="path-effect1468"
       is_visible="true"
       lpeversion="1"
       linejoin_type="miter"
       unit="mm"
       offset="0"
       miter_limit="4"
       attempt_force_join="false"
       update_on_knot_move="true" />
    <inkscape:path-effect
       effect="offset"
       id="path-effect1326"
       is_visible="true"
       lpeversion="1"
       linejoin_type="miter"
       unit="mm"
       offset="0.5"
       miter_limit="4"
       attempt_force_join="false"
       update_on_knot_move="true" />
    <inkscape:path-effect
       effect="offset"
       id="path-effect1324"
       is_visible="true"
       lpeversion="1"
       linejoin_type="miter"
       unit="mm"
       offset="0.5"
       miter_limit="4"
       attempt_force_join="false"
       update_on_knot_move="true" />
    <inkscape:path-effect
       effect="offset"
       id="path-effect2952"
       is_visible="true"
       lpeversion="1"
       linejoin_type="miter"
       unit="mm"
       offset="-0.5"
       miter_limit="4"
       attempt_force_join="false"
       update_on_knot_move="true" />
    <inkscape:path-effect
       effect="offset"
       id="path-effect2952-3"
       is_visible="true"
       lpeversion="1"
       linejoin_type="miter"
       unit="mm"
       offset="-0.5"
       miter_limit="4"
       attempt_force_join="false"
       update_on_knot_move="true" />
    <inkscape:path-effect
       effect="offset"
       id="path-effect2952-6"
       is_visible="true"
       lpeversion="1"
       linejoin_type="miter"
       unit="mm"
       offset="-0.5"
       miter_limit="4"
       attempt_force_join="false"
       update_on_knot_move="true" />
    <inkscape:path-effect
       effect="offset"
       id="path-effect2952-7"
       is_visible="true"
       lpeversion="1"
       linejoin_type="miter"
       unit="mm"
       offset="-0.5"
       miter_limit="4"
       attempt_force_join="false"
       update_on_knot_move="true" />
  </defs>
  <sodipodi:namedview
     id="namedview30"
     pagecolor="#505050"
     bordercolor="#eeeeee"
     borderopacity="1"
     inkscape:pageshadow="0"
     inkscape:pageopacity="0"
     inkscape:pagecheckerboard="0"
     inkscape:document-units="mm"
     showgrid="false"
     showguides="true"
     inkscape:zoom="0.84"
     inkscape:cx="528.57143"
     inkscape:cy="317.2619"
     inkscape:window-width="1261"
     inkscape:window-height="1390"
     inkscape:window-x="1285"
     inkscape:window-y="36"
     inkscape:window-maximized="1"
     inkscape:current-layer="layer6"
     inkscape:showpageshadow="0"
     inkscape:deskcolor="#505050" />
  <g
     inkscape:groupmode="layer"
     id="layer6"
     inkscape:label="top-0"
     style="display:inline"
     sodipodi:insensitive="true">
    <path
       id="rect6305-4-4"
       style="display:inline;fill-opacity:0.0014062;stroke:#000000;stroke-width:0.189"
       d="m 20.0945,0.0945 h 240 c 11.08,0 20,8.92 20,20 v 66.89925 c 0,11.08 -9.12644,17.87114 -20,20 0,0 -110.13305,23.80077 -120.0945,23.8125 -9.91768,0.0117 -119.9055,-23.8125 -119.9055,-23.8125 -10.867762,-2.15827 -20,-8.92 -20,-20 V 20.0945 c 0,-11.08 8.92,-20 20,-20 z"
       inkscape:original-d="m 20.0945,0.0945 h 240 c 11.08,0 20,8.92 20,20 v 66.89925 c 0,11.08 -9.12644,17.87114 -20,20 0,0 -110.13305,23.80077 -120.0945,23.8125 -9.91768,0.0117 -119.9055,-23.8125 -119.9055,-23.8125 -10.8677621,-2.15827 -20,-8.92 -20,-20 V 20.0945 c 0,-11.08 8.92,-20 20,-20 z"
       sodipodi:nodetypes="ssssssssss" />
    <path
       id="path1418-65-9-3-6-7-5-3-9-7"
       style="display:inline;fill-opacity:0.0014062;stroke:#000000;stroke-width:0.188953"
       d="m 127.49952,16.0945 a 2.5000241,2.5000236 0 0 1 -2.50002,2.500023 2.5000241,2.5000236 0 0 1 -2.50003,-2.500023 2.5000241,2.5000236 0 0 1 2.50003,-2.500024 2.5000241,2.5000236 0 0 1 2.50002,2.500024 z" />
    <path
       id="path1418-65-9-3-6-7-5-3-9-7-9"
       style="display:inline;fill-opacity:0.0014062;stroke:#000000;stroke-width:0.188953"
       d="m 127.49952,31.094501 a 2.5000236,2.5000236 0 0 1 -2.50002,2.500024 2.5000236,2.5000236 0 0 1 -2.50003,-2.500024 2.5000236,2.5000236 0 0 1 2.50003,-2.500023 2.5000236,2.5000236 0 0 1 2.50002,2.500023 z" />
    <path
       id="path1418-65-9-3-6-7-5-3-9-7-9-3"
       style="display:inline;fill-opacity:0.0014062;stroke:#000000;stroke-width:0.188953"
       d="m 157.49952,31.094501 a 2.5000241,2.5000236 0 0 1 -2.50002,2.500024 2.5000241,2.5000236 0 0 1 -2.50003,-2.500024 2.5000241,2.5000236 0 0 1 2.50003,-2.500023 2.5000241,2.5000236 0 0 1 2.50002,2.500023 z" />
    <path
       id="path1418-65-9-3-6-7-5-3-9-7-0"
       style="display:inline;fill-opacity:0.0014062;stroke:#000000;stroke-width:0.188953"
       d="m 157.49952,16.0945 a 2.5000241,2.5000236 0 0 1 -2.50002,2.500023 2.5000241,2.5000236 0 0 1 -2.50003,-2.500023 2.5000241,2.5000236 0 0 1 2.50003,-2.500024 2.5000241,2.5000236 0 0 1 2.50002,2.500024 z" />
    <path
       id="polygon4-7"
       style="fill:none;stroke:#000000;stroke-width:0.05mm"
       d="m 15.539062,14.875 -4.107421,20.648438 4.669921,0.929687 -3.716796,18.683594 4.671875,0.927734 -3.716797,18.685547 9.341797,1.857422 -3.716797,18.683594 20.646484,4.107422 3.716797,-18.683594 31.716797,6.308594 13.03125,2.591796 -3.716797,18.683596 30.203125,6.00976 v -0.002 l 18.46875,3.67383 4.10742,-20.646486 -4.66992,-0.929687 3.71484,-18.683594 -9.34179,-1.857422 3.71679,-18.683593 -4.67187,-0.929688 3.7168,-18.683594 z" />
    <path
       id="polygon6-4"
       style="fill:none;stroke:#000000;stroke-width:0.05mm"
       d="m 264.72656,14.818359 -85.05664,16.919922 -38.35156,7.628907 4.10742,20.646484 4.67188,-0.929688 3.32617,16.722657 -9.34375,1.857421 3.7168,18.683594 -4.66993,0.929688 4.10743,20.646486 48.67187,-9.68164 -3.7168,-18.685549 30.51953,-6.070313 v 0.002 l 14.22852,-2.832031 3.7168,18.685547 20.64648,-4.107422 -3.7168,-18.683594 4.67188,-0.929687 -3.7168,-18.685547 9.3418,-1.857422 -3.7168,-18.683594 4.67188,-0.929687 z" />
    <path
       id="path1418-65-9"
       style="display:inline;fill-opacity:0.0014062;stroke:#000000;stroke-width:0.189"
       d="m 124.34811,6.1650896 a 1.75,1.75 0 0 1 -1.75,1.75 1.75,1.75 0 0 1 -1.75,-1.75 1.75,1.75 0 0 1 1.75,-1.75 1.75,1.75 0 0 1 1.75,1.75 z" />
    <path
       id="path1418-6-9-6-3-0"
       style="display:inline;fill-opacity:0.0014062;stroke:#000000;stroke-width:0.189"
       d="m 7.6236668,48.08614 a 1.75,1.75 0 0 1 -1.75,1.75 1.75,1.75 0 0 1 -1.75,-1.75 1.75,1.75 0 0 1 1.75,-1.75 1.75,1.75 0 0 1 1.75,1.75 z" />
    <path
       id="path1418-6-9-6-7-7-91"
       style="display:inline;fill-opacity:0.0014062;stroke:#000000;stroke-width:0.189"
       d="m 276.06534,48.08614 a 1.75,1.75 0 0 1 -1.75,1.75 1.75,1.75 0 0 1 -1.75,-1.75 1.75,1.75 0 0 1 1.75,-1.75 1.75,1.75 0 0 1 1.75,1.75 z" />
    <path
       id="path1418-6-5-5-7"
       style="display:inline;fill-opacity:0.0014062;stroke:#000000;stroke-width:0.189"
       d="m 12.556444,10.798424 a 1.75,1.75 0 0 1 -1.75,1.75 1.75,1.75 0 0 1 -1.7499998,-1.75 1.75,1.75 0 0 1 1.7499998,-1.7500002 1.75,1.75 0 0 1 1.75,1.7500002 z" />
    <path
       id="path1418-6-5-6-2-71"
       style="display:inline;fill-opacity:0.0014062;stroke:#000000;stroke-width:0.189"
       d="m 271.17313,10.798654 a 1.75,1.75 0 0 1 -1.75,1.75 1.75,1.75 0 0 1 -1.75,-1.75 1.75,1.75 0 0 1 1.75,-1.7500004 1.75,1.75 0 0 1 1.75,1.7500004 z" />
    <path
       id="path1418-6-5-5-0-1"
       style="display:inline;fill-opacity:0.0014062;stroke:#000000;stroke-width:0.189"
       d="m 12.556665,95.097878 a 1.75,1.75 0 0 1 -1.75,1.75 1.75,1.75 0 0 1 -1.7499996,-1.75 1.75,1.75 0 0 1 1.7499996,-1.75 1.75,1.75 0 0 1 1.75,1.75 z" />
    <path
       id="path1418-6-5-6-2-7-5"
       style="display:inline;fill-opacity:0.0014062;stroke:#000000;stroke-width:0.189"
       d="m 271.17334,95.09803 a 1.75,1.75 0 0 1 -1.75,1.75 1.75,1.75 0 0 1 -1.75,-1.75 1.75,1.75 0 0 1 1.75,-1.75 1.75,1.75 0 0 1 1.75,1.75 z" />
    <path
       id="path1418-3-4-9"
       style="display:inline;fill-opacity:0.0014062;stroke:#000000;stroke-width:0.189"
       d="m 159.5858,6.1650896 a 1.75,1.75 0 0 1 -1.75,1.75 1.75,1.75 0 0 1 -1.75,-1.75 1.75,1.75 0 0 1 1.75,-1.75 1.75,1.75 0 0 1 1.75,1.75 z" />
    <path
       id="path1418-65-8-7"
       style="display:inline;fill-opacity:0.0014062;stroke:#000000;stroke-width:0.189"
       d="m 104.3485,116.64563 a 1.75,1.75 0 0 1 -1.75,1.75 1.75,1.75 0 0 1 -1.75,-1.75 1.75,1.75 0 0 1 1.75,-1.75 1.75,1.75 0 0 1 1.75,1.75 z" />
    <path
       id="path1418-3-4-6-76"
       style="display:inline;fill-opacity:0.0014062;stroke:#000000;stroke-width:0.189"
       d="m 179.5865,116.64563 a 1.75,1.75 0 0 1 -1.75,1.75 1.75,1.75 0 0 1 -1.75,-1.75 1.75,1.75 0 0 1 1.75,-1.75 1.75,1.75 0 0 1 1.75,1.75 z" />
  </g>
  <metadata
     id="metadata944">
    <rdf:RDF>
      <cc:Work
         rdf:about="">
        <dc:title>Eliza</dc:title>
        <dc:creator>
          <cc:Agent>
            <dc:title>Cody Bloemhard</dc:title>
          </cc:Agent>
        </dc:creator>
        <dc:rights>
          <cc:Agent>
            <dc:title>GPL v3</dc:title>
          </cc:Agent>
        </dc:rights>
      </cc:Work>
    </rdf:RDF>
  </metadata>
</svg>
