<?xml version="1.0" encoding="UTF-8" standalone="no"?>
<!-- Generated by SVGo -->

<svg
   width="302.077mm"
   height="160.260mm"
   viewBox="0.000 0.000 302.077 160.260"
   version="1.1"
   id="svg28"
   sodipodi:docname="top-1.svg"
   inkscape:version="1.2 (dc2aedaf03, 2022-05-15)"
   xmlns:inkscape="http://www.inkscape.org/namespaces/inkscape"
   xmlns:sodipodi="http://sodipodi.sourceforge.net/DTD/sodipodi-0.dtd"
   xmlns="http://www.w3.org/2000/svg"
   xmlns:svg="http://www.w3.org/2000/svg"
   xmlns:rdf="http://www.w3.org/1999/02/22-rdf-syntax-ns#"
   xmlns:cc="http://creativecommons.org/ns#"
   xmlns:dc="http://purl.org/dc/elements/1.1/">
  <title
     id="title946">Eliza</title>
  <defs
     id="defs32">
    <inkscape:path-effect
       effect="offset"
       id="path-effect2555"
       is_visible="true"
       lpeversion="1"
       linejoin_type="miter"
       unit="mm"
       offset="-11"
       miter_limit="4"
       attempt_force_join="false"
       update_on_knot_move="true" />
    <inkscape:path-effect
       effect="offset"
       id="path-effect2513"
       is_visible="true"
       lpeversion="1"
       linejoin_type="miter"
       unit="mm"
       offset="0"
       miter_limit="4"
       attempt_force_join="false"
       update_on_knot_move="true" />
    <inkscape:path-effect
       effect="offset"
       id="path-effect2409"
       is_visible="true"
       lpeversion="1"
       linejoin_type="miter"
       unit="mm"
       offset="-11"
       miter_limit="4"
       attempt_force_join="false"
       update_on_knot_move="true" />
    <inkscape:path-effect
       effect="offset"
       id="path-effect2269"
       is_visible="true"
       lpeversion="1"
       linejoin_type="miter"
       unit="mm"
       offset="-11"
       miter_limit="4"
       attempt_force_join="false"
       update_on_knot_move="true" />
    <inkscape:path-effect
       effect="offset"
       id="path-effect2038"
       is_visible="true"
       lpeversion="1"
       linejoin_type="miter"
       unit="mm"
       offset="-1"
       miter_limit="4"
       attempt_force_join="false"
       update_on_knot_move="true" />
    <inkscape:path-effect
       effect="offset"
       id="path-effect1994"
       is_visible="true"
       lpeversion="1"
       linejoin_type="miter"
       unit="mm"
       offset="2"
       miter_limit="4"
       attempt_force_join="false"
       update_on_knot_move="true" />
    <inkscape:path-effect
       effect="offset"
       id="path-effect1795"
       is_visible="true"
       lpeversion="1"
       linejoin_type="miter"
       unit="mm"
       offset="-1"
       miter_limit="4"
       attempt_force_join="false"
       update_on_knot_move="true" />
    <inkscape:path-effect
       effect="offset"
       id="path-effect1793"
       is_visible="true"
       lpeversion="1"
       linejoin_type="miter"
       unit="mm"
       offset="1"
       miter_limit="4"
       attempt_force_join="false"
       update_on_knot_move="true" />
    <inkscape:path-effect
       effect="offset"
       id="path-effect1789"
       is_visible="true"
       lpeversion="1"
       linejoin_type="miter"
       unit="mm"
       offset="1"
       miter_limit="4"
       attempt_force_join="false"
       update_on_knot_move="true" />
    <inkscape:path-effect
       effect="offset"
       id="path-effect1739"
       is_visible="true"
       lpeversion="1"
       linejoin_type="miter"
       unit="mm"
       offset="-1"
       miter_limit="4"
       attempt_force_join="false"
       update_on_knot_move="true" />
    <inkscape:path-effect
       effect="offset"
       id="path-effect1737"
       is_visible="true"
       lpeversion="1"
       linejoin_type="miter"
       unit="mm"
       offset="1"
       miter_limit="4"
       attempt_force_join="false"
       update_on_knot_move="true" />
    <inkscape:path-effect
       effect="offset"
       id="path-effect1733"
       is_visible="true"
       lpeversion="1"
       linejoin_type="miter"
       unit="mm"
       offset="1"
       miter_limit="4"
       attempt_force_join="false"
       update_on_knot_move="true" />
    <inkscape:path-effect
       effect="offset"
       id="path-effect1683"
       is_visible="true"
       lpeversion="1"
       linejoin_type="miter"
       unit="mm"
       offset="3"
       miter_limit="4"
       attempt_force_join="false"
       update_on_knot_move="true" />
    <inkscape:path-effect
       effect="offset"
       id="path-effect968"
       is_visible="true"
       lpeversion="1"
       linejoin_type="miter"
       unit="mm"
       offset="-3"
       miter_limit="4"
       attempt_force_join="false"
       update_on_knot_move="true" />
    <inkscape:path-effect
       effect="offset"
       id="path-effect948"
       is_visible="true"
       lpeversion="1"
       linejoin_type="miter"
       unit="mm"
       offset="-3"
       miter_limit="4"
       attempt_force_join="false"
       update_on_knot_move="true" />
    <inkscape:path-effect
       effect="offset"
       id="path-effect1032"
       is_visible="true"
       lpeversion="1"
       linejoin_type="miter"
       unit="mm"
       offset="-2"
       miter_limit="4"
       attempt_force_join="false"
       update_on_knot_move="true" />
    <inkscape:path-effect
       effect="offset"
       id="path-effect988"
       is_visible="true"
       lpeversion="1"
       linejoin_type="miter"
       unit="mm"
       offset="-1"
       miter_limit="4"
       attempt_force_join="false"
       update_on_knot_move="true" />
    <inkscape:path-effect
       effect="offset"
       id="path-effect8589"
       is_visible="true"
       lpeversion="1"
       linejoin_type="miter"
       unit="mm"
       offset="-11"
       miter_limit="4"
       attempt_force_join="false"
       update_on_knot_move="true" />
    <inkscape:path-effect
       effect="offset"
       id="path-effect7616"
       is_visible="true"
       lpeversion="1"
       linejoin_type="miter"
       unit="mm"
       offset="-11"
       miter_limit="4"
       attempt_force_join="false"
       update_on_knot_move="true" />
    <inkscape:path-effect
       effect="offset"
       id="path-effect6560"
       is_visible="true"
       lpeversion="1"
       linejoin_type="miter"
       unit="mm"
       offset="-11"
       miter_limit="4"
       attempt_force_join="false"
       update_on_knot_move="true" />
    <inkscape:path-effect
       effect="offset"
       id="path-effect6518"
       is_visible="true"
       lpeversion="1"
       linejoin_type="miter"
       unit="mm"
       offset="0"
       miter_limit="4"
       attempt_force_join="false"
       update_on_knot_move="true" />
    <inkscape:path-effect
       effect="offset"
       id="path-effect2519"
       is_visible="true"
       lpeversion="1"
       linejoin_type="miter"
       unit="mm"
       offset="1"
       miter_limit="4"
       attempt_force_join="false"
       update_on_knot_move="true" />
    <inkscape:path-effect
       effect="offset"
       id="path-effect2517"
       is_visible="true"
       lpeversion="1"
       linejoin_type="miter"
       unit="mm"
       offset="1"
       miter_limit="4"
       attempt_force_join="false"
       update_on_knot_move="true" />
    <inkscape:path-effect
       effect="offset"
       id="path-effect2672"
       is_visible="true"
       lpeversion="1"
       linejoin_type="miter"
       unit="mm"
       offset="-11"
       miter_limit="4"
       attempt_force_join="false"
       update_on_knot_move="true" />
    <inkscape:path-effect
       effect="offset"
       id="path-effect2630"
       is_visible="true"
       lpeversion="1"
       linejoin_type="miter"
       unit="mm"
       offset="-11"
       miter_limit="4"
       attempt_force_join="false"
       update_on_knot_move="true" />
    <inkscape:path-effect
       effect="offset"
       id="path-effect1591"
       is_visible="true"
       lpeversion="1"
       linejoin_type="miter"
       unit="mm"
       offset="-11"
       miter_limit="4"
       attempt_force_join="false"
       update_on_knot_move="true" />
    <inkscape:path-effect
       effect="offset"
       id="path-effect1468"
       is_visible="true"
       lpeversion="1"
       linejoin_type="miter"
       unit="mm"
       offset="0"
       miter_limit="4"
       attempt_force_join="false"
       update_on_knot_move="true" />
    <inkscape:path-effect
       effect="offset"
       id="path-effect1326"
       is_visible="true"
       lpeversion="1"
       linejoin_type="miter"
       unit="mm"
       offset="0.5"
       miter_limit="4"
       attempt_force_join="false"
       update_on_knot_move="true" />
    <inkscape:path-effect
       effect="offset"
       id="path-effect1324"
       is_visible="true"
       lpeversion="1"
       linejoin_type="miter"
       unit="mm"
       offset="0.5"
       miter_limit="4"
       attempt_force_join="false"
       update_on_knot_move="true" />
    <inkscape:path-effect
       effect="offset"
       id="path-effect2952"
       is_visible="true"
       lpeversion="1"
       linejoin_type="miter"
       unit="mm"
       offset="-0.5"
       miter_limit="4"
       attempt_force_join="false"
       update_on_knot_move="true" />
    <inkscape:path-effect
       effect="offset"
       id="path-effect2952-3"
       is_visible="true"
       lpeversion="1"
       linejoin_type="miter"
       unit="mm"
       offset="-0.5"
       miter_limit="4"
       attempt_force_join="false"
       update_on_knot_move="true" />
    <inkscape:path-effect
       effect="offset"
       id="path-effect2952-6"
       is_visible="true"
       lpeversion="1"
       linejoin_type="miter"
       unit="mm"
       offset="-0.5"
       miter_limit="4"
       attempt_force_join="false"
       update_on_knot_move="true" />
    <inkscape:path-effect
       effect="offset"
       id="path-effect2952-7"
       is_visible="true"
       lpeversion="1"
       linejoin_type="miter"
       unit="mm"
       offset="-0.5"
       miter_limit="4"
       attempt_force_join="false"
       update_on_knot_move="true" />
  </defs>
  <sodipodi:namedview
     id="namedview30"
     pagecolor="#505050"
     bordercolor="#eeeeee"
     borderopacity="1"
     inkscape:pageshadow="0"
     inkscape:pageopacity="0"
     inkscape:pagecheckerboard="0"
     inkscape:document-units="mm"
     showgrid="false"
     showguides="true"
     inkscape:zoom="0.84"
     inkscape:cx="528.57143"
     inkscape:cy="316.66667"
     inkscape:window-width="2560"
     inkscape:window-height="1440"
     inkscape:window-x="0"
     inkscape:window-y="0"
     inkscape:window-maximized="1"
     inkscape:current-layer="g1729"
     inkscape:showpageshadow="0"
     inkscape:deskcolor="#505050" />
  <g
     inkscape:groupmode="layer"
     id="g1729"
     inkscape:label="top-1"
     style="display:inline"
     sodipodi:insensitive="true">
    <path
       id="path1703"
       style="display:inline;fill-opacity:0.0014062;stroke:#000000;stroke-width:0.189"
       d="M 19.097361,0.0969687 C 14.525859,0.0752029 9.9721198,1.7771288 6.5478457,4.8082899 3.0015792,7.899994 0.6865138,12.356021 0.2067025,17.037249 c -0.1689958,1.548384 -0.091551,3.107512 -0.1093417,4.661606 8.064e-4,21.504163 -0.00161,43.008338 0.00121,64.512494 0.019937,3.213853 0.9571226,6.427931 2.7598512,9.09746 0.952971,1.408754 2.0886199,2.707301 3.4130391,3.778291 0.672837,0.49556 1.3462057,0.99006 1.9902137,1.52304 1.686541,1.16768 3.5458242,2.0732 5.4561342,2.81299 1.980929,0.76784 4.043958,1.29915 6.125062,1.71346 8.107363,1.7648 16.226129,3.47653 24.340519,5.2086 20.525978,4.35021 41.061793,8.65754 61.64365,12.73657 8.28239,1.62667 16.56732,3.2488 24.89221,4.64555 2.52522,0.4051 5.05068,0.83713 7.60067,1.05457 1.36199,0.0972 2.71763,-0.14101 4.06578,-0.30231 5.06177,-0.7118 10.08896,-1.64574 15.11519,-2.57038 14.0448,-2.63002 28.04625,-5.48489 42.04221,-8.36167 17.83267,-3.67555 35.64455,-7.45113 53.45048,-11.25382 2.43987,-0.53132 4.88316,-1.04695 7.32165,-1.58188 4.18126,-0.99828 8.25513,-2.75005 11.55894,-5.54252 2.54764,-2.14379 4.55604,-4.977704 5.50746,-8.184915 0.55706,-1.816259 0.75377,-3.724692 0.71573,-5.619259 -10e-4,-22.171496 0.002,-44.343008 -0.002,-66.514493 -0.036,-4.596263 -1.8179,-9.151079 -4.92271,-12.5419779 -3.15832,-3.5027601 -7.66754,-5.7431447 -12.3682,-6.1367111 -1.4902,-0.1203801 -2.98626,-0.060357 -4.47964,-0.074975 -79.07597,0 -158.15193,0 -237.227899,0 z"
       sodipodi:nodetypes="ssssssssss" />
    <path
       id="path1705"
       style="fill:none;stroke:#000000;stroke-width:0.05mm"
       d="m 14.541109,13.878 -4.107421,20.648438 4.671874,0.929687 -3.716796,18.683594 4.671875,0.929687 -3.716797,18.683594 9.341797,1.857422 -3.716797,18.683594 20.646484,4.107424 3.716797,-18.683596 31.716797,6.308594 13.03125,2.591796 -3.71875,18.683596 30.205078,6.00976 v -0.002 l 18.46875,3.67383 4.10742,-20.646486 -4.66992,-0.929687 3.71484,-18.683594 -9.34179,-1.857422 3.71679,-18.683593 -4.67187,-0.929688 3.7168,-18.683594 z" />
    <path
       id="path1707"
       style="fill:none;stroke:#000000;stroke-width:0.05mm"
       d="m 263.73056,13.821359 -85.05859,16.919922 -38.34961,7.628907 4.10742,20.646484 4.67188,-0.927734 3.32617,16.720703 -9.34375,1.857421 3.7168,18.683594 -4.66993,0.929688 4.10743,20.646486 48.67187,-9.68164 -3.7168,-18.685549 30.51953,-6.070313 v 0.002 l 14.22852,-2.832031 3.7168,18.685553 20.64453,-4.107428 -3.71485,-18.683594 4.66993,-0.929687 -3.7168,-18.683594 9.3418,-1.859375 -3.71485,-18.683594 4.66992,-0.929687 z" />
    <path
       id="circle1709"
       style="display:inline;fill-opacity:0.0014062;stroke:#000000;stroke-width:0.189"
       d="m 123.35172,5.168308 a 1.75,1.75 0 0 1 -1.75,1.75 1.75,1.75 0 0 1 -1.75,-1.75 1.75,1.75 0 0 1 1.75,-1.75 1.75,1.75 0 0 1 1.75,1.75 z" />
    <path
       id="circle1711"
       style="display:inline;fill-opacity:0.0014062;stroke:#000000;stroke-width:0.189"
       d="m 6.6272775,47.089357 a 1.75,1.75 0 0 1 -1.75,1.75 1.75,1.75 0 0 1 -1.75,-1.75 1.75,1.75 0 0 1 1.75,-1.75 1.75,1.75 0 0 1 1.75,1.75 z" />
    <path
       id="circle1713"
       style="display:inline;fill-opacity:0.0014062;stroke:#000000;stroke-width:0.189"
       d="m 275.06894,47.089357 a 1.75,1.75 0 0 1 -1.75,1.75 1.75,1.75 0 0 1 -1.75,-1.75 1.75,1.75 0 0 1 1.75,-1.75 1.75,1.75 0 0 1 1.75,1.75 z" />
    <path
       id="circle1715"
       style="display:inline;fill-opacity:0.0014062;stroke:#000000;stroke-width:0.189"
       d="m 11.560055,9.801642 a 1.75,1.75 0 0 1 -1.7500002,1.75 1.75,1.75 0 0 1 -1.75,-1.75 1.75,1.75 0 0 1 1.75,-1.75 1.75,1.75 0 0 1 1.7500002,1.75 z" />
    <path
       id="circle1717"
       style="display:inline;fill-opacity:0.0014062;stroke:#000000;stroke-width:0.189"
       d="m 270.17673,9.801872 a 1.75,1.75 0 0 1 -1.75,1.75 1.75,1.75 0 0 1 -1.75,-1.75 1.75,1.75 0 0 1 1.75,-1.75 1.75,1.75 0 0 1 1.75,1.75 z" />
    <path
       id="circle1719"
       style="display:inline;fill-opacity:0.0014062;stroke:#000000;stroke-width:0.189"
       d="m 11.560276,94.101099 a 1.75,1.75 0 0 1 -1.7500002,1.75 1.75,1.75 0 0 1 -1.75,-1.75 1.75,1.75 0 0 1 1.75,-1.75 1.75,1.75 0 0 1 1.7500002,1.75 z" />
    <path
       id="circle1721"
       style="display:inline;fill-opacity:0.0014062;stroke:#000000;stroke-width:0.189"
       d="m 270.17694,94.101251 a 1.75,1.75 0 0 1 -1.75,1.75 1.75,1.75 0 0 1 -1.75,-1.75 1.75,1.75 0 0 1 1.75,-1.75 1.75,1.75 0 0 1 1.75,1.75 z" />
    <path
       id="circle1723"
       style="display:inline;fill-opacity:0.0014062;stroke:#000000;stroke-width:0.189"
       d="m 158.58942,5.168308 a 1.75,1.75 0 0 1 -1.75,1.75 1.75,1.75 0 0 1 -1.75,-1.75 1.75,1.75 0 0 1 1.75,-1.75 1.75,1.75 0 0 1 1.75,1.75 z" />
    <path
       id="circle1725"
       style="display:inline;fill-opacity:0.0014062;stroke:#000000;stroke-width:0.189"
       d="m 103.35211,115.64885 a 1.75,1.75 0 0 1 -1.75,1.75 1.75,1.75 0 0 1 -1.75,-1.75 1.75,1.75 0 0 1 1.75,-1.75 1.75,1.75 0 0 1 1.75,1.75 z" />
    <path
       id="circle1727"
       style="display:inline;fill-opacity:0.0014062;stroke:#000000;stroke-width:0.189"
       d="m 178.59012,115.64885 a 1.75,1.75 0 0 1 -1.75,1.75 1.75,1.75 0 0 1 -1.75,-1.75 1.75,1.75 0 0 1 1.75,-1.75 1.75,1.75 0 0 1 1.75,1.75 z" />
  </g>
  <metadata
     id="metadata944">
    <rdf:RDF>
      <cc:Work
         rdf:about="">
        <dc:title>Eliza</dc:title>
        <dc:creator>
          <cc:Agent>
            <dc:title>Cody Bloemhard</dc:title>
          </cc:Agent>
        </dc:creator>
        <dc:rights>
          <cc:Agent>
            <dc:title>GPL v3</dc:title>
          </cc:Agent>
        </dc:rights>
      </cc:Work>
    </rdf:RDF>
  </metadata>
</svg>
