  0
SECTION
  2
HEADER
  9
$ACADVER
  1
AC1014
  9
$HANDSEED
  5
FFFF
  9
$MEASUREMENT
 70
     1
  0
ENDSEC
  0
SECTION
  2
TABLES
  0
TABLE
  2
VPORT
  5
8
330
0
100
AcDbSymbolTable
 70
     4
  0
VPORT
  5
2E
330
8
100
AcDbSymbolTableRecord
100
AcDbViewportTableRecord
  2
*ACTIVE
 70
     0
 10
0.0
 20
0.0
 11
1.0
 21
1.0
 12
210.0
 22
148.5
 13
0.0
 23
0.0
 14
10.0
 24
10.0
 15
10.0
 25
10.0
 16
0.0
 26
0.0
 36
1.0
 17
0.0
 27
0.0
 37
0.0
 40
341.0
 41
1.24
 42
50.0
 43
0.0
 44
0.0
 50
0.0
 51
0.0
 71
     0
 72
   100
 73
     1
 74
     3
 75
     0
 76
     0
 77
     0
 78
     0
  0
ENDTAB
  0
TABLE
  2
LTYPE
  5
5
330
0
100
AcDbSymbolTable
 70
     1
  0
LTYPE
  5
14
330
5
100
AcDbSymbolTableRecord
100
AcDbLinetypeTableRecord
  2
BYBLOCK
 70
     0
  3

 72
    65
 73
     0
 40
0.0
  0
LTYPE
  5
15
330
5
100
AcDbSymbolTableRecord
100
AcDbLinetypeTableRecord
  2
BYLAYER
 70
     0
  3

 72
    65
 73
     0
 40
0.0
  0
LTYPE
  5
16
330
5
100
AcDbSymbolTableRecord
100
AcDbLinetypeTableRecord
  2
CONTINUOUS
 70
     0
  3
Solid line
 72
    65
 73
     0
 40
0.0
  0
ENDTAB
  0
TABLE
  2
LAYER
  5
2
100
AcDbSymbolTable
 70
2
  0
LAYER
  5
50
100
AcDbSymbolTableRecord
100
AcDbLayerTableRecord
  2
0
 70
0
  6
CONTINUOUS
  0
LAYER
  5
51
100
AcDbSymbolTableRecord
100
AcDbLayerTableRecord
  2
top-0
 70
0
  6
CONTINUOUS
  0
ENDTAB
  0
TABLE
  2
STYLE
  5
3
330
0
100
AcDbSymbolTable
 70
     1
  0
STYLE
  5
11
330
3
100
AcDbSymbolTableRecord
100
AcDbTextStyleTableRecord
  2
STANDARD
 70
     0
 40
0.0
 41
1.0
 50
0.0
 71
     0
 42
2.5
  3
txt
  4

  0
ENDTAB
  0
TABLE
  2
VIEW
  5
6
330
0
100
AcDbSymbolTable
 70
     0
  0
ENDTAB
  0
TABLE
  2
UCS
  5
7
330
0
100
AcDbSymbolTable
 70
     0
  0
ENDTAB
  0
TABLE
  2
APPID
  5
9
330
0
100
AcDbSymbolTable
 70
     2
  0
APPID
  5
12
330
9
100
AcDbSymbolTableRecord
100
AcDbRegAppTableRecord
  2
ACAD
 70
     0
  0
ENDTAB
  0
TABLE
  2
DIMSTYLE
  5
A
330
0
100
AcDbSymbolTable
 70
     1
  0
DIMSTYLE
105
27
330
A
100
AcDbSymbolTableRecord
100
AcDbDimStyleTableRecord
  2
ISO-25
 70
     0
  3

  4

  5

  6

  7

 40
1.0
 41
2.5
 42
0.625
 43
3.75
 44
1.25
 45
0.0
 46
0.0
 47
0.0
 48
0.0
140
2.5
141
2.5
142
0.0
143
0.03937007874016
144
1.0
145
0.0
146
1.0
147
0.625
 71
     0
 72
     0
 73
     0
 74
     0
 75
     0
 76
     0
 77
     1
 78
     8
170
     0
171
     3
172
     1
173
     0
174
     0
175
     0
176
     0
177
     0
178
     0
270
     2
271
     2
272
     2
273
     2
274
     3
340
11
275
     0
280
     0
281
     0
282
     0
283
     0
284
     8
285
     0
286
     0
287
     3
288
     0
  0
ENDTAB
  0
TABLE
  2
BLOCK_RECORD
  5
1
330
0
100
AcDbSymbolTable
 70
     1
  0
BLOCK_RECORD
  5
1F
330
1
100
AcDbSymbolTableRecord
100
AcDbBlockTableRecord
  2
*MODEL_SPACE
  0
BLOCK_RECORD
  5
1B
330
1
100
AcDbSymbolTableRecord
100
AcDbBlockTableRecord
  2
*PAPER_SPACE
  0
ENDTAB
  0
ENDSEC
  0
SECTION
  2
BLOCKS
  0
BLOCK
  5
20
330
1F
100
AcDbEntity
  8
0
100
AcDbBlockBegin
  2
*MODEL_SPACE
 70
     0
 10
0.0
 20
0.0
 30
0.0
  3
*MODEL_SPACE
  1

  0
ENDBLK
  5
21
330
1F
100
AcDbEntity
  8
0
100
AcDbBlockEnd
  0
BLOCK
  5
1C
330
1B
100
AcDbEntity
 67
     1
  8
0
100
AcDbBlockBegin
  2
*PAPER_SPACE
  1

  0
ENDBLK
  5
1D
330
1B
100
AcDbEntity
 67
     1
  8
0
100
AcDbBlockEnd
  0
ENDSEC
  0
SECTION
  2
ENTITIES
  0
SPLINE
  5
100
100
AcDbEntity
  8
top-0
 62
7
100
AcDbSpline
 70
8
 71
3
 72
8
 73
4
 74
0
 40
0
 40
0
 40
0
 40
0
 40
1
 40
1
 40
1
 40
1
 10
737.275748
 20
454.012441
 30
0.0
 10
768.683622
 20
454.012441
 30
0.0
 10
793.968661
 20
428.727402
 30
0.0
 10
793.968661
 20
397.319528
 30
0.0
  0
LWPOLYLINE
  5
101
100
AcDbEntity
  8
top-0
 62
7
100
AcDbPolyline
 90
2
 70
0
 10
56.960787
 20
454.012441
 30
0.0
 10
737.275748
 20
454.012441
 30
0.0
  0
SPLINE
  5
102
100
AcDbEntity
  8
top-0
 62
7
100
AcDbSpline
 70
8
 71
3
 72
8
 73
4
 74
0
 40
0
 40
0
 40
0
 40
0
 40
1
 40
1
 40
1
 40
1
 10
793.968661
 20
207.683858
 30
0.0
 10
793.968661
 20
176.275984
 30
0.0
 10
768.098438
 20
157.025509
 30
0.0
 10
737.275748
 20
150.990945
 30
0.0
  0
SPLINE
  5
103
100
AcDbEntity
  8
top-0
 62
7
100
AcDbSpline
 70
8
 71
3
 72
8
 73
4
 74
0
 40
0
 40
0
 40
0
 40
0
 40
1
 40
1
 40
1
 40
1
 10
737.275748
 20
150.990945
 30
0.0
 10
737.275748
 20
150.990945
 30
0.0
 10
425.087575
 20
83.524195
 30
0.0
 10
396.850394
 20
83.490945
 30
0.0
  0
SPLINE
  5
104
100
AcDbEntity
  8
top-0
 62
7
100
AcDbSpline
 70
8
 71
3
 72
8
 73
4
 74
0
 40
0
 40
0
 40
0
 40
0
 40
1
 40
1
 40
1
 40
1
 10
396.850394
 20
83.490945
 30
0.0
 10
368.737285
 20
83.457780
 30
0.0
 10
56.960787
 20
150.990945
 30
0.0
 10
56.960787
 20
150.990945
 30
0.0
  0
SPLINE
  5
105
100
AcDbEntity
  8
top-0
 62
7
100
AcDbSpline
 70
8
 71
3
 72
8
 73
4
 74
0
 40
0
 40
0
 40
0
 40
0
 40
1
 40
1
 40
1
 40
1
 10
56.960787
 20
150.990945
 30
0.0
 10
26.154533
 20
157.108876
 30
0.0
 10
0.267874
 20
176.275984
 30
0.0
 10
0.267874
 20
207.683858
 30
0.0
  0
LWPOLYLINE
  5
106
100
AcDbEntity
  8
top-0
 62
7
100
AcDbPolyline
 90
2
 70
0
 10
793.968661
 20
397.319528
 30
0.0
 10
793.968661
 20
207.683858
 30
0.0
  0
SPLINE
  5
107
100
AcDbEntity
  8
top-0
 62
7
100
AcDbSpline
 70
8
 71
3
 72
8
 73
4
 74
0
 40
0
 40
0
 40
0
 40
0
 40
1
 40
1
 40
1
 40
1
 10
0.267874
 20
397.319528
 30
0.0
 10
0.267874
 20
428.727402
 30
0.0
 10
25.552913
 20
454.012441
 30
0.0
 10
56.960787
 20
454.012441
 30
0.0
  0
LWPOLYLINE
  5
108
100
AcDbEntity
  8
top-0
 62
7
100
AcDbPolyline
 90
2
 70
0
 10
0.267874
 20
207.683858
 30
0.0
 10
0.267874
 20
397.319528
 30
0.0
  0
SPLINE
  5
109
100
AcDbEntity
  8
top-0
 62
7
100
AcDbSpline
 70
8
 71
3
 72
8
 73
4
 74
0
 40
0
 40
0
 40
0
 40
0
 40
1
 40
1
 40
1
 40
1
 10
361.415962
 20
408.658110
 30
0.0
 10
361.415961
 20
404.744250
 30
0.0
 10
358.243153
 20
401.571437
 30
0.0
 10
354.329291
 20
401.571431
 30
0.0
  0
SPLINE
  5
10a
100
AcDbEntity
  8
top-0
 62
7
100
AcDbSpline
 70
8
 71
3
 72
8
 73
4
 74
0
 40
0
 40
0
 40
0
 40
0
 40
1
 40
1
 40
1
 40
1
 10
354.329291
 20
401.571431
 30
0.0
 10
352.449784
 20
401.571426
 30
0.0
 10
350.647254
 20
402.318055
 30
0.0
 10
349.318240
 20
403.647065
 30
0.0
  0
SPLINE
  5
10b
100
AcDbEntity
  8
top-0
 62
7
100
AcDbSpline
 70
8
 71
3
 72
8
 73
4
 74
0
 40
0
 40
0
 40
0
 40
0
 40
1
 40
1
 40
1
 40
1
 10
349.318240
 20
403.647065
 30
0.0
 10
347.989226
 20
404.976076
 30
0.0
 10
347.242593
 20
406.778603
 30
0.0
 10
347.242592
 20
408.658110
 30
0.0
  0
SPLINE
  5
10c
100
AcDbEntity
  8
top-0
 62
7
100
AcDbSpline
 70
8
 71
3
 72
8
 73
4
 74
0
 40
0
 40
0
 40
0
 40
0
 40
1
 40
1
 40
1
 40
1
 10
347.242592
 20
408.658110
 30
0.0
 10
347.242592
 20
410.537618
 30
0.0
 10
347.989224
 20
412.340146
 30
0.0
 10
349.318239
 20
413.669157
 30
0.0
  0
SPLINE
  5
10d
100
AcDbEntity
  8
top-0
 62
7
100
AcDbSpline
 70
8
 71
3
 72
8
 73
4
 74
0
 40
0
 40
0
 40
0
 40
0
 40
1
 40
1
 40
1
 40
1
 10
349.318239
 20
413.669157
 30
0.0
 10
350.647253
 20
414.998168
 30
0.0
 10
352.449783
 20
415.744797
 30
0.0
 10
354.329291
 20
415.744792
 30
0.0
  0
SPLINE
  5
10e
100
AcDbEntity
  8
top-0
 62
7
100
AcDbSpline
 70
8
 71
3
 72
8
 73
4
 74
0
 40
0
 40
0
 40
0
 40
0
 40
1
 40
1
 40
1
 40
1
 10
354.329291
 20
415.744792
 30
0.0
 10
358.243154
 20
415.744786
 30
0.0
 10
361.415963
 20
412.571972
 30
0.0
 10
361.415962
 20
408.658110
 30
0.0
  0
LWPOLYLINE
  5
10f
100
AcDbEntity
  8
top-0
 62
7
100
AcDbPolyline
 90
1
 70
1
 10
56.960787
 20
454.012441
 30
0.0
  0
SPLINE
  5
110
100
AcDbEntity
  8
top-0
 62
7
100
AcDbSpline
 70
8
 71
3
 72
8
 73
4
 74
0
 40
0
 40
0
 40
0
 40
0
 40
1
 40
1
 40
1
 40
1
 10
361.415962
 20
366.138422
 30
0.0
 10
361.415963
 20
362.224560
 30
0.0
 10
358.243154
 20
359.051746
 30
0.0
 10
354.329291
 20
359.051740
 30
0.0
  0
SPLINE
  5
111
100
AcDbEntity
  8
top-0
 62
7
100
AcDbSpline
 70
8
 71
3
 72
8
 73
4
 74
0
 40
0
 40
0
 40
0
 40
0
 40
1
 40
1
 40
1
 40
1
 10
354.329291
 20
359.051740
 30
0.0
 10
352.449783
 20
359.051735
 30
0.0
 10
350.647253
 20
359.798364
 30
0.0
 10
349.318239
 20
361.127375
 30
0.0
  0
SPLINE
  5
112
100
AcDbEntity
  8
top-0
 62
7
100
AcDbSpline
 70
8
 71
3
 72
8
 73
4
 74
0
 40
0
 40
0
 40
0
 40
0
 40
1
 40
1
 40
1
 40
1
 10
349.318239
 20
361.127375
 30
0.0
 10
347.989225
 20
362.456386
 30
0.0
 10
347.242592
 20
364.258914
 30
0.0
 10
347.242592
 20
366.138422
 30
0.0
  0
SPLINE
  5
113
100
AcDbEntity
  8
top-0
 62
7
100
AcDbSpline
 70
8
 71
3
 72
8
 73
4
 74
0
 40
0
 40
0
 40
0
 40
0
 40
1
 40
1
 40
1
 40
1
 10
347.242592
 20
366.138422
 30
0.0
 10
347.242593
 20
368.017930
 30
0.0
 10
347.989226
 20
369.820457
 30
0.0
 10
349.318240
 20
371.149468
 30
0.0
  0
SPLINE
  5
114
100
AcDbEntity
  8
top-0
 62
7
100
AcDbSpline
 70
8
 71
3
 72
8
 73
4
 74
0
 40
0
 40
0
 40
0
 40
0
 40
1
 40
1
 40
1
 40
1
 10
349.318240
 20
371.149468
 30
0.0
 10
350.647254
 20
372.478479
 30
0.0
 10
352.449784
 20
373.225107
 30
0.0
 10
354.329291
 20
373.225102
 30
0.0
  0
SPLINE
  5
115
100
AcDbEntity
  8
top-0
 62
7
100
AcDbSpline
 70
8
 71
3
 72
8
 73
4
 74
0
 40
0
 40
0
 40
0
 40
0
 40
1
 40
1
 40
1
 40
1
 10
354.329291
 20
373.225102
 30
0.0
 10
358.243153
 20
373.225096
 30
0.0
 10
361.415961
 20
370.052284
 30
0.0
 10
361.415962
 20
366.138422
 30
0.0
  0
LWPOLYLINE
  5
116
100
AcDbEntity
  8
top-0
 62
7
100
AcDbPolyline
 90
1
 70
1
 10
361.415962
 20
408.658110
 30
0.0
  0
SPLINE
  5
117
100
AcDbEntity
  8
top-0
 62
7
100
AcDbSpline
 70
8
 71
3
 72
8
 73
4
 74
0
 40
0
 40
0
 40
0
 40
0
 40
1
 40
1
 40
1
 40
1
 10
446.455332
 20
366.138422
 30
0.0
 10
446.455333
 20
362.224561
 30
0.0
 10
443.282524
 20
359.051747
 30
0.0
 10
439.368661
 20
359.051740
 30
0.0
  0
SPLINE
  5
118
100
AcDbEntity
  8
top-0
 62
7
100
AcDbSpline
 70
8
 71
3
 72
8
 73
4
 74
0
 40
0
 40
0
 40
0
 40
0
 40
1
 40
1
 40
1
 40
1
 10
439.368661
 20
359.051740
 30
0.0
 10
437.489153
 20
359.051736
 30
0.0
 10
435.686623
 20
359.798364
 30
0.0
 10
434.357609
 20
361.127375
 30
0.0
  0
SPLINE
  5
119
100
AcDbEntity
  8
top-0
 62
7
100
AcDbSpline
 70
8
 71
3
 72
8
 73
4
 74
0
 40
0
 40
0
 40
0
 40
0
 40
1
 40
1
 40
1
 40
1
 10
434.357609
 20
361.127375
 30
0.0
 10
433.028595
 20
362.456387
 30
0.0
 10
432.281962
 20
364.258915
 30
0.0
 10
432.281962
 20
366.138422
 30
0.0
  0
SPLINE
  5
11a
100
AcDbEntity
  8
top-0
 62
7
100
AcDbSpline
 70
8
 71
3
 72
8
 73
4
 74
0
 40
0
 40
0
 40
0
 40
0
 40
1
 40
1
 40
1
 40
1
 10
432.281962
 20
366.138422
 30
0.0
 10
432.281963
 20
368.017930
 30
0.0
 10
433.028596
 20
369.820457
 30
0.0
 10
434.357610
 20
371.149467
 30
0.0
  0
SPLINE
  5
11b
100
AcDbEntity
  8
top-0
 62
7
100
AcDbSpline
 70
8
 71
3
 72
8
 73
4
 74
0
 40
0
 40
0
 40
0
 40
0
 40
1
 40
1
 40
1
 40
1
 10
434.357610
 20
371.149467
 30
0.0
 10
435.686624
 20
372.478478
 30
0.0
 10
437.489154
 20
373.225106
 30
0.0
 10
439.368661
 20
373.225102
 30
0.0
  0
SPLINE
  5
11c
100
AcDbEntity
  8
top-0
 62
7
100
AcDbSpline
 70
8
 71
3
 72
8
 73
4
 74
0
 40
0
 40
0
 40
0
 40
0
 40
1
 40
1
 40
1
 40
1
 10
439.368661
 20
373.225102
 30
0.0
 10
443.282523
 20
373.225095
 30
0.0
 10
446.455331
 20
370.052283
 30
0.0
 10
446.455332
 20
366.138422
 30
0.0
  0
LWPOLYLINE
  5
11d
100
AcDbEntity
  8
top-0
 62
7
100
AcDbPolyline
 90
1
 70
1
 10
361.415962
 20
366.138422
 30
0.0
  0
SPLINE
  5
11e
100
AcDbEntity
  8
top-0
 62
7
100
AcDbSpline
 70
8
 71
3
 72
8
 73
4
 74
0
 40
0
 40
0
 40
0
 40
0
 40
1
 40
1
 40
1
 40
1
 10
446.455332
 20
408.658110
 30
0.0
 10
446.455331
 20
404.744250
 30
0.0
 10
443.282523
 20
401.571437
 30
0.0
 10
439.368661
 20
401.571431
 30
0.0
  0
SPLINE
  5
11f
100
AcDbEntity
  8
top-0
 62
7
100
AcDbSpline
 70
8
 71
3
 72
8
 73
4
 74
0
 40
0
 40
0
 40
0
 40
0
 40
1
 40
1
 40
1
 40
1
 10
439.368661
 20
401.571431
 30
0.0
 10
437.489154
 20
401.571426
 30
0.0
 10
435.686624
 20
402.318055
 30
0.0
 10
434.357610
 20
403.647065
 30
0.0
  0
SPLINE
  5
120
100
AcDbEntity
  8
top-0
 62
7
100
AcDbSpline
 70
8
 71
3
 72
8
 73
4
 74
0
 40
0
 40
0
 40
0
 40
0
 40
1
 40
1
 40
1
 40
1
 10
434.357610
 20
403.647065
 30
0.0
 10
433.028596
 20
404.976076
 30
0.0
 10
432.281963
 20
406.778603
 30
0.0
 10
432.281962
 20
408.658110
 30
0.0
  0
SPLINE
  5
121
100
AcDbEntity
  8
top-0
 62
7
100
AcDbSpline
 70
8
 71
3
 72
8
 73
4
 74
0
 40
0
 40
0
 40
0
 40
0
 40
1
 40
1
 40
1
 40
1
 10
432.281962
 20
408.658110
 30
0.0
 10
432.281962
 20
410.537618
 30
0.0
 10
433.028595
 20
412.340146
 30
0.0
 10
434.357609
 20
413.669157
 30
0.0
  0
SPLINE
  5
122
100
AcDbEntity
  8
top-0
 62
7
100
AcDbSpline
 70
8
 71
3
 72
8
 73
4
 74
0
 40
0
 40
0
 40
0
 40
0
 40
1
 40
1
 40
1
 40
1
 10
434.357609
 20
413.669157
 30
0.0
 10
435.686623
 20
414.998168
 30
0.0
 10
437.489153
 20
415.744797
 30
0.0
 10
439.368661
 20
415.744792
 30
0.0
  0
SPLINE
  5
123
100
AcDbEntity
  8
top-0
 62
7
100
AcDbSpline
 70
8
 71
3
 72
8
 73
4
 74
0
 40
0
 40
0
 40
0
 40
0
 40
1
 40
1
 40
1
 40
1
 10
439.368661
 20
415.744792
 30
0.0
 10
443.282524
 20
415.744786
 30
0.0
 10
446.455333
 20
412.571972
 30
0.0
 10
446.455332
 20
408.658110
 30
0.0
  0
LWPOLYLINE
  5
124
100
AcDbEntity
  8
top-0
 62
7
100
AcDbPolyline
 90
1
 70
1
 10
446.455332
 20
366.138422
 30
0.0
  0
LWPOLYLINE
  5
125
100
AcDbEntity
  8
top-0
 62
7
100
AcDbPolyline
 90
1
 70
1
 10
446.455332
 20
408.658110
 30
0.0
  0
LWPOLYLINE
  5
126
100
AcDbEntity
  8
top-0
 62
7
100
AcDbPolyline
 90
23
 70
1
 10
44.047735
 20
412.114961
 30
0.0
 10
32.404652
 20
353.583955
 30
0.0
 10
45.642223
 20
350.948622
 30
0.0
 10
35.106423
 20
297.987253
 30
0.0
 10
48.349534
 20
295.357456
 30
0.0
 10
37.813731
 20
242.390551
 30
0.0
 10
64.294415
 20
237.125418
 30
0.0
 10
53.758613
 20
184.164049
 30
0.0
 10
112.284079
 20
172.520963
 30
0.0
 10
122.819882
 20
225.482332
 30
0.0
 10
212.725763
 20
207.599703
 30
0.0
 10
249.664740
 20
200.252880
 30
0.0
 10
239.128937
 20
147.291506
 30
0.0
 10
324.744094
 20
130.255965
 30
0.0
 10
324.744094
 20
130.261635
 30
0.0
 10
377.096457
 20
119.847628
 30
0.0
 10
388.739537
 20
178.373100
 30
0.0
 10
375.501969
 20
181.008434
 30
0.0
 10
386.032224
 20
233.969803
 30
0.0
 10
359.551559
 20
239.234936
 30
0.0
 10
370.087342
 20
292.196302
 30
0.0
 10
356.844246
 20
294.831638
 30
0.0
 10
367.380057
 20
347.793007
 30
0.0
  0
SPLINE
  5
127
100
AcDbEntity
  8
top-0
 62
7
100
AcDbSpline
 70
8
 71
3
 72
8
 73
4
 74
0
 40
0
 40
0
 40
0
 40
0
 40
1
 40
1
 40
1
 40
1
 10
352.482831
 20
436.804470
 30
0.0
 10
352.482831
 20
435.488830
 30
0.0
 10
351.960195
 20
434.227074
 30
0.0
 10
351.029897
 20
433.296775
 30
0.0
  0
SPLINE
  5
128
100
AcDbEntity
  8
top-0
 62
7
100
AcDbSpline
 70
8
 71
3
 72
8
 73
4
 74
0
 40
0
 40
0
 40
0
 40
0
 40
1
 40
1
 40
1
 40
1
 10
351.029897
 20
433.296775
 30
0.0
 10
350.099598
 20
432.366477
 30
0.0
 10
348.837842
 20
431.843841
 30
0.0
 10
347.522202
 20
431.843841
 30
0.0
  0
SPLINE
  5
129
100
AcDbEntity
  8
top-0
 62
7
100
AcDbSpline
 70
8
 71
3
 72
8
 73
4
 74
0
 40
0
 40
0
 40
0
 40
0
 40
1
 40
1
 40
1
 40
1
 10
347.522202
 20
431.843841
 30
0.0
 10
346.206561
 20
431.843841
 30
0.0
 10
344.944805
 20
432.366477
 30
0.0
 10
344.014507
 20
433.296775
 30
0.0
  0
SPLINE
  5
12a
100
AcDbEntity
  8
top-0
 62
7
100
AcDbSpline
 70
8
 71
3
 72
8
 73
4
 74
0
 40
0
 40
0
 40
0
 40
0
 40
1
 40
1
 40
1
 40
1
 10
344.014507
 20
433.296775
 30
0.0
 10
343.084208
 20
434.227074
 30
0.0
 10
342.561572
 20
435.488830
 30
0.0
 10
342.561572
 20
436.804470
 30
0.0
  0
SPLINE
  5
12b
100
AcDbEntity
  8
top-0
 62
7
100
AcDbSpline
 70
8
 71
3
 72
8
 73
4
 74
0
 40
0
 40
0
 40
0
 40
0
 40
1
 40
1
 40
1
 40
1
 10
342.561572
 20
436.804470
 30
0.0
 10
342.561572
 20
438.120111
 30
0.0
 10
343.084208
 20
439.381867
 30
0.0
 10
344.014507
 20
440.312165
 30
0.0
  0
SPLINE
  5
12c
100
AcDbEntity
  8
top-0
 62
7
100
AcDbSpline
 70
8
 71
3
 72
8
 73
4
 74
0
 40
0
 40
0
 40
0
 40
0
 40
1
 40
1
 40
1
 40
1
 10
344.014507
 20
440.312165
 30
0.0
 10
344.944805
 20
441.242464
 30
0.0
 10
346.206561
 20
441.765100
 30
0.0
 10
347.522202
 20
441.765100
 30
0.0
  0
SPLINE
  5
12d
100
AcDbEntity
  8
top-0
 62
7
100
AcDbSpline
 70
8
 71
3
 72
8
 73
4
 74
0
 40
0
 40
0
 40
0
 40
0
 40
1
 40
1
 40
1
 40
1
 10
347.522202
 20
441.765100
 30
0.0
 10
348.837842
 20
441.765100
 30
0.0
 10
350.099598
 20
441.242464
 30
0.0
 10
351.029897
 20
440.312165
 30
0.0
  0
SPLINE
  5
12e
100
AcDbEntity
  8
top-0
 62
7
100
AcDbSpline
 70
8
 71
3
 72
8
 73
4
 74
0
 40
0
 40
0
 40
0
 40
0
 40
1
 40
1
 40
1
 40
1
 10
351.029897
 20
440.312165
 30
0.0
 10
351.960195
 20
439.381867
 30
0.0
 10
352.482831
 20
438.120111
 30
0.0
 10
352.482831
 20
436.804470
 30
0.0
  0
LWPOLYLINE
  5
12f
100
AcDbEntity
  8
top-0
 62
7
100
AcDbPolyline
 90
23
 70
1
 10
750.405997
 20
412.275518
 30
0.0
 10
509.300561
 20
364.313534
 30
0.0
 10
400.587477
 20
342.688286
 30
0.0
 10
412.230557
 20
284.162820
 30
0.0
 10
425.473682
 20
286.798156
 30
0.0
 10
434.902195
 20
239.395348
 30
0.0
 10
408.415975
 20
234.130218
 30
0.0
 10
418.951786
 20
181.168849
 30
0.0
 10
405.714189
 20
178.533513
 30
0.0
 10
417.357298
 20
120.008041
 30
0.0
 10
555.324803
 20
147.452060
 30
0.0
 10
544.788992
 20
200.418970
 30
0.0
 10
631.301046
 20
217.626157
 30
0.0
 10
631.301046
 20
217.620488
 30
0.0
 10
671.633858
 20
225.648292
 30
0.0
 10
682.169669
 20
172.681387
 30
0.0
 10
740.695124
 20
184.324473
 30
0.0
 10
730.159313
 20
237.285842
 30
0.0
 10
743.402438
 20
239.921175
 30
0.0
 10
732.866627
 20
292.888080
 30
0.0
 10
759.347320
 20
298.153213
 30
0.0
 10
748.811509
 20
351.114582
 30
0.0
 10
762.054633
 20
353.749915
 30
0.0
  0
SPLINE
  5
130
100
AcDbEntity
  8
top-0
 62
7
100
AcDbSpline
 70
8
 71
3
 72
8
 73
4
 74
0
 40
0
 40
0
 40
0
 40
0
 40
1
 40
1
 40
1
 40
1
 10
21.610394
 20
317.973146
 30
0.0
 10
21.610394
 20
315.233466
 30
0.0
 10
19.389444
 20
313.012517
 30
0.0
 10
16.649764
 20
313.012517
 30
0.0
  0
SPLINE
  5
131
100
AcDbEntity
  8
top-0
 62
7
100
AcDbSpline
 70
8
 71
3
 72
8
 73
4
 74
0
 40
0
 40
0
 40
0
 40
0
 40
1
 40
1
 40
1
 40
1
 10
16.649764
 20
313.012517
 30
0.0
 10
15.334123
 20
313.012517
 30
0.0
 10
14.072368
 20
313.535153
 30
0.0
 10
13.142069
 20
314.465451
 30
0.0
  0
SPLINE
  5
132
100
AcDbEntity
  8
top-0
 62
7
100
AcDbSpline
 70
8
 71
3
 72
8
 73
4
 74
0
 40
0
 40
0
 40
0
 40
0
 40
1
 40
1
 40
1
 40
1
 10
13.142069
 20
314.465451
 30
0.0
 10
12.211771
 20
315.395750
 30
0.0
 10
11.689134
 20
316.657506
 30
0.0
 10
11.689134
 20
317.973146
 30
0.0
  0
SPLINE
  5
133
100
AcDbEntity
  8
top-0
 62
7
100
AcDbSpline
 70
8
 71
3
 72
8
 73
4
 74
0
 40
0
 40
0
 40
0
 40
0
 40
1
 40
1
 40
1
 40
1
 10
11.689134
 20
317.973146
 30
0.0
 10
11.689134
 20
319.288787
 30
0.0
 10
12.211771
 20
320.550543
 30
0.0
 10
13.142069
 20
321.480842
 30
0.0
  0
SPLINE
  5
134
100
AcDbEntity
  8
top-0
 62
7
100
AcDbSpline
 70
8
 71
3
 72
8
 73
4
 74
0
 40
0
 40
0
 40
0
 40
0
 40
1
 40
1
 40
1
 40
1
 10
13.142069
 20
321.480842
 30
0.0
 10
14.072368
 20
322.411140
 30
0.0
 10
15.334123
 20
322.933776
 30
0.0
 10
16.649764
 20
322.933776
 30
0.0
  0
SPLINE
  5
135
100
AcDbEntity
  8
top-0
 62
7
100
AcDbSpline
 70
8
 71
3
 72
8
 73
4
 74
0
 40
0
 40
0
 40
0
 40
0
 40
1
 40
1
 40
1
 40
1
 10
16.649764
 20
322.933776
 30
0.0
 10
19.389444
 20
322.933776
 30
0.0
 10
21.610394
 20
320.712827
 30
0.0
 10
21.610394
 20
317.973146
 30
0.0
  0
LWPOLYLINE
  5
136
100
AcDbEntity
  8
top-0
 62
7
100
AcDbPolyline
 90
1
 70
1
 10
352.482831
 20
436.804470
 30
0.0
  0
SPLINE
  5
137
100
AcDbEntity
  8
top-0
 62
7
100
AcDbSpline
 70
8
 71
3
 72
8
 73
4
 74
0
 40
0
 40
0
 40
0
 40
0
 40
1
 40
1
 40
1
 40
1
 10
782.547420
 20
317.973146
 30
0.0
 10
782.547420
 20
316.657506
 30
0.0
 10
782.024784
 20
315.395750
 30
0.0
 10
781.094486
 20
314.465451
 30
0.0
  0
SPLINE
  5
138
100
AcDbEntity
  8
top-0
 62
7
100
AcDbSpline
 70
8
 71
3
 72
8
 73
4
 74
0
 40
0
 40
0
 40
0
 40
0
 40
1
 40
1
 40
1
 40
1
 10
781.094486
 20
314.465451
 30
0.0
 10
780.164187
 20
313.535153
 30
0.0
 10
778.902431
 20
313.012517
 30
0.0
 10
777.586791
 20
313.012517
 30
0.0
  0
SPLINE
  5
139
100
AcDbEntity
  8
top-0
 62
7
100
AcDbSpline
 70
8
 71
3
 72
8
 73
4
 74
0
 40
0
 40
0
 40
0
 40
0
 40
1
 40
1
 40
1
 40
1
 10
777.586791
 20
313.012517
 30
0.0
 10
776.271150
 20
313.012517
 30
0.0
 10
775.009394
 20
313.535153
 30
0.0
 10
774.079095
 20
314.465451
 30
0.0
  0
SPLINE
  5
13a
100
AcDbEntity
  8
top-0
 62
7
100
AcDbSpline
 70
8
 71
3
 72
8
 73
4
 74
0
 40
0
 40
0
 40
0
 40
0
 40
1
 40
1
 40
1
 40
1
 10
774.079095
 20
314.465451
 30
0.0
 10
773.148797
 20
315.395750
 30
0.0
 10
772.626161
 20
316.657506
 30
0.0
 10
772.626161
 20
317.973146
 30
0.0
  0
SPLINE
  5
13b
100
AcDbEntity
  8
top-0
 62
7
100
AcDbSpline
 70
8
 71
3
 72
8
 73
4
 74
0
 40
0
 40
0
 40
0
 40
0
 40
1
 40
1
 40
1
 40
1
 10
772.626161
 20
317.973146
 30
0.0
 10
772.626161
 20
319.288787
 30
0.0
 10
773.148797
 20
320.550543
 30
0.0
 10
774.079095
 20
321.480842
 30
0.0
  0
SPLINE
  5
13c
100
AcDbEntity
  8
top-0
 62
7
100
AcDbSpline
 70
8
 71
3
 72
8
 73
4
 74
0
 40
0
 40
0
 40
0
 40
0
 40
1
 40
1
 40
1
 40
1
 10
774.079095
 20
321.480842
 30
0.0
 10
775.009394
 20
322.411140
 30
0.0
 10
776.271150
 20
322.933776
 30
0.0
 10
777.586791
 20
322.933776
 30
0.0
  0
SPLINE
  5
13d
100
AcDbEntity
  8
top-0
 62
7
100
AcDbSpline
 70
8
 71
3
 72
8
 73
4
 74
0
 40
0
 40
0
 40
0
 40
0
 40
1
 40
1
 40
1
 40
1
 10
777.586791
 20
322.933776
 30
0.0
 10
778.902431
 20
322.933776
 30
0.0
 10
780.164187
 20
322.411140
 30
0.0
 10
781.094486
 20
321.480842
 30
0.0
  0
SPLINE
  5
13e
100
AcDbEntity
  8
top-0
 62
7
100
AcDbSpline
 70
8
 71
3
 72
8
 73
4
 74
0
 40
0
 40
0
 40
0
 40
0
 40
1
 40
1
 40
1
 40
1
 10
781.094486
 20
321.480842
 30
0.0
 10
782.024784
 20
320.550543
 30
0.0
 10
782.547420
 20
319.288787
 30
0.0
 10
782.547420
 20
317.973146
 30
0.0
  0
LWPOLYLINE
  5
13f
100
AcDbEntity
  8
top-0
 62
7
100
AcDbPolyline
 90
1
 70
1
 10
21.610394
 20
317.973146
 30
0.0
  0
SPLINE
  5
140
100
AcDbEntity
  8
top-0
 62
7
100
AcDbSpline
 70
8
 71
3
 72
8
 73
4
 74
0
 40
0
 40
0
 40
0
 40
0
 40
1
 40
1
 40
1
 40
1
 10
35.593070
 20
423.670609
 30
0.0
 10
35.593070
 20
422.354968
 30
0.0
 10
35.070433
 20
421.093213
 30
0.0
 10
34.140135
 20
420.162914
 30
0.0
  0
SPLINE
  5
141
100
AcDbEntity
  8
top-0
 62
7
100
AcDbSpline
 70
8
 71
3
 72
8
 73
4
 74
0
 40
0
 40
0
 40
0
 40
0
 40
1
 40
1
 40
1
 40
1
 10
34.140135
 20
420.162914
 30
0.0
 10
33.209836
 20
419.232616
 30
0.0
 10
31.948081
 20
418.709979
 30
0.0
 10
30.632440
 20
418.709979
 30
0.0
  0
SPLINE
  5
142
100
AcDbEntity
  8
top-0
 62
7
100
AcDbSpline
 70
8
 71
3
 72
8
 73
4
 74
0
 40
0
 40
0
 40
0
 40
0
 40
1
 40
1
 40
1
 40
1
 10
30.632440
 20
418.709979
 30
0.0
 10
27.892760
 20
418.709980
 30
0.0
 10
25.671810
 20
420.930929
 30
0.0
 10
25.671810
 20
423.670609
 30
0.0
  0
SPLINE
  5
143
100
AcDbEntity
  8
top-0
 62
7
100
AcDbSpline
 70
8
 71
3
 72
8
 73
4
 74
0
 40
0
 40
0
 40
0
 40
0
 40
1
 40
1
 40
1
 40
1
 10
25.671810
 20
423.670609
 30
0.0
 10
25.671810
 20
424.986250
 30
0.0
 10
26.194446
 20
426.248006
 30
0.0
 10
27.124745
 20
427.178304
 30
0.0
  0
SPLINE
  5
144
100
AcDbEntity
  8
top-0
 62
7
100
AcDbSpline
 70
8
 71
3
 72
8
 73
4
 74
0
 40
0
 40
0
 40
0
 40
0
 40
1
 40
1
 40
1
 40
1
 10
27.124745
 20
427.178304
 30
0.0
 10
28.055043
 20
428.108603
 30
0.0
 10
29.316799
 20
428.631239
 30
0.0
 10
30.632440
 20
428.631240
 30
0.0
  0
SPLINE
  5
145
100
AcDbEntity
  8
top-0
 62
7
100
AcDbSpline
 70
8
 71
3
 72
8
 73
4
 74
0
 40
0
 40
0
 40
0
 40
0
 40
1
 40
1
 40
1
 40
1
 10
30.632440
 20
428.631240
 30
0.0
 10
31.948081
 20
428.631240
 30
0.0
 10
33.209836
 20
428.108603
 30
0.0
 10
34.140135
 20
427.178305
 30
0.0
  0
SPLINE
  5
146
100
AcDbEntity
  8
top-0
 62
7
100
AcDbSpline
 70
8
 71
3
 72
8
 73
4
 74
0
 40
0
 40
0
 40
0
 40
0
 40
1
 40
1
 40
1
 40
1
 10
34.140135
 20
427.178305
 30
0.0
 10
35.070434
 20
426.248006
 30
0.0
 10
35.593070
 20
424.986250
 30
0.0
 10
35.593070
 20
423.670609
 30
0.0
  0
LWPOLYLINE
  5
147
100
AcDbEntity
  8
top-0
 62
7
100
AcDbPolyline
 90
1
 70
1
 10
782.547420
 20
317.973146
 30
0.0
  0
SPLINE
  5
148
100
AcDbEntity
  8
top-0
 62
7
100
AcDbSpline
 70
8
 71
3
 72
8
 73
4
 74
0
 40
0
 40
0
 40
0
 40
0
 40
1
 40
1
 40
1
 40
1
 10
768.679739
 20
423.669957
 30
0.0
 10
768.679739
 20
422.354316
 30
0.0
 10
768.157102
 20
421.092561
 30
0.0
 10
767.226804
 20
420.162262
 30
0.0
  0
SPLINE
  5
149
100
AcDbEntity
  8
top-0
 62
7
100
AcDbSpline
 70
8
 71
3
 72
8
 73
4
 74
0
 40
0
 40
0
 40
0
 40
0
 40
1
 40
1
 40
1
 40
1
 10
767.226804
 20
420.162262
 30
0.0
 10
766.296505
 20
419.231964
 30
0.0
 10
765.034750
 20
418.709327
 30
0.0
 10
763.719109
 20
418.709327
 30
0.0
  0
SPLINE
  5
14a
100
AcDbEntity
  8
top-0
 62
7
100
AcDbSpline
 70
8
 71
3
 72
8
 73
4
 74
0
 40
0
 40
0
 40
0
 40
0
 40
1
 40
1
 40
1
 40
1
 10
763.719109
 20
418.709327
 30
0.0
 10
762.403468
 20
418.709327
 30
0.0
 10
761.141712
 20
419.231964
 30
0.0
 10
760.211414
 20
420.162262
 30
0.0
  0
SPLINE
  5
14b
100
AcDbEntity
  8
top-0
 62
7
100
AcDbSpline
 70
8
 71
3
 72
8
 73
4
 74
0
 40
0
 40
0
 40
0
 40
0
 40
1
 40
1
 40
1
 40
1
 10
760.211414
 20
420.162262
 30
0.0
 10
759.281115
 20
421.092561
 30
0.0
 10
758.758479
 20
422.354316
 30
0.0
 10
758.758479
 20
423.669957
 30
0.0
  0
SPLINE
  5
14c
100
AcDbEntity
  8
top-0
 62
7
100
AcDbSpline
 70
8
 71
3
 72
8
 73
4
 74
0
 40
0
 40
0
 40
0
 40
0
 40
1
 40
1
 40
1
 40
1
 10
758.758479
 20
423.669957
 30
0.0
 10
758.758478
 20
424.985598
 30
0.0
 10
759.281115
 20
426.247354
 30
0.0
 10
760.211413
 20
427.177653
 30
0.0
  0
SPLINE
  5
14d
100
AcDbEntity
  8
top-0
 62
7
100
AcDbSpline
 70
8
 71
3
 72
8
 73
4
 74
0
 40
0
 40
0
 40
0
 40
0
 40
1
 40
1
 40
1
 40
1
 10
760.211413
 20
427.177653
 30
0.0
 10
761.141712
 20
428.107952
 30
0.0
 10
762.403468
 20
428.630588
 30
0.0
 10
763.719109
 20
428.630588
 30
0.0
  0
SPLINE
  5
14e
100
AcDbEntity
  8
top-0
 62
7
100
AcDbSpline
 70
8
 71
3
 72
8
 73
4
 74
0
 40
0
 40
0
 40
0
 40
0
 40
1
 40
1
 40
1
 40
1
 10
763.719109
 20
428.630588
 30
0.0
 10
765.034750
 20
428.630588
 30
0.0
 10
766.296506
 20
428.107952
 30
0.0
 10
767.226804
 20
427.177653
 30
0.0
  0
SPLINE
  5
14f
100
AcDbEntity
  8
top-0
 62
7
100
AcDbSpline
 70
8
 71
3
 72
8
 73
4
 74
0
 40
0
 40
0
 40
0
 40
0
 40
1
 40
1
 40
1
 40
1
 10
767.226804
 20
427.177653
 30
0.0
 10
768.157103
 20
426.247354
 30
0.0
 10
768.679739
 20
424.985598
 30
0.0
 10
768.679739
 20
423.669957
 30
0.0
  0
LWPOLYLINE
  5
150
100
AcDbEntity
  8
top-0
 62
7
100
AcDbPolyline
 90
1
 70
1
 10
35.593070
 20
423.670609
 30
0.0
  0
SPLINE
  5
151
100
AcDbEntity
  8
top-0
 62
7
100
AcDbSpline
 70
8
 71
3
 72
8
 73
4
 74
0
 40
0
 40
0
 40
0
 40
0
 40
1
 40
1
 40
1
 40
1
 10
35.593696
 20
184.711527
 30
0.0
 10
35.593696
 20
183.395886
 30
0.0
 10
35.071060
 20
182.134130
 30
0.0
 10
34.140761
 20
181.203832
 30
0.0
  0
SPLINE
  5
152
100
AcDbEntity
  8
top-0
 62
7
100
AcDbSpline
 70
8
 71
3
 72
8
 73
4
 74
0
 40
0
 40
0
 40
0
 40
0
 40
1
 40
1
 40
1
 40
1
 10
34.140761
 20
181.203832
 30
0.0
 10
33.210463
 20
180.273533
 30
0.0
 10
31.948707
 20
179.750897
 30
0.0
 10
30.633066
 20
179.750897
 30
0.0
  0
SPLINE
  5
153
100
AcDbEntity
  8
top-0
 62
7
100
AcDbSpline
 70
8
 71
3
 72
8
 73
4
 74
0
 40
0
 40
0
 40
0
 40
0
 40
1
 40
1
 40
1
 40
1
 10
30.633066
 20
179.750897
 30
0.0
 10
27.893386
 20
179.750898
 30
0.0
 10
25.672437
 20
181.971847
 30
0.0
 10
25.672437
 20
184.711527
 30
0.0
  0
SPLINE
  5
154
100
AcDbEntity
  8
top-0
 62
7
100
AcDbSpline
 70
8
 71
3
 72
8
 73
4
 74
0
 40
0
 40
0
 40
0
 40
0
 40
1
 40
1
 40
1
 40
1
 10
25.672437
 20
184.711527
 30
0.0
 10
25.672437
 20
187.451207
 30
0.0
 10
27.893386
 20
189.672156
 30
0.0
 10
30.633066
 20
189.672157
 30
0.0
  0
SPLINE
  5
155
100
AcDbEntity
  8
top-0
 62
7
100
AcDbSpline
 70
8
 71
3
 72
8
 73
4
 74
0
 40
0
 40
0
 40
0
 40
0
 40
1
 40
1
 40
1
 40
1
 10
30.633066
 20
189.672157
 30
0.0
 10
31.948707
 20
189.672157
 30
0.0
 10
33.210463
 20
189.149521
 30
0.0
 10
34.140761
 20
188.219222
 30
0.0
  0
SPLINE
  5
156
100
AcDbEntity
  8
top-0
 62
7
100
AcDbSpline
 70
8
 71
3
 72
8
 73
4
 74
0
 40
0
 40
0
 40
0
 40
0
 40
1
 40
1
 40
1
 40
1
 10
34.140761
 20
188.219222
 30
0.0
 10
35.071060
 20
187.288923
 30
0.0
 10
35.593696
 20
186.027168
 30
0.0
 10
35.593696
 20
184.711527
 30
0.0
  0
LWPOLYLINE
  5
157
100
AcDbEntity
  8
top-0
 62
7
100
AcDbPolyline
 90
1
 70
1
 10
768.679739
 20
423.669957
 30
0.0
  0
SPLINE
  5
158
100
AcDbEntity
  8
top-0
 62
7
100
AcDbSpline
 70
8
 71
3
 72
8
 73
4
 74
0
 40
0
 40
0
 40
0
 40
0
 40
1
 40
1
 40
1
 40
1
 10
768.680334
 20
184.711096
 30
0.0
 10
768.680334
 20
183.395455
 30
0.0
 10
768.157698
 20
182.133700
 30
0.0
 10
767.227399
 20
181.203401
 30
0.0
  0
SPLINE
  5
159
100
AcDbEntity
  8
top-0
 62
7
100
AcDbSpline
 70
8
 71
3
 72
8
 73
4
 74
0
 40
0
 40
0
 40
0
 40
0
 40
1
 40
1
 40
1
 40
1
 10
767.227399
 20
181.203401
 30
0.0
 10
766.297100
 20
180.273102
 30
0.0
 10
765.035345
 20
179.750466
 30
0.0
 10
763.719704
 20
179.750466
 30
0.0
  0
SPLINE
  5
15a
100
AcDbEntity
  8
top-0
 62
7
100
AcDbSpline
 70
8
 71
3
 72
8
 73
4
 74
0
 40
0
 40
0
 40
0
 40
0
 40
1
 40
1
 40
1
 40
1
 10
763.719704
 20
179.750466
 30
0.0
 10
762.404063
 20
179.750466
 30
0.0
 10
761.142307
 20
180.273102
 30
0.0
 10
760.212009
 20
181.203401
 30
0.0
  0
SPLINE
  5
15b
100
AcDbEntity
  8
top-0
 62
7
100
AcDbSpline
 70
8
 71
3
 72
8
 73
4
 74
0
 40
0
 40
0
 40
0
 40
0
 40
1
 40
1
 40
1
 40
1
 10
760.212009
 20
181.203401
 30
0.0
 10
759.281710
 20
182.133700
 30
0.0
 10
758.759074
 20
183.395455
 30
0.0
 10
758.759074
 20
184.711096
 30
0.0
  0
SPLINE
  5
15c
100
AcDbEntity
  8
top-0
 62
7
100
AcDbSpline
 70
8
 71
3
 72
8
 73
4
 74
0
 40
0
 40
0
 40
0
 40
0
 40
1
 40
1
 40
1
 40
1
 10
758.759074
 20
184.711096
 30
0.0
 10
758.759074
 20
186.026737
 30
0.0
 10
759.281710
 20
187.288493
 30
0.0
 10
760.212009
 20
188.218791
 30
0.0
  0
SPLINE
  5
15d
100
AcDbEntity
  8
top-0
 62
7
100
AcDbSpline
 70
8
 71
3
 72
8
 73
4
 74
0
 40
0
 40
0
 40
0
 40
0
 40
1
 40
1
 40
1
 40
1
 10
760.212009
 20
188.218791
 30
0.0
 10
761.142307
 20
189.149090
 30
0.0
 10
762.404063
 20
189.671726
 30
0.0
 10
763.719704
 20
189.671726
 30
0.0
  0
SPLINE
  5
15e
100
AcDbEntity
  8
top-0
 62
7
100
AcDbSpline
 70
8
 71
3
 72
8
 73
4
 74
0
 40
0
 40
0
 40
0
 40
0
 40
1
 40
1
 40
1
 40
1
 10
763.719704
 20
189.671726
 30
0.0
 10
765.035345
 20
189.671726
 30
0.0
 10
766.297100
 20
189.149090
 30
0.0
 10
767.227399
 20
188.218791
 30
0.0
  0
SPLINE
  5
15f
100
AcDbEntity
  8
top-0
 62
7
100
AcDbSpline
 70
8
 71
3
 72
8
 73
4
 74
0
 40
0
 40
0
 40
0
 40
0
 40
1
 40
1
 40
1
 40
1
 10
767.227399
 20
188.218791
 30
0.0
 10
768.157698
 20
187.288493
 30
0.0
 10
768.680334
 20
186.026737
 30
0.0
 10
768.680334
 20
184.711096
 30
0.0
  0
LWPOLYLINE
  5
160
100
AcDbEntity
  8
top-0
 62
7
100
AcDbPolyline
 90
1
 70
1
 10
35.593696
 20
184.711527
 30
0.0
  0
SPLINE
  5
161
100
AcDbEntity
  8
top-0
 62
7
100
AcDbSpline
 70
8
 71
3
 72
8
 73
4
 74
0
 40
0
 40
0
 40
0
 40
0
 40
1
 40
1
 40
1
 40
1
 10
452.369197
 20
436.804470
 30
0.0
 10
452.369197
 20
435.488830
 30
0.0
 10
451.846561
 20
434.227074
 30
0.0
 10
450.916262
 20
433.296775
 30
0.0
  0
SPLINE
  5
162
100
AcDbEntity
  8
top-0
 62
7
100
AcDbSpline
 70
8
 71
3
 72
8
 73
4
 74
0
 40
0
 40
0
 40
0
 40
0
 40
1
 40
1
 40
1
 40
1
 10
450.916262
 20
433.296775
 30
0.0
 10
449.985963
 20
432.366477
 30
0.0
 10
448.724208
 20
431.843841
 30
0.0
 10
447.408567
 20
431.843841
 30
0.0
  0
SPLINE
  5
163
100
AcDbEntity
  8
top-0
 62
7
100
AcDbSpline
 70
8
 71
3
 72
8
 73
4
 74
0
 40
0
 40
0
 40
0
 40
0
 40
1
 40
1
 40
1
 40
1
 10
447.408567
 20
431.843841
 30
0.0
 10
446.092926
 20
431.843841
 30
0.0
 10
444.831170
 20
432.366477
 30
0.0
 10
443.900872
 20
433.296775
 30
0.0
  0
SPLINE
  5
164
100
AcDbEntity
  8
top-0
 62
7
100
AcDbSpline
 70
8
 71
3
 72
8
 73
4
 74
0
 40
0
 40
0
 40
0
 40
0
 40
1
 40
1
 40
1
 40
1
 10
443.900872
 20
433.296775
 30
0.0
 10
442.970573
 20
434.227074
 30
0.0
 10
442.447937
 20
435.488830
 30
0.0
 10
442.447937
 20
436.804470
 30
0.0
  0
SPLINE
  5
165
100
AcDbEntity
  8
top-0
 62
7
100
AcDbSpline
 70
8
 71
3
 72
8
 73
4
 74
0
 40
0
 40
0
 40
0
 40
0
 40
1
 40
1
 40
1
 40
1
 10
442.447937
 20
436.804470
 30
0.0
 10
442.447937
 20
438.120111
 30
0.0
 10
442.970573
 20
439.381867
 30
0.0
 10
443.900872
 20
440.312165
 30
0.0
  0
SPLINE
  5
166
100
AcDbEntity
  8
top-0
 62
7
100
AcDbSpline
 70
8
 71
3
 72
8
 73
4
 74
0
 40
0
 40
0
 40
0
 40
0
 40
1
 40
1
 40
1
 40
1
 10
443.900872
 20
440.312165
 30
0.0
 10
444.831170
 20
441.242464
 30
0.0
 10
446.092926
 20
441.765100
 30
0.0
 10
447.408567
 20
441.765100
 30
0.0
  0
SPLINE
  5
167
100
AcDbEntity
  8
top-0
 62
7
100
AcDbSpline
 70
8
 71
3
 72
8
 73
4
 74
0
 40
0
 40
0
 40
0
 40
0
 40
1
 40
1
 40
1
 40
1
 10
447.408567
 20
441.765100
 30
0.0
 10
448.724208
 20
441.765100
 30
0.0
 10
449.985963
 20
441.242464
 30
0.0
 10
450.916262
 20
440.312165
 30
0.0
  0
SPLINE
  5
168
100
AcDbEntity
  8
top-0
 62
7
100
AcDbSpline
 70
8
 71
3
 72
8
 73
4
 74
0
 40
0
 40
0
 40
0
 40
0
 40
1
 40
1
 40
1
 40
1
 10
450.916262
 20
440.312165
 30
0.0
 10
451.846561
 20
439.381867
 30
0.0
 10
452.369197
 20
438.120111
 30
0.0
 10
452.369197
 20
436.804470
 30
0.0
  0
LWPOLYLINE
  5
169
100
AcDbEntity
  8
top-0
 62
7
100
AcDbPolyline
 90
1
 70
1
 10
768.680334
 20
184.711096
 30
0.0
  0
SPLINE
  5
16a
100
AcDbEntity
  8
top-0
 62
7
100
AcDbSpline
 70
8
 71
3
 72
8
 73
4
 74
0
 40
0
 40
0
 40
0
 40
0
 40
1
 40
1
 40
1
 40
1
 10
295.791024
 20
123.631285
 30
0.0
 10
295.791024
 20
122.315644
 30
0.0
 10
295.268387
 20
121.053889
 30
0.0
 10
294.338089
 20
120.123590
 30
0.0
  0
SPLINE
  5
16b
100
AcDbEntity
  8
top-0
 62
7
100
AcDbSpline
 70
8
 71
3
 72
8
 73
4
 74
0
 40
0
 40
0
 40
0
 40
0
 40
1
 40
1
 40
1
 40
1
 10
294.338089
 20
120.123590
 30
0.0
 10
293.407790
 20
119.193291
 30
0.0
 10
292.146035
 20
118.670655
 30
0.0
 10
290.830394
 20
118.670655
 30
0.0
  0
SPLINE
  5
16c
100
AcDbEntity
  8
top-0
 62
7
100
AcDbSpline
 70
8
 71
3
 72
8
 73
4
 74
0
 40
0
 40
0
 40
0
 40
0
 40
1
 40
1
 40
1
 40
1
 10
290.830394
 20
118.670655
 30
0.0
 10
289.514753
 20
118.670655
 30
0.0
 10
288.252997
 20
119.193291
 30
0.0
 10
287.322699
 20
120.123590
 30
0.0
  0
SPLINE
  5
16d
100
AcDbEntity
  8
top-0
 62
7
100
AcDbSpline
 70
8
 71
3
 72
8
 73
4
 74
0
 40
0
 40
0
 40
0
 40
0
 40
1
 40
1
 40
1
 40
1
 10
287.322699
 20
120.123590
 30
0.0
 10
286.392400
 20
121.053889
 30
0.0
 10
285.869764
 20
122.315644
 30
0.0
 10
285.869764
 20
123.631285
 30
0.0
  0
SPLINE
  5
16e
100
AcDbEntity
  8
top-0
 62
7
100
AcDbSpline
 70
8
 71
3
 72
8
 73
4
 74
0
 40
0
 40
0
 40
0
 40
0
 40
1
 40
1
 40
1
 40
1
 10
285.869764
 20
123.631285
 30
0.0
 10
285.869764
 20
124.946926
 30
0.0
 10
286.392400
 20
126.208682
 30
0.0
 10
287.322699
 20
127.138980
 30
0.0
  0
SPLINE
  5
16f
100
AcDbEntity
  8
top-0
 62
7
100
AcDbSpline
 70
8
 71
3
 72
8
 73
4
 74
0
 40
0
 40
0
 40
0
 40
0
 40
1
 40
1
 40
1
 40
1
 10
287.322699
 20
127.138980
 30
0.0
 10
288.252997
 20
128.069279
 30
0.0
 10
289.514753
 20
128.591915
 30
0.0
 10
290.830394
 20
128.591915
 30
0.0
  0
SPLINE
  5
170
100
AcDbEntity
  8
top-0
 62
7
100
AcDbSpline
 70
8
 71
3
 72
8
 73
4
 74
0
 40
0
 40
0
 40
0
 40
0
 40
1
 40
1
 40
1
 40
1
 10
290.830394
 20
128.591915
 30
0.0
 10
292.146035
 20
128.591915
 30
0.0
 10
293.407790
 20
128.069279
 30
0.0
 10
294.338089
 20
127.138980
 30
0.0
  0
SPLINE
  5
171
100
AcDbEntity
  8
top-0
 62
7
100
AcDbSpline
 70
8
 71
3
 72
8
 73
4
 74
0
 40
0
 40
0
 40
0
 40
0
 40
1
 40
1
 40
1
 40
1
 10
294.338089
 20
127.138980
 30
0.0
 10
295.268387
 20
126.208682
 30
0.0
 10
295.791024
 20
124.946926
 30
0.0
 10
295.791024
 20
123.631285
 30
0.0
  0
LWPOLYLINE
  5
172
100
AcDbEntity
  8
top-0
 62
7
100
AcDbPolyline
 90
1
 70
1
 10
452.369197
 20
436.804470
 30
0.0
  0
SPLINE
  5
173
100
AcDbEntity
  8
top-0
 62
7
100
AcDbSpline
 70
8
 71
3
 72
8
 73
4
 74
0
 40
0
 40
0
 40
0
 40
0
 40
1
 40
1
 40
1
 40
1
 10
509.064094
 20
123.631285
 30
0.0
 10
509.064094
 20
122.315644
 30
0.0
 10
508.541458
 20
121.053889
 30
0.0
 10
507.611160
 20
120.123590
 30
0.0
  0
SPLINE
  5
174
100
AcDbEntity
  8
top-0
 62
7
100
AcDbSpline
 70
8
 71
3
 72
8
 73
4
 74
0
 40
0
 40
0
 40
0
 40
0
 40
1
 40
1
 40
1
 40
1
 10
507.611160
 20
120.123590
 30
0.0
 10
506.680861
 20
119.193291
 30
0.0
 10
505.419105
 20
118.670655
 30
0.0
 10
504.103465
 20
118.670655
 30
0.0
  0
SPLINE
  5
175
100
AcDbEntity
  8
top-0
 62
7
100
AcDbSpline
 70
8
 71
3
 72
8
 73
4
 74
0
 40
0
 40
0
 40
0
 40
0
 40
1
 40
1
 40
1
 40
1
 10
504.103465
 20
118.670655
 30
0.0
 10
502.787824
 20
118.670655
 30
0.0
 10
501.526068
 20
119.193291
 30
0.0
 10
500.595770
 20
120.123590
 30
0.0
  0
SPLINE
  5
176
100
AcDbEntity
  8
top-0
 62
7
100
AcDbSpline
 70
8
 71
3
 72
8
 73
4
 74
0
 40
0
 40
0
 40
0
 40
0
 40
1
 40
1
 40
1
 40
1
 10
500.595770
 20
120.123590
 30
0.0
 10
499.665471
 20
121.053889
 30
0.0
 10
499.142835
 20
122.315644
 30
0.0
 10
499.142835
 20
123.631285
 30
0.0
  0
SPLINE
  5
177
100
AcDbEntity
  8
top-0
 62
7
100
AcDbSpline
 70
8
 71
3
 72
8
 73
4
 74
0
 40
0
 40
0
 40
0
 40
0
 40
1
 40
1
 40
1
 40
1
 10
499.142835
 20
123.631285
 30
0.0
 10
499.142835
 20
124.946926
 30
0.0
 10
499.665471
 20
126.208682
 30
0.0
 10
500.595770
 20
127.138980
 30
0.0
  0
SPLINE
  5
178
100
AcDbEntity
  8
top-0
 62
7
100
AcDbSpline
 70
8
 71
3
 72
8
 73
4
 74
0
 40
0
 40
0
 40
0
 40
0
 40
1
 40
1
 40
1
 40
1
 10
500.595770
 20
127.138980
 30
0.0
 10
501.526068
 20
128.069279
 30
0.0
 10
502.787824
 20
128.591915
 30
0.0
 10
504.103465
 20
128.591915
 30
0.0
  0
SPLINE
  5
179
100
AcDbEntity
  8
top-0
 62
7
100
AcDbSpline
 70
8
 71
3
 72
8
 73
4
 74
0
 40
0
 40
0
 40
0
 40
0
 40
1
 40
1
 40
1
 40
1
 10
504.103465
 20
128.591915
 30
0.0
 10
505.419105
 20
128.591915
 30
0.0
 10
506.680861
 20
128.069279
 30
0.0
 10
507.611160
 20
127.138980
 30
0.0
  0
SPLINE
  5
17a
100
AcDbEntity
  8
top-0
 62
7
100
AcDbSpline
 70
8
 71
3
 72
8
 73
4
 74
0
 40
0
 40
0
 40
0
 40
0
 40
1
 40
1
 40
1
 40
1
 10
507.611160
 20
127.138980
 30
0.0
 10
508.541458
 20
126.208682
 30
0.0
 10
509.064094
 20
124.946926
 30
0.0
 10
509.064094
 20
123.631285
 30
0.0
  0
LWPOLYLINE
  5
17b
100
AcDbEntity
  8
top-0
 62
7
100
AcDbPolyline
 90
1
 70
1
 10
295.791024
 20
123.631285
 30
0.0
  0
LWPOLYLINE
  5
17c
100
AcDbEntity
  8
top-0
 62
7
100
AcDbPolyline
 90
1
 70
1
 10
509.064094
 20
123.631285
 30
0.0
  0
ENDSEC
  0
SECTION
  2
OBJECTS
  0
DICTIONARY
  5
C
330
0
100
AcDbDictionary
  3
ACAD_GROUP
350
D
  3
ACAD_MLINESTYLE
350
17
  0
DICTIONARY
  5
D
330
C
100
AcDbDictionary
  0
DICTIONARY
  5
1A
330
C
100
AcDbDictionary
  0
DICTIONARY
  5
17
330
C
100
AcDbDictionary
  3
STANDARD
350
18
  0
DICTIONARY
  5
19
330
C
100
AcDbDictionary
  0
ENDSEC
  0
EOF
